G04 #@! TF.GenerationSoftware,KiCad,Pcbnew,5.1.8+dfsg1-1~bpo10+1*
G04 #@! TF.CreationDate,2020-12-07T14:22:28+08:00*
G04 #@! TF.ProjectId,stm32-io-extend,73746d33-322d-4696-9f2d-657874656e64,rev?*
G04 #@! TF.SameCoordinates,PX7d21b10PY76ffde0*
G04 #@! TF.FileFunction,Copper,L1,Top*
G04 #@! TF.FilePolarity,Positive*
%FSLAX46Y46*%
G04 Gerber Fmt 4.6, Leading zero omitted, Abs format (unit mm)*
G04 Created by KiCad (PCBNEW 5.1.8+dfsg1-1~bpo10+1) date 2020-12-07 14:22:28*
%MOMM*%
%LPD*%
G01*
G04 APERTURE LIST*
G04 #@! TA.AperFunction,SMDPad,CuDef*
%ADD10C,0.100000*%
G04 #@! TD*
G04 #@! TA.AperFunction,SMDPad,CuDef*
%ADD11R,0.900000X2.300000*%
G04 #@! TD*
G04 #@! TA.AperFunction,SMDPad,CuDef*
%ADD12R,1.000000X1.000000*%
G04 #@! TD*
G04 #@! TA.AperFunction,SMDPad,CuDef*
%ADD13R,7.875000X2.000000*%
G04 #@! TD*
G04 #@! TA.AperFunction,SMDPad,CuDef*
%ADD14R,1.700000X0.550000*%
G04 #@! TD*
G04 #@! TA.AperFunction,SMDPad,CuDef*
%ADD15R,0.900000X1.000000*%
G04 #@! TD*
G04 #@! TA.AperFunction,ComponentPad*
%ADD16O,1.700000X1.700000*%
G04 #@! TD*
G04 #@! TA.AperFunction,ComponentPad*
%ADD17R,1.700000X1.700000*%
G04 #@! TD*
G04 #@! TA.AperFunction,SMDPad,CuDef*
%ADD18R,0.600000X1.160000*%
G04 #@! TD*
G04 #@! TA.AperFunction,SMDPad,CuDef*
%ADD19R,0.300000X1.160000*%
G04 #@! TD*
G04 #@! TA.AperFunction,ComponentPad*
%ADD20O,0.900000X1.700000*%
G04 #@! TD*
G04 #@! TA.AperFunction,ComponentPad*
%ADD21O,0.900000X2.000000*%
G04 #@! TD*
G04 #@! TA.AperFunction,ViaPad*
%ADD22C,0.800000*%
G04 #@! TD*
G04 #@! TA.AperFunction,Conductor*
%ADD23C,0.250000*%
G04 #@! TD*
G04 APERTURE END LIST*
G04 #@! TA.AperFunction,SMDPad,CuDef*
D10*
G04 #@! TO.P,U1,2*
G04 #@! TO.N,Net-(D3-Pad2)*
G36*
X14833500Y42100000D02*
G01*
X14833500Y46225000D01*
X15250000Y46225000D01*
X15250000Y48700000D01*
X16150000Y48700000D01*
X16150000Y46225000D01*
X16566500Y46225000D01*
X16566500Y42100000D01*
X14833500Y42100000D01*
G37*
G04 #@! TD.AperFunction*
D11*
G04 #@! TO.P,U1,3*
G04 #@! TO.N,Net-(C2-Pad1)*
X14200000Y47550000D03*
G04 #@! TO.P,U1,1*
G04 #@! TO.N,GND*
X17200000Y47550000D03*
G04 #@! TD*
D12*
G04 #@! TO.P,D3,2*
G04 #@! TO.N,Net-(D3-Pad2)*
X20030000Y45610000D03*
G04 #@! TO.P,D3,1*
G04 #@! TO.N,VCC*
X22530000Y45610000D03*
G04 #@! TD*
G04 #@! TO.P,D1,2*
G04 #@! TO.N,+5V*
X10900000Y49650000D03*
G04 #@! TO.P,D1,1*
G04 #@! TO.N,Net-(D1-Pad1)*
X8400000Y49650000D03*
G04 #@! TD*
D13*
G04 #@! TO.P,Y1,2*
G04 #@! TO.N,/OSC_IN*
X9562500Y9950000D03*
G04 #@! TO.P,Y1,1*
G04 #@! TO.N,/OSC_OUT*
X21437500Y9950000D03*
G04 #@! TD*
G04 #@! TO.P,U2,48*
G04 #@! TO.N,VCC*
G04 #@! TA.AperFunction,SMDPad,CuDef*
G36*
G01*
X14475736Y21774516D02*
X13538820Y20837600D01*
G75*
G02*
X13432754Y20837600I-53033J53033D01*
G01*
X13326688Y20943666D01*
G75*
G02*
X13326688Y21049732I53033J53033D01*
G01*
X14263604Y21986648D01*
G75*
G02*
X14369670Y21986648I53033J-53033D01*
G01*
X14475736Y21880582D01*
G75*
G02*
X14475736Y21774516I-53033J-53033D01*
G01*
G37*
G04 #@! TD.AperFunction*
G04 #@! TO.P,U2,47*
G04 #@! TO.N,GND*
G04 #@! TA.AperFunction,SMDPad,CuDef*
G36*
G01*
X14122182Y22128070D02*
X13185266Y21191154D01*
G75*
G02*
X13079200Y21191154I-53033J53033D01*
G01*
X12973134Y21297220D01*
G75*
G02*
X12973134Y21403286I53033J53033D01*
G01*
X13910050Y22340202D01*
G75*
G02*
X14016116Y22340202I53033J-53033D01*
G01*
X14122182Y22234136D01*
G75*
G02*
X14122182Y22128070I-53033J-53033D01*
G01*
G37*
G04 #@! TD.AperFunction*
G04 #@! TO.P,U2,46*
G04 #@! TO.N,/PB9*
G04 #@! TA.AperFunction,SMDPad,CuDef*
G36*
G01*
X13768629Y22481623D02*
X12831713Y21544707D01*
G75*
G02*
X12725647Y21544707I-53033J53033D01*
G01*
X12619581Y21650773D01*
G75*
G02*
X12619581Y21756839I53033J53033D01*
G01*
X13556497Y22693755D01*
G75*
G02*
X13662563Y22693755I53033J-53033D01*
G01*
X13768629Y22587689D01*
G75*
G02*
X13768629Y22481623I-53033J-53033D01*
G01*
G37*
G04 #@! TD.AperFunction*
G04 #@! TO.P,U2,45*
G04 #@! TO.N,/PB8*
G04 #@! TA.AperFunction,SMDPad,CuDef*
G36*
G01*
X13415075Y22835177D02*
X12478159Y21898261D01*
G75*
G02*
X12372093Y21898261I-53033J53033D01*
G01*
X12266027Y22004327D01*
G75*
G02*
X12266027Y22110393I53033J53033D01*
G01*
X13202943Y23047309D01*
G75*
G02*
X13309009Y23047309I53033J-53033D01*
G01*
X13415075Y22941243D01*
G75*
G02*
X13415075Y22835177I-53033J-53033D01*
G01*
G37*
G04 #@! TD.AperFunction*
G04 #@! TO.P,U2,44*
G04 #@! TO.N,Net-(R6-Pad2)*
G04 #@! TA.AperFunction,SMDPad,CuDef*
G36*
G01*
X13061522Y23188730D02*
X12124606Y22251814D01*
G75*
G02*
X12018540Y22251814I-53033J53033D01*
G01*
X11912474Y22357880D01*
G75*
G02*
X11912474Y22463946I53033J53033D01*
G01*
X12849390Y23400862D01*
G75*
G02*
X12955456Y23400862I53033J-53033D01*
G01*
X13061522Y23294796D01*
G75*
G02*
X13061522Y23188730I-53033J-53033D01*
G01*
G37*
G04 #@! TD.AperFunction*
G04 #@! TO.P,U2,43*
G04 #@! TO.N,/PB7*
G04 #@! TA.AperFunction,SMDPad,CuDef*
G36*
G01*
X12707969Y23542283D02*
X11771053Y22605367D01*
G75*
G02*
X11664987Y22605367I-53033J53033D01*
G01*
X11558921Y22711433D01*
G75*
G02*
X11558921Y22817499I53033J53033D01*
G01*
X12495837Y23754415D01*
G75*
G02*
X12601903Y23754415I53033J-53033D01*
G01*
X12707969Y23648349D01*
G75*
G02*
X12707969Y23542283I-53033J-53033D01*
G01*
G37*
G04 #@! TD.AperFunction*
G04 #@! TO.P,U2,42*
G04 #@! TO.N,/PB6*
G04 #@! TA.AperFunction,SMDPad,CuDef*
G36*
G01*
X12354415Y23895837D02*
X11417499Y22958921D01*
G75*
G02*
X11311433Y22958921I-53033J53033D01*
G01*
X11205367Y23064987D01*
G75*
G02*
X11205367Y23171053I53033J53033D01*
G01*
X12142283Y24107969D01*
G75*
G02*
X12248349Y24107969I53033J-53033D01*
G01*
X12354415Y24001903D01*
G75*
G02*
X12354415Y23895837I-53033J-53033D01*
G01*
G37*
G04 #@! TD.AperFunction*
G04 #@! TO.P,U2,41*
G04 #@! TO.N,/PB5*
G04 #@! TA.AperFunction,SMDPad,CuDef*
G36*
G01*
X12000862Y24249390D02*
X11063946Y23312474D01*
G75*
G02*
X10957880Y23312474I-53033J53033D01*
G01*
X10851814Y23418540D01*
G75*
G02*
X10851814Y23524606I53033J53033D01*
G01*
X11788730Y24461522D01*
G75*
G02*
X11894796Y24461522I53033J-53033D01*
G01*
X12000862Y24355456D01*
G75*
G02*
X12000862Y24249390I-53033J-53033D01*
G01*
G37*
G04 #@! TD.AperFunction*
G04 #@! TO.P,U2,40*
G04 #@! TO.N,/PB4*
G04 #@! TA.AperFunction,SMDPad,CuDef*
G36*
G01*
X11647309Y24602943D02*
X10710393Y23666027D01*
G75*
G02*
X10604327Y23666027I-53033J53033D01*
G01*
X10498261Y23772093D01*
G75*
G02*
X10498261Y23878159I53033J53033D01*
G01*
X11435177Y24815075D01*
G75*
G02*
X11541243Y24815075I53033J-53033D01*
G01*
X11647309Y24709009D01*
G75*
G02*
X11647309Y24602943I-53033J-53033D01*
G01*
G37*
G04 #@! TD.AperFunction*
G04 #@! TO.P,U2,39*
G04 #@! TO.N,/PB3*
G04 #@! TA.AperFunction,SMDPad,CuDef*
G36*
G01*
X11293755Y24956497D02*
X10356839Y24019581D01*
G75*
G02*
X10250773Y24019581I-53033J53033D01*
G01*
X10144707Y24125647D01*
G75*
G02*
X10144707Y24231713I53033J53033D01*
G01*
X11081623Y25168629D01*
G75*
G02*
X11187689Y25168629I53033J-53033D01*
G01*
X11293755Y25062563D01*
G75*
G02*
X11293755Y24956497I-53033J-53033D01*
G01*
G37*
G04 #@! TD.AperFunction*
G04 #@! TO.P,U2,38*
G04 #@! TO.N,/PA15*
G04 #@! TA.AperFunction,SMDPad,CuDef*
G36*
G01*
X10940202Y25310050D02*
X10003286Y24373134D01*
G75*
G02*
X9897220Y24373134I-53033J53033D01*
G01*
X9791154Y24479200D01*
G75*
G02*
X9791154Y24585266I53033J53033D01*
G01*
X10728070Y25522182D01*
G75*
G02*
X10834136Y25522182I53033J-53033D01*
G01*
X10940202Y25416116D01*
G75*
G02*
X10940202Y25310050I-53033J-53033D01*
G01*
G37*
G04 #@! TD.AperFunction*
G04 #@! TO.P,U2,37*
G04 #@! TO.N,/PA14*
G04 #@! TA.AperFunction,SMDPad,CuDef*
G36*
G01*
X10586648Y25663604D02*
X9649732Y24726688D01*
G75*
G02*
X9543666Y24726688I-53033J53033D01*
G01*
X9437600Y24832754D01*
G75*
G02*
X9437600Y24938820I53033J53033D01*
G01*
X10374516Y25875736D01*
G75*
G02*
X10480582Y25875736I53033J-53033D01*
G01*
X10586648Y25769670D01*
G75*
G02*
X10586648Y25663604I-53033J-53033D01*
G01*
G37*
G04 #@! TD.AperFunction*
G04 #@! TO.P,U2,36*
G04 #@! TO.N,VCC*
G04 #@! TA.AperFunction,SMDPad,CuDef*
G36*
G01*
X10586648Y26830330D02*
X10480582Y26724264D01*
G75*
G02*
X10374516Y26724264I-53033J53033D01*
G01*
X9437600Y27661180D01*
G75*
G02*
X9437600Y27767246I53033J53033D01*
G01*
X9543666Y27873312D01*
G75*
G02*
X9649732Y27873312I53033J-53033D01*
G01*
X10586648Y26936396D01*
G75*
G02*
X10586648Y26830330I-53033J-53033D01*
G01*
G37*
G04 #@! TD.AperFunction*
G04 #@! TO.P,U2,35*
G04 #@! TO.N,GND*
G04 #@! TA.AperFunction,SMDPad,CuDef*
G36*
G01*
X10940202Y27183884D02*
X10834136Y27077818D01*
G75*
G02*
X10728070Y27077818I-53033J53033D01*
G01*
X9791154Y28014734D01*
G75*
G02*
X9791154Y28120800I53033J53033D01*
G01*
X9897220Y28226866D01*
G75*
G02*
X10003286Y28226866I53033J-53033D01*
G01*
X10940202Y27289950D01*
G75*
G02*
X10940202Y27183884I-53033J-53033D01*
G01*
G37*
G04 #@! TD.AperFunction*
G04 #@! TO.P,U2,34*
G04 #@! TO.N,/PA13*
G04 #@! TA.AperFunction,SMDPad,CuDef*
G36*
G01*
X11293755Y27537437D02*
X11187689Y27431371D01*
G75*
G02*
X11081623Y27431371I-53033J53033D01*
G01*
X10144707Y28368287D01*
G75*
G02*
X10144707Y28474353I53033J53033D01*
G01*
X10250773Y28580419D01*
G75*
G02*
X10356839Y28580419I53033J-53033D01*
G01*
X11293755Y27643503D01*
G75*
G02*
X11293755Y27537437I-53033J-53033D01*
G01*
G37*
G04 #@! TD.AperFunction*
G04 #@! TO.P,U2,33*
G04 #@! TO.N,/PA12*
G04 #@! TA.AperFunction,SMDPad,CuDef*
G36*
G01*
X11647309Y27890991D02*
X11541243Y27784925D01*
G75*
G02*
X11435177Y27784925I-53033J53033D01*
G01*
X10498261Y28721841D01*
G75*
G02*
X10498261Y28827907I53033J53033D01*
G01*
X10604327Y28933973D01*
G75*
G02*
X10710393Y28933973I53033J-53033D01*
G01*
X11647309Y27997057D01*
G75*
G02*
X11647309Y27890991I-53033J-53033D01*
G01*
G37*
G04 #@! TD.AperFunction*
G04 #@! TO.P,U2,32*
G04 #@! TO.N,/PA11*
G04 #@! TA.AperFunction,SMDPad,CuDef*
G36*
G01*
X12000862Y28244544D02*
X11894796Y28138478D01*
G75*
G02*
X11788730Y28138478I-53033J53033D01*
G01*
X10851814Y29075394D01*
G75*
G02*
X10851814Y29181460I53033J53033D01*
G01*
X10957880Y29287526D01*
G75*
G02*
X11063946Y29287526I53033J-53033D01*
G01*
X12000862Y28350610D01*
G75*
G02*
X12000862Y28244544I-53033J-53033D01*
G01*
G37*
G04 #@! TD.AperFunction*
G04 #@! TO.P,U2,31*
G04 #@! TO.N,/PA10*
G04 #@! TA.AperFunction,SMDPad,CuDef*
G36*
G01*
X12354415Y28598097D02*
X12248349Y28492031D01*
G75*
G02*
X12142283Y28492031I-53033J53033D01*
G01*
X11205367Y29428947D01*
G75*
G02*
X11205367Y29535013I53033J53033D01*
G01*
X11311433Y29641079D01*
G75*
G02*
X11417499Y29641079I53033J-53033D01*
G01*
X12354415Y28704163D01*
G75*
G02*
X12354415Y28598097I-53033J-53033D01*
G01*
G37*
G04 #@! TD.AperFunction*
G04 #@! TO.P,U2,30*
G04 #@! TO.N,/PA9*
G04 #@! TA.AperFunction,SMDPad,CuDef*
G36*
G01*
X12707969Y28951651D02*
X12601903Y28845585D01*
G75*
G02*
X12495837Y28845585I-53033J53033D01*
G01*
X11558921Y29782501D01*
G75*
G02*
X11558921Y29888567I53033J53033D01*
G01*
X11664987Y29994633D01*
G75*
G02*
X11771053Y29994633I53033J-53033D01*
G01*
X12707969Y29057717D01*
G75*
G02*
X12707969Y28951651I-53033J-53033D01*
G01*
G37*
G04 #@! TD.AperFunction*
G04 #@! TO.P,U2,29*
G04 #@! TO.N,/PA8*
G04 #@! TA.AperFunction,SMDPad,CuDef*
G36*
G01*
X13061522Y29305204D02*
X12955456Y29199138D01*
G75*
G02*
X12849390Y29199138I-53033J53033D01*
G01*
X11912474Y30136054D01*
G75*
G02*
X11912474Y30242120I53033J53033D01*
G01*
X12018540Y30348186D01*
G75*
G02*
X12124606Y30348186I53033J-53033D01*
G01*
X13061522Y29411270D01*
G75*
G02*
X13061522Y29305204I-53033J-53033D01*
G01*
G37*
G04 #@! TD.AperFunction*
G04 #@! TO.P,U2,28*
G04 #@! TO.N,/PB15*
G04 #@! TA.AperFunction,SMDPad,CuDef*
G36*
G01*
X13415075Y29658757D02*
X13309009Y29552691D01*
G75*
G02*
X13202943Y29552691I-53033J53033D01*
G01*
X12266027Y30489607D01*
G75*
G02*
X12266027Y30595673I53033J53033D01*
G01*
X12372093Y30701739D01*
G75*
G02*
X12478159Y30701739I53033J-53033D01*
G01*
X13415075Y29764823D01*
G75*
G02*
X13415075Y29658757I-53033J-53033D01*
G01*
G37*
G04 #@! TD.AperFunction*
G04 #@! TO.P,U2,27*
G04 #@! TO.N,/PB14*
G04 #@! TA.AperFunction,SMDPad,CuDef*
G36*
G01*
X13768629Y30012311D02*
X13662563Y29906245D01*
G75*
G02*
X13556497Y29906245I-53033J53033D01*
G01*
X12619581Y30843161D01*
G75*
G02*
X12619581Y30949227I53033J53033D01*
G01*
X12725647Y31055293D01*
G75*
G02*
X12831713Y31055293I53033J-53033D01*
G01*
X13768629Y30118377D01*
G75*
G02*
X13768629Y30012311I-53033J-53033D01*
G01*
G37*
G04 #@! TD.AperFunction*
G04 #@! TO.P,U2,26*
G04 #@! TO.N,/PB13*
G04 #@! TA.AperFunction,SMDPad,CuDef*
G36*
G01*
X14122182Y30365864D02*
X14016116Y30259798D01*
G75*
G02*
X13910050Y30259798I-53033J53033D01*
G01*
X12973134Y31196714D01*
G75*
G02*
X12973134Y31302780I53033J53033D01*
G01*
X13079200Y31408846D01*
G75*
G02*
X13185266Y31408846I53033J-53033D01*
G01*
X14122182Y30471930D01*
G75*
G02*
X14122182Y30365864I-53033J-53033D01*
G01*
G37*
G04 #@! TD.AperFunction*
G04 #@! TO.P,U2,25*
G04 #@! TO.N,/PB12*
G04 #@! TA.AperFunction,SMDPad,CuDef*
G36*
G01*
X14475736Y30719418D02*
X14369670Y30613352D01*
G75*
G02*
X14263604Y30613352I-53033J53033D01*
G01*
X13326688Y31550268D01*
G75*
G02*
X13326688Y31656334I53033J53033D01*
G01*
X13432754Y31762400D01*
G75*
G02*
X13538820Y31762400I53033J-53033D01*
G01*
X14475736Y30825484D01*
G75*
G02*
X14475736Y30719418I-53033J-53033D01*
G01*
G37*
G04 #@! TD.AperFunction*
G04 #@! TO.P,U2,24*
G04 #@! TO.N,VCC*
G04 #@! TA.AperFunction,SMDPad,CuDef*
G36*
G01*
X16473312Y31550268D02*
X15536396Y30613352D01*
G75*
G02*
X15430330Y30613352I-53033J53033D01*
G01*
X15324264Y30719418D01*
G75*
G02*
X15324264Y30825484I53033J53033D01*
G01*
X16261180Y31762400D01*
G75*
G02*
X16367246Y31762400I53033J-53033D01*
G01*
X16473312Y31656334D01*
G75*
G02*
X16473312Y31550268I-53033J-53033D01*
G01*
G37*
G04 #@! TD.AperFunction*
G04 #@! TO.P,U2,23*
G04 #@! TO.N,GND*
G04 #@! TA.AperFunction,SMDPad,CuDef*
G36*
G01*
X16826866Y31196714D02*
X15889950Y30259798D01*
G75*
G02*
X15783884Y30259798I-53033J53033D01*
G01*
X15677818Y30365864D01*
G75*
G02*
X15677818Y30471930I53033J53033D01*
G01*
X16614734Y31408846D01*
G75*
G02*
X16720800Y31408846I53033J-53033D01*
G01*
X16826866Y31302780D01*
G75*
G02*
X16826866Y31196714I-53033J-53033D01*
G01*
G37*
G04 #@! TD.AperFunction*
G04 #@! TO.P,U2,22*
G04 #@! TO.N,/PB11*
G04 #@! TA.AperFunction,SMDPad,CuDef*
G36*
G01*
X17180419Y30843161D02*
X16243503Y29906245D01*
G75*
G02*
X16137437Y29906245I-53033J53033D01*
G01*
X16031371Y30012311D01*
G75*
G02*
X16031371Y30118377I53033J53033D01*
G01*
X16968287Y31055293D01*
G75*
G02*
X17074353Y31055293I53033J-53033D01*
G01*
X17180419Y30949227D01*
G75*
G02*
X17180419Y30843161I-53033J-53033D01*
G01*
G37*
G04 #@! TD.AperFunction*
G04 #@! TO.P,U2,21*
G04 #@! TO.N,/PB10*
G04 #@! TA.AperFunction,SMDPad,CuDef*
G36*
G01*
X17533973Y30489607D02*
X16597057Y29552691D01*
G75*
G02*
X16490991Y29552691I-53033J53033D01*
G01*
X16384925Y29658757D01*
G75*
G02*
X16384925Y29764823I53033J53033D01*
G01*
X17321841Y30701739D01*
G75*
G02*
X17427907Y30701739I53033J-53033D01*
G01*
X17533973Y30595673D01*
G75*
G02*
X17533973Y30489607I-53033J-53033D01*
G01*
G37*
G04 #@! TD.AperFunction*
G04 #@! TO.P,U2,20*
G04 #@! TO.N,/PB2*
G04 #@! TA.AperFunction,SMDPad,CuDef*
G36*
G01*
X17887526Y30136054D02*
X16950610Y29199138D01*
G75*
G02*
X16844544Y29199138I-53033J53033D01*
G01*
X16738478Y29305204D01*
G75*
G02*
X16738478Y29411270I53033J53033D01*
G01*
X17675394Y30348186D01*
G75*
G02*
X17781460Y30348186I53033J-53033D01*
G01*
X17887526Y30242120D01*
G75*
G02*
X17887526Y30136054I-53033J-53033D01*
G01*
G37*
G04 #@! TD.AperFunction*
G04 #@! TO.P,U2,19*
G04 #@! TO.N,/PB1*
G04 #@! TA.AperFunction,SMDPad,CuDef*
G36*
G01*
X18241079Y29782501D02*
X17304163Y28845585D01*
G75*
G02*
X17198097Y28845585I-53033J53033D01*
G01*
X17092031Y28951651D01*
G75*
G02*
X17092031Y29057717I53033J53033D01*
G01*
X18028947Y29994633D01*
G75*
G02*
X18135013Y29994633I53033J-53033D01*
G01*
X18241079Y29888567D01*
G75*
G02*
X18241079Y29782501I-53033J-53033D01*
G01*
G37*
G04 #@! TD.AperFunction*
G04 #@! TO.P,U2,18*
G04 #@! TO.N,/PB0*
G04 #@! TA.AperFunction,SMDPad,CuDef*
G36*
G01*
X18594633Y29428947D02*
X17657717Y28492031D01*
G75*
G02*
X17551651Y28492031I-53033J53033D01*
G01*
X17445585Y28598097D01*
G75*
G02*
X17445585Y28704163I53033J53033D01*
G01*
X18382501Y29641079D01*
G75*
G02*
X18488567Y29641079I53033J-53033D01*
G01*
X18594633Y29535013D01*
G75*
G02*
X18594633Y29428947I-53033J-53033D01*
G01*
G37*
G04 #@! TD.AperFunction*
G04 #@! TO.P,U2,17*
G04 #@! TO.N,/PA7*
G04 #@! TA.AperFunction,SMDPad,CuDef*
G36*
G01*
X18948186Y29075394D02*
X18011270Y28138478D01*
G75*
G02*
X17905204Y28138478I-53033J53033D01*
G01*
X17799138Y28244544D01*
G75*
G02*
X17799138Y28350610I53033J53033D01*
G01*
X18736054Y29287526D01*
G75*
G02*
X18842120Y29287526I53033J-53033D01*
G01*
X18948186Y29181460D01*
G75*
G02*
X18948186Y29075394I-53033J-53033D01*
G01*
G37*
G04 #@! TD.AperFunction*
G04 #@! TO.P,U2,16*
G04 #@! TO.N,/PA6*
G04 #@! TA.AperFunction,SMDPad,CuDef*
G36*
G01*
X19301739Y28721841D02*
X18364823Y27784925D01*
G75*
G02*
X18258757Y27784925I-53033J53033D01*
G01*
X18152691Y27890991D01*
G75*
G02*
X18152691Y27997057I53033J53033D01*
G01*
X19089607Y28933973D01*
G75*
G02*
X19195673Y28933973I53033J-53033D01*
G01*
X19301739Y28827907D01*
G75*
G02*
X19301739Y28721841I-53033J-53033D01*
G01*
G37*
G04 #@! TD.AperFunction*
G04 #@! TO.P,U2,15*
G04 #@! TO.N,/PA5*
G04 #@! TA.AperFunction,SMDPad,CuDef*
G36*
G01*
X19655293Y28368287D02*
X18718377Y27431371D01*
G75*
G02*
X18612311Y27431371I-53033J53033D01*
G01*
X18506245Y27537437D01*
G75*
G02*
X18506245Y27643503I53033J53033D01*
G01*
X19443161Y28580419D01*
G75*
G02*
X19549227Y28580419I53033J-53033D01*
G01*
X19655293Y28474353D01*
G75*
G02*
X19655293Y28368287I-53033J-53033D01*
G01*
G37*
G04 #@! TD.AperFunction*
G04 #@! TO.P,U2,14*
G04 #@! TO.N,/PA4*
G04 #@! TA.AperFunction,SMDPad,CuDef*
G36*
G01*
X20008846Y28014734D02*
X19071930Y27077818D01*
G75*
G02*
X18965864Y27077818I-53033J53033D01*
G01*
X18859798Y27183884D01*
G75*
G02*
X18859798Y27289950I53033J53033D01*
G01*
X19796714Y28226866D01*
G75*
G02*
X19902780Y28226866I53033J-53033D01*
G01*
X20008846Y28120800D01*
G75*
G02*
X20008846Y28014734I-53033J-53033D01*
G01*
G37*
G04 #@! TD.AperFunction*
G04 #@! TO.P,U2,13*
G04 #@! TO.N,/PA3*
G04 #@! TA.AperFunction,SMDPad,CuDef*
G36*
G01*
X20362400Y27661180D02*
X19425484Y26724264D01*
G75*
G02*
X19319418Y26724264I-53033J53033D01*
G01*
X19213352Y26830330D01*
G75*
G02*
X19213352Y26936396I53033J53033D01*
G01*
X20150268Y27873312D01*
G75*
G02*
X20256334Y27873312I53033J-53033D01*
G01*
X20362400Y27767246D01*
G75*
G02*
X20362400Y27661180I-53033J-53033D01*
G01*
G37*
G04 #@! TD.AperFunction*
G04 #@! TO.P,U2,12*
G04 #@! TO.N,/PA2*
G04 #@! TA.AperFunction,SMDPad,CuDef*
G36*
G01*
X20362400Y24832754D02*
X20256334Y24726688D01*
G75*
G02*
X20150268Y24726688I-53033J53033D01*
G01*
X19213352Y25663604D01*
G75*
G02*
X19213352Y25769670I53033J53033D01*
G01*
X19319418Y25875736D01*
G75*
G02*
X19425484Y25875736I53033J-53033D01*
G01*
X20362400Y24938820D01*
G75*
G02*
X20362400Y24832754I-53033J-53033D01*
G01*
G37*
G04 #@! TD.AperFunction*
G04 #@! TO.P,U2,11*
G04 #@! TO.N,/PA1*
G04 #@! TA.AperFunction,SMDPad,CuDef*
G36*
G01*
X20008846Y24479200D02*
X19902780Y24373134D01*
G75*
G02*
X19796714Y24373134I-53033J53033D01*
G01*
X18859798Y25310050D01*
G75*
G02*
X18859798Y25416116I53033J53033D01*
G01*
X18965864Y25522182D01*
G75*
G02*
X19071930Y25522182I53033J-53033D01*
G01*
X20008846Y24585266D01*
G75*
G02*
X20008846Y24479200I-53033J-53033D01*
G01*
G37*
G04 #@! TD.AperFunction*
G04 #@! TO.P,U2,10*
G04 #@! TO.N,/PA0*
G04 #@! TA.AperFunction,SMDPad,CuDef*
G36*
G01*
X19655293Y24125647D02*
X19549227Y24019581D01*
G75*
G02*
X19443161Y24019581I-53033J53033D01*
G01*
X18506245Y24956497D01*
G75*
G02*
X18506245Y25062563I53033J53033D01*
G01*
X18612311Y25168629D01*
G75*
G02*
X18718377Y25168629I53033J-53033D01*
G01*
X19655293Y24231713D01*
G75*
G02*
X19655293Y24125647I-53033J-53033D01*
G01*
G37*
G04 #@! TD.AperFunction*
G04 #@! TO.P,U2,9*
G04 #@! TO.N,VCC*
G04 #@! TA.AperFunction,SMDPad,CuDef*
G36*
G01*
X19301739Y23772093D02*
X19195673Y23666027D01*
G75*
G02*
X19089607Y23666027I-53033J53033D01*
G01*
X18152691Y24602943D01*
G75*
G02*
X18152691Y24709009I53033J53033D01*
G01*
X18258757Y24815075D01*
G75*
G02*
X18364823Y24815075I53033J-53033D01*
G01*
X19301739Y23878159D01*
G75*
G02*
X19301739Y23772093I-53033J-53033D01*
G01*
G37*
G04 #@! TD.AperFunction*
G04 #@! TO.P,U2,8*
G04 #@! TO.N,GND*
G04 #@! TA.AperFunction,SMDPad,CuDef*
G36*
G01*
X18948186Y23418540D02*
X18842120Y23312474D01*
G75*
G02*
X18736054Y23312474I-53033J53033D01*
G01*
X17799138Y24249390D01*
G75*
G02*
X17799138Y24355456I53033J53033D01*
G01*
X17905204Y24461522D01*
G75*
G02*
X18011270Y24461522I53033J-53033D01*
G01*
X18948186Y23524606D01*
G75*
G02*
X18948186Y23418540I-53033J-53033D01*
G01*
G37*
G04 #@! TD.AperFunction*
G04 #@! TO.P,U2,7*
G04 #@! TO.N,/NRST*
G04 #@! TA.AperFunction,SMDPad,CuDef*
G36*
G01*
X18594633Y23064987D02*
X18488567Y22958921D01*
G75*
G02*
X18382501Y22958921I-53033J53033D01*
G01*
X17445585Y23895837D01*
G75*
G02*
X17445585Y24001903I53033J53033D01*
G01*
X17551651Y24107969D01*
G75*
G02*
X17657717Y24107969I53033J-53033D01*
G01*
X18594633Y23171053D01*
G75*
G02*
X18594633Y23064987I-53033J-53033D01*
G01*
G37*
G04 #@! TD.AperFunction*
G04 #@! TO.P,U2,6*
G04 #@! TO.N,/OSC_OUT*
G04 #@! TA.AperFunction,SMDPad,CuDef*
G36*
G01*
X18241079Y22711433D02*
X18135013Y22605367D01*
G75*
G02*
X18028947Y22605367I-53033J53033D01*
G01*
X17092031Y23542283D01*
G75*
G02*
X17092031Y23648349I53033J53033D01*
G01*
X17198097Y23754415D01*
G75*
G02*
X17304163Y23754415I53033J-53033D01*
G01*
X18241079Y22817499D01*
G75*
G02*
X18241079Y22711433I-53033J-53033D01*
G01*
G37*
G04 #@! TD.AperFunction*
G04 #@! TO.P,U2,5*
G04 #@! TO.N,/OSC_IN*
G04 #@! TA.AperFunction,SMDPad,CuDef*
G36*
G01*
X17887526Y22357880D02*
X17781460Y22251814D01*
G75*
G02*
X17675394Y22251814I-53033J53033D01*
G01*
X16738478Y23188730D01*
G75*
G02*
X16738478Y23294796I53033J53033D01*
G01*
X16844544Y23400862D01*
G75*
G02*
X16950610Y23400862I53033J-53033D01*
G01*
X17887526Y22463946D01*
G75*
G02*
X17887526Y22357880I-53033J-53033D01*
G01*
G37*
G04 #@! TD.AperFunction*
G04 #@! TO.P,U2,4*
G04 #@! TO.N,/PC15*
G04 #@! TA.AperFunction,SMDPad,CuDef*
G36*
G01*
X17533973Y22004327D02*
X17427907Y21898261D01*
G75*
G02*
X17321841Y21898261I-53033J53033D01*
G01*
X16384925Y22835177D01*
G75*
G02*
X16384925Y22941243I53033J53033D01*
G01*
X16490991Y23047309D01*
G75*
G02*
X16597057Y23047309I53033J-53033D01*
G01*
X17533973Y22110393D01*
G75*
G02*
X17533973Y22004327I-53033J-53033D01*
G01*
G37*
G04 #@! TD.AperFunction*
G04 #@! TO.P,U2,3*
G04 #@! TO.N,/PC14*
G04 #@! TA.AperFunction,SMDPad,CuDef*
G36*
G01*
X17180419Y21650773D02*
X17074353Y21544707D01*
G75*
G02*
X16968287Y21544707I-53033J53033D01*
G01*
X16031371Y22481623D01*
G75*
G02*
X16031371Y22587689I53033J53033D01*
G01*
X16137437Y22693755D01*
G75*
G02*
X16243503Y22693755I53033J-53033D01*
G01*
X17180419Y21756839D01*
G75*
G02*
X17180419Y21650773I-53033J-53033D01*
G01*
G37*
G04 #@! TD.AperFunction*
G04 #@! TO.P,U2,2*
G04 #@! TO.N,/PC13*
G04 #@! TA.AperFunction,SMDPad,CuDef*
G36*
G01*
X16826866Y21297220D02*
X16720800Y21191154D01*
G75*
G02*
X16614734Y21191154I-53033J53033D01*
G01*
X15677818Y22128070D01*
G75*
G02*
X15677818Y22234136I53033J53033D01*
G01*
X15783884Y22340202D01*
G75*
G02*
X15889950Y22340202I53033J-53033D01*
G01*
X16826866Y21403286D01*
G75*
G02*
X16826866Y21297220I-53033J-53033D01*
G01*
G37*
G04 #@! TD.AperFunction*
G04 #@! TO.P,U2,1*
G04 #@! TO.N,VCC*
G04 #@! TA.AperFunction,SMDPad,CuDef*
G36*
G01*
X16473312Y20943666D02*
X16367246Y20837600D01*
G75*
G02*
X16261180Y20837600I-53033J53033D01*
G01*
X15324264Y21774516D01*
G75*
G02*
X15324264Y21880582I53033J53033D01*
G01*
X15430330Y21986648D01*
G75*
G02*
X15536396Y21986648I53033J-53033D01*
G01*
X16473312Y21049732D01*
G75*
G02*
X16473312Y20943666I-53033J-53033D01*
G01*
G37*
G04 #@! TD.AperFunction*
G04 #@! TD*
D14*
G04 #@! TO.P,SW1,SH*
G04 #@! TO.N,N/C*
X13800000Y3925000D03*
D15*
G04 #@! TO.P,SW1,1*
G04 #@! TO.N,/NRST*
X11750000Y3300000D03*
G04 #@! TO.P,SW1,2*
G04 #@! TO.N,GND*
X11750000Y1700000D03*
G04 #@! TO.P,SW1,1*
G04 #@! TO.N,/NRST*
X15850000Y3300000D03*
G04 #@! TO.P,SW1,2*
G04 #@! TO.N,GND*
X15850000Y1700000D03*
G04 #@! TD*
G04 #@! TO.P,R10,2*
G04 #@! TO.N,Net-(J1-PadA6)*
G04 #@! TA.AperFunction,SMDPad,CuDef*
G36*
G01*
X10075000Y41472500D02*
X10075000Y41947500D01*
G75*
G02*
X10312500Y42185000I237500J0D01*
G01*
X10812500Y42185000D01*
G75*
G02*
X11050000Y41947500I0J-237500D01*
G01*
X11050000Y41472500D01*
G75*
G02*
X10812500Y41235000I-237500J0D01*
G01*
X10312500Y41235000D01*
G75*
G02*
X10075000Y41472500I0J237500D01*
G01*
G37*
G04 #@! TD.AperFunction*
G04 #@! TO.P,R10,1*
G04 #@! TO.N,/PA13*
G04 #@! TA.AperFunction,SMDPad,CuDef*
G36*
G01*
X8250000Y41472500D02*
X8250000Y41947500D01*
G75*
G02*
X8487500Y42185000I237500J0D01*
G01*
X8987500Y42185000D01*
G75*
G02*
X9225000Y41947500I0J-237500D01*
G01*
X9225000Y41472500D01*
G75*
G02*
X8987500Y41235000I-237500J0D01*
G01*
X8487500Y41235000D01*
G75*
G02*
X8250000Y41472500I0J237500D01*
G01*
G37*
G04 #@! TD.AperFunction*
G04 #@! TD*
G04 #@! TO.P,R9,2*
G04 #@! TO.N,GND*
G04 #@! TA.AperFunction,SMDPad,CuDef*
G36*
G01*
X21582500Y60435000D02*
X22057500Y60435000D01*
G75*
G02*
X22295000Y60197500I0J-237500D01*
G01*
X22295000Y59697500D01*
G75*
G02*
X22057500Y59460000I-237500J0D01*
G01*
X21582500Y59460000D01*
G75*
G02*
X21345000Y59697500I0J237500D01*
G01*
X21345000Y60197500D01*
G75*
G02*
X21582500Y60435000I237500J0D01*
G01*
G37*
G04 #@! TD.AperFunction*
G04 #@! TO.P,R9,1*
G04 #@! TO.N,/PB2*
G04 #@! TA.AperFunction,SMDPad,CuDef*
G36*
G01*
X21582500Y62260000D02*
X22057500Y62260000D01*
G75*
G02*
X22295000Y62022500I0J-237500D01*
G01*
X22295000Y61522500D01*
G75*
G02*
X22057500Y61285000I-237500J0D01*
G01*
X21582500Y61285000D01*
G75*
G02*
X21345000Y61522500I0J237500D01*
G01*
X21345000Y62022500D01*
G75*
G02*
X21582500Y62260000I237500J0D01*
G01*
G37*
G04 #@! TD.AperFunction*
G04 #@! TD*
G04 #@! TO.P,R8,2*
G04 #@! TO.N,/PB2*
G04 #@! TA.AperFunction,SMDPad,CuDef*
G36*
G01*
X23382500Y60435000D02*
X23857500Y60435000D01*
G75*
G02*
X24095000Y60197500I0J-237500D01*
G01*
X24095000Y59697500D01*
G75*
G02*
X23857500Y59460000I-237500J0D01*
G01*
X23382500Y59460000D01*
G75*
G02*
X23145000Y59697500I0J237500D01*
G01*
X23145000Y60197500D01*
G75*
G02*
X23382500Y60435000I237500J0D01*
G01*
G37*
G04 #@! TD.AperFunction*
G04 #@! TO.P,R8,1*
G04 #@! TO.N,/BOOT1_UP*
G04 #@! TA.AperFunction,SMDPad,CuDef*
G36*
G01*
X23382500Y62260000D02*
X23857500Y62260000D01*
G75*
G02*
X24095000Y62022500I0J-237500D01*
G01*
X24095000Y61522500D01*
G75*
G02*
X23857500Y61285000I-237500J0D01*
G01*
X23382500Y61285000D01*
G75*
G02*
X23145000Y61522500I0J237500D01*
G01*
X23145000Y62022500D01*
G75*
G02*
X23382500Y62260000I237500J0D01*
G01*
G37*
G04 #@! TD.AperFunction*
G04 #@! TD*
G04 #@! TO.P,R7,2*
G04 #@! TO.N,GND*
G04 #@! TA.AperFunction,SMDPad,CuDef*
G36*
G01*
X8997500Y61285000D02*
X8522500Y61285000D01*
G75*
G02*
X8285000Y61522500I0J237500D01*
G01*
X8285000Y62022500D01*
G75*
G02*
X8522500Y62260000I237500J0D01*
G01*
X8997500Y62260000D01*
G75*
G02*
X9235000Y62022500I0J-237500D01*
G01*
X9235000Y61522500D01*
G75*
G02*
X8997500Y61285000I-237500J0D01*
G01*
G37*
G04 #@! TD.AperFunction*
G04 #@! TO.P,R7,1*
G04 #@! TO.N,Net-(R6-Pad2)*
G04 #@! TA.AperFunction,SMDPad,CuDef*
G36*
G01*
X8997500Y59460000D02*
X8522500Y59460000D01*
G75*
G02*
X8285000Y59697500I0J237500D01*
G01*
X8285000Y60197500D01*
G75*
G02*
X8522500Y60435000I237500J0D01*
G01*
X8997500Y60435000D01*
G75*
G02*
X9235000Y60197500I0J-237500D01*
G01*
X9235000Y59697500D01*
G75*
G02*
X8997500Y59460000I-237500J0D01*
G01*
G37*
G04 #@! TD.AperFunction*
G04 #@! TD*
G04 #@! TO.P,R6,2*
G04 #@! TO.N,Net-(R6-Pad2)*
G04 #@! TA.AperFunction,SMDPad,CuDef*
G36*
G01*
X6722500Y60435000D02*
X7197500Y60435000D01*
G75*
G02*
X7435000Y60197500I0J-237500D01*
G01*
X7435000Y59697500D01*
G75*
G02*
X7197500Y59460000I-237500J0D01*
G01*
X6722500Y59460000D01*
G75*
G02*
X6485000Y59697500I0J237500D01*
G01*
X6485000Y60197500D01*
G75*
G02*
X6722500Y60435000I237500J0D01*
G01*
G37*
G04 #@! TD.AperFunction*
G04 #@! TO.P,R6,1*
G04 #@! TO.N,/BOOT0_UP*
G04 #@! TA.AperFunction,SMDPad,CuDef*
G36*
G01*
X6722500Y62260000D02*
X7197500Y62260000D01*
G75*
G02*
X7435000Y62022500I0J-237500D01*
G01*
X7435000Y61522500D01*
G75*
G02*
X7197500Y61285000I-237500J0D01*
G01*
X6722500Y61285000D01*
G75*
G02*
X6485000Y61522500I0J237500D01*
G01*
X6485000Y62022500D01*
G75*
G02*
X6722500Y62260000I237500J0D01*
G01*
G37*
G04 #@! TD.AperFunction*
G04 #@! TD*
G04 #@! TO.P,R5,2*
G04 #@! TO.N,Net-(D2-Pad2)*
G04 #@! TA.AperFunction,SMDPad,CuDef*
G36*
G01*
X9225000Y45667500D02*
X9225000Y45192500D01*
G75*
G02*
X8987500Y44955000I-237500J0D01*
G01*
X8487500Y44955000D01*
G75*
G02*
X8250000Y45192500I0J237500D01*
G01*
X8250000Y45667500D01*
G75*
G02*
X8487500Y45905000I237500J0D01*
G01*
X8987500Y45905000D01*
G75*
G02*
X9225000Y45667500I0J-237500D01*
G01*
G37*
G04 #@! TD.AperFunction*
G04 #@! TO.P,R5,1*
G04 #@! TO.N,Net-(C2-Pad1)*
G04 #@! TA.AperFunction,SMDPad,CuDef*
G36*
G01*
X11050000Y45667500D02*
X11050000Y45192500D01*
G75*
G02*
X10812500Y44955000I-237500J0D01*
G01*
X10312500Y44955000D01*
G75*
G02*
X10075000Y45192500I0J237500D01*
G01*
X10075000Y45667500D01*
G75*
G02*
X10312500Y45905000I237500J0D01*
G01*
X10812500Y45905000D01*
G75*
G02*
X11050000Y45667500I0J-237500D01*
G01*
G37*
G04 #@! TD.AperFunction*
G04 #@! TD*
G04 #@! TO.P,R4,2*
G04 #@! TO.N,Net-(J1-PadA6)*
G04 #@! TA.AperFunction,SMDPad,CuDef*
G36*
G01*
X14737500Y53025000D02*
X14262500Y53025000D01*
G75*
G02*
X14025000Y53262500I0J237500D01*
G01*
X14025000Y53762500D01*
G75*
G02*
X14262500Y54000000I237500J0D01*
G01*
X14737500Y54000000D01*
G75*
G02*
X14975000Y53762500I0J-237500D01*
G01*
X14975000Y53262500D01*
G75*
G02*
X14737500Y53025000I-237500J0D01*
G01*
G37*
G04 #@! TD.AperFunction*
G04 #@! TO.P,R4,1*
G04 #@! TO.N,/PA12*
G04 #@! TA.AperFunction,SMDPad,CuDef*
G36*
G01*
X14737500Y51200000D02*
X14262500Y51200000D01*
G75*
G02*
X14025000Y51437500I0J237500D01*
G01*
X14025000Y51937500D01*
G75*
G02*
X14262500Y52175000I237500J0D01*
G01*
X14737500Y52175000D01*
G75*
G02*
X14975000Y51937500I0J-237500D01*
G01*
X14975000Y51437500D01*
G75*
G02*
X14737500Y51200000I-237500J0D01*
G01*
G37*
G04 #@! TD.AperFunction*
G04 #@! TD*
G04 #@! TO.P,R3,2*
G04 #@! TO.N,Net-(J1-PadA7)*
G04 #@! TA.AperFunction,SMDPad,CuDef*
G36*
G01*
X16537500Y53025000D02*
X16062500Y53025000D01*
G75*
G02*
X15825000Y53262500I0J237500D01*
G01*
X15825000Y53762500D01*
G75*
G02*
X16062500Y54000000I237500J0D01*
G01*
X16537500Y54000000D01*
G75*
G02*
X16775000Y53762500I0J-237500D01*
G01*
X16775000Y53262500D01*
G75*
G02*
X16537500Y53025000I-237500J0D01*
G01*
G37*
G04 #@! TD.AperFunction*
G04 #@! TO.P,R3,1*
G04 #@! TO.N,/PA11*
G04 #@! TA.AperFunction,SMDPad,CuDef*
G36*
G01*
X16537500Y51200000D02*
X16062500Y51200000D01*
G75*
G02*
X15825000Y51437500I0J237500D01*
G01*
X15825000Y51937500D01*
G75*
G02*
X16062500Y52175000I237500J0D01*
G01*
X16537500Y52175000D01*
G75*
G02*
X16775000Y51937500I0J-237500D01*
G01*
X16775000Y51437500D01*
G75*
G02*
X16537500Y51200000I-237500J0D01*
G01*
G37*
G04 #@! TD.AperFunction*
G04 #@! TD*
G04 #@! TO.P,R2,2*
G04 #@! TO.N,GND*
G04 #@! TA.AperFunction,SMDPad,CuDef*
G36*
G01*
X12462500Y52175000D02*
X12937500Y52175000D01*
G75*
G02*
X13175000Y51937500I0J-237500D01*
G01*
X13175000Y51437500D01*
G75*
G02*
X12937500Y51200000I-237500J0D01*
G01*
X12462500Y51200000D01*
G75*
G02*
X12225000Y51437500I0J237500D01*
G01*
X12225000Y51937500D01*
G75*
G02*
X12462500Y52175000I237500J0D01*
G01*
G37*
G04 #@! TD.AperFunction*
G04 #@! TO.P,R2,1*
G04 #@! TO.N,Net-(J1-PadB5)*
G04 #@! TA.AperFunction,SMDPad,CuDef*
G36*
G01*
X12462500Y54000000D02*
X12937500Y54000000D01*
G75*
G02*
X13175000Y53762500I0J-237500D01*
G01*
X13175000Y53262500D01*
G75*
G02*
X12937500Y53025000I-237500J0D01*
G01*
X12462500Y53025000D01*
G75*
G02*
X12225000Y53262500I0J237500D01*
G01*
X12225000Y53762500D01*
G75*
G02*
X12462500Y54000000I237500J0D01*
G01*
G37*
G04 #@! TD.AperFunction*
G04 #@! TD*
G04 #@! TO.P,R1,2*
G04 #@! TO.N,Net-(J1-PadA5)*
G04 #@! TA.AperFunction,SMDPad,CuDef*
G36*
G01*
X18337500Y53025000D02*
X17862500Y53025000D01*
G75*
G02*
X17625000Y53262500I0J237500D01*
G01*
X17625000Y53762500D01*
G75*
G02*
X17862500Y54000000I237500J0D01*
G01*
X18337500Y54000000D01*
G75*
G02*
X18575000Y53762500I0J-237500D01*
G01*
X18575000Y53262500D01*
G75*
G02*
X18337500Y53025000I-237500J0D01*
G01*
G37*
G04 #@! TD.AperFunction*
G04 #@! TO.P,R1,1*
G04 #@! TO.N,GND*
G04 #@! TA.AperFunction,SMDPad,CuDef*
G36*
G01*
X18337500Y51200000D02*
X17862500Y51200000D01*
G75*
G02*
X17625000Y51437500I0J237500D01*
G01*
X17625000Y51937500D01*
G75*
G02*
X17862500Y52175000I237500J0D01*
G01*
X18337500Y52175000D01*
G75*
G02*
X18575000Y51937500I0J-237500D01*
G01*
X18575000Y51437500D01*
G75*
G02*
X18337500Y51200000I-237500J0D01*
G01*
G37*
G04 #@! TD.AperFunction*
G04 #@! TD*
D16*
G04 #@! TO.P,J3,24*
G04 #@! TO.N,/PC13*
X28700000Y2280000D03*
G04 #@! TO.P,J3,23*
G04 #@! TO.N,/PC14*
X28700000Y4820000D03*
G04 #@! TO.P,J3,22*
G04 #@! TO.N,/PC15*
X28700000Y7360000D03*
G04 #@! TO.P,J3,21*
G04 #@! TO.N,/OSC_IN*
X28700000Y9900000D03*
G04 #@! TO.P,J3,20*
G04 #@! TO.N,/OSC_OUT*
X28700000Y12440000D03*
G04 #@! TO.P,J3,19*
G04 #@! TO.N,/PA0*
X28700000Y14980000D03*
G04 #@! TO.P,J3,18*
G04 #@! TO.N,/PA1*
X28700000Y17520000D03*
G04 #@! TO.P,J3,17*
G04 #@! TO.N,/PA2*
X28700000Y20060000D03*
G04 #@! TO.P,J3,16*
G04 #@! TO.N,/PA3*
X28700000Y22600000D03*
G04 #@! TO.P,J3,15*
G04 #@! TO.N,/PA4*
X28700000Y25140000D03*
G04 #@! TO.P,J3,14*
G04 #@! TO.N,/PA5*
X28700000Y27680000D03*
G04 #@! TO.P,J3,13*
G04 #@! TO.N,/PA6*
X28700000Y30220000D03*
G04 #@! TO.P,J3,12*
G04 #@! TO.N,/PA7*
X28700000Y32760000D03*
G04 #@! TO.P,J3,11*
G04 #@! TO.N,/PB0*
X28700000Y35300000D03*
G04 #@! TO.P,J3,10*
G04 #@! TO.N,/PB1*
X28700000Y37840000D03*
G04 #@! TO.P,J3,9*
G04 #@! TO.N,/PB2*
X28700000Y40380000D03*
G04 #@! TO.P,J3,8*
G04 #@! TO.N,/PB10*
X28700000Y42920000D03*
G04 #@! TO.P,J3,7*
G04 #@! TO.N,/PB11*
X28700000Y45460000D03*
G04 #@! TO.P,J3,6*
G04 #@! TO.N,VCC*
X28700000Y48000000D03*
G04 #@! TO.P,J3,5*
G04 #@! TO.N,GND*
X28700000Y50540000D03*
G04 #@! TO.P,J3,4*
G04 #@! TO.N,/PA10*
X28700000Y53080000D03*
G04 #@! TO.P,J3,3*
G04 #@! TO.N,/PA9*
X28700000Y55620000D03*
G04 #@! TO.P,J3,2*
G04 #@! TO.N,VCC*
X28700000Y58160000D03*
D17*
G04 #@! TO.P,J3,1*
G04 #@! TO.N,/BOOT1_UP*
X28700000Y60700000D03*
G04 #@! TD*
D16*
G04 #@! TO.P,J2,24*
G04 #@! TO.N,/PB9*
X2200000Y2280000D03*
G04 #@! TO.P,J2,23*
G04 #@! TO.N,/PB8*
X2200000Y4820000D03*
G04 #@! TO.P,J2,22*
G04 #@! TO.N,/PB7*
X2200000Y7360000D03*
G04 #@! TO.P,J2,21*
G04 #@! TO.N,/PB6*
X2200000Y9900000D03*
G04 #@! TO.P,J2,20*
G04 #@! TO.N,/PB5*
X2200000Y12440000D03*
G04 #@! TO.P,J2,19*
G04 #@! TO.N,/PB4*
X2200000Y14980000D03*
G04 #@! TO.P,J2,18*
G04 #@! TO.N,/PB3*
X2200000Y17520000D03*
G04 #@! TO.P,J2,17*
G04 #@! TO.N,/PA15*
X2200000Y20060000D03*
G04 #@! TO.P,J2,16*
G04 #@! TO.N,/PA14*
X2200000Y22600000D03*
G04 #@! TO.P,J2,15*
G04 #@! TO.N,/PA13*
X2200000Y25140000D03*
G04 #@! TO.P,J2,14*
G04 #@! TO.N,/PA12*
X2200000Y27680000D03*
G04 #@! TO.P,J2,13*
G04 #@! TO.N,/PA11*
X2200000Y30220000D03*
G04 #@! TO.P,J2,12*
G04 #@! TO.N,/PA10*
X2200000Y32760000D03*
G04 #@! TO.P,J2,11*
G04 #@! TO.N,/PA9*
X2200000Y35300000D03*
G04 #@! TO.P,J2,10*
G04 #@! TO.N,/PA8*
X2200000Y37840000D03*
G04 #@! TO.P,J2,9*
G04 #@! TO.N,/PB15*
X2200000Y40380000D03*
G04 #@! TO.P,J2,8*
G04 #@! TO.N,/PB14*
X2200000Y42920000D03*
G04 #@! TO.P,J2,7*
G04 #@! TO.N,/PB13*
X2200000Y45460000D03*
G04 #@! TO.P,J2,6*
G04 #@! TO.N,/PB12*
X2200000Y48000000D03*
G04 #@! TO.P,J2,5*
G04 #@! TO.N,GND*
X2200000Y50540000D03*
G04 #@! TO.P,J2,4*
G04 #@! TO.N,/PA13*
X2200000Y53080000D03*
G04 #@! TO.P,J2,3*
G04 #@! TO.N,/PA14*
X2200000Y55620000D03*
G04 #@! TO.P,J2,2*
G04 #@! TO.N,VCC*
X2200000Y58160000D03*
D17*
G04 #@! TO.P,J2,1*
G04 #@! TO.N,/BOOT0_UP*
X2200000Y60700000D03*
G04 #@! TD*
D18*
G04 #@! TO.P,J1,A12*
G04 #@! TO.N,GND*
X12100000Y56190000D03*
G04 #@! TO.P,J1,A9*
G04 #@! TO.N,+5V*
X12900000Y56190000D03*
G04 #@! TO.P,J1,B1*
G04 #@! TO.N,GND*
X12100000Y56190000D03*
G04 #@! TO.P,J1,B4*
G04 #@! TO.N,+5V*
X12900000Y56190000D03*
G04 #@! TO.P,J1,B12*
G04 #@! TO.N,GND*
X18500000Y56190000D03*
G04 #@! TO.P,J1,A1*
X18500000Y56190000D03*
G04 #@! TO.P,J1,B9*
G04 #@! TO.N,+5V*
X17700000Y56190000D03*
G04 #@! TO.P,J1,A4*
X17700000Y56190000D03*
D19*
G04 #@! TO.P,J1,B5*
G04 #@! TO.N,Net-(J1-PadB5)*
X13550000Y56190000D03*
G04 #@! TO.P,J1,B6*
G04 #@! TO.N,Net-(J1-PadA6)*
X14550000Y56190000D03*
G04 #@! TO.P,J1,A8*
G04 #@! TO.N,N/C*
X14050000Y56190000D03*
G04 #@! TO.P,J1,A5*
G04 #@! TO.N,Net-(J1-PadA5)*
X16550000Y56190000D03*
G04 #@! TO.P,J1,B8*
G04 #@! TO.N,N/C*
X17050000Y56190000D03*
G04 #@! TO.P,J1,A7*
G04 #@! TO.N,Net-(J1-PadA7)*
X15050000Y56190000D03*
G04 #@! TO.P,J1,A6*
G04 #@! TO.N,Net-(J1-PadA6)*
X15550000Y56190000D03*
G04 #@! TO.P,J1,B7*
G04 #@! TO.N,Net-(J1-PadA7)*
X16050000Y56190000D03*
D20*
G04 #@! TO.P,J1,S1*
G04 #@! TO.N,GND*
X10980000Y60940000D03*
X19620000Y60940000D03*
D21*
X10980000Y56770000D03*
X19620000Y56770000D03*
G04 #@! TD*
G04 #@! TO.P,F1,2*
G04 #@! TO.N,Net-(D1-Pad1)*
G04 #@! TA.AperFunction,SMDPad,CuDef*
G36*
G01*
X9200000Y47900001D02*
X9200000Y46999999D01*
G75*
G02*
X8950001Y46750000I-249999J0D01*
G01*
X8299999Y46750000D01*
G75*
G02*
X8050000Y46999999I0J249999D01*
G01*
X8050000Y47900001D01*
G75*
G02*
X8299999Y48150000I249999J0D01*
G01*
X8950001Y48150000D01*
G75*
G02*
X9200000Y47900001I0J-249999D01*
G01*
G37*
G04 #@! TD.AperFunction*
G04 #@! TO.P,F1,1*
G04 #@! TO.N,Net-(C2-Pad1)*
G04 #@! TA.AperFunction,SMDPad,CuDef*
G36*
G01*
X11250000Y47900001D02*
X11250000Y46999999D01*
G75*
G02*
X11000001Y46750000I-249999J0D01*
G01*
X10349999Y46750000D01*
G75*
G02*
X10100000Y46999999I0J249999D01*
G01*
X10100000Y47900001D01*
G75*
G02*
X10349999Y48150000I249999J0D01*
G01*
X11000001Y48150000D01*
G75*
G02*
X11250000Y47900001I0J-249999D01*
G01*
G37*
G04 #@! TD.AperFunction*
G04 #@! TD*
G04 #@! TO.P,D2,2*
G04 #@! TO.N,Net-(D2-Pad2)*
G04 #@! TA.AperFunction,SMDPad,CuDef*
G36*
G01*
X9300000Y43877500D02*
X9300000Y43402500D01*
G75*
G02*
X9062500Y43165000I-237500J0D01*
G01*
X8487500Y43165000D01*
G75*
G02*
X8250000Y43402500I0J237500D01*
G01*
X8250000Y43877500D01*
G75*
G02*
X8487500Y44115000I237500J0D01*
G01*
X9062500Y44115000D01*
G75*
G02*
X9300000Y43877500I0J-237500D01*
G01*
G37*
G04 #@! TD.AperFunction*
G04 #@! TO.P,D2,1*
G04 #@! TO.N,GND*
G04 #@! TA.AperFunction,SMDPad,CuDef*
G36*
G01*
X11050000Y43877500D02*
X11050000Y43402500D01*
G75*
G02*
X10812500Y43165000I-237500J0D01*
G01*
X10237500Y43165000D01*
G75*
G02*
X10000000Y43402500I0J237500D01*
G01*
X10000000Y43877500D01*
G75*
G02*
X10237500Y44115000I237500J0D01*
G01*
X10812500Y44115000D01*
G75*
G02*
X11050000Y43877500I0J-237500D01*
G01*
G37*
G04 #@! TD.AperFunction*
G04 #@! TD*
G04 #@! TO.P,C11,2*
G04 #@! TO.N,GND*
G04 #@! TA.AperFunction,SMDPad,CuDef*
G36*
G01*
X22752500Y25955000D02*
X23227500Y25955000D01*
G75*
G02*
X23465000Y25717500I0J-237500D01*
G01*
X23465000Y25117500D01*
G75*
G02*
X23227500Y24880000I-237500J0D01*
G01*
X22752500Y24880000D01*
G75*
G02*
X22515000Y25117500I0J237500D01*
G01*
X22515000Y25717500D01*
G75*
G02*
X22752500Y25955000I237500J0D01*
G01*
G37*
G04 #@! TD.AperFunction*
G04 #@! TO.P,C11,1*
G04 #@! TO.N,VCC*
G04 #@! TA.AperFunction,SMDPad,CuDef*
G36*
G01*
X22752500Y27680000D02*
X23227500Y27680000D01*
G75*
G02*
X23465000Y27442500I0J-237500D01*
G01*
X23465000Y26842500D01*
G75*
G02*
X23227500Y26605000I-237500J0D01*
G01*
X22752500Y26605000D01*
G75*
G02*
X22515000Y26842500I0J237500D01*
G01*
X22515000Y27442500D01*
G75*
G02*
X22752500Y27680000I237500J0D01*
G01*
G37*
G04 #@! TD.AperFunction*
G04 #@! TD*
G04 #@! TO.P,C10,2*
G04 #@! TO.N,GND*
G04 #@! TA.AperFunction,SMDPad,CuDef*
G36*
G01*
X7427500Y26605000D02*
X6952500Y26605000D01*
G75*
G02*
X6715000Y26842500I0J237500D01*
G01*
X6715000Y27442500D01*
G75*
G02*
X6952500Y27680000I237500J0D01*
G01*
X7427500Y27680000D01*
G75*
G02*
X7665000Y27442500I0J-237500D01*
G01*
X7665000Y26842500D01*
G75*
G02*
X7427500Y26605000I-237500J0D01*
G01*
G37*
G04 #@! TD.AperFunction*
G04 #@! TO.P,C10,1*
G04 #@! TO.N,VCC*
G04 #@! TA.AperFunction,SMDPad,CuDef*
G36*
G01*
X7427500Y24880000D02*
X6952500Y24880000D01*
G75*
G02*
X6715000Y25117500I0J237500D01*
G01*
X6715000Y25717500D01*
G75*
G02*
X6952500Y25955000I237500J0D01*
G01*
X7427500Y25955000D01*
G75*
G02*
X7665000Y25717500I0J-237500D01*
G01*
X7665000Y25117500D01*
G75*
G02*
X7427500Y24880000I-237500J0D01*
G01*
G37*
G04 #@! TD.AperFunction*
G04 #@! TD*
G04 #@! TO.P,C9,2*
G04 #@! TO.N,GND*
G04 #@! TA.AperFunction,SMDPad,CuDef*
G36*
G01*
X15315000Y33642500D02*
X15315000Y34117500D01*
G75*
G02*
X15552500Y34355000I237500J0D01*
G01*
X16152500Y34355000D01*
G75*
G02*
X16390000Y34117500I0J-237500D01*
G01*
X16390000Y33642500D01*
G75*
G02*
X16152500Y33405000I-237500J0D01*
G01*
X15552500Y33405000D01*
G75*
G02*
X15315000Y33642500I0J237500D01*
G01*
G37*
G04 #@! TD.AperFunction*
G04 #@! TO.P,C9,1*
G04 #@! TO.N,VCC*
G04 #@! TA.AperFunction,SMDPad,CuDef*
G36*
G01*
X13590000Y33642500D02*
X13590000Y34117500D01*
G75*
G02*
X13827500Y34355000I237500J0D01*
G01*
X14427500Y34355000D01*
G75*
G02*
X14665000Y34117500I0J-237500D01*
G01*
X14665000Y33642500D01*
G75*
G02*
X14427500Y33405000I-237500J0D01*
G01*
X13827500Y33405000D01*
G75*
G02*
X13590000Y33642500I0J237500D01*
G01*
G37*
G04 #@! TD.AperFunction*
G04 #@! TD*
G04 #@! TO.P,C8,2*
G04 #@! TO.N,GND*
G04 #@! TA.AperFunction,SMDPad,CuDef*
G36*
G01*
X14665000Y18617500D02*
X14665000Y18142500D01*
G75*
G02*
X14427500Y17905000I-237500J0D01*
G01*
X13827500Y17905000D01*
G75*
G02*
X13590000Y18142500I0J237500D01*
G01*
X13590000Y18617500D01*
G75*
G02*
X13827500Y18855000I237500J0D01*
G01*
X14427500Y18855000D01*
G75*
G02*
X14665000Y18617500I0J-237500D01*
G01*
G37*
G04 #@! TD.AperFunction*
G04 #@! TO.P,C8,1*
G04 #@! TO.N,VCC*
G04 #@! TA.AperFunction,SMDPad,CuDef*
G36*
G01*
X16390000Y18617500D02*
X16390000Y18142500D01*
G75*
G02*
X16152500Y17905000I-237500J0D01*
G01*
X15552500Y17905000D01*
G75*
G02*
X15315000Y18142500I0J237500D01*
G01*
X15315000Y18617500D01*
G75*
G02*
X15552500Y18855000I237500J0D01*
G01*
X16152500Y18855000D01*
G75*
G02*
X16390000Y18617500I0J-237500D01*
G01*
G37*
G04 #@! TD.AperFunction*
G04 #@! TD*
G04 #@! TO.P,C7,2*
G04 #@! TO.N,GND*
G04 #@! TA.AperFunction,SMDPad,CuDef*
G36*
G01*
X14665000Y16817500D02*
X14665000Y16342500D01*
G75*
G02*
X14427500Y16105000I-237500J0D01*
G01*
X13827500Y16105000D01*
G75*
G02*
X13590000Y16342500I0J237500D01*
G01*
X13590000Y16817500D01*
G75*
G02*
X13827500Y17055000I237500J0D01*
G01*
X14427500Y17055000D01*
G75*
G02*
X14665000Y16817500I0J-237500D01*
G01*
G37*
G04 #@! TD.AperFunction*
G04 #@! TO.P,C7,1*
G04 #@! TO.N,VCC*
G04 #@! TA.AperFunction,SMDPad,CuDef*
G36*
G01*
X16390000Y16817500D02*
X16390000Y16342500D01*
G75*
G02*
X16152500Y16105000I-237500J0D01*
G01*
X15552500Y16105000D01*
G75*
G02*
X15315000Y16342500I0J237500D01*
G01*
X15315000Y16817500D01*
G75*
G02*
X15552500Y17055000I237500J0D01*
G01*
X16152500Y17055000D01*
G75*
G02*
X16390000Y16817500I0J-237500D01*
G01*
G37*
G04 #@! TD.AperFunction*
G04 #@! TD*
G04 #@! TO.P,C6,2*
G04 #@! TO.N,GND*
G04 #@! TA.AperFunction,SMDPad,CuDef*
G36*
G01*
X13265000Y13837500D02*
X13265000Y13362500D01*
G75*
G02*
X13027500Y13125000I-237500J0D01*
G01*
X12427500Y13125000D01*
G75*
G02*
X12190000Y13362500I0J237500D01*
G01*
X12190000Y13837500D01*
G75*
G02*
X12427500Y14075000I237500J0D01*
G01*
X13027500Y14075000D01*
G75*
G02*
X13265000Y13837500I0J-237500D01*
G01*
G37*
G04 #@! TD.AperFunction*
G04 #@! TO.P,C6,1*
G04 #@! TO.N,/OSC_IN*
G04 #@! TA.AperFunction,SMDPad,CuDef*
G36*
G01*
X14990000Y13837500D02*
X14990000Y13362500D01*
G75*
G02*
X14752500Y13125000I-237500J0D01*
G01*
X14152500Y13125000D01*
G75*
G02*
X13915000Y13362500I0J237500D01*
G01*
X13915000Y13837500D01*
G75*
G02*
X14152500Y14075000I237500J0D01*
G01*
X14752500Y14075000D01*
G75*
G02*
X14990000Y13837500I0J-237500D01*
G01*
G37*
G04 #@! TD.AperFunction*
G04 #@! TD*
G04 #@! TO.P,C5,2*
G04 #@! TO.N,GND*
G04 #@! TA.AperFunction,SMDPad,CuDef*
G36*
G01*
X17715000Y13362500D02*
X17715000Y13837500D01*
G75*
G02*
X17952500Y14075000I237500J0D01*
G01*
X18552500Y14075000D01*
G75*
G02*
X18790000Y13837500I0J-237500D01*
G01*
X18790000Y13362500D01*
G75*
G02*
X18552500Y13125000I-237500J0D01*
G01*
X17952500Y13125000D01*
G75*
G02*
X17715000Y13362500I0J237500D01*
G01*
G37*
G04 #@! TD.AperFunction*
G04 #@! TO.P,C5,1*
G04 #@! TO.N,/OSC_OUT*
G04 #@! TA.AperFunction,SMDPad,CuDef*
G36*
G01*
X15990000Y13362500D02*
X15990000Y13837500D01*
G75*
G02*
X16227500Y14075000I237500J0D01*
G01*
X16827500Y14075000D01*
G75*
G02*
X17065000Y13837500I0J-237500D01*
G01*
X17065000Y13362500D01*
G75*
G02*
X16827500Y13125000I-237500J0D01*
G01*
X16227500Y13125000D01*
G75*
G02*
X15990000Y13362500I0J237500D01*
G01*
G37*
G04 #@! TD.AperFunction*
G04 #@! TD*
G04 #@! TO.P,C4,2*
G04 #@! TO.N,GND*
G04 #@! TA.AperFunction,SMDPad,CuDef*
G36*
G01*
X17362500Y2187000D02*
X17837500Y2187000D01*
G75*
G02*
X18075000Y1949500I0J-237500D01*
G01*
X18075000Y1349500D01*
G75*
G02*
X17837500Y1112000I-237500J0D01*
G01*
X17362500Y1112000D01*
G75*
G02*
X17125000Y1349500I0J237500D01*
G01*
X17125000Y1949500D01*
G75*
G02*
X17362500Y2187000I237500J0D01*
G01*
G37*
G04 #@! TD.AperFunction*
G04 #@! TO.P,C4,1*
G04 #@! TO.N,/NRST*
G04 #@! TA.AperFunction,SMDPad,CuDef*
G36*
G01*
X17362500Y3912000D02*
X17837500Y3912000D01*
G75*
G02*
X18075000Y3674500I0J-237500D01*
G01*
X18075000Y3074500D01*
G75*
G02*
X17837500Y2837000I-237500J0D01*
G01*
X17362500Y2837000D01*
G75*
G02*
X17125000Y3074500I0J237500D01*
G01*
X17125000Y3674500D01*
G75*
G02*
X17362500Y3912000I237500J0D01*
G01*
G37*
G04 #@! TD.AperFunction*
G04 #@! TD*
G04 #@! TO.P,C3,2*
G04 #@! TO.N,GND*
G04 #@! TA.AperFunction,SMDPad,CuDef*
G36*
G01*
X21605000Y49192500D02*
X21605000Y49667500D01*
G75*
G02*
X21842500Y49905000I237500J0D01*
G01*
X22442500Y49905000D01*
G75*
G02*
X22680000Y49667500I0J-237500D01*
G01*
X22680000Y49192500D01*
G75*
G02*
X22442500Y48955000I-237500J0D01*
G01*
X21842500Y48955000D01*
G75*
G02*
X21605000Y49192500I0J237500D01*
G01*
G37*
G04 #@! TD.AperFunction*
G04 #@! TO.P,C3,1*
G04 #@! TO.N,Net-(C2-Pad1)*
G04 #@! TA.AperFunction,SMDPad,CuDef*
G36*
G01*
X19880000Y49192500D02*
X19880000Y49667500D01*
G75*
G02*
X20117500Y49905000I237500J0D01*
G01*
X20717500Y49905000D01*
G75*
G02*
X20955000Y49667500I0J-237500D01*
G01*
X20955000Y49192500D01*
G75*
G02*
X20717500Y48955000I-237500J0D01*
G01*
X20117500Y48955000D01*
G75*
G02*
X19880000Y49192500I0J237500D01*
G01*
G37*
G04 #@! TD.AperFunction*
G04 #@! TD*
G04 #@! TO.P,C2,2*
G04 #@! TO.N,GND*
G04 #@! TA.AperFunction,SMDPad,CuDef*
G36*
G01*
X21605000Y47392500D02*
X21605000Y47867500D01*
G75*
G02*
X21842500Y48105000I237500J0D01*
G01*
X22442500Y48105000D01*
G75*
G02*
X22680000Y47867500I0J-237500D01*
G01*
X22680000Y47392500D01*
G75*
G02*
X22442500Y47155000I-237500J0D01*
G01*
X21842500Y47155000D01*
G75*
G02*
X21605000Y47392500I0J237500D01*
G01*
G37*
G04 #@! TD.AperFunction*
G04 #@! TO.P,C2,1*
G04 #@! TO.N,Net-(C2-Pad1)*
G04 #@! TA.AperFunction,SMDPad,CuDef*
G36*
G01*
X19880000Y47392500D02*
X19880000Y47867500D01*
G75*
G02*
X20117500Y48105000I237500J0D01*
G01*
X20717500Y48105000D01*
G75*
G02*
X20955000Y47867500I0J-237500D01*
G01*
X20955000Y47392500D01*
G75*
G02*
X20717500Y47155000I-237500J0D01*
G01*
X20117500Y47155000D01*
G75*
G02*
X19880000Y47392500I0J237500D01*
G01*
G37*
G04 #@! TD.AperFunction*
G04 #@! TD*
G04 #@! TO.P,C1,2*
G04 #@! TO.N,GND*
G04 #@! TA.AperFunction,SMDPad,CuDef*
G36*
G01*
X20955000Y43857500D02*
X20955000Y43382500D01*
G75*
G02*
X20717500Y43145000I-237500J0D01*
G01*
X20117500Y43145000D01*
G75*
G02*
X19880000Y43382500I0J237500D01*
G01*
X19880000Y43857500D01*
G75*
G02*
X20117500Y44095000I237500J0D01*
G01*
X20717500Y44095000D01*
G75*
G02*
X20955000Y43857500I0J-237500D01*
G01*
G37*
G04 #@! TD.AperFunction*
G04 #@! TO.P,C1,1*
G04 #@! TO.N,VCC*
G04 #@! TA.AperFunction,SMDPad,CuDef*
G36*
G01*
X22680000Y43857500D02*
X22680000Y43382500D01*
G75*
G02*
X22442500Y43145000I-237500J0D01*
G01*
X21842500Y43145000D01*
G75*
G02*
X21605000Y43382500I0J237500D01*
G01*
X21605000Y43857500D01*
G75*
G02*
X21842500Y44095000I237500J0D01*
G01*
X22442500Y44095000D01*
G75*
G02*
X22680000Y43857500I0J-237500D01*
G01*
G37*
G04 #@! TD.AperFunction*
G04 #@! TD*
D22*
G04 #@! TO.N,GND*
X15884500Y24600900D03*
X12890000Y24600900D03*
G04 #@! TO.N,/NRST*
X18406800Y14714400D03*
X16043900Y7889900D03*
G04 #@! TO.N,/PB8*
X12265500Y19792900D03*
G04 #@! TO.N,/PA12*
X13690000Y50225300D03*
G04 #@! TO.N,/PA11*
X16300000Y50225300D03*
G04 #@! TO.N,/PC13*
X16749200Y20312900D03*
G04 #@! TO.N,/PC14*
X17213700Y18680300D03*
G04 #@! TO.N,/PC15*
X17566600Y17677600D03*
G04 #@! TD*
D23*
G04 #@! TO.N,GND*
X22142500Y47630000D02*
X21281300Y46768800D01*
X21281300Y46768800D02*
X21281300Y44915700D01*
X21281300Y44915700D02*
X20417500Y44051900D01*
X20417500Y43620000D02*
X20417500Y44051900D01*
X19916700Y13625800D02*
X18278300Y13625800D01*
X18278300Y13625800D02*
X18252500Y13600000D01*
X29182600Y13625800D02*
X19916700Y13625800D01*
X19916700Y13625800D02*
X19916700Y22344000D01*
X19916700Y22344000D02*
X18373700Y23887000D01*
X15884500Y24600900D02*
X17659800Y24600900D01*
X17659800Y24600900D02*
X18373700Y23887000D01*
X14127500Y16580000D02*
X14127500Y18380000D01*
X7190000Y27142500D02*
X8299300Y28251800D01*
X8299300Y28251800D02*
X9766200Y28251800D01*
X9766200Y28251800D02*
X10365700Y27652300D01*
X16140500Y33880000D02*
X16140500Y34564700D01*
X16140500Y34564700D02*
X28305800Y46730000D01*
X28305800Y46730000D02*
X29112400Y46730000D01*
X29112400Y46730000D02*
X29918800Y47536400D01*
X29918800Y47536400D02*
X29918800Y48507800D01*
X29918800Y48507800D02*
X29061900Y49364700D01*
X29061900Y49364700D02*
X28700000Y49364700D01*
X16252300Y30834300D02*
X16838300Y31420300D01*
X16838300Y31420300D02*
X16838300Y33182200D01*
X16838300Y33182200D02*
X16140500Y33880000D01*
X15852500Y33880000D02*
X16140500Y33880000D01*
X28700000Y50540000D02*
X28700000Y49364700D01*
X22142500Y47630000D02*
X22142500Y49430000D01*
X22990000Y25417500D02*
X27077500Y21330000D01*
X27077500Y21330000D02*
X29176000Y21330000D01*
X29176000Y21330000D02*
X29875400Y20630600D01*
X29875400Y20630600D02*
X29875400Y14318600D01*
X29875400Y14318600D02*
X29182600Y13625800D01*
X14127500Y16580000D02*
X12727500Y15180000D01*
X12727500Y15180000D02*
X12727500Y13600000D01*
X19620000Y59764700D02*
X19620000Y56770000D01*
X18100000Y51687500D02*
X18905000Y52492500D01*
X18905000Y52492500D02*
X18905000Y54879700D01*
X18905000Y54879700D02*
X18500000Y55284700D01*
X18500000Y56190000D02*
X18500000Y55284700D01*
X18100000Y51687500D02*
X17286300Y52501200D01*
X17286300Y52501200D02*
X14030300Y52501200D01*
X14030300Y52501200D02*
X13216600Y51687500D01*
X13216600Y51687500D02*
X12700000Y51687500D01*
X19620000Y60352400D02*
X19620000Y59764700D01*
X19620000Y60940000D02*
X19620000Y60352400D01*
X15850000Y1700000D02*
X11750000Y1700000D01*
X10980000Y60940000D02*
X9592500Y60940000D01*
X9592500Y60940000D02*
X8760000Y61772500D01*
X10980000Y56770000D02*
X10980000Y60940000D01*
X10980000Y56770000D02*
X11560000Y56190000D01*
X11560000Y56190000D02*
X12100000Y56190000D01*
X14115606Y23375294D02*
X12890000Y24600900D01*
X14115606Y22333626D02*
X14115606Y23375294D01*
X13547658Y21765678D02*
X14115606Y22333626D01*
X6389990Y26342490D02*
X7190000Y27142500D01*
X6389990Y24884500D02*
X6389990Y26342490D01*
X6719500Y24554990D02*
X6389990Y24884500D01*
X7904700Y24554990D02*
X6719500Y24554990D01*
X9572423Y26222713D02*
X7904700Y24554990D01*
X11268187Y26222713D02*
X9572423Y26222713D01*
X12890000Y24600900D02*
X11268187Y26222713D01*
X10980000Y60940000D02*
X19620000Y60940000D01*
X12390010Y41774990D02*
X10525000Y43640000D01*
X16701126Y41774990D02*
X12390010Y41774990D01*
X17200000Y42273864D02*
X16701126Y41774990D01*
X17250000Y43620000D02*
X17200000Y43570000D01*
X20417500Y43620000D02*
X17250000Y43620000D01*
X17200000Y47550000D02*
X17200000Y43570000D01*
X17200000Y43570000D02*
X17200000Y42273864D01*
X29182600Y13625800D02*
X29914000Y12894400D01*
X20393800Y1649500D02*
X17600000Y1649500D01*
X27374300Y8630000D02*
X20393800Y1649500D01*
X29914000Y12894400D02*
X29914000Y9450100D01*
X29914000Y9450100D02*
X29093900Y8630000D01*
X29093900Y8630000D02*
X27374300Y8630000D01*
X5299600Y7375100D02*
X10974700Y1700000D01*
X5299600Y11095800D02*
X5299600Y7375100D01*
X7803800Y13600000D02*
X5299600Y11095800D01*
X12727500Y13600000D02*
X7803800Y13600000D01*
X11750000Y1700000D02*
X10974700Y1700000D01*
X17549500Y1700000D02*
X17600000Y1649500D01*
X15850000Y1700000D02*
X17549500Y1700000D01*
X19040000Y56190000D02*
X19620000Y56770000D01*
X18500000Y56190000D02*
X19040000Y56190000D01*
X21820000Y59947500D02*
X21812500Y59947500D01*
X20820000Y60940000D02*
X19620000Y60940000D01*
X21812500Y59947500D02*
X20820000Y60940000D01*
X18905000Y52492500D02*
X18907500Y52492500D01*
X21970000Y49430000D02*
X22142500Y49430000D01*
X18907500Y52492500D02*
X21970000Y49430000D01*
G04 #@! TO.N,Net-(C2-Pad1)*
X10562500Y45430000D02*
X10562500Y47337500D01*
X10562500Y47337500D02*
X10675000Y47450000D01*
X14200000Y47550000D02*
X14200000Y49025300D01*
X20417500Y49430000D02*
X20347600Y49499900D01*
X20347600Y49499900D02*
X14674600Y49499900D01*
X14674600Y49499900D02*
X14200000Y49025300D01*
X20417500Y47630000D02*
X20417500Y49430000D01*
X14100000Y47450000D02*
X14200000Y47550000D01*
X10675000Y47450000D02*
X14100000Y47450000D01*
G04 #@! TO.N,VCC*
X22142500Y43620000D02*
X14127500Y35605000D01*
X14127500Y35605000D02*
X14127500Y33880000D01*
X22530000Y45610000D02*
X22530000Y44007500D01*
X22530000Y44007500D02*
X22142500Y43620000D01*
X15898800Y31187900D02*
X14127500Y32959200D01*
X14127500Y32959200D02*
X14127500Y33880000D01*
X14389200Y21900100D02*
X13901200Y21412100D01*
X15898800Y21412100D02*
X15410800Y21900100D01*
X15410800Y21900100D02*
X15212500Y21900100D01*
X7190000Y25417500D02*
X8130800Y25417500D01*
X8130800Y25417500D02*
X10012100Y27298800D01*
X28700000Y58160000D02*
X28700000Y56984700D01*
X28700000Y56984700D02*
X28332600Y56984700D01*
X28332600Y56984700D02*
X27524700Y56176800D01*
X27524700Y56176800D02*
X27524700Y48000000D01*
X28700000Y48000000D02*
X27524700Y48000000D01*
X27524700Y48000000D02*
X25134700Y45610000D01*
X25134700Y45610000D02*
X22530000Y45610000D01*
X15852500Y18380000D02*
X15852500Y21365800D01*
X15852500Y21365800D02*
X15898800Y21412100D01*
X15852500Y16580000D02*
X15852500Y18380000D01*
X10580071Y26730841D02*
X10012124Y27298788D01*
X11833061Y26730841D02*
X10580071Y26730841D01*
X14869900Y21900100D02*
X14389200Y21900100D01*
X14869900Y21900100D02*
X14869900Y23694002D01*
X15212500Y21900100D02*
X14869900Y21900100D01*
X14869900Y23694002D02*
X13336951Y25226951D01*
X13336951Y25226951D02*
X13086951Y25476951D01*
X13086951Y25476951D02*
X11833061Y26730841D01*
X15330841Y30619929D02*
X15330841Y27636925D01*
X15898788Y31187876D02*
X15330841Y30619929D01*
X15246925Y27636925D02*
X13086951Y25476951D01*
X15330841Y27636925D02*
X15246925Y27636925D01*
X18932713Y26222713D02*
X17838883Y25128883D01*
X22070213Y26222713D02*
X18932713Y26222713D01*
X22990000Y27142500D02*
X22070213Y26222713D01*
X15330841Y27636925D02*
X17838883Y25128883D01*
X17838883Y25128883D02*
X18727215Y24240551D01*
G04 #@! TO.N,Net-(R6-Pad2)*
X6960000Y59947500D02*
X3902500Y56890000D01*
X3902500Y56890000D02*
X1752700Y56890000D01*
X1752700Y56890000D02*
X520700Y55658000D01*
X520700Y55658000D02*
X520700Y7371000D01*
X520700Y7371000D02*
X1745400Y6146300D01*
X1745400Y6146300D02*
X2685200Y6146300D01*
X2685200Y6146300D02*
X4275900Y7737000D01*
X4275900Y7737000D02*
X4275900Y11993000D01*
X4275900Y11993000D02*
X11540200Y19257300D01*
X11540200Y19257300D02*
X11540200Y21879500D01*
X11540200Y21879500D02*
X12487000Y22826300D01*
X8760000Y59947500D02*
X6960000Y59947500D01*
G04 #@! TO.N,+5V*
X12900000Y56190000D02*
X12900000Y55284700D01*
X12900000Y55284700D02*
X10900000Y53284700D01*
X10900000Y53284700D02*
X10900000Y49650000D01*
X17700000Y56190000D02*
X17700000Y56800200D01*
X17700000Y56800200D02*
X16948400Y57551800D01*
X16948400Y57551800D02*
X13719300Y57551800D01*
X13719300Y57551800D02*
X12900000Y56732500D01*
X12900000Y56732500D02*
X12900000Y56190000D01*
G04 #@! TO.N,Net-(D1-Pad1)*
X8625000Y47450000D02*
X8400000Y47675000D01*
X8400000Y47675000D02*
X8400000Y49650000D01*
G04 #@! TO.N,Net-(D2-Pad2)*
X8775000Y43640000D02*
X8737500Y43677500D01*
X8737500Y43677500D02*
X8737500Y45430000D01*
G04 #@! TO.N,Net-(J1-PadB5)*
X13550000Y56190000D02*
X13550000Y54362500D01*
X13550000Y54362500D02*
X12700000Y53512500D01*
G04 #@! TO.N,Net-(J1-PadA6)*
X14500000Y53512500D02*
X14082400Y53512500D01*
X14082400Y53512500D02*
X13169900Y52600000D01*
X13169900Y52600000D02*
X12325900Y52600000D01*
X12325900Y52600000D02*
X11725300Y51999400D01*
X11725300Y51999400D02*
X11725300Y49015200D01*
X11725300Y49015200D02*
X11487800Y48777700D01*
X11487800Y48777700D02*
X10412200Y48777700D01*
X10412200Y48777700D02*
X9650000Y48015500D01*
X9650000Y48015500D02*
X9650000Y42622500D01*
X9650000Y42622500D02*
X10562500Y41710000D01*
X14550000Y53562500D02*
X14500000Y53512500D01*
X14550000Y56190000D02*
X14550000Y53562500D01*
X15550000Y55374998D02*
X15550000Y56190000D01*
X14639999Y55284999D02*
X15460001Y55284999D01*
X14550000Y55374998D02*
X14639999Y55284999D01*
X15460001Y55284999D02*
X15550000Y55374998D01*
X14550000Y56190000D02*
X14550000Y55374998D01*
G04 #@! TO.N,Net-(J1-PadA5)*
X16550000Y56190000D02*
X16550000Y55062500D01*
X16550000Y55062500D02*
X18100000Y53512500D01*
G04 #@! TO.N,Net-(J1-PadA7)*
X16050000Y56190000D02*
X16050000Y57095300D01*
X15050000Y56190000D02*
X15050000Y57095300D01*
X15050000Y57095300D02*
X16050000Y57095300D01*
X16050000Y56190000D02*
X16050000Y53762500D01*
X16050000Y53762500D02*
X16300000Y53512500D01*
G04 #@! TO.N,/NRST*
X18020100Y23533400D02*
X19400200Y22153300D01*
X19400200Y22153300D02*
X19400200Y15707800D01*
X19400200Y15707800D02*
X18406800Y14714400D01*
X16043900Y3300000D02*
X16043900Y7889900D01*
X16043900Y3300000D02*
X15850000Y3300000D01*
X15850000Y3300000D02*
X11750000Y3300000D01*
X17525500Y3300000D02*
X17600000Y3374500D01*
X15850000Y3300000D02*
X17525500Y3300000D01*
G04 #@! TO.N,/OSC_OUT*
X16527500Y13600000D02*
X16527500Y14390100D01*
X16527500Y14390100D02*
X18893200Y16755800D01*
X18893200Y16755800D02*
X18893200Y21953300D01*
X18893200Y21953300D02*
X17666600Y23179900D01*
X28700000Y12440000D02*
X27524700Y12440000D01*
X21437500Y9950000D02*
X25700300Y9950000D01*
X27524700Y12440000D02*
X27524700Y11774400D01*
X27524700Y11774400D02*
X25700300Y9950000D01*
X16527500Y13600000D02*
X16527500Y10542500D01*
X17120000Y9950000D02*
X21437500Y9950000D01*
X16527500Y10542500D02*
X17120000Y9950000D01*
G04 #@! TO.N,/OSC_IN*
X17313000Y22826300D02*
X18434700Y21704600D01*
X18434700Y21704600D02*
X18434700Y17501200D01*
X18434700Y17501200D02*
X14533500Y13600000D01*
X14533500Y13600000D02*
X14452500Y13600000D01*
X14452500Y10577200D02*
X13825300Y9950000D01*
X14452500Y13600000D02*
X14452500Y10577200D01*
X27524700Y9900000D02*
X26240000Y8615300D01*
X26240000Y8615300D02*
X16414400Y8615300D01*
X16414400Y8615300D02*
X14452500Y10577200D01*
X28700000Y9900000D02*
X27524700Y9900000D01*
X9562500Y9950000D02*
X13825300Y9950000D01*
G04 #@! TO.N,/PB9*
X2200000Y3455300D02*
X2567300Y3455300D01*
X2567300Y3455300D02*
X4726200Y5614200D01*
X4726200Y5614200D02*
X4726200Y11203500D01*
X4726200Y11203500D02*
X12990800Y19468100D01*
X12990800Y19468100D02*
X12990800Y20807800D01*
X12990800Y20807800D02*
X12600700Y21197900D01*
X12600700Y21197900D02*
X12600700Y21525800D01*
X12600700Y21525800D02*
X13194100Y22119200D01*
X2200000Y2280000D02*
X2200000Y3455300D01*
G04 #@! TO.N,/PB8*
X12840600Y22472800D02*
X12150300Y21782500D01*
X12150300Y21782500D02*
X12150300Y19908100D01*
X12150300Y19908100D02*
X12265500Y19792900D01*
G04 #@! TO.N,/PB7*
X2200000Y8535300D02*
X2567400Y8535300D01*
X2567400Y8535300D02*
X3825600Y9793500D01*
X3825600Y9793500D02*
X3825600Y12376200D01*
X3825600Y12376200D02*
X11089900Y19640500D01*
X11089900Y19640500D02*
X11089900Y22136400D01*
X11089900Y22136400D02*
X12133400Y23179900D01*
X2200000Y7360000D02*
X2200000Y8535300D01*
G04 #@! TO.N,/PB6*
X2200000Y9900000D02*
X2200000Y11075300D01*
X2200000Y11075300D02*
X2567400Y11075300D01*
X2567400Y11075300D02*
X3375300Y11883200D01*
X3375300Y11883200D02*
X3375300Y12949400D01*
X3375300Y12949400D02*
X10267300Y19841400D01*
X10267300Y19841400D02*
X10267300Y22020800D01*
X10267300Y22020800D02*
X11779900Y23533400D01*
G04 #@! TO.N,/PB5*
X11426300Y23887000D02*
X9799000Y22259700D01*
X9799000Y22259700D02*
X9799000Y20847100D01*
X9799000Y20847100D02*
X2567200Y13615300D01*
X2567200Y13615300D02*
X2200000Y13615300D01*
X2200000Y12440000D02*
X2200000Y13615300D01*
G04 #@! TO.N,/PB4*
X11072800Y24240600D02*
X2987500Y16155300D01*
X2987500Y16155300D02*
X2200000Y16155300D01*
X2200000Y14980000D02*
X2200000Y16155300D01*
G04 #@! TO.N,/PB3*
X10719200Y24594100D02*
X3645100Y17520000D01*
X3645100Y17520000D02*
X2200000Y17520000D01*
G04 #@! TO.N,/PA15*
X10365700Y24947700D02*
X5478000Y20060000D01*
X5478000Y20060000D02*
X2200000Y20060000D01*
G04 #@! TO.N,/PA14*
X10012100Y25301200D02*
X7898600Y23187700D01*
X7898600Y23187700D02*
X2200000Y23187700D01*
X2200000Y23187700D02*
X2200000Y23775300D01*
X2200000Y22600000D02*
X2200000Y23187700D01*
X2200000Y55620000D02*
X2200000Y54444700D01*
X2200000Y54444700D02*
X1832700Y54444700D01*
X1832700Y54444700D02*
X1024700Y53636700D01*
X1024700Y53636700D02*
X1024700Y24583200D01*
X1024700Y24583200D02*
X1832600Y23775300D01*
X1832600Y23775300D02*
X2200000Y23775300D01*
G04 #@! TO.N,/PA13*
X8737500Y41710000D02*
X8737500Y37061400D01*
X8737500Y37061400D02*
X14823700Y30975200D01*
X14823700Y30975200D02*
X14823700Y30551500D01*
X14823700Y30551500D02*
X11696800Y27424600D01*
X11696800Y27424600D02*
X11300500Y27424600D01*
X11300500Y27424600D02*
X10719200Y28005900D01*
X2200000Y51904700D02*
X2567400Y51904700D01*
X2567400Y51904700D02*
X3375300Y51096800D01*
X3375300Y51096800D02*
X3375300Y47072200D01*
X3375300Y47072200D02*
X8737500Y41710000D01*
X2200000Y53080000D02*
X2200000Y51904700D01*
X10719200Y28005900D02*
X10022900Y28702200D01*
X10022900Y28702200D02*
X6937500Y28702200D01*
X6937500Y28702200D02*
X3375300Y25140000D01*
X2200000Y25140000D02*
X3375300Y25140000D01*
G04 #@! TO.N,/PA12*
X14500000Y51486900D02*
X14500000Y51687500D01*
X2200000Y27680000D02*
X3375300Y27680000D01*
X3375300Y27680000D02*
X4854100Y29158800D01*
X4854100Y29158800D02*
X10273400Y29158800D01*
X10273400Y29158800D02*
X11072800Y28359400D01*
X14500000Y51035300D02*
X13690000Y50225300D01*
X14500000Y51687500D02*
X14500000Y51035300D01*
G04 #@! TO.N,/PA11*
X16300000Y51687500D02*
X16300000Y50225300D01*
X11426300Y28713000D02*
X9919300Y30220000D01*
X9919300Y30220000D02*
X3375300Y30220000D01*
X2200000Y30220000D02*
X3375300Y30220000D01*
G04 #@! TO.N,/PA10*
X2200000Y32760000D02*
X3375300Y32760000D01*
X3375300Y32760000D02*
X8086500Y32760000D01*
X8086500Y32760000D02*
X11779900Y29066600D01*
G04 #@! TO.N,/PA9*
X2200000Y35300000D02*
X3375300Y35300000D01*
X3375300Y35300000D02*
X6253500Y35300000D01*
X6253500Y35300000D02*
X12133400Y29420100D01*
G04 #@! TO.N,/PA8*
X12487000Y29773700D02*
X4420700Y37840000D01*
X4420700Y37840000D02*
X3375300Y37840000D01*
X2200000Y37840000D02*
X3375300Y37840000D01*
G04 #@! TO.N,/PB15*
X2200000Y40380000D02*
X2587800Y40380000D01*
X2587800Y40380000D02*
X12840600Y30127200D01*
G04 #@! TO.N,/PB14*
X2200000Y41744700D02*
X2539200Y41744700D01*
X2539200Y41744700D02*
X3843300Y40440600D01*
X3843300Y40440600D02*
X3843300Y39831600D01*
X3843300Y39831600D02*
X13194100Y30480800D01*
X2200000Y42920000D02*
X2200000Y41744700D01*
G04 #@! TO.N,/PB13*
X2200000Y45460000D02*
X2200000Y44284700D01*
X2200000Y44284700D02*
X2567300Y44284700D01*
X2567300Y44284700D02*
X4348200Y42503800D01*
X4348200Y42503800D02*
X4348200Y40033800D01*
X4348200Y40033800D02*
X13547700Y30834300D01*
G04 #@! TO.N,/PB12*
X2200000Y48000000D02*
X2200000Y46824700D01*
X2200000Y46824700D02*
X2583500Y46824700D01*
X2583500Y46824700D02*
X4957800Y44450400D01*
X4957800Y44450400D02*
X4957800Y40131300D01*
X4957800Y40131300D02*
X13901200Y31187900D01*
G04 #@! TO.N,/BOOT0_UP*
X2200000Y60700000D02*
X3375300Y60700000D01*
X3375300Y60700000D02*
X4447800Y61772500D01*
X4447800Y61772500D02*
X6960000Y61772500D01*
G04 #@! TO.N,/PC13*
X16749200Y20312900D02*
X16852100Y20415800D01*
X16852100Y20415800D02*
X16852100Y21165900D01*
X16852100Y21165900D02*
X16252300Y21765700D01*
G04 #@! TO.N,/PC14*
X16605900Y22119200D02*
X17485600Y21239500D01*
X17485600Y21239500D02*
X17485600Y18952200D01*
X17485600Y18952200D02*
X17213700Y18680300D01*
G04 #@! TO.N,/PC15*
X16959400Y22472800D02*
X17943700Y21488500D01*
X17943700Y21488500D02*
X17943700Y18054700D01*
X17943700Y18054700D02*
X17566600Y17677600D01*
G04 #@! TO.N,/PA0*
X28700000Y14980000D02*
X27524700Y14980000D01*
X27524700Y14980000D02*
X27524700Y16150200D01*
X27524700Y16150200D02*
X19080800Y24594100D01*
G04 #@! TO.N,/PA1*
X28700000Y17520000D02*
X26862000Y17520000D01*
X26862000Y17520000D02*
X19434300Y24947700D01*
G04 #@! TO.N,/PA2*
X28700000Y20060000D02*
X25029100Y20060000D01*
X25029100Y20060000D02*
X19787900Y25301200D01*
G04 #@! TO.N,/PA3*
X28700000Y22600000D02*
X28700000Y23775300D01*
X28700000Y23775300D02*
X27692700Y23775300D01*
X27692700Y23775300D02*
X23452200Y28015800D01*
X23452200Y28015800D02*
X20504900Y28015800D01*
X20504900Y28015800D02*
X19787900Y27298800D01*
G04 #@! TO.N,/PA4*
X28700000Y25140000D02*
X27524700Y25140000D01*
X27524700Y25140000D02*
X24176100Y28488600D01*
X24176100Y28488600D02*
X20270600Y28488600D01*
X20270600Y28488600D02*
X19434300Y27652300D01*
G04 #@! TO.N,/PA5*
X19080800Y28005900D02*
X20069600Y28994700D01*
X20069600Y28994700D02*
X26210000Y28994700D01*
X26210000Y28994700D02*
X27524700Y27680000D01*
X28700000Y27680000D02*
X27524700Y27680000D01*
G04 #@! TO.N,/PA6*
X18727200Y28359400D02*
X20587800Y30220000D01*
X20587800Y30220000D02*
X27524700Y30220000D01*
X28700000Y30220000D02*
X27524700Y30220000D01*
G04 #@! TO.N,/PA7*
X18373700Y28713000D02*
X22420700Y32760000D01*
X22420700Y32760000D02*
X27524700Y32760000D01*
X28700000Y32760000D02*
X27524700Y32760000D01*
G04 #@! TO.N,/PB0*
X18020100Y29066600D02*
X24253500Y35300000D01*
X24253500Y35300000D02*
X27524700Y35300000D01*
X28700000Y35300000D02*
X27524700Y35300000D01*
G04 #@! TO.N,/PB1*
X17666600Y29420100D02*
X26086500Y37840000D01*
X26086500Y37840000D02*
X28700000Y37840000D01*
G04 #@! TO.N,/PB2*
X28176800Y40380000D02*
X27919300Y40380000D01*
X27919300Y40380000D02*
X17313000Y29773700D01*
X23620000Y59947500D02*
X24042900Y59524600D01*
X24042900Y59524600D02*
X29057000Y59524600D01*
X29057000Y59524600D02*
X30369100Y58212500D01*
X30369100Y58212500D02*
X30369100Y42572300D01*
X30369100Y42572300D02*
X28176800Y40380000D01*
X23620000Y59947500D02*
X23620000Y59972500D01*
X23620000Y59972500D02*
X21820000Y61772500D01*
X28700000Y40380000D02*
X28176800Y40380000D01*
G04 #@! TO.N,/PB10*
X28700000Y42920000D02*
X28700000Y41744700D01*
X28700000Y41744700D02*
X28379600Y41744700D01*
X28379600Y41744700D02*
X17985900Y31351000D01*
X17985900Y31351000D02*
X17985900Y31153700D01*
X17985900Y31153700D02*
X16959400Y30127200D01*
G04 #@! TO.N,/PB11*
X28700000Y45460000D02*
X28700000Y44284700D01*
X28700000Y44284700D02*
X28332700Y44284700D01*
X28332700Y44284700D02*
X17514300Y33466300D01*
X17514300Y33466300D02*
X17514300Y31389200D01*
X17514300Y31389200D02*
X16605900Y30480800D01*
G04 #@! TO.N,/BOOT1_UP*
X28700000Y60700000D02*
X27524700Y60700000D01*
X27524700Y60700000D02*
X26452200Y61772500D01*
X26452200Y61772500D02*
X23620000Y61772500D01*
G04 #@! TO.N,Net-(D3-Pad2)*
X19230000Y45610000D02*
X20030000Y45610000D01*
X15700000Y48700000D02*
X16025001Y49025001D01*
X18930000Y48660000D02*
X18930000Y45910000D01*
X18930000Y45910000D02*
X19230000Y45610000D01*
X15700000Y47462500D02*
X15700000Y48700000D01*
X16025001Y49025001D02*
X18564999Y49025001D01*
X18564999Y49025001D02*
X18930000Y48660000D01*
G04 #@! TD*
M02*
