G04 #@! TF.GenerationSoftware,KiCad,Pcbnew,5.1.8+dfsg1-1~bpo10+1*
G04 #@! TF.CreationDate,2020-12-07T14:22:28+08:00*
G04 #@! TF.ProjectId,stm32-io-extend,73746d33-322d-4696-9f2d-657874656e64,rev?*
G04 #@! TF.SameCoordinates,PX7d21b10PY76ffde0*
G04 #@! TF.FileFunction,Copper,L2,Bot*
G04 #@! TF.FilePolarity,Positive*
%FSLAX46Y46*%
G04 Gerber Fmt 4.6, Leading zero omitted, Abs format (unit mm)*
G04 Created by KiCad (PCBNEW 5.1.8+dfsg1-1~bpo10+1) date 2020-12-07 14:22:28*
%MOMM*%
%LPD*%
G01*
G04 APERTURE LIST*
G04 #@! TA.AperFunction,ComponentPad*
%ADD10O,1.700000X1.700000*%
G04 #@! TD*
G04 #@! TA.AperFunction,ComponentPad*
%ADD11R,1.700000X1.700000*%
G04 #@! TD*
G04 #@! TA.AperFunction,ComponentPad*
%ADD12O,0.900000X1.700000*%
G04 #@! TD*
G04 #@! TA.AperFunction,ComponentPad*
%ADD13O,0.900000X2.000000*%
G04 #@! TD*
G04 #@! TA.AperFunction,ViaPad*
%ADD14C,0.800000*%
G04 #@! TD*
G04 #@! TA.AperFunction,Conductor*
%ADD15C,0.250000*%
G04 #@! TD*
G04 APERTURE END LIST*
D10*
G04 #@! TO.P,J3,24*
G04 #@! TO.N,/PC13*
X28700000Y2280000D03*
G04 #@! TO.P,J3,23*
G04 #@! TO.N,/PC14*
X28700000Y4820000D03*
G04 #@! TO.P,J3,22*
G04 #@! TO.N,/PC15*
X28700000Y7360000D03*
G04 #@! TO.P,J3,21*
G04 #@! TO.N,/OSC_IN*
X28700000Y9900000D03*
G04 #@! TO.P,J3,20*
G04 #@! TO.N,/OSC_OUT*
X28700000Y12440000D03*
G04 #@! TO.P,J3,19*
G04 #@! TO.N,/PA0*
X28700000Y14980000D03*
G04 #@! TO.P,J3,18*
G04 #@! TO.N,/PA1*
X28700000Y17520000D03*
G04 #@! TO.P,J3,17*
G04 #@! TO.N,/PA2*
X28700000Y20060000D03*
G04 #@! TO.P,J3,16*
G04 #@! TO.N,/PA3*
X28700000Y22600000D03*
G04 #@! TO.P,J3,15*
G04 #@! TO.N,/PA4*
X28700000Y25140000D03*
G04 #@! TO.P,J3,14*
G04 #@! TO.N,/PA5*
X28700000Y27680000D03*
G04 #@! TO.P,J3,13*
G04 #@! TO.N,/PA6*
X28700000Y30220000D03*
G04 #@! TO.P,J3,12*
G04 #@! TO.N,/PA7*
X28700000Y32760000D03*
G04 #@! TO.P,J3,11*
G04 #@! TO.N,/PB0*
X28700000Y35300000D03*
G04 #@! TO.P,J3,10*
G04 #@! TO.N,/PB1*
X28700000Y37840000D03*
G04 #@! TO.P,J3,9*
G04 #@! TO.N,/PB2*
X28700000Y40380000D03*
G04 #@! TO.P,J3,8*
G04 #@! TO.N,/PB10*
X28700000Y42920000D03*
G04 #@! TO.P,J3,7*
G04 #@! TO.N,/PB11*
X28700000Y45460000D03*
G04 #@! TO.P,J3,6*
G04 #@! TO.N,VCC*
X28700000Y48000000D03*
G04 #@! TO.P,J3,5*
G04 #@! TO.N,GND*
X28700000Y50540000D03*
G04 #@! TO.P,J3,4*
G04 #@! TO.N,/PA10*
X28700000Y53080000D03*
G04 #@! TO.P,J3,3*
G04 #@! TO.N,/PA9*
X28700000Y55620000D03*
G04 #@! TO.P,J3,2*
G04 #@! TO.N,VCC*
X28700000Y58160000D03*
D11*
G04 #@! TO.P,J3,1*
G04 #@! TO.N,/BOOT1_UP*
X28700000Y60700000D03*
G04 #@! TD*
D10*
G04 #@! TO.P,J2,24*
G04 #@! TO.N,/PB9*
X2200000Y2280000D03*
G04 #@! TO.P,J2,23*
G04 #@! TO.N,/PB8*
X2200000Y4820000D03*
G04 #@! TO.P,J2,22*
G04 #@! TO.N,/PB7*
X2200000Y7360000D03*
G04 #@! TO.P,J2,21*
G04 #@! TO.N,/PB6*
X2200000Y9900000D03*
G04 #@! TO.P,J2,20*
G04 #@! TO.N,/PB5*
X2200000Y12440000D03*
G04 #@! TO.P,J2,19*
G04 #@! TO.N,/PB4*
X2200000Y14980000D03*
G04 #@! TO.P,J2,18*
G04 #@! TO.N,/PB3*
X2200000Y17520000D03*
G04 #@! TO.P,J2,17*
G04 #@! TO.N,/PA15*
X2200000Y20060000D03*
G04 #@! TO.P,J2,16*
G04 #@! TO.N,/PA14*
X2200000Y22600000D03*
G04 #@! TO.P,J2,15*
G04 #@! TO.N,/PA13*
X2200000Y25140000D03*
G04 #@! TO.P,J2,14*
G04 #@! TO.N,/PA12*
X2200000Y27680000D03*
G04 #@! TO.P,J2,13*
G04 #@! TO.N,/PA11*
X2200000Y30220000D03*
G04 #@! TO.P,J2,12*
G04 #@! TO.N,/PA10*
X2200000Y32760000D03*
G04 #@! TO.P,J2,11*
G04 #@! TO.N,/PA9*
X2200000Y35300000D03*
G04 #@! TO.P,J2,10*
G04 #@! TO.N,/PA8*
X2200000Y37840000D03*
G04 #@! TO.P,J2,9*
G04 #@! TO.N,/PB15*
X2200000Y40380000D03*
G04 #@! TO.P,J2,8*
G04 #@! TO.N,/PB14*
X2200000Y42920000D03*
G04 #@! TO.P,J2,7*
G04 #@! TO.N,/PB13*
X2200000Y45460000D03*
G04 #@! TO.P,J2,6*
G04 #@! TO.N,/PB12*
X2200000Y48000000D03*
G04 #@! TO.P,J2,5*
G04 #@! TO.N,GND*
X2200000Y50540000D03*
G04 #@! TO.P,J2,4*
G04 #@! TO.N,/PA13*
X2200000Y53080000D03*
G04 #@! TO.P,J2,3*
G04 #@! TO.N,/PA14*
X2200000Y55620000D03*
G04 #@! TO.P,J2,2*
G04 #@! TO.N,VCC*
X2200000Y58160000D03*
D11*
G04 #@! TO.P,J2,1*
G04 #@! TO.N,/BOOT0_UP*
X2200000Y60700000D03*
G04 #@! TD*
D12*
G04 #@! TO.P,J1,S1*
G04 #@! TO.N,GND*
X10980000Y60940000D03*
X19620000Y60940000D03*
D13*
X10980000Y56770000D03*
X19620000Y56770000D03*
G04 #@! TD*
D14*
G04 #@! TO.N,GND*
X15884500Y24600900D03*
X12890000Y24600900D03*
G04 #@! TO.N,/NRST*
X18406800Y14714400D03*
X16043900Y7889900D03*
G04 #@! TO.N,/PB8*
X12265500Y19792900D03*
G04 #@! TO.N,/PA12*
X13690000Y50225300D03*
G04 #@! TO.N,/PA11*
X16300000Y50225300D03*
G04 #@! TO.N,/PC13*
X16749200Y20312900D03*
G04 #@! TO.N,/PC14*
X17213700Y18680300D03*
G04 #@! TO.N,/PC15*
X17566600Y17677600D03*
G04 #@! TD*
D15*
G04 #@! TO.N,GND*
X28700000Y49364700D02*
X28332700Y49364700D01*
X28332700Y49364700D02*
X15884500Y36916500D01*
X15884500Y36916500D02*
X15884500Y24600900D01*
X28700000Y50540000D02*
X28700000Y51715300D01*
X19620000Y56770000D02*
X19680000Y56830000D01*
X19680000Y56830000D02*
X29215900Y56830000D01*
X29215900Y56830000D02*
X29875300Y56170600D01*
X29875300Y56170600D02*
X29875300Y52523200D01*
X29875300Y52523200D02*
X29067400Y51715300D01*
X29067400Y51715300D02*
X28700000Y51715300D01*
X28700000Y50540000D02*
X28700000Y49364700D01*
X2200000Y50540000D02*
X4750000Y50540000D01*
X4750000Y50540000D02*
X10980000Y56770000D01*
X12890000Y24600900D02*
X15884500Y24600900D01*
G04 #@! TO.N,VCC*
X2200000Y58160000D02*
X28700000Y58160000D01*
G04 #@! TO.N,/NRST*
X16043900Y7889900D02*
X18406800Y10252800D01*
X18406800Y10252800D02*
X18406800Y14714400D01*
G04 #@! TO.N,/PB8*
X2200000Y5995300D02*
X2567300Y5995300D01*
X2567300Y5995300D02*
X12265500Y15693500D01*
X12265500Y15693500D02*
X12265500Y19792900D01*
X2200000Y4820000D02*
X2200000Y5995300D01*
G04 #@! TO.N,/PA12*
X2200000Y27680000D02*
X2200000Y28855300D01*
X2200000Y28855300D02*
X1832700Y28855300D01*
X1832700Y28855300D02*
X520700Y30167300D01*
X520700Y30167300D02*
X520700Y37829000D01*
X520700Y37829000D02*
X1801700Y39110000D01*
X1801700Y39110000D02*
X2592700Y39110000D01*
X13690000Y50207300D02*
X13690000Y50225300D01*
X2592700Y39110000D02*
X13690000Y50207300D01*
G04 #@! TO.N,/PA11*
X2200000Y30220000D02*
X2200000Y31395300D01*
X2200000Y31395300D02*
X1832700Y31395300D01*
X1832700Y31395300D02*
X1022300Y32205700D01*
X1022300Y32205700D02*
X1022300Y35802600D01*
X1022300Y35802600D02*
X1789700Y36570000D01*
X1789700Y36570000D02*
X2644700Y36570000D01*
X2644700Y36570000D02*
X16300000Y50225300D01*
G04 #@! TO.N,/PA10*
X27524700Y53080000D02*
X23695300Y53080000D01*
X23695300Y53080000D02*
X3375300Y32760000D01*
X2200000Y32760000D02*
X3375300Y32760000D01*
X28700000Y53080000D02*
X27524700Y53080000D01*
G04 #@! TO.N,/PA9*
X28700000Y55620000D02*
X27524700Y55620000D01*
X27524700Y55620000D02*
X23695300Y55620000D01*
X23695300Y55620000D02*
X3375300Y35300000D01*
X2200000Y35300000D02*
X3375300Y35300000D01*
G04 #@! TO.N,/PC13*
X29067300Y3455300D02*
X28700000Y3455300D01*
X29914000Y4302000D02*
X29067300Y3455300D01*
X28700000Y3455300D02*
X28700000Y2280000D01*
X25987099Y11075001D02*
X29264001Y11075001D01*
X29914000Y10425002D02*
X29914000Y5846000D01*
X29264001Y11075001D02*
X29914000Y10425002D01*
X16749200Y20312900D02*
X25987099Y11075001D01*
X29914000Y7814400D02*
X29914000Y5846000D01*
X29914000Y5846000D02*
X29914000Y4302000D01*
G04 #@! TO.N,/PC14*
X16818800Y18285400D02*
X17213700Y18680300D01*
X16813701Y17380501D02*
X16813701Y18280301D01*
X16813701Y17380501D02*
X27620000Y6574202D01*
X27620000Y6574202D02*
X27620000Y6560000D01*
X27620000Y6560000D02*
X28080000Y6100000D01*
X28080000Y6100000D02*
X28670000Y6100000D01*
X28670000Y4850000D02*
X28700000Y4820000D01*
X28670000Y6100000D02*
X28670000Y4850000D01*
G04 #@! TO.N,/PC15*
X17972400Y17677600D02*
X17566600Y17677600D01*
X27040000Y8610000D02*
X17972400Y17677600D01*
X28700000Y8610000D02*
X27040000Y8610000D01*
X28700000Y7360000D02*
X28700000Y8610000D01*
G04 #@! TD*
M02*
