G04 #@! TF.GenerationSoftware,KiCad,Pcbnew,5.1.8+dfsg1-1~bpo10+1*
G04 #@! TF.CreationDate,2020-12-07T14:22:28+08:00*
G04 #@! TF.ProjectId,stm32-io-extend,73746d33-322d-4696-9f2d-657874656e64,rev?*
G04 #@! TF.SameCoordinates,PX7d21b10PY76ffde0*
G04 #@! TF.FileFunction,Legend,Top*
G04 #@! TF.FilePolarity,Positive*
%FSLAX46Y46*%
G04 Gerber Fmt 4.6, Leading zero omitted, Abs format (unit mm)*
G04 Created by KiCad (PCBNEW 5.1.8+dfsg1-1~bpo10+1) date 2020-12-07 14:22:28*
%MOMM*%
%LPD*%
G01*
G04 APERTURE LIST*
%ADD10C,0.100000*%
%ADD11C,0.120000*%
%ADD12C,0.150000*%
G04 APERTURE END LIST*
D10*
X26696190Y1422858D02*
X26196190Y1422858D01*
X26196190Y1613334D01*
X26220000Y1660953D01*
X26243809Y1684762D01*
X26291428Y1708572D01*
X26362857Y1708572D01*
X26410476Y1684762D01*
X26434285Y1660953D01*
X26458095Y1613334D01*
X26458095Y1422858D01*
X26648571Y2208572D02*
X26672380Y2184762D01*
X26696190Y2113334D01*
X26696190Y2065715D01*
X26672380Y1994286D01*
X26624761Y1946667D01*
X26577142Y1922858D01*
X26481904Y1899048D01*
X26410476Y1899048D01*
X26315238Y1922858D01*
X26267619Y1946667D01*
X26220000Y1994286D01*
X26196190Y2065715D01*
X26196190Y2113334D01*
X26220000Y2184762D01*
X26243809Y2208572D01*
X26696190Y2684762D02*
X26696190Y2399048D01*
X26696190Y2541905D02*
X26196190Y2541905D01*
X26267619Y2494286D01*
X26315238Y2446667D01*
X26339047Y2399048D01*
X26196190Y2851429D02*
X26196190Y3160953D01*
X26386666Y2994286D01*
X26386666Y3065715D01*
X26410476Y3113334D01*
X26434285Y3137143D01*
X26481904Y3160953D01*
X26600952Y3160953D01*
X26648571Y3137143D01*
X26672380Y3113334D01*
X26696190Y3065715D01*
X26696190Y2922858D01*
X26672380Y2875239D01*
X26648571Y2851429D01*
X26696190Y3992858D02*
X26196190Y3992858D01*
X26196190Y4183334D01*
X26220000Y4230953D01*
X26243809Y4254762D01*
X26291428Y4278572D01*
X26362857Y4278572D01*
X26410476Y4254762D01*
X26434285Y4230953D01*
X26458095Y4183334D01*
X26458095Y3992858D01*
X26648571Y4778572D02*
X26672380Y4754762D01*
X26696190Y4683334D01*
X26696190Y4635715D01*
X26672380Y4564286D01*
X26624761Y4516667D01*
X26577142Y4492858D01*
X26481904Y4469048D01*
X26410476Y4469048D01*
X26315238Y4492858D01*
X26267619Y4516667D01*
X26220000Y4564286D01*
X26196190Y4635715D01*
X26196190Y4683334D01*
X26220000Y4754762D01*
X26243809Y4778572D01*
X26696190Y5254762D02*
X26696190Y4969048D01*
X26696190Y5111905D02*
X26196190Y5111905D01*
X26267619Y5064286D01*
X26315238Y5016667D01*
X26339047Y4969048D01*
X26362857Y5683334D02*
X26696190Y5683334D01*
X26172380Y5564286D02*
X26529523Y5445239D01*
X26529523Y5754762D01*
X26696190Y6472858D02*
X26196190Y6472858D01*
X26196190Y6663334D01*
X26220000Y6710953D01*
X26243809Y6734762D01*
X26291428Y6758572D01*
X26362857Y6758572D01*
X26410476Y6734762D01*
X26434285Y6710953D01*
X26458095Y6663334D01*
X26458095Y6472858D01*
X26648571Y7258572D02*
X26672380Y7234762D01*
X26696190Y7163334D01*
X26696190Y7115715D01*
X26672380Y7044286D01*
X26624761Y6996667D01*
X26577142Y6972858D01*
X26481904Y6949048D01*
X26410476Y6949048D01*
X26315238Y6972858D01*
X26267619Y6996667D01*
X26220000Y7044286D01*
X26196190Y7115715D01*
X26196190Y7163334D01*
X26220000Y7234762D01*
X26243809Y7258572D01*
X26696190Y7734762D02*
X26696190Y7449048D01*
X26696190Y7591905D02*
X26196190Y7591905D01*
X26267619Y7544286D01*
X26315238Y7496667D01*
X26339047Y7449048D01*
X26196190Y8187143D02*
X26196190Y7949048D01*
X26434285Y7925239D01*
X26410476Y7949048D01*
X26386666Y7996667D01*
X26386666Y8115715D01*
X26410476Y8163334D01*
X26434285Y8187143D01*
X26481904Y8210953D01*
X26600952Y8210953D01*
X26648571Y8187143D01*
X26672380Y8163334D01*
X26696190Y8115715D01*
X26696190Y7996667D01*
X26672380Y7949048D01*
X26648571Y7925239D01*
X26696190Y9450953D02*
X26196190Y9450953D01*
X26196190Y9641429D01*
X26220000Y9689048D01*
X26243809Y9712858D01*
X26291428Y9736667D01*
X26362857Y9736667D01*
X26410476Y9712858D01*
X26434285Y9689048D01*
X26458095Y9641429D01*
X26458095Y9450953D01*
X26696190Y9950953D02*
X26196190Y9950953D01*
X26196190Y10070000D01*
X26220000Y10141429D01*
X26267619Y10189048D01*
X26315238Y10212858D01*
X26410476Y10236667D01*
X26481904Y10236667D01*
X26577142Y10212858D01*
X26624761Y10189048D01*
X26672380Y10141429D01*
X26696190Y10070000D01*
X26696190Y9950953D01*
X26196190Y10546191D02*
X26196190Y10593810D01*
X26220000Y10641429D01*
X26243809Y10665239D01*
X26291428Y10689048D01*
X26386666Y10712858D01*
X26505714Y10712858D01*
X26600952Y10689048D01*
X26648571Y10665239D01*
X26672380Y10641429D01*
X26696190Y10593810D01*
X26696190Y10546191D01*
X26672380Y10498572D01*
X26648571Y10474762D01*
X26600952Y10450953D01*
X26505714Y10427143D01*
X26386666Y10427143D01*
X26291428Y10450953D01*
X26243809Y10474762D01*
X26220000Y10498572D01*
X26196190Y10546191D01*
X26696190Y11940953D02*
X26196190Y11940953D01*
X26196190Y12131429D01*
X26220000Y12179048D01*
X26243809Y12202858D01*
X26291428Y12226667D01*
X26362857Y12226667D01*
X26410476Y12202858D01*
X26434285Y12179048D01*
X26458095Y12131429D01*
X26458095Y11940953D01*
X26696190Y12440953D02*
X26196190Y12440953D01*
X26196190Y12560000D01*
X26220000Y12631429D01*
X26267619Y12679048D01*
X26315238Y12702858D01*
X26410476Y12726667D01*
X26481904Y12726667D01*
X26577142Y12702858D01*
X26624761Y12679048D01*
X26672380Y12631429D01*
X26696190Y12560000D01*
X26696190Y12440953D01*
X26696190Y13202858D02*
X26696190Y12917143D01*
X26696190Y13060000D02*
X26196190Y13060000D01*
X26267619Y13012381D01*
X26315238Y12964762D01*
X26339047Y12917143D01*
X26696190Y14476667D02*
X26196190Y14476667D01*
X26196190Y14667143D01*
X26220000Y14714762D01*
X26243809Y14738572D01*
X26291428Y14762381D01*
X26362857Y14762381D01*
X26410476Y14738572D01*
X26434285Y14714762D01*
X26458095Y14667143D01*
X26458095Y14476667D01*
X26553333Y14952858D02*
X26553333Y15190953D01*
X26696190Y14905239D02*
X26196190Y15071905D01*
X26696190Y15238572D01*
X26196190Y15500477D02*
X26196190Y15548096D01*
X26220000Y15595715D01*
X26243809Y15619524D01*
X26291428Y15643334D01*
X26386666Y15667143D01*
X26505714Y15667143D01*
X26600952Y15643334D01*
X26648571Y15619524D01*
X26672380Y15595715D01*
X26696190Y15548096D01*
X26696190Y15500477D01*
X26672380Y15452858D01*
X26648571Y15429048D01*
X26600952Y15405239D01*
X26505714Y15381429D01*
X26386666Y15381429D01*
X26291428Y15405239D01*
X26243809Y15429048D01*
X26220000Y15452858D01*
X26196190Y15500477D01*
X26696190Y17036667D02*
X26196190Y17036667D01*
X26196190Y17227143D01*
X26220000Y17274762D01*
X26243809Y17298572D01*
X26291428Y17322381D01*
X26362857Y17322381D01*
X26410476Y17298572D01*
X26434285Y17274762D01*
X26458095Y17227143D01*
X26458095Y17036667D01*
X26553333Y17512858D02*
X26553333Y17750953D01*
X26696190Y17465239D02*
X26196190Y17631905D01*
X26696190Y17798572D01*
X26696190Y18227143D02*
X26696190Y17941429D01*
X26696190Y18084286D02*
X26196190Y18084286D01*
X26267619Y18036667D01*
X26315238Y17989048D01*
X26339047Y17941429D01*
X26696190Y19676667D02*
X26196190Y19676667D01*
X26196190Y19867143D01*
X26220000Y19914762D01*
X26243809Y19938572D01*
X26291428Y19962381D01*
X26362857Y19962381D01*
X26410476Y19938572D01*
X26434285Y19914762D01*
X26458095Y19867143D01*
X26458095Y19676667D01*
X26553333Y20152858D02*
X26553333Y20390953D01*
X26696190Y20105239D02*
X26196190Y20271905D01*
X26696190Y20438572D01*
X26243809Y20581429D02*
X26220000Y20605239D01*
X26196190Y20652858D01*
X26196190Y20771905D01*
X26220000Y20819524D01*
X26243809Y20843334D01*
X26291428Y20867143D01*
X26339047Y20867143D01*
X26410476Y20843334D01*
X26696190Y20557620D01*
X26696190Y20867143D01*
X26696190Y22156667D02*
X26196190Y22156667D01*
X26196190Y22347143D01*
X26220000Y22394762D01*
X26243809Y22418572D01*
X26291428Y22442381D01*
X26362857Y22442381D01*
X26410476Y22418572D01*
X26434285Y22394762D01*
X26458095Y22347143D01*
X26458095Y22156667D01*
X26553333Y22632858D02*
X26553333Y22870953D01*
X26696190Y22585239D02*
X26196190Y22751905D01*
X26696190Y22918572D01*
X26196190Y23037620D02*
X26196190Y23347143D01*
X26386666Y23180477D01*
X26386666Y23251905D01*
X26410476Y23299524D01*
X26434285Y23323334D01*
X26481904Y23347143D01*
X26600952Y23347143D01*
X26648571Y23323334D01*
X26672380Y23299524D01*
X26696190Y23251905D01*
X26696190Y23109048D01*
X26672380Y23061429D01*
X26648571Y23037620D01*
X26696190Y24786667D02*
X26196190Y24786667D01*
X26196190Y24977143D01*
X26220000Y25024762D01*
X26243809Y25048572D01*
X26291428Y25072381D01*
X26362857Y25072381D01*
X26410476Y25048572D01*
X26434285Y25024762D01*
X26458095Y24977143D01*
X26458095Y24786667D01*
X26553333Y25262858D02*
X26553333Y25500953D01*
X26696190Y25215239D02*
X26196190Y25381905D01*
X26696190Y25548572D01*
X26362857Y25929524D02*
X26696190Y25929524D01*
X26172380Y25810477D02*
X26529523Y25691429D01*
X26529523Y26000953D01*
X26696190Y27206667D02*
X26196190Y27206667D01*
X26196190Y27397143D01*
X26220000Y27444762D01*
X26243809Y27468572D01*
X26291428Y27492381D01*
X26362857Y27492381D01*
X26410476Y27468572D01*
X26434285Y27444762D01*
X26458095Y27397143D01*
X26458095Y27206667D01*
X26553333Y27682858D02*
X26553333Y27920953D01*
X26696190Y27635239D02*
X26196190Y27801905D01*
X26696190Y27968572D01*
X26196190Y28373334D02*
X26196190Y28135239D01*
X26434285Y28111429D01*
X26410476Y28135239D01*
X26386666Y28182858D01*
X26386666Y28301905D01*
X26410476Y28349524D01*
X26434285Y28373334D01*
X26481904Y28397143D01*
X26600952Y28397143D01*
X26648571Y28373334D01*
X26672380Y28349524D01*
X26696190Y28301905D01*
X26696190Y28182858D01*
X26672380Y28135239D01*
X26648571Y28111429D01*
X26696190Y29866667D02*
X26196190Y29866667D01*
X26196190Y30057143D01*
X26220000Y30104762D01*
X26243809Y30128572D01*
X26291428Y30152381D01*
X26362857Y30152381D01*
X26410476Y30128572D01*
X26434285Y30104762D01*
X26458095Y30057143D01*
X26458095Y29866667D01*
X26553333Y30342858D02*
X26553333Y30580953D01*
X26696190Y30295239D02*
X26196190Y30461905D01*
X26696190Y30628572D01*
X26196190Y31009524D02*
X26196190Y30914286D01*
X26220000Y30866667D01*
X26243809Y30842858D01*
X26315238Y30795239D01*
X26410476Y30771429D01*
X26600952Y30771429D01*
X26648571Y30795239D01*
X26672380Y30819048D01*
X26696190Y30866667D01*
X26696190Y30961905D01*
X26672380Y31009524D01*
X26648571Y31033334D01*
X26600952Y31057143D01*
X26481904Y31057143D01*
X26434285Y31033334D01*
X26410476Y31009524D01*
X26386666Y30961905D01*
X26386666Y30866667D01*
X26410476Y30819048D01*
X26434285Y30795239D01*
X26481904Y30771429D01*
X26696190Y32316667D02*
X26196190Y32316667D01*
X26196190Y32507143D01*
X26220000Y32554762D01*
X26243809Y32578572D01*
X26291428Y32602381D01*
X26362857Y32602381D01*
X26410476Y32578572D01*
X26434285Y32554762D01*
X26458095Y32507143D01*
X26458095Y32316667D01*
X26553333Y32792858D02*
X26553333Y33030953D01*
X26696190Y32745239D02*
X26196190Y32911905D01*
X26696190Y33078572D01*
X26196190Y33197620D02*
X26196190Y33530953D01*
X26696190Y33316667D01*
X26696190Y34800953D02*
X26196190Y34800953D01*
X26196190Y34991429D01*
X26220000Y35039048D01*
X26243809Y35062858D01*
X26291428Y35086667D01*
X26362857Y35086667D01*
X26410476Y35062858D01*
X26434285Y35039048D01*
X26458095Y34991429D01*
X26458095Y34800953D01*
X26434285Y35467620D02*
X26458095Y35539048D01*
X26481904Y35562858D01*
X26529523Y35586667D01*
X26600952Y35586667D01*
X26648571Y35562858D01*
X26672380Y35539048D01*
X26696190Y35491429D01*
X26696190Y35300953D01*
X26196190Y35300953D01*
X26196190Y35467620D01*
X26220000Y35515239D01*
X26243809Y35539048D01*
X26291428Y35562858D01*
X26339047Y35562858D01*
X26386666Y35539048D01*
X26410476Y35515239D01*
X26434285Y35467620D01*
X26434285Y35300953D01*
X26196190Y35896191D02*
X26196190Y35943810D01*
X26220000Y35991429D01*
X26243809Y36015239D01*
X26291428Y36039048D01*
X26386666Y36062858D01*
X26505714Y36062858D01*
X26600952Y36039048D01*
X26648571Y36015239D01*
X26672380Y35991429D01*
X26696190Y35943810D01*
X26696190Y35896191D01*
X26672380Y35848572D01*
X26648571Y35824762D01*
X26600952Y35800953D01*
X26505714Y35777143D01*
X26386666Y35777143D01*
X26291428Y35800953D01*
X26243809Y35824762D01*
X26220000Y35848572D01*
X26196190Y35896191D01*
X26696190Y37190953D02*
X26196190Y37190953D01*
X26196190Y37381429D01*
X26220000Y37429048D01*
X26243809Y37452858D01*
X26291428Y37476667D01*
X26362857Y37476667D01*
X26410476Y37452858D01*
X26434285Y37429048D01*
X26458095Y37381429D01*
X26458095Y37190953D01*
X26434285Y37857620D02*
X26458095Y37929048D01*
X26481904Y37952858D01*
X26529523Y37976667D01*
X26600952Y37976667D01*
X26648571Y37952858D01*
X26672380Y37929048D01*
X26696190Y37881429D01*
X26696190Y37690953D01*
X26196190Y37690953D01*
X26196190Y37857620D01*
X26220000Y37905239D01*
X26243809Y37929048D01*
X26291428Y37952858D01*
X26339047Y37952858D01*
X26386666Y37929048D01*
X26410476Y37905239D01*
X26434285Y37857620D01*
X26434285Y37690953D01*
X26696190Y38452858D02*
X26696190Y38167143D01*
X26696190Y38310000D02*
X26196190Y38310000D01*
X26267619Y38262381D01*
X26315238Y38214762D01*
X26339047Y38167143D01*
X26696190Y39850953D02*
X26196190Y39850953D01*
X26196190Y40041429D01*
X26220000Y40089048D01*
X26243809Y40112858D01*
X26291428Y40136667D01*
X26362857Y40136667D01*
X26410476Y40112858D01*
X26434285Y40089048D01*
X26458095Y40041429D01*
X26458095Y39850953D01*
X26434285Y40517620D02*
X26458095Y40589048D01*
X26481904Y40612858D01*
X26529523Y40636667D01*
X26600952Y40636667D01*
X26648571Y40612858D01*
X26672380Y40589048D01*
X26696190Y40541429D01*
X26696190Y40350953D01*
X26196190Y40350953D01*
X26196190Y40517620D01*
X26220000Y40565239D01*
X26243809Y40589048D01*
X26291428Y40612858D01*
X26339047Y40612858D01*
X26386666Y40589048D01*
X26410476Y40565239D01*
X26434285Y40517620D01*
X26434285Y40350953D01*
X26243809Y40827143D02*
X26220000Y40850953D01*
X26196190Y40898572D01*
X26196190Y41017620D01*
X26220000Y41065239D01*
X26243809Y41089048D01*
X26291428Y41112858D01*
X26339047Y41112858D01*
X26410476Y41089048D01*
X26696190Y40803334D01*
X26696190Y41112858D01*
X26696190Y42262858D02*
X26196190Y42262858D01*
X26196190Y42453334D01*
X26220000Y42500953D01*
X26243809Y42524762D01*
X26291428Y42548572D01*
X26362857Y42548572D01*
X26410476Y42524762D01*
X26434285Y42500953D01*
X26458095Y42453334D01*
X26458095Y42262858D01*
X26434285Y42929524D02*
X26458095Y43000953D01*
X26481904Y43024762D01*
X26529523Y43048572D01*
X26600952Y43048572D01*
X26648571Y43024762D01*
X26672380Y43000953D01*
X26696190Y42953334D01*
X26696190Y42762858D01*
X26196190Y42762858D01*
X26196190Y42929524D01*
X26220000Y42977143D01*
X26243809Y43000953D01*
X26291428Y43024762D01*
X26339047Y43024762D01*
X26386666Y43000953D01*
X26410476Y42977143D01*
X26434285Y42929524D01*
X26434285Y42762858D01*
X26696190Y43524762D02*
X26696190Y43239048D01*
X26696190Y43381905D02*
X26196190Y43381905D01*
X26267619Y43334286D01*
X26315238Y43286667D01*
X26339047Y43239048D01*
X26196190Y43834286D02*
X26196190Y43881905D01*
X26220000Y43929524D01*
X26243809Y43953334D01*
X26291428Y43977143D01*
X26386666Y44000953D01*
X26505714Y44000953D01*
X26600952Y43977143D01*
X26648571Y43953334D01*
X26672380Y43929524D01*
X26696190Y43881905D01*
X26696190Y43834286D01*
X26672380Y43786667D01*
X26648571Y43762858D01*
X26600952Y43739048D01*
X26505714Y43715239D01*
X26386666Y43715239D01*
X26291428Y43739048D01*
X26243809Y43762858D01*
X26220000Y43786667D01*
X26196190Y43834286D01*
X26696190Y44762858D02*
X26196190Y44762858D01*
X26196190Y44953334D01*
X26220000Y45000953D01*
X26243809Y45024762D01*
X26291428Y45048572D01*
X26362857Y45048572D01*
X26410476Y45024762D01*
X26434285Y45000953D01*
X26458095Y44953334D01*
X26458095Y44762858D01*
X26434285Y45429524D02*
X26458095Y45500953D01*
X26481904Y45524762D01*
X26529523Y45548572D01*
X26600952Y45548572D01*
X26648571Y45524762D01*
X26672380Y45500953D01*
X26696190Y45453334D01*
X26696190Y45262858D01*
X26196190Y45262858D01*
X26196190Y45429524D01*
X26220000Y45477143D01*
X26243809Y45500953D01*
X26291428Y45524762D01*
X26339047Y45524762D01*
X26386666Y45500953D01*
X26410476Y45477143D01*
X26434285Y45429524D01*
X26434285Y45262858D01*
X26696190Y46024762D02*
X26696190Y45739048D01*
X26696190Y45881905D02*
X26196190Y45881905D01*
X26267619Y45834286D01*
X26315238Y45786667D01*
X26339047Y45739048D01*
X26696190Y46500953D02*
X26696190Y46215239D01*
X26696190Y46358096D02*
X26196190Y46358096D01*
X26267619Y46310477D01*
X26315238Y46262858D01*
X26339047Y46215239D01*
X26196190Y47373334D02*
X26696190Y47540000D01*
X26196190Y47706667D01*
X26648571Y48159048D02*
X26672380Y48135239D01*
X26696190Y48063810D01*
X26696190Y48016191D01*
X26672380Y47944762D01*
X26624761Y47897143D01*
X26577142Y47873334D01*
X26481904Y47849524D01*
X26410476Y47849524D01*
X26315238Y47873334D01*
X26267619Y47897143D01*
X26220000Y47944762D01*
X26196190Y48016191D01*
X26196190Y48063810D01*
X26220000Y48135239D01*
X26243809Y48159048D01*
X26648571Y48659048D02*
X26672380Y48635239D01*
X26696190Y48563810D01*
X26696190Y48516191D01*
X26672380Y48444762D01*
X26624761Y48397143D01*
X26577142Y48373334D01*
X26481904Y48349524D01*
X26410476Y48349524D01*
X26315238Y48373334D01*
X26267619Y48397143D01*
X26220000Y48444762D01*
X26196190Y48516191D01*
X26196190Y48563810D01*
X26220000Y48635239D01*
X26243809Y48659048D01*
X26220000Y50249048D02*
X26196190Y50201429D01*
X26196190Y50130000D01*
X26220000Y50058572D01*
X26267619Y50010953D01*
X26315238Y49987143D01*
X26410476Y49963334D01*
X26481904Y49963334D01*
X26577142Y49987143D01*
X26624761Y50010953D01*
X26672380Y50058572D01*
X26696190Y50130000D01*
X26696190Y50177620D01*
X26672380Y50249048D01*
X26648571Y50272858D01*
X26481904Y50272858D01*
X26481904Y50177620D01*
X26696190Y50487143D02*
X26196190Y50487143D01*
X26696190Y50772858D01*
X26196190Y50772858D01*
X26696190Y51010953D02*
X26196190Y51010953D01*
X26196190Y51130000D01*
X26220000Y51201429D01*
X26267619Y51249048D01*
X26315238Y51272858D01*
X26410476Y51296667D01*
X26481904Y51296667D01*
X26577142Y51272858D01*
X26624761Y51249048D01*
X26672380Y51201429D01*
X26696190Y51130000D01*
X26696190Y51010953D01*
X26696190Y52846667D02*
X26458095Y52680000D01*
X26696190Y52560953D02*
X26196190Y52560953D01*
X26196190Y52751429D01*
X26220000Y52799048D01*
X26243809Y52822858D01*
X26291428Y52846667D01*
X26362857Y52846667D01*
X26410476Y52822858D01*
X26434285Y52799048D01*
X26458095Y52751429D01*
X26458095Y52560953D01*
X26196190Y53013334D02*
X26696190Y53346667D01*
X26196190Y53346667D02*
X26696190Y53013334D01*
X26696190Y53537143D02*
X26196190Y53537143D01*
X26196190Y53656191D01*
X26220000Y53727620D01*
X26267619Y53775239D01*
X26315238Y53799048D01*
X26410476Y53822858D01*
X26481904Y53822858D01*
X26577142Y53799048D01*
X26624761Y53775239D01*
X26672380Y53727620D01*
X26696190Y53656191D01*
X26696190Y53537143D01*
X26196190Y55169048D02*
X26196190Y55454762D01*
X26696190Y55311905D02*
X26196190Y55311905D01*
X26196190Y55573810D02*
X26696190Y55907143D01*
X26196190Y55907143D02*
X26696190Y55573810D01*
X26696190Y56097620D02*
X26196190Y56097620D01*
X26196190Y56216667D01*
X26220000Y56288096D01*
X26267619Y56335715D01*
X26315238Y56359524D01*
X26410476Y56383334D01*
X26481904Y56383334D01*
X26577142Y56359524D01*
X26624761Y56335715D01*
X26672380Y56288096D01*
X26696190Y56216667D01*
X26696190Y56097620D01*
X26196190Y57683334D02*
X26696190Y57850000D01*
X26196190Y58016667D01*
X26648571Y58469048D02*
X26672380Y58445239D01*
X26696190Y58373810D01*
X26696190Y58326191D01*
X26672380Y58254762D01*
X26624761Y58207143D01*
X26577142Y58183334D01*
X26481904Y58159524D01*
X26410476Y58159524D01*
X26315238Y58183334D01*
X26267619Y58207143D01*
X26220000Y58254762D01*
X26196190Y58326191D01*
X26196190Y58373810D01*
X26220000Y58445239D01*
X26243809Y58469048D01*
X26648571Y58969048D02*
X26672380Y58945239D01*
X26696190Y58873810D01*
X26696190Y58826191D01*
X26672380Y58754762D01*
X26624761Y58707143D01*
X26577142Y58683334D01*
X26481904Y58659524D01*
X26410476Y58659524D01*
X26315238Y58683334D01*
X26267619Y58707143D01*
X26220000Y58754762D01*
X26196190Y58826191D01*
X26196190Y58873810D01*
X26220000Y58945239D01*
X26243809Y58969048D01*
X26434285Y60015715D02*
X26458095Y60087143D01*
X26481904Y60110953D01*
X26529523Y60134762D01*
X26600952Y60134762D01*
X26648571Y60110953D01*
X26672380Y60087143D01*
X26696190Y60039524D01*
X26696190Y59849048D01*
X26196190Y59849048D01*
X26196190Y60015715D01*
X26220000Y60063334D01*
X26243809Y60087143D01*
X26291428Y60110953D01*
X26339047Y60110953D01*
X26386666Y60087143D01*
X26410476Y60063334D01*
X26434285Y60015715D01*
X26434285Y59849048D01*
X26696190Y60610953D02*
X26696190Y60325239D01*
X26696190Y60468096D02*
X26196190Y60468096D01*
X26267619Y60420477D01*
X26315238Y60372858D01*
X26339047Y60325239D01*
X26196190Y60825239D02*
X26600952Y60825239D01*
X26648571Y60849048D01*
X26672380Y60872858D01*
X26696190Y60920477D01*
X26696190Y61015715D01*
X26672380Y61063334D01*
X26648571Y61087143D01*
X26600952Y61110953D01*
X26196190Y61110953D01*
X26696190Y61349048D02*
X26196190Y61349048D01*
X26196190Y61539524D01*
X26220000Y61587143D01*
X26243809Y61610953D01*
X26291428Y61634762D01*
X26362857Y61634762D01*
X26410476Y61610953D01*
X26434285Y61587143D01*
X26458095Y61539524D01*
X26458095Y61349048D01*
X4686190Y1460953D02*
X4186190Y1460953D01*
X4186190Y1651429D01*
X4210000Y1699048D01*
X4233809Y1722858D01*
X4281428Y1746667D01*
X4352857Y1746667D01*
X4400476Y1722858D01*
X4424285Y1699048D01*
X4448095Y1651429D01*
X4448095Y1460953D01*
X4424285Y2127620D02*
X4448095Y2199048D01*
X4471904Y2222858D01*
X4519523Y2246667D01*
X4590952Y2246667D01*
X4638571Y2222858D01*
X4662380Y2199048D01*
X4686190Y2151429D01*
X4686190Y1960953D01*
X4186190Y1960953D01*
X4186190Y2127620D01*
X4210000Y2175239D01*
X4233809Y2199048D01*
X4281428Y2222858D01*
X4329047Y2222858D01*
X4376666Y2199048D01*
X4400476Y2175239D01*
X4424285Y2127620D01*
X4424285Y1960953D01*
X4686190Y2484762D02*
X4686190Y2580000D01*
X4662380Y2627620D01*
X4638571Y2651429D01*
X4567142Y2699048D01*
X4471904Y2722858D01*
X4281428Y2722858D01*
X4233809Y2699048D01*
X4210000Y2675239D01*
X4186190Y2627620D01*
X4186190Y2532381D01*
X4210000Y2484762D01*
X4233809Y2460953D01*
X4281428Y2437143D01*
X4400476Y2437143D01*
X4448095Y2460953D01*
X4471904Y2484762D01*
X4495714Y2532381D01*
X4495714Y2627620D01*
X4471904Y2675239D01*
X4448095Y2699048D01*
X4400476Y2722858D01*
X4686190Y4300953D02*
X4186190Y4300953D01*
X4186190Y4491429D01*
X4210000Y4539048D01*
X4233809Y4562858D01*
X4281428Y4586667D01*
X4352857Y4586667D01*
X4400476Y4562858D01*
X4424285Y4539048D01*
X4448095Y4491429D01*
X4448095Y4300953D01*
X4424285Y4967620D02*
X4448095Y5039048D01*
X4471904Y5062858D01*
X4519523Y5086667D01*
X4590952Y5086667D01*
X4638571Y5062858D01*
X4662380Y5039048D01*
X4686190Y4991429D01*
X4686190Y4800953D01*
X4186190Y4800953D01*
X4186190Y4967620D01*
X4210000Y5015239D01*
X4233809Y5039048D01*
X4281428Y5062858D01*
X4329047Y5062858D01*
X4376666Y5039048D01*
X4400476Y5015239D01*
X4424285Y4967620D01*
X4424285Y4800953D01*
X4400476Y5372381D02*
X4376666Y5324762D01*
X4352857Y5300953D01*
X4305238Y5277143D01*
X4281428Y5277143D01*
X4233809Y5300953D01*
X4210000Y5324762D01*
X4186190Y5372381D01*
X4186190Y5467620D01*
X4210000Y5515239D01*
X4233809Y5539048D01*
X4281428Y5562858D01*
X4305238Y5562858D01*
X4352857Y5539048D01*
X4376666Y5515239D01*
X4400476Y5467620D01*
X4400476Y5372381D01*
X4424285Y5324762D01*
X4448095Y5300953D01*
X4495714Y5277143D01*
X4590952Y5277143D01*
X4638571Y5300953D01*
X4662380Y5324762D01*
X4686190Y5372381D01*
X4686190Y5467620D01*
X4662380Y5515239D01*
X4638571Y5539048D01*
X4590952Y5562858D01*
X4495714Y5562858D01*
X4448095Y5539048D01*
X4424285Y5515239D01*
X4400476Y5467620D01*
X4686190Y6720953D02*
X4186190Y6720953D01*
X4186190Y6911429D01*
X4210000Y6959048D01*
X4233809Y6982858D01*
X4281428Y7006667D01*
X4352857Y7006667D01*
X4400476Y6982858D01*
X4424285Y6959048D01*
X4448095Y6911429D01*
X4448095Y6720953D01*
X4424285Y7387620D02*
X4448095Y7459048D01*
X4471904Y7482858D01*
X4519523Y7506667D01*
X4590952Y7506667D01*
X4638571Y7482858D01*
X4662380Y7459048D01*
X4686190Y7411429D01*
X4686190Y7220953D01*
X4186190Y7220953D01*
X4186190Y7387620D01*
X4210000Y7435239D01*
X4233809Y7459048D01*
X4281428Y7482858D01*
X4329047Y7482858D01*
X4376666Y7459048D01*
X4400476Y7435239D01*
X4424285Y7387620D01*
X4424285Y7220953D01*
X4186190Y7673334D02*
X4186190Y8006667D01*
X4686190Y7792381D01*
X4686190Y9280953D02*
X4186190Y9280953D01*
X4186190Y9471429D01*
X4210000Y9519048D01*
X4233809Y9542858D01*
X4281428Y9566667D01*
X4352857Y9566667D01*
X4400476Y9542858D01*
X4424285Y9519048D01*
X4448095Y9471429D01*
X4448095Y9280953D01*
X4424285Y9947620D02*
X4448095Y10019048D01*
X4471904Y10042858D01*
X4519523Y10066667D01*
X4590952Y10066667D01*
X4638571Y10042858D01*
X4662380Y10019048D01*
X4686190Y9971429D01*
X4686190Y9780953D01*
X4186190Y9780953D01*
X4186190Y9947620D01*
X4210000Y9995239D01*
X4233809Y10019048D01*
X4281428Y10042858D01*
X4329047Y10042858D01*
X4376666Y10019048D01*
X4400476Y9995239D01*
X4424285Y9947620D01*
X4424285Y9780953D01*
X4186190Y10495239D02*
X4186190Y10400000D01*
X4210000Y10352381D01*
X4233809Y10328572D01*
X4305238Y10280953D01*
X4400476Y10257143D01*
X4590952Y10257143D01*
X4638571Y10280953D01*
X4662380Y10304762D01*
X4686190Y10352381D01*
X4686190Y10447620D01*
X4662380Y10495239D01*
X4638571Y10519048D01*
X4590952Y10542858D01*
X4471904Y10542858D01*
X4424285Y10519048D01*
X4400476Y10495239D01*
X4376666Y10447620D01*
X4376666Y10352381D01*
X4400476Y10304762D01*
X4424285Y10280953D01*
X4471904Y10257143D01*
X4686190Y11900953D02*
X4186190Y11900953D01*
X4186190Y12091429D01*
X4210000Y12139048D01*
X4233809Y12162858D01*
X4281428Y12186667D01*
X4352857Y12186667D01*
X4400476Y12162858D01*
X4424285Y12139048D01*
X4448095Y12091429D01*
X4448095Y11900953D01*
X4424285Y12567620D02*
X4448095Y12639048D01*
X4471904Y12662858D01*
X4519523Y12686667D01*
X4590952Y12686667D01*
X4638571Y12662858D01*
X4662380Y12639048D01*
X4686190Y12591429D01*
X4686190Y12400953D01*
X4186190Y12400953D01*
X4186190Y12567620D01*
X4210000Y12615239D01*
X4233809Y12639048D01*
X4281428Y12662858D01*
X4329047Y12662858D01*
X4376666Y12639048D01*
X4400476Y12615239D01*
X4424285Y12567620D01*
X4424285Y12400953D01*
X4186190Y13139048D02*
X4186190Y12900953D01*
X4424285Y12877143D01*
X4400476Y12900953D01*
X4376666Y12948572D01*
X4376666Y13067620D01*
X4400476Y13115239D01*
X4424285Y13139048D01*
X4471904Y13162858D01*
X4590952Y13162858D01*
X4638571Y13139048D01*
X4662380Y13115239D01*
X4686190Y13067620D01*
X4686190Y12948572D01*
X4662380Y12900953D01*
X4638571Y12877143D01*
X4686190Y14660953D02*
X4186190Y14660953D01*
X4186190Y14851429D01*
X4210000Y14899048D01*
X4233809Y14922858D01*
X4281428Y14946667D01*
X4352857Y14946667D01*
X4400476Y14922858D01*
X4424285Y14899048D01*
X4448095Y14851429D01*
X4448095Y14660953D01*
X4424285Y15327620D02*
X4448095Y15399048D01*
X4471904Y15422858D01*
X4519523Y15446667D01*
X4590952Y15446667D01*
X4638571Y15422858D01*
X4662380Y15399048D01*
X4686190Y15351429D01*
X4686190Y15160953D01*
X4186190Y15160953D01*
X4186190Y15327620D01*
X4210000Y15375239D01*
X4233809Y15399048D01*
X4281428Y15422858D01*
X4329047Y15422858D01*
X4376666Y15399048D01*
X4400476Y15375239D01*
X4424285Y15327620D01*
X4424285Y15160953D01*
X4352857Y15875239D02*
X4686190Y15875239D01*
X4162380Y15756191D02*
X4519523Y15637143D01*
X4519523Y15946667D01*
X4686190Y16940953D02*
X4186190Y16940953D01*
X4186190Y17131429D01*
X4210000Y17179048D01*
X4233809Y17202858D01*
X4281428Y17226667D01*
X4352857Y17226667D01*
X4400476Y17202858D01*
X4424285Y17179048D01*
X4448095Y17131429D01*
X4448095Y16940953D01*
X4424285Y17607620D02*
X4448095Y17679048D01*
X4471904Y17702858D01*
X4519523Y17726667D01*
X4590952Y17726667D01*
X4638571Y17702858D01*
X4662380Y17679048D01*
X4686190Y17631429D01*
X4686190Y17440953D01*
X4186190Y17440953D01*
X4186190Y17607620D01*
X4210000Y17655239D01*
X4233809Y17679048D01*
X4281428Y17702858D01*
X4329047Y17702858D01*
X4376666Y17679048D01*
X4400476Y17655239D01*
X4424285Y17607620D01*
X4424285Y17440953D01*
X4186190Y17893334D02*
X4186190Y18202858D01*
X4376666Y18036191D01*
X4376666Y18107620D01*
X4400476Y18155239D01*
X4424285Y18179048D01*
X4471904Y18202858D01*
X4590952Y18202858D01*
X4638571Y18179048D01*
X4662380Y18155239D01*
X4686190Y18107620D01*
X4686190Y17964762D01*
X4662380Y17917143D01*
X4638571Y17893334D01*
X4686190Y19308572D02*
X4186190Y19308572D01*
X4186190Y19499048D01*
X4210000Y19546667D01*
X4233809Y19570477D01*
X4281428Y19594286D01*
X4352857Y19594286D01*
X4400476Y19570477D01*
X4424285Y19546667D01*
X4448095Y19499048D01*
X4448095Y19308572D01*
X4543333Y19784762D02*
X4543333Y20022858D01*
X4686190Y19737143D02*
X4186190Y19903810D01*
X4686190Y20070477D01*
X4686190Y20499048D02*
X4686190Y20213334D01*
X4686190Y20356191D02*
X4186190Y20356191D01*
X4257619Y20308572D01*
X4305238Y20260953D01*
X4329047Y20213334D01*
X4186190Y20951429D02*
X4186190Y20713334D01*
X4424285Y20689524D01*
X4400476Y20713334D01*
X4376666Y20760953D01*
X4376666Y20880000D01*
X4400476Y20927620D01*
X4424285Y20951429D01*
X4471904Y20975239D01*
X4590952Y20975239D01*
X4638571Y20951429D01*
X4662380Y20927620D01*
X4686190Y20880000D01*
X4686190Y20760953D01*
X4662380Y20713334D01*
X4638571Y20689524D01*
X4686190Y21718572D02*
X4186190Y21718572D01*
X4186190Y21909048D01*
X4210000Y21956667D01*
X4233809Y21980477D01*
X4281428Y22004286D01*
X4352857Y22004286D01*
X4400476Y21980477D01*
X4424285Y21956667D01*
X4448095Y21909048D01*
X4448095Y21718572D01*
X4543333Y22194762D02*
X4543333Y22432858D01*
X4686190Y22147143D02*
X4186190Y22313810D01*
X4686190Y22480477D01*
X4686190Y22909048D02*
X4686190Y22623334D01*
X4686190Y22766191D02*
X4186190Y22766191D01*
X4257619Y22718572D01*
X4305238Y22670953D01*
X4329047Y22623334D01*
X4352857Y23337620D02*
X4686190Y23337620D01*
X4162380Y23218572D02*
X4519523Y23099524D01*
X4519523Y23409048D01*
X4686190Y24458572D02*
X4186190Y24458572D01*
X4186190Y24649048D01*
X4210000Y24696667D01*
X4233809Y24720477D01*
X4281428Y24744286D01*
X4352857Y24744286D01*
X4400476Y24720477D01*
X4424285Y24696667D01*
X4448095Y24649048D01*
X4448095Y24458572D01*
X4543333Y24934762D02*
X4543333Y25172858D01*
X4686190Y24887143D02*
X4186190Y25053810D01*
X4686190Y25220477D01*
X4686190Y25649048D02*
X4686190Y25363334D01*
X4686190Y25506191D02*
X4186190Y25506191D01*
X4257619Y25458572D01*
X4305238Y25410953D01*
X4329047Y25363334D01*
X4186190Y25815715D02*
X4186190Y26125239D01*
X4376666Y25958572D01*
X4376666Y26030000D01*
X4400476Y26077620D01*
X4424285Y26101429D01*
X4471904Y26125239D01*
X4590952Y26125239D01*
X4638571Y26101429D01*
X4662380Y26077620D01*
X4686190Y26030000D01*
X4686190Y25887143D01*
X4662380Y25839524D01*
X4638571Y25815715D01*
X4686190Y26878572D02*
X4186190Y26878572D01*
X4186190Y27069048D01*
X4210000Y27116667D01*
X4233809Y27140477D01*
X4281428Y27164286D01*
X4352857Y27164286D01*
X4400476Y27140477D01*
X4424285Y27116667D01*
X4448095Y27069048D01*
X4448095Y26878572D01*
X4543333Y27354762D02*
X4543333Y27592858D01*
X4686190Y27307143D02*
X4186190Y27473810D01*
X4686190Y27640477D01*
X4686190Y28069048D02*
X4686190Y27783334D01*
X4686190Y27926191D02*
X4186190Y27926191D01*
X4257619Y27878572D01*
X4305238Y27830953D01*
X4329047Y27783334D01*
X4233809Y28259524D02*
X4210000Y28283334D01*
X4186190Y28330953D01*
X4186190Y28450000D01*
X4210000Y28497620D01*
X4233809Y28521429D01*
X4281428Y28545239D01*
X4329047Y28545239D01*
X4400476Y28521429D01*
X4686190Y28235715D01*
X4686190Y28545239D01*
X4686190Y29418572D02*
X4186190Y29418572D01*
X4186190Y29609048D01*
X4210000Y29656667D01*
X4233809Y29680477D01*
X4281428Y29704286D01*
X4352857Y29704286D01*
X4400476Y29680477D01*
X4424285Y29656667D01*
X4448095Y29609048D01*
X4448095Y29418572D01*
X4543333Y29894762D02*
X4543333Y30132858D01*
X4686190Y29847143D02*
X4186190Y30013810D01*
X4686190Y30180477D01*
X4686190Y30609048D02*
X4686190Y30323334D01*
X4686190Y30466191D02*
X4186190Y30466191D01*
X4257619Y30418572D01*
X4305238Y30370953D01*
X4329047Y30323334D01*
X4686190Y31085239D02*
X4686190Y30799524D01*
X4686190Y30942381D02*
X4186190Y30942381D01*
X4257619Y30894762D01*
X4305238Y30847143D01*
X4329047Y30799524D01*
X4686190Y32018572D02*
X4186190Y32018572D01*
X4186190Y32209048D01*
X4210000Y32256667D01*
X4233809Y32280477D01*
X4281428Y32304286D01*
X4352857Y32304286D01*
X4400476Y32280477D01*
X4424285Y32256667D01*
X4448095Y32209048D01*
X4448095Y32018572D01*
X4543333Y32494762D02*
X4543333Y32732858D01*
X4686190Y32447143D02*
X4186190Y32613810D01*
X4686190Y32780477D01*
X4686190Y33209048D02*
X4686190Y32923334D01*
X4686190Y33066191D02*
X4186190Y33066191D01*
X4257619Y33018572D01*
X4305238Y32970953D01*
X4329047Y32923334D01*
X4186190Y33518572D02*
X4186190Y33566191D01*
X4210000Y33613810D01*
X4233809Y33637620D01*
X4281428Y33661429D01*
X4376666Y33685239D01*
X4495714Y33685239D01*
X4590952Y33661429D01*
X4638571Y33637620D01*
X4662380Y33613810D01*
X4686190Y33566191D01*
X4686190Y33518572D01*
X4662380Y33470953D01*
X4638571Y33447143D01*
X4590952Y33423334D01*
X4495714Y33399524D01*
X4376666Y33399524D01*
X4281428Y33423334D01*
X4233809Y33447143D01*
X4210000Y33470953D01*
X4186190Y33518572D01*
X4686190Y34756667D02*
X4186190Y34756667D01*
X4186190Y34947143D01*
X4210000Y34994762D01*
X4233809Y35018572D01*
X4281428Y35042381D01*
X4352857Y35042381D01*
X4400476Y35018572D01*
X4424285Y34994762D01*
X4448095Y34947143D01*
X4448095Y34756667D01*
X4543333Y35232858D02*
X4543333Y35470953D01*
X4686190Y35185239D02*
X4186190Y35351905D01*
X4686190Y35518572D01*
X4686190Y35709048D02*
X4686190Y35804286D01*
X4662380Y35851905D01*
X4638571Y35875715D01*
X4567142Y35923334D01*
X4471904Y35947143D01*
X4281428Y35947143D01*
X4233809Y35923334D01*
X4210000Y35899524D01*
X4186190Y35851905D01*
X4186190Y35756667D01*
X4210000Y35709048D01*
X4233809Y35685239D01*
X4281428Y35661429D01*
X4400476Y35661429D01*
X4448095Y35685239D01*
X4471904Y35709048D01*
X4495714Y35756667D01*
X4495714Y35851905D01*
X4471904Y35899524D01*
X4448095Y35923334D01*
X4400476Y35947143D01*
X4686190Y37326667D02*
X4186190Y37326667D01*
X4186190Y37517143D01*
X4210000Y37564762D01*
X4233809Y37588572D01*
X4281428Y37612381D01*
X4352857Y37612381D01*
X4400476Y37588572D01*
X4424285Y37564762D01*
X4448095Y37517143D01*
X4448095Y37326667D01*
X4543333Y37802858D02*
X4543333Y38040953D01*
X4686190Y37755239D02*
X4186190Y37921905D01*
X4686190Y38088572D01*
X4400476Y38326667D02*
X4376666Y38279048D01*
X4352857Y38255239D01*
X4305238Y38231429D01*
X4281428Y38231429D01*
X4233809Y38255239D01*
X4210000Y38279048D01*
X4186190Y38326667D01*
X4186190Y38421905D01*
X4210000Y38469524D01*
X4233809Y38493334D01*
X4281428Y38517143D01*
X4305238Y38517143D01*
X4352857Y38493334D01*
X4376666Y38469524D01*
X4400476Y38421905D01*
X4400476Y38326667D01*
X4424285Y38279048D01*
X4448095Y38255239D01*
X4495714Y38231429D01*
X4590952Y38231429D01*
X4638571Y38255239D01*
X4662380Y38279048D01*
X4686190Y38326667D01*
X4686190Y38421905D01*
X4662380Y38469524D01*
X4638571Y38493334D01*
X4590952Y38517143D01*
X4495714Y38517143D01*
X4448095Y38493334D01*
X4424285Y38469524D01*
X4400476Y38421905D01*
X4686190Y39422858D02*
X4186190Y39422858D01*
X4186190Y39613334D01*
X4210000Y39660953D01*
X4233809Y39684762D01*
X4281428Y39708572D01*
X4352857Y39708572D01*
X4400476Y39684762D01*
X4424285Y39660953D01*
X4448095Y39613334D01*
X4448095Y39422858D01*
X4424285Y40089524D02*
X4448095Y40160953D01*
X4471904Y40184762D01*
X4519523Y40208572D01*
X4590952Y40208572D01*
X4638571Y40184762D01*
X4662380Y40160953D01*
X4686190Y40113334D01*
X4686190Y39922858D01*
X4186190Y39922858D01*
X4186190Y40089524D01*
X4210000Y40137143D01*
X4233809Y40160953D01*
X4281428Y40184762D01*
X4329047Y40184762D01*
X4376666Y40160953D01*
X4400476Y40137143D01*
X4424285Y40089524D01*
X4424285Y39922858D01*
X4686190Y40684762D02*
X4686190Y40399048D01*
X4686190Y40541905D02*
X4186190Y40541905D01*
X4257619Y40494286D01*
X4305238Y40446667D01*
X4329047Y40399048D01*
X4186190Y41137143D02*
X4186190Y40899048D01*
X4424285Y40875239D01*
X4400476Y40899048D01*
X4376666Y40946667D01*
X4376666Y41065715D01*
X4400476Y41113334D01*
X4424285Y41137143D01*
X4471904Y41160953D01*
X4590952Y41160953D01*
X4638571Y41137143D01*
X4662380Y41113334D01*
X4686190Y41065715D01*
X4686190Y40946667D01*
X4662380Y40899048D01*
X4638571Y40875239D01*
X4686190Y41922858D02*
X4186190Y41922858D01*
X4186190Y42113334D01*
X4210000Y42160953D01*
X4233809Y42184762D01*
X4281428Y42208572D01*
X4352857Y42208572D01*
X4400476Y42184762D01*
X4424285Y42160953D01*
X4448095Y42113334D01*
X4448095Y41922858D01*
X4424285Y42589524D02*
X4448095Y42660953D01*
X4471904Y42684762D01*
X4519523Y42708572D01*
X4590952Y42708572D01*
X4638571Y42684762D01*
X4662380Y42660953D01*
X4686190Y42613334D01*
X4686190Y42422858D01*
X4186190Y42422858D01*
X4186190Y42589524D01*
X4210000Y42637143D01*
X4233809Y42660953D01*
X4281428Y42684762D01*
X4329047Y42684762D01*
X4376666Y42660953D01*
X4400476Y42637143D01*
X4424285Y42589524D01*
X4424285Y42422858D01*
X4686190Y43184762D02*
X4686190Y42899048D01*
X4686190Y43041905D02*
X4186190Y43041905D01*
X4257619Y42994286D01*
X4305238Y42946667D01*
X4329047Y42899048D01*
X4352857Y43613334D02*
X4686190Y43613334D01*
X4162380Y43494286D02*
X4519523Y43375239D01*
X4519523Y43684762D01*
X4686190Y44472858D02*
X4186190Y44472858D01*
X4186190Y44663334D01*
X4210000Y44710953D01*
X4233809Y44734762D01*
X4281428Y44758572D01*
X4352857Y44758572D01*
X4400476Y44734762D01*
X4424285Y44710953D01*
X4448095Y44663334D01*
X4448095Y44472858D01*
X4424285Y45139524D02*
X4448095Y45210953D01*
X4471904Y45234762D01*
X4519523Y45258572D01*
X4590952Y45258572D01*
X4638571Y45234762D01*
X4662380Y45210953D01*
X4686190Y45163334D01*
X4686190Y44972858D01*
X4186190Y44972858D01*
X4186190Y45139524D01*
X4210000Y45187143D01*
X4233809Y45210953D01*
X4281428Y45234762D01*
X4329047Y45234762D01*
X4376666Y45210953D01*
X4400476Y45187143D01*
X4424285Y45139524D01*
X4424285Y44972858D01*
X4686190Y45734762D02*
X4686190Y45449048D01*
X4686190Y45591905D02*
X4186190Y45591905D01*
X4257619Y45544286D01*
X4305238Y45496667D01*
X4329047Y45449048D01*
X4186190Y45901429D02*
X4186190Y46210953D01*
X4376666Y46044286D01*
X4376666Y46115715D01*
X4400476Y46163334D01*
X4424285Y46187143D01*
X4471904Y46210953D01*
X4590952Y46210953D01*
X4638571Y46187143D01*
X4662380Y46163334D01*
X4686190Y46115715D01*
X4686190Y45972858D01*
X4662380Y45925239D01*
X4638571Y45901429D01*
X4686190Y47122858D02*
X4186190Y47122858D01*
X4186190Y47313334D01*
X4210000Y47360953D01*
X4233809Y47384762D01*
X4281428Y47408572D01*
X4352857Y47408572D01*
X4400476Y47384762D01*
X4424285Y47360953D01*
X4448095Y47313334D01*
X4448095Y47122858D01*
X4424285Y47789524D02*
X4448095Y47860953D01*
X4471904Y47884762D01*
X4519523Y47908572D01*
X4590952Y47908572D01*
X4638571Y47884762D01*
X4662380Y47860953D01*
X4686190Y47813334D01*
X4686190Y47622858D01*
X4186190Y47622858D01*
X4186190Y47789524D01*
X4210000Y47837143D01*
X4233809Y47860953D01*
X4281428Y47884762D01*
X4329047Y47884762D01*
X4376666Y47860953D01*
X4400476Y47837143D01*
X4424285Y47789524D01*
X4424285Y47622858D01*
X4686190Y48384762D02*
X4686190Y48099048D01*
X4686190Y48241905D02*
X4186190Y48241905D01*
X4257619Y48194286D01*
X4305238Y48146667D01*
X4329047Y48099048D01*
X4233809Y48575239D02*
X4210000Y48599048D01*
X4186190Y48646667D01*
X4186190Y48765715D01*
X4210000Y48813334D01*
X4233809Y48837143D01*
X4281428Y48860953D01*
X4329047Y48860953D01*
X4400476Y48837143D01*
X4686190Y48551429D01*
X4686190Y48860953D01*
X4210000Y50139048D02*
X4186190Y50091429D01*
X4186190Y50020000D01*
X4210000Y49948572D01*
X4257619Y49900953D01*
X4305238Y49877143D01*
X4400476Y49853334D01*
X4471904Y49853334D01*
X4567142Y49877143D01*
X4614761Y49900953D01*
X4662380Y49948572D01*
X4686190Y50020000D01*
X4686190Y50067620D01*
X4662380Y50139048D01*
X4638571Y50162858D01*
X4471904Y50162858D01*
X4471904Y50067620D01*
X4686190Y50377143D02*
X4186190Y50377143D01*
X4686190Y50662858D01*
X4186190Y50662858D01*
X4686190Y50900953D02*
X4186190Y50900953D01*
X4186190Y51020000D01*
X4210000Y51091429D01*
X4257619Y51139048D01*
X4305238Y51162858D01*
X4400476Y51186667D01*
X4471904Y51186667D01*
X4567142Y51162858D01*
X4614761Y51139048D01*
X4662380Y51091429D01*
X4686190Y51020000D01*
X4686190Y50900953D01*
X4662380Y51840477D02*
X4686190Y51911905D01*
X4686190Y52030953D01*
X4662380Y52078572D01*
X4638571Y52102381D01*
X4590952Y52126191D01*
X4543333Y52126191D01*
X4495714Y52102381D01*
X4471904Y52078572D01*
X4448095Y52030953D01*
X4424285Y51935715D01*
X4400476Y51888096D01*
X4376666Y51864286D01*
X4329047Y51840477D01*
X4281428Y51840477D01*
X4233809Y51864286D01*
X4210000Y51888096D01*
X4186190Y51935715D01*
X4186190Y52054762D01*
X4210000Y52126191D01*
X4186190Y52292858D02*
X4686190Y52411905D01*
X4329047Y52507143D01*
X4686190Y52602381D01*
X4186190Y52721429D01*
X4686190Y52911905D02*
X4186190Y52911905D01*
X4186190Y53030953D01*
X4210000Y53102381D01*
X4257619Y53150000D01*
X4305238Y53173810D01*
X4400476Y53197620D01*
X4471904Y53197620D01*
X4567142Y53173810D01*
X4614761Y53150000D01*
X4662380Y53102381D01*
X4686190Y53030953D01*
X4686190Y52911905D01*
X4686190Y53411905D02*
X4186190Y53411905D01*
X4186190Y53745239D02*
X4186190Y53840477D01*
X4210000Y53888096D01*
X4257619Y53935715D01*
X4352857Y53959524D01*
X4519523Y53959524D01*
X4614761Y53935715D01*
X4662380Y53888096D01*
X4686190Y53840477D01*
X4686190Y53745239D01*
X4662380Y53697620D01*
X4614761Y53650000D01*
X4519523Y53626191D01*
X4352857Y53626191D01*
X4257619Y53650000D01*
X4210000Y53697620D01*
X4186190Y53745239D01*
X4662380Y54449048D02*
X4686190Y54520477D01*
X4686190Y54639524D01*
X4662380Y54687143D01*
X4638571Y54710953D01*
X4590952Y54734762D01*
X4543333Y54734762D01*
X4495714Y54710953D01*
X4471904Y54687143D01*
X4448095Y54639524D01*
X4424285Y54544286D01*
X4400476Y54496667D01*
X4376666Y54472858D01*
X4329047Y54449048D01*
X4281428Y54449048D01*
X4233809Y54472858D01*
X4210000Y54496667D01*
X4186190Y54544286D01*
X4186190Y54663334D01*
X4210000Y54734762D01*
X4186190Y54901429D02*
X4686190Y55020477D01*
X4329047Y55115715D01*
X4686190Y55210953D01*
X4186190Y55330000D01*
X4638571Y55806191D02*
X4662380Y55782381D01*
X4686190Y55710953D01*
X4686190Y55663334D01*
X4662380Y55591905D01*
X4614761Y55544286D01*
X4567142Y55520477D01*
X4471904Y55496667D01*
X4400476Y55496667D01*
X4305238Y55520477D01*
X4257619Y55544286D01*
X4210000Y55591905D01*
X4186190Y55663334D01*
X4186190Y55710953D01*
X4210000Y55782381D01*
X4233809Y55806191D01*
X4686190Y56258572D02*
X4686190Y56020477D01*
X4186190Y56020477D01*
X4686190Y56425239D02*
X4186190Y56425239D01*
X4686190Y56710953D02*
X4400476Y56496667D01*
X4186190Y56710953D02*
X4471904Y56425239D01*
X4186190Y57593334D02*
X4686190Y57760000D01*
X4186190Y57926667D01*
X4638571Y58379048D02*
X4662380Y58355239D01*
X4686190Y58283810D01*
X4686190Y58236191D01*
X4662380Y58164762D01*
X4614761Y58117143D01*
X4567142Y58093334D01*
X4471904Y58069524D01*
X4400476Y58069524D01*
X4305238Y58093334D01*
X4257619Y58117143D01*
X4210000Y58164762D01*
X4186190Y58236191D01*
X4186190Y58283810D01*
X4210000Y58355239D01*
X4233809Y58379048D01*
X4638571Y58879048D02*
X4662380Y58855239D01*
X4686190Y58783810D01*
X4686190Y58736191D01*
X4662380Y58664762D01*
X4614761Y58617143D01*
X4567142Y58593334D01*
X4471904Y58569524D01*
X4400476Y58569524D01*
X4305238Y58593334D01*
X4257619Y58617143D01*
X4210000Y58664762D01*
X4186190Y58736191D01*
X4186190Y58783810D01*
X4210000Y58855239D01*
X4233809Y58879048D01*
X4424285Y60045715D02*
X4448095Y60117143D01*
X4471904Y60140953D01*
X4519523Y60164762D01*
X4590952Y60164762D01*
X4638571Y60140953D01*
X4662380Y60117143D01*
X4686190Y60069524D01*
X4686190Y59879048D01*
X4186190Y59879048D01*
X4186190Y60045715D01*
X4210000Y60093334D01*
X4233809Y60117143D01*
X4281428Y60140953D01*
X4329047Y60140953D01*
X4376666Y60117143D01*
X4400476Y60093334D01*
X4424285Y60045715D01*
X4424285Y59879048D01*
X4186190Y60474286D02*
X4186190Y60521905D01*
X4210000Y60569524D01*
X4233809Y60593334D01*
X4281428Y60617143D01*
X4376666Y60640953D01*
X4495714Y60640953D01*
X4590952Y60617143D01*
X4638571Y60593334D01*
X4662380Y60569524D01*
X4686190Y60521905D01*
X4686190Y60474286D01*
X4662380Y60426667D01*
X4638571Y60402858D01*
X4590952Y60379048D01*
X4495714Y60355239D01*
X4376666Y60355239D01*
X4281428Y60379048D01*
X4233809Y60402858D01*
X4210000Y60426667D01*
X4186190Y60474286D01*
X4186190Y60855239D02*
X4590952Y60855239D01*
X4638571Y60879048D01*
X4662380Y60902858D01*
X4686190Y60950477D01*
X4686190Y61045715D01*
X4662380Y61093334D01*
X4638571Y61117143D01*
X4590952Y61140953D01*
X4186190Y61140953D01*
X4686190Y61379048D02*
X4186190Y61379048D01*
X4186190Y61569524D01*
X4210000Y61617143D01*
X4233809Y61640953D01*
X4281428Y61664762D01*
X4352857Y61664762D01*
X4400476Y61640953D01*
X4424285Y61617143D01*
X4448095Y61569524D01*
X4448095Y61379048D01*
D11*
G04 #@! TO.C,U1*
X14650000Y43740000D02*
X13340000Y43740000D01*
X13340000Y43740000D02*
X13340000Y46460000D01*
X17830000Y47600000D02*
X17830000Y46460000D01*
X18060000Y43740000D02*
X16750000Y43740000D01*
X18060000Y46460000D02*
X18060000Y43740000D01*
X18060000Y46460000D02*
X17830000Y46460000D01*
X13340000Y46460000D02*
X13570000Y46460000D01*
G04 #@! TO.C,D3*
X23180000Y44760000D02*
X23180000Y46460000D01*
X23180000Y46460000D02*
X20030000Y46460000D01*
X23180000Y44760000D02*
X20030000Y44760000D01*
G04 #@! TO.C,D1*
X7750000Y50500000D02*
X7750000Y48800000D01*
X7750000Y48800000D02*
X10900000Y48800000D01*
X7750000Y50500000D02*
X10900000Y50500000D01*
G04 #@! TO.C,Y1*
X9600000Y7400000D02*
X25575000Y7400000D01*
X25575000Y7400000D02*
X25575000Y12500000D01*
X25575000Y12500000D02*
X9600000Y12500000D01*
G04 #@! TO.C,U2*
X15218198Y31087113D02*
X14900000Y31405311D01*
X14900000Y31405311D02*
X14581802Y31087113D01*
X19687113Y26618198D02*
X20005311Y26300000D01*
X20005311Y26300000D02*
X19687113Y25981802D01*
X10112887Y25981802D02*
X9794689Y26300000D01*
X9794689Y26300000D02*
X10112887Y26618198D01*
X14581802Y21512887D02*
X14900000Y21194689D01*
X14900000Y21194689D02*
X15218198Y21512887D01*
X15218198Y21512887D02*
X16130366Y20600719D01*
G04 #@! TO.C,SW1*
X11600000Y2450000D02*
X11600000Y2550000D01*
X16000000Y4050000D02*
X14950000Y4050000D01*
X11600000Y950000D02*
X16000000Y950000D01*
X16000000Y2450000D02*
X16000000Y2550000D01*
X12650000Y4050000D02*
X11600000Y4050000D01*
G04 #@! TO.C,R10*
X9395276Y42232500D02*
X9904724Y42232500D01*
X9395276Y41187500D02*
X9904724Y41187500D01*
G04 #@! TO.C,R9*
X22342500Y61114724D02*
X22342500Y60605276D01*
X21297500Y61114724D02*
X21297500Y60605276D01*
G04 #@! TO.C,R8*
X24142500Y61114724D02*
X24142500Y60605276D01*
X23097500Y61114724D02*
X23097500Y60605276D01*
G04 #@! TO.C,R7*
X8237500Y60605276D02*
X8237500Y61114724D01*
X9282500Y60605276D02*
X9282500Y61114724D01*
G04 #@! TO.C,R6*
X7482500Y61114724D02*
X7482500Y60605276D01*
X6437500Y61114724D02*
X6437500Y60605276D01*
G04 #@! TO.C,R5*
X9904724Y44907500D02*
X9395276Y44907500D01*
X9904724Y45952500D02*
X9395276Y45952500D01*
G04 #@! TO.C,R4*
X13977500Y52345276D02*
X13977500Y52854724D01*
X15022500Y52345276D02*
X15022500Y52854724D01*
G04 #@! TO.C,R3*
X15777500Y52345276D02*
X15777500Y52854724D01*
X16822500Y52345276D02*
X16822500Y52854724D01*
G04 #@! TO.C,R2*
X13222500Y52854724D02*
X13222500Y52345276D01*
X12177500Y52854724D02*
X12177500Y52345276D01*
G04 #@! TO.C,R1*
X17577500Y52345276D02*
X17577500Y52854724D01*
X18622500Y52345276D02*
X18622500Y52854724D01*
G04 #@! TO.C,J3*
X27370000Y950000D02*
X30030000Y950000D01*
X27370000Y59430000D02*
X27370000Y950000D01*
X30030000Y59430000D02*
X30030000Y950000D01*
X27370000Y59430000D02*
X30030000Y59430000D01*
X27370000Y60700000D02*
X27370000Y62030000D01*
X27370000Y62030000D02*
X28700000Y62030000D01*
G04 #@! TO.C,J2*
X870000Y950000D02*
X3530000Y950000D01*
X870000Y59430000D02*
X870000Y950000D01*
X3530000Y59430000D02*
X3530000Y950000D01*
X870000Y59430000D02*
X3530000Y59430000D01*
X870000Y60700000D02*
X870000Y62030000D01*
X870000Y62030000D02*
X2200000Y62030000D01*
G04 #@! TO.C,J1*
X10830000Y63540000D02*
X19770000Y63540000D01*
X10830000Y58030000D02*
X10830000Y59830000D01*
X10830000Y63540000D02*
X10830000Y62080000D01*
X19770000Y63540000D02*
X19770000Y62080000D01*
X19770000Y58030000D02*
X19770000Y59830000D01*
G04 #@! TO.C,F1*
X9911252Y46740000D02*
X9388748Y46740000D01*
X9911252Y48160000D02*
X9388748Y48160000D01*
G04 #@! TO.C,D2*
X8850000Y42905000D02*
X11310000Y42905000D01*
X11310000Y42905000D02*
X11310000Y44375000D01*
X11310000Y44375000D02*
X8850000Y44375000D01*
G04 #@! TO.C,C11*
X23500000Y26426267D02*
X23500000Y26133733D01*
X22480000Y26426267D02*
X22480000Y26133733D01*
G04 #@! TO.C,C10*
X6680000Y26133733D02*
X6680000Y26426267D01*
X7700000Y26133733D02*
X7700000Y26426267D01*
G04 #@! TO.C,C9*
X14843733Y34390000D02*
X15136267Y34390000D01*
X14843733Y33370000D02*
X15136267Y33370000D01*
G04 #@! TO.C,C8*
X15136267Y17870000D02*
X14843733Y17870000D01*
X15136267Y18890000D02*
X14843733Y18890000D01*
G04 #@! TO.C,C7*
X15136267Y16070000D02*
X14843733Y16070000D01*
X15136267Y17090000D02*
X14843733Y17090000D01*
G04 #@! TO.C,C6*
X13736267Y13090000D02*
X13443733Y13090000D01*
X13736267Y14110000D02*
X13443733Y14110000D01*
G04 #@! TO.C,C5*
X17243733Y14110000D02*
X17536267Y14110000D01*
X17243733Y13090000D02*
X17536267Y13090000D01*
G04 #@! TO.C,C4*
X18110000Y2658267D02*
X18110000Y2365733D01*
X17090000Y2658267D02*
X17090000Y2365733D01*
G04 #@! TO.C,C3*
X21133733Y49940000D02*
X21426267Y49940000D01*
X21133733Y48920000D02*
X21426267Y48920000D01*
G04 #@! TO.C,C2*
X21133733Y48140000D02*
X21426267Y48140000D01*
X21133733Y47120000D02*
X21426267Y47120000D01*
G04 #@! TO.C,C1*
X21426267Y43110000D02*
X21133733Y43110000D01*
X21426267Y44130000D02*
X21133733Y44130000D01*
G04 #@! TO.C,U1*
D12*
X12778095Y45527620D02*
X12778095Y44718096D01*
X12825714Y44622858D01*
X12873333Y44575239D01*
X12968571Y44527620D01*
X13159047Y44527620D01*
X13254285Y44575239D01*
X13301904Y44622858D01*
X13349523Y44718096D01*
X13349523Y45527620D01*
X14349523Y44527620D02*
X13778095Y44527620D01*
X14063809Y44527620D02*
X14063809Y45527620D01*
X13968571Y45384762D01*
X13873333Y45289524D01*
X13778095Y45241905D01*
G04 #@! TO.C,D3*
X23581904Y45137620D02*
X23581904Y46137620D01*
X23820000Y46137620D01*
X23962857Y46090000D01*
X24058095Y45994762D01*
X24105714Y45899524D01*
X24153333Y45709048D01*
X24153333Y45566191D01*
X24105714Y45375715D01*
X24058095Y45280477D01*
X23962857Y45185239D01*
X23820000Y45137620D01*
X23581904Y45137620D01*
X24486666Y46137620D02*
X25105714Y46137620D01*
X24772380Y45756667D01*
X24915238Y45756667D01*
X25010476Y45709048D01*
X25058095Y45661429D01*
X25105714Y45566191D01*
X25105714Y45328096D01*
X25058095Y45232858D01*
X25010476Y45185239D01*
X24915238Y45137620D01*
X24629523Y45137620D01*
X24534285Y45185239D01*
X24486666Y45232858D01*
G04 #@! TO.C,D1*
X5971904Y49157620D02*
X5971904Y50157620D01*
X6210000Y50157620D01*
X6352857Y50110000D01*
X6448095Y50014762D01*
X6495714Y49919524D01*
X6543333Y49729048D01*
X6543333Y49586191D01*
X6495714Y49395715D01*
X6448095Y49300477D01*
X6352857Y49205239D01*
X6210000Y49157620D01*
X5971904Y49157620D01*
X7495714Y49157620D02*
X6924285Y49157620D01*
X7210000Y49157620D02*
X7210000Y50157620D01*
X7114761Y50014762D01*
X7019523Y49919524D01*
X6924285Y49871905D01*
G04 #@! TO.C,Y1*
X6013809Y13403810D02*
X6013809Y12927620D01*
X5680476Y13927620D02*
X6013809Y13403810D01*
X6347142Y13927620D01*
X7204285Y12927620D02*
X6632857Y12927620D01*
X6918571Y12927620D02*
X6918571Y13927620D01*
X6823333Y13784762D01*
X6728095Y13689524D01*
X6632857Y13641905D01*
G04 #@! TO.C,U2*
X9604106Y21835127D02*
X10176526Y21262707D01*
X10277541Y21229035D01*
X10344885Y21229035D01*
X10445900Y21262707D01*
X10580587Y21397394D01*
X10614259Y21498409D01*
X10614259Y21565753D01*
X10580587Y21666768D01*
X10008167Y22239188D01*
X10378557Y22474890D02*
X10378557Y22542233D01*
X10412228Y22643249D01*
X10580587Y22811607D01*
X10681602Y22845279D01*
X10748946Y22845279D01*
X10849961Y22811607D01*
X10917305Y22744264D01*
X10984648Y22609577D01*
X10984648Y21801455D01*
X11422381Y22239188D01*
G04 #@! TO.C,SW1*
X12446666Y4625239D02*
X12589523Y4577620D01*
X12827619Y4577620D01*
X12922857Y4625239D01*
X12970476Y4672858D01*
X13018095Y4768096D01*
X13018095Y4863334D01*
X12970476Y4958572D01*
X12922857Y5006191D01*
X12827619Y5053810D01*
X12637142Y5101429D01*
X12541904Y5149048D01*
X12494285Y5196667D01*
X12446666Y5291905D01*
X12446666Y5387143D01*
X12494285Y5482381D01*
X12541904Y5530000D01*
X12637142Y5577620D01*
X12875238Y5577620D01*
X13018095Y5530000D01*
X13351428Y5577620D02*
X13589523Y4577620D01*
X13780000Y5291905D01*
X13970476Y4577620D01*
X14208571Y5577620D01*
X15113333Y4577620D02*
X14541904Y4577620D01*
X14827619Y4577620D02*
X14827619Y5577620D01*
X14732380Y5434762D01*
X14637142Y5339524D01*
X14541904Y5291905D01*
G04 #@! TO.C,R10*
X5887142Y41217620D02*
X5553809Y41693810D01*
X5315714Y41217620D02*
X5315714Y42217620D01*
X5696666Y42217620D01*
X5791904Y42170000D01*
X5839523Y42122381D01*
X5887142Y42027143D01*
X5887142Y41884286D01*
X5839523Y41789048D01*
X5791904Y41741429D01*
X5696666Y41693810D01*
X5315714Y41693810D01*
X6839523Y41217620D02*
X6268095Y41217620D01*
X6553809Y41217620D02*
X6553809Y42217620D01*
X6458571Y42074762D01*
X6363333Y41979524D01*
X6268095Y41931905D01*
X7458571Y42217620D02*
X7553809Y42217620D01*
X7649047Y42170000D01*
X7696666Y42122381D01*
X7744285Y42027143D01*
X7791904Y41836667D01*
X7791904Y41598572D01*
X7744285Y41408096D01*
X7696666Y41312858D01*
X7649047Y41265239D01*
X7553809Y41217620D01*
X7458571Y41217620D01*
X7363333Y41265239D01*
X7315714Y41312858D01*
X7268095Y41408096D01*
X7220476Y41598572D01*
X7220476Y41836667D01*
X7268095Y42027143D01*
X7315714Y42122381D01*
X7363333Y42170000D01*
X7458571Y42217620D01*
G04 #@! TO.C,R9*
X21603333Y58007620D02*
X21270000Y58483810D01*
X21031904Y58007620D02*
X21031904Y59007620D01*
X21412857Y59007620D01*
X21508095Y58960000D01*
X21555714Y58912381D01*
X21603333Y58817143D01*
X21603333Y58674286D01*
X21555714Y58579048D01*
X21508095Y58531429D01*
X21412857Y58483810D01*
X21031904Y58483810D01*
X22079523Y58007620D02*
X22270000Y58007620D01*
X22365238Y58055239D01*
X22412857Y58102858D01*
X22508095Y58245715D01*
X22555714Y58436191D01*
X22555714Y58817143D01*
X22508095Y58912381D01*
X22460476Y58960000D01*
X22365238Y59007620D01*
X22174761Y59007620D01*
X22079523Y58960000D01*
X22031904Y58912381D01*
X21984285Y58817143D01*
X21984285Y58579048D01*
X22031904Y58483810D01*
X22079523Y58436191D01*
X22174761Y58388572D01*
X22365238Y58388572D01*
X22460476Y58436191D01*
X22508095Y58483810D01*
X22555714Y58579048D01*
G04 #@! TO.C,R8*
X23403333Y58007620D02*
X23070000Y58483810D01*
X22831904Y58007620D02*
X22831904Y59007620D01*
X23212857Y59007620D01*
X23308095Y58960000D01*
X23355714Y58912381D01*
X23403333Y58817143D01*
X23403333Y58674286D01*
X23355714Y58579048D01*
X23308095Y58531429D01*
X23212857Y58483810D01*
X22831904Y58483810D01*
X23974761Y58579048D02*
X23879523Y58626667D01*
X23831904Y58674286D01*
X23784285Y58769524D01*
X23784285Y58817143D01*
X23831904Y58912381D01*
X23879523Y58960000D01*
X23974761Y59007620D01*
X24165238Y59007620D01*
X24260476Y58960000D01*
X24308095Y58912381D01*
X24355714Y58817143D01*
X24355714Y58769524D01*
X24308095Y58674286D01*
X24260476Y58626667D01*
X24165238Y58579048D01*
X23974761Y58579048D01*
X23879523Y58531429D01*
X23831904Y58483810D01*
X23784285Y58388572D01*
X23784285Y58198096D01*
X23831904Y58102858D01*
X23879523Y58055239D01*
X23974761Y58007620D01*
X24165238Y58007620D01*
X24260476Y58055239D01*
X24308095Y58102858D01*
X24355714Y58198096D01*
X24355714Y58388572D01*
X24308095Y58483810D01*
X24260476Y58531429D01*
X24165238Y58579048D01*
G04 #@! TO.C,R7*
X8593333Y58007620D02*
X8260000Y58483810D01*
X8021904Y58007620D02*
X8021904Y59007620D01*
X8402857Y59007620D01*
X8498095Y58960000D01*
X8545714Y58912381D01*
X8593333Y58817143D01*
X8593333Y58674286D01*
X8545714Y58579048D01*
X8498095Y58531429D01*
X8402857Y58483810D01*
X8021904Y58483810D01*
X8926666Y59007620D02*
X9593333Y59007620D01*
X9164761Y58007620D01*
G04 #@! TO.C,R6*
X6793333Y58007620D02*
X6460000Y58483810D01*
X6221904Y58007620D02*
X6221904Y59007620D01*
X6602857Y59007620D01*
X6698095Y58960000D01*
X6745714Y58912381D01*
X6793333Y58817143D01*
X6793333Y58674286D01*
X6745714Y58579048D01*
X6698095Y58531429D01*
X6602857Y58483810D01*
X6221904Y58483810D01*
X7650476Y59007620D02*
X7460000Y59007620D01*
X7364761Y58960000D01*
X7317142Y58912381D01*
X7221904Y58769524D01*
X7174285Y58579048D01*
X7174285Y58198096D01*
X7221904Y58102858D01*
X7269523Y58055239D01*
X7364761Y58007620D01*
X7555238Y58007620D01*
X7650476Y58055239D01*
X7698095Y58102858D01*
X7745714Y58198096D01*
X7745714Y58436191D01*
X7698095Y58531429D01*
X7650476Y58579048D01*
X7555238Y58626667D01*
X7364761Y58626667D01*
X7269523Y58579048D01*
X7221904Y58531429D01*
X7174285Y58436191D01*
G04 #@! TO.C,R5*
X6543333Y44877620D02*
X6210000Y45353810D01*
X5971904Y44877620D02*
X5971904Y45877620D01*
X6352857Y45877620D01*
X6448095Y45830000D01*
X6495714Y45782381D01*
X6543333Y45687143D01*
X6543333Y45544286D01*
X6495714Y45449048D01*
X6448095Y45401429D01*
X6352857Y45353810D01*
X5971904Y45353810D01*
X7448095Y45877620D02*
X6971904Y45877620D01*
X6924285Y45401429D01*
X6971904Y45449048D01*
X7067142Y45496667D01*
X7305238Y45496667D01*
X7400476Y45449048D01*
X7448095Y45401429D01*
X7495714Y45306191D01*
X7495714Y45068096D01*
X7448095Y44972858D01*
X7400476Y44925239D01*
X7305238Y44877620D01*
X7067142Y44877620D01*
X6971904Y44925239D01*
X6924285Y44972858D01*
G04 #@! TO.C,R4*
X14333333Y49747620D02*
X14000000Y50223810D01*
X13761904Y49747620D02*
X13761904Y50747620D01*
X14142857Y50747620D01*
X14238095Y50700000D01*
X14285714Y50652381D01*
X14333333Y50557143D01*
X14333333Y50414286D01*
X14285714Y50319048D01*
X14238095Y50271429D01*
X14142857Y50223810D01*
X13761904Y50223810D01*
X15190476Y50414286D02*
X15190476Y49747620D01*
X14952380Y50795239D02*
X14714285Y50080953D01*
X15333333Y50080953D01*
G04 #@! TO.C,R3*
X16133333Y49747620D02*
X15800000Y50223810D01*
X15561904Y49747620D02*
X15561904Y50747620D01*
X15942857Y50747620D01*
X16038095Y50700000D01*
X16085714Y50652381D01*
X16133333Y50557143D01*
X16133333Y50414286D01*
X16085714Y50319048D01*
X16038095Y50271429D01*
X15942857Y50223810D01*
X15561904Y50223810D01*
X16466666Y50747620D02*
X17085714Y50747620D01*
X16752380Y50366667D01*
X16895238Y50366667D01*
X16990476Y50319048D01*
X17038095Y50271429D01*
X17085714Y50176191D01*
X17085714Y49938096D01*
X17038095Y49842858D01*
X16990476Y49795239D01*
X16895238Y49747620D01*
X16609523Y49747620D01*
X16514285Y49795239D01*
X16466666Y49842858D01*
G04 #@! TO.C,R2*
X12533333Y49747620D02*
X12200000Y50223810D01*
X11961904Y49747620D02*
X11961904Y50747620D01*
X12342857Y50747620D01*
X12438095Y50700000D01*
X12485714Y50652381D01*
X12533333Y50557143D01*
X12533333Y50414286D01*
X12485714Y50319048D01*
X12438095Y50271429D01*
X12342857Y50223810D01*
X11961904Y50223810D01*
X12914285Y50652381D02*
X12961904Y50700000D01*
X13057142Y50747620D01*
X13295238Y50747620D01*
X13390476Y50700000D01*
X13438095Y50652381D01*
X13485714Y50557143D01*
X13485714Y50461905D01*
X13438095Y50319048D01*
X12866666Y49747620D01*
X13485714Y49747620D01*
G04 #@! TO.C,R1*
X17933333Y49747620D02*
X17600000Y50223810D01*
X17361904Y49747620D02*
X17361904Y50747620D01*
X17742857Y50747620D01*
X17838095Y50700000D01*
X17885714Y50652381D01*
X17933333Y50557143D01*
X17933333Y50414286D01*
X17885714Y50319048D01*
X17838095Y50271429D01*
X17742857Y50223810D01*
X17361904Y50223810D01*
X18885714Y49747620D02*
X18314285Y49747620D01*
X18600000Y49747620D02*
X18600000Y50747620D01*
X18504761Y50604762D01*
X18409523Y50509524D01*
X18314285Y50461905D01*
G04 #@! TO.C,J3*
X24766666Y1597620D02*
X24766666Y883334D01*
X24719047Y740477D01*
X24623809Y645239D01*
X24480952Y597620D01*
X24385714Y597620D01*
X25147619Y1597620D02*
X25766666Y1597620D01*
X25433333Y1216667D01*
X25576190Y1216667D01*
X25671428Y1169048D01*
X25719047Y1121429D01*
X25766666Y1026191D01*
X25766666Y788096D01*
X25719047Y692858D01*
X25671428Y645239D01*
X25576190Y597620D01*
X25290476Y597620D01*
X25195238Y645239D01*
X25147619Y692858D01*
G04 #@! TO.C,J2*
X5146666Y1557620D02*
X5146666Y843334D01*
X5099047Y700477D01*
X5003809Y605239D01*
X4860952Y557620D01*
X4765714Y557620D01*
X5575238Y1462381D02*
X5622857Y1510000D01*
X5718095Y1557620D01*
X5956190Y1557620D01*
X6051428Y1510000D01*
X6099047Y1462381D01*
X6146666Y1367143D01*
X6146666Y1271905D01*
X6099047Y1129048D01*
X5527619Y557620D01*
X6146666Y557620D01*
G04 #@! TO.C,J1*
X21166666Y56497620D02*
X21166666Y55783334D01*
X21119047Y55640477D01*
X21023809Y55545239D01*
X20880952Y55497620D01*
X20785714Y55497620D01*
X22166666Y55497620D02*
X21595238Y55497620D01*
X21880952Y55497620D02*
X21880952Y56497620D01*
X21785714Y56354762D01*
X21690476Y56259524D01*
X21595238Y56211905D01*
G04 #@! TO.C,F1*
X6376666Y47541429D02*
X6043333Y47541429D01*
X6043333Y47017620D02*
X6043333Y48017620D01*
X6519523Y48017620D01*
X7424285Y47017620D02*
X6852857Y47017620D01*
X7138571Y47017620D02*
X7138571Y48017620D01*
X7043333Y47874762D01*
X6948095Y47779524D01*
X6852857Y47731905D01*
G04 #@! TO.C,D2*
X5971904Y43137620D02*
X5971904Y44137620D01*
X6210000Y44137620D01*
X6352857Y44090000D01*
X6448095Y43994762D01*
X6495714Y43899524D01*
X6543333Y43709048D01*
X6543333Y43566191D01*
X6495714Y43375715D01*
X6448095Y43280477D01*
X6352857Y43185239D01*
X6210000Y43137620D01*
X5971904Y43137620D01*
X6924285Y44042381D02*
X6971904Y44090000D01*
X7067142Y44137620D01*
X7305238Y44137620D01*
X7400476Y44090000D01*
X7448095Y44042381D01*
X7495714Y43947143D01*
X7495714Y43851905D01*
X7448095Y43709048D01*
X6876666Y43137620D01*
X7495714Y43137620D01*
G04 #@! TO.C,C11*
X22347142Y28222858D02*
X22299523Y28175239D01*
X22156666Y28127620D01*
X22061428Y28127620D01*
X21918571Y28175239D01*
X21823333Y28270477D01*
X21775714Y28365715D01*
X21728095Y28556191D01*
X21728095Y28699048D01*
X21775714Y28889524D01*
X21823333Y28984762D01*
X21918571Y29080000D01*
X22061428Y29127620D01*
X22156666Y29127620D01*
X22299523Y29080000D01*
X22347142Y29032381D01*
X23299523Y28127620D02*
X22728095Y28127620D01*
X23013809Y28127620D02*
X23013809Y29127620D01*
X22918571Y28984762D01*
X22823333Y28889524D01*
X22728095Y28841905D01*
X24251904Y28127620D02*
X23680476Y28127620D01*
X23966190Y28127620D02*
X23966190Y29127620D01*
X23870952Y28984762D01*
X23775714Y28889524D01*
X23680476Y28841905D01*
G04 #@! TO.C,C10*
X6447142Y28522858D02*
X6399523Y28475239D01*
X6256666Y28427620D01*
X6161428Y28427620D01*
X6018571Y28475239D01*
X5923333Y28570477D01*
X5875714Y28665715D01*
X5828095Y28856191D01*
X5828095Y28999048D01*
X5875714Y29189524D01*
X5923333Y29284762D01*
X6018571Y29380000D01*
X6161428Y29427620D01*
X6256666Y29427620D01*
X6399523Y29380000D01*
X6447142Y29332381D01*
X7399523Y28427620D02*
X6828095Y28427620D01*
X7113809Y28427620D02*
X7113809Y29427620D01*
X7018571Y29284762D01*
X6923333Y29189524D01*
X6828095Y29141905D01*
X8018571Y29427620D02*
X8113809Y29427620D01*
X8209047Y29380000D01*
X8256666Y29332381D01*
X8304285Y29237143D01*
X8351904Y29046667D01*
X8351904Y28808572D01*
X8304285Y28618096D01*
X8256666Y28522858D01*
X8209047Y28475239D01*
X8113809Y28427620D01*
X8018571Y28427620D01*
X7923333Y28475239D01*
X7875714Y28522858D01*
X7828095Y28618096D01*
X7780476Y28808572D01*
X7780476Y29046667D01*
X7828095Y29237143D01*
X7875714Y29332381D01*
X7923333Y29380000D01*
X8018571Y29427620D01*
G04 #@! TO.C,C9*
X12223333Y33522858D02*
X12175714Y33475239D01*
X12032857Y33427620D01*
X11937619Y33427620D01*
X11794761Y33475239D01*
X11699523Y33570477D01*
X11651904Y33665715D01*
X11604285Y33856191D01*
X11604285Y33999048D01*
X11651904Y34189524D01*
X11699523Y34284762D01*
X11794761Y34380000D01*
X11937619Y34427620D01*
X12032857Y34427620D01*
X12175714Y34380000D01*
X12223333Y34332381D01*
X12699523Y33427620D02*
X12890000Y33427620D01*
X12985238Y33475239D01*
X13032857Y33522858D01*
X13128095Y33665715D01*
X13175714Y33856191D01*
X13175714Y34237143D01*
X13128095Y34332381D01*
X13080476Y34380000D01*
X12985238Y34427620D01*
X12794761Y34427620D01*
X12699523Y34380000D01*
X12651904Y34332381D01*
X12604285Y34237143D01*
X12604285Y33999048D01*
X12651904Y33903810D01*
X12699523Y33856191D01*
X12794761Y33808572D01*
X12985238Y33808572D01*
X13080476Y33856191D01*
X13128095Y33903810D01*
X13175714Y33999048D01*
G04 #@! TO.C,C8*
X12223333Y18022858D02*
X12175714Y17975239D01*
X12032857Y17927620D01*
X11937619Y17927620D01*
X11794761Y17975239D01*
X11699523Y18070477D01*
X11651904Y18165715D01*
X11604285Y18356191D01*
X11604285Y18499048D01*
X11651904Y18689524D01*
X11699523Y18784762D01*
X11794761Y18880000D01*
X11937619Y18927620D01*
X12032857Y18927620D01*
X12175714Y18880000D01*
X12223333Y18832381D01*
X12794761Y18499048D02*
X12699523Y18546667D01*
X12651904Y18594286D01*
X12604285Y18689524D01*
X12604285Y18737143D01*
X12651904Y18832381D01*
X12699523Y18880000D01*
X12794761Y18927620D01*
X12985238Y18927620D01*
X13080476Y18880000D01*
X13128095Y18832381D01*
X13175714Y18737143D01*
X13175714Y18689524D01*
X13128095Y18594286D01*
X13080476Y18546667D01*
X12985238Y18499048D01*
X12794761Y18499048D01*
X12699523Y18451429D01*
X12651904Y18403810D01*
X12604285Y18308572D01*
X12604285Y18118096D01*
X12651904Y18022858D01*
X12699523Y17975239D01*
X12794761Y17927620D01*
X12985238Y17927620D01*
X13080476Y17975239D01*
X13128095Y18022858D01*
X13175714Y18118096D01*
X13175714Y18308572D01*
X13128095Y18403810D01*
X13080476Y18451429D01*
X12985238Y18499048D01*
G04 #@! TO.C,C7*
X12223333Y16222858D02*
X12175714Y16175239D01*
X12032857Y16127620D01*
X11937619Y16127620D01*
X11794761Y16175239D01*
X11699523Y16270477D01*
X11651904Y16365715D01*
X11604285Y16556191D01*
X11604285Y16699048D01*
X11651904Y16889524D01*
X11699523Y16984762D01*
X11794761Y17080000D01*
X11937619Y17127620D01*
X12032857Y17127620D01*
X12175714Y17080000D01*
X12223333Y17032381D01*
X12556666Y17127620D02*
X13223333Y17127620D01*
X12794761Y16127620D01*
G04 #@! TO.C,C6*
X10823333Y13122858D02*
X10775714Y13075239D01*
X10632857Y13027620D01*
X10537619Y13027620D01*
X10394761Y13075239D01*
X10299523Y13170477D01*
X10251904Y13265715D01*
X10204285Y13456191D01*
X10204285Y13599048D01*
X10251904Y13789524D01*
X10299523Y13884762D01*
X10394761Y13980000D01*
X10537619Y14027620D01*
X10632857Y14027620D01*
X10775714Y13980000D01*
X10823333Y13932381D01*
X11680476Y14027620D02*
X11490000Y14027620D01*
X11394761Y13980000D01*
X11347142Y13932381D01*
X11251904Y13789524D01*
X11204285Y13599048D01*
X11204285Y13218096D01*
X11251904Y13122858D01*
X11299523Y13075239D01*
X11394761Y13027620D01*
X11585238Y13027620D01*
X11680476Y13075239D01*
X11728095Y13122858D01*
X11775714Y13218096D01*
X11775714Y13456191D01*
X11728095Y13551429D01*
X11680476Y13599048D01*
X11585238Y13646667D01*
X11394761Y13646667D01*
X11299523Y13599048D01*
X11251904Y13551429D01*
X11204285Y13456191D01*
G04 #@! TO.C,C5*
X19823333Y13122858D02*
X19775714Y13075239D01*
X19632857Y13027620D01*
X19537619Y13027620D01*
X19394761Y13075239D01*
X19299523Y13170477D01*
X19251904Y13265715D01*
X19204285Y13456191D01*
X19204285Y13599048D01*
X19251904Y13789524D01*
X19299523Y13884762D01*
X19394761Y13980000D01*
X19537619Y14027620D01*
X19632857Y14027620D01*
X19775714Y13980000D01*
X19823333Y13932381D01*
X20728095Y14027620D02*
X20251904Y14027620D01*
X20204285Y13551429D01*
X20251904Y13599048D01*
X20347142Y13646667D01*
X20585238Y13646667D01*
X20680476Y13599048D01*
X20728095Y13551429D01*
X20775714Y13456191D01*
X20775714Y13218096D01*
X20728095Y13122858D01*
X20680476Y13075239D01*
X20585238Y13027620D01*
X20347142Y13027620D01*
X20251904Y13075239D01*
X20204285Y13122858D01*
G04 #@! TO.C,C4*
X19133333Y2042358D02*
X19085714Y1994739D01*
X18942857Y1947120D01*
X18847619Y1947120D01*
X18704761Y1994739D01*
X18609523Y2089977D01*
X18561904Y2185215D01*
X18514285Y2375691D01*
X18514285Y2518548D01*
X18561904Y2709024D01*
X18609523Y2804262D01*
X18704761Y2899500D01*
X18847619Y2947120D01*
X18942857Y2947120D01*
X19085714Y2899500D01*
X19133333Y2851881D01*
X19990476Y2613786D02*
X19990476Y1947120D01*
X19752380Y2994739D02*
X19514285Y2280453D01*
X20133333Y2280453D01*
G04 #@! TO.C,C3*
X24153333Y49172858D02*
X24105714Y49125239D01*
X23962857Y49077620D01*
X23867619Y49077620D01*
X23724761Y49125239D01*
X23629523Y49220477D01*
X23581904Y49315715D01*
X23534285Y49506191D01*
X23534285Y49649048D01*
X23581904Y49839524D01*
X23629523Y49934762D01*
X23724761Y50030000D01*
X23867619Y50077620D01*
X23962857Y50077620D01*
X24105714Y50030000D01*
X24153333Y49982381D01*
X24486666Y50077620D02*
X25105714Y50077620D01*
X24772380Y49696667D01*
X24915238Y49696667D01*
X25010476Y49649048D01*
X25058095Y49601429D01*
X25105714Y49506191D01*
X25105714Y49268096D01*
X25058095Y49172858D01*
X25010476Y49125239D01*
X24915238Y49077620D01*
X24629523Y49077620D01*
X24534285Y49125239D01*
X24486666Y49172858D01*
G04 #@! TO.C,C2*
X24153333Y47272858D02*
X24105714Y47225239D01*
X23962857Y47177620D01*
X23867619Y47177620D01*
X23724761Y47225239D01*
X23629523Y47320477D01*
X23581904Y47415715D01*
X23534285Y47606191D01*
X23534285Y47749048D01*
X23581904Y47939524D01*
X23629523Y48034762D01*
X23724761Y48130000D01*
X23867619Y48177620D01*
X23962857Y48177620D01*
X24105714Y48130000D01*
X24153333Y48082381D01*
X24534285Y48082381D02*
X24581904Y48130000D01*
X24677142Y48177620D01*
X24915238Y48177620D01*
X25010476Y48130000D01*
X25058095Y48082381D01*
X25105714Y47987143D01*
X25105714Y47891905D01*
X25058095Y47749048D01*
X24486666Y47177620D01*
X25105714Y47177620D01*
G04 #@! TO.C,C1*
X24153333Y43312858D02*
X24105714Y43265239D01*
X23962857Y43217620D01*
X23867619Y43217620D01*
X23724761Y43265239D01*
X23629523Y43360477D01*
X23581904Y43455715D01*
X23534285Y43646191D01*
X23534285Y43789048D01*
X23581904Y43979524D01*
X23629523Y44074762D01*
X23724761Y44170000D01*
X23867619Y44217620D01*
X23962857Y44217620D01*
X24105714Y44170000D01*
X24153333Y44122381D01*
X25105714Y43217620D02*
X24534285Y43217620D01*
X24820000Y43217620D02*
X24820000Y44217620D01*
X24724761Y44074762D01*
X24629523Y43979524D01*
X24534285Y43931905D01*
G04 #@! TD*
M02*
