M48
; DRILL file {KiCad 5.1.8+dfsg1-1~bpo10+1} date Mon Dec  7 14:22:30 2020
; FORMAT={-:-/ absolute / inch / decimal}
; #@! TF.CreationDate,2020-12-07T14:22:30+08:00
; #@! TF.GenerationSoftware,Kicad,Pcbnew,5.1.8+dfsg1-1~bpo10+1
; #@! TF.FileFunction,Plated,1,2,PTH
FMAT,2
INCH
T1C0.0157
T2C0.0236
T3C0.0394
%
G90
G05
T1
X0.4829Y0.7792
X0.5075Y0.9685
X0.539Y1.9774
X0.6254Y0.9685
X0.6316Y0.3106
X0.6417Y1.9774
X0.6594Y0.7997
X0.6777Y0.7354
X0.6916Y0.696
X0.7247Y0.5793
T3
X1.1299Y2.3898
X1.1299Y2.2898
X1.1299Y2.1898
X1.1299Y2.0898
X1.1299Y1.9898
X1.1299Y1.8898
X1.1299Y1.7898
X1.1299Y1.6898
X1.1299Y1.5898
X1.1299Y1.4898
X1.1299Y1.3898
X1.1299Y1.2898
X1.1299Y1.1898
X1.1299Y1.0898
X1.1299Y0.9898
X1.1299Y0.8898
X1.1299Y0.7898
X1.1299Y0.6898
X1.1299Y0.5898
X1.1299Y0.4898
X1.1299Y0.3898
X1.1299Y0.2898
X1.1299Y0.1898
X1.1299Y0.0898
X0.0866Y2.3898
X0.0866Y2.2898
X0.0866Y2.1898
X0.0866Y2.0898
X0.0866Y1.9898
X0.0866Y1.8898
X0.0866Y1.7898
X0.0866Y1.6898
X0.0866Y1.5898
X0.0866Y1.4898
X0.0866Y1.3898
X0.0866Y1.2898
X0.0866Y1.1898
X0.0866Y1.0898
X0.0866Y0.9898
X0.0866Y0.8898
X0.0866Y0.7898
X0.0866Y0.6898
X0.0866Y0.5898
X0.0866Y0.4898
X0.0866Y0.3898
X0.0866Y0.2898
X0.0866Y0.1898
X0.0866Y0.0898
T2
G00X0.4323Y2.415
M15
G01X0.4323Y2.3835
M16
G05
G00X0.4323Y2.2567
M15
G01X0.4323Y2.2134
M16
G05
G00X0.7724Y2.415
M15
G01X0.7724Y2.3835
M16
G05
G00X0.7724Y2.2567
M15
G01X0.7724Y2.2134
M16
G05
T0
M30
