G04 #@! TF.GenerationSoftware,KiCad,Pcbnew,5.1.8+dfsg1-1~bpo10+1*
G04 #@! TF.CreationDate,2020-12-26T22:42:37+08:00*
G04 #@! TF.ProjectId,stm32-io-extend,73746d33-322d-4696-9f2d-657874656e64,rev?*
G04 #@! TF.SameCoordinates,PX4cf27c8PY5b7b308*
G04 #@! TF.FileFunction,Legend,Top*
G04 #@! TF.FilePolarity,Positive*
%FSLAX46Y46*%
G04 Gerber Fmt 4.6, Leading zero omitted, Abs format (unit mm)*
G04 Created by KiCad (PCBNEW 5.1.8+dfsg1-1~bpo10+1) date 2020-12-26 22:42:37*
%MOMM*%
%LPD*%
G01*
G04 APERTURE LIST*
%ADD10C,0.120000*%
%ADD11C,0.150000*%
G04 APERTURE END LIST*
D10*
X3223571Y34476429D02*
X3326428Y34442143D01*
X3360714Y34407858D01*
X3395000Y34339286D01*
X3395000Y34236429D01*
X3360714Y34167858D01*
X3326428Y34133572D01*
X3257857Y34099286D01*
X2983571Y34099286D01*
X2983571Y34819286D01*
X3223571Y34819286D01*
X3292142Y34785000D01*
X3326428Y34750715D01*
X3360714Y34682143D01*
X3360714Y34613572D01*
X3326428Y34545000D01*
X3292142Y34510715D01*
X3223571Y34476429D01*
X2983571Y34476429D01*
X3737857Y34099286D02*
X3875000Y34099286D01*
X3943571Y34133572D01*
X3977857Y34167858D01*
X4046428Y34270715D01*
X4080714Y34407858D01*
X4080714Y34682143D01*
X4046428Y34750715D01*
X4012142Y34785000D01*
X3943571Y34819286D01*
X3806428Y34819286D01*
X3737857Y34785000D01*
X3703571Y34750715D01*
X3669285Y34682143D01*
X3669285Y34510715D01*
X3703571Y34442143D01*
X3737857Y34407858D01*
X3806428Y34373572D01*
X3943571Y34373572D01*
X4012142Y34407858D01*
X4046428Y34442143D01*
X4080714Y34510715D01*
X5763571Y34476429D02*
X5866428Y34442143D01*
X5900714Y34407858D01*
X5935000Y34339286D01*
X5935000Y34236429D01*
X5900714Y34167858D01*
X5866428Y34133572D01*
X5797857Y34099286D01*
X5523571Y34099286D01*
X5523571Y34819286D01*
X5763571Y34819286D01*
X5832142Y34785000D01*
X5866428Y34750715D01*
X5900714Y34682143D01*
X5900714Y34613572D01*
X5866428Y34545000D01*
X5832142Y34510715D01*
X5763571Y34476429D01*
X5523571Y34476429D01*
X6346428Y34510715D02*
X6277857Y34545000D01*
X6243571Y34579286D01*
X6209285Y34647858D01*
X6209285Y34682143D01*
X6243571Y34750715D01*
X6277857Y34785000D01*
X6346428Y34819286D01*
X6483571Y34819286D01*
X6552142Y34785000D01*
X6586428Y34750715D01*
X6620714Y34682143D01*
X6620714Y34647858D01*
X6586428Y34579286D01*
X6552142Y34545000D01*
X6483571Y34510715D01*
X6346428Y34510715D01*
X6277857Y34476429D01*
X6243571Y34442143D01*
X6209285Y34373572D01*
X6209285Y34236429D01*
X6243571Y34167858D01*
X6277857Y34133572D01*
X6346428Y34099286D01*
X6483571Y34099286D01*
X6552142Y34133572D01*
X6586428Y34167858D01*
X6620714Y34236429D01*
X6620714Y34373572D01*
X6586428Y34442143D01*
X6552142Y34476429D01*
X6483571Y34510715D01*
X8303571Y34476429D02*
X8406428Y34442143D01*
X8440714Y34407858D01*
X8475000Y34339286D01*
X8475000Y34236429D01*
X8440714Y34167858D01*
X8406428Y34133572D01*
X8337857Y34099286D01*
X8063571Y34099286D01*
X8063571Y34819286D01*
X8303571Y34819286D01*
X8372142Y34785000D01*
X8406428Y34750715D01*
X8440714Y34682143D01*
X8440714Y34613572D01*
X8406428Y34545000D01*
X8372142Y34510715D01*
X8303571Y34476429D01*
X8063571Y34476429D01*
X8715000Y34819286D02*
X9195000Y34819286D01*
X8886428Y34099286D01*
X10843571Y34476429D02*
X10946428Y34442143D01*
X10980714Y34407858D01*
X11015000Y34339286D01*
X11015000Y34236429D01*
X10980714Y34167858D01*
X10946428Y34133572D01*
X10877857Y34099286D01*
X10603571Y34099286D01*
X10603571Y34819286D01*
X10843571Y34819286D01*
X10912142Y34785000D01*
X10946428Y34750715D01*
X10980714Y34682143D01*
X10980714Y34613572D01*
X10946428Y34545000D01*
X10912142Y34510715D01*
X10843571Y34476429D01*
X10603571Y34476429D01*
X11632142Y34819286D02*
X11495000Y34819286D01*
X11426428Y34785000D01*
X11392142Y34750715D01*
X11323571Y34647858D01*
X11289285Y34510715D01*
X11289285Y34236429D01*
X11323571Y34167858D01*
X11357857Y34133572D01*
X11426428Y34099286D01*
X11563571Y34099286D01*
X11632142Y34133572D01*
X11666428Y34167858D01*
X11700714Y34236429D01*
X11700714Y34407858D01*
X11666428Y34476429D01*
X11632142Y34510715D01*
X11563571Y34545000D01*
X11426428Y34545000D01*
X11357857Y34510715D01*
X11323571Y34476429D01*
X11289285Y34407858D01*
X13383571Y34476429D02*
X13486428Y34442143D01*
X13520714Y34407858D01*
X13555000Y34339286D01*
X13555000Y34236429D01*
X13520714Y34167858D01*
X13486428Y34133572D01*
X13417857Y34099286D01*
X13143571Y34099286D01*
X13143571Y34819286D01*
X13383571Y34819286D01*
X13452142Y34785000D01*
X13486428Y34750715D01*
X13520714Y34682143D01*
X13520714Y34613572D01*
X13486428Y34545000D01*
X13452142Y34510715D01*
X13383571Y34476429D01*
X13143571Y34476429D01*
X14206428Y34819286D02*
X13863571Y34819286D01*
X13829285Y34476429D01*
X13863571Y34510715D01*
X13932142Y34545000D01*
X14103571Y34545000D01*
X14172142Y34510715D01*
X14206428Y34476429D01*
X14240714Y34407858D01*
X14240714Y34236429D01*
X14206428Y34167858D01*
X14172142Y34133572D01*
X14103571Y34099286D01*
X13932142Y34099286D01*
X13863571Y34133572D01*
X13829285Y34167858D01*
X15923571Y34476429D02*
X16026428Y34442143D01*
X16060714Y34407858D01*
X16095000Y34339286D01*
X16095000Y34236429D01*
X16060714Y34167858D01*
X16026428Y34133572D01*
X15957857Y34099286D01*
X15683571Y34099286D01*
X15683571Y34819286D01*
X15923571Y34819286D01*
X15992142Y34785000D01*
X16026428Y34750715D01*
X16060714Y34682143D01*
X16060714Y34613572D01*
X16026428Y34545000D01*
X15992142Y34510715D01*
X15923571Y34476429D01*
X15683571Y34476429D01*
X16712142Y34579286D02*
X16712142Y34099286D01*
X16540714Y34853572D02*
X16369285Y34339286D01*
X16815000Y34339286D01*
X18463571Y34476429D02*
X18566428Y34442143D01*
X18600714Y34407858D01*
X18635000Y34339286D01*
X18635000Y34236429D01*
X18600714Y34167858D01*
X18566428Y34133572D01*
X18497857Y34099286D01*
X18223571Y34099286D01*
X18223571Y34819286D01*
X18463571Y34819286D01*
X18532142Y34785000D01*
X18566428Y34750715D01*
X18600714Y34682143D01*
X18600714Y34613572D01*
X18566428Y34545000D01*
X18532142Y34510715D01*
X18463571Y34476429D01*
X18223571Y34476429D01*
X18875000Y34819286D02*
X19320714Y34819286D01*
X19080714Y34545000D01*
X19183571Y34545000D01*
X19252142Y34510715D01*
X19286428Y34476429D01*
X19320714Y34407858D01*
X19320714Y34236429D01*
X19286428Y34167858D01*
X19252142Y34133572D01*
X19183571Y34099286D01*
X18977857Y34099286D01*
X18909285Y34133572D01*
X18875000Y34167858D01*
X20437857Y34305000D02*
X20780714Y34305000D01*
X20369285Y34099286D02*
X20609285Y34819286D01*
X20849285Y34099286D01*
X21466428Y34099286D02*
X21055000Y34099286D01*
X21260714Y34099286D02*
X21260714Y34819286D01*
X21192142Y34716429D01*
X21123571Y34647858D01*
X21055000Y34613572D01*
X22117857Y34819286D02*
X21775000Y34819286D01*
X21740714Y34476429D01*
X21775000Y34510715D01*
X21843571Y34545000D01*
X22015000Y34545000D01*
X22083571Y34510715D01*
X22117857Y34476429D01*
X22152142Y34407858D01*
X22152142Y34236429D01*
X22117857Y34167858D01*
X22083571Y34133572D01*
X22015000Y34099286D01*
X21843571Y34099286D01*
X21775000Y34133572D01*
X21740714Y34167858D01*
X22977857Y34305000D02*
X23320714Y34305000D01*
X22909285Y34099286D02*
X23149285Y34819286D01*
X23389285Y34099286D01*
X24006428Y34099286D02*
X23595000Y34099286D01*
X23800714Y34099286D02*
X23800714Y34819286D01*
X23732142Y34716429D01*
X23663571Y34647858D01*
X23595000Y34613572D01*
X24623571Y34579286D02*
X24623571Y34099286D01*
X24452142Y34853572D02*
X24280714Y34339286D01*
X24726428Y34339286D01*
X25517857Y34305000D02*
X25860714Y34305000D01*
X25449285Y34099286D02*
X25689285Y34819286D01*
X25929285Y34099286D01*
X26546428Y34099286D02*
X26135000Y34099286D01*
X26340714Y34099286D02*
X26340714Y34819286D01*
X26272142Y34716429D01*
X26203571Y34647858D01*
X26135000Y34613572D01*
X26786428Y34819286D02*
X27232142Y34819286D01*
X26992142Y34545000D01*
X27095000Y34545000D01*
X27163571Y34510715D01*
X27197857Y34476429D01*
X27232142Y34407858D01*
X27232142Y34236429D01*
X27197857Y34167858D01*
X27163571Y34133572D01*
X27095000Y34099286D01*
X26889285Y34099286D01*
X26820714Y34133572D01*
X26786428Y34167858D01*
X28057857Y34305000D02*
X28400714Y34305000D01*
X27989285Y34099286D02*
X28229285Y34819286D01*
X28469285Y34099286D01*
X29086428Y34099286D02*
X28675000Y34099286D01*
X28880714Y34099286D02*
X28880714Y34819286D01*
X28812142Y34716429D01*
X28743571Y34647858D01*
X28675000Y34613572D01*
X29360714Y34750715D02*
X29395000Y34785000D01*
X29463571Y34819286D01*
X29635000Y34819286D01*
X29703571Y34785000D01*
X29737857Y34750715D01*
X29772142Y34682143D01*
X29772142Y34613572D01*
X29737857Y34510715D01*
X29326428Y34099286D01*
X29772142Y34099286D01*
X30597857Y34305000D02*
X30940714Y34305000D01*
X30529285Y34099286D02*
X30769285Y34819286D01*
X31009285Y34099286D01*
X31626428Y34099286D02*
X31215000Y34099286D01*
X31420714Y34099286D02*
X31420714Y34819286D01*
X31352142Y34716429D01*
X31283571Y34647858D01*
X31215000Y34613572D01*
X32312142Y34099286D02*
X31900714Y34099286D01*
X32106428Y34099286D02*
X32106428Y34819286D01*
X32037857Y34716429D01*
X31969285Y34647858D01*
X31900714Y34613572D01*
X33137857Y34305000D02*
X33480714Y34305000D01*
X33069285Y34099286D02*
X33309285Y34819286D01*
X33549285Y34099286D01*
X34166428Y34099286D02*
X33755000Y34099286D01*
X33960714Y34099286D02*
X33960714Y34819286D01*
X33892142Y34716429D01*
X33823571Y34647858D01*
X33755000Y34613572D01*
X34612142Y34819286D02*
X34680714Y34819286D01*
X34749285Y34785000D01*
X34783571Y34750715D01*
X34817857Y34682143D01*
X34852142Y34545000D01*
X34852142Y34373572D01*
X34817857Y34236429D01*
X34783571Y34167858D01*
X34749285Y34133572D01*
X34680714Y34099286D01*
X34612142Y34099286D01*
X34543571Y34133572D01*
X34509285Y34167858D01*
X34475000Y34236429D01*
X34440714Y34373572D01*
X34440714Y34545000D01*
X34475000Y34682143D01*
X34509285Y34750715D01*
X34543571Y34785000D01*
X34612142Y34819286D01*
X36020714Y34305000D02*
X36363571Y34305000D01*
X35952142Y34099286D02*
X36192142Y34819286D01*
X36432142Y34099286D01*
X36706428Y34099286D02*
X36843571Y34099286D01*
X36912142Y34133572D01*
X36946428Y34167858D01*
X37015000Y34270715D01*
X37049285Y34407858D01*
X37049285Y34682143D01*
X37015000Y34750715D01*
X36980714Y34785000D01*
X36912142Y34819286D01*
X36775000Y34819286D01*
X36706428Y34785000D01*
X36672142Y34750715D01*
X36637857Y34682143D01*
X36637857Y34510715D01*
X36672142Y34442143D01*
X36706428Y34407858D01*
X36775000Y34373572D01*
X36912142Y34373572D01*
X36980714Y34407858D01*
X37015000Y34442143D01*
X37049285Y34510715D01*
X38560714Y34305000D02*
X38903571Y34305000D01*
X38492142Y34099286D02*
X38732142Y34819286D01*
X38972142Y34099286D01*
X39315000Y34510715D02*
X39246428Y34545000D01*
X39212142Y34579286D01*
X39177857Y34647858D01*
X39177857Y34682143D01*
X39212142Y34750715D01*
X39246428Y34785000D01*
X39315000Y34819286D01*
X39452142Y34819286D01*
X39520714Y34785000D01*
X39555000Y34750715D01*
X39589285Y34682143D01*
X39589285Y34647858D01*
X39555000Y34579286D01*
X39520714Y34545000D01*
X39452142Y34510715D01*
X39315000Y34510715D01*
X39246428Y34476429D01*
X39212142Y34442143D01*
X39177857Y34373572D01*
X39177857Y34236429D01*
X39212142Y34167858D01*
X39246428Y34133572D01*
X39315000Y34099286D01*
X39452142Y34099286D01*
X39520714Y34133572D01*
X39555000Y34167858D01*
X39589285Y34236429D01*
X39589285Y34373572D01*
X39555000Y34442143D01*
X39520714Y34476429D01*
X39452142Y34510715D01*
X40980714Y34476429D02*
X41083571Y34442143D01*
X41117857Y34407858D01*
X41152142Y34339286D01*
X41152142Y34236429D01*
X41117857Y34167858D01*
X41083571Y34133572D01*
X41015000Y34099286D01*
X40740714Y34099286D01*
X40740714Y34819286D01*
X40980714Y34819286D01*
X41049285Y34785000D01*
X41083571Y34750715D01*
X41117857Y34682143D01*
X41117857Y34613572D01*
X41083571Y34545000D01*
X41049285Y34510715D01*
X40980714Y34476429D01*
X40740714Y34476429D01*
X41837857Y34099286D02*
X41426428Y34099286D01*
X41632142Y34099286D02*
X41632142Y34819286D01*
X41563571Y34716429D01*
X41495000Y34647858D01*
X41426428Y34613572D01*
X42489285Y34819286D02*
X42146428Y34819286D01*
X42112142Y34476429D01*
X42146428Y34510715D01*
X42215000Y34545000D01*
X42386428Y34545000D01*
X42455000Y34510715D01*
X42489285Y34476429D01*
X42523571Y34407858D01*
X42523571Y34236429D01*
X42489285Y34167858D01*
X42455000Y34133572D01*
X42386428Y34099286D01*
X42215000Y34099286D01*
X42146428Y34133572D01*
X42112142Y34167858D01*
X43520714Y34476429D02*
X43623571Y34442143D01*
X43657857Y34407858D01*
X43692142Y34339286D01*
X43692142Y34236429D01*
X43657857Y34167858D01*
X43623571Y34133572D01*
X43555000Y34099286D01*
X43280714Y34099286D01*
X43280714Y34819286D01*
X43520714Y34819286D01*
X43589285Y34785000D01*
X43623571Y34750715D01*
X43657857Y34682143D01*
X43657857Y34613572D01*
X43623571Y34545000D01*
X43589285Y34510715D01*
X43520714Y34476429D01*
X43280714Y34476429D01*
X44377857Y34099286D02*
X43966428Y34099286D01*
X44172142Y34099286D02*
X44172142Y34819286D01*
X44103571Y34716429D01*
X44035000Y34647858D01*
X43966428Y34613572D01*
X44995000Y34579286D02*
X44995000Y34099286D01*
X44823571Y34853572D02*
X44652142Y34339286D01*
X45097857Y34339286D01*
X46060714Y34476429D02*
X46163571Y34442143D01*
X46197857Y34407858D01*
X46232142Y34339286D01*
X46232142Y34236429D01*
X46197857Y34167858D01*
X46163571Y34133572D01*
X46095000Y34099286D01*
X45820714Y34099286D01*
X45820714Y34819286D01*
X46060714Y34819286D01*
X46129285Y34785000D01*
X46163571Y34750715D01*
X46197857Y34682143D01*
X46197857Y34613572D01*
X46163571Y34545000D01*
X46129285Y34510715D01*
X46060714Y34476429D01*
X45820714Y34476429D01*
X46917857Y34099286D02*
X46506428Y34099286D01*
X46712142Y34099286D02*
X46712142Y34819286D01*
X46643571Y34716429D01*
X46575000Y34647858D01*
X46506428Y34613572D01*
X47157857Y34819286D02*
X47603571Y34819286D01*
X47363571Y34545000D01*
X47466428Y34545000D01*
X47535000Y34510715D01*
X47569285Y34476429D01*
X47603571Y34407858D01*
X47603571Y34236429D01*
X47569285Y34167858D01*
X47535000Y34133572D01*
X47466428Y34099286D01*
X47260714Y34099286D01*
X47192142Y34133572D01*
X47157857Y34167858D01*
X48600714Y34476429D02*
X48703571Y34442143D01*
X48737857Y34407858D01*
X48772142Y34339286D01*
X48772142Y34236429D01*
X48737857Y34167858D01*
X48703571Y34133572D01*
X48635000Y34099286D01*
X48360714Y34099286D01*
X48360714Y34819286D01*
X48600714Y34819286D01*
X48669285Y34785000D01*
X48703571Y34750715D01*
X48737857Y34682143D01*
X48737857Y34613572D01*
X48703571Y34545000D01*
X48669285Y34510715D01*
X48600714Y34476429D01*
X48360714Y34476429D01*
X49457857Y34099286D02*
X49046428Y34099286D01*
X49252142Y34099286D02*
X49252142Y34819286D01*
X49183571Y34716429D01*
X49115000Y34647858D01*
X49046428Y34613572D01*
X49732142Y34750715D02*
X49766428Y34785000D01*
X49835000Y34819286D01*
X50006428Y34819286D01*
X50075000Y34785000D01*
X50109285Y34750715D01*
X50143571Y34682143D01*
X50143571Y34613572D01*
X50109285Y34510715D01*
X49697857Y34099286D01*
X50143571Y34099286D01*
X53766428Y34785000D02*
X53697857Y34819286D01*
X53595000Y34819286D01*
X53492142Y34785000D01*
X53423571Y34716429D01*
X53389285Y34647858D01*
X53355000Y34510715D01*
X53355000Y34407858D01*
X53389285Y34270715D01*
X53423571Y34202143D01*
X53492142Y34133572D01*
X53595000Y34099286D01*
X53663571Y34099286D01*
X53766428Y34133572D01*
X53800714Y34167858D01*
X53800714Y34407858D01*
X53663571Y34407858D01*
X54109285Y34099286D02*
X54109285Y34819286D01*
X54520714Y34099286D01*
X54520714Y34819286D01*
X54863571Y34099286D02*
X54863571Y34819286D01*
X55035000Y34819286D01*
X55137857Y34785000D01*
X55206428Y34716429D01*
X55240714Y34647858D01*
X55275000Y34510715D01*
X55275000Y34407858D01*
X55240714Y34270715D01*
X55206428Y34202143D01*
X55137857Y34133572D01*
X55035000Y34099286D01*
X54863571Y34099286D01*
X50815000Y34819286D02*
X51055000Y34099286D01*
X51295000Y34819286D01*
X51946428Y34167858D02*
X51912142Y34133572D01*
X51809285Y34099286D01*
X51740714Y34099286D01*
X51637857Y34133572D01*
X51569285Y34202143D01*
X51535000Y34270715D01*
X51500714Y34407858D01*
X51500714Y34510715D01*
X51535000Y34647858D01*
X51569285Y34716429D01*
X51637857Y34785000D01*
X51740714Y34819286D01*
X51809285Y34819286D01*
X51912142Y34785000D01*
X51946428Y34750715D01*
X52666428Y34167858D02*
X52632142Y34133572D01*
X52529285Y34099286D01*
X52460714Y34099286D01*
X52357857Y34133572D01*
X52289285Y34202143D01*
X52255000Y34270715D01*
X52220714Y34407858D01*
X52220714Y34510715D01*
X52255000Y34647858D01*
X52289285Y34716429D01*
X52357857Y34785000D01*
X52460714Y34819286D01*
X52529285Y34819286D01*
X52632142Y34785000D01*
X52666428Y34750715D01*
X56330085Y34397772D02*
X56378573Y34300798D01*
X56499791Y34179579D01*
X56572522Y34155336D01*
X56621009Y34155336D01*
X56693740Y34179579D01*
X56742228Y34228067D01*
X56766471Y34300798D01*
X56766471Y34349285D01*
X56742228Y34422016D01*
X56669497Y34543234D01*
X56645253Y34615965D01*
X56645253Y34664453D01*
X56669497Y34737184D01*
X56717984Y34785671D01*
X56790715Y34809915D01*
X56839202Y34809915D01*
X56911933Y34785671D01*
X57033152Y34664453D01*
X57081639Y34567478D01*
X57275588Y34422016D02*
X56887690Y33791681D01*
X57348319Y34058361D01*
X57081639Y33597731D01*
X57711974Y33985630D01*
X57396807Y33282564D02*
X57905923Y33791681D01*
X58027142Y33670462D01*
X58075629Y33573488D01*
X58075629Y33476513D01*
X58051385Y33403782D01*
X57978654Y33282564D01*
X57905923Y33209833D01*
X57784705Y33137102D01*
X57711974Y33112858D01*
X57615000Y33112858D01*
X57518025Y33161346D01*
X57396807Y33282564D01*
X57905923Y32773447D02*
X58415040Y33282564D01*
X58754452Y32943153D02*
X58851426Y32846178D01*
X58875670Y32773447D01*
X58875670Y32676472D01*
X58802939Y32555254D01*
X58633233Y32385548D01*
X58512015Y32312817D01*
X58415040Y32312817D01*
X58342309Y32337061D01*
X58245335Y32434036D01*
X58221091Y32506767D01*
X58221091Y32603741D01*
X58293822Y32724960D01*
X58463528Y32894665D01*
X58584746Y32967396D01*
X58681721Y32967396D01*
X58754452Y32943153D01*
X58928867Y34388991D02*
X58977354Y34292016D01*
X59098573Y34170798D01*
X59171304Y34146554D01*
X59219791Y34146554D01*
X59292522Y34170798D01*
X59341009Y34219285D01*
X59365253Y34292016D01*
X59365253Y34340503D01*
X59341009Y34413234D01*
X59268278Y34534453D01*
X59244035Y34607184D01*
X59244035Y34655671D01*
X59268278Y34728402D01*
X59316766Y34776889D01*
X59389497Y34801133D01*
X59437984Y34801133D01*
X59510715Y34776889D01*
X59631933Y34655671D01*
X59680421Y34558696D01*
X59874370Y34413234D02*
X59486471Y33782899D01*
X59947101Y34049579D01*
X59680421Y33588950D01*
X60310756Y33976848D01*
X59995588Y33273782D02*
X60504705Y33782899D01*
X60625923Y33661681D01*
X60674411Y33564706D01*
X60674411Y33467731D01*
X60650167Y33395000D01*
X60577436Y33273782D01*
X60504705Y33201051D01*
X60383487Y33128320D01*
X60310756Y33104077D01*
X60213781Y33104077D01*
X60116807Y33152564D01*
X59995588Y33273782D01*
X60844116Y32522229D02*
X60795629Y32522229D01*
X60698654Y32570716D01*
X60650167Y32619203D01*
X60601680Y32716178D01*
X60601680Y32813153D01*
X60625923Y32885884D01*
X60698654Y33007102D01*
X60771385Y33079833D01*
X60892604Y33152564D01*
X60965335Y33176808D01*
X61062309Y33176808D01*
X61159284Y33128320D01*
X61207771Y33079833D01*
X61256259Y32982858D01*
X61256259Y32934371D01*
X61013822Y32255548D02*
X61522939Y32764665D01*
X61304746Y31964624D02*
X61377477Y32473741D01*
X61813863Y32473741D02*
X61232015Y32473741D01*
X63909285Y34476429D02*
X64012142Y34442143D01*
X64046428Y34407858D01*
X64080714Y34339286D01*
X64080714Y34236429D01*
X64046428Y34167858D01*
X64012142Y34133572D01*
X63943571Y34099286D01*
X63669285Y34099286D01*
X63669285Y34819286D01*
X63909285Y34819286D01*
X63977857Y34785000D01*
X64012142Y34750715D01*
X64046428Y34682143D01*
X64046428Y34613572D01*
X64012142Y34545000D01*
X63977857Y34510715D01*
X63909285Y34476429D01*
X63669285Y34476429D01*
X64286428Y34819286D02*
X64697857Y34819286D01*
X64492142Y34099286D02*
X64492142Y34819286D01*
X65075000Y34819286D02*
X65143571Y34819286D01*
X65212142Y34785000D01*
X65246428Y34750715D01*
X65280714Y34682143D01*
X65315000Y34545000D01*
X65315000Y34373572D01*
X65280714Y34236429D01*
X65246428Y34167858D01*
X65212142Y34133572D01*
X65143571Y34099286D01*
X65075000Y34099286D01*
X65006428Y34133572D01*
X64972142Y34167858D01*
X64937857Y34236429D01*
X64903571Y34373572D01*
X64903571Y34545000D01*
X64937857Y34682143D01*
X64972142Y34750715D01*
X65006428Y34785000D01*
X65075000Y34819286D01*
X60975000Y34819286D02*
X61215000Y34099286D01*
X61455000Y34819286D01*
X62106428Y34167858D02*
X62072142Y34133572D01*
X61969285Y34099286D01*
X61900714Y34099286D01*
X61797857Y34133572D01*
X61729285Y34202143D01*
X61695000Y34270715D01*
X61660714Y34407858D01*
X61660714Y34510715D01*
X61695000Y34647858D01*
X61729285Y34716429D01*
X61797857Y34785000D01*
X61900714Y34819286D01*
X61969285Y34819286D01*
X62072142Y34785000D01*
X62106428Y34750715D01*
X62826428Y34167858D02*
X62792142Y34133572D01*
X62689285Y34099286D01*
X62620714Y34099286D01*
X62517857Y34133572D01*
X62449285Y34202143D01*
X62415000Y34270715D01*
X62380714Y34407858D01*
X62380714Y34510715D01*
X62415000Y34647858D01*
X62449285Y34716429D01*
X62517857Y34785000D01*
X62620714Y34819286D01*
X62689285Y34819286D01*
X62792142Y34785000D01*
X62826428Y34750715D01*
X63909285Y5676429D02*
X64012142Y5642143D01*
X64046428Y5607858D01*
X64080714Y5539286D01*
X64080714Y5436429D01*
X64046428Y5367858D01*
X64012142Y5333572D01*
X63943571Y5299286D01*
X63669285Y5299286D01*
X63669285Y6019286D01*
X63909285Y6019286D01*
X63977857Y5985000D01*
X64012142Y5950715D01*
X64046428Y5882143D01*
X64046428Y5813572D01*
X64012142Y5745000D01*
X63977857Y5710715D01*
X63909285Y5676429D01*
X63669285Y5676429D01*
X64286428Y6019286D02*
X64697857Y6019286D01*
X64492142Y5299286D02*
X64492142Y6019286D01*
X65315000Y5299286D02*
X64903571Y5299286D01*
X65109285Y5299286D02*
X65109285Y6019286D01*
X65040714Y5916429D01*
X64972142Y5847858D01*
X64903571Y5813572D01*
X60975000Y5919286D02*
X61215000Y5199286D01*
X61455000Y5919286D01*
X62106428Y5267858D02*
X62072142Y5233572D01*
X61969285Y5199286D01*
X61900714Y5199286D01*
X61797857Y5233572D01*
X61729285Y5302143D01*
X61695000Y5370715D01*
X61660714Y5507858D01*
X61660714Y5610715D01*
X61695000Y5747858D01*
X61729285Y5816429D01*
X61797857Y5885000D01*
X61900714Y5919286D01*
X61969285Y5919286D01*
X62072142Y5885000D01*
X62106428Y5850715D01*
X62826428Y5267858D02*
X62792142Y5233572D01*
X62689285Y5199286D01*
X62620714Y5199286D01*
X62517857Y5233572D01*
X62449285Y5302143D01*
X62415000Y5370715D01*
X62380714Y5507858D01*
X62380714Y5610715D01*
X62415000Y5747858D01*
X62449285Y5816429D01*
X62517857Y5885000D01*
X62620714Y5919286D01*
X62689285Y5919286D01*
X62792142Y5885000D01*
X62826428Y5850715D01*
X58486428Y5919286D02*
X58897857Y5919286D01*
X58692142Y5199286D02*
X58692142Y5919286D01*
X59069285Y5919286D02*
X59549285Y5199286D01*
X59549285Y5919286D02*
X59069285Y5199286D01*
X59823571Y5199286D02*
X59823571Y5919286D01*
X59995000Y5919286D01*
X60097857Y5885000D01*
X60166428Y5816429D01*
X60200714Y5747858D01*
X60235000Y5610715D01*
X60235000Y5507858D01*
X60200714Y5370715D01*
X60166428Y5302143D01*
X60097857Y5233572D01*
X59995000Y5199286D01*
X59823571Y5199286D01*
X56375000Y5199286D02*
X56135000Y5542143D01*
X55963571Y5199286D02*
X55963571Y5919286D01*
X56237857Y5919286D01*
X56306428Y5885000D01*
X56340714Y5850715D01*
X56375000Y5782143D01*
X56375000Y5679286D01*
X56340714Y5610715D01*
X56306428Y5576429D01*
X56237857Y5542143D01*
X55963571Y5542143D01*
X56615000Y5919286D02*
X57095000Y5199286D01*
X57095000Y5919286D02*
X56615000Y5199286D01*
X57369285Y5199286D02*
X57369285Y5919286D01*
X57540714Y5919286D01*
X57643571Y5885000D01*
X57712142Y5816429D01*
X57746428Y5747858D01*
X57780714Y5610715D01*
X57780714Y5507858D01*
X57746428Y5370715D01*
X57712142Y5302143D01*
X57643571Y5233572D01*
X57540714Y5199286D01*
X57369285Y5199286D01*
X53766428Y5885000D02*
X53697857Y5919286D01*
X53595000Y5919286D01*
X53492142Y5885000D01*
X53423571Y5816429D01*
X53389285Y5747858D01*
X53355000Y5610715D01*
X53355000Y5507858D01*
X53389285Y5370715D01*
X53423571Y5302143D01*
X53492142Y5233572D01*
X53595000Y5199286D01*
X53663571Y5199286D01*
X53766428Y5233572D01*
X53800714Y5267858D01*
X53800714Y5507858D01*
X53663571Y5507858D01*
X54109285Y5199286D02*
X54109285Y5919286D01*
X54520714Y5199286D01*
X54520714Y5919286D01*
X54863571Y5199286D02*
X54863571Y5919286D01*
X55035000Y5919286D01*
X55137857Y5885000D01*
X55206428Y5816429D01*
X55240714Y5747858D01*
X55275000Y5610715D01*
X55275000Y5507858D01*
X55240714Y5370715D01*
X55206428Y5302143D01*
X55137857Y5233572D01*
X55035000Y5199286D01*
X54863571Y5199286D01*
X51106428Y5919286D02*
X51277857Y5199286D01*
X51415000Y5713572D01*
X51552142Y5199286D01*
X51723571Y5919286D01*
X51997857Y5199286D02*
X51997857Y5919286D01*
X52272142Y5919286D01*
X52340714Y5885000D01*
X52375000Y5850715D01*
X52409285Y5782143D01*
X52409285Y5679286D01*
X52375000Y5610715D01*
X52340714Y5576429D01*
X52272142Y5542143D01*
X51997857Y5542143D01*
X48275000Y5919286D02*
X48515000Y5199286D01*
X48755000Y5919286D01*
X49406428Y5267858D02*
X49372142Y5233572D01*
X49269285Y5199286D01*
X49200714Y5199286D01*
X49097857Y5233572D01*
X49029285Y5302143D01*
X48995000Y5370715D01*
X48960714Y5507858D01*
X48960714Y5610715D01*
X48995000Y5747858D01*
X49029285Y5816429D01*
X49097857Y5885000D01*
X49200714Y5919286D01*
X49269285Y5919286D01*
X49372142Y5885000D01*
X49406428Y5850715D01*
X50126428Y5267858D02*
X50092142Y5233572D01*
X49989285Y5199286D01*
X49920714Y5199286D01*
X49817857Y5233572D01*
X49749285Y5302143D01*
X49715000Y5370715D01*
X49680714Y5507858D01*
X49680714Y5610715D01*
X49715000Y5747858D01*
X49749285Y5816429D01*
X49817857Y5885000D01*
X49920714Y5919286D01*
X49989285Y5919286D01*
X50092142Y5885000D01*
X50126428Y5850715D01*
X46060714Y5576429D02*
X46163571Y5542143D01*
X46197857Y5507858D01*
X46232142Y5439286D01*
X46232142Y5336429D01*
X46197857Y5267858D01*
X46163571Y5233572D01*
X46095000Y5199286D01*
X45820714Y5199286D01*
X45820714Y5919286D01*
X46060714Y5919286D01*
X46129285Y5885000D01*
X46163571Y5850715D01*
X46197857Y5782143D01*
X46197857Y5713572D01*
X46163571Y5645000D01*
X46129285Y5610715D01*
X46060714Y5576429D01*
X45820714Y5576429D01*
X46917857Y5199286D02*
X46506428Y5199286D01*
X46712142Y5199286D02*
X46712142Y5919286D01*
X46643571Y5816429D01*
X46575000Y5747858D01*
X46506428Y5713572D01*
X47603571Y5199286D02*
X47192142Y5199286D01*
X47397857Y5199286D02*
X47397857Y5919286D01*
X47329285Y5816429D01*
X47260714Y5747858D01*
X47192142Y5713572D01*
X43520714Y5576429D02*
X43623571Y5542143D01*
X43657857Y5507858D01*
X43692142Y5439286D01*
X43692142Y5336429D01*
X43657857Y5267858D01*
X43623571Y5233572D01*
X43555000Y5199286D01*
X43280714Y5199286D01*
X43280714Y5919286D01*
X43520714Y5919286D01*
X43589285Y5885000D01*
X43623571Y5850715D01*
X43657857Y5782143D01*
X43657857Y5713572D01*
X43623571Y5645000D01*
X43589285Y5610715D01*
X43520714Y5576429D01*
X43280714Y5576429D01*
X44377857Y5199286D02*
X43966428Y5199286D01*
X44172142Y5199286D02*
X44172142Y5919286D01*
X44103571Y5816429D01*
X44035000Y5747858D01*
X43966428Y5713572D01*
X44823571Y5919286D02*
X44892142Y5919286D01*
X44960714Y5885000D01*
X44995000Y5850715D01*
X45029285Y5782143D01*
X45063571Y5645000D01*
X45063571Y5473572D01*
X45029285Y5336429D01*
X44995000Y5267858D01*
X44960714Y5233572D01*
X44892142Y5199286D01*
X44823571Y5199286D01*
X44755000Y5233572D01*
X44720714Y5267858D01*
X44686428Y5336429D01*
X44652142Y5473572D01*
X44652142Y5645000D01*
X44686428Y5782143D01*
X44720714Y5850715D01*
X44755000Y5885000D01*
X44823571Y5919286D01*
X41323571Y5576429D02*
X41426428Y5542143D01*
X41460714Y5507858D01*
X41495000Y5439286D01*
X41495000Y5336429D01*
X41460714Y5267858D01*
X41426428Y5233572D01*
X41357857Y5199286D01*
X41083571Y5199286D01*
X41083571Y5919286D01*
X41323571Y5919286D01*
X41392142Y5885000D01*
X41426428Y5850715D01*
X41460714Y5782143D01*
X41460714Y5713572D01*
X41426428Y5645000D01*
X41392142Y5610715D01*
X41323571Y5576429D01*
X41083571Y5576429D01*
X41769285Y5850715D02*
X41803571Y5885000D01*
X41872142Y5919286D01*
X42043571Y5919286D01*
X42112142Y5885000D01*
X42146428Y5850715D01*
X42180714Y5782143D01*
X42180714Y5713572D01*
X42146428Y5610715D01*
X41735000Y5199286D01*
X42180714Y5199286D01*
X38783571Y5576429D02*
X38886428Y5542143D01*
X38920714Y5507858D01*
X38955000Y5439286D01*
X38955000Y5336429D01*
X38920714Y5267858D01*
X38886428Y5233572D01*
X38817857Y5199286D01*
X38543571Y5199286D01*
X38543571Y5919286D01*
X38783571Y5919286D01*
X38852142Y5885000D01*
X38886428Y5850715D01*
X38920714Y5782143D01*
X38920714Y5713572D01*
X38886428Y5645000D01*
X38852142Y5610715D01*
X38783571Y5576429D01*
X38543571Y5576429D01*
X39640714Y5199286D02*
X39229285Y5199286D01*
X39435000Y5199286D02*
X39435000Y5919286D01*
X39366428Y5816429D01*
X39297857Y5747858D01*
X39229285Y5713572D01*
X36243571Y5576429D02*
X36346428Y5542143D01*
X36380714Y5507858D01*
X36415000Y5439286D01*
X36415000Y5336429D01*
X36380714Y5267858D01*
X36346428Y5233572D01*
X36277857Y5199286D01*
X36003571Y5199286D01*
X36003571Y5919286D01*
X36243571Y5919286D01*
X36312142Y5885000D01*
X36346428Y5850715D01*
X36380714Y5782143D01*
X36380714Y5713572D01*
X36346428Y5645000D01*
X36312142Y5610715D01*
X36243571Y5576429D01*
X36003571Y5576429D01*
X36860714Y5919286D02*
X36929285Y5919286D01*
X36997857Y5885000D01*
X37032142Y5850715D01*
X37066428Y5782143D01*
X37100714Y5645000D01*
X37100714Y5473572D01*
X37066428Y5336429D01*
X37032142Y5267858D01*
X36997857Y5233572D01*
X36929285Y5199286D01*
X36860714Y5199286D01*
X36792142Y5233572D01*
X36757857Y5267858D01*
X36723571Y5336429D01*
X36689285Y5473572D01*
X36689285Y5645000D01*
X36723571Y5782143D01*
X36757857Y5850715D01*
X36792142Y5885000D01*
X36860714Y5919286D01*
X33480714Y5405000D02*
X33823571Y5405000D01*
X33412142Y5199286D02*
X33652142Y5919286D01*
X33892142Y5199286D01*
X34063571Y5919286D02*
X34543571Y5919286D01*
X34235000Y5199286D01*
X30940714Y5405000D02*
X31283571Y5405000D01*
X30872142Y5199286D02*
X31112142Y5919286D01*
X31352142Y5199286D01*
X31900714Y5919286D02*
X31763571Y5919286D01*
X31695000Y5885000D01*
X31660714Y5850715D01*
X31592142Y5747858D01*
X31557857Y5610715D01*
X31557857Y5336429D01*
X31592142Y5267858D01*
X31626428Y5233572D01*
X31695000Y5199286D01*
X31832142Y5199286D01*
X31900714Y5233572D01*
X31935000Y5267858D01*
X31969285Y5336429D01*
X31969285Y5507858D01*
X31935000Y5576429D01*
X31900714Y5610715D01*
X31832142Y5645000D01*
X31695000Y5645000D01*
X31626428Y5610715D01*
X31592142Y5576429D01*
X31557857Y5507858D01*
X28400714Y5405000D02*
X28743571Y5405000D01*
X28332142Y5199286D02*
X28572142Y5919286D01*
X28812142Y5199286D01*
X29395000Y5919286D02*
X29052142Y5919286D01*
X29017857Y5576429D01*
X29052142Y5610715D01*
X29120714Y5645000D01*
X29292142Y5645000D01*
X29360714Y5610715D01*
X29395000Y5576429D01*
X29429285Y5507858D01*
X29429285Y5336429D01*
X29395000Y5267858D01*
X29360714Y5233572D01*
X29292142Y5199286D01*
X29120714Y5199286D01*
X29052142Y5233572D01*
X29017857Y5267858D01*
X25860714Y5405000D02*
X26203571Y5405000D01*
X25792142Y5199286D02*
X26032142Y5919286D01*
X26272142Y5199286D01*
X26820714Y5679286D02*
X26820714Y5199286D01*
X26649285Y5953572D02*
X26477857Y5439286D01*
X26923571Y5439286D01*
X23320714Y5405000D02*
X23663571Y5405000D01*
X23252142Y5199286D02*
X23492142Y5919286D01*
X23732142Y5199286D01*
X23903571Y5919286D02*
X24349285Y5919286D01*
X24109285Y5645000D01*
X24212142Y5645000D01*
X24280714Y5610715D01*
X24315000Y5576429D01*
X24349285Y5507858D01*
X24349285Y5336429D01*
X24315000Y5267858D01*
X24280714Y5233572D01*
X24212142Y5199286D01*
X24006428Y5199286D01*
X23937857Y5233572D01*
X23903571Y5267858D01*
X20780714Y5405000D02*
X21123571Y5405000D01*
X20712142Y5199286D02*
X20952142Y5919286D01*
X21192142Y5199286D01*
X21397857Y5850715D02*
X21432142Y5885000D01*
X21500714Y5919286D01*
X21672142Y5919286D01*
X21740714Y5885000D01*
X21775000Y5850715D01*
X21809285Y5782143D01*
X21809285Y5713572D01*
X21775000Y5610715D01*
X21363571Y5199286D01*
X21809285Y5199286D01*
X18240714Y5405000D02*
X18583571Y5405000D01*
X18172142Y5199286D02*
X18412142Y5919286D01*
X18652142Y5199286D01*
X19269285Y5199286D02*
X18857857Y5199286D01*
X19063571Y5199286D02*
X19063571Y5919286D01*
X18995000Y5816429D01*
X18926428Y5747858D01*
X18857857Y5713572D01*
X15700714Y5405000D02*
X16043571Y5405000D01*
X15632142Y5199286D02*
X15872142Y5919286D01*
X16112142Y5199286D01*
X16489285Y5919286D02*
X16557857Y5919286D01*
X16626428Y5885000D01*
X16660714Y5850715D01*
X16695000Y5782143D01*
X16729285Y5645000D01*
X16729285Y5473572D01*
X16695000Y5336429D01*
X16660714Y5267858D01*
X16626428Y5233572D01*
X16557857Y5199286D01*
X16489285Y5199286D01*
X16420714Y5233572D01*
X16386428Y5267858D01*
X16352142Y5336429D01*
X16317857Y5473572D01*
X16317857Y5645000D01*
X16352142Y5782143D01*
X16386428Y5850715D01*
X16420714Y5885000D01*
X16489285Y5919286D01*
X13143571Y5199286D02*
X13143571Y5919286D01*
X13315000Y5919286D01*
X13417857Y5885000D01*
X13486428Y5816429D01*
X13520714Y5747858D01*
X13555000Y5610715D01*
X13555000Y5507858D01*
X13520714Y5370715D01*
X13486428Y5302143D01*
X13417857Y5233572D01*
X13315000Y5199286D01*
X13143571Y5199286D01*
X14240714Y5199286D02*
X13829285Y5199286D01*
X14035000Y5199286D02*
X14035000Y5919286D01*
X13966428Y5816429D01*
X13897857Y5747858D01*
X13829285Y5713572D01*
X10603571Y5199286D02*
X10603571Y5919286D01*
X10775000Y5919286D01*
X10877857Y5885000D01*
X10946428Y5816429D01*
X10980714Y5747858D01*
X11015000Y5610715D01*
X11015000Y5507858D01*
X10980714Y5370715D01*
X10946428Y5302143D01*
X10877857Y5233572D01*
X10775000Y5199286D01*
X10603571Y5199286D01*
X11460714Y5919286D02*
X11529285Y5919286D01*
X11597857Y5885000D01*
X11632142Y5850715D01*
X11666428Y5782143D01*
X11700714Y5645000D01*
X11700714Y5473572D01*
X11666428Y5336429D01*
X11632142Y5267858D01*
X11597857Y5233572D01*
X11529285Y5199286D01*
X11460714Y5199286D01*
X11392142Y5233572D01*
X11357857Y5267858D01*
X11323571Y5336429D01*
X11289285Y5473572D01*
X11289285Y5645000D01*
X11323571Y5782143D01*
X11357857Y5850715D01*
X11392142Y5885000D01*
X11460714Y5919286D01*
X8132142Y5267858D02*
X8097857Y5233572D01*
X7995000Y5199286D01*
X7926428Y5199286D01*
X7823571Y5233572D01*
X7755000Y5302143D01*
X7720714Y5370715D01*
X7686428Y5507858D01*
X7686428Y5610715D01*
X7720714Y5747858D01*
X7755000Y5816429D01*
X7823571Y5885000D01*
X7926428Y5919286D01*
X7995000Y5919286D01*
X8097857Y5885000D01*
X8132142Y5850715D01*
X8817857Y5199286D02*
X8406428Y5199286D01*
X8612142Y5199286D02*
X8612142Y5919286D01*
X8543571Y5816429D01*
X8475000Y5747858D01*
X8406428Y5713572D01*
X9469285Y5919286D02*
X9126428Y5919286D01*
X9092142Y5576429D01*
X9126428Y5610715D01*
X9195000Y5645000D01*
X9366428Y5645000D01*
X9435000Y5610715D01*
X9469285Y5576429D01*
X9503571Y5507858D01*
X9503571Y5336429D01*
X9469285Y5267858D01*
X9435000Y5233572D01*
X9366428Y5199286D01*
X9195000Y5199286D01*
X9126428Y5233572D01*
X9092142Y5267858D01*
X5592142Y5267858D02*
X5557857Y5233572D01*
X5455000Y5199286D01*
X5386428Y5199286D01*
X5283571Y5233572D01*
X5215000Y5302143D01*
X5180714Y5370715D01*
X5146428Y5507858D01*
X5146428Y5610715D01*
X5180714Y5747858D01*
X5215000Y5816429D01*
X5283571Y5885000D01*
X5386428Y5919286D01*
X5455000Y5919286D01*
X5557857Y5885000D01*
X5592142Y5850715D01*
X6277857Y5199286D02*
X5866428Y5199286D01*
X6072142Y5199286D02*
X6072142Y5919286D01*
X6003571Y5816429D01*
X5935000Y5747858D01*
X5866428Y5713572D01*
X6895000Y5679286D02*
X6895000Y5199286D01*
X6723571Y5953572D02*
X6552142Y5439286D01*
X6997857Y5439286D01*
X3052142Y5267858D02*
X3017857Y5233572D01*
X2915000Y5199286D01*
X2846428Y5199286D01*
X2743571Y5233572D01*
X2675000Y5302143D01*
X2640714Y5370715D01*
X2606428Y5507858D01*
X2606428Y5610715D01*
X2640714Y5747858D01*
X2675000Y5816429D01*
X2743571Y5885000D01*
X2846428Y5919286D01*
X2915000Y5919286D01*
X3017857Y5885000D01*
X3052142Y5850715D01*
X3737857Y5199286D02*
X3326428Y5199286D01*
X3532142Y5199286D02*
X3532142Y5919286D01*
X3463571Y5816429D01*
X3395000Y5747858D01*
X3326428Y5713572D01*
X3977857Y5919286D02*
X4423571Y5919286D01*
X4183571Y5645000D01*
X4286428Y5645000D01*
X4355000Y5610715D01*
X4389285Y5576429D01*
X4423571Y5507858D01*
X4423571Y5336429D01*
X4389285Y5267858D01*
X4355000Y5233572D01*
X4286428Y5199286D01*
X4080714Y5199286D01*
X4012142Y5233572D01*
X3977857Y5267858D01*
X42885000Y26999286D02*
X42885000Y27719286D01*
X43159285Y27719286D01*
X43227857Y27685000D01*
X43262142Y27650715D01*
X43296428Y27582143D01*
X43296428Y27479286D01*
X43262142Y27410715D01*
X43227857Y27376429D01*
X43159285Y27342143D01*
X42885000Y27342143D01*
X43536428Y27719286D02*
X43707857Y26999286D01*
X43845000Y27513572D01*
X43982142Y26999286D01*
X44153571Y27719286D01*
X44839285Y26999286D02*
X44599285Y27342143D01*
X44427857Y26999286D02*
X44427857Y27719286D01*
X44702142Y27719286D01*
X44770714Y27685000D01*
X44805000Y27650715D01*
X44839285Y27582143D01*
X44839285Y27479286D01*
X44805000Y27410715D01*
X44770714Y27376429D01*
X44702142Y27342143D01*
X44427857Y27342143D01*
X8037857Y17836429D02*
X8140714Y17802143D01*
X8175000Y17767858D01*
X8209285Y17699286D01*
X8209285Y17596429D01*
X8175000Y17527858D01*
X8140714Y17493572D01*
X8072142Y17459286D01*
X7797857Y17459286D01*
X7797857Y18179286D01*
X8037857Y18179286D01*
X8106428Y18145000D01*
X8140714Y18110715D01*
X8175000Y18042143D01*
X8175000Y17973572D01*
X8140714Y17905000D01*
X8106428Y17870715D01*
X8037857Y17836429D01*
X7797857Y17836429D01*
X8517857Y18179286D02*
X8517857Y17596429D01*
X8552142Y17527858D01*
X8586428Y17493572D01*
X8655000Y17459286D01*
X8792142Y17459286D01*
X8860714Y17493572D01*
X8895000Y17527858D01*
X8929285Y17596429D01*
X8929285Y18179286D01*
X9237857Y17493572D02*
X9340714Y17459286D01*
X9512142Y17459286D01*
X9580714Y17493572D01*
X9615000Y17527858D01*
X9649285Y17596429D01*
X9649285Y17665000D01*
X9615000Y17733572D01*
X9580714Y17767858D01*
X9512142Y17802143D01*
X9375000Y17836429D01*
X9306428Y17870715D01*
X9272142Y17905000D01*
X9237857Y17973572D01*
X9237857Y18042143D01*
X9272142Y18110715D01*
X9306428Y18145000D01*
X9375000Y18179286D01*
X9546428Y18179286D01*
X9649285Y18145000D01*
X10095000Y17802143D02*
X10095000Y17459286D01*
X9855000Y18179286D02*
X10095000Y17802143D01*
X10335000Y18179286D01*
X2172428Y18179286D02*
X2343857Y17459286D01*
X2481000Y17973572D01*
X2618142Y17459286D01*
X2789571Y18179286D01*
X3063857Y17459286D02*
X3063857Y18179286D01*
X3338142Y18179286D01*
X3406714Y18145000D01*
X3441000Y18110715D01*
X3475285Y18042143D01*
X3475285Y17939286D01*
X3441000Y17870715D01*
X3406714Y17836429D01*
X3338142Y17802143D01*
X3063857Y17802143D01*
X14665000Y12992143D02*
X14665000Y13335000D01*
X14630714Y12992143D02*
X14630714Y13335000D01*
X14596428Y13026429D02*
X14596428Y13300715D01*
X14562142Y13026429D02*
X14562142Y13300715D01*
X14527857Y13026429D02*
X14527857Y13300715D01*
X14493571Y13060715D02*
X14493571Y13266429D01*
X14459285Y13060715D02*
X14459285Y13266429D01*
X14425000Y13060715D02*
X14425000Y13266429D01*
X14390714Y13095000D02*
X14390714Y13232143D01*
X14356428Y13095000D02*
X14356428Y13232143D01*
X14322142Y13129286D02*
X14322142Y13197858D01*
X14287857Y13129286D02*
X14287857Y13197858D01*
X14253571Y13129286D02*
X14253571Y13197858D01*
X14219285Y13163572D02*
X14253571Y13163572D01*
X14699285Y12992143D02*
X14185000Y13163572D01*
X14699285Y13335000D01*
X14150714Y13163572D02*
X14699285Y13369286D01*
X14699285Y12957858D01*
X14150714Y13163572D01*
X14665000Y29122143D02*
X14665000Y29465000D01*
X14630714Y29122143D02*
X14630714Y29465000D01*
X14596428Y29156429D02*
X14596428Y29430715D01*
X14562142Y29156429D02*
X14562142Y29430715D01*
X14527857Y29156429D02*
X14527857Y29430715D01*
X14493571Y29190715D02*
X14493571Y29396429D01*
X14459285Y29190715D02*
X14459285Y29396429D01*
X14425000Y29190715D02*
X14425000Y29396429D01*
X14390714Y29225000D02*
X14390714Y29362143D01*
X14356428Y29225000D02*
X14356428Y29362143D01*
X14322142Y29259286D02*
X14322142Y29327858D01*
X14287857Y29259286D02*
X14287857Y29327858D01*
X14253571Y29259286D02*
X14253571Y29327858D01*
X14219285Y29293572D02*
X14253571Y29293572D01*
X14699285Y29122143D02*
X14185000Y29293572D01*
X14699285Y29465000D01*
X14150714Y29293572D02*
X14699285Y29499286D01*
X14699285Y29087858D01*
X14150714Y29293572D01*
X14496428Y11859286D02*
X14496428Y11379286D01*
X14325000Y12133572D02*
X14153571Y11619286D01*
X14599285Y11619286D01*
X15216428Y12099286D02*
X14873571Y12099286D01*
X14839285Y11756429D01*
X14873571Y11790715D01*
X14942142Y11825000D01*
X15113571Y11825000D01*
X15182142Y11790715D01*
X15216428Y11756429D01*
X15250714Y11687858D01*
X15250714Y11516429D01*
X15216428Y11447858D01*
X15182142Y11413572D01*
X15113571Y11379286D01*
X14942142Y11379286D01*
X14873571Y11413572D01*
X14839285Y11447858D01*
X16073571Y11413572D02*
X16176428Y11379286D01*
X16347857Y11379286D01*
X16416428Y11413572D01*
X16450714Y11447858D01*
X16485000Y11516429D01*
X16485000Y11585000D01*
X16450714Y11653572D01*
X16416428Y11687858D01*
X16347857Y11722143D01*
X16210714Y11756429D01*
X16142142Y11790715D01*
X16107857Y11825000D01*
X16073571Y11893572D01*
X16073571Y11962143D01*
X16107857Y12030715D01*
X16142142Y12065000D01*
X16210714Y12099286D01*
X16382142Y12099286D01*
X16485000Y12065000D01*
X16793571Y11756429D02*
X17033571Y11756429D01*
X17136428Y11379286D02*
X16793571Y11379286D01*
X16793571Y12099286D01*
X17136428Y12099286D01*
X17856428Y11379286D02*
X17616428Y11722143D01*
X17445000Y11379286D02*
X17445000Y12099286D01*
X17719285Y12099286D01*
X17787857Y12065000D01*
X17822142Y12030715D01*
X17856428Y11962143D01*
X17856428Y11859286D01*
X17822142Y11790715D01*
X17787857Y11756429D01*
X17719285Y11722143D01*
X17445000Y11722143D01*
X18165000Y11379286D02*
X18165000Y12099286D01*
X18507857Y11756429D02*
X18747857Y11756429D01*
X18850714Y11379286D02*
X18507857Y11379286D01*
X18507857Y12099286D01*
X18850714Y12099286D01*
X19125000Y11413572D02*
X19227857Y11379286D01*
X19399285Y11379286D01*
X19467857Y11413572D01*
X19502142Y11447858D01*
X19536428Y11516429D01*
X19536428Y11585000D01*
X19502142Y11653572D01*
X19467857Y11687858D01*
X19399285Y11722143D01*
X19262142Y11756429D01*
X19193571Y11790715D01*
X19159285Y11825000D01*
X19125000Y11893572D01*
X19125000Y11962143D01*
X19159285Y12030715D01*
X19193571Y12065000D01*
X19262142Y12099286D01*
X19433571Y12099286D01*
X19536428Y12065000D01*
X14170714Y28330715D02*
X14205000Y28365000D01*
X14273571Y28399286D01*
X14445000Y28399286D01*
X14513571Y28365000D01*
X14547857Y28330715D01*
X14582142Y28262143D01*
X14582142Y28193572D01*
X14547857Y28090715D01*
X14136428Y27679286D01*
X14582142Y27679286D01*
X14822142Y28399286D02*
X15267857Y28399286D01*
X15027857Y28125000D01*
X15130714Y28125000D01*
X15199285Y28090715D01*
X15233571Y28056429D01*
X15267857Y27987858D01*
X15267857Y27816429D01*
X15233571Y27747858D01*
X15199285Y27713572D01*
X15130714Y27679286D01*
X14925000Y27679286D01*
X14856428Y27713572D01*
X14822142Y27747858D01*
X16090714Y28433572D02*
X15473571Y27507858D01*
X16296428Y28330715D02*
X16330714Y28365000D01*
X16399285Y28399286D01*
X16570714Y28399286D01*
X16639285Y28365000D01*
X16673571Y28330715D01*
X16707857Y28262143D01*
X16707857Y28193572D01*
X16673571Y28090715D01*
X16262142Y27679286D01*
X16707857Y27679286D01*
X17359285Y28399286D02*
X17016428Y28399286D01*
X16982142Y28056429D01*
X17016428Y28090715D01*
X17085000Y28125000D01*
X17256428Y28125000D01*
X17325000Y28090715D01*
X17359285Y28056429D01*
X17393571Y27987858D01*
X17393571Y27816429D01*
X17359285Y27747858D01*
X17325000Y27713572D01*
X17256428Y27679286D01*
X17085000Y27679286D01*
X17016428Y27713572D01*
X16982142Y27747858D01*
X18216428Y28433572D02*
X17599285Y27507858D01*
X18422142Y28330715D02*
X18456428Y28365000D01*
X18525000Y28399286D01*
X18696428Y28399286D01*
X18765000Y28365000D01*
X18799285Y28330715D01*
X18833571Y28262143D01*
X18833571Y28193572D01*
X18799285Y28090715D01*
X18387857Y27679286D01*
X18833571Y27679286D01*
X19450714Y28399286D02*
X19313571Y28399286D01*
X19245000Y28365000D01*
X19210714Y28330715D01*
X19142142Y28227858D01*
X19107857Y28090715D01*
X19107857Y27816429D01*
X19142142Y27747858D01*
X19176428Y27713572D01*
X19245000Y27679286D01*
X19382142Y27679286D01*
X19450714Y27713572D01*
X19485000Y27747858D01*
X19519285Y27816429D01*
X19519285Y27987858D01*
X19485000Y28056429D01*
X19450714Y28090715D01*
X19382142Y28125000D01*
X19245000Y28125000D01*
X19176428Y28090715D01*
X19142142Y28056429D01*
X19107857Y27987858D01*
G04 #@! TO.C,U2*
X26927887Y20196802D02*
X26015719Y19284634D01*
X26609689Y20515000D02*
X26927887Y20196802D01*
X26927887Y20833198D02*
X26609689Y20515000D01*
X31715000Y25620311D02*
X32033198Y25302113D01*
X31396802Y25302113D02*
X31715000Y25620311D01*
X31715000Y15409689D02*
X31396802Y15727887D01*
X32033198Y15727887D02*
X31715000Y15409689D01*
X36820311Y20515000D02*
X36502113Y20833198D01*
X36502113Y20196802D02*
X36820311Y20515000D01*
G04 #@! TO.C,R14*
X5370276Y19382500D02*
X5879724Y19382500D01*
X5370276Y20427500D02*
X5879724Y20427500D01*
G04 #@! TO.C,Q1*
X13745000Y18725000D02*
X13745000Y19655000D01*
X13745000Y21885000D02*
X13745000Y20955000D01*
X13745000Y21885000D02*
X10585000Y21885000D01*
X13745000Y18725000D02*
X12285000Y18725000D01*
G04 #@! TO.C,D5*
X7780000Y20915000D02*
X7780000Y18455000D01*
X7780000Y18455000D02*
X9250000Y18455000D01*
X9250000Y18455000D02*
X9250000Y20915000D01*
G04 #@! TO.C,D4*
X2040000Y20915000D02*
X2040000Y18455000D01*
X2040000Y18455000D02*
X3510000Y18455000D01*
X3510000Y18455000D02*
X3510000Y20915000D01*
G04 #@! TO.C,Y1*
X24565000Y7865000D02*
X24565000Y13265000D01*
X20065000Y7865000D02*
X24565000Y7865000D01*
G04 #@! TO.C,U1*
X45595000Y17545000D02*
X45595000Y17775000D01*
X45595000Y22265000D02*
X45595000Y22035000D01*
X45595000Y22265000D02*
X48315000Y22265000D01*
X48315000Y22265000D02*
X48315000Y20955000D01*
X44455000Y22035000D02*
X45595000Y22035000D01*
X48315000Y17545000D02*
X45595000Y17545000D01*
X48315000Y18855000D02*
X48315000Y17545000D01*
G04 #@! TO.C,SW1*
X20545000Y22345000D02*
X20545000Y23395000D01*
X18945000Y18995000D02*
X19045000Y18995000D01*
X17445000Y23395000D02*
X17445000Y18995000D01*
X20545000Y18995000D02*
X20545000Y20045000D01*
X18945000Y23395000D02*
X19045000Y23395000D01*
G04 #@! TO.C,R13*
X61992500Y12879724D02*
X61992500Y12370276D01*
X63037500Y12879724D02*
X63037500Y12370276D01*
G04 #@! TO.C,R12*
X64987500Y12370276D02*
X64987500Y12879724D01*
X63942500Y12370276D02*
X63942500Y12879724D01*
G04 #@! TO.C,R11*
X63037500Y27120276D02*
X63037500Y27629724D01*
X61992500Y27120276D02*
X61992500Y27629724D01*
G04 #@! TO.C,R10*
X63942500Y27629724D02*
X63942500Y27120276D01*
X64987500Y27629724D02*
X64987500Y27120276D01*
G04 #@! TO.C,R9*
X5879724Y17947500D02*
X5370276Y17947500D01*
X5879724Y16902500D02*
X5370276Y16902500D01*
G04 #@! TO.C,R8*
X11860276Y16722500D02*
X12369724Y16722500D01*
X11860276Y17767500D02*
X12369724Y17767500D01*
G04 #@! TO.C,R7*
X5879724Y22967500D02*
X5370276Y22967500D01*
X5879724Y21922500D02*
X5370276Y21922500D01*
G04 #@! TO.C,R6*
X56160276Y27702500D02*
X56669724Y27702500D01*
X56160276Y28747500D02*
X56669724Y28747500D01*
G04 #@! TO.C,R5*
X56160276Y20082500D02*
X56669724Y20082500D01*
X56160276Y21127500D02*
X56669724Y21127500D01*
G04 #@! TO.C,R4*
X56669724Y22827500D02*
X56160276Y22827500D01*
X56669724Y21782500D02*
X56160276Y21782500D01*
G04 #@! TO.C,R3*
X56160276Y18382500D02*
X56669724Y18382500D01*
X56160276Y19427500D02*
X56669724Y19427500D01*
G04 #@! TO.C,R2*
X56160276Y16682500D02*
X56669724Y16682500D01*
X56160276Y17727500D02*
X56669724Y17727500D01*
G04 #@! TO.C,R1*
X46237500Y24590276D02*
X46237500Y25099724D01*
X45192500Y24590276D02*
X45192500Y25099724D01*
G04 #@! TO.C,J5*
X65805000Y4605000D02*
X65805000Y3275000D01*
X64475000Y4605000D02*
X65805000Y4605000D01*
X63205000Y4605000D02*
X63205000Y1945000D01*
X63205000Y1945000D02*
X2185000Y1945000D01*
X63205000Y4605000D02*
X2185000Y4605000D01*
X2185000Y4605000D02*
X2185000Y1945000D01*
G04 #@! TO.C,J4*
X65805000Y38055000D02*
X65805000Y36725000D01*
X64475000Y38055000D02*
X65805000Y38055000D01*
X63205000Y38055000D02*
X63205000Y35395000D01*
X63205000Y35395000D02*
X2185000Y35395000D01*
X63205000Y38055000D02*
X2185000Y38055000D01*
X2185000Y38055000D02*
X2185000Y35395000D01*
G04 #@! TO.C,J3*
X13525000Y14545000D02*
X13525000Y13215000D01*
X12195000Y14545000D02*
X13525000Y14545000D01*
X13525000Y11945000D02*
X13525000Y9345000D01*
X10925000Y11945000D02*
X13525000Y11945000D01*
X10925000Y14545000D02*
X10925000Y11945000D01*
X13525000Y9345000D02*
X3245000Y9345000D01*
X10925000Y14545000D02*
X3245000Y14545000D01*
X3245000Y14545000D02*
X3245000Y9345000D01*
G04 #@! TO.C,J2*
X13525000Y30675000D02*
X13525000Y29345000D01*
X12195000Y30675000D02*
X13525000Y30675000D01*
X13525000Y28075000D02*
X13525000Y25475000D01*
X10925000Y28075000D02*
X13525000Y28075000D01*
X10925000Y30675000D02*
X10925000Y28075000D01*
X13525000Y25475000D02*
X3245000Y25475000D01*
X10925000Y30675000D02*
X3245000Y30675000D01*
X3245000Y30675000D02*
X3245000Y25475000D01*
G04 #@! TO.C,J1*
X62945000Y15555000D02*
X64745000Y15555000D01*
X68455000Y15555000D02*
X66995000Y15555000D01*
X68455000Y24495000D02*
X66995000Y24495000D01*
X62945000Y24495000D02*
X64745000Y24495000D01*
X68455000Y24495000D02*
X68455000Y15555000D01*
G04 #@! TO.C,F2*
X12376252Y24335000D02*
X11853748Y24335000D01*
X12376252Y22915000D02*
X11853748Y22915000D01*
G04 #@! TO.C,F1*
X48465000Y24583748D02*
X48465000Y25106252D01*
X47045000Y24583748D02*
X47045000Y25106252D01*
G04 #@! TO.C,D3*
X45065000Y13155000D02*
X45065000Y16305000D01*
X46765000Y13155000D02*
X46765000Y16305000D01*
X45065000Y13155000D02*
X46765000Y13155000D01*
G04 #@! TO.C,D2*
X44630000Y23185000D02*
X44630000Y25645000D01*
X43160000Y23185000D02*
X44630000Y23185000D01*
X43160000Y25645000D02*
X43160000Y23185000D01*
G04 #@! TO.C,D1*
X50865000Y26745000D02*
X50865000Y23595000D01*
X49165000Y26745000D02*
X49165000Y23595000D01*
X50865000Y26745000D02*
X49165000Y26745000D01*
G04 #@! TO.C,C13*
X31861267Y14035000D02*
X31568733Y14035000D01*
X31861267Y13015000D02*
X31568733Y13015000D01*
G04 #@! TO.C,C12*
X4368733Y7215000D02*
X4661267Y7215000D01*
X4368733Y8235000D02*
X4661267Y8235000D01*
G04 #@! TO.C,C11*
X4661267Y32835000D02*
X4368733Y32835000D01*
X4661267Y31815000D02*
X4368733Y31815000D01*
G04 #@! TO.C,C10*
X23625000Y20278733D02*
X23625000Y20571267D01*
X22605000Y20278733D02*
X22605000Y20571267D01*
G04 #@! TO.C,C9*
X25325000Y20278733D02*
X25325000Y20571267D01*
X24305000Y20278733D02*
X24305000Y20571267D01*
G04 #@! TO.C,C8*
X38105000Y20591267D02*
X38105000Y20298733D01*
X39125000Y20591267D02*
X39125000Y20298733D01*
G04 #@! TO.C,C7*
X31598733Y26905000D02*
X31891267Y26905000D01*
X31598733Y27925000D02*
X31891267Y27925000D01*
G04 #@! TO.C,C6*
X20471267Y13865000D02*
X20178733Y13865000D01*
X20471267Y14885000D02*
X20178733Y14885000D01*
G04 #@! TO.C,C5*
X24071267Y14885000D02*
X23778733Y14885000D01*
X24071267Y13865000D02*
X23778733Y13865000D01*
G04 #@! TO.C,C4*
X19061267Y25665000D02*
X18768733Y25665000D01*
X19061267Y24645000D02*
X18768733Y24645000D01*
G04 #@! TO.C,C3*
X44405000Y14908733D02*
X44405000Y15201267D01*
X43385000Y14908733D02*
X43385000Y15201267D01*
G04 #@! TO.C,C2*
X47405000Y15201267D02*
X47405000Y14908733D01*
X48425000Y15201267D02*
X48425000Y14908733D01*
G04 #@! TO.C,C1*
X49205000Y15201267D02*
X49205000Y14908733D01*
X50225000Y15201267D02*
X50225000Y14908733D01*
G04 #@! TO.C,U2*
X35266428Y25045861D02*
X35266428Y24463004D01*
X35300714Y24394433D01*
X35335000Y24360147D01*
X35403571Y24325861D01*
X35540714Y24325861D01*
X35609285Y24360147D01*
X35643571Y24394433D01*
X35677857Y24463004D01*
X35677857Y25045861D01*
X35986428Y24977290D02*
X36020714Y25011575D01*
X36089285Y25045861D01*
X36260714Y25045861D01*
X36329285Y25011575D01*
X36363571Y24977290D01*
X36397857Y24908718D01*
X36397857Y24840147D01*
X36363571Y24737290D01*
X35952142Y24325861D01*
X36397857Y24325861D01*
G04 #@! TO.C,R14*
X5172142Y20809286D02*
X4932142Y21152143D01*
X4760714Y20809286D02*
X4760714Y21529286D01*
X5035000Y21529286D01*
X5103571Y21495000D01*
X5137857Y21460715D01*
X5172142Y21392143D01*
X5172142Y21289286D01*
X5137857Y21220715D01*
X5103571Y21186429D01*
X5035000Y21152143D01*
X4760714Y21152143D01*
X5857857Y20809286D02*
X5446428Y20809286D01*
X5652142Y20809286D02*
X5652142Y21529286D01*
X5583571Y21426429D01*
X5515000Y21357858D01*
X5446428Y21323572D01*
X6475000Y21289286D02*
X6475000Y20809286D01*
X6303571Y21563572D02*
X6132142Y21049286D01*
X6577857Y21049286D01*
G04 #@! TO.C,Q1*
D11*
X14969761Y20997381D02*
X14874523Y21045000D01*
X14779285Y21140239D01*
X14636428Y21283096D01*
X14541190Y21330715D01*
X14445952Y21330715D01*
X14493571Y21092620D02*
X14398333Y21140239D01*
X14303095Y21235477D01*
X14255476Y21425953D01*
X14255476Y21759286D01*
X14303095Y21949762D01*
X14398333Y22045000D01*
X14493571Y22092620D01*
X14684047Y22092620D01*
X14779285Y22045000D01*
X14874523Y21949762D01*
X14922142Y21759286D01*
X14922142Y21425953D01*
X14874523Y21235477D01*
X14779285Y21140239D01*
X14684047Y21092620D01*
X14493571Y21092620D01*
X15874523Y21092620D02*
X15303095Y21092620D01*
X15588809Y21092620D02*
X15588809Y22092620D01*
X15493571Y21949762D01*
X15398333Y21854524D01*
X15303095Y21806905D01*
G04 #@! TO.C,Y1*
D10*
X25082142Y10592143D02*
X25082142Y10249286D01*
X24842142Y10969286D02*
X25082142Y10592143D01*
X25322142Y10969286D01*
X25939285Y10249286D02*
X25527857Y10249286D01*
X25733571Y10249286D02*
X25733571Y10969286D01*
X25665000Y10866429D01*
X25596428Y10797858D01*
X25527857Y10763572D01*
G04 #@! TO.C,U1*
X50366428Y20319286D02*
X50366428Y19736429D01*
X50400714Y19667858D01*
X50435000Y19633572D01*
X50503571Y19599286D01*
X50640714Y19599286D01*
X50709285Y19633572D01*
X50743571Y19667858D01*
X50777857Y19736429D01*
X50777857Y20319286D01*
X51497857Y19599286D02*
X51086428Y19599286D01*
X51292142Y19599286D02*
X51292142Y20319286D01*
X51223571Y20216429D01*
X51155000Y20147858D01*
X51086428Y20113572D01*
G04 #@! TO.C,SW1*
X17935000Y17523572D02*
X18037857Y17489286D01*
X18209285Y17489286D01*
X18277857Y17523572D01*
X18312142Y17557858D01*
X18346428Y17626429D01*
X18346428Y17695000D01*
X18312142Y17763572D01*
X18277857Y17797858D01*
X18209285Y17832143D01*
X18072142Y17866429D01*
X18003571Y17900715D01*
X17969285Y17935000D01*
X17935000Y18003572D01*
X17935000Y18072143D01*
X17969285Y18140715D01*
X18003571Y18175000D01*
X18072142Y18209286D01*
X18243571Y18209286D01*
X18346428Y18175000D01*
X18586428Y18209286D02*
X18757857Y17489286D01*
X18895000Y18003572D01*
X19032142Y17489286D01*
X19203571Y18209286D01*
X19855000Y17489286D02*
X19443571Y17489286D01*
X19649285Y17489286D02*
X19649285Y18209286D01*
X19580714Y18106429D01*
X19512142Y18037858D01*
X19443571Y18003572D01*
G04 #@! TO.C,R13*
X61952142Y9949286D02*
X61712142Y10292143D01*
X61540714Y9949286D02*
X61540714Y10669286D01*
X61815000Y10669286D01*
X61883571Y10635000D01*
X61917857Y10600715D01*
X61952142Y10532143D01*
X61952142Y10429286D01*
X61917857Y10360715D01*
X61883571Y10326429D01*
X61815000Y10292143D01*
X61540714Y10292143D01*
X62637857Y9949286D02*
X62226428Y9949286D01*
X62432142Y9949286D02*
X62432142Y10669286D01*
X62363571Y10566429D01*
X62295000Y10497858D01*
X62226428Y10463572D01*
X62877857Y10669286D02*
X63323571Y10669286D01*
X63083571Y10395000D01*
X63186428Y10395000D01*
X63255000Y10360715D01*
X63289285Y10326429D01*
X63323571Y10257858D01*
X63323571Y10086429D01*
X63289285Y10017858D01*
X63255000Y9983572D01*
X63186428Y9949286D01*
X62980714Y9949286D01*
X62912142Y9983572D01*
X62877857Y10017858D01*
G04 #@! TO.C,R12*
X64002142Y9949286D02*
X63762142Y10292143D01*
X63590714Y9949286D02*
X63590714Y10669286D01*
X63865000Y10669286D01*
X63933571Y10635000D01*
X63967857Y10600715D01*
X64002142Y10532143D01*
X64002142Y10429286D01*
X63967857Y10360715D01*
X63933571Y10326429D01*
X63865000Y10292143D01*
X63590714Y10292143D01*
X64687857Y9949286D02*
X64276428Y9949286D01*
X64482142Y9949286D02*
X64482142Y10669286D01*
X64413571Y10566429D01*
X64345000Y10497858D01*
X64276428Y10463572D01*
X64962142Y10600715D02*
X64996428Y10635000D01*
X65065000Y10669286D01*
X65236428Y10669286D01*
X65305000Y10635000D01*
X65339285Y10600715D01*
X65373571Y10532143D01*
X65373571Y10463572D01*
X65339285Y10360715D01*
X64927857Y9949286D01*
X65373571Y9949286D01*
G04 #@! TO.C,R11*
X61952142Y29279286D02*
X61712142Y29622143D01*
X61540714Y29279286D02*
X61540714Y29999286D01*
X61815000Y29999286D01*
X61883571Y29965000D01*
X61917857Y29930715D01*
X61952142Y29862143D01*
X61952142Y29759286D01*
X61917857Y29690715D01*
X61883571Y29656429D01*
X61815000Y29622143D01*
X61540714Y29622143D01*
X62637857Y29279286D02*
X62226428Y29279286D01*
X62432142Y29279286D02*
X62432142Y29999286D01*
X62363571Y29896429D01*
X62295000Y29827858D01*
X62226428Y29793572D01*
X63323571Y29279286D02*
X62912142Y29279286D01*
X63117857Y29279286D02*
X63117857Y29999286D01*
X63049285Y29896429D01*
X62980714Y29827858D01*
X62912142Y29793572D01*
G04 #@! TO.C,R10*
X64002142Y29279286D02*
X63762142Y29622143D01*
X63590714Y29279286D02*
X63590714Y29999286D01*
X63865000Y29999286D01*
X63933571Y29965000D01*
X63967857Y29930715D01*
X64002142Y29862143D01*
X64002142Y29759286D01*
X63967857Y29690715D01*
X63933571Y29656429D01*
X63865000Y29622143D01*
X63590714Y29622143D01*
X64687857Y29279286D02*
X64276428Y29279286D01*
X64482142Y29279286D02*
X64482142Y29999286D01*
X64413571Y29896429D01*
X64345000Y29827858D01*
X64276428Y29793572D01*
X65133571Y29999286D02*
X65202142Y29999286D01*
X65270714Y29965000D01*
X65305000Y29930715D01*
X65339285Y29862143D01*
X65373571Y29725000D01*
X65373571Y29553572D01*
X65339285Y29416429D01*
X65305000Y29347858D01*
X65270714Y29313572D01*
X65202142Y29279286D01*
X65133571Y29279286D01*
X65065000Y29313572D01*
X65030714Y29347858D01*
X64996428Y29416429D01*
X64962142Y29553572D01*
X64962142Y29725000D01*
X64996428Y29862143D01*
X65030714Y29930715D01*
X65065000Y29965000D01*
X65133571Y29999286D01*
G04 #@! TO.C,R9*
X5515000Y18319286D02*
X5275000Y18662143D01*
X5103571Y18319286D02*
X5103571Y19039286D01*
X5377857Y19039286D01*
X5446428Y19005000D01*
X5480714Y18970715D01*
X5515000Y18902143D01*
X5515000Y18799286D01*
X5480714Y18730715D01*
X5446428Y18696429D01*
X5377857Y18662143D01*
X5103571Y18662143D01*
X5857857Y18319286D02*
X5995000Y18319286D01*
X6063571Y18353572D01*
X6097857Y18387858D01*
X6166428Y18490715D01*
X6200714Y18627858D01*
X6200714Y18902143D01*
X6166428Y18970715D01*
X6132142Y19005000D01*
X6063571Y19039286D01*
X5926428Y19039286D01*
X5857857Y19005000D01*
X5823571Y18970715D01*
X5789285Y18902143D01*
X5789285Y18730715D01*
X5823571Y18662143D01*
X5857857Y18627858D01*
X5926428Y18593572D01*
X6063571Y18593572D01*
X6132142Y18627858D01*
X6166428Y18662143D01*
X6200714Y18730715D01*
G04 #@! TO.C,R8*
X14545000Y16949286D02*
X14305000Y17292143D01*
X14133571Y16949286D02*
X14133571Y17669286D01*
X14407857Y17669286D01*
X14476428Y17635000D01*
X14510714Y17600715D01*
X14545000Y17532143D01*
X14545000Y17429286D01*
X14510714Y17360715D01*
X14476428Y17326429D01*
X14407857Y17292143D01*
X14133571Y17292143D01*
X14956428Y17360715D02*
X14887857Y17395000D01*
X14853571Y17429286D01*
X14819285Y17497858D01*
X14819285Y17532143D01*
X14853571Y17600715D01*
X14887857Y17635000D01*
X14956428Y17669286D01*
X15093571Y17669286D01*
X15162142Y17635000D01*
X15196428Y17600715D01*
X15230714Y17532143D01*
X15230714Y17497858D01*
X15196428Y17429286D01*
X15162142Y17395000D01*
X15093571Y17360715D01*
X14956428Y17360715D01*
X14887857Y17326429D01*
X14853571Y17292143D01*
X14819285Y17223572D01*
X14819285Y17086429D01*
X14853571Y17017858D01*
X14887857Y16983572D01*
X14956428Y16949286D01*
X15093571Y16949286D01*
X15162142Y16983572D01*
X15196428Y17017858D01*
X15230714Y17086429D01*
X15230714Y17223572D01*
X15196428Y17292143D01*
X15162142Y17326429D01*
X15093571Y17360715D01*
G04 #@! TO.C,R7*
X5515000Y23309286D02*
X5275000Y23652143D01*
X5103571Y23309286D02*
X5103571Y24029286D01*
X5377857Y24029286D01*
X5446428Y23995000D01*
X5480714Y23960715D01*
X5515000Y23892143D01*
X5515000Y23789286D01*
X5480714Y23720715D01*
X5446428Y23686429D01*
X5377857Y23652143D01*
X5103571Y23652143D01*
X5755000Y24029286D02*
X6235000Y24029286D01*
X5926428Y23309286D01*
G04 #@! TO.C,R6*
X53905000Y27939286D02*
X53665000Y28282143D01*
X53493571Y27939286D02*
X53493571Y28659286D01*
X53767857Y28659286D01*
X53836428Y28625000D01*
X53870714Y28590715D01*
X53905000Y28522143D01*
X53905000Y28419286D01*
X53870714Y28350715D01*
X53836428Y28316429D01*
X53767857Y28282143D01*
X53493571Y28282143D01*
X54522142Y28659286D02*
X54385000Y28659286D01*
X54316428Y28625000D01*
X54282142Y28590715D01*
X54213571Y28487858D01*
X54179285Y28350715D01*
X54179285Y28076429D01*
X54213571Y28007858D01*
X54247857Y27973572D01*
X54316428Y27939286D01*
X54453571Y27939286D01*
X54522142Y27973572D01*
X54556428Y28007858D01*
X54590714Y28076429D01*
X54590714Y28247858D01*
X54556428Y28316429D01*
X54522142Y28350715D01*
X54453571Y28385000D01*
X54316428Y28385000D01*
X54247857Y28350715D01*
X54213571Y28316429D01*
X54179285Y28247858D01*
G04 #@! TO.C,R5*
X53905000Y20239286D02*
X53665000Y20582143D01*
X53493571Y20239286D02*
X53493571Y20959286D01*
X53767857Y20959286D01*
X53836428Y20925000D01*
X53870714Y20890715D01*
X53905000Y20822143D01*
X53905000Y20719286D01*
X53870714Y20650715D01*
X53836428Y20616429D01*
X53767857Y20582143D01*
X53493571Y20582143D01*
X54556428Y20959286D02*
X54213571Y20959286D01*
X54179285Y20616429D01*
X54213571Y20650715D01*
X54282142Y20685000D01*
X54453571Y20685000D01*
X54522142Y20650715D01*
X54556428Y20616429D01*
X54590714Y20547858D01*
X54590714Y20376429D01*
X54556428Y20307858D01*
X54522142Y20273572D01*
X54453571Y20239286D01*
X54282142Y20239286D01*
X54213571Y20273572D01*
X54179285Y20307858D01*
G04 #@! TO.C,R4*
X53905000Y21909286D02*
X53665000Y22252143D01*
X53493571Y21909286D02*
X53493571Y22629286D01*
X53767857Y22629286D01*
X53836428Y22595000D01*
X53870714Y22560715D01*
X53905000Y22492143D01*
X53905000Y22389286D01*
X53870714Y22320715D01*
X53836428Y22286429D01*
X53767857Y22252143D01*
X53493571Y22252143D01*
X54522142Y22389286D02*
X54522142Y21909286D01*
X54350714Y22663572D02*
X54179285Y22149286D01*
X54625000Y22149286D01*
G04 #@! TO.C,R3*
X53905000Y18499286D02*
X53665000Y18842143D01*
X53493571Y18499286D02*
X53493571Y19219286D01*
X53767857Y19219286D01*
X53836428Y19185000D01*
X53870714Y19150715D01*
X53905000Y19082143D01*
X53905000Y18979286D01*
X53870714Y18910715D01*
X53836428Y18876429D01*
X53767857Y18842143D01*
X53493571Y18842143D01*
X54145000Y19219286D02*
X54590714Y19219286D01*
X54350714Y18945000D01*
X54453571Y18945000D01*
X54522142Y18910715D01*
X54556428Y18876429D01*
X54590714Y18807858D01*
X54590714Y18636429D01*
X54556428Y18567858D01*
X54522142Y18533572D01*
X54453571Y18499286D01*
X54247857Y18499286D01*
X54179285Y18533572D01*
X54145000Y18567858D01*
G04 #@! TO.C,R2*
X53905000Y16879286D02*
X53665000Y17222143D01*
X53493571Y16879286D02*
X53493571Y17599286D01*
X53767857Y17599286D01*
X53836428Y17565000D01*
X53870714Y17530715D01*
X53905000Y17462143D01*
X53905000Y17359286D01*
X53870714Y17290715D01*
X53836428Y17256429D01*
X53767857Y17222143D01*
X53493571Y17222143D01*
X54179285Y17530715D02*
X54213571Y17565000D01*
X54282142Y17599286D01*
X54453571Y17599286D01*
X54522142Y17565000D01*
X54556428Y17530715D01*
X54590714Y17462143D01*
X54590714Y17393572D01*
X54556428Y17290715D01*
X54145000Y16879286D01*
X54590714Y16879286D01*
G04 #@! TO.C,R1*
X45855000Y26999286D02*
X45615000Y27342143D01*
X45443571Y26999286D02*
X45443571Y27719286D01*
X45717857Y27719286D01*
X45786428Y27685000D01*
X45820714Y27650715D01*
X45855000Y27582143D01*
X45855000Y27479286D01*
X45820714Y27410715D01*
X45786428Y27376429D01*
X45717857Y27342143D01*
X45443571Y27342143D01*
X46540714Y26999286D02*
X46129285Y26999286D01*
X46335000Y26999286D02*
X46335000Y27719286D01*
X46266428Y27616429D01*
X46197857Y27547858D01*
X46129285Y27513572D01*
G04 #@! TO.C,J5*
X66875000Y3619286D02*
X66875000Y3105000D01*
X66840714Y3002143D01*
X66772142Y2933572D01*
X66669285Y2899286D01*
X66600714Y2899286D01*
X67560714Y3619286D02*
X67217857Y3619286D01*
X67183571Y3276429D01*
X67217857Y3310715D01*
X67286428Y3345000D01*
X67457857Y3345000D01*
X67526428Y3310715D01*
X67560714Y3276429D01*
X67595000Y3207858D01*
X67595000Y3036429D01*
X67560714Y2967858D01*
X67526428Y2933572D01*
X67457857Y2899286D01*
X67286428Y2899286D01*
X67217857Y2933572D01*
X67183571Y2967858D01*
G04 #@! TO.C,J4*
X66875000Y37069286D02*
X66875000Y36555000D01*
X66840714Y36452143D01*
X66772142Y36383572D01*
X66669285Y36349286D01*
X66600714Y36349286D01*
X67526428Y36829286D02*
X67526428Y36349286D01*
X67355000Y37103572D02*
X67183571Y36589286D01*
X67629285Y36589286D01*
G04 #@! TO.C,J1*
X66445000Y26229286D02*
X66445000Y25715000D01*
X66410714Y25612143D01*
X66342142Y25543572D01*
X66239285Y25509286D01*
X66170714Y25509286D01*
X67165000Y25509286D02*
X66753571Y25509286D01*
X66959285Y25509286D02*
X66959285Y26229286D01*
X66890714Y26126429D01*
X66822142Y26057858D01*
X66753571Y26023572D01*
G04 #@! TO.C,F2*
X14425000Y23626429D02*
X14185000Y23626429D01*
X14185000Y23249286D02*
X14185000Y23969286D01*
X14527857Y23969286D01*
X14767857Y23900715D02*
X14802142Y23935000D01*
X14870714Y23969286D01*
X15042142Y23969286D01*
X15110714Y23935000D01*
X15145000Y23900715D01*
X15179285Y23832143D01*
X15179285Y23763572D01*
X15145000Y23660715D01*
X14733571Y23249286D01*
X15179285Y23249286D01*
G04 #@! TO.C,F1*
X47515000Y27376429D02*
X47275000Y27376429D01*
X47275000Y26999286D02*
X47275000Y27719286D01*
X47617857Y27719286D01*
X48269285Y26999286D02*
X47857857Y26999286D01*
X48063571Y26999286D02*
X48063571Y27719286D01*
X47995000Y27616429D01*
X47926428Y27547858D01*
X47857857Y27513572D01*
G04 #@! TO.C,D3*
X45443571Y12099286D02*
X45443571Y12819286D01*
X45615000Y12819286D01*
X45717857Y12785000D01*
X45786428Y12716429D01*
X45820714Y12647858D01*
X45855000Y12510715D01*
X45855000Y12407858D01*
X45820714Y12270715D01*
X45786428Y12202143D01*
X45717857Y12133572D01*
X45615000Y12099286D01*
X45443571Y12099286D01*
X46095000Y12819286D02*
X46540714Y12819286D01*
X46300714Y12545000D01*
X46403571Y12545000D01*
X46472142Y12510715D01*
X46506428Y12476429D01*
X46540714Y12407858D01*
X46540714Y12236429D01*
X46506428Y12167858D01*
X46472142Y12133572D01*
X46403571Y12099286D01*
X46197857Y12099286D01*
X46129285Y12133572D01*
X46095000Y12167858D01*
G04 #@! TO.C,D1*
X49443571Y26999286D02*
X49443571Y27719286D01*
X49615000Y27719286D01*
X49717857Y27685000D01*
X49786428Y27616429D01*
X49820714Y27547858D01*
X49855000Y27410715D01*
X49855000Y27307858D01*
X49820714Y27170715D01*
X49786428Y27102143D01*
X49717857Y27033572D01*
X49615000Y26999286D01*
X49443571Y26999286D01*
X50540714Y26999286D02*
X50129285Y26999286D01*
X50335000Y26999286D02*
X50335000Y27719286D01*
X50266428Y27616429D01*
X50197857Y27547858D01*
X50129285Y27513572D01*
G04 #@! TO.C,C13*
X31152142Y11967858D02*
X31117857Y11933572D01*
X31015000Y11899286D01*
X30946428Y11899286D01*
X30843571Y11933572D01*
X30775000Y12002143D01*
X30740714Y12070715D01*
X30706428Y12207858D01*
X30706428Y12310715D01*
X30740714Y12447858D01*
X30775000Y12516429D01*
X30843571Y12585000D01*
X30946428Y12619286D01*
X31015000Y12619286D01*
X31117857Y12585000D01*
X31152142Y12550715D01*
X31837857Y11899286D02*
X31426428Y11899286D01*
X31632142Y11899286D02*
X31632142Y12619286D01*
X31563571Y12516429D01*
X31495000Y12447858D01*
X31426428Y12413572D01*
X32077857Y12619286D02*
X32523571Y12619286D01*
X32283571Y12345000D01*
X32386428Y12345000D01*
X32455000Y12310715D01*
X32489285Y12276429D01*
X32523571Y12207858D01*
X32523571Y12036429D01*
X32489285Y11967858D01*
X32455000Y11933572D01*
X32386428Y11899286D01*
X32180714Y11899286D01*
X32112142Y11933572D01*
X32077857Y11967858D01*
G04 #@! TO.C,C12*
X6802142Y7417858D02*
X6767857Y7383572D01*
X6665000Y7349286D01*
X6596428Y7349286D01*
X6493571Y7383572D01*
X6425000Y7452143D01*
X6390714Y7520715D01*
X6356428Y7657858D01*
X6356428Y7760715D01*
X6390714Y7897858D01*
X6425000Y7966429D01*
X6493571Y8035000D01*
X6596428Y8069286D01*
X6665000Y8069286D01*
X6767857Y8035000D01*
X6802142Y8000715D01*
X7487857Y7349286D02*
X7076428Y7349286D01*
X7282142Y7349286D02*
X7282142Y8069286D01*
X7213571Y7966429D01*
X7145000Y7897858D01*
X7076428Y7863572D01*
X7762142Y8000715D02*
X7796428Y8035000D01*
X7865000Y8069286D01*
X8036428Y8069286D01*
X8105000Y8035000D01*
X8139285Y8000715D01*
X8173571Y7932143D01*
X8173571Y7863572D01*
X8139285Y7760715D01*
X7727857Y7349286D01*
X8173571Y7349286D01*
G04 #@! TO.C,C11*
X6802142Y32017858D02*
X6767857Y31983572D01*
X6665000Y31949286D01*
X6596428Y31949286D01*
X6493571Y31983572D01*
X6425000Y32052143D01*
X6390714Y32120715D01*
X6356428Y32257858D01*
X6356428Y32360715D01*
X6390714Y32497858D01*
X6425000Y32566429D01*
X6493571Y32635000D01*
X6596428Y32669286D01*
X6665000Y32669286D01*
X6767857Y32635000D01*
X6802142Y32600715D01*
X7487857Y31949286D02*
X7076428Y31949286D01*
X7282142Y31949286D02*
X7282142Y32669286D01*
X7213571Y32566429D01*
X7145000Y32497858D01*
X7076428Y32463572D01*
X8173571Y31949286D02*
X7762142Y31949286D01*
X7967857Y31949286D02*
X7967857Y32669286D01*
X7899285Y32566429D01*
X7830714Y32497858D01*
X7762142Y32463572D01*
G04 #@! TO.C,C10*
X22352142Y22567858D02*
X22317857Y22533572D01*
X22215000Y22499286D01*
X22146428Y22499286D01*
X22043571Y22533572D01*
X21975000Y22602143D01*
X21940714Y22670715D01*
X21906428Y22807858D01*
X21906428Y22910715D01*
X21940714Y23047858D01*
X21975000Y23116429D01*
X22043571Y23185000D01*
X22146428Y23219286D01*
X22215000Y23219286D01*
X22317857Y23185000D01*
X22352142Y23150715D01*
X23037857Y22499286D02*
X22626428Y22499286D01*
X22832142Y22499286D02*
X22832142Y23219286D01*
X22763571Y23116429D01*
X22695000Y23047858D01*
X22626428Y23013572D01*
X23483571Y23219286D02*
X23552142Y23219286D01*
X23620714Y23185000D01*
X23655000Y23150715D01*
X23689285Y23082143D01*
X23723571Y22945000D01*
X23723571Y22773572D01*
X23689285Y22636429D01*
X23655000Y22567858D01*
X23620714Y22533572D01*
X23552142Y22499286D01*
X23483571Y22499286D01*
X23415000Y22533572D01*
X23380714Y22567858D01*
X23346428Y22636429D01*
X23312142Y22773572D01*
X23312142Y22945000D01*
X23346428Y23082143D01*
X23380714Y23150715D01*
X23415000Y23185000D01*
X23483571Y23219286D01*
G04 #@! TO.C,C9*
X24595000Y22567858D02*
X24560714Y22533572D01*
X24457857Y22499286D01*
X24389285Y22499286D01*
X24286428Y22533572D01*
X24217857Y22602143D01*
X24183571Y22670715D01*
X24149285Y22807858D01*
X24149285Y22910715D01*
X24183571Y23047858D01*
X24217857Y23116429D01*
X24286428Y23185000D01*
X24389285Y23219286D01*
X24457857Y23219286D01*
X24560714Y23185000D01*
X24595000Y23150715D01*
X24937857Y22499286D02*
X25075000Y22499286D01*
X25143571Y22533572D01*
X25177857Y22567858D01*
X25246428Y22670715D01*
X25280714Y22807858D01*
X25280714Y23082143D01*
X25246428Y23150715D01*
X25212142Y23185000D01*
X25143571Y23219286D01*
X25006428Y23219286D01*
X24937857Y23185000D01*
X24903571Y23150715D01*
X24869285Y23082143D01*
X24869285Y22910715D01*
X24903571Y22842143D01*
X24937857Y22807858D01*
X25006428Y22773572D01*
X25143571Y22773572D01*
X25212142Y22807858D01*
X25246428Y22842143D01*
X25280714Y22910715D01*
G04 #@! TO.C,C8*
X39995000Y20187858D02*
X39960714Y20153572D01*
X39857857Y20119286D01*
X39789285Y20119286D01*
X39686428Y20153572D01*
X39617857Y20222143D01*
X39583571Y20290715D01*
X39549285Y20427858D01*
X39549285Y20530715D01*
X39583571Y20667858D01*
X39617857Y20736429D01*
X39686428Y20805000D01*
X39789285Y20839286D01*
X39857857Y20839286D01*
X39960714Y20805000D01*
X39995000Y20770715D01*
X40406428Y20530715D02*
X40337857Y20565000D01*
X40303571Y20599286D01*
X40269285Y20667858D01*
X40269285Y20702143D01*
X40303571Y20770715D01*
X40337857Y20805000D01*
X40406428Y20839286D01*
X40543571Y20839286D01*
X40612142Y20805000D01*
X40646428Y20770715D01*
X40680714Y20702143D01*
X40680714Y20667858D01*
X40646428Y20599286D01*
X40612142Y20565000D01*
X40543571Y20530715D01*
X40406428Y20530715D01*
X40337857Y20496429D01*
X40303571Y20462143D01*
X40269285Y20393572D01*
X40269285Y20256429D01*
X40303571Y20187858D01*
X40337857Y20153572D01*
X40406428Y20119286D01*
X40543571Y20119286D01*
X40612142Y20153572D01*
X40646428Y20187858D01*
X40680714Y20256429D01*
X40680714Y20393572D01*
X40646428Y20462143D01*
X40612142Y20496429D01*
X40543571Y20530715D01*
G04 #@! TO.C,C7*
X31625000Y28587858D02*
X31590714Y28553572D01*
X31487857Y28519286D01*
X31419285Y28519286D01*
X31316428Y28553572D01*
X31247857Y28622143D01*
X31213571Y28690715D01*
X31179285Y28827858D01*
X31179285Y28930715D01*
X31213571Y29067858D01*
X31247857Y29136429D01*
X31316428Y29205000D01*
X31419285Y29239286D01*
X31487857Y29239286D01*
X31590714Y29205000D01*
X31625000Y29170715D01*
X31865000Y29239286D02*
X32345000Y29239286D01*
X32036428Y28519286D01*
G04 #@! TO.C,C6*
X20205000Y15317858D02*
X20170714Y15283572D01*
X20067857Y15249286D01*
X19999285Y15249286D01*
X19896428Y15283572D01*
X19827857Y15352143D01*
X19793571Y15420715D01*
X19759285Y15557858D01*
X19759285Y15660715D01*
X19793571Y15797858D01*
X19827857Y15866429D01*
X19896428Y15935000D01*
X19999285Y15969286D01*
X20067857Y15969286D01*
X20170714Y15935000D01*
X20205000Y15900715D01*
X20822142Y15969286D02*
X20685000Y15969286D01*
X20616428Y15935000D01*
X20582142Y15900715D01*
X20513571Y15797858D01*
X20479285Y15660715D01*
X20479285Y15386429D01*
X20513571Y15317858D01*
X20547857Y15283572D01*
X20616428Y15249286D01*
X20753571Y15249286D01*
X20822142Y15283572D01*
X20856428Y15317858D01*
X20890714Y15386429D01*
X20890714Y15557858D01*
X20856428Y15626429D01*
X20822142Y15660715D01*
X20753571Y15695000D01*
X20616428Y15695000D01*
X20547857Y15660715D01*
X20513571Y15626429D01*
X20479285Y15557858D01*
G04 #@! TO.C,C5*
X23805000Y15317858D02*
X23770714Y15283572D01*
X23667857Y15249286D01*
X23599285Y15249286D01*
X23496428Y15283572D01*
X23427857Y15352143D01*
X23393571Y15420715D01*
X23359285Y15557858D01*
X23359285Y15660715D01*
X23393571Y15797858D01*
X23427857Y15866429D01*
X23496428Y15935000D01*
X23599285Y15969286D01*
X23667857Y15969286D01*
X23770714Y15935000D01*
X23805000Y15900715D01*
X24456428Y15969286D02*
X24113571Y15969286D01*
X24079285Y15626429D01*
X24113571Y15660715D01*
X24182142Y15695000D01*
X24353571Y15695000D01*
X24422142Y15660715D01*
X24456428Y15626429D01*
X24490714Y15557858D01*
X24490714Y15386429D01*
X24456428Y15317858D01*
X24422142Y15283572D01*
X24353571Y15249286D01*
X24182142Y15249286D01*
X24113571Y15283572D01*
X24079285Y15317858D01*
G04 #@! TO.C,C4*
X18795000Y26067858D02*
X18760714Y26033572D01*
X18657857Y25999286D01*
X18589285Y25999286D01*
X18486428Y26033572D01*
X18417857Y26102143D01*
X18383571Y26170715D01*
X18349285Y26307858D01*
X18349285Y26410715D01*
X18383571Y26547858D01*
X18417857Y26616429D01*
X18486428Y26685000D01*
X18589285Y26719286D01*
X18657857Y26719286D01*
X18760714Y26685000D01*
X18795000Y26650715D01*
X19412142Y26479286D02*
X19412142Y25999286D01*
X19240714Y26753572D02*
X19069285Y26239286D01*
X19515000Y26239286D01*
G04 #@! TO.C,C3*
X43725000Y12167858D02*
X43690714Y12133572D01*
X43587857Y12099286D01*
X43519285Y12099286D01*
X43416428Y12133572D01*
X43347857Y12202143D01*
X43313571Y12270715D01*
X43279285Y12407858D01*
X43279285Y12510715D01*
X43313571Y12647858D01*
X43347857Y12716429D01*
X43416428Y12785000D01*
X43519285Y12819286D01*
X43587857Y12819286D01*
X43690714Y12785000D01*
X43725000Y12750715D01*
X43965000Y12819286D02*
X44410714Y12819286D01*
X44170714Y12545000D01*
X44273571Y12545000D01*
X44342142Y12510715D01*
X44376428Y12476429D01*
X44410714Y12407858D01*
X44410714Y12236429D01*
X44376428Y12167858D01*
X44342142Y12133572D01*
X44273571Y12099286D01*
X44067857Y12099286D01*
X43999285Y12133572D01*
X43965000Y12167858D01*
G04 #@! TO.C,C2*
X47795000Y12167858D02*
X47760714Y12133572D01*
X47657857Y12099286D01*
X47589285Y12099286D01*
X47486428Y12133572D01*
X47417857Y12202143D01*
X47383571Y12270715D01*
X47349285Y12407858D01*
X47349285Y12510715D01*
X47383571Y12647858D01*
X47417857Y12716429D01*
X47486428Y12785000D01*
X47589285Y12819286D01*
X47657857Y12819286D01*
X47760714Y12785000D01*
X47795000Y12750715D01*
X48069285Y12750715D02*
X48103571Y12785000D01*
X48172142Y12819286D01*
X48343571Y12819286D01*
X48412142Y12785000D01*
X48446428Y12750715D01*
X48480714Y12682143D01*
X48480714Y12613572D01*
X48446428Y12510715D01*
X48035000Y12099286D01*
X48480714Y12099286D01*
G04 #@! TO.C,C1*
X49595000Y12167858D02*
X49560714Y12133572D01*
X49457857Y12099286D01*
X49389285Y12099286D01*
X49286428Y12133572D01*
X49217857Y12202143D01*
X49183571Y12270715D01*
X49149285Y12407858D01*
X49149285Y12510715D01*
X49183571Y12647858D01*
X49217857Y12716429D01*
X49286428Y12785000D01*
X49389285Y12819286D01*
X49457857Y12819286D01*
X49560714Y12785000D01*
X49595000Y12750715D01*
X50280714Y12099286D02*
X49869285Y12099286D01*
X50075000Y12099286D02*
X50075000Y12819286D01*
X50006428Y12716429D01*
X49937857Y12647858D01*
X49869285Y12613572D01*
G04 #@! TD*
M02*
