G04 #@! TF.GenerationSoftware,KiCad,Pcbnew,5.1.8+dfsg1-1~bpo10+1*
G04 #@! TF.CreationDate,2020-12-26T22:42:37+08:00*
G04 #@! TF.ProjectId,stm32-io-extend,73746d33-322d-4696-9f2d-657874656e64,rev?*
G04 #@! TF.SameCoordinates,PX4cf27c8PY5b7b308*
G04 #@! TF.FileFunction,Copper,L1,Top*
G04 #@! TF.FilePolarity,Positive*
%FSLAX46Y46*%
G04 Gerber Fmt 4.6, Leading zero omitted, Abs format (unit mm)*
G04 Created by KiCad (PCBNEW 5.1.8+dfsg1-1~bpo10+1) date 2020-12-26 22:42:37*
%MOMM*%
%LPD*%
G01*
G04 APERTURE LIST*
G04 #@! TA.AperFunction,SMDPad,CuDef*
%ADD10R,1.900000X0.800000*%
G04 #@! TD*
G04 #@! TA.AperFunction,SMDPad,CuDef*
%ADD11R,1.800000X2.100000*%
G04 #@! TD*
G04 #@! TA.AperFunction,SMDPad,CuDef*
%ADD12C,0.100000*%
G04 #@! TD*
G04 #@! TA.AperFunction,SMDPad,CuDef*
%ADD13R,2.300000X0.900000*%
G04 #@! TD*
G04 #@! TA.AperFunction,SMDPad,CuDef*
%ADD14R,0.550000X1.700000*%
G04 #@! TD*
G04 #@! TA.AperFunction,SMDPad,CuDef*
%ADD15R,1.000000X0.900000*%
G04 #@! TD*
G04 #@! TA.AperFunction,ComponentPad*
%ADD16O,1.700000X1.700000*%
G04 #@! TD*
G04 #@! TA.AperFunction,ComponentPad*
%ADD17R,1.700000X1.700000*%
G04 #@! TD*
G04 #@! TA.AperFunction,SMDPad,CuDef*
%ADD18R,1.160000X0.600000*%
G04 #@! TD*
G04 #@! TA.AperFunction,SMDPad,CuDef*
%ADD19R,1.160000X0.300000*%
G04 #@! TD*
G04 #@! TA.AperFunction,ComponentPad*
%ADD20O,1.700000X0.900000*%
G04 #@! TD*
G04 #@! TA.AperFunction,ComponentPad*
%ADD21O,2.000000X0.900000*%
G04 #@! TD*
G04 #@! TA.AperFunction,SMDPad,CuDef*
%ADD22R,1.000000X1.000000*%
G04 #@! TD*
G04 #@! TA.AperFunction,ViaPad*
%ADD23C,0.800000*%
G04 #@! TD*
G04 #@! TA.AperFunction,Conductor*
%ADD24C,0.250000*%
G04 #@! TD*
G04 APERTURE END LIST*
G04 #@! TO.P,U2,48*
G04 #@! TO.N,VCC*
G04 #@! TA.AperFunction,SMDPad,CuDef*
G36*
G01*
X27189516Y20939264D02*
X26252600Y21876180D01*
G75*
G02*
X26252600Y21982246I53033J53033D01*
G01*
X26358666Y22088312D01*
G75*
G02*
X26464732Y22088312I53033J-53033D01*
G01*
X27401648Y21151396D01*
G75*
G02*
X27401648Y21045330I-53033J-53033D01*
G01*
X27295582Y20939264D01*
G75*
G02*
X27189516Y20939264I-53033J53033D01*
G01*
G37*
G04 #@! TD.AperFunction*
G04 #@! TO.P,U2,47*
G04 #@! TO.N,GND*
G04 #@! TA.AperFunction,SMDPad,CuDef*
G36*
G01*
X27543070Y21292818D02*
X26606154Y22229734D01*
G75*
G02*
X26606154Y22335800I53033J53033D01*
G01*
X26712220Y22441866D01*
G75*
G02*
X26818286Y22441866I53033J-53033D01*
G01*
X27755202Y21504950D01*
G75*
G02*
X27755202Y21398884I-53033J-53033D01*
G01*
X27649136Y21292818D01*
G75*
G02*
X27543070Y21292818I-53033J53033D01*
G01*
G37*
G04 #@! TD.AperFunction*
G04 #@! TO.P,U2,46*
G04 #@! TO.N,/PB9*
G04 #@! TA.AperFunction,SMDPad,CuDef*
G36*
G01*
X27896623Y21646371D02*
X26959707Y22583287D01*
G75*
G02*
X26959707Y22689353I53033J53033D01*
G01*
X27065773Y22795419D01*
G75*
G02*
X27171839Y22795419I53033J-53033D01*
G01*
X28108755Y21858503D01*
G75*
G02*
X28108755Y21752437I-53033J-53033D01*
G01*
X28002689Y21646371D01*
G75*
G02*
X27896623Y21646371I-53033J53033D01*
G01*
G37*
G04 #@! TD.AperFunction*
G04 #@! TO.P,U2,45*
G04 #@! TO.N,/PB8*
G04 #@! TA.AperFunction,SMDPad,CuDef*
G36*
G01*
X28250177Y21999925D02*
X27313261Y22936841D01*
G75*
G02*
X27313261Y23042907I53033J53033D01*
G01*
X27419327Y23148973D01*
G75*
G02*
X27525393Y23148973I53033J-53033D01*
G01*
X28462309Y22212057D01*
G75*
G02*
X28462309Y22105991I-53033J-53033D01*
G01*
X28356243Y21999925D01*
G75*
G02*
X28250177Y21999925I-53033J53033D01*
G01*
G37*
G04 #@! TD.AperFunction*
G04 #@! TO.P,U2,44*
G04 #@! TO.N,Net-(R10-Pad2)*
G04 #@! TA.AperFunction,SMDPad,CuDef*
G36*
G01*
X28603730Y22353478D02*
X27666814Y23290394D01*
G75*
G02*
X27666814Y23396460I53033J53033D01*
G01*
X27772880Y23502526D01*
G75*
G02*
X27878946Y23502526I53033J-53033D01*
G01*
X28815862Y22565610D01*
G75*
G02*
X28815862Y22459544I-53033J-53033D01*
G01*
X28709796Y22353478D01*
G75*
G02*
X28603730Y22353478I-53033J53033D01*
G01*
G37*
G04 #@! TD.AperFunction*
G04 #@! TO.P,U2,43*
G04 #@! TO.N,/PB7*
G04 #@! TA.AperFunction,SMDPad,CuDef*
G36*
G01*
X28957283Y22707031D02*
X28020367Y23643947D01*
G75*
G02*
X28020367Y23750013I53033J53033D01*
G01*
X28126433Y23856079D01*
G75*
G02*
X28232499Y23856079I53033J-53033D01*
G01*
X29169415Y22919163D01*
G75*
G02*
X29169415Y22813097I-53033J-53033D01*
G01*
X29063349Y22707031D01*
G75*
G02*
X28957283Y22707031I-53033J53033D01*
G01*
G37*
G04 #@! TD.AperFunction*
G04 #@! TO.P,U2,42*
G04 #@! TO.N,/PB6*
G04 #@! TA.AperFunction,SMDPad,CuDef*
G36*
G01*
X29310837Y23060585D02*
X28373921Y23997501D01*
G75*
G02*
X28373921Y24103567I53033J53033D01*
G01*
X28479987Y24209633D01*
G75*
G02*
X28586053Y24209633I53033J-53033D01*
G01*
X29522969Y23272717D01*
G75*
G02*
X29522969Y23166651I-53033J-53033D01*
G01*
X29416903Y23060585D01*
G75*
G02*
X29310837Y23060585I-53033J53033D01*
G01*
G37*
G04 #@! TD.AperFunction*
G04 #@! TO.P,U2,41*
G04 #@! TO.N,/PB5*
G04 #@! TA.AperFunction,SMDPad,CuDef*
G36*
G01*
X29664390Y23414138D02*
X28727474Y24351054D01*
G75*
G02*
X28727474Y24457120I53033J53033D01*
G01*
X28833540Y24563186D01*
G75*
G02*
X28939606Y24563186I53033J-53033D01*
G01*
X29876522Y23626270D01*
G75*
G02*
X29876522Y23520204I-53033J-53033D01*
G01*
X29770456Y23414138D01*
G75*
G02*
X29664390Y23414138I-53033J53033D01*
G01*
G37*
G04 #@! TD.AperFunction*
G04 #@! TO.P,U2,40*
G04 #@! TO.N,/PB4*
G04 #@! TA.AperFunction,SMDPad,CuDef*
G36*
G01*
X30017943Y23767691D02*
X29081027Y24704607D01*
G75*
G02*
X29081027Y24810673I53033J53033D01*
G01*
X29187093Y24916739D01*
G75*
G02*
X29293159Y24916739I53033J-53033D01*
G01*
X30230075Y23979823D01*
G75*
G02*
X30230075Y23873757I-53033J-53033D01*
G01*
X30124009Y23767691D01*
G75*
G02*
X30017943Y23767691I-53033J53033D01*
G01*
G37*
G04 #@! TD.AperFunction*
G04 #@! TO.P,U2,39*
G04 #@! TO.N,/PB3*
G04 #@! TA.AperFunction,SMDPad,CuDef*
G36*
G01*
X30371497Y24121245D02*
X29434581Y25058161D01*
G75*
G02*
X29434581Y25164227I53033J53033D01*
G01*
X29540647Y25270293D01*
G75*
G02*
X29646713Y25270293I53033J-53033D01*
G01*
X30583629Y24333377D01*
G75*
G02*
X30583629Y24227311I-53033J-53033D01*
G01*
X30477563Y24121245D01*
G75*
G02*
X30371497Y24121245I-53033J53033D01*
G01*
G37*
G04 #@! TD.AperFunction*
G04 #@! TO.P,U2,38*
G04 #@! TO.N,/PA15*
G04 #@! TA.AperFunction,SMDPad,CuDef*
G36*
G01*
X30725050Y24474798D02*
X29788134Y25411714D01*
G75*
G02*
X29788134Y25517780I53033J53033D01*
G01*
X29894200Y25623846D01*
G75*
G02*
X30000266Y25623846I53033J-53033D01*
G01*
X30937182Y24686930D01*
G75*
G02*
X30937182Y24580864I-53033J-53033D01*
G01*
X30831116Y24474798D01*
G75*
G02*
X30725050Y24474798I-53033J53033D01*
G01*
G37*
G04 #@! TD.AperFunction*
G04 #@! TO.P,U2,37*
G04 #@! TO.N,/PA14*
G04 #@! TA.AperFunction,SMDPad,CuDef*
G36*
G01*
X31078604Y24828352D02*
X30141688Y25765268D01*
G75*
G02*
X30141688Y25871334I53033J53033D01*
G01*
X30247754Y25977400D01*
G75*
G02*
X30353820Y25977400I53033J-53033D01*
G01*
X31290736Y25040484D01*
G75*
G02*
X31290736Y24934418I-53033J-53033D01*
G01*
X31184670Y24828352D01*
G75*
G02*
X31078604Y24828352I-53033J53033D01*
G01*
G37*
G04 #@! TD.AperFunction*
G04 #@! TO.P,U2,36*
G04 #@! TO.N,VCC*
G04 #@! TA.AperFunction,SMDPad,CuDef*
G36*
G01*
X32245330Y24828352D02*
X32139264Y24934418D01*
G75*
G02*
X32139264Y25040484I53033J53033D01*
G01*
X33076180Y25977400D01*
G75*
G02*
X33182246Y25977400I53033J-53033D01*
G01*
X33288312Y25871334D01*
G75*
G02*
X33288312Y25765268I-53033J-53033D01*
G01*
X32351396Y24828352D01*
G75*
G02*
X32245330Y24828352I-53033J53033D01*
G01*
G37*
G04 #@! TD.AperFunction*
G04 #@! TO.P,U2,35*
G04 #@! TO.N,GND*
G04 #@! TA.AperFunction,SMDPad,CuDef*
G36*
G01*
X32598884Y24474798D02*
X32492818Y24580864D01*
G75*
G02*
X32492818Y24686930I53033J53033D01*
G01*
X33429734Y25623846D01*
G75*
G02*
X33535800Y25623846I53033J-53033D01*
G01*
X33641866Y25517780D01*
G75*
G02*
X33641866Y25411714I-53033J-53033D01*
G01*
X32704950Y24474798D01*
G75*
G02*
X32598884Y24474798I-53033J53033D01*
G01*
G37*
G04 #@! TD.AperFunction*
G04 #@! TO.P,U2,34*
G04 #@! TO.N,/PA13*
G04 #@! TA.AperFunction,SMDPad,CuDef*
G36*
G01*
X32952437Y24121245D02*
X32846371Y24227311D01*
G75*
G02*
X32846371Y24333377I53033J53033D01*
G01*
X33783287Y25270293D01*
G75*
G02*
X33889353Y25270293I53033J-53033D01*
G01*
X33995419Y25164227D01*
G75*
G02*
X33995419Y25058161I-53033J-53033D01*
G01*
X33058503Y24121245D01*
G75*
G02*
X32952437Y24121245I-53033J53033D01*
G01*
G37*
G04 #@! TD.AperFunction*
G04 #@! TO.P,U2,33*
G04 #@! TO.N,/PA12*
G04 #@! TA.AperFunction,SMDPad,CuDef*
G36*
G01*
X33305991Y23767691D02*
X33199925Y23873757D01*
G75*
G02*
X33199925Y23979823I53033J53033D01*
G01*
X34136841Y24916739D01*
G75*
G02*
X34242907Y24916739I53033J-53033D01*
G01*
X34348973Y24810673D01*
G75*
G02*
X34348973Y24704607I-53033J-53033D01*
G01*
X33412057Y23767691D01*
G75*
G02*
X33305991Y23767691I-53033J53033D01*
G01*
G37*
G04 #@! TD.AperFunction*
G04 #@! TO.P,U2,32*
G04 #@! TO.N,/PA11*
G04 #@! TA.AperFunction,SMDPad,CuDef*
G36*
G01*
X33659544Y23414138D02*
X33553478Y23520204D01*
G75*
G02*
X33553478Y23626270I53033J53033D01*
G01*
X34490394Y24563186D01*
G75*
G02*
X34596460Y24563186I53033J-53033D01*
G01*
X34702526Y24457120D01*
G75*
G02*
X34702526Y24351054I-53033J-53033D01*
G01*
X33765610Y23414138D01*
G75*
G02*
X33659544Y23414138I-53033J53033D01*
G01*
G37*
G04 #@! TD.AperFunction*
G04 #@! TO.P,U2,31*
G04 #@! TO.N,/PA10*
G04 #@! TA.AperFunction,SMDPad,CuDef*
G36*
G01*
X34013097Y23060585D02*
X33907031Y23166651D01*
G75*
G02*
X33907031Y23272717I53033J53033D01*
G01*
X34843947Y24209633D01*
G75*
G02*
X34950013Y24209633I53033J-53033D01*
G01*
X35056079Y24103567D01*
G75*
G02*
X35056079Y23997501I-53033J-53033D01*
G01*
X34119163Y23060585D01*
G75*
G02*
X34013097Y23060585I-53033J53033D01*
G01*
G37*
G04 #@! TD.AperFunction*
G04 #@! TO.P,U2,30*
G04 #@! TO.N,/PA9*
G04 #@! TA.AperFunction,SMDPad,CuDef*
G36*
G01*
X34366651Y22707031D02*
X34260585Y22813097D01*
G75*
G02*
X34260585Y22919163I53033J53033D01*
G01*
X35197501Y23856079D01*
G75*
G02*
X35303567Y23856079I53033J-53033D01*
G01*
X35409633Y23750013D01*
G75*
G02*
X35409633Y23643947I-53033J-53033D01*
G01*
X34472717Y22707031D01*
G75*
G02*
X34366651Y22707031I-53033J53033D01*
G01*
G37*
G04 #@! TD.AperFunction*
G04 #@! TO.P,U2,29*
G04 #@! TO.N,/PA8*
G04 #@! TA.AperFunction,SMDPad,CuDef*
G36*
G01*
X34720204Y22353478D02*
X34614138Y22459544D01*
G75*
G02*
X34614138Y22565610I53033J53033D01*
G01*
X35551054Y23502526D01*
G75*
G02*
X35657120Y23502526I53033J-53033D01*
G01*
X35763186Y23396460D01*
G75*
G02*
X35763186Y23290394I-53033J-53033D01*
G01*
X34826270Y22353478D01*
G75*
G02*
X34720204Y22353478I-53033J53033D01*
G01*
G37*
G04 #@! TD.AperFunction*
G04 #@! TO.P,U2,28*
G04 #@! TO.N,/PB15*
G04 #@! TA.AperFunction,SMDPad,CuDef*
G36*
G01*
X35073757Y21999925D02*
X34967691Y22105991D01*
G75*
G02*
X34967691Y22212057I53033J53033D01*
G01*
X35904607Y23148973D01*
G75*
G02*
X36010673Y23148973I53033J-53033D01*
G01*
X36116739Y23042907D01*
G75*
G02*
X36116739Y22936841I-53033J-53033D01*
G01*
X35179823Y21999925D01*
G75*
G02*
X35073757Y21999925I-53033J53033D01*
G01*
G37*
G04 #@! TD.AperFunction*
G04 #@! TO.P,U2,27*
G04 #@! TO.N,/PB14*
G04 #@! TA.AperFunction,SMDPad,CuDef*
G36*
G01*
X35427311Y21646371D02*
X35321245Y21752437D01*
G75*
G02*
X35321245Y21858503I53033J53033D01*
G01*
X36258161Y22795419D01*
G75*
G02*
X36364227Y22795419I53033J-53033D01*
G01*
X36470293Y22689353D01*
G75*
G02*
X36470293Y22583287I-53033J-53033D01*
G01*
X35533377Y21646371D01*
G75*
G02*
X35427311Y21646371I-53033J53033D01*
G01*
G37*
G04 #@! TD.AperFunction*
G04 #@! TO.P,U2,26*
G04 #@! TO.N,/PB13*
G04 #@! TA.AperFunction,SMDPad,CuDef*
G36*
G01*
X35780864Y21292818D02*
X35674798Y21398884D01*
G75*
G02*
X35674798Y21504950I53033J53033D01*
G01*
X36611714Y22441866D01*
G75*
G02*
X36717780Y22441866I53033J-53033D01*
G01*
X36823846Y22335800D01*
G75*
G02*
X36823846Y22229734I-53033J-53033D01*
G01*
X35886930Y21292818D01*
G75*
G02*
X35780864Y21292818I-53033J53033D01*
G01*
G37*
G04 #@! TD.AperFunction*
G04 #@! TO.P,U2,25*
G04 #@! TO.N,/PB12*
G04 #@! TA.AperFunction,SMDPad,CuDef*
G36*
G01*
X36134418Y20939264D02*
X36028352Y21045330D01*
G75*
G02*
X36028352Y21151396I53033J53033D01*
G01*
X36965268Y22088312D01*
G75*
G02*
X37071334Y22088312I53033J-53033D01*
G01*
X37177400Y21982246D01*
G75*
G02*
X37177400Y21876180I-53033J-53033D01*
G01*
X36240484Y20939264D01*
G75*
G02*
X36134418Y20939264I-53033J53033D01*
G01*
G37*
G04 #@! TD.AperFunction*
G04 #@! TO.P,U2,24*
G04 #@! TO.N,VCC*
G04 #@! TA.AperFunction,SMDPad,CuDef*
G36*
G01*
X36965268Y18941688D02*
X36028352Y19878604D01*
G75*
G02*
X36028352Y19984670I53033J53033D01*
G01*
X36134418Y20090736D01*
G75*
G02*
X36240484Y20090736I53033J-53033D01*
G01*
X37177400Y19153820D01*
G75*
G02*
X37177400Y19047754I-53033J-53033D01*
G01*
X37071334Y18941688D01*
G75*
G02*
X36965268Y18941688I-53033J53033D01*
G01*
G37*
G04 #@! TD.AperFunction*
G04 #@! TO.P,U2,23*
G04 #@! TO.N,GND*
G04 #@! TA.AperFunction,SMDPad,CuDef*
G36*
G01*
X36611714Y18588134D02*
X35674798Y19525050D01*
G75*
G02*
X35674798Y19631116I53033J53033D01*
G01*
X35780864Y19737182D01*
G75*
G02*
X35886930Y19737182I53033J-53033D01*
G01*
X36823846Y18800266D01*
G75*
G02*
X36823846Y18694200I-53033J-53033D01*
G01*
X36717780Y18588134D01*
G75*
G02*
X36611714Y18588134I-53033J53033D01*
G01*
G37*
G04 #@! TD.AperFunction*
G04 #@! TO.P,U2,22*
G04 #@! TO.N,/PB11*
G04 #@! TA.AperFunction,SMDPad,CuDef*
G36*
G01*
X36258161Y18234581D02*
X35321245Y19171497D01*
G75*
G02*
X35321245Y19277563I53033J53033D01*
G01*
X35427311Y19383629D01*
G75*
G02*
X35533377Y19383629I53033J-53033D01*
G01*
X36470293Y18446713D01*
G75*
G02*
X36470293Y18340647I-53033J-53033D01*
G01*
X36364227Y18234581D01*
G75*
G02*
X36258161Y18234581I-53033J53033D01*
G01*
G37*
G04 #@! TD.AperFunction*
G04 #@! TO.P,U2,21*
G04 #@! TO.N,/PB10*
G04 #@! TA.AperFunction,SMDPad,CuDef*
G36*
G01*
X35904607Y17881027D02*
X34967691Y18817943D01*
G75*
G02*
X34967691Y18924009I53033J53033D01*
G01*
X35073757Y19030075D01*
G75*
G02*
X35179823Y19030075I53033J-53033D01*
G01*
X36116739Y18093159D01*
G75*
G02*
X36116739Y17987093I-53033J-53033D01*
G01*
X36010673Y17881027D01*
G75*
G02*
X35904607Y17881027I-53033J53033D01*
G01*
G37*
G04 #@! TD.AperFunction*
G04 #@! TO.P,U2,20*
G04 #@! TO.N,/PB2*
G04 #@! TA.AperFunction,SMDPad,CuDef*
G36*
G01*
X35551054Y17527474D02*
X34614138Y18464390D01*
G75*
G02*
X34614138Y18570456I53033J53033D01*
G01*
X34720204Y18676522D01*
G75*
G02*
X34826270Y18676522I53033J-53033D01*
G01*
X35763186Y17739606D01*
G75*
G02*
X35763186Y17633540I-53033J-53033D01*
G01*
X35657120Y17527474D01*
G75*
G02*
X35551054Y17527474I-53033J53033D01*
G01*
G37*
G04 #@! TD.AperFunction*
G04 #@! TO.P,U2,19*
G04 #@! TO.N,/PB1*
G04 #@! TA.AperFunction,SMDPad,CuDef*
G36*
G01*
X35197501Y17173921D02*
X34260585Y18110837D01*
G75*
G02*
X34260585Y18216903I53033J53033D01*
G01*
X34366651Y18322969D01*
G75*
G02*
X34472717Y18322969I53033J-53033D01*
G01*
X35409633Y17386053D01*
G75*
G02*
X35409633Y17279987I-53033J-53033D01*
G01*
X35303567Y17173921D01*
G75*
G02*
X35197501Y17173921I-53033J53033D01*
G01*
G37*
G04 #@! TD.AperFunction*
G04 #@! TO.P,U2,18*
G04 #@! TO.N,/PB0*
G04 #@! TA.AperFunction,SMDPad,CuDef*
G36*
G01*
X34843947Y16820367D02*
X33907031Y17757283D01*
G75*
G02*
X33907031Y17863349I53033J53033D01*
G01*
X34013097Y17969415D01*
G75*
G02*
X34119163Y17969415I53033J-53033D01*
G01*
X35056079Y17032499D01*
G75*
G02*
X35056079Y16926433I-53033J-53033D01*
G01*
X34950013Y16820367D01*
G75*
G02*
X34843947Y16820367I-53033J53033D01*
G01*
G37*
G04 #@! TD.AperFunction*
G04 #@! TO.P,U2,17*
G04 #@! TO.N,/DI*
G04 #@! TA.AperFunction,SMDPad,CuDef*
G36*
G01*
X34490394Y16466814D02*
X33553478Y17403730D01*
G75*
G02*
X33553478Y17509796I53033J53033D01*
G01*
X33659544Y17615862D01*
G75*
G02*
X33765610Y17615862I53033J-53033D01*
G01*
X34702526Y16678946D01*
G75*
G02*
X34702526Y16572880I-53033J-53033D01*
G01*
X34596460Y16466814D01*
G75*
G02*
X34490394Y16466814I-53033J53033D01*
G01*
G37*
G04 #@! TD.AperFunction*
G04 #@! TO.P,U2,16*
G04 #@! TO.N,/DO*
G04 #@! TA.AperFunction,SMDPad,CuDef*
G36*
G01*
X34136841Y16113261D02*
X33199925Y17050177D01*
G75*
G02*
X33199925Y17156243I53033J53033D01*
G01*
X33305991Y17262309D01*
G75*
G02*
X33412057Y17262309I53033J-53033D01*
G01*
X34348973Y16325393D01*
G75*
G02*
X34348973Y16219327I-53033J-53033D01*
G01*
X34242907Y16113261D01*
G75*
G02*
X34136841Y16113261I-53033J53033D01*
G01*
G37*
G04 #@! TD.AperFunction*
G04 #@! TO.P,U2,15*
G04 #@! TO.N,/CLK*
G04 #@! TA.AperFunction,SMDPad,CuDef*
G36*
G01*
X33783287Y15759707D02*
X32846371Y16696623D01*
G75*
G02*
X32846371Y16802689I53033J53033D01*
G01*
X32952437Y16908755D01*
G75*
G02*
X33058503Y16908755I53033J-53033D01*
G01*
X33995419Y15971839D01*
G75*
G02*
X33995419Y15865773I-53033J-53033D01*
G01*
X33889353Y15759707D01*
G75*
G02*
X33783287Y15759707I-53033J53033D01*
G01*
G37*
G04 #@! TD.AperFunction*
G04 #@! TO.P,U2,14*
G04 #@! TO.N,/CS*
G04 #@! TA.AperFunction,SMDPad,CuDef*
G36*
G01*
X33429734Y15406154D02*
X32492818Y16343070D01*
G75*
G02*
X32492818Y16449136I53033J53033D01*
G01*
X32598884Y16555202D01*
G75*
G02*
X32704950Y16555202I53033J-53033D01*
G01*
X33641866Y15618286D01*
G75*
G02*
X33641866Y15512220I-53033J-53033D01*
G01*
X33535800Y15406154D01*
G75*
G02*
X33429734Y15406154I-53033J53033D01*
G01*
G37*
G04 #@! TD.AperFunction*
G04 #@! TO.P,U2,13*
G04 #@! TO.N,/PA3*
G04 #@! TA.AperFunction,SMDPad,CuDef*
G36*
G01*
X33076180Y15052600D02*
X32139264Y15989516D01*
G75*
G02*
X32139264Y16095582I53033J53033D01*
G01*
X32245330Y16201648D01*
G75*
G02*
X32351396Y16201648I53033J-53033D01*
G01*
X33288312Y15264732D01*
G75*
G02*
X33288312Y15158666I-53033J-53033D01*
G01*
X33182246Y15052600D01*
G75*
G02*
X33076180Y15052600I-53033J53033D01*
G01*
G37*
G04 #@! TD.AperFunction*
G04 #@! TO.P,U2,12*
G04 #@! TO.N,/PA2*
G04 #@! TA.AperFunction,SMDPad,CuDef*
G36*
G01*
X30247754Y15052600D02*
X30141688Y15158666D01*
G75*
G02*
X30141688Y15264732I53033J53033D01*
G01*
X31078604Y16201648D01*
G75*
G02*
X31184670Y16201648I53033J-53033D01*
G01*
X31290736Y16095582D01*
G75*
G02*
X31290736Y15989516I-53033J-53033D01*
G01*
X30353820Y15052600D01*
G75*
G02*
X30247754Y15052600I-53033J53033D01*
G01*
G37*
G04 #@! TD.AperFunction*
G04 #@! TO.P,U2,11*
G04 #@! TO.N,/PA1*
G04 #@! TA.AperFunction,SMDPad,CuDef*
G36*
G01*
X29894200Y15406154D02*
X29788134Y15512220D01*
G75*
G02*
X29788134Y15618286I53033J53033D01*
G01*
X30725050Y16555202D01*
G75*
G02*
X30831116Y16555202I53033J-53033D01*
G01*
X30937182Y16449136D01*
G75*
G02*
X30937182Y16343070I-53033J-53033D01*
G01*
X30000266Y15406154D01*
G75*
G02*
X29894200Y15406154I-53033J53033D01*
G01*
G37*
G04 #@! TD.AperFunction*
G04 #@! TO.P,U2,10*
G04 #@! TO.N,/PA0*
G04 #@! TA.AperFunction,SMDPad,CuDef*
G36*
G01*
X29540647Y15759707D02*
X29434581Y15865773D01*
G75*
G02*
X29434581Y15971839I53033J53033D01*
G01*
X30371497Y16908755D01*
G75*
G02*
X30477563Y16908755I53033J-53033D01*
G01*
X30583629Y16802689D01*
G75*
G02*
X30583629Y16696623I-53033J-53033D01*
G01*
X29646713Y15759707D01*
G75*
G02*
X29540647Y15759707I-53033J53033D01*
G01*
G37*
G04 #@! TD.AperFunction*
G04 #@! TO.P,U2,9*
G04 #@! TO.N,VCC*
G04 #@! TA.AperFunction,SMDPad,CuDef*
G36*
G01*
X29187093Y16113261D02*
X29081027Y16219327D01*
G75*
G02*
X29081027Y16325393I53033J53033D01*
G01*
X30017943Y17262309D01*
G75*
G02*
X30124009Y17262309I53033J-53033D01*
G01*
X30230075Y17156243D01*
G75*
G02*
X30230075Y17050177I-53033J-53033D01*
G01*
X29293159Y16113261D01*
G75*
G02*
X29187093Y16113261I-53033J53033D01*
G01*
G37*
G04 #@! TD.AperFunction*
G04 #@! TO.P,U2,8*
G04 #@! TO.N,GND*
G04 #@! TA.AperFunction,SMDPad,CuDef*
G36*
G01*
X28833540Y16466814D02*
X28727474Y16572880D01*
G75*
G02*
X28727474Y16678946I53033J53033D01*
G01*
X29664390Y17615862D01*
G75*
G02*
X29770456Y17615862I53033J-53033D01*
G01*
X29876522Y17509796D01*
G75*
G02*
X29876522Y17403730I-53033J-53033D01*
G01*
X28939606Y16466814D01*
G75*
G02*
X28833540Y16466814I-53033J53033D01*
G01*
G37*
G04 #@! TD.AperFunction*
G04 #@! TO.P,U2,7*
G04 #@! TO.N,/NRST*
G04 #@! TA.AperFunction,SMDPad,CuDef*
G36*
G01*
X28479987Y16820367D02*
X28373921Y16926433D01*
G75*
G02*
X28373921Y17032499I53033J53033D01*
G01*
X29310837Y17969415D01*
G75*
G02*
X29416903Y17969415I53033J-53033D01*
G01*
X29522969Y17863349D01*
G75*
G02*
X29522969Y17757283I-53033J-53033D01*
G01*
X28586053Y16820367D01*
G75*
G02*
X28479987Y16820367I-53033J53033D01*
G01*
G37*
G04 #@! TD.AperFunction*
G04 #@! TO.P,U2,6*
G04 #@! TO.N,/OSC_OUT*
G04 #@! TA.AperFunction,SMDPad,CuDef*
G36*
G01*
X28126433Y17173921D02*
X28020367Y17279987D01*
G75*
G02*
X28020367Y17386053I53033J53033D01*
G01*
X28957283Y18322969D01*
G75*
G02*
X29063349Y18322969I53033J-53033D01*
G01*
X29169415Y18216903D01*
G75*
G02*
X29169415Y18110837I-53033J-53033D01*
G01*
X28232499Y17173921D01*
G75*
G02*
X28126433Y17173921I-53033J53033D01*
G01*
G37*
G04 #@! TD.AperFunction*
G04 #@! TO.P,U2,5*
G04 #@! TO.N,/OSC_IN*
G04 #@! TA.AperFunction,SMDPad,CuDef*
G36*
G01*
X27772880Y17527474D02*
X27666814Y17633540D01*
G75*
G02*
X27666814Y17739606I53033J53033D01*
G01*
X28603730Y18676522D01*
G75*
G02*
X28709796Y18676522I53033J-53033D01*
G01*
X28815862Y18570456D01*
G75*
G02*
X28815862Y18464390I-53033J-53033D01*
G01*
X27878946Y17527474D01*
G75*
G02*
X27772880Y17527474I-53033J53033D01*
G01*
G37*
G04 #@! TD.AperFunction*
G04 #@! TO.P,U2,4*
G04 #@! TO.N,/PC15*
G04 #@! TA.AperFunction,SMDPad,CuDef*
G36*
G01*
X27419327Y17881027D02*
X27313261Y17987093D01*
G75*
G02*
X27313261Y18093159I53033J53033D01*
G01*
X28250177Y19030075D01*
G75*
G02*
X28356243Y19030075I53033J-53033D01*
G01*
X28462309Y18924009D01*
G75*
G02*
X28462309Y18817943I-53033J-53033D01*
G01*
X27525393Y17881027D01*
G75*
G02*
X27419327Y17881027I-53033J53033D01*
G01*
G37*
G04 #@! TD.AperFunction*
G04 #@! TO.P,U2,3*
G04 #@! TO.N,/PC14*
G04 #@! TA.AperFunction,SMDPad,CuDef*
G36*
G01*
X27065773Y18234581D02*
X26959707Y18340647D01*
G75*
G02*
X26959707Y18446713I53033J53033D01*
G01*
X27896623Y19383629D01*
G75*
G02*
X28002689Y19383629I53033J-53033D01*
G01*
X28108755Y19277563D01*
G75*
G02*
X28108755Y19171497I-53033J-53033D01*
G01*
X27171839Y18234581D01*
G75*
G02*
X27065773Y18234581I-53033J53033D01*
G01*
G37*
G04 #@! TD.AperFunction*
G04 #@! TO.P,U2,2*
G04 #@! TO.N,/PC13*
G04 #@! TA.AperFunction,SMDPad,CuDef*
G36*
G01*
X26712220Y18588134D02*
X26606154Y18694200D01*
G75*
G02*
X26606154Y18800266I53033J53033D01*
G01*
X27543070Y19737182D01*
G75*
G02*
X27649136Y19737182I53033J-53033D01*
G01*
X27755202Y19631116D01*
G75*
G02*
X27755202Y19525050I-53033J-53033D01*
G01*
X26818286Y18588134D01*
G75*
G02*
X26712220Y18588134I-53033J53033D01*
G01*
G37*
G04 #@! TD.AperFunction*
G04 #@! TO.P,U2,1*
G04 #@! TO.N,VCC*
G04 #@! TA.AperFunction,SMDPad,CuDef*
G36*
G01*
X26358666Y18941688D02*
X26252600Y19047754D01*
G75*
G02*
X26252600Y19153820I53033J53033D01*
G01*
X27189516Y20090736D01*
G75*
G02*
X27295582Y20090736I53033J-53033D01*
G01*
X27401648Y19984670D01*
G75*
G02*
X27401648Y19878604I-53033J-53033D01*
G01*
X26464732Y18941688D01*
G75*
G02*
X26358666Y18941688I-53033J53033D01*
G01*
G37*
G04 #@! TD.AperFunction*
G04 #@! TD*
G04 #@! TO.P,R14,2*
G04 #@! TO.N,Net-(J5-Pad6)*
G04 #@! TA.AperFunction,SMDPad,CuDef*
G36*
G01*
X6050000Y19667500D02*
X6050000Y20142500D01*
G75*
G02*
X6287500Y20380000I237500J0D01*
G01*
X6787500Y20380000D01*
G75*
G02*
X7025000Y20142500I0J-237500D01*
G01*
X7025000Y19667500D01*
G75*
G02*
X6787500Y19430000I-237500J0D01*
G01*
X6287500Y19430000D01*
G75*
G02*
X6050000Y19667500I0J237500D01*
G01*
G37*
G04 #@! TD.AperFunction*
G04 #@! TO.P,R14,1*
G04 #@! TO.N,Net-(D4-Pad1)*
G04 #@! TA.AperFunction,SMDPad,CuDef*
G36*
G01*
X4225000Y19667500D02*
X4225000Y20142500D01*
G75*
G02*
X4462500Y20380000I237500J0D01*
G01*
X4962500Y20380000D01*
G75*
G02*
X5200000Y20142500I0J-237500D01*
G01*
X5200000Y19667500D01*
G75*
G02*
X4962500Y19430000I-237500J0D01*
G01*
X4462500Y19430000D01*
G75*
G02*
X4225000Y19667500I0J237500D01*
G01*
G37*
G04 #@! TD.AperFunction*
G04 #@! TD*
D10*
G04 #@! TO.P,Q1,3*
G04 #@! TO.N,VCC*
X14485000Y20305000D03*
G04 #@! TO.P,Q1,2*
G04 #@! TO.N,Net-(D5-Pad2)*
X11485000Y19355000D03*
G04 #@! TO.P,Q1,1*
G04 #@! TO.N,Net-(Q1-Pad1)*
X11485000Y21255000D03*
G04 #@! TD*
G04 #@! TO.P,D5,2*
G04 #@! TO.N,Net-(D5-Pad2)*
G04 #@! TA.AperFunction,SMDPad,CuDef*
G36*
G01*
X8752500Y20465000D02*
X8277500Y20465000D01*
G75*
G02*
X8040000Y20702500I0J237500D01*
G01*
X8040000Y21277500D01*
G75*
G02*
X8277500Y21515000I237500J0D01*
G01*
X8752500Y21515000D01*
G75*
G02*
X8990000Y21277500I0J-237500D01*
G01*
X8990000Y20702500D01*
G75*
G02*
X8752500Y20465000I-237500J0D01*
G01*
G37*
G04 #@! TD.AperFunction*
G04 #@! TO.P,D5,1*
G04 #@! TO.N,Net-(D5-Pad1)*
G04 #@! TA.AperFunction,SMDPad,CuDef*
G36*
G01*
X8752500Y18715000D02*
X8277500Y18715000D01*
G75*
G02*
X8040000Y18952500I0J237500D01*
G01*
X8040000Y19527500D01*
G75*
G02*
X8277500Y19765000I237500J0D01*
G01*
X8752500Y19765000D01*
G75*
G02*
X8990000Y19527500I0J-237500D01*
G01*
X8990000Y18952500D01*
G75*
G02*
X8752500Y18715000I-237500J0D01*
G01*
G37*
G04 #@! TD.AperFunction*
G04 #@! TD*
G04 #@! TO.P,D4,2*
G04 #@! TO.N,VCC*
G04 #@! TA.AperFunction,SMDPad,CuDef*
G36*
G01*
X3012500Y20465000D02*
X2537500Y20465000D01*
G75*
G02*
X2300000Y20702500I0J237500D01*
G01*
X2300000Y21277500D01*
G75*
G02*
X2537500Y21515000I237500J0D01*
G01*
X3012500Y21515000D01*
G75*
G02*
X3250000Y21277500I0J-237500D01*
G01*
X3250000Y20702500D01*
G75*
G02*
X3012500Y20465000I-237500J0D01*
G01*
G37*
G04 #@! TD.AperFunction*
G04 #@! TO.P,D4,1*
G04 #@! TO.N,Net-(D4-Pad1)*
G04 #@! TA.AperFunction,SMDPad,CuDef*
G36*
G01*
X3012500Y18715000D02*
X2537500Y18715000D01*
G75*
G02*
X2300000Y18952500I0J237500D01*
G01*
X2300000Y19527500D01*
G75*
G02*
X2537500Y19765000I237500J0D01*
G01*
X3012500Y19765000D01*
G75*
G02*
X3250000Y19527500I0J-237500D01*
G01*
X3250000Y18952500D01*
G75*
G02*
X3012500Y18715000I-237500J0D01*
G01*
G37*
G04 #@! TD.AperFunction*
G04 #@! TD*
D11*
G04 #@! TO.P,Y1,4*
G04 #@! TO.N,GND*
X21165000Y9115000D03*
G04 #@! TO.P,Y1,3*
G04 #@! TO.N,/OSC_IN*
X21165000Y12015000D03*
G04 #@! TO.P,Y1,2*
G04 #@! TO.N,GND*
X23465000Y12015000D03*
G04 #@! TO.P,Y1,1*
G04 #@! TO.N,/OSC_OUT*
X23465000Y9115000D03*
G04 #@! TD*
G04 #@! TA.AperFunction,SMDPad,CuDef*
D12*
G04 #@! TO.P,U1,2*
G04 #@! TO.N,Net-(D3-Pad2)*
G36*
X49955000Y19038500D02*
G01*
X45830000Y19038500D01*
X45830000Y19455000D01*
X43355000Y19455000D01*
X43355000Y20355000D01*
X45830000Y20355000D01*
X45830000Y20771500D01*
X49955000Y20771500D01*
X49955000Y19038500D01*
G37*
G04 #@! TD.AperFunction*
D13*
G04 #@! TO.P,U1,3*
G04 #@! TO.N,Net-(C1-Pad1)*
X44505000Y18405000D03*
G04 #@! TO.P,U1,1*
G04 #@! TO.N,GND*
X44505000Y21405000D03*
G04 #@! TD*
D14*
G04 #@! TO.P,SW1,SH*
G04 #@! TO.N,N/C*
X20420000Y21195000D03*
D15*
G04 #@! TO.P,SW1,1*
G04 #@! TO.N,/NRST*
X19795000Y23245000D03*
G04 #@! TO.P,SW1,2*
G04 #@! TO.N,GND*
X18195000Y23245000D03*
G04 #@! TO.P,SW1,1*
G04 #@! TO.N,/NRST*
X19795000Y19145000D03*
G04 #@! TO.P,SW1,2*
G04 #@! TO.N,GND*
X18195000Y19145000D03*
G04 #@! TD*
G04 #@! TO.P,R13,2*
G04 #@! TO.N,GND*
G04 #@! TA.AperFunction,SMDPad,CuDef*
G36*
G01*
X62277500Y12200000D02*
X62752500Y12200000D01*
G75*
G02*
X62990000Y11962500I0J-237500D01*
G01*
X62990000Y11462500D01*
G75*
G02*
X62752500Y11225000I-237500J0D01*
G01*
X62277500Y11225000D01*
G75*
G02*
X62040000Y11462500I0J237500D01*
G01*
X62040000Y11962500D01*
G75*
G02*
X62277500Y12200000I237500J0D01*
G01*
G37*
G04 #@! TD.AperFunction*
G04 #@! TO.P,R13,1*
G04 #@! TO.N,/PB2*
G04 #@! TA.AperFunction,SMDPad,CuDef*
G36*
G01*
X62277500Y14025000D02*
X62752500Y14025000D01*
G75*
G02*
X62990000Y13787500I0J-237500D01*
G01*
X62990000Y13287500D01*
G75*
G02*
X62752500Y13050000I-237500J0D01*
G01*
X62277500Y13050000D01*
G75*
G02*
X62040000Y13287500I0J237500D01*
G01*
X62040000Y13787500D01*
G75*
G02*
X62277500Y14025000I237500J0D01*
G01*
G37*
G04 #@! TD.AperFunction*
G04 #@! TD*
G04 #@! TO.P,R12,2*
G04 #@! TO.N,/PB2*
G04 #@! TA.AperFunction,SMDPad,CuDef*
G36*
G01*
X64702500Y13050000D02*
X64227500Y13050000D01*
G75*
G02*
X63990000Y13287500I0J237500D01*
G01*
X63990000Y13787500D01*
G75*
G02*
X64227500Y14025000I237500J0D01*
G01*
X64702500Y14025000D01*
G75*
G02*
X64940000Y13787500I0J-237500D01*
G01*
X64940000Y13287500D01*
G75*
G02*
X64702500Y13050000I-237500J0D01*
G01*
G37*
G04 #@! TD.AperFunction*
G04 #@! TO.P,R12,1*
G04 #@! TO.N,/BOOT1_UP*
G04 #@! TA.AperFunction,SMDPad,CuDef*
G36*
G01*
X64702500Y11225000D02*
X64227500Y11225000D01*
G75*
G02*
X63990000Y11462500I0J237500D01*
G01*
X63990000Y11962500D01*
G75*
G02*
X64227500Y12200000I237500J0D01*
G01*
X64702500Y12200000D01*
G75*
G02*
X64940000Y11962500I0J-237500D01*
G01*
X64940000Y11462500D01*
G75*
G02*
X64702500Y11225000I-237500J0D01*
G01*
G37*
G04 #@! TD.AperFunction*
G04 #@! TD*
G04 #@! TO.P,R11,2*
G04 #@! TO.N,GND*
G04 #@! TA.AperFunction,SMDPad,CuDef*
G36*
G01*
X62752500Y27800000D02*
X62277500Y27800000D01*
G75*
G02*
X62040000Y28037500I0J237500D01*
G01*
X62040000Y28537500D01*
G75*
G02*
X62277500Y28775000I237500J0D01*
G01*
X62752500Y28775000D01*
G75*
G02*
X62990000Y28537500I0J-237500D01*
G01*
X62990000Y28037500D01*
G75*
G02*
X62752500Y27800000I-237500J0D01*
G01*
G37*
G04 #@! TD.AperFunction*
G04 #@! TO.P,R11,1*
G04 #@! TO.N,Net-(R10-Pad2)*
G04 #@! TA.AperFunction,SMDPad,CuDef*
G36*
G01*
X62752500Y25975000D02*
X62277500Y25975000D01*
G75*
G02*
X62040000Y26212500I0J237500D01*
G01*
X62040000Y26712500D01*
G75*
G02*
X62277500Y26950000I237500J0D01*
G01*
X62752500Y26950000D01*
G75*
G02*
X62990000Y26712500I0J-237500D01*
G01*
X62990000Y26212500D01*
G75*
G02*
X62752500Y25975000I-237500J0D01*
G01*
G37*
G04 #@! TD.AperFunction*
G04 #@! TD*
G04 #@! TO.P,R10,2*
G04 #@! TO.N,Net-(R10-Pad2)*
G04 #@! TA.AperFunction,SMDPad,CuDef*
G36*
G01*
X64227500Y26950000D02*
X64702500Y26950000D01*
G75*
G02*
X64940000Y26712500I0J-237500D01*
G01*
X64940000Y26212500D01*
G75*
G02*
X64702500Y25975000I-237500J0D01*
G01*
X64227500Y25975000D01*
G75*
G02*
X63990000Y26212500I0J237500D01*
G01*
X63990000Y26712500D01*
G75*
G02*
X64227500Y26950000I237500J0D01*
G01*
G37*
G04 #@! TD.AperFunction*
G04 #@! TO.P,R10,1*
G04 #@! TO.N,/BOOT0_UP*
G04 #@! TA.AperFunction,SMDPad,CuDef*
G36*
G01*
X64227500Y28775000D02*
X64702500Y28775000D01*
G75*
G02*
X64940000Y28537500I0J-237500D01*
G01*
X64940000Y28037500D01*
G75*
G02*
X64702500Y27800000I-237500J0D01*
G01*
X64227500Y27800000D01*
G75*
G02*
X63990000Y28037500I0J237500D01*
G01*
X63990000Y28537500D01*
G75*
G02*
X64227500Y28775000I237500J0D01*
G01*
G37*
G04 #@! TD.AperFunction*
G04 #@! TD*
G04 #@! TO.P,R9,2*
G04 #@! TO.N,GND*
G04 #@! TA.AperFunction,SMDPad,CuDef*
G36*
G01*
X5200000Y17662500D02*
X5200000Y17187500D01*
G75*
G02*
X4962500Y16950000I-237500J0D01*
G01*
X4462500Y16950000D01*
G75*
G02*
X4225000Y17187500I0J237500D01*
G01*
X4225000Y17662500D01*
G75*
G02*
X4462500Y17900000I237500J0D01*
G01*
X4962500Y17900000D01*
G75*
G02*
X5200000Y17662500I0J-237500D01*
G01*
G37*
G04 #@! TD.AperFunction*
G04 #@! TO.P,R9,1*
G04 #@! TO.N,Net-(D5-Pad1)*
G04 #@! TA.AperFunction,SMDPad,CuDef*
G36*
G01*
X7025000Y17662500D02*
X7025000Y17187500D01*
G75*
G02*
X6787500Y16950000I-237500J0D01*
G01*
X6287500Y16950000D01*
G75*
G02*
X6050000Y17187500I0J237500D01*
G01*
X6050000Y17662500D01*
G75*
G02*
X6287500Y17900000I237500J0D01*
G01*
X6787500Y17900000D01*
G75*
G02*
X7025000Y17662500I0J-237500D01*
G01*
G37*
G04 #@! TD.AperFunction*
G04 #@! TD*
G04 #@! TO.P,R8,2*
G04 #@! TO.N,/PA0*
G04 #@! TA.AperFunction,SMDPad,CuDef*
G36*
G01*
X12540000Y17007500D02*
X12540000Y17482500D01*
G75*
G02*
X12777500Y17720000I237500J0D01*
G01*
X13277500Y17720000D01*
G75*
G02*
X13515000Y17482500I0J-237500D01*
G01*
X13515000Y17007500D01*
G75*
G02*
X13277500Y16770000I-237500J0D01*
G01*
X12777500Y16770000D01*
G75*
G02*
X12540000Y17007500I0J237500D01*
G01*
G37*
G04 #@! TD.AperFunction*
G04 #@! TO.P,R8,1*
G04 #@! TO.N,Net-(Q1-Pad1)*
G04 #@! TA.AperFunction,SMDPad,CuDef*
G36*
G01*
X10715000Y17007500D02*
X10715000Y17482500D01*
G75*
G02*
X10952500Y17720000I237500J0D01*
G01*
X11452500Y17720000D01*
G75*
G02*
X11690000Y17482500I0J-237500D01*
G01*
X11690000Y17007500D01*
G75*
G02*
X11452500Y16770000I-237500J0D01*
G01*
X10952500Y16770000D01*
G75*
G02*
X10715000Y17007500I0J237500D01*
G01*
G37*
G04 #@! TD.AperFunction*
G04 #@! TD*
G04 #@! TO.P,R7,2*
G04 #@! TO.N,/nWP*
G04 #@! TA.AperFunction,SMDPad,CuDef*
G36*
G01*
X5200000Y22682500D02*
X5200000Y22207500D01*
G75*
G02*
X4962500Y21970000I-237500J0D01*
G01*
X4462500Y21970000D01*
G75*
G02*
X4225000Y22207500I0J237500D01*
G01*
X4225000Y22682500D01*
G75*
G02*
X4462500Y22920000I237500J0D01*
G01*
X4962500Y22920000D01*
G75*
G02*
X5200000Y22682500I0J-237500D01*
G01*
G37*
G04 #@! TD.AperFunction*
G04 #@! TO.P,R7,1*
G04 #@! TO.N,Net-(J5-Pad6)*
G04 #@! TA.AperFunction,SMDPad,CuDef*
G36*
G01*
X7025000Y22682500D02*
X7025000Y22207500D01*
G75*
G02*
X6787500Y21970000I-237500J0D01*
G01*
X6287500Y21970000D01*
G75*
G02*
X6050000Y22207500I0J237500D01*
G01*
X6050000Y22682500D01*
G75*
G02*
X6287500Y22920000I237500J0D01*
G01*
X6787500Y22920000D01*
G75*
G02*
X7025000Y22682500I0J-237500D01*
G01*
G37*
G04 #@! TD.AperFunction*
G04 #@! TD*
G04 #@! TO.P,R6,2*
G04 #@! TO.N,Net-(J1-PadA6)*
G04 #@! TA.AperFunction,SMDPad,CuDef*
G36*
G01*
X56840000Y27987500D02*
X56840000Y28462500D01*
G75*
G02*
X57077500Y28700000I237500J0D01*
G01*
X57577500Y28700000D01*
G75*
G02*
X57815000Y28462500I0J-237500D01*
G01*
X57815000Y27987500D01*
G75*
G02*
X57577500Y27750000I-237500J0D01*
G01*
X57077500Y27750000D01*
G75*
G02*
X56840000Y27987500I0J237500D01*
G01*
G37*
G04 #@! TD.AperFunction*
G04 #@! TO.P,R6,1*
G04 #@! TO.N,/PA13*
G04 #@! TA.AperFunction,SMDPad,CuDef*
G36*
G01*
X55015000Y27987500D02*
X55015000Y28462500D01*
G75*
G02*
X55252500Y28700000I237500J0D01*
G01*
X55752500Y28700000D01*
G75*
G02*
X55990000Y28462500I0J-237500D01*
G01*
X55990000Y27987500D01*
G75*
G02*
X55752500Y27750000I-237500J0D01*
G01*
X55252500Y27750000D01*
G75*
G02*
X55015000Y27987500I0J237500D01*
G01*
G37*
G04 #@! TD.AperFunction*
G04 #@! TD*
G04 #@! TO.P,R5,2*
G04 #@! TO.N,Net-(J1-PadA6)*
G04 #@! TA.AperFunction,SMDPad,CuDef*
G36*
G01*
X56840000Y20367500D02*
X56840000Y20842500D01*
G75*
G02*
X57077500Y21080000I237500J0D01*
G01*
X57577500Y21080000D01*
G75*
G02*
X57815000Y20842500I0J-237500D01*
G01*
X57815000Y20367500D01*
G75*
G02*
X57577500Y20130000I-237500J0D01*
G01*
X57077500Y20130000D01*
G75*
G02*
X56840000Y20367500I0J237500D01*
G01*
G37*
G04 #@! TD.AperFunction*
G04 #@! TO.P,R5,1*
G04 #@! TO.N,/PA12*
G04 #@! TA.AperFunction,SMDPad,CuDef*
G36*
G01*
X55015000Y20367500D02*
X55015000Y20842500D01*
G75*
G02*
X55252500Y21080000I237500J0D01*
G01*
X55752500Y21080000D01*
G75*
G02*
X55990000Y20842500I0J-237500D01*
G01*
X55990000Y20367500D01*
G75*
G02*
X55752500Y20130000I-237500J0D01*
G01*
X55252500Y20130000D01*
G75*
G02*
X55015000Y20367500I0J237500D01*
G01*
G37*
G04 #@! TD.AperFunction*
G04 #@! TD*
G04 #@! TO.P,R4,2*
G04 #@! TO.N,GND*
G04 #@! TA.AperFunction,SMDPad,CuDef*
G36*
G01*
X55990000Y22542500D02*
X55990000Y22067500D01*
G75*
G02*
X55752500Y21830000I-237500J0D01*
G01*
X55252500Y21830000D01*
G75*
G02*
X55015000Y22067500I0J237500D01*
G01*
X55015000Y22542500D01*
G75*
G02*
X55252500Y22780000I237500J0D01*
G01*
X55752500Y22780000D01*
G75*
G02*
X55990000Y22542500I0J-237500D01*
G01*
G37*
G04 #@! TD.AperFunction*
G04 #@! TO.P,R4,1*
G04 #@! TO.N,Net-(J1-PadB5)*
G04 #@! TA.AperFunction,SMDPad,CuDef*
G36*
G01*
X57815000Y22542500D02*
X57815000Y22067500D01*
G75*
G02*
X57577500Y21830000I-237500J0D01*
G01*
X57077500Y21830000D01*
G75*
G02*
X56840000Y22067500I0J237500D01*
G01*
X56840000Y22542500D01*
G75*
G02*
X57077500Y22780000I237500J0D01*
G01*
X57577500Y22780000D01*
G75*
G02*
X57815000Y22542500I0J-237500D01*
G01*
G37*
G04 #@! TD.AperFunction*
G04 #@! TD*
G04 #@! TO.P,R3,2*
G04 #@! TO.N,Net-(J1-PadA7)*
G04 #@! TA.AperFunction,SMDPad,CuDef*
G36*
G01*
X56840000Y18667500D02*
X56840000Y19142500D01*
G75*
G02*
X57077500Y19380000I237500J0D01*
G01*
X57577500Y19380000D01*
G75*
G02*
X57815000Y19142500I0J-237500D01*
G01*
X57815000Y18667500D01*
G75*
G02*
X57577500Y18430000I-237500J0D01*
G01*
X57077500Y18430000D01*
G75*
G02*
X56840000Y18667500I0J237500D01*
G01*
G37*
G04 #@! TD.AperFunction*
G04 #@! TO.P,R3,1*
G04 #@! TO.N,/PA11*
G04 #@! TA.AperFunction,SMDPad,CuDef*
G36*
G01*
X55015000Y18667500D02*
X55015000Y19142500D01*
G75*
G02*
X55252500Y19380000I237500J0D01*
G01*
X55752500Y19380000D01*
G75*
G02*
X55990000Y19142500I0J-237500D01*
G01*
X55990000Y18667500D01*
G75*
G02*
X55752500Y18430000I-237500J0D01*
G01*
X55252500Y18430000D01*
G75*
G02*
X55015000Y18667500I0J237500D01*
G01*
G37*
G04 #@! TD.AperFunction*
G04 #@! TD*
G04 #@! TO.P,R2,2*
G04 #@! TO.N,Net-(J1-PadA5)*
G04 #@! TA.AperFunction,SMDPad,CuDef*
G36*
G01*
X56840000Y16967500D02*
X56840000Y17442500D01*
G75*
G02*
X57077500Y17680000I237500J0D01*
G01*
X57577500Y17680000D01*
G75*
G02*
X57815000Y17442500I0J-237500D01*
G01*
X57815000Y16967500D01*
G75*
G02*
X57577500Y16730000I-237500J0D01*
G01*
X57077500Y16730000D01*
G75*
G02*
X56840000Y16967500I0J237500D01*
G01*
G37*
G04 #@! TD.AperFunction*
G04 #@! TO.P,R2,1*
G04 #@! TO.N,GND*
G04 #@! TA.AperFunction,SMDPad,CuDef*
G36*
G01*
X55015000Y16967500D02*
X55015000Y17442500D01*
G75*
G02*
X55252500Y17680000I237500J0D01*
G01*
X55752500Y17680000D01*
G75*
G02*
X55990000Y17442500I0J-237500D01*
G01*
X55990000Y16967500D01*
G75*
G02*
X55752500Y16730000I-237500J0D01*
G01*
X55252500Y16730000D01*
G75*
G02*
X55015000Y16967500I0J237500D01*
G01*
G37*
G04 #@! TD.AperFunction*
G04 #@! TD*
G04 #@! TO.P,R1,2*
G04 #@! TO.N,Net-(D2-Pad2)*
G04 #@! TA.AperFunction,SMDPad,CuDef*
G36*
G01*
X45952500Y25270000D02*
X45477500Y25270000D01*
G75*
G02*
X45240000Y25507500I0J237500D01*
G01*
X45240000Y26007500D01*
G75*
G02*
X45477500Y26245000I237500J0D01*
G01*
X45952500Y26245000D01*
G75*
G02*
X46190000Y26007500I0J-237500D01*
G01*
X46190000Y25507500D01*
G75*
G02*
X45952500Y25270000I-237500J0D01*
G01*
G37*
G04 #@! TD.AperFunction*
G04 #@! TO.P,R1,1*
G04 #@! TO.N,Net-(C1-Pad1)*
G04 #@! TA.AperFunction,SMDPad,CuDef*
G36*
G01*
X45952500Y23445000D02*
X45477500Y23445000D01*
G75*
G02*
X45240000Y23682500I0J237500D01*
G01*
X45240000Y24182500D01*
G75*
G02*
X45477500Y24420000I237500J0D01*
G01*
X45952500Y24420000D01*
G75*
G02*
X46190000Y24182500I0J-237500D01*
G01*
X46190000Y23682500D01*
G75*
G02*
X45952500Y23445000I-237500J0D01*
G01*
G37*
G04 #@! TD.AperFunction*
G04 #@! TD*
D16*
G04 #@! TO.P,J5,25*
G04 #@! TO.N,/PC13*
X3515000Y3275000D03*
G04 #@! TO.P,J5,24*
G04 #@! TO.N,/PC14*
X6055000Y3275000D03*
G04 #@! TO.P,J5,23*
G04 #@! TO.N,/PC15*
X8595000Y3275000D03*
G04 #@! TO.P,J5,22*
G04 #@! TO.N,/OSC_IN*
X11135000Y3275000D03*
G04 #@! TO.P,J5,21*
G04 #@! TO.N,/OSC_OUT*
X13675000Y3275000D03*
G04 #@! TO.P,J5,20*
G04 #@! TO.N,/PA0*
X16215000Y3275000D03*
G04 #@! TO.P,J5,19*
G04 #@! TO.N,/PA1*
X18755000Y3275000D03*
G04 #@! TO.P,J5,18*
G04 #@! TO.N,/PA2*
X21295000Y3275000D03*
G04 #@! TO.P,J5,17*
G04 #@! TO.N,/PA3*
X23835000Y3275000D03*
G04 #@! TO.P,J5,16*
G04 #@! TO.N,/CS*
X26375000Y3275000D03*
G04 #@! TO.P,J5,15*
G04 #@! TO.N,/CLK*
X28915000Y3275000D03*
G04 #@! TO.P,J5,14*
G04 #@! TO.N,/DO*
X31455000Y3275000D03*
G04 #@! TO.P,J5,13*
G04 #@! TO.N,/DI*
X33995000Y3275000D03*
G04 #@! TO.P,J5,12*
G04 #@! TO.N,/PB0*
X36535000Y3275000D03*
G04 #@! TO.P,J5,11*
G04 #@! TO.N,/PB1*
X39075000Y3275000D03*
G04 #@! TO.P,J5,10*
G04 #@! TO.N,/PB2*
X41615000Y3275000D03*
G04 #@! TO.P,J5,9*
G04 #@! TO.N,/PB10*
X44155000Y3275000D03*
G04 #@! TO.P,J5,8*
G04 #@! TO.N,/PB11*
X46695000Y3275000D03*
G04 #@! TO.P,J5,7*
G04 #@! TO.N,VCC*
X49235000Y3275000D03*
G04 #@! TO.P,J5,6*
G04 #@! TO.N,Net-(J5-Pad6)*
X51775000Y3275000D03*
G04 #@! TO.P,J5,5*
G04 #@! TO.N,GND*
X54315000Y3275000D03*
G04 #@! TO.P,J5,4*
G04 #@! TO.N,/PA10*
X56855000Y3275000D03*
G04 #@! TO.P,J5,3*
G04 #@! TO.N,/PA9*
X59395000Y3275000D03*
G04 #@! TO.P,J5,2*
G04 #@! TO.N,VCC*
X61935000Y3275000D03*
D17*
G04 #@! TO.P,J5,1*
G04 #@! TO.N,/BOOT1_UP*
X64475000Y3275000D03*
G04 #@! TD*
D16*
G04 #@! TO.P,J4,25*
G04 #@! TO.N,/PB9*
X3515000Y36725000D03*
G04 #@! TO.P,J4,24*
G04 #@! TO.N,/PB8*
X6055000Y36725000D03*
G04 #@! TO.P,J4,23*
G04 #@! TO.N,/PB7*
X8595000Y36725000D03*
G04 #@! TO.P,J4,22*
G04 #@! TO.N,/PB6*
X11135000Y36725000D03*
G04 #@! TO.P,J4,21*
G04 #@! TO.N,/PB5*
X13675000Y36725000D03*
G04 #@! TO.P,J4,20*
G04 #@! TO.N,/PB4*
X16215000Y36725000D03*
G04 #@! TO.P,J4,19*
G04 #@! TO.N,/PB3*
X18755000Y36725000D03*
G04 #@! TO.P,J4,18*
G04 #@! TO.N,/PA15*
X21295000Y36725000D03*
G04 #@! TO.P,J4,17*
G04 #@! TO.N,/PA14*
X23835000Y36725000D03*
G04 #@! TO.P,J4,16*
G04 #@! TO.N,/PA13*
X26375000Y36725000D03*
G04 #@! TO.P,J4,15*
G04 #@! TO.N,/PA12*
X28915000Y36725000D03*
G04 #@! TO.P,J4,14*
G04 #@! TO.N,/PA11*
X31455000Y36725000D03*
G04 #@! TO.P,J4,13*
G04 #@! TO.N,/PA10*
X33995000Y36725000D03*
G04 #@! TO.P,J4,12*
G04 #@! TO.N,/PA9*
X36535000Y36725000D03*
G04 #@! TO.P,J4,11*
G04 #@! TO.N,/PA8*
X39075000Y36725000D03*
G04 #@! TO.P,J4,10*
G04 #@! TO.N,/PB15*
X41615000Y36725000D03*
G04 #@! TO.P,J4,9*
G04 #@! TO.N,/PB14*
X44155000Y36725000D03*
G04 #@! TO.P,J4,8*
G04 #@! TO.N,/PB13*
X46695000Y36725000D03*
G04 #@! TO.P,J4,7*
G04 #@! TO.N,/PB12*
X49235000Y36725000D03*
G04 #@! TO.P,J4,6*
G04 #@! TO.N,VCC*
X51775000Y36725000D03*
G04 #@! TO.P,J4,5*
G04 #@! TO.N,GND*
X54315000Y36725000D03*
G04 #@! TO.P,J4,4*
G04 #@! TO.N,/PA13*
X56855000Y36725000D03*
G04 #@! TO.P,J4,3*
G04 #@! TO.N,/PA14*
X59395000Y36725000D03*
G04 #@! TO.P,J4,2*
G04 #@! TO.N,VCC*
X61935000Y36725000D03*
D17*
G04 #@! TO.P,J4,1*
G04 #@! TO.N,/BOOT0_UP*
X64475000Y36725000D03*
G04 #@! TD*
D16*
G04 #@! TO.P,J3,8*
G04 #@! TO.N,/nWP*
X4575000Y10675000D03*
G04 #@! TO.P,J3,7*
G04 #@! TO.N,/CS*
X4575000Y13215000D03*
G04 #@! TO.P,J3,6*
G04 #@! TO.N,Net-(C11-Pad1)*
X7115000Y10675000D03*
G04 #@! TO.P,J3,5*
X7115000Y13215000D03*
G04 #@! TO.P,J3,4*
G04 #@! TO.N,GND*
X9655000Y10675000D03*
G04 #@! TO.P,J3,3*
G04 #@! TO.N,/CLK*
X9655000Y13215000D03*
G04 #@! TO.P,J3,2*
G04 #@! TO.N,/DO*
X12195000Y10675000D03*
D17*
G04 #@! TO.P,J3,1*
G04 #@! TO.N,/DI*
X12195000Y13215000D03*
G04 #@! TD*
D16*
G04 #@! TO.P,J2,8*
G04 #@! TO.N,/DI*
X4575000Y26805000D03*
G04 #@! TO.P,J2,7*
G04 #@! TO.N,GND*
X4575000Y29345000D03*
G04 #@! TO.P,J2,6*
G04 #@! TO.N,/CLK*
X7115000Y26805000D03*
G04 #@! TO.P,J2,5*
G04 #@! TO.N,/nWP*
X7115000Y29345000D03*
G04 #@! TO.P,J2,4*
G04 #@! TO.N,Net-(C11-Pad1)*
X9655000Y26805000D03*
G04 #@! TO.P,J2,3*
G04 #@! TO.N,/DO*
X9655000Y29345000D03*
G04 #@! TO.P,J2,2*
G04 #@! TO.N,Net-(C11-Pad1)*
X12195000Y26805000D03*
D17*
G04 #@! TO.P,J2,1*
G04 #@! TO.N,/CS*
X12195000Y29345000D03*
G04 #@! TD*
D18*
G04 #@! TO.P,J1,A12*
G04 #@! TO.N,GND*
X61105000Y23225000D03*
G04 #@! TO.P,J1,A9*
G04 #@! TO.N,+5V*
X61105000Y22425000D03*
G04 #@! TO.P,J1,B1*
G04 #@! TO.N,GND*
X61105000Y23225000D03*
G04 #@! TO.P,J1,B4*
G04 #@! TO.N,+5V*
X61105000Y22425000D03*
G04 #@! TO.P,J1,B12*
G04 #@! TO.N,GND*
X61105000Y16825000D03*
G04 #@! TO.P,J1,A1*
X61105000Y16825000D03*
G04 #@! TO.P,J1,B9*
G04 #@! TO.N,+5V*
X61105000Y17625000D03*
G04 #@! TO.P,J1,A4*
X61105000Y17625000D03*
D19*
G04 #@! TO.P,J1,B5*
G04 #@! TO.N,Net-(J1-PadB5)*
X61105000Y21775000D03*
G04 #@! TO.P,J1,B6*
G04 #@! TO.N,Net-(J1-PadA6)*
X61105000Y20775000D03*
G04 #@! TO.P,J1,A8*
G04 #@! TO.N,N/C*
X61105000Y21275000D03*
G04 #@! TO.P,J1,A5*
G04 #@! TO.N,Net-(J1-PadA5)*
X61105000Y18775000D03*
G04 #@! TO.P,J1,B8*
G04 #@! TO.N,N/C*
X61105000Y18275000D03*
G04 #@! TO.P,J1,A7*
G04 #@! TO.N,Net-(J1-PadA7)*
X61105000Y20275000D03*
G04 #@! TO.P,J1,A6*
G04 #@! TO.N,Net-(J1-PadA6)*
X61105000Y19775000D03*
G04 #@! TO.P,J1,B7*
G04 #@! TO.N,Net-(J1-PadA7)*
X61105000Y19275000D03*
D20*
G04 #@! TO.P,J1,S1*
G04 #@! TO.N,GND*
X65855000Y24345000D03*
X65855000Y15705000D03*
D21*
X61685000Y24345000D03*
X61685000Y15705000D03*
G04 #@! TD*
G04 #@! TO.P,F2,2*
G04 #@! TO.N,Net-(C11-Pad1)*
G04 #@! TA.AperFunction,SMDPad,CuDef*
G36*
G01*
X11665000Y24075001D02*
X11665000Y23174999D01*
G75*
G02*
X11415001Y22925000I-249999J0D01*
G01*
X10764999Y22925000D01*
G75*
G02*
X10515000Y23174999I0J249999D01*
G01*
X10515000Y24075001D01*
G75*
G02*
X10764999Y24325000I249999J0D01*
G01*
X11415001Y24325000D01*
G75*
G02*
X11665000Y24075001I0J-249999D01*
G01*
G37*
G04 #@! TD.AperFunction*
G04 #@! TO.P,F2,1*
G04 #@! TO.N,VCC*
G04 #@! TA.AperFunction,SMDPad,CuDef*
G36*
G01*
X13715000Y24075001D02*
X13715000Y23174999D01*
G75*
G02*
X13465001Y22925000I-249999J0D01*
G01*
X12814999Y22925000D01*
G75*
G02*
X12565000Y23174999I0J249999D01*
G01*
X12565000Y24075001D01*
G75*
G02*
X12814999Y24325000I249999J0D01*
G01*
X13465001Y24325000D01*
G75*
G02*
X13715000Y24075001I0J-249999D01*
G01*
G37*
G04 #@! TD.AperFunction*
G04 #@! TD*
G04 #@! TO.P,F1,2*
G04 #@! TO.N,Net-(D1-Pad1)*
G04 #@! TA.AperFunction,SMDPad,CuDef*
G36*
G01*
X48205001Y25295000D02*
X47304999Y25295000D01*
G75*
G02*
X47055000Y25544999I0J249999D01*
G01*
X47055000Y26195001D01*
G75*
G02*
X47304999Y26445000I249999J0D01*
G01*
X48205001Y26445000D01*
G75*
G02*
X48455000Y26195001I0J-249999D01*
G01*
X48455000Y25544999D01*
G75*
G02*
X48205001Y25295000I-249999J0D01*
G01*
G37*
G04 #@! TD.AperFunction*
G04 #@! TO.P,F1,1*
G04 #@! TO.N,Net-(C1-Pad1)*
G04 #@! TA.AperFunction,SMDPad,CuDef*
G36*
G01*
X48205001Y23245000D02*
X47304999Y23245000D01*
G75*
G02*
X47055000Y23494999I0J249999D01*
G01*
X47055000Y24145001D01*
G75*
G02*
X47304999Y24395000I249999J0D01*
G01*
X48205001Y24395000D01*
G75*
G02*
X48455000Y24145001I0J-249999D01*
G01*
X48455000Y23494999D01*
G75*
G02*
X48205001Y23245000I-249999J0D01*
G01*
G37*
G04 #@! TD.AperFunction*
G04 #@! TD*
D22*
G04 #@! TO.P,D3,2*
G04 #@! TO.N,Net-(D3-Pad2)*
X45915000Y16305000D03*
G04 #@! TO.P,D3,1*
G04 #@! TO.N,VCC*
X45915000Y13805000D03*
G04 #@! TD*
G04 #@! TO.P,D2,2*
G04 #@! TO.N,Net-(D2-Pad2)*
G04 #@! TA.AperFunction,SMDPad,CuDef*
G36*
G01*
X44132500Y25195000D02*
X43657500Y25195000D01*
G75*
G02*
X43420000Y25432500I0J237500D01*
G01*
X43420000Y26007500D01*
G75*
G02*
X43657500Y26245000I237500J0D01*
G01*
X44132500Y26245000D01*
G75*
G02*
X44370000Y26007500I0J-237500D01*
G01*
X44370000Y25432500D01*
G75*
G02*
X44132500Y25195000I-237500J0D01*
G01*
G37*
G04 #@! TD.AperFunction*
G04 #@! TO.P,D2,1*
G04 #@! TO.N,GND*
G04 #@! TA.AperFunction,SMDPad,CuDef*
G36*
G01*
X44132500Y23445000D02*
X43657500Y23445000D01*
G75*
G02*
X43420000Y23682500I0J237500D01*
G01*
X43420000Y24257500D01*
G75*
G02*
X43657500Y24495000I237500J0D01*
G01*
X44132500Y24495000D01*
G75*
G02*
X44370000Y24257500I0J-237500D01*
G01*
X44370000Y23682500D01*
G75*
G02*
X44132500Y23445000I-237500J0D01*
G01*
G37*
G04 #@! TD.AperFunction*
G04 #@! TD*
G04 #@! TO.P,D1,2*
G04 #@! TO.N,+5V*
X50015000Y23595000D03*
G04 #@! TO.P,D1,1*
G04 #@! TO.N,Net-(D1-Pad1)*
X50015000Y26095000D03*
G04 #@! TD*
G04 #@! TO.P,C13,2*
G04 #@! TO.N,GND*
G04 #@! TA.AperFunction,SMDPad,CuDef*
G36*
G01*
X31390000Y13762500D02*
X31390000Y13287500D01*
G75*
G02*
X31152500Y13050000I-237500J0D01*
G01*
X30552500Y13050000D01*
G75*
G02*
X30315000Y13287500I0J237500D01*
G01*
X30315000Y13762500D01*
G75*
G02*
X30552500Y14000000I237500J0D01*
G01*
X31152500Y14000000D01*
G75*
G02*
X31390000Y13762500I0J-237500D01*
G01*
G37*
G04 #@! TD.AperFunction*
G04 #@! TO.P,C13,1*
G04 #@! TO.N,VCC*
G04 #@! TA.AperFunction,SMDPad,CuDef*
G36*
G01*
X33115000Y13762500D02*
X33115000Y13287500D01*
G75*
G02*
X32877500Y13050000I-237500J0D01*
G01*
X32277500Y13050000D01*
G75*
G02*
X32040000Y13287500I0J237500D01*
G01*
X32040000Y13762500D01*
G75*
G02*
X32277500Y14000000I237500J0D01*
G01*
X32877500Y14000000D01*
G75*
G02*
X33115000Y13762500I0J-237500D01*
G01*
G37*
G04 #@! TD.AperFunction*
G04 #@! TD*
G04 #@! TO.P,C12,2*
G04 #@! TO.N,GND*
G04 #@! TA.AperFunction,SMDPad,CuDef*
G36*
G01*
X4840000Y7487500D02*
X4840000Y7962500D01*
G75*
G02*
X5077500Y8200000I237500J0D01*
G01*
X5677500Y8200000D01*
G75*
G02*
X5915000Y7962500I0J-237500D01*
G01*
X5915000Y7487500D01*
G75*
G02*
X5677500Y7250000I-237500J0D01*
G01*
X5077500Y7250000D01*
G75*
G02*
X4840000Y7487500I0J237500D01*
G01*
G37*
G04 #@! TD.AperFunction*
G04 #@! TO.P,C12,1*
G04 #@! TO.N,Net-(C11-Pad1)*
G04 #@! TA.AperFunction,SMDPad,CuDef*
G36*
G01*
X3115000Y7487500D02*
X3115000Y7962500D01*
G75*
G02*
X3352500Y8200000I237500J0D01*
G01*
X3952500Y8200000D01*
G75*
G02*
X4190000Y7962500I0J-237500D01*
G01*
X4190000Y7487500D01*
G75*
G02*
X3952500Y7250000I-237500J0D01*
G01*
X3352500Y7250000D01*
G75*
G02*
X3115000Y7487500I0J237500D01*
G01*
G37*
G04 #@! TD.AperFunction*
G04 #@! TD*
G04 #@! TO.P,C11,2*
G04 #@! TO.N,GND*
G04 #@! TA.AperFunction,SMDPad,CuDef*
G36*
G01*
X4190000Y32562500D02*
X4190000Y32087500D01*
G75*
G02*
X3952500Y31850000I-237500J0D01*
G01*
X3352500Y31850000D01*
G75*
G02*
X3115000Y32087500I0J237500D01*
G01*
X3115000Y32562500D01*
G75*
G02*
X3352500Y32800000I237500J0D01*
G01*
X3952500Y32800000D01*
G75*
G02*
X4190000Y32562500I0J-237500D01*
G01*
G37*
G04 #@! TD.AperFunction*
G04 #@! TO.P,C11,1*
G04 #@! TO.N,Net-(C11-Pad1)*
G04 #@! TA.AperFunction,SMDPad,CuDef*
G36*
G01*
X5915000Y32562500D02*
X5915000Y32087500D01*
G75*
G02*
X5677500Y31850000I-237500J0D01*
G01*
X5077500Y31850000D01*
G75*
G02*
X4840000Y32087500I0J237500D01*
G01*
X4840000Y32562500D01*
G75*
G02*
X5077500Y32800000I237500J0D01*
G01*
X5677500Y32800000D01*
G75*
G02*
X5915000Y32562500I0J-237500D01*
G01*
G37*
G04 #@! TD.AperFunction*
G04 #@! TD*
G04 #@! TO.P,C10,2*
G04 #@! TO.N,GND*
G04 #@! TA.AperFunction,SMDPad,CuDef*
G36*
G01*
X23352500Y20750000D02*
X22877500Y20750000D01*
G75*
G02*
X22640000Y20987500I0J237500D01*
G01*
X22640000Y21587500D01*
G75*
G02*
X22877500Y21825000I237500J0D01*
G01*
X23352500Y21825000D01*
G75*
G02*
X23590000Y21587500I0J-237500D01*
G01*
X23590000Y20987500D01*
G75*
G02*
X23352500Y20750000I-237500J0D01*
G01*
G37*
G04 #@! TD.AperFunction*
G04 #@! TO.P,C10,1*
G04 #@! TO.N,VCC*
G04 #@! TA.AperFunction,SMDPad,CuDef*
G36*
G01*
X23352500Y19025000D02*
X22877500Y19025000D01*
G75*
G02*
X22640000Y19262500I0J237500D01*
G01*
X22640000Y19862500D01*
G75*
G02*
X22877500Y20100000I237500J0D01*
G01*
X23352500Y20100000D01*
G75*
G02*
X23590000Y19862500I0J-237500D01*
G01*
X23590000Y19262500D01*
G75*
G02*
X23352500Y19025000I-237500J0D01*
G01*
G37*
G04 #@! TD.AperFunction*
G04 #@! TD*
G04 #@! TO.P,C9,2*
G04 #@! TO.N,GND*
G04 #@! TA.AperFunction,SMDPad,CuDef*
G36*
G01*
X25052500Y20750000D02*
X24577500Y20750000D01*
G75*
G02*
X24340000Y20987500I0J237500D01*
G01*
X24340000Y21587500D01*
G75*
G02*
X24577500Y21825000I237500J0D01*
G01*
X25052500Y21825000D01*
G75*
G02*
X25290000Y21587500I0J-237500D01*
G01*
X25290000Y20987500D01*
G75*
G02*
X25052500Y20750000I-237500J0D01*
G01*
G37*
G04 #@! TD.AperFunction*
G04 #@! TO.P,C9,1*
G04 #@! TO.N,VCC*
G04 #@! TA.AperFunction,SMDPad,CuDef*
G36*
G01*
X25052500Y19025000D02*
X24577500Y19025000D01*
G75*
G02*
X24340000Y19262500I0J237500D01*
G01*
X24340000Y19862500D01*
G75*
G02*
X24577500Y20100000I237500J0D01*
G01*
X25052500Y20100000D01*
G75*
G02*
X25290000Y19862500I0J-237500D01*
G01*
X25290000Y19262500D01*
G75*
G02*
X25052500Y19025000I-237500J0D01*
G01*
G37*
G04 #@! TD.AperFunction*
G04 #@! TD*
G04 #@! TO.P,C8,2*
G04 #@! TO.N,GND*
G04 #@! TA.AperFunction,SMDPad,CuDef*
G36*
G01*
X38377500Y20120000D02*
X38852500Y20120000D01*
G75*
G02*
X39090000Y19882500I0J-237500D01*
G01*
X39090000Y19282500D01*
G75*
G02*
X38852500Y19045000I-237500J0D01*
G01*
X38377500Y19045000D01*
G75*
G02*
X38140000Y19282500I0J237500D01*
G01*
X38140000Y19882500D01*
G75*
G02*
X38377500Y20120000I237500J0D01*
G01*
G37*
G04 #@! TD.AperFunction*
G04 #@! TO.P,C8,1*
G04 #@! TO.N,VCC*
G04 #@! TA.AperFunction,SMDPad,CuDef*
G36*
G01*
X38377500Y21845000D02*
X38852500Y21845000D01*
G75*
G02*
X39090000Y21607500I0J-237500D01*
G01*
X39090000Y21007500D01*
G75*
G02*
X38852500Y20770000I-237500J0D01*
G01*
X38377500Y20770000D01*
G75*
G02*
X38140000Y21007500I0J237500D01*
G01*
X38140000Y21607500D01*
G75*
G02*
X38377500Y21845000I237500J0D01*
G01*
G37*
G04 #@! TD.AperFunction*
G04 #@! TD*
G04 #@! TO.P,C7,2*
G04 #@! TO.N,GND*
G04 #@! TA.AperFunction,SMDPad,CuDef*
G36*
G01*
X32070000Y27177500D02*
X32070000Y27652500D01*
G75*
G02*
X32307500Y27890000I237500J0D01*
G01*
X32907500Y27890000D01*
G75*
G02*
X33145000Y27652500I0J-237500D01*
G01*
X33145000Y27177500D01*
G75*
G02*
X32907500Y26940000I-237500J0D01*
G01*
X32307500Y26940000D01*
G75*
G02*
X32070000Y27177500I0J237500D01*
G01*
G37*
G04 #@! TD.AperFunction*
G04 #@! TO.P,C7,1*
G04 #@! TO.N,VCC*
G04 #@! TA.AperFunction,SMDPad,CuDef*
G36*
G01*
X30345000Y27177500D02*
X30345000Y27652500D01*
G75*
G02*
X30582500Y27890000I237500J0D01*
G01*
X31182500Y27890000D01*
G75*
G02*
X31420000Y27652500I0J-237500D01*
G01*
X31420000Y27177500D01*
G75*
G02*
X31182500Y26940000I-237500J0D01*
G01*
X30582500Y26940000D01*
G75*
G02*
X30345000Y27177500I0J237500D01*
G01*
G37*
G04 #@! TD.AperFunction*
G04 #@! TD*
G04 #@! TO.P,C6,1*
G04 #@! TO.N,/OSC_IN*
G04 #@! TA.AperFunction,SMDPad,CuDef*
G36*
G01*
X21725000Y14612500D02*
X21725000Y14137500D01*
G75*
G02*
X21487500Y13900000I-237500J0D01*
G01*
X20887500Y13900000D01*
G75*
G02*
X20650000Y14137500I0J237500D01*
G01*
X20650000Y14612500D01*
G75*
G02*
X20887500Y14850000I237500J0D01*
G01*
X21487500Y14850000D01*
G75*
G02*
X21725000Y14612500I0J-237500D01*
G01*
G37*
G04 #@! TD.AperFunction*
G04 #@! TO.P,C6,2*
G04 #@! TO.N,GND*
G04 #@! TA.AperFunction,SMDPad,CuDef*
G36*
G01*
X20000000Y14612500D02*
X20000000Y14137500D01*
G75*
G02*
X19762500Y13900000I-237500J0D01*
G01*
X19162500Y13900000D01*
G75*
G02*
X18925000Y14137500I0J237500D01*
G01*
X18925000Y14612500D01*
G75*
G02*
X19162500Y14850000I237500J0D01*
G01*
X19762500Y14850000D01*
G75*
G02*
X20000000Y14612500I0J-237500D01*
G01*
G37*
G04 #@! TD.AperFunction*
G04 #@! TD*
G04 #@! TO.P,C5,2*
G04 #@! TO.N,GND*
G04 #@! TA.AperFunction,SMDPad,CuDef*
G36*
G01*
X23600000Y14612500D02*
X23600000Y14137500D01*
G75*
G02*
X23362500Y13900000I-237500J0D01*
G01*
X22762500Y13900000D01*
G75*
G02*
X22525000Y14137500I0J237500D01*
G01*
X22525000Y14612500D01*
G75*
G02*
X22762500Y14850000I237500J0D01*
G01*
X23362500Y14850000D01*
G75*
G02*
X23600000Y14612500I0J-237500D01*
G01*
G37*
G04 #@! TD.AperFunction*
G04 #@! TO.P,C5,1*
G04 #@! TO.N,/OSC_OUT*
G04 #@! TA.AperFunction,SMDPad,CuDef*
G36*
G01*
X25325000Y14612500D02*
X25325000Y14137500D01*
G75*
G02*
X25087500Y13900000I-237500J0D01*
G01*
X24487500Y13900000D01*
G75*
G02*
X24250000Y14137500I0J237500D01*
G01*
X24250000Y14612500D01*
G75*
G02*
X24487500Y14850000I237500J0D01*
G01*
X25087500Y14850000D01*
G75*
G02*
X25325000Y14612500I0J-237500D01*
G01*
G37*
G04 #@! TD.AperFunction*
G04 #@! TD*
G04 #@! TO.P,C4,2*
G04 #@! TO.N,GND*
G04 #@! TA.AperFunction,SMDPad,CuDef*
G36*
G01*
X18590000Y25392500D02*
X18590000Y24917500D01*
G75*
G02*
X18352500Y24680000I-237500J0D01*
G01*
X17752500Y24680000D01*
G75*
G02*
X17515000Y24917500I0J237500D01*
G01*
X17515000Y25392500D01*
G75*
G02*
X17752500Y25630000I237500J0D01*
G01*
X18352500Y25630000D01*
G75*
G02*
X18590000Y25392500I0J-237500D01*
G01*
G37*
G04 #@! TD.AperFunction*
G04 #@! TO.P,C4,1*
G04 #@! TO.N,/NRST*
G04 #@! TA.AperFunction,SMDPad,CuDef*
G36*
G01*
X20315000Y25392500D02*
X20315000Y24917500D01*
G75*
G02*
X20077500Y24680000I-237500J0D01*
G01*
X19477500Y24680000D01*
G75*
G02*
X19240000Y24917500I0J237500D01*
G01*
X19240000Y25392500D01*
G75*
G02*
X19477500Y25630000I237500J0D01*
G01*
X20077500Y25630000D01*
G75*
G02*
X20315000Y25392500I0J-237500D01*
G01*
G37*
G04 #@! TD.AperFunction*
G04 #@! TD*
G04 #@! TO.P,C3,2*
G04 #@! TO.N,GND*
G04 #@! TA.AperFunction,SMDPad,CuDef*
G36*
G01*
X44132500Y15380000D02*
X43657500Y15380000D01*
G75*
G02*
X43420000Y15617500I0J237500D01*
G01*
X43420000Y16217500D01*
G75*
G02*
X43657500Y16455000I237500J0D01*
G01*
X44132500Y16455000D01*
G75*
G02*
X44370000Y16217500I0J-237500D01*
G01*
X44370000Y15617500D01*
G75*
G02*
X44132500Y15380000I-237500J0D01*
G01*
G37*
G04 #@! TD.AperFunction*
G04 #@! TO.P,C3,1*
G04 #@! TO.N,VCC*
G04 #@! TA.AperFunction,SMDPad,CuDef*
G36*
G01*
X44132500Y13655000D02*
X43657500Y13655000D01*
G75*
G02*
X43420000Y13892500I0J237500D01*
G01*
X43420000Y14492500D01*
G75*
G02*
X43657500Y14730000I237500J0D01*
G01*
X44132500Y14730000D01*
G75*
G02*
X44370000Y14492500I0J-237500D01*
G01*
X44370000Y13892500D01*
G75*
G02*
X44132500Y13655000I-237500J0D01*
G01*
G37*
G04 #@! TD.AperFunction*
G04 #@! TD*
G04 #@! TO.P,C2,2*
G04 #@! TO.N,GND*
G04 #@! TA.AperFunction,SMDPad,CuDef*
G36*
G01*
X47677500Y14730000D02*
X48152500Y14730000D01*
G75*
G02*
X48390000Y14492500I0J-237500D01*
G01*
X48390000Y13892500D01*
G75*
G02*
X48152500Y13655000I-237500J0D01*
G01*
X47677500Y13655000D01*
G75*
G02*
X47440000Y13892500I0J237500D01*
G01*
X47440000Y14492500D01*
G75*
G02*
X47677500Y14730000I237500J0D01*
G01*
G37*
G04 #@! TD.AperFunction*
G04 #@! TO.P,C2,1*
G04 #@! TO.N,Net-(C1-Pad1)*
G04 #@! TA.AperFunction,SMDPad,CuDef*
G36*
G01*
X47677500Y16455000D02*
X48152500Y16455000D01*
G75*
G02*
X48390000Y16217500I0J-237500D01*
G01*
X48390000Y15617500D01*
G75*
G02*
X48152500Y15380000I-237500J0D01*
G01*
X47677500Y15380000D01*
G75*
G02*
X47440000Y15617500I0J237500D01*
G01*
X47440000Y16217500D01*
G75*
G02*
X47677500Y16455000I237500J0D01*
G01*
G37*
G04 #@! TD.AperFunction*
G04 #@! TD*
G04 #@! TO.P,C1,2*
G04 #@! TO.N,GND*
G04 #@! TA.AperFunction,SMDPad,CuDef*
G36*
G01*
X49477500Y14730000D02*
X49952500Y14730000D01*
G75*
G02*
X50190000Y14492500I0J-237500D01*
G01*
X50190000Y13892500D01*
G75*
G02*
X49952500Y13655000I-237500J0D01*
G01*
X49477500Y13655000D01*
G75*
G02*
X49240000Y13892500I0J237500D01*
G01*
X49240000Y14492500D01*
G75*
G02*
X49477500Y14730000I237500J0D01*
G01*
G37*
G04 #@! TD.AperFunction*
G04 #@! TO.P,C1,1*
G04 #@! TO.N,Net-(C1-Pad1)*
G04 #@! TA.AperFunction,SMDPad,CuDef*
G36*
G01*
X49477500Y16455000D02*
X49952500Y16455000D01*
G75*
G02*
X50190000Y16217500I0J-237500D01*
G01*
X50190000Y15617500D01*
G75*
G02*
X49952500Y15380000I-237500J0D01*
G01*
X49477500Y15380000D01*
G75*
G02*
X49240000Y15617500I0J237500D01*
G01*
X49240000Y16217500D01*
G75*
G02*
X49477500Y16455000I237500J0D01*
G01*
G37*
G04 #@! TD.AperFunction*
G04 #@! TD*
D23*
G04 #@! TO.N,GND*
X24742700Y5577400D03*
X19462500Y8743700D03*
G04 #@! TO.N,VCC*
X26312100Y20099300D03*
X31928900Y26032300D03*
X25652900Y22812400D03*
X30778100Y19664500D03*
G04 #@! TO.N,/PA11*
X54377200Y19469500D03*
G04 #@! TO.N,Net-(J5-Pad6)*
X13833000Y22037600D03*
G04 #@! TD*
D24*
G04 #@! TO.N,GND*
X61685000Y24345000D02*
X61105000Y23765000D01*
X61105000Y23765000D02*
X61105000Y23225000D01*
X54315000Y3275000D02*
X54315000Y4450300D01*
X53821500Y14192500D02*
X55502500Y15873500D01*
X49715000Y14192500D02*
X53821500Y14192500D01*
X53821500Y14192500D02*
X53821500Y4943800D01*
X53821500Y4943800D02*
X54315000Y4450300D01*
X47915000Y14192500D02*
X49715000Y14192500D01*
X55502500Y15873500D02*
X55502500Y17205000D01*
X60199700Y16825000D02*
X59248200Y15873500D01*
X59248200Y15873500D02*
X55502500Y15873500D01*
X30025000Y19939300D02*
X30025000Y17764300D01*
X30025000Y17764300D02*
X29302000Y17041300D01*
X32423100Y21517000D02*
X31602700Y21517000D01*
X31602700Y21517000D02*
X30025000Y19939300D01*
X27180700Y21867300D02*
X29108700Y19939300D01*
X29108700Y19939300D02*
X30025000Y19939300D01*
X18251000Y25960400D02*
X20942500Y25960400D01*
X20942500Y25960400D02*
X23365200Y23537700D01*
X23365200Y23537700D02*
X25953400Y23537700D01*
X25953400Y23537700D02*
X26378200Y23112900D01*
X26378200Y23112900D02*
X26378200Y22669800D01*
X26378200Y22669800D02*
X27180700Y21867300D01*
X32423100Y21517000D02*
X32423100Y24405100D01*
X32423100Y24405100D02*
X33067300Y25049300D01*
X35655200Y20437900D02*
X34576100Y21517000D01*
X34576100Y21517000D02*
X32423100Y21517000D01*
X24742700Y5577400D02*
X30852500Y11687200D01*
X30852500Y11687200D02*
X30852500Y13525000D01*
X61685000Y15705000D02*
X61105000Y16285000D01*
X61105000Y16285000D02*
X61105000Y16825000D01*
X61685000Y15705000D02*
X61685000Y12542500D01*
X61685000Y12542500D02*
X62515000Y11712500D01*
X61105000Y16825000D02*
X60199700Y16825000D01*
X42025700Y20401000D02*
X43029700Y21405000D01*
X42025700Y17786800D02*
X43895000Y15917500D01*
X36249300Y19162700D02*
X35655200Y19756800D01*
X35655200Y19756800D02*
X35655200Y20437900D01*
X54315000Y36725000D02*
X54315000Y23492500D01*
X54315000Y23492500D02*
X55502500Y22305000D01*
X44505000Y21405000D02*
X43029700Y21405000D01*
X47915000Y14192500D02*
X47051200Y15056300D01*
X47051200Y15056300D02*
X44756200Y15056300D01*
X44756200Y15056300D02*
X43895000Y15917500D01*
X20462500Y18369700D02*
X23115000Y21022200D01*
X23115000Y21022200D02*
X23115000Y21287500D01*
X5377500Y7725000D02*
X4543300Y6890800D01*
X4543300Y6890800D02*
X3145500Y6890800D01*
X3145500Y6890800D02*
X1477500Y8558800D01*
X1477500Y8558800D02*
X1477500Y25439500D01*
X1477500Y25439500D02*
X4207700Y28169700D01*
X4207700Y28169700D02*
X4575000Y28169700D01*
X8479700Y10675000D02*
X8479700Y10307700D01*
X8479700Y10307700D02*
X5897000Y7725000D01*
X5897000Y7725000D02*
X5377500Y7725000D01*
X4575000Y29345000D02*
X4575000Y28169700D01*
X23465000Y12702700D02*
X23465000Y12015000D01*
X19462500Y9115000D02*
X19462500Y8743700D01*
X19462500Y14375000D02*
X19462500Y9115000D01*
X19462500Y9115000D02*
X19939700Y9115000D01*
X32607500Y27415000D02*
X33654800Y26367700D01*
X33654800Y26367700D02*
X33654800Y25636800D01*
X33654800Y25636800D02*
X33067300Y25049300D01*
X3830000Y32325000D02*
X4654900Y33149900D01*
X4654900Y33149900D02*
X7574300Y33149900D01*
X7574300Y33149900D02*
X11019600Y29704600D01*
X11019600Y29704600D02*
X11019600Y28313900D01*
X11019600Y28313900D02*
X11163900Y28169600D01*
X11163900Y28169600D02*
X15037900Y28169600D01*
X23465000Y12702700D02*
X23465000Y13390300D01*
X3830000Y32325000D02*
X3830000Y31265300D01*
X3830000Y31265300D02*
X4575000Y30520300D01*
X3652500Y32325000D02*
X3830000Y32325000D01*
X24815000Y21287500D02*
X23115000Y21287500D01*
X8479700Y10675000D02*
X8479700Y13657800D01*
X8479700Y13657800D02*
X4712500Y17425000D01*
X8592300Y10675000D02*
X8479700Y10675000D01*
X9655000Y10675000D02*
X8592300Y10675000D01*
X4575000Y29345000D02*
X4575000Y30520300D01*
X21165000Y9115000D02*
X19939700Y9115000D01*
X65855000Y24345000D02*
X65855000Y26406100D01*
X65855000Y26406100D02*
X64886100Y27375000D01*
X64886100Y27375000D02*
X63427500Y27375000D01*
X63427500Y27375000D02*
X62515000Y28287500D01*
X65855000Y15705000D02*
X65855000Y24345000D01*
X43895000Y23970000D02*
X43895000Y22790300D01*
X43895000Y22790300D02*
X44505000Y22180300D01*
X44505000Y21405000D02*
X44505000Y22180300D01*
X23062500Y14375000D02*
X23062500Y13792800D01*
X23062500Y13792800D02*
X23465000Y13390300D01*
X39415010Y20382510D02*
X38615000Y19582500D01*
X35655200Y20437900D02*
X35809200Y20591900D01*
X36441800Y20591900D02*
X38040200Y22190300D01*
X39415010Y21840500D02*
X39415010Y20382510D01*
X35809200Y20591900D02*
X36441800Y20591900D01*
X38040200Y22190300D02*
X39065210Y22190300D01*
X39065210Y22190300D02*
X39415010Y21840500D01*
X41888890Y20382510D02*
X42025700Y20245700D01*
X39415010Y20382510D02*
X41888890Y20382510D01*
X42025700Y20401000D02*
X42025700Y20245700D01*
X42025700Y20245700D02*
X42025700Y17786800D01*
X21165000Y9565000D02*
X21165000Y9115000D01*
X23465000Y11865000D02*
X21165000Y9565000D01*
X23465000Y12015000D02*
X23465000Y11865000D01*
X18195000Y23245000D02*
X18195000Y19145000D01*
X18195000Y25012500D02*
X18052500Y25155000D01*
X18195000Y23245000D02*
X18195000Y25012500D01*
X63630510Y24345000D02*
X65855000Y24345000D01*
X61685000Y24345000D02*
X63630510Y24345000D01*
X61685000Y15705000D02*
X65855000Y15705000D01*
X17247100Y25960400D02*
X17218750Y25988750D01*
X15037900Y28169600D02*
X17218750Y25988750D01*
X18251000Y25960400D02*
X18090400Y25960400D01*
X18090400Y25960400D02*
X17247100Y25960400D01*
X18052500Y25155000D02*
X18052500Y25342500D01*
X18251000Y25353500D02*
X18052500Y25155000D01*
X18251000Y25960400D02*
X18251000Y25353500D01*
X18195000Y19145000D02*
X18195000Y18544400D01*
X18195000Y18544400D02*
X18369700Y18369700D01*
X18369700Y18369700D02*
X20462500Y18369700D01*
G04 #@! TO.N,VCC*
X29655600Y16687800D02*
X30425100Y17457300D01*
X30425100Y17457300D02*
X31661100Y16221300D01*
X31661100Y16221300D02*
X31661100Y14441400D01*
X31661100Y14441400D02*
X32577500Y13525000D01*
X37082400Y19774900D02*
X38615000Y21307500D01*
X36602900Y19516200D02*
X36823700Y19516200D01*
X36823700Y19516200D02*
X37082400Y19774900D01*
X43895000Y14192500D02*
X42664700Y14192500D01*
X42664700Y14192500D02*
X37082400Y19774900D01*
X45089700Y13805000D02*
X44702200Y14192500D01*
X44702200Y14192500D02*
X43895000Y14192500D01*
X26312100Y20013300D02*
X25265800Y20013300D01*
X25265800Y20013300D02*
X24815000Y19562500D01*
X26827100Y19516200D02*
X26330000Y20013300D01*
X26330000Y20013300D02*
X26312100Y20013300D01*
X26312100Y20013300D02*
X26312100Y20099300D01*
X23115000Y19562500D02*
X21444600Y17892100D01*
X21444600Y17892100D02*
X16172600Y17892100D01*
X16172600Y17892100D02*
X14485000Y19579700D01*
X24815000Y19562500D02*
X23115000Y19562500D01*
X14485000Y20305000D02*
X14485000Y19579700D01*
X32713800Y25402900D02*
X32084400Y26032300D01*
X32084400Y26032300D02*
X31928900Y26032300D01*
X13140000Y23625000D02*
X12072600Y22557600D01*
X12072600Y22557600D02*
X10564400Y22557600D01*
X10564400Y22557600D02*
X9844000Y23278000D01*
X9844000Y23278000D02*
X6061200Y23278000D01*
X6061200Y23278000D02*
X5625000Y22841800D01*
X5625000Y22841800D02*
X5625000Y22072900D01*
X5625000Y22072900D02*
X4542100Y20990000D01*
X4542100Y20990000D02*
X2775000Y20990000D01*
X45915000Y13805000D02*
X45915000Y12979700D01*
X49235000Y4450300D02*
X49235000Y9659700D01*
X49235000Y9659700D02*
X45915000Y12979700D01*
X49235000Y3512600D02*
X49235000Y3275000D01*
X31928900Y26032300D02*
X30882500Y27078700D01*
X30882500Y27078700D02*
X30882500Y27415000D01*
X49235000Y3512600D02*
X49235000Y4450300D01*
X45915000Y13805000D02*
X45089700Y13805000D01*
X14558001Y20378001D02*
X14485000Y20305000D01*
X14558001Y22781999D02*
X14558001Y20378001D01*
X13715000Y23625000D02*
X14558001Y22781999D01*
X13140000Y23625000D02*
X13715000Y23625000D01*
X25652900Y22688000D02*
X26827100Y21513800D01*
X25652900Y22812400D02*
X25652900Y22688000D01*
X30778100Y17810300D02*
X30778100Y19664500D01*
X30425100Y17457300D02*
X30778100Y17810300D01*
G04 #@! TO.N,+5V*
X61105000Y17625000D02*
X61697300Y17625000D01*
X61697300Y17625000D02*
X62461400Y18389100D01*
X62461400Y18389100D02*
X62461400Y21611100D01*
X62461400Y21611100D02*
X61647500Y22425000D01*
X61647500Y22425000D02*
X61105000Y22425000D01*
X50840300Y23595000D02*
X52980300Y21455000D01*
X52980300Y21455000D02*
X55944400Y21455000D01*
X55944400Y21455000D02*
X56493000Y20906400D01*
X56493000Y20906400D02*
X56493000Y16748700D01*
X56493000Y16748700D02*
X56877000Y16364700D01*
X56877000Y16364700D02*
X58084800Y16364700D01*
X58084800Y16364700D02*
X59345100Y17625000D01*
X59345100Y17625000D02*
X61105000Y17625000D01*
X50015000Y23595000D02*
X50840300Y23595000D01*
G04 #@! TO.N,Net-(D1-Pad1)*
X49790000Y25870000D02*
X50015000Y26095000D01*
X47755000Y25870000D02*
X49790000Y25870000D01*
G04 #@! TO.N,Net-(D2-Pad2)*
X43895000Y25720000D02*
X45677500Y25720000D01*
X45677500Y25720000D02*
X45715000Y25757500D01*
G04 #@! TO.N,Net-(J1-PadB5)*
X57857500Y21775000D02*
X57327500Y22305000D01*
X61105000Y21775000D02*
X57857500Y21775000D01*
G04 #@! TO.N,Net-(J1-PadA6)*
X57497500Y20775000D02*
X56472000Y21800500D01*
X56472000Y21800500D02*
X56472000Y27369500D01*
X56472000Y27369500D02*
X57327500Y28225000D01*
X61105000Y20775000D02*
X62010300Y20775000D01*
X61105000Y19775000D02*
X62010300Y19775000D01*
X62010300Y19775000D02*
X62010300Y20775000D01*
X57497500Y20775000D02*
X57327500Y20605000D01*
X61105000Y20775000D02*
X57497500Y20775000D01*
G04 #@! TO.N,Net-(J1-PadA5)*
X61105000Y18775000D02*
X58897500Y18775000D01*
X58897500Y18775000D02*
X57327500Y17205000D01*
G04 #@! TO.N,Net-(J1-PadA7)*
X60199700Y19275000D02*
X60199700Y20275000D01*
X61105000Y20275000D02*
X60199700Y20275000D01*
X61105000Y19275000D02*
X60199700Y19275000D01*
X57697500Y19275000D02*
X57327500Y18905000D01*
X61105000Y19275000D02*
X57697500Y19275000D01*
G04 #@! TO.N,/NRST*
X19795000Y22382900D02*
X19795000Y19145000D01*
X19795000Y23245000D02*
X19795000Y22382900D01*
X19795000Y22382900D02*
X25054400Y22382900D01*
X25054400Y22382900D02*
X26922300Y20515000D01*
X26922300Y20515000D02*
X27375800Y20515000D01*
X27375800Y20515000D02*
X29574500Y18316300D01*
X29574500Y18316300D02*
X29574500Y18021000D01*
X29574500Y18021000D02*
X28948400Y17394900D01*
X19795000Y25137500D02*
X19777500Y25155000D01*
X19795000Y23245000D02*
X19795000Y25137500D01*
G04 #@! TO.N,/OSC_OUT*
X23465000Y9115000D02*
X24690300Y9115000D01*
X24787100Y14375000D02*
X24787100Y9211800D01*
X24787100Y9211800D02*
X24690300Y9115000D01*
X24787100Y14375000D02*
X24787000Y14375000D01*
X24787500Y14375000D02*
X24787100Y14375000D01*
X23465000Y9115000D02*
X23465000Y7739700D01*
X13675000Y3275000D02*
X14850300Y3275000D01*
X14850300Y3275000D02*
X14850300Y3642300D01*
X14850300Y3642300D02*
X18947700Y7739700D01*
X18947700Y7739700D02*
X23465000Y7739700D01*
X28594900Y17748400D02*
X28560000Y17748400D01*
X25186000Y14375000D02*
X24787500Y14375000D01*
X28595000Y17748400D02*
X28594900Y17748400D01*
X25221446Y14375000D02*
X24787500Y14375000D01*
X28594891Y17748445D02*
X25221446Y14375000D01*
G04 #@! TO.N,/OSC_IN*
X11135000Y3275000D02*
X11135000Y4450300D01*
X11135000Y4450300D02*
X17850100Y11165400D01*
X17850100Y11165400D02*
X17850100Y14098700D01*
X17850100Y14098700D02*
X18976700Y15225300D01*
X18976700Y15225300D02*
X20336700Y15225300D01*
X20336700Y15225300D02*
X21187000Y14375000D01*
X21187500Y14375000D02*
X21187000Y14375000D01*
X28241000Y18084400D02*
X28241000Y18066700D01*
X28241000Y18084400D02*
X28241300Y18084700D01*
X28241300Y18084700D02*
X28241300Y18102000D01*
X28241000Y18102000D02*
X28241000Y18084400D01*
X21187500Y12037500D02*
X21165000Y12015000D01*
X21187500Y14375000D02*
X21187500Y12037500D01*
X22045088Y15232490D02*
X21666299Y14853701D01*
X25371830Y15232490D02*
X22045088Y15232490D01*
X28241338Y18101998D02*
X25371830Y15232490D01*
X21666299Y14853701D02*
X21187000Y14375000D01*
G04 #@! TO.N,/PB9*
X4690300Y36725000D02*
X4690300Y36357700D01*
X4690300Y36357700D02*
X7092000Y33956000D01*
X7092000Y33956000D02*
X9888400Y33956000D01*
X9888400Y33956000D02*
X17384300Y26460100D01*
X17384300Y26460100D02*
X21079700Y26460100D01*
X21079700Y26460100D02*
X23486000Y24053800D01*
X23486000Y24053800D02*
X26074200Y24053800D01*
X26074200Y24053800D02*
X26828500Y23299500D01*
X26828500Y23299500D02*
X26828500Y22926600D01*
X26828500Y22926600D02*
X27534200Y22220900D01*
X3515000Y36725000D02*
X4690300Y36725000D01*
G04 #@! TO.N,/PB8*
X7230300Y36725000D02*
X7230300Y36357600D01*
X7230300Y36357600D02*
X8224800Y35363100D01*
X8224800Y35363100D02*
X9118200Y35363100D01*
X9118200Y35363100D02*
X17289500Y27191800D01*
X17289500Y27191800D02*
X20984900Y27191800D01*
X20984900Y27191800D02*
X23672600Y24504100D01*
X23672600Y24504100D02*
X26260800Y24504100D01*
X26260800Y24504100D02*
X27278800Y23486100D01*
X27278800Y23486100D02*
X27278800Y23183400D01*
X27278800Y23183400D02*
X27887800Y22574400D01*
X6055000Y36725000D02*
X7230300Y36725000D01*
G04 #@! TO.N,/PB7*
X8595000Y36725000D02*
X9770300Y36725000D01*
X9770300Y36725000D02*
X9770300Y36357700D01*
X9770300Y36357700D02*
X18485900Y27642100D01*
X18485900Y27642100D02*
X21808400Y27642100D01*
X21808400Y27642100D02*
X24018600Y25431900D01*
X24018600Y25431900D02*
X26444600Y25431900D01*
X26444600Y25431900D02*
X28594900Y23281600D01*
G04 #@! TO.N,/PB6*
X28948400Y23635100D02*
X26701300Y25882200D01*
X26701300Y25882200D02*
X24205300Y25882200D01*
X24205300Y25882200D02*
X21995000Y28092500D01*
X21995000Y28092500D02*
X20606500Y28092500D01*
X20606500Y28092500D02*
X12310300Y36388700D01*
X12310300Y36388700D02*
X12310300Y36725000D01*
X11135000Y36725000D02*
X12310300Y36725000D01*
G04 #@! TO.N,/PB5*
X29302000Y23988700D02*
X26958200Y26332500D01*
X26958200Y26332500D02*
X24927100Y26332500D01*
X24927100Y26332500D02*
X14850300Y36409300D01*
X14850300Y36409300D02*
X14850300Y36725000D01*
X13675000Y36725000D02*
X14850300Y36725000D01*
G04 #@! TO.N,/PB4*
X29655600Y24342200D02*
X27214900Y26782900D01*
X27214900Y26782900D02*
X26818200Y26782900D01*
X26818200Y26782900D02*
X17390300Y36210800D01*
X17390300Y36210800D02*
X17390300Y36725000D01*
X16215000Y36725000D02*
X17390300Y36725000D01*
G04 #@! TO.N,/PB3*
X18755000Y36725000D02*
X18755000Y35549700D01*
X18755000Y35549700D02*
X19155200Y35549700D01*
X19155200Y35549700D02*
X30009100Y24695800D01*
G04 #@! TO.N,/PA15*
X21295000Y36725000D02*
X21295000Y34117000D01*
X21295000Y34117000D02*
X30362700Y25049300D01*
G04 #@! TO.N,/PA14*
X23835000Y36725000D02*
X23835000Y32284100D01*
X23835000Y32284100D02*
X30716200Y25402900D01*
G04 #@! TO.N,/PA13*
X56267400Y36725000D02*
X56267400Y28989900D01*
X56267400Y28989900D02*
X55502500Y28225000D01*
X56267400Y36725000D02*
X55679700Y36725000D01*
X56855000Y36725000D02*
X56267400Y36725000D01*
X55679700Y36725000D02*
X55679700Y37092300D01*
X55679700Y37092300D02*
X54358700Y38413300D01*
X54358700Y38413300D02*
X28871200Y38413300D01*
X28871200Y38413300D02*
X27550300Y37092400D01*
X27550300Y37092400D02*
X27550300Y36725000D01*
X26375000Y36725000D02*
X27550300Y36725000D01*
X26375000Y36725000D02*
X26375000Y35549700D01*
X26375000Y35549700D02*
X34121200Y27803500D01*
X34121200Y27803500D02*
X34121200Y25396100D01*
X34121200Y25396100D02*
X33420900Y24695800D01*
G04 #@! TO.N,/PA12*
X30155900Y36725000D02*
X30155900Y36211900D01*
X30155900Y36211900D02*
X34608100Y31759700D01*
X34608100Y31759700D02*
X34608100Y25175900D01*
X34608100Y25175900D02*
X33774400Y24342200D01*
X30090300Y36725000D02*
X30155900Y36725000D01*
X28915000Y36725000D02*
X30090300Y36725000D01*
X51493700Y20605000D02*
X55502500Y20605000D01*
X49144900Y22953800D02*
X51493700Y20605000D01*
X49144900Y24243700D02*
X49144900Y22953800D01*
X50043100Y25141900D02*
X49144900Y24243700D01*
X50549200Y25141900D02*
X50043100Y25141900D01*
X50876400Y25469100D02*
X50549200Y25141900D01*
X50876400Y26876400D02*
X50876400Y25469100D01*
X30155900Y37133300D02*
X30942100Y37919500D01*
X30942100Y37919500D02*
X49719200Y37919500D01*
X49719200Y37919500D02*
X50480500Y37158200D01*
X50480500Y37158200D02*
X50480500Y27272300D01*
X30155900Y36725000D02*
X30155900Y37133300D01*
X50480500Y27272300D02*
X50876400Y26876400D01*
G04 #@! TO.N,/PA11*
X31455000Y36725000D02*
X31455000Y35549700D01*
X31455000Y35549700D02*
X35058500Y31946200D01*
X35058500Y31946200D02*
X35058500Y24919200D01*
X35058500Y24919200D02*
X34128000Y23988700D01*
X54377200Y19469500D02*
X54938000Y19469500D01*
X54938000Y19469500D02*
X55502500Y18905000D01*
G04 #@! TO.N,/PA10*
X34481600Y23635100D02*
X35508900Y24662400D01*
X35508900Y24662400D02*
X35508900Y34035800D01*
X35508900Y34035800D02*
X33995000Y35549700D01*
X33995000Y36725000D02*
X33995000Y35549700D01*
G04 #@! TO.N,/PA9*
X36535000Y36725000D02*
X36535000Y24981500D01*
X36535000Y24981500D02*
X34835100Y23281600D01*
G04 #@! TO.N,/PA8*
X39075000Y36725000D02*
X39075000Y26814300D01*
X39075000Y26814300D02*
X35188700Y22928000D01*
G04 #@! TO.N,/PB15*
X41615000Y36725000D02*
X41615000Y28647200D01*
X41615000Y28647200D02*
X35542200Y22574400D01*
G04 #@! TO.N,/PB14*
X44155000Y36725000D02*
X44155000Y30480100D01*
X44155000Y30480100D02*
X35895800Y22220900D01*
G04 #@! TO.N,/PB13*
X46695000Y36725000D02*
X46695000Y32313000D01*
X46695000Y32313000D02*
X36249300Y21867300D01*
G04 #@! TO.N,/PB12*
X49235000Y36725000D02*
X49235000Y34145900D01*
X49235000Y34145900D02*
X36602900Y21513800D01*
G04 #@! TO.N,/BOOT0_UP*
X64475000Y36725000D02*
X64475000Y35549700D01*
X64475000Y35549700D02*
X64465000Y35539700D01*
X64465000Y35539700D02*
X64465000Y28287500D01*
G04 #@! TO.N,/PC13*
X24921600Y16903600D02*
X27180700Y19162700D01*
X14045900Y12272300D02*
X18677200Y16903600D01*
X14045900Y10833700D02*
X14045900Y12272300D01*
X12160090Y8947890D02*
X14045900Y10833700D01*
X3515000Y3275000D02*
X4690300Y3275000D01*
X4690300Y3275000D02*
X4690300Y4010300D01*
X4690300Y4010300D02*
X8263900Y7583900D01*
X8263900Y7593900D02*
X9617890Y8947890D01*
X8263900Y7583900D02*
X8263900Y7593900D01*
X18677200Y16903600D02*
X24921600Y16903600D01*
X9617890Y8947890D02*
X12160090Y8947890D01*
G04 #@! TO.N,/PC14*
X7230300Y3275000D02*
X6055000Y3275000D01*
X7230300Y3920300D02*
X7230300Y3275000D01*
X10443890Y7133890D02*
X7230300Y3920300D01*
X25065400Y16340300D02*
X18798600Y16340300D01*
X14721300Y12263000D02*
X14721300Y10845700D01*
X27534200Y18809100D02*
X25065400Y16340300D01*
X18798600Y16340300D02*
X14721300Y12263000D01*
X10443890Y7133890D02*
X10443890Y7153890D01*
X10443890Y7153890D02*
X11782200Y8492200D01*
X11782200Y8492200D02*
X12367800Y8492200D01*
X14721300Y10845700D02*
X12367800Y8492200D01*
G04 #@! TO.N,/PC15*
X8595000Y3275000D02*
X16126400Y10806400D01*
X16126400Y10806400D02*
X16126400Y13031200D01*
X16126400Y13031200D02*
X18777700Y15682500D01*
X18777700Y15682500D02*
X25114700Y15682500D01*
X25114700Y15682500D02*
X27887800Y18455600D01*
G04 #@! TO.N,/PA0*
X16215000Y3275000D02*
X16683500Y3275000D01*
X11019600Y10375400D02*
X11019600Y15237100D01*
X10042100Y9397900D02*
X11019600Y10375400D01*
X11019600Y15237100D02*
X13027500Y17245000D01*
X15505500Y2097000D02*
X3022700Y2097000D01*
X3022700Y2097000D02*
X2301700Y2818000D01*
X3884700Y4494700D02*
X8787900Y9397900D01*
X16683500Y3275000D02*
X15505500Y2097000D01*
X2301700Y2818000D02*
X2301700Y3751100D01*
X2301700Y3751100D02*
X3045300Y4494700D01*
X8787900Y9397900D02*
X10042100Y9397900D01*
X3045300Y4494700D02*
X3884700Y4494700D01*
X25285700Y11610800D02*
X30009100Y16334200D01*
X25285700Y8496100D02*
X25285700Y11610800D01*
X16683500Y3275000D02*
X17390300Y3275000D01*
X17390300Y3275000D02*
X17390300Y3642400D01*
X19549100Y5801200D02*
X19551200Y5801200D01*
X17390300Y3642400D02*
X19549100Y5801200D01*
X24079290Y7289690D02*
X25285700Y8496100D01*
X19551200Y5801200D02*
X21039690Y7289690D01*
X21039690Y7289690D02*
X24079290Y7289690D01*
G04 #@! TO.N,/PA1*
X25736100Y11354100D02*
X30362700Y15980700D01*
X24296280Y6839680D02*
X25736100Y8279500D01*
X18755000Y3275000D02*
X19930300Y3275000D01*
X19930300Y3575500D02*
X21382400Y5027600D01*
X25736100Y8279500D02*
X25736100Y11354100D01*
X21382400Y5027600D02*
X21382400Y5062400D01*
X19930300Y3275000D02*
X19930300Y3575500D01*
X23159680Y6839680D02*
X24296280Y6839680D01*
X21382400Y5062400D02*
X23159680Y6839680D01*
G04 #@! TO.N,/PA2*
X21295000Y3275000D02*
X22470300Y3275000D01*
X22470300Y3275000D02*
X22470300Y4376300D01*
X22470300Y4376300D02*
X29415400Y11321400D01*
X29415400Y11321400D02*
X29415400Y14326300D01*
X29415400Y14326300D02*
X30716200Y15627100D01*
G04 #@! TO.N,/PA3*
X23835000Y3275000D02*
X23835000Y4450300D01*
X23835000Y4450300D02*
X24863400Y4450300D01*
X24863400Y4450300D02*
X33457900Y13044800D01*
X33457900Y13044800D02*
X33457900Y14883000D01*
X33457900Y14883000D02*
X32713800Y15627100D01*
G04 #@! TO.N,/PB0*
X36535000Y4450300D02*
X36535000Y15341500D01*
X36535000Y15341500D02*
X34481600Y17394900D01*
X36535000Y3275000D02*
X36535000Y4450300D01*
G04 #@! TO.N,/PB1*
X34835100Y17748400D02*
X39075000Y13508500D01*
X39075000Y13508500D02*
X39075000Y4450300D01*
X39075000Y3275000D02*
X39075000Y4450300D01*
G04 #@! TO.N,/PB2*
X42790300Y3275000D02*
X42790300Y2907700D01*
X42790300Y2907700D02*
X43639300Y2058700D01*
X43639300Y2058700D02*
X54804500Y2058700D01*
X54804500Y2058700D02*
X55500800Y2755000D01*
X64465000Y13537500D02*
X64205600Y13537500D01*
X41615000Y3275000D02*
X42790300Y3275000D01*
X35188700Y18102000D02*
X41615000Y11675700D01*
X41615000Y11675700D02*
X41615000Y3275000D01*
X55500800Y3659802D02*
X55500800Y2755000D01*
X56290999Y4450001D02*
X55500800Y3659802D01*
X56580001Y4450001D02*
X56290999Y4450001D01*
X63462500Y13537500D02*
X63462500Y11333100D01*
X63462500Y13537500D02*
X64465000Y13537500D01*
X62515000Y13537500D02*
X63462500Y13537500D01*
X56580001Y4450601D02*
X63462500Y11333100D01*
X56580001Y4450001D02*
X56580001Y4450601D01*
G04 #@! TO.N,/PB10*
X44155000Y3275000D02*
X44155000Y9842800D01*
X44155000Y9842800D02*
X35542200Y18455600D01*
G04 #@! TO.N,/PB11*
X46695000Y4450300D02*
X46695000Y8009900D01*
X46695000Y8009900D02*
X35895800Y18809100D01*
X46695000Y3275000D02*
X46695000Y4450300D01*
G04 #@! TO.N,/BOOT1_UP*
X64475000Y3275000D02*
X64475000Y4450300D01*
X64475000Y4450300D02*
X64465000Y4460300D01*
X64465000Y4460300D02*
X64465000Y11712500D01*
G04 #@! TO.N,Net-(D3-Pad2)*
X45915000Y16305000D02*
X45089700Y16305000D01*
X45089700Y16305000D02*
X44264400Y17130300D01*
X44264400Y17130300D02*
X43702900Y17130300D01*
X43702900Y17130300D02*
X43029600Y17803600D01*
X43029600Y17803600D02*
X43029600Y19075600D01*
X43029600Y19075600D02*
X43859000Y19905000D01*
X43859000Y19905000D02*
X44592500Y19905000D01*
G04 #@! TO.N,/DI*
X33995000Y3275000D02*
X33995000Y4450300D01*
X33995000Y4450300D02*
X35283200Y5738500D01*
X35283200Y5738500D02*
X35283200Y15886100D01*
X35283200Y15886100D02*
X34128000Y17041300D01*
G04 #@! TO.N,/CLK*
X33420900Y16334200D02*
X34377800Y15377300D01*
X34377800Y15377300D02*
X34377800Y9913100D01*
X34377800Y9913100D02*
X28915000Y4450300D01*
X28915000Y3275000D02*
X28915000Y4450300D01*
G04 #@! TO.N,/nWP*
X7115000Y29345000D02*
X7115000Y28169700D01*
X7115000Y28169700D02*
X6747600Y28169700D01*
X6747600Y28169700D02*
X5939700Y27361800D01*
X5939700Y27361800D02*
X5939700Y25214000D01*
X5939700Y25214000D02*
X4712500Y23986800D01*
X4712500Y23986800D02*
X4712500Y22445000D01*
X4712500Y22445000D02*
X2909000Y22445000D01*
X2909000Y22445000D02*
X1953300Y21489300D01*
X1953300Y21489300D02*
X1953300Y14104700D01*
X1953300Y14104700D02*
X4207700Y11850300D01*
X4207700Y11850300D02*
X4575000Y11850300D01*
X4575000Y10675000D02*
X4575000Y11850300D01*
G04 #@! TO.N,/DO*
X33774400Y16687800D02*
X34830100Y15632100D01*
X34830100Y15632100D02*
X34830100Y7825400D01*
X34830100Y7825400D02*
X31455000Y4450300D01*
X31455000Y3275000D02*
X31455000Y4450300D01*
G04 #@! TO.N,/CS*
X26375000Y4450300D02*
X33924800Y12000100D01*
X33924800Y12000100D02*
X33924800Y15123200D01*
X33924800Y15123200D02*
X33067300Y15980700D01*
X26375000Y3275000D02*
X26375000Y4450300D01*
G04 #@! TO.N,Net-(D5-Pad2)*
X11485000Y19355000D02*
X11485000Y20080300D01*
X8515000Y20990000D02*
X9424700Y20080300D01*
X9424700Y20080300D02*
X11485000Y20080300D01*
G04 #@! TO.N,Net-(D5-Pad1)*
X8515000Y19240000D02*
X6700000Y17425000D01*
X6700000Y17425000D02*
X6537500Y17425000D01*
G04 #@! TO.N,Net-(R10-Pad2)*
X62515000Y26462500D02*
X58141300Y30836200D01*
X58141300Y30836200D02*
X58141300Y37105100D01*
X58141300Y37105100D02*
X56382800Y38863600D01*
X56382800Y38863600D02*
X26838900Y38863600D01*
X26838900Y38863600D02*
X25168200Y37192900D01*
X25168200Y37192900D02*
X25168200Y31691700D01*
X25168200Y31691700D02*
X31638100Y25221800D01*
X31638100Y25221800D02*
X31638100Y24803100D01*
X31638100Y24803100D02*
X29187400Y22352400D01*
X29187400Y22352400D02*
X28816900Y22352400D01*
X28816900Y22352400D02*
X28241300Y22928000D01*
X64465000Y26462500D02*
X62515000Y26462500D01*
G04 #@! TO.N,Net-(C1-Pad1)*
X47755000Y23820000D02*
X47755000Y23501700D01*
X47755000Y23501700D02*
X50281200Y20975500D01*
X50281200Y20975500D02*
X50281200Y16483700D01*
X50281200Y16483700D02*
X49715000Y15917500D01*
X47755000Y23820000D02*
X45827500Y23820000D01*
X45827500Y23820000D02*
X45715000Y23932500D01*
X49715000Y15917500D02*
X47915000Y15917500D01*
X44505000Y18405000D02*
X45980300Y18405000D01*
X47915000Y15917500D02*
X45980300Y17852200D01*
X45980300Y17852200D02*
X45980300Y18405000D01*
G04 #@! TO.N,Net-(C11-Pad1)*
X12195000Y26805000D02*
X11019700Y26805000D01*
X9655000Y27374800D02*
X10449900Y27374800D01*
X10449900Y27374800D02*
X11019700Y26805000D01*
X9655000Y27374800D02*
X9655000Y27980300D01*
X9655000Y26805000D02*
X9655000Y27374800D01*
X7115000Y10675000D02*
X5939700Y10675000D01*
X3652500Y7725000D02*
X5939700Y10012200D01*
X5939700Y10012200D02*
X5939700Y10675000D01*
X12195000Y26805000D02*
X12195000Y25629700D01*
X11090000Y23625000D02*
X11090000Y24524700D01*
X11090000Y24524700D02*
X12195000Y25629700D01*
X5377500Y32325000D02*
X5801900Y32325000D01*
X5801900Y32325000D02*
X8479700Y29647200D01*
X8479700Y29647200D02*
X8479700Y28788200D01*
X8479700Y28788200D02*
X9287600Y27980300D01*
X9287600Y27980300D02*
X9655000Y27980300D01*
G04 #@! TO.N,Net-(Q1-Pad1)*
X11485000Y21255000D02*
X12760400Y19979600D01*
X12760400Y19979600D02*
X12760400Y18802900D01*
X12760400Y18802900D02*
X11202500Y17245000D01*
G04 #@! TO.N,Net-(D4-Pad1)*
X2775000Y19240000D02*
X4047500Y19240000D01*
X4047500Y19240000D02*
X4712500Y19905000D01*
G04 #@! TO.N,Net-(J5-Pad6)*
X6944900Y22037600D02*
X13833000Y22037600D01*
X6537500Y22445000D02*
X6944900Y22037600D01*
X6537500Y22445000D02*
X6537500Y19905000D01*
G04 #@! TD*
M02*
