G04 #@! TF.GenerationSoftware,KiCad,Pcbnew,5.1.8+dfsg1-1~bpo10+1*
G04 #@! TF.CreationDate,2020-12-26T22:42:37+08:00*
G04 #@! TF.ProjectId,stm32-io-extend,73746d33-322d-4696-9f2d-657874656e64,rev?*
G04 #@! TF.SameCoordinates,PX4cf27c8PY5b7b308*
G04 #@! TF.FileFunction,Soldermask,Bot*
G04 #@! TF.FilePolarity,Negative*
%FSLAX46Y46*%
G04 Gerber Fmt 4.6, Leading zero omitted, Abs format (unit mm)*
G04 Created by KiCad (PCBNEW 5.1.8+dfsg1-1~bpo10+1) date 2020-12-26 22:42:37*
%MOMM*%
%LPD*%
G01*
G04 APERTURE LIST*
%ADD10O,1.700000X1.700000*%
%ADD11R,1.700000X1.700000*%
%ADD12C,0.600000*%
%ADD13O,1.700000X0.900000*%
%ADD14O,2.000000X0.900000*%
G04 APERTURE END LIST*
D10*
G04 #@! TO.C,J5*
X3515000Y3275000D03*
X6055000Y3275000D03*
X8595000Y3275000D03*
X11135000Y3275000D03*
X13675000Y3275000D03*
X16215000Y3275000D03*
X18755000Y3275000D03*
X21295000Y3275000D03*
X23835000Y3275000D03*
X26375000Y3275000D03*
X28915000Y3275000D03*
X31455000Y3275000D03*
X33995000Y3275000D03*
X36535000Y3275000D03*
X39075000Y3275000D03*
X41615000Y3275000D03*
X44155000Y3275000D03*
X46695000Y3275000D03*
X49235000Y3275000D03*
X51775000Y3275000D03*
X54315000Y3275000D03*
X56855000Y3275000D03*
X59395000Y3275000D03*
X61935000Y3275000D03*
D11*
X64475000Y3275000D03*
G04 #@! TD*
D10*
G04 #@! TO.C,J4*
X3515000Y36725000D03*
X6055000Y36725000D03*
X8595000Y36725000D03*
X11135000Y36725000D03*
X13675000Y36725000D03*
X16215000Y36725000D03*
X18755000Y36725000D03*
X21295000Y36725000D03*
X23835000Y36725000D03*
X26375000Y36725000D03*
X28915000Y36725000D03*
X31455000Y36725000D03*
X33995000Y36725000D03*
X36535000Y36725000D03*
X39075000Y36725000D03*
X41615000Y36725000D03*
X44155000Y36725000D03*
X46695000Y36725000D03*
X49235000Y36725000D03*
X51775000Y36725000D03*
X54315000Y36725000D03*
X56855000Y36725000D03*
X59395000Y36725000D03*
X61935000Y36725000D03*
D11*
X64475000Y36725000D03*
G04 #@! TD*
D10*
G04 #@! TO.C,J3*
X4575000Y10675000D03*
X4575000Y13215000D03*
X7115000Y10675000D03*
X7115000Y13215000D03*
X9655000Y10675000D03*
X9655000Y13215000D03*
X12195000Y10675000D03*
D11*
X12195000Y13215000D03*
G04 #@! TD*
D10*
G04 #@! TO.C,J2*
X4575000Y26805000D03*
X4575000Y29345000D03*
X7115000Y26805000D03*
X7115000Y29345000D03*
X9655000Y26805000D03*
X9655000Y29345000D03*
X12195000Y26805000D03*
D11*
X12195000Y29345000D03*
G04 #@! TD*
D12*
G04 #@! TO.C,J1*
X62165000Y17135000D03*
X62165000Y22915000D03*
D13*
X65855000Y24345000D03*
X65855000Y15705000D03*
D14*
X61685000Y24345000D03*
X61685000Y15705000D03*
G04 #@! TD*
M02*
