G04 #@! TF.GenerationSoftware,KiCad,Pcbnew,5.1.8+dfsg1-1~bpo10+1*
G04 #@! TF.CreationDate,2020-11-28T00:35:18+08:00*
G04 #@! TF.ProjectId,stm32-io-extend,73746d33-322d-4696-9f2d-657874656e64,rev?*
G04 #@! TF.SameCoordinates,Original*
G04 #@! TF.FileFunction,Copper,L1,Top*
G04 #@! TF.FilePolarity,Positive*
%FSLAX46Y46*%
G04 Gerber Fmt 4.6, Leading zero omitted, Abs format (unit mm)*
G04 Created by KiCad (PCBNEW 5.1.8+dfsg1-1~bpo10+1) date 2020-11-28 00:35:18*
%MOMM*%
%LPD*%
G01*
G04 APERTURE LIST*
G04 #@! TA.AperFunction,SMDPad,CuDef*
%ADD10R,0.600000X0.450000*%
G04 #@! TD*
G04 #@! TA.AperFunction,ComponentPad*
%ADD11O,2.000000X0.900000*%
G04 #@! TD*
G04 #@! TA.AperFunction,ComponentPad*
%ADD12O,1.700000X0.900000*%
G04 #@! TD*
G04 #@! TA.AperFunction,SMDPad,CuDef*
%ADD13R,1.160000X0.300000*%
G04 #@! TD*
G04 #@! TA.AperFunction,SMDPad,CuDef*
%ADD14R,1.160000X0.600000*%
G04 #@! TD*
G04 #@! TA.AperFunction,ComponentPad*
%ADD15R,1.700000X1.700000*%
G04 #@! TD*
G04 #@! TA.AperFunction,ComponentPad*
%ADD16O,1.700000X1.700000*%
G04 #@! TD*
G04 #@! TA.AperFunction,ComponentPad*
%ADD17R,1.600000X1.600000*%
G04 #@! TD*
G04 #@! TA.AperFunction,ComponentPad*
%ADD18O,1.600000X1.600000*%
G04 #@! TD*
G04 #@! TA.AperFunction,ComponentPad*
%ADD19C,2.000000*%
G04 #@! TD*
G04 #@! TA.AperFunction,SMDPad,CuDef*
%ADD20R,1.300000X0.900000*%
G04 #@! TD*
G04 #@! TA.AperFunction,SMDPad,CuDef*
%ADD21C,0.100000*%
G04 #@! TD*
G04 #@! TA.AperFunction,ComponentPad*
%ADD22C,1.500000*%
G04 #@! TD*
G04 #@! TA.AperFunction,ViaPad*
%ADD23C,0.400000*%
G04 #@! TD*
G04 #@! TA.AperFunction,Conductor*
%ADD24C,0.200000*%
G04 #@! TD*
G04 APERTURE END LIST*
G04 #@! TO.P,C1,1*
G04 #@! TO.N,+3V3*
G04 #@! TA.AperFunction,SMDPad,CuDef*
G36*
G01*
X89900000Y-79725000D02*
X89900000Y-79925000D01*
G75*
G02*
X89800000Y-80025000I-100000J0D01*
G01*
X89540000Y-80025000D01*
G75*
G02*
X89440000Y-79925000I0J100000D01*
G01*
X89440000Y-79725000D01*
G75*
G02*
X89540000Y-79625000I100000J0D01*
G01*
X89800000Y-79625000D01*
G75*
G02*
X89900000Y-79725000I0J-100000D01*
G01*
G37*
G04 #@! TD.AperFunction*
G04 #@! TO.P,C1,2*
G04 #@! TO.N,GND*
G04 #@! TA.AperFunction,SMDPad,CuDef*
G36*
G01*
X89260000Y-79725000D02*
X89260000Y-79925000D01*
G75*
G02*
X89160000Y-80025000I-100000J0D01*
G01*
X88900000Y-80025000D01*
G75*
G02*
X88800000Y-79925000I0J100000D01*
G01*
X88800000Y-79725000D01*
G75*
G02*
X88900000Y-79625000I100000J0D01*
G01*
X89160000Y-79625000D01*
G75*
G02*
X89260000Y-79725000I0J-100000D01*
G01*
G37*
G04 #@! TD.AperFunction*
G04 #@! TD*
G04 #@! TO.P,C2,2*
G04 #@! TO.N,GND*
G04 #@! TA.AperFunction,SMDPad,CuDef*
G36*
G01*
X94340000Y-81225000D02*
X94340000Y-81425000D01*
G75*
G02*
X94240000Y-81525000I-100000J0D01*
G01*
X93980000Y-81525000D01*
G75*
G02*
X93880000Y-81425000I0J100000D01*
G01*
X93880000Y-81225000D01*
G75*
G02*
X93980000Y-81125000I100000J0D01*
G01*
X94240000Y-81125000D01*
G75*
G02*
X94340000Y-81225000I0J-100000D01*
G01*
G37*
G04 #@! TD.AperFunction*
G04 #@! TO.P,C2,1*
G04 #@! TO.N,+3V3*
G04 #@! TA.AperFunction,SMDPad,CuDef*
G36*
G01*
X94980000Y-81225000D02*
X94980000Y-81425000D01*
G75*
G02*
X94880000Y-81525000I-100000J0D01*
G01*
X94620000Y-81525000D01*
G75*
G02*
X94520000Y-81425000I0J100000D01*
G01*
X94520000Y-81225000D01*
G75*
G02*
X94620000Y-81125000I100000J0D01*
G01*
X94880000Y-81125000D01*
G75*
G02*
X94980000Y-81225000I0J-100000D01*
G01*
G37*
G04 #@! TD.AperFunction*
G04 #@! TD*
G04 #@! TO.P,C3,1*
G04 #@! TO.N,+3V3*
G04 #@! TA.AperFunction,SMDPad,CuDef*
G36*
G01*
X87750000Y-78925000D02*
X87550000Y-78925000D01*
G75*
G02*
X87450000Y-78825000I0J100000D01*
G01*
X87450000Y-78565000D01*
G75*
G02*
X87550000Y-78465000I100000J0D01*
G01*
X87750000Y-78465000D01*
G75*
G02*
X87850000Y-78565000I0J-100000D01*
G01*
X87850000Y-78825000D01*
G75*
G02*
X87750000Y-78925000I-100000J0D01*
G01*
G37*
G04 #@! TD.AperFunction*
G04 #@! TO.P,C3,2*
G04 #@! TO.N,GND*
G04 #@! TA.AperFunction,SMDPad,CuDef*
G36*
G01*
X87750000Y-78285000D02*
X87550000Y-78285000D01*
G75*
G02*
X87450000Y-78185000I0J100000D01*
G01*
X87450000Y-77925000D01*
G75*
G02*
X87550000Y-77825000I100000J0D01*
G01*
X87750000Y-77825000D01*
G75*
G02*
X87850000Y-77925000I0J-100000D01*
G01*
X87850000Y-78185000D01*
G75*
G02*
X87750000Y-78285000I-100000J0D01*
G01*
G37*
G04 #@! TD.AperFunction*
G04 #@! TD*
G04 #@! TO.P,C4,1*
G04 #@! TO.N,+3V3*
G04 #@! TA.AperFunction,SMDPad,CuDef*
G36*
G01*
X91875000Y-62425000D02*
X92075000Y-62425000D01*
G75*
G02*
X92175000Y-62525000I0J-100000D01*
G01*
X92175000Y-62785000D01*
G75*
G02*
X92075000Y-62885000I-100000J0D01*
G01*
X91875000Y-62885000D01*
G75*
G02*
X91775000Y-62785000I0J100000D01*
G01*
X91775000Y-62525000D01*
G75*
G02*
X91875000Y-62425000I100000J0D01*
G01*
G37*
G04 #@! TD.AperFunction*
G04 #@! TO.P,C4,2*
G04 #@! TO.N,GND*
G04 #@! TA.AperFunction,SMDPad,CuDef*
G36*
G01*
X91875000Y-63065000D02*
X92075000Y-63065000D01*
G75*
G02*
X92175000Y-63165000I0J-100000D01*
G01*
X92175000Y-63425000D01*
G75*
G02*
X92075000Y-63525000I-100000J0D01*
G01*
X91875000Y-63525000D01*
G75*
G02*
X91775000Y-63425000I0J100000D01*
G01*
X91775000Y-63165000D01*
G75*
G02*
X91875000Y-63065000I100000J0D01*
G01*
G37*
G04 #@! TD.AperFunction*
G04 #@! TD*
G04 #@! TO.P,C5,2*
G04 #@! TO.N,GND*
G04 #@! TA.AperFunction,SMDPad,CuDef*
G36*
G01*
X99150000Y-73145000D02*
X99350000Y-73145000D01*
G75*
G02*
X99450000Y-73245000I0J-100000D01*
G01*
X99450000Y-73505000D01*
G75*
G02*
X99350000Y-73605000I-100000J0D01*
G01*
X99150000Y-73605000D01*
G75*
G02*
X99050000Y-73505000I0J100000D01*
G01*
X99050000Y-73245000D01*
G75*
G02*
X99150000Y-73145000I100000J0D01*
G01*
G37*
G04 #@! TD.AperFunction*
G04 #@! TO.P,C5,1*
G04 #@! TO.N,+3V3*
G04 #@! TA.AperFunction,SMDPad,CuDef*
G36*
G01*
X99150000Y-72505000D02*
X99350000Y-72505000D01*
G75*
G02*
X99450000Y-72605000I0J-100000D01*
G01*
X99450000Y-72865000D01*
G75*
G02*
X99350000Y-72965000I-100000J0D01*
G01*
X99150000Y-72965000D01*
G75*
G02*
X99050000Y-72865000I0J100000D01*
G01*
X99050000Y-72605000D01*
G75*
G02*
X99150000Y-72505000I100000J0D01*
G01*
G37*
G04 #@! TD.AperFunction*
G04 #@! TD*
G04 #@! TO.P,C6,1*
G04 #@! TO.N,Net-(C6-Pad1)*
G04 #@! TA.AperFunction,SMDPad,CuDef*
G36*
G01*
X88525000Y-58650000D02*
X88525000Y-58150000D01*
G75*
G02*
X88750000Y-57925000I225000J0D01*
G01*
X89200000Y-57925000D01*
G75*
G02*
X89425000Y-58150000I0J-225000D01*
G01*
X89425000Y-58650000D01*
G75*
G02*
X89200000Y-58875000I-225000J0D01*
G01*
X88750000Y-58875000D01*
G75*
G02*
X88525000Y-58650000I0J225000D01*
G01*
G37*
G04 #@! TD.AperFunction*
G04 #@! TO.P,C6,2*
G04 #@! TO.N,GND*
G04 #@! TA.AperFunction,SMDPad,CuDef*
G36*
G01*
X90075000Y-58650000D02*
X90075000Y-58150000D01*
G75*
G02*
X90300000Y-57925000I225000J0D01*
G01*
X90750000Y-57925000D01*
G75*
G02*
X90975000Y-58150000I0J-225000D01*
G01*
X90975000Y-58650000D01*
G75*
G02*
X90750000Y-58875000I-225000J0D01*
G01*
X90300000Y-58875000D01*
G75*
G02*
X90075000Y-58650000I0J225000D01*
G01*
G37*
G04 #@! TD.AperFunction*
G04 #@! TD*
G04 #@! TO.P,C7,1*
G04 #@! TO.N,+3V3*
G04 #@! TA.AperFunction,SMDPad,CuDef*
G36*
G01*
X89300000Y-69925000D02*
X89300000Y-69725000D01*
G75*
G02*
X89400000Y-69625000I100000J0D01*
G01*
X89660000Y-69625000D01*
G75*
G02*
X89760000Y-69725000I0J-100000D01*
G01*
X89760000Y-69925000D01*
G75*
G02*
X89660000Y-70025000I-100000J0D01*
G01*
X89400000Y-70025000D01*
G75*
G02*
X89300000Y-69925000I0J100000D01*
G01*
G37*
G04 #@! TD.AperFunction*
G04 #@! TO.P,C7,2*
G04 #@! TO.N,GND*
G04 #@! TA.AperFunction,SMDPad,CuDef*
G36*
G01*
X89940000Y-69925000D02*
X89940000Y-69725000D01*
G75*
G02*
X90040000Y-69625000I100000J0D01*
G01*
X90300000Y-69625000D01*
G75*
G02*
X90400000Y-69725000I0J-100000D01*
G01*
X90400000Y-69925000D01*
G75*
G02*
X90300000Y-70025000I-100000J0D01*
G01*
X90040000Y-70025000D01*
G75*
G02*
X89940000Y-69925000I0J100000D01*
G01*
G37*
G04 #@! TD.AperFunction*
G04 #@! TD*
G04 #@! TO.P,C8,2*
G04 #@! TO.N,GND*
G04 #@! TA.AperFunction,SMDPad,CuDef*
G36*
G01*
X92075000Y-59905000D02*
X91875000Y-59905000D01*
G75*
G02*
X91775000Y-59805000I0J100000D01*
G01*
X91775000Y-59545000D01*
G75*
G02*
X91875000Y-59445000I100000J0D01*
G01*
X92075000Y-59445000D01*
G75*
G02*
X92175000Y-59545000I0J-100000D01*
G01*
X92175000Y-59805000D01*
G75*
G02*
X92075000Y-59905000I-100000J0D01*
G01*
G37*
G04 #@! TD.AperFunction*
G04 #@! TO.P,C8,1*
G04 #@! TO.N,Net-(C6-Pad1)*
G04 #@! TA.AperFunction,SMDPad,CuDef*
G36*
G01*
X92075000Y-60545000D02*
X91875000Y-60545000D01*
G75*
G02*
X91775000Y-60445000I0J100000D01*
G01*
X91775000Y-60185000D01*
G75*
G02*
X91875000Y-60085000I100000J0D01*
G01*
X92075000Y-60085000D01*
G75*
G02*
X92175000Y-60185000I0J-100000D01*
G01*
X92175000Y-60445000D01*
G75*
G02*
X92075000Y-60545000I-100000J0D01*
G01*
G37*
G04 #@! TD.AperFunction*
G04 #@! TD*
G04 #@! TO.P,C9,2*
G04 #@! TO.N,GND*
G04 #@! TA.AperFunction,SMDPad,CuDef*
G36*
G01*
X92495000Y-66885000D02*
X92695000Y-66885000D01*
G75*
G02*
X92795000Y-66985000I0J-100000D01*
G01*
X92795000Y-67245000D01*
G75*
G02*
X92695000Y-67345000I-100000J0D01*
G01*
X92495000Y-67345000D01*
G75*
G02*
X92395000Y-67245000I0J100000D01*
G01*
X92395000Y-66985000D01*
G75*
G02*
X92495000Y-66885000I100000J0D01*
G01*
G37*
G04 #@! TD.AperFunction*
G04 #@! TO.P,C9,1*
G04 #@! TO.N,+3V3*
G04 #@! TA.AperFunction,SMDPad,CuDef*
G36*
G01*
X92495000Y-66245000D02*
X92695000Y-66245000D01*
G75*
G02*
X92795000Y-66345000I0J-100000D01*
G01*
X92795000Y-66605000D01*
G75*
G02*
X92695000Y-66705000I-100000J0D01*
G01*
X92495000Y-66705000D01*
G75*
G02*
X92395000Y-66605000I0J100000D01*
G01*
X92395000Y-66345000D01*
G75*
G02*
X92495000Y-66245000I100000J0D01*
G01*
G37*
G04 #@! TD.AperFunction*
G04 #@! TD*
G04 #@! TO.P,C10,1*
G04 #@! TO.N,+3V3*
G04 #@! TA.AperFunction,SMDPad,CuDef*
G36*
G01*
X91000000Y-66900000D02*
X91000000Y-67400000D01*
G75*
G02*
X90775000Y-67625000I-225000J0D01*
G01*
X90325000Y-67625000D01*
G75*
G02*
X90100000Y-67400000I0J225000D01*
G01*
X90100000Y-66900000D01*
G75*
G02*
X90325000Y-66675000I225000J0D01*
G01*
X90775000Y-66675000D01*
G75*
G02*
X91000000Y-66900000I0J-225000D01*
G01*
G37*
G04 #@! TD.AperFunction*
G04 #@! TO.P,C10,2*
G04 #@! TO.N,GND*
G04 #@! TA.AperFunction,SMDPad,CuDef*
G36*
G01*
X89450000Y-66900000D02*
X89450000Y-67400000D01*
G75*
G02*
X89225000Y-67625000I-225000J0D01*
G01*
X88775000Y-67625000D01*
G75*
G02*
X88550000Y-67400000I0J225000D01*
G01*
X88550000Y-66900000D01*
G75*
G02*
X88775000Y-66675000I225000J0D01*
G01*
X89225000Y-66675000D01*
G75*
G02*
X89450000Y-66900000I0J-225000D01*
G01*
G37*
G04 #@! TD.AperFunction*
G04 #@! TD*
G04 #@! TO.P,C11,1*
G04 #@! TO.N,/NRST*
G04 #@! TA.AperFunction,SMDPad,CuDef*
G36*
G01*
X102680000Y-94350000D02*
X102680000Y-94550000D01*
G75*
G02*
X102580000Y-94650000I-100000J0D01*
G01*
X102320000Y-94650000D01*
G75*
G02*
X102220000Y-94550000I0J100000D01*
G01*
X102220000Y-94350000D01*
G75*
G02*
X102320000Y-94250000I100000J0D01*
G01*
X102580000Y-94250000D01*
G75*
G02*
X102680000Y-94350000I0J-100000D01*
G01*
G37*
G04 #@! TD.AperFunction*
G04 #@! TO.P,C11,2*
G04 #@! TO.N,GND*
G04 #@! TA.AperFunction,SMDPad,CuDef*
G36*
G01*
X102040000Y-94350000D02*
X102040000Y-94550000D01*
G75*
G02*
X101940000Y-94650000I-100000J0D01*
G01*
X101680000Y-94650000D01*
G75*
G02*
X101580000Y-94550000I0J100000D01*
G01*
X101580000Y-94350000D01*
G75*
G02*
X101680000Y-94250000I100000J0D01*
G01*
X101940000Y-94250000D01*
G75*
G02*
X102040000Y-94350000I0J-100000D01*
G01*
G37*
G04 #@! TD.AperFunction*
G04 #@! TD*
G04 #@! TO.P,C12,2*
G04 #@! TO.N,GND*
G04 #@! TA.AperFunction,SMDPad,CuDef*
G36*
G01*
X89500000Y-65125000D02*
X89500000Y-65625000D01*
G75*
G02*
X89275000Y-65850000I-225000J0D01*
G01*
X88825000Y-65850000D01*
G75*
G02*
X88600000Y-65625000I0J225000D01*
G01*
X88600000Y-65125000D01*
G75*
G02*
X88825000Y-64900000I225000J0D01*
G01*
X89275000Y-64900000D01*
G75*
G02*
X89500000Y-65125000I0J-225000D01*
G01*
G37*
G04 #@! TD.AperFunction*
G04 #@! TO.P,C12,1*
G04 #@! TO.N,+3V3*
G04 #@! TA.AperFunction,SMDPad,CuDef*
G36*
G01*
X91050000Y-65125000D02*
X91050000Y-65625000D01*
G75*
G02*
X90825000Y-65850000I-225000J0D01*
G01*
X90375000Y-65850000D01*
G75*
G02*
X90150000Y-65625000I0J225000D01*
G01*
X90150000Y-65125000D01*
G75*
G02*
X90375000Y-64900000I225000J0D01*
G01*
X90825000Y-64900000D01*
G75*
G02*
X91050000Y-65125000I0J-225000D01*
G01*
G37*
G04 #@! TD.AperFunction*
G04 #@! TD*
G04 #@! TO.P,C13,1*
G04 #@! TO.N,Net-(C13-Pad1)*
G04 #@! TA.AperFunction,SMDPad,CuDef*
G36*
G01*
X91650000Y-83350000D02*
X91650000Y-83550000D01*
G75*
G02*
X91550000Y-83650000I-100000J0D01*
G01*
X91290000Y-83650000D01*
G75*
G02*
X91190000Y-83550000I0J100000D01*
G01*
X91190000Y-83350000D01*
G75*
G02*
X91290000Y-83250000I100000J0D01*
G01*
X91550000Y-83250000D01*
G75*
G02*
X91650000Y-83350000I0J-100000D01*
G01*
G37*
G04 #@! TD.AperFunction*
G04 #@! TO.P,C13,2*
G04 #@! TO.N,GND*
G04 #@! TA.AperFunction,SMDPad,CuDef*
G36*
G01*
X91010000Y-83350000D02*
X91010000Y-83550000D01*
G75*
G02*
X90910000Y-83650000I-100000J0D01*
G01*
X90650000Y-83650000D01*
G75*
G02*
X90550000Y-83550000I0J100000D01*
G01*
X90550000Y-83350000D01*
G75*
G02*
X90650000Y-83250000I100000J0D01*
G01*
X90910000Y-83250000D01*
G75*
G02*
X91010000Y-83350000I0J-100000D01*
G01*
G37*
G04 #@! TD.AperFunction*
G04 #@! TD*
G04 #@! TO.P,C14,2*
G04 #@! TO.N,GND*
G04 #@! TA.AperFunction,SMDPad,CuDef*
G36*
G01*
X95810000Y-83350000D02*
X95810000Y-83550000D01*
G75*
G02*
X95710000Y-83650000I-100000J0D01*
G01*
X95450000Y-83650000D01*
G75*
G02*
X95350000Y-83550000I0J100000D01*
G01*
X95350000Y-83350000D01*
G75*
G02*
X95450000Y-83250000I100000J0D01*
G01*
X95710000Y-83250000D01*
G75*
G02*
X95810000Y-83350000I0J-100000D01*
G01*
G37*
G04 #@! TD.AperFunction*
G04 #@! TO.P,C14,1*
G04 #@! TO.N,Net-(C14-Pad1)*
G04 #@! TA.AperFunction,SMDPad,CuDef*
G36*
G01*
X96450000Y-83350000D02*
X96450000Y-83550000D01*
G75*
G02*
X96350000Y-83650000I-100000J0D01*
G01*
X96090000Y-83650000D01*
G75*
G02*
X95990000Y-83550000I0J100000D01*
G01*
X95990000Y-83350000D01*
G75*
G02*
X96090000Y-83250000I100000J0D01*
G01*
X96350000Y-83250000D01*
G75*
G02*
X96450000Y-83350000I0J-100000D01*
G01*
G37*
G04 #@! TD.AperFunction*
G04 #@! TD*
D10*
G04 #@! TO.P,D1,1*
G04 #@! TO.N,Net-(D1-Pad1)*
X100350000Y-58600000D03*
G04 #@! TO.P,D1,2*
G04 #@! TO.N,+5V*
X102450000Y-58600000D03*
G04 #@! TD*
G04 #@! TO.P,D2,1*
G04 #@! TO.N,GND*
G04 #@! TA.AperFunction,SMDPad,CuDef*
G36*
G01*
X95130000Y-59300000D02*
X95130000Y-59500000D01*
G75*
G02*
X95030000Y-59600000I-100000J0D01*
G01*
X94770000Y-59600000D01*
G75*
G02*
X94670000Y-59500000I0J100000D01*
G01*
X94670000Y-59300000D01*
G75*
G02*
X94770000Y-59200000I100000J0D01*
G01*
X95030000Y-59200000D01*
G75*
G02*
X95130000Y-59300000I0J-100000D01*
G01*
G37*
G04 #@! TD.AperFunction*
G04 #@! TO.P,D2,2*
G04 #@! TO.N,Net-(D2-Pad2)*
G04 #@! TA.AperFunction,SMDPad,CuDef*
G36*
G01*
X94490000Y-59300000D02*
X94490000Y-59500000D01*
G75*
G02*
X94390000Y-59600000I-100000J0D01*
G01*
X94130000Y-59600000D01*
G75*
G02*
X94030000Y-59500000I0J100000D01*
G01*
X94030000Y-59300000D01*
G75*
G02*
X94130000Y-59200000I100000J0D01*
G01*
X94390000Y-59200000D01*
G75*
G02*
X94490000Y-59300000I0J-100000D01*
G01*
G37*
G04 #@! TD.AperFunction*
G04 #@! TD*
G04 #@! TO.P,F1,1*
G04 #@! TO.N,Net-(C6-Pad1)*
G04 #@! TA.AperFunction,SMDPad,CuDef*
G36*
G01*
X96075000Y-59056250D02*
X96075000Y-58143750D01*
G75*
G02*
X96318750Y-57900000I243750J0D01*
G01*
X96806250Y-57900000D01*
G75*
G02*
X97050000Y-58143750I0J-243750D01*
G01*
X97050000Y-59056250D01*
G75*
G02*
X96806250Y-59300000I-243750J0D01*
G01*
X96318750Y-59300000D01*
G75*
G02*
X96075000Y-59056250I0J243750D01*
G01*
G37*
G04 #@! TD.AperFunction*
G04 #@! TO.P,F1,2*
G04 #@! TO.N,Net-(D1-Pad1)*
G04 #@! TA.AperFunction,SMDPad,CuDef*
G36*
G01*
X97950000Y-59056250D02*
X97950000Y-58143750D01*
G75*
G02*
X98193750Y-57900000I243750J0D01*
G01*
X98681250Y-57900000D01*
G75*
G02*
X98925000Y-58143750I0J-243750D01*
G01*
X98925000Y-59056250D01*
G75*
G02*
X98681250Y-59300000I-243750J0D01*
G01*
X98193750Y-59300000D01*
G75*
G02*
X97950000Y-59056250I0J243750D01*
G01*
G37*
G04 #@! TD.AperFunction*
G04 #@! TD*
D11*
G04 #@! TO.P,J1,S1*
G04 #@! TO.N,GND*
X106070000Y-67420000D03*
X106070000Y-58780000D03*
D12*
X110240000Y-67420000D03*
X110240000Y-58780000D03*
D13*
G04 #@! TO.P,J1,B7*
G04 #@! TO.N,Net-(J1-PadA7)*
X105490000Y-63850000D03*
G04 #@! TO.P,J1,A6*
G04 #@! TO.N,Net-(J1-PadA6)*
X105490000Y-63350000D03*
G04 #@! TO.P,J1,A7*
G04 #@! TO.N,Net-(J1-PadA7)*
X105490000Y-62850000D03*
G04 #@! TO.P,J1,B8*
G04 #@! TO.N,N/C*
X105490000Y-64850000D03*
G04 #@! TO.P,J1,A5*
G04 #@! TO.N,Net-(J1-PadA5)*
X105490000Y-64350000D03*
G04 #@! TO.P,J1,A8*
G04 #@! TO.N,N/C*
X105490000Y-61850000D03*
G04 #@! TO.P,J1,B6*
G04 #@! TO.N,Net-(J1-PadA6)*
X105490000Y-62350000D03*
G04 #@! TO.P,J1,B5*
G04 #@! TO.N,Net-(J1-PadB5)*
X105490000Y-61350000D03*
D14*
G04 #@! TO.P,J1,A4*
G04 #@! TO.N,+5V*
X105490000Y-65500000D03*
G04 #@! TO.P,J1,B9*
X105490000Y-65500000D03*
G04 #@! TO.P,J1,A1*
G04 #@! TO.N,GND*
X105490000Y-66300000D03*
G04 #@! TO.P,J1,B12*
X105490000Y-66300000D03*
G04 #@! TO.P,J1,B4*
G04 #@! TO.N,+5V*
X105490000Y-60700000D03*
G04 #@! TO.P,J1,B1*
G04 #@! TO.N,GND*
X105490000Y-59900000D03*
G04 #@! TO.P,J1,A9*
G04 #@! TO.N,+5V*
X105490000Y-60700000D03*
G04 #@! TO.P,J1,A12*
G04 #@! TO.N,GND*
X105490000Y-59900000D03*
G04 #@! TD*
G04 #@! TO.P,J2,A12*
G04 #@! TO.N,GND*
X105490000Y-71800000D03*
G04 #@! TO.P,J2,A9*
G04 #@! TO.N,+5V*
X105490000Y-72600000D03*
G04 #@! TO.P,J2,B1*
G04 #@! TO.N,GND*
X105490000Y-71800000D03*
G04 #@! TO.P,J2,B4*
G04 #@! TO.N,+5V*
X105490000Y-72600000D03*
G04 #@! TO.P,J2,B12*
G04 #@! TO.N,GND*
X105490000Y-78200000D03*
G04 #@! TO.P,J2,A1*
X105490000Y-78200000D03*
G04 #@! TO.P,J2,B9*
G04 #@! TO.N,+5V*
X105490000Y-77400000D03*
G04 #@! TO.P,J2,A4*
X105490000Y-77400000D03*
D13*
G04 #@! TO.P,J2,B5*
G04 #@! TO.N,Net-(J2-PadB5)*
X105490000Y-73250000D03*
G04 #@! TO.P,J2,B6*
G04 #@! TO.N,Net-(J2-PadA6)*
X105490000Y-74250000D03*
G04 #@! TO.P,J2,A8*
G04 #@! TO.N,N/C*
X105490000Y-73750000D03*
G04 #@! TO.P,J2,A5*
G04 #@! TO.N,Net-(J2-PadA5)*
X105490000Y-76250000D03*
G04 #@! TO.P,J2,B8*
G04 #@! TO.N,N/C*
X105490000Y-76750000D03*
G04 #@! TO.P,J2,A7*
G04 #@! TO.N,Net-(J2-PadA7)*
X105490000Y-74750000D03*
G04 #@! TO.P,J2,A6*
G04 #@! TO.N,Net-(J2-PadA6)*
X105490000Y-75250000D03*
G04 #@! TO.P,J2,B7*
G04 #@! TO.N,Net-(J2-PadA7)*
X105490000Y-75750000D03*
D12*
G04 #@! TO.P,J2,S1*
G04 #@! TO.N,GND*
X110240000Y-70680000D03*
X110240000Y-79320000D03*
D11*
X106070000Y-70680000D03*
X106070000Y-79320000D03*
G04 #@! TD*
D15*
G04 #@! TO.P,J3,1*
G04 #@! TO.N,/P1*
X83700000Y-59300000D03*
D16*
G04 #@! TO.P,J3,2*
G04 #@! TO.N,/P2*
X81160000Y-59300000D03*
G04 #@! TO.P,J3,3*
G04 #@! TO.N,/P3*
X83700000Y-61840000D03*
G04 #@! TO.P,J3,4*
G04 #@! TO.N,/P4*
X81160000Y-61840000D03*
G04 #@! TO.P,J3,5*
G04 #@! TO.N,/P5*
X83700000Y-64380000D03*
G04 #@! TO.P,J3,6*
G04 #@! TO.N,/P6*
X81160000Y-64380000D03*
G04 #@! TO.P,J3,7*
G04 #@! TO.N,/P7*
X83700000Y-66920000D03*
G04 #@! TO.P,J3,8*
G04 #@! TO.N,/P8*
X81160000Y-66920000D03*
G04 #@! TO.P,J3,9*
G04 #@! TO.N,/P9*
X83700000Y-69460000D03*
G04 #@! TO.P,J3,10*
G04 #@! TO.N,/P10*
X81160000Y-69460000D03*
G04 #@! TO.P,J3,11*
G04 #@! TO.N,/P11*
X83700000Y-72000000D03*
G04 #@! TO.P,J3,12*
G04 #@! TO.N,/P12*
X81160000Y-72000000D03*
G04 #@! TO.P,J3,13*
G04 #@! TO.N,/P13*
X83700000Y-74540000D03*
G04 #@! TO.P,J3,14*
G04 #@! TO.N,/P14*
X81160000Y-74540000D03*
G04 #@! TO.P,J3,15*
G04 #@! TO.N,/P15*
X83700000Y-77080000D03*
G04 #@! TO.P,J3,16*
G04 #@! TO.N,/P16*
X81160000Y-77080000D03*
G04 #@! TO.P,J3,17*
G04 #@! TO.N,/P17*
X83700000Y-79620000D03*
G04 #@! TO.P,J3,18*
G04 #@! TO.N,/P18*
X81160000Y-79620000D03*
G04 #@! TO.P,J3,19*
G04 #@! TO.N,/P19*
X83700000Y-82160000D03*
G04 #@! TO.P,J3,20*
G04 #@! TO.N,/P20*
X81160000Y-82160000D03*
G04 #@! TO.P,J3,21*
G04 #@! TO.N,/P21*
X83700000Y-84700000D03*
G04 #@! TO.P,J3,22*
G04 #@! TO.N,/P22*
X81160000Y-84700000D03*
G04 #@! TO.P,J3,23*
G04 #@! TO.N,/P23*
X83700000Y-87240000D03*
G04 #@! TO.P,J3,24*
G04 #@! TO.N,/P24*
X81160000Y-87240000D03*
G04 #@! TO.P,J3,25*
G04 #@! TO.N,/P25*
X83700000Y-89780000D03*
G04 #@! TO.P,J3,26*
G04 #@! TO.N,/P26*
X81160000Y-89780000D03*
G04 #@! TO.P,J3,27*
G04 #@! TO.N,/P27*
X83700000Y-92320000D03*
G04 #@! TO.P,J3,28*
G04 #@! TO.N,/P28*
X81160000Y-92320000D03*
G04 #@! TO.P,J3,29*
G04 #@! TO.N,/P29*
X83700000Y-94860000D03*
G04 #@! TO.P,J3,30*
G04 #@! TO.N,+3V3*
X81160000Y-94860000D03*
G04 #@! TO.P,J3,31*
G04 #@! TO.N,GND*
X83700000Y-97400000D03*
G04 #@! TO.P,J3,32*
G04 #@! TO.N,+5V*
X81160000Y-97400000D03*
G04 #@! TD*
G04 #@! TO.P,R1,2*
G04 #@! TO.N,Net-(R1-Pad2)*
G04 #@! TA.AperFunction,SMDPad,CuDef*
G36*
G01*
X87140000Y-96950000D02*
X87140000Y-96750000D01*
G75*
G02*
X87240000Y-96650000I100000J0D01*
G01*
X87500000Y-96650000D01*
G75*
G02*
X87600000Y-96750000I0J-100000D01*
G01*
X87600000Y-96950000D01*
G75*
G02*
X87500000Y-97050000I-100000J0D01*
G01*
X87240000Y-97050000D01*
G75*
G02*
X87140000Y-96950000I0J100000D01*
G01*
G37*
G04 #@! TD.AperFunction*
G04 #@! TO.P,R1,1*
G04 #@! TO.N,+3V3*
G04 #@! TA.AperFunction,SMDPad,CuDef*
G36*
G01*
X86500000Y-96950000D02*
X86500000Y-96750000D01*
G75*
G02*
X86600000Y-96650000I100000J0D01*
G01*
X86860000Y-96650000D01*
G75*
G02*
X86960000Y-96750000I0J-100000D01*
G01*
X86960000Y-96950000D01*
G75*
G02*
X86860000Y-97050000I-100000J0D01*
G01*
X86600000Y-97050000D01*
G75*
G02*
X86500000Y-96950000I0J100000D01*
G01*
G37*
G04 #@! TD.AperFunction*
G04 #@! TD*
G04 #@! TO.P,R2,1*
G04 #@! TO.N,Net-(R2-Pad1)*
G04 #@! TA.AperFunction,SMDPad,CuDef*
G36*
G01*
X87600000Y-94200000D02*
X87600000Y-94400000D01*
G75*
G02*
X87500000Y-94500000I-100000J0D01*
G01*
X87240000Y-94500000D01*
G75*
G02*
X87140000Y-94400000I0J100000D01*
G01*
X87140000Y-94200000D01*
G75*
G02*
X87240000Y-94100000I100000J0D01*
G01*
X87500000Y-94100000D01*
G75*
G02*
X87600000Y-94200000I0J-100000D01*
G01*
G37*
G04 #@! TD.AperFunction*
G04 #@! TO.P,R2,2*
G04 #@! TO.N,+3V3*
G04 #@! TA.AperFunction,SMDPad,CuDef*
G36*
G01*
X86960000Y-94200000D02*
X86960000Y-94400000D01*
G75*
G02*
X86860000Y-94500000I-100000J0D01*
G01*
X86600000Y-94500000D01*
G75*
G02*
X86500000Y-94400000I0J100000D01*
G01*
X86500000Y-94200000D01*
G75*
G02*
X86600000Y-94100000I100000J0D01*
G01*
X86860000Y-94100000D01*
G75*
G02*
X86960000Y-94200000I0J-100000D01*
G01*
G37*
G04 #@! TD.AperFunction*
G04 #@! TD*
G04 #@! TO.P,R3,1*
G04 #@! TO.N,Net-(C6-Pad1)*
G04 #@! TA.AperFunction,SMDPad,CuDef*
G36*
G01*
X95150000Y-58100000D02*
X95150000Y-58300000D01*
G75*
G02*
X95050000Y-58400000I-100000J0D01*
G01*
X94790000Y-58400000D01*
G75*
G02*
X94690000Y-58300000I0J100000D01*
G01*
X94690000Y-58100000D01*
G75*
G02*
X94790000Y-58000000I100000J0D01*
G01*
X95050000Y-58000000D01*
G75*
G02*
X95150000Y-58100000I0J-100000D01*
G01*
G37*
G04 #@! TD.AperFunction*
G04 #@! TO.P,R3,2*
G04 #@! TO.N,Net-(D2-Pad2)*
G04 #@! TA.AperFunction,SMDPad,CuDef*
G36*
G01*
X94510000Y-58100000D02*
X94510000Y-58300000D01*
G75*
G02*
X94410000Y-58400000I-100000J0D01*
G01*
X94150000Y-58400000D01*
G75*
G02*
X94050000Y-58300000I0J100000D01*
G01*
X94050000Y-58100000D01*
G75*
G02*
X94150000Y-58000000I100000J0D01*
G01*
X94410000Y-58000000D01*
G75*
G02*
X94510000Y-58100000I0J-100000D01*
G01*
G37*
G04 #@! TD.AperFunction*
G04 #@! TD*
G04 #@! TO.P,R4,1*
G04 #@! TO.N,GND*
G04 #@! TA.AperFunction,SMDPad,CuDef*
G36*
G01*
X102850000Y-64500000D02*
X102850000Y-64300000D01*
G75*
G02*
X102950000Y-64200000I100000J0D01*
G01*
X103210000Y-64200000D01*
G75*
G02*
X103310000Y-64300000I0J-100000D01*
G01*
X103310000Y-64500000D01*
G75*
G02*
X103210000Y-64600000I-100000J0D01*
G01*
X102950000Y-64600000D01*
G75*
G02*
X102850000Y-64500000I0J100000D01*
G01*
G37*
G04 #@! TD.AperFunction*
G04 #@! TO.P,R4,2*
G04 #@! TO.N,Net-(J1-PadA5)*
G04 #@! TA.AperFunction,SMDPad,CuDef*
G36*
G01*
X103490000Y-64500000D02*
X103490000Y-64300000D01*
G75*
G02*
X103590000Y-64200000I100000J0D01*
G01*
X103850000Y-64200000D01*
G75*
G02*
X103950000Y-64300000I0J-100000D01*
G01*
X103950000Y-64500000D01*
G75*
G02*
X103850000Y-64600000I-100000J0D01*
G01*
X103590000Y-64600000D01*
G75*
G02*
X103490000Y-64500000I0J100000D01*
G01*
G37*
G04 #@! TD.AperFunction*
G04 #@! TD*
G04 #@! TO.P,R5,2*
G04 #@! TO.N,Net-(J1-PadA6)*
G04 #@! TA.AperFunction,SMDPad,CuDef*
G36*
G01*
X103490000Y-62450000D02*
X103490000Y-62250000D01*
G75*
G02*
X103590000Y-62150000I100000J0D01*
G01*
X103850000Y-62150000D01*
G75*
G02*
X103950000Y-62250000I0J-100000D01*
G01*
X103950000Y-62450000D01*
G75*
G02*
X103850000Y-62550000I-100000J0D01*
G01*
X103590000Y-62550000D01*
G75*
G02*
X103490000Y-62450000I0J100000D01*
G01*
G37*
G04 #@! TD.AperFunction*
G04 #@! TO.P,R5,1*
G04 #@! TO.N,Net-(R5-Pad1)*
G04 #@! TA.AperFunction,SMDPad,CuDef*
G36*
G01*
X102850000Y-62450000D02*
X102850000Y-62250000D01*
G75*
G02*
X102950000Y-62150000I100000J0D01*
G01*
X103210000Y-62150000D01*
G75*
G02*
X103310000Y-62250000I0J-100000D01*
G01*
X103310000Y-62450000D01*
G75*
G02*
X103210000Y-62550000I-100000J0D01*
G01*
X102950000Y-62550000D01*
G75*
G02*
X102850000Y-62450000I0J100000D01*
G01*
G37*
G04 #@! TD.AperFunction*
G04 #@! TD*
G04 #@! TO.P,R6,1*
G04 #@! TO.N,Net-(R6-Pad1)*
G04 #@! TA.AperFunction,SMDPad,CuDef*
G36*
G01*
X102850000Y-63575000D02*
X102850000Y-63375000D01*
G75*
G02*
X102950000Y-63275000I100000J0D01*
G01*
X103210000Y-63275000D01*
G75*
G02*
X103310000Y-63375000I0J-100000D01*
G01*
X103310000Y-63575000D01*
G75*
G02*
X103210000Y-63675000I-100000J0D01*
G01*
X102950000Y-63675000D01*
G75*
G02*
X102850000Y-63575000I0J100000D01*
G01*
G37*
G04 #@! TD.AperFunction*
G04 #@! TO.P,R6,2*
G04 #@! TO.N,Net-(J1-PadA7)*
G04 #@! TA.AperFunction,SMDPad,CuDef*
G36*
G01*
X103490000Y-63575000D02*
X103490000Y-63375000D01*
G75*
G02*
X103590000Y-63275000I100000J0D01*
G01*
X103850000Y-63275000D01*
G75*
G02*
X103950000Y-63375000I0J-100000D01*
G01*
X103950000Y-63575000D01*
G75*
G02*
X103850000Y-63675000I-100000J0D01*
G01*
X103590000Y-63675000D01*
G75*
G02*
X103490000Y-63575000I0J100000D01*
G01*
G37*
G04 #@! TD.AperFunction*
G04 #@! TD*
G04 #@! TO.P,R7,2*
G04 #@! TO.N,Net-(J1-PadB5)*
G04 #@! TA.AperFunction,SMDPad,CuDef*
G36*
G01*
X103490000Y-61400000D02*
X103490000Y-61200000D01*
G75*
G02*
X103590000Y-61100000I100000J0D01*
G01*
X103850000Y-61100000D01*
G75*
G02*
X103950000Y-61200000I0J-100000D01*
G01*
X103950000Y-61400000D01*
G75*
G02*
X103850000Y-61500000I-100000J0D01*
G01*
X103590000Y-61500000D01*
G75*
G02*
X103490000Y-61400000I0J100000D01*
G01*
G37*
G04 #@! TD.AperFunction*
G04 #@! TO.P,R7,1*
G04 #@! TO.N,GND*
G04 #@! TA.AperFunction,SMDPad,CuDef*
G36*
G01*
X102850000Y-61400000D02*
X102850000Y-61200000D01*
G75*
G02*
X102950000Y-61100000I100000J0D01*
G01*
X103210000Y-61100000D01*
G75*
G02*
X103310000Y-61200000I0J-100000D01*
G01*
X103310000Y-61400000D01*
G75*
G02*
X103210000Y-61500000I-100000J0D01*
G01*
X102950000Y-61500000D01*
G75*
G02*
X102850000Y-61400000I0J100000D01*
G01*
G37*
G04 #@! TD.AperFunction*
G04 #@! TD*
G04 #@! TO.P,R8,1*
G04 #@! TO.N,GND*
G04 #@! TA.AperFunction,SMDPad,CuDef*
G36*
G01*
X100080000Y-96750000D02*
X100080000Y-96950000D01*
G75*
G02*
X99980000Y-97050000I-100000J0D01*
G01*
X99720000Y-97050000D01*
G75*
G02*
X99620000Y-96950000I0J100000D01*
G01*
X99620000Y-96750000D01*
G75*
G02*
X99720000Y-96650000I100000J0D01*
G01*
X99980000Y-96650000D01*
G75*
G02*
X100080000Y-96750000I0J-100000D01*
G01*
G37*
G04 #@! TD.AperFunction*
G04 #@! TO.P,R8,2*
G04 #@! TO.N,/BOOT1*
G04 #@! TA.AperFunction,SMDPad,CuDef*
G36*
G01*
X99440000Y-96750000D02*
X99440000Y-96950000D01*
G75*
G02*
X99340000Y-97050000I-100000J0D01*
G01*
X99080000Y-97050000D01*
G75*
G02*
X98980000Y-96950000I0J100000D01*
G01*
X98980000Y-96750000D01*
G75*
G02*
X99080000Y-96650000I100000J0D01*
G01*
X99340000Y-96650000D01*
G75*
G02*
X99440000Y-96750000I0J-100000D01*
G01*
G37*
G04 #@! TD.AperFunction*
G04 #@! TD*
G04 #@! TO.P,R9,1*
G04 #@! TO.N,+3V3*
G04 #@! TA.AperFunction,SMDPad,CuDef*
G36*
G01*
X101580000Y-93250000D02*
X101580000Y-93050000D01*
G75*
G02*
X101680000Y-92950000I100000J0D01*
G01*
X101940000Y-92950000D01*
G75*
G02*
X102040000Y-93050000I0J-100000D01*
G01*
X102040000Y-93250000D01*
G75*
G02*
X101940000Y-93350000I-100000J0D01*
G01*
X101680000Y-93350000D01*
G75*
G02*
X101580000Y-93250000I0J100000D01*
G01*
G37*
G04 #@! TD.AperFunction*
G04 #@! TO.P,R9,2*
G04 #@! TO.N,/NRST*
G04 #@! TA.AperFunction,SMDPad,CuDef*
G36*
G01*
X102220000Y-93250000D02*
X102220000Y-93050000D01*
G75*
G02*
X102320000Y-92950000I100000J0D01*
G01*
X102580000Y-92950000D01*
G75*
G02*
X102680000Y-93050000I0J-100000D01*
G01*
X102680000Y-93250000D01*
G75*
G02*
X102580000Y-93350000I-100000J0D01*
G01*
X102320000Y-93350000D01*
G75*
G02*
X102220000Y-93250000I0J100000D01*
G01*
G37*
G04 #@! TD.AperFunction*
G04 #@! TD*
G04 #@! TO.P,R10,2*
G04 #@! TO.N,/BOOT0*
G04 #@! TA.AperFunction,SMDPad,CuDef*
G36*
G01*
X99440000Y-94200000D02*
X99440000Y-94400000D01*
G75*
G02*
X99340000Y-94500000I-100000J0D01*
G01*
X99080000Y-94500000D01*
G75*
G02*
X98980000Y-94400000I0J100000D01*
G01*
X98980000Y-94200000D01*
G75*
G02*
X99080000Y-94100000I100000J0D01*
G01*
X99340000Y-94100000D01*
G75*
G02*
X99440000Y-94200000I0J-100000D01*
G01*
G37*
G04 #@! TD.AperFunction*
G04 #@! TO.P,R10,1*
G04 #@! TO.N,GND*
G04 #@! TA.AperFunction,SMDPad,CuDef*
G36*
G01*
X100080000Y-94200000D02*
X100080000Y-94400000D01*
G75*
G02*
X99980000Y-94500000I-100000J0D01*
G01*
X99720000Y-94500000D01*
G75*
G02*
X99620000Y-94400000I0J100000D01*
G01*
X99620000Y-94200000D01*
G75*
G02*
X99720000Y-94100000I100000J0D01*
G01*
X99980000Y-94100000D01*
G75*
G02*
X100080000Y-94200000I0J-100000D01*
G01*
G37*
G04 #@! TD.AperFunction*
G04 #@! TD*
G04 #@! TO.P,R11,1*
G04 #@! TO.N,GND*
G04 #@! TA.AperFunction,SMDPad,CuDef*
G36*
G01*
X102850000Y-73400000D02*
X102850000Y-73200000D01*
G75*
G02*
X102950000Y-73100000I100000J0D01*
G01*
X103210000Y-73100000D01*
G75*
G02*
X103310000Y-73200000I0J-100000D01*
G01*
X103310000Y-73400000D01*
G75*
G02*
X103210000Y-73500000I-100000J0D01*
G01*
X102950000Y-73500000D01*
G75*
G02*
X102850000Y-73400000I0J100000D01*
G01*
G37*
G04 #@! TD.AperFunction*
G04 #@! TO.P,R11,2*
G04 #@! TO.N,Net-(J2-PadB5)*
G04 #@! TA.AperFunction,SMDPad,CuDef*
G36*
G01*
X103490000Y-73400000D02*
X103490000Y-73200000D01*
G75*
G02*
X103590000Y-73100000I100000J0D01*
G01*
X103850000Y-73100000D01*
G75*
G02*
X103950000Y-73200000I0J-100000D01*
G01*
X103950000Y-73400000D01*
G75*
G02*
X103850000Y-73500000I-100000J0D01*
G01*
X103590000Y-73500000D01*
G75*
G02*
X103490000Y-73400000I0J100000D01*
G01*
G37*
G04 #@! TD.AperFunction*
G04 #@! TD*
G04 #@! TO.P,R12,2*
G04 #@! TO.N,Net-(J2-PadA6)*
G04 #@! TA.AperFunction,SMDPad,CuDef*
G36*
G01*
X103490000Y-75325000D02*
X103490000Y-75125000D01*
G75*
G02*
X103590000Y-75025000I100000J0D01*
G01*
X103850000Y-75025000D01*
G75*
G02*
X103950000Y-75125000I0J-100000D01*
G01*
X103950000Y-75325000D01*
G75*
G02*
X103850000Y-75425000I-100000J0D01*
G01*
X103590000Y-75425000D01*
G75*
G02*
X103490000Y-75325000I0J100000D01*
G01*
G37*
G04 #@! TD.AperFunction*
G04 #@! TO.P,R12,1*
G04 #@! TO.N,/USBDP*
G04 #@! TA.AperFunction,SMDPad,CuDef*
G36*
G01*
X102850000Y-75325000D02*
X102850000Y-75125000D01*
G75*
G02*
X102950000Y-75025000I100000J0D01*
G01*
X103210000Y-75025000D01*
G75*
G02*
X103310000Y-75125000I0J-100000D01*
G01*
X103310000Y-75325000D01*
G75*
G02*
X103210000Y-75425000I-100000J0D01*
G01*
X102950000Y-75425000D01*
G75*
G02*
X102850000Y-75325000I0J100000D01*
G01*
G37*
G04 #@! TD.AperFunction*
G04 #@! TD*
G04 #@! TO.P,R13,2*
G04 #@! TO.N,/USB_PULLUP*
G04 #@! TA.AperFunction,SMDPad,CuDef*
G36*
G01*
X91460000Y-69725000D02*
X91460000Y-69925000D01*
G75*
G02*
X91360000Y-70025000I-100000J0D01*
G01*
X91100000Y-70025000D01*
G75*
G02*
X91000000Y-69925000I0J100000D01*
G01*
X91000000Y-69725000D01*
G75*
G02*
X91100000Y-69625000I100000J0D01*
G01*
X91360000Y-69625000D01*
G75*
G02*
X91460000Y-69725000I0J-100000D01*
G01*
G37*
G04 #@! TD.AperFunction*
G04 #@! TO.P,R13,1*
G04 #@! TO.N,/USBDP*
G04 #@! TA.AperFunction,SMDPad,CuDef*
G36*
G01*
X92100000Y-69725000D02*
X92100000Y-69925000D01*
G75*
G02*
X92000000Y-70025000I-100000J0D01*
G01*
X91740000Y-70025000D01*
G75*
G02*
X91640000Y-69925000I0J100000D01*
G01*
X91640000Y-69725000D01*
G75*
G02*
X91740000Y-69625000I100000J0D01*
G01*
X92000000Y-69625000D01*
G75*
G02*
X92100000Y-69725000I0J-100000D01*
G01*
G37*
G04 #@! TD.AperFunction*
G04 #@! TD*
G04 #@! TO.P,R14,2*
G04 #@! TO.N,Net-(J2-PadA5)*
G04 #@! TA.AperFunction,SMDPad,CuDef*
G36*
G01*
X103490000Y-76300000D02*
X103490000Y-76100000D01*
G75*
G02*
X103590000Y-76000000I100000J0D01*
G01*
X103850000Y-76000000D01*
G75*
G02*
X103950000Y-76100000I0J-100000D01*
G01*
X103950000Y-76300000D01*
G75*
G02*
X103850000Y-76400000I-100000J0D01*
G01*
X103590000Y-76400000D01*
G75*
G02*
X103490000Y-76300000I0J100000D01*
G01*
G37*
G04 #@! TD.AperFunction*
G04 #@! TO.P,R14,1*
G04 #@! TO.N,GND*
G04 #@! TA.AperFunction,SMDPad,CuDef*
G36*
G01*
X102850000Y-76300000D02*
X102850000Y-76100000D01*
G75*
G02*
X102950000Y-76000000I100000J0D01*
G01*
X103210000Y-76000000D01*
G75*
G02*
X103310000Y-76100000I0J-100000D01*
G01*
X103310000Y-76300000D01*
G75*
G02*
X103210000Y-76400000I-100000J0D01*
G01*
X102950000Y-76400000D01*
G75*
G02*
X102850000Y-76300000I0J100000D01*
G01*
G37*
G04 #@! TD.AperFunction*
G04 #@! TD*
G04 #@! TO.P,R15,1*
G04 #@! TO.N,/USBDM*
G04 #@! TA.AperFunction,SMDPad,CuDef*
G36*
G01*
X102850000Y-74325000D02*
X102850000Y-74125000D01*
G75*
G02*
X102950000Y-74025000I100000J0D01*
G01*
X103210000Y-74025000D01*
G75*
G02*
X103310000Y-74125000I0J-100000D01*
G01*
X103310000Y-74325000D01*
G75*
G02*
X103210000Y-74425000I-100000J0D01*
G01*
X102950000Y-74425000D01*
G75*
G02*
X102850000Y-74325000I0J100000D01*
G01*
G37*
G04 #@! TD.AperFunction*
G04 #@! TO.P,R15,2*
G04 #@! TO.N,Net-(J2-PadA7)*
G04 #@! TA.AperFunction,SMDPad,CuDef*
G36*
G01*
X103490000Y-74325000D02*
X103490000Y-74125000D01*
G75*
G02*
X103590000Y-74025000I100000J0D01*
G01*
X103850000Y-74025000D01*
G75*
G02*
X103950000Y-74125000I0J-100000D01*
G01*
X103950000Y-74325000D01*
G75*
G02*
X103850000Y-74425000I-100000J0D01*
G01*
X103590000Y-74425000D01*
G75*
G02*
X103490000Y-74325000I0J100000D01*
G01*
G37*
G04 #@! TD.AperFunction*
G04 #@! TD*
D17*
G04 #@! TO.P,SW1,1*
G04 #@! TO.N,Net-(R2-Pad1)*
X89500000Y-94300000D03*
D18*
G04 #@! TO.P,SW1,3*
G04 #@! TO.N,/BOOT1*
X97120000Y-96840000D03*
G04 #@! TO.P,SW1,2*
G04 #@! TO.N,Net-(R1-Pad2)*
X89500000Y-96840000D03*
G04 #@! TO.P,SW1,4*
G04 #@! TO.N,/BOOT0*
X97120000Y-94300000D03*
G04 #@! TD*
D19*
G04 #@! TO.P,SW2,2*
G04 #@! TO.N,GND*
X105100000Y-97650000D03*
G04 #@! TO.P,SW2,1*
G04 #@! TO.N,/NRST*
X105100000Y-93150000D03*
G04 #@! TO.P,SW2,2*
G04 #@! TO.N,GND*
X111600000Y-97650000D03*
G04 #@! TO.P,SW2,1*
G04 #@! TO.N,/NRST*
X111600000Y-93150000D03*
G04 #@! TD*
D20*
G04 #@! TO.P,U1,1*
G04 #@! TO.N,GND*
X90375000Y-63325000D03*
G04 #@! TO.P,U1,3*
G04 #@! TO.N,Net-(C6-Pad1)*
X90375000Y-60325000D03*
G04 #@! TA.AperFunction,SMDPad,CuDef*
D21*
G04 #@! TO.P,U1,2*
G04 #@! TO.N,+3V3*
G36*
X86425000Y-60958500D02*
G01*
X89550000Y-60958500D01*
X89550000Y-61375000D01*
X91025000Y-61375000D01*
X91025000Y-62275000D01*
X89550000Y-62275000D01*
X89550000Y-62691500D01*
X86425000Y-62691500D01*
X86425000Y-60958500D01*
G37*
G04 #@! TD.AperFunction*
G04 #@! TD*
G04 #@! TO.P,U2,1*
G04 #@! TO.N,Net-(R5-Pad1)*
G04 #@! TA.AperFunction,SMDPad,CuDef*
G36*
G01*
X100575000Y-66230000D02*
X100575000Y-66530000D01*
G75*
G02*
X100425000Y-66680000I-150000J0D01*
G01*
X98775000Y-66680000D01*
G75*
G02*
X98625000Y-66530000I0J150000D01*
G01*
X98625000Y-66230000D01*
G75*
G02*
X98775000Y-66080000I150000J0D01*
G01*
X100425000Y-66080000D01*
G75*
G02*
X100575000Y-66230000I0J-150000D01*
G01*
G37*
G04 #@! TD.AperFunction*
G04 #@! TO.P,U2,2*
G04 #@! TO.N,Net-(R6-Pad1)*
G04 #@! TA.AperFunction,SMDPad,CuDef*
G36*
G01*
X100575000Y-64960000D02*
X100575000Y-65260000D01*
G75*
G02*
X100425000Y-65410000I-150000J0D01*
G01*
X98775000Y-65410000D01*
G75*
G02*
X98625000Y-65260000I0J150000D01*
G01*
X98625000Y-64960000D01*
G75*
G02*
X98775000Y-64810000I150000J0D01*
G01*
X100425000Y-64810000D01*
G75*
G02*
X100575000Y-64960000I0J-150000D01*
G01*
G37*
G04 #@! TD.AperFunction*
G04 #@! TO.P,U2,3*
G04 #@! TO.N,GND*
G04 #@! TA.AperFunction,SMDPad,CuDef*
G36*
G01*
X100575000Y-63690000D02*
X100575000Y-63990000D01*
G75*
G02*
X100425000Y-64140000I-150000J0D01*
G01*
X98775000Y-64140000D01*
G75*
G02*
X98625000Y-63990000I0J150000D01*
G01*
X98625000Y-63690000D01*
G75*
G02*
X98775000Y-63540000I150000J0D01*
G01*
X100425000Y-63540000D01*
G75*
G02*
X100575000Y-63690000I0J-150000D01*
G01*
G37*
G04 #@! TD.AperFunction*
G04 #@! TO.P,U2,4*
G04 #@! TO.N,N/C*
G04 #@! TA.AperFunction,SMDPad,CuDef*
G36*
G01*
X100575000Y-62420000D02*
X100575000Y-62720000D01*
G75*
G02*
X100425000Y-62870000I-150000J0D01*
G01*
X98775000Y-62870000D01*
G75*
G02*
X98625000Y-62720000I0J150000D01*
G01*
X98625000Y-62420000D01*
G75*
G02*
X98775000Y-62270000I150000J0D01*
G01*
X100425000Y-62270000D01*
G75*
G02*
X100575000Y-62420000I0J-150000D01*
G01*
G37*
G04 #@! TD.AperFunction*
G04 #@! TO.P,U2,5*
G04 #@! TO.N,+3V3*
G04 #@! TA.AperFunction,SMDPad,CuDef*
G36*
G01*
X95625000Y-62420000D02*
X95625000Y-62720000D01*
G75*
G02*
X95475000Y-62870000I-150000J0D01*
G01*
X93825000Y-62870000D01*
G75*
G02*
X93675000Y-62720000I0J150000D01*
G01*
X93675000Y-62420000D01*
G75*
G02*
X93825000Y-62270000I150000J0D01*
G01*
X95475000Y-62270000D01*
G75*
G02*
X95625000Y-62420000I0J-150000D01*
G01*
G37*
G04 #@! TD.AperFunction*
G04 #@! TO.P,U2,6*
G04 #@! TO.N,/USART1_RX*
G04 #@! TA.AperFunction,SMDPad,CuDef*
G36*
G01*
X95625000Y-63690000D02*
X95625000Y-63990000D01*
G75*
G02*
X95475000Y-64140000I-150000J0D01*
G01*
X93825000Y-64140000D01*
G75*
G02*
X93675000Y-63990000I0J150000D01*
G01*
X93675000Y-63690000D01*
G75*
G02*
X93825000Y-63540000I150000J0D01*
G01*
X95475000Y-63540000D01*
G75*
G02*
X95625000Y-63690000I0J-150000D01*
G01*
G37*
G04 #@! TD.AperFunction*
G04 #@! TO.P,U2,7*
G04 #@! TO.N,/USART1_TX*
G04 #@! TA.AperFunction,SMDPad,CuDef*
G36*
G01*
X95625000Y-64960000D02*
X95625000Y-65260000D01*
G75*
G02*
X95475000Y-65410000I-150000J0D01*
G01*
X93825000Y-65410000D01*
G75*
G02*
X93675000Y-65260000I0J150000D01*
G01*
X93675000Y-64960000D01*
G75*
G02*
X93825000Y-64810000I150000J0D01*
G01*
X95475000Y-64810000D01*
G75*
G02*
X95625000Y-64960000I0J-150000D01*
G01*
G37*
G04 #@! TD.AperFunction*
G04 #@! TO.P,U2,8*
G04 #@! TO.N,+3V3*
G04 #@! TA.AperFunction,SMDPad,CuDef*
G36*
G01*
X95625000Y-66230000D02*
X95625000Y-66530000D01*
G75*
G02*
X95475000Y-66680000I-150000J0D01*
G01*
X93825000Y-66680000D01*
G75*
G02*
X93675000Y-66530000I0J150000D01*
G01*
X93675000Y-66230000D01*
G75*
G02*
X93825000Y-66080000I150000J0D01*
G01*
X95475000Y-66080000D01*
G75*
G02*
X95625000Y-66230000I0J-150000D01*
G01*
G37*
G04 #@! TD.AperFunction*
G04 #@! TD*
G04 #@! TO.P,U3,1*
G04 #@! TO.N,+3V3*
G04 #@! TA.AperFunction,SMDPad,CuDef*
G36*
G01*
X90775000Y-80475000D02*
X90625000Y-80475000D01*
G75*
G02*
X90550000Y-80400000I0J75000D01*
G01*
X90550000Y-79075000D01*
G75*
G02*
X90625000Y-79000000I75000J0D01*
G01*
X90775000Y-79000000D01*
G75*
G02*
X90850000Y-79075000I0J-75000D01*
G01*
X90850000Y-80400000D01*
G75*
G02*
X90775000Y-80475000I-75000J0D01*
G01*
G37*
G04 #@! TD.AperFunction*
G04 #@! TO.P,U3,2*
G04 #@! TO.N,/P15*
G04 #@! TA.AperFunction,SMDPad,CuDef*
G36*
G01*
X91275000Y-80475000D02*
X91125000Y-80475000D01*
G75*
G02*
X91050000Y-80400000I0J75000D01*
G01*
X91050000Y-79075000D01*
G75*
G02*
X91125000Y-79000000I75000J0D01*
G01*
X91275000Y-79000000D01*
G75*
G02*
X91350000Y-79075000I0J-75000D01*
G01*
X91350000Y-80400000D01*
G75*
G02*
X91275000Y-80475000I-75000J0D01*
G01*
G37*
G04 #@! TD.AperFunction*
G04 #@! TO.P,U3,3*
G04 #@! TO.N,/P16*
G04 #@! TA.AperFunction,SMDPad,CuDef*
G36*
G01*
X91775000Y-80475000D02*
X91625000Y-80475000D01*
G75*
G02*
X91550000Y-80400000I0J75000D01*
G01*
X91550000Y-79075000D01*
G75*
G02*
X91625000Y-79000000I75000J0D01*
G01*
X91775000Y-79000000D01*
G75*
G02*
X91850000Y-79075000I0J-75000D01*
G01*
X91850000Y-80400000D01*
G75*
G02*
X91775000Y-80475000I-75000J0D01*
G01*
G37*
G04 #@! TD.AperFunction*
G04 #@! TO.P,U3,4*
G04 #@! TO.N,/P17*
G04 #@! TA.AperFunction,SMDPad,CuDef*
G36*
G01*
X92275000Y-80475000D02*
X92125000Y-80475000D01*
G75*
G02*
X92050000Y-80400000I0J75000D01*
G01*
X92050000Y-79075000D01*
G75*
G02*
X92125000Y-79000000I75000J0D01*
G01*
X92275000Y-79000000D01*
G75*
G02*
X92350000Y-79075000I0J-75000D01*
G01*
X92350000Y-80400000D01*
G75*
G02*
X92275000Y-80475000I-75000J0D01*
G01*
G37*
G04 #@! TD.AperFunction*
G04 #@! TO.P,U3,5*
G04 #@! TO.N,Net-(C13-Pad1)*
G04 #@! TA.AperFunction,SMDPad,CuDef*
G36*
G01*
X92775000Y-80475000D02*
X92625000Y-80475000D01*
G75*
G02*
X92550000Y-80400000I0J75000D01*
G01*
X92550000Y-79075000D01*
G75*
G02*
X92625000Y-79000000I75000J0D01*
G01*
X92775000Y-79000000D01*
G75*
G02*
X92850000Y-79075000I0J-75000D01*
G01*
X92850000Y-80400000D01*
G75*
G02*
X92775000Y-80475000I-75000J0D01*
G01*
G37*
G04 #@! TD.AperFunction*
G04 #@! TO.P,U3,6*
G04 #@! TO.N,Net-(C14-Pad1)*
G04 #@! TA.AperFunction,SMDPad,CuDef*
G36*
G01*
X93275000Y-80475000D02*
X93125000Y-80475000D01*
G75*
G02*
X93050000Y-80400000I0J75000D01*
G01*
X93050000Y-79075000D01*
G75*
G02*
X93125000Y-79000000I75000J0D01*
G01*
X93275000Y-79000000D01*
G75*
G02*
X93350000Y-79075000I0J-75000D01*
G01*
X93350000Y-80400000D01*
G75*
G02*
X93275000Y-80475000I-75000J0D01*
G01*
G37*
G04 #@! TD.AperFunction*
G04 #@! TO.P,U3,7*
G04 #@! TO.N,/NRST*
G04 #@! TA.AperFunction,SMDPad,CuDef*
G36*
G01*
X93775000Y-80475000D02*
X93625000Y-80475000D01*
G75*
G02*
X93550000Y-80400000I0J75000D01*
G01*
X93550000Y-79075000D01*
G75*
G02*
X93625000Y-79000000I75000J0D01*
G01*
X93775000Y-79000000D01*
G75*
G02*
X93850000Y-79075000I0J-75000D01*
G01*
X93850000Y-80400000D01*
G75*
G02*
X93775000Y-80475000I-75000J0D01*
G01*
G37*
G04 #@! TD.AperFunction*
G04 #@! TO.P,U3,8*
G04 #@! TO.N,GND*
G04 #@! TA.AperFunction,SMDPad,CuDef*
G36*
G01*
X94275000Y-80475000D02*
X94125000Y-80475000D01*
G75*
G02*
X94050000Y-80400000I0J75000D01*
G01*
X94050000Y-79075000D01*
G75*
G02*
X94125000Y-79000000I75000J0D01*
G01*
X94275000Y-79000000D01*
G75*
G02*
X94350000Y-79075000I0J-75000D01*
G01*
X94350000Y-80400000D01*
G75*
G02*
X94275000Y-80475000I-75000J0D01*
G01*
G37*
G04 #@! TD.AperFunction*
G04 #@! TO.P,U3,9*
G04 #@! TO.N,+3V3*
G04 #@! TA.AperFunction,SMDPad,CuDef*
G36*
G01*
X94775000Y-80475000D02*
X94625000Y-80475000D01*
G75*
G02*
X94550000Y-80400000I0J75000D01*
G01*
X94550000Y-79075000D01*
G75*
G02*
X94625000Y-79000000I75000J0D01*
G01*
X94775000Y-79000000D01*
G75*
G02*
X94850000Y-79075000I0J-75000D01*
G01*
X94850000Y-80400000D01*
G75*
G02*
X94775000Y-80475000I-75000J0D01*
G01*
G37*
G04 #@! TD.AperFunction*
G04 #@! TO.P,U3,10*
G04 #@! TO.N,/P18*
G04 #@! TA.AperFunction,SMDPad,CuDef*
G36*
G01*
X95275000Y-80475000D02*
X95125000Y-80475000D01*
G75*
G02*
X95050000Y-80400000I0J75000D01*
G01*
X95050000Y-79075000D01*
G75*
G02*
X95125000Y-79000000I75000J0D01*
G01*
X95275000Y-79000000D01*
G75*
G02*
X95350000Y-79075000I0J-75000D01*
G01*
X95350000Y-80400000D01*
G75*
G02*
X95275000Y-80475000I-75000J0D01*
G01*
G37*
G04 #@! TD.AperFunction*
G04 #@! TO.P,U3,11*
G04 #@! TO.N,/P19*
G04 #@! TA.AperFunction,SMDPad,CuDef*
G36*
G01*
X95775000Y-80475000D02*
X95625000Y-80475000D01*
G75*
G02*
X95550000Y-80400000I0J75000D01*
G01*
X95550000Y-79075000D01*
G75*
G02*
X95625000Y-79000000I75000J0D01*
G01*
X95775000Y-79000000D01*
G75*
G02*
X95850000Y-79075000I0J-75000D01*
G01*
X95850000Y-80400000D01*
G75*
G02*
X95775000Y-80475000I-75000J0D01*
G01*
G37*
G04 #@! TD.AperFunction*
G04 #@! TO.P,U3,12*
G04 #@! TO.N,/P20*
G04 #@! TA.AperFunction,SMDPad,CuDef*
G36*
G01*
X96275000Y-80475000D02*
X96125000Y-80475000D01*
G75*
G02*
X96050000Y-80400000I0J75000D01*
G01*
X96050000Y-79075000D01*
G75*
G02*
X96125000Y-79000000I75000J0D01*
G01*
X96275000Y-79000000D01*
G75*
G02*
X96350000Y-79075000I0J-75000D01*
G01*
X96350000Y-80400000D01*
G75*
G02*
X96275000Y-80475000I-75000J0D01*
G01*
G37*
G04 #@! TD.AperFunction*
G04 #@! TO.P,U3,13*
G04 #@! TO.N,/P21*
G04 #@! TA.AperFunction,SMDPad,CuDef*
G36*
G01*
X98275000Y-78475000D02*
X96950000Y-78475000D01*
G75*
G02*
X96875000Y-78400000I0J75000D01*
G01*
X96875000Y-78250000D01*
G75*
G02*
X96950000Y-78175000I75000J0D01*
G01*
X98275000Y-78175000D01*
G75*
G02*
X98350000Y-78250000I0J-75000D01*
G01*
X98350000Y-78400000D01*
G75*
G02*
X98275000Y-78475000I-75000J0D01*
G01*
G37*
G04 #@! TD.AperFunction*
G04 #@! TO.P,U3,14*
G04 #@! TO.N,/P22*
G04 #@! TA.AperFunction,SMDPad,CuDef*
G36*
G01*
X98275000Y-77975000D02*
X96950000Y-77975000D01*
G75*
G02*
X96875000Y-77900000I0J75000D01*
G01*
X96875000Y-77750000D01*
G75*
G02*
X96950000Y-77675000I75000J0D01*
G01*
X98275000Y-77675000D01*
G75*
G02*
X98350000Y-77750000I0J-75000D01*
G01*
X98350000Y-77900000D01*
G75*
G02*
X98275000Y-77975000I-75000J0D01*
G01*
G37*
G04 #@! TD.AperFunction*
G04 #@! TO.P,U3,15*
G04 #@! TO.N,/P23*
G04 #@! TA.AperFunction,SMDPad,CuDef*
G36*
G01*
X98275000Y-77475000D02*
X96950000Y-77475000D01*
G75*
G02*
X96875000Y-77400000I0J75000D01*
G01*
X96875000Y-77250000D01*
G75*
G02*
X96950000Y-77175000I75000J0D01*
G01*
X98275000Y-77175000D01*
G75*
G02*
X98350000Y-77250000I0J-75000D01*
G01*
X98350000Y-77400000D01*
G75*
G02*
X98275000Y-77475000I-75000J0D01*
G01*
G37*
G04 #@! TD.AperFunction*
G04 #@! TO.P,U3,16*
G04 #@! TO.N,/P24*
G04 #@! TA.AperFunction,SMDPad,CuDef*
G36*
G01*
X98275000Y-76975000D02*
X96950000Y-76975000D01*
G75*
G02*
X96875000Y-76900000I0J75000D01*
G01*
X96875000Y-76750000D01*
G75*
G02*
X96950000Y-76675000I75000J0D01*
G01*
X98275000Y-76675000D01*
G75*
G02*
X98350000Y-76750000I0J-75000D01*
G01*
X98350000Y-76900000D01*
G75*
G02*
X98275000Y-76975000I-75000J0D01*
G01*
G37*
G04 #@! TD.AperFunction*
G04 #@! TO.P,U3,17*
G04 #@! TO.N,/P25*
G04 #@! TA.AperFunction,SMDPad,CuDef*
G36*
G01*
X98275000Y-76475000D02*
X96950000Y-76475000D01*
G75*
G02*
X96875000Y-76400000I0J75000D01*
G01*
X96875000Y-76250000D01*
G75*
G02*
X96950000Y-76175000I75000J0D01*
G01*
X98275000Y-76175000D01*
G75*
G02*
X98350000Y-76250000I0J-75000D01*
G01*
X98350000Y-76400000D01*
G75*
G02*
X98275000Y-76475000I-75000J0D01*
G01*
G37*
G04 #@! TD.AperFunction*
G04 #@! TO.P,U3,18*
G04 #@! TO.N,/P26*
G04 #@! TA.AperFunction,SMDPad,CuDef*
G36*
G01*
X98275000Y-75975000D02*
X96950000Y-75975000D01*
G75*
G02*
X96875000Y-75900000I0J75000D01*
G01*
X96875000Y-75750000D01*
G75*
G02*
X96950000Y-75675000I75000J0D01*
G01*
X98275000Y-75675000D01*
G75*
G02*
X98350000Y-75750000I0J-75000D01*
G01*
X98350000Y-75900000D01*
G75*
G02*
X98275000Y-75975000I-75000J0D01*
G01*
G37*
G04 #@! TD.AperFunction*
G04 #@! TO.P,U3,19*
G04 #@! TO.N,/P27*
G04 #@! TA.AperFunction,SMDPad,CuDef*
G36*
G01*
X98275000Y-75475000D02*
X96950000Y-75475000D01*
G75*
G02*
X96875000Y-75400000I0J75000D01*
G01*
X96875000Y-75250000D01*
G75*
G02*
X96950000Y-75175000I75000J0D01*
G01*
X98275000Y-75175000D01*
G75*
G02*
X98350000Y-75250000I0J-75000D01*
G01*
X98350000Y-75400000D01*
G75*
G02*
X98275000Y-75475000I-75000J0D01*
G01*
G37*
G04 #@! TD.AperFunction*
G04 #@! TO.P,U3,20*
G04 #@! TO.N,/BOOT1*
G04 #@! TA.AperFunction,SMDPad,CuDef*
G36*
G01*
X98275000Y-74975000D02*
X96950000Y-74975000D01*
G75*
G02*
X96875000Y-74900000I0J75000D01*
G01*
X96875000Y-74750000D01*
G75*
G02*
X96950000Y-74675000I75000J0D01*
G01*
X98275000Y-74675000D01*
G75*
G02*
X98350000Y-74750000I0J-75000D01*
G01*
X98350000Y-74900000D01*
G75*
G02*
X98275000Y-74975000I-75000J0D01*
G01*
G37*
G04 #@! TD.AperFunction*
G04 #@! TO.P,U3,21*
G04 #@! TO.N,/P28*
G04 #@! TA.AperFunction,SMDPad,CuDef*
G36*
G01*
X98275000Y-74475000D02*
X96950000Y-74475000D01*
G75*
G02*
X96875000Y-74400000I0J75000D01*
G01*
X96875000Y-74250000D01*
G75*
G02*
X96950000Y-74175000I75000J0D01*
G01*
X98275000Y-74175000D01*
G75*
G02*
X98350000Y-74250000I0J-75000D01*
G01*
X98350000Y-74400000D01*
G75*
G02*
X98275000Y-74475000I-75000J0D01*
G01*
G37*
G04 #@! TD.AperFunction*
G04 #@! TO.P,U3,22*
G04 #@! TO.N,/P29*
G04 #@! TA.AperFunction,SMDPad,CuDef*
G36*
G01*
X98275000Y-73975000D02*
X96950000Y-73975000D01*
G75*
G02*
X96875000Y-73900000I0J75000D01*
G01*
X96875000Y-73750000D01*
G75*
G02*
X96950000Y-73675000I75000J0D01*
G01*
X98275000Y-73675000D01*
G75*
G02*
X98350000Y-73750000I0J-75000D01*
G01*
X98350000Y-73900000D01*
G75*
G02*
X98275000Y-73975000I-75000J0D01*
G01*
G37*
G04 #@! TD.AperFunction*
G04 #@! TO.P,U3,23*
G04 #@! TO.N,GND*
G04 #@! TA.AperFunction,SMDPad,CuDef*
G36*
G01*
X98275000Y-73475000D02*
X96950000Y-73475000D01*
G75*
G02*
X96875000Y-73400000I0J75000D01*
G01*
X96875000Y-73250000D01*
G75*
G02*
X96950000Y-73175000I75000J0D01*
G01*
X98275000Y-73175000D01*
G75*
G02*
X98350000Y-73250000I0J-75000D01*
G01*
X98350000Y-73400000D01*
G75*
G02*
X98275000Y-73475000I-75000J0D01*
G01*
G37*
G04 #@! TD.AperFunction*
G04 #@! TO.P,U3,24*
G04 #@! TO.N,+3V3*
G04 #@! TA.AperFunction,SMDPad,CuDef*
G36*
G01*
X98275000Y-72975000D02*
X96950000Y-72975000D01*
G75*
G02*
X96875000Y-72900000I0J75000D01*
G01*
X96875000Y-72750000D01*
G75*
G02*
X96950000Y-72675000I75000J0D01*
G01*
X98275000Y-72675000D01*
G75*
G02*
X98350000Y-72750000I0J-75000D01*
G01*
X98350000Y-72900000D01*
G75*
G02*
X98275000Y-72975000I-75000J0D01*
G01*
G37*
G04 #@! TD.AperFunction*
G04 #@! TO.P,U3,25*
G04 #@! TO.N,/P1*
G04 #@! TA.AperFunction,SMDPad,CuDef*
G36*
G01*
X96275000Y-72150000D02*
X96125000Y-72150000D01*
G75*
G02*
X96050000Y-72075000I0J75000D01*
G01*
X96050000Y-70750000D01*
G75*
G02*
X96125000Y-70675000I75000J0D01*
G01*
X96275000Y-70675000D01*
G75*
G02*
X96350000Y-70750000I0J-75000D01*
G01*
X96350000Y-72075000D01*
G75*
G02*
X96275000Y-72150000I-75000J0D01*
G01*
G37*
G04 #@! TD.AperFunction*
G04 #@! TO.P,U3,26*
G04 #@! TO.N,/P2*
G04 #@! TA.AperFunction,SMDPad,CuDef*
G36*
G01*
X95775000Y-72150000D02*
X95625000Y-72150000D01*
G75*
G02*
X95550000Y-72075000I0J75000D01*
G01*
X95550000Y-70750000D01*
G75*
G02*
X95625000Y-70675000I75000J0D01*
G01*
X95775000Y-70675000D01*
G75*
G02*
X95850000Y-70750000I0J-75000D01*
G01*
X95850000Y-72075000D01*
G75*
G02*
X95775000Y-72150000I-75000J0D01*
G01*
G37*
G04 #@! TD.AperFunction*
G04 #@! TO.P,U3,27*
G04 #@! TO.N,/P3*
G04 #@! TA.AperFunction,SMDPad,CuDef*
G36*
G01*
X95275000Y-72150000D02*
X95125000Y-72150000D01*
G75*
G02*
X95050000Y-72075000I0J75000D01*
G01*
X95050000Y-70750000D01*
G75*
G02*
X95125000Y-70675000I75000J0D01*
G01*
X95275000Y-70675000D01*
G75*
G02*
X95350000Y-70750000I0J-75000D01*
G01*
X95350000Y-72075000D01*
G75*
G02*
X95275000Y-72150000I-75000J0D01*
G01*
G37*
G04 #@! TD.AperFunction*
G04 #@! TO.P,U3,28*
G04 #@! TO.N,/P4*
G04 #@! TA.AperFunction,SMDPad,CuDef*
G36*
G01*
X94775000Y-72150000D02*
X94625000Y-72150000D01*
G75*
G02*
X94550000Y-72075000I0J75000D01*
G01*
X94550000Y-70750000D01*
G75*
G02*
X94625000Y-70675000I75000J0D01*
G01*
X94775000Y-70675000D01*
G75*
G02*
X94850000Y-70750000I0J-75000D01*
G01*
X94850000Y-72075000D01*
G75*
G02*
X94775000Y-72150000I-75000J0D01*
G01*
G37*
G04 #@! TD.AperFunction*
G04 #@! TO.P,U3,29*
G04 #@! TO.N,/P5*
G04 #@! TA.AperFunction,SMDPad,CuDef*
G36*
G01*
X94275000Y-72150000D02*
X94125000Y-72150000D01*
G75*
G02*
X94050000Y-72075000I0J75000D01*
G01*
X94050000Y-70750000D01*
G75*
G02*
X94125000Y-70675000I75000J0D01*
G01*
X94275000Y-70675000D01*
G75*
G02*
X94350000Y-70750000I0J-75000D01*
G01*
X94350000Y-72075000D01*
G75*
G02*
X94275000Y-72150000I-75000J0D01*
G01*
G37*
G04 #@! TD.AperFunction*
G04 #@! TO.P,U3,30*
G04 #@! TO.N,/USART1_TX*
G04 #@! TA.AperFunction,SMDPad,CuDef*
G36*
G01*
X93775000Y-72150000D02*
X93625000Y-72150000D01*
G75*
G02*
X93550000Y-72075000I0J75000D01*
G01*
X93550000Y-70750000D01*
G75*
G02*
X93625000Y-70675000I75000J0D01*
G01*
X93775000Y-70675000D01*
G75*
G02*
X93850000Y-70750000I0J-75000D01*
G01*
X93850000Y-72075000D01*
G75*
G02*
X93775000Y-72150000I-75000J0D01*
G01*
G37*
G04 #@! TD.AperFunction*
G04 #@! TO.P,U3,31*
G04 #@! TO.N,/USART1_RX*
G04 #@! TA.AperFunction,SMDPad,CuDef*
G36*
G01*
X93275000Y-72150000D02*
X93125000Y-72150000D01*
G75*
G02*
X93050000Y-72075000I0J75000D01*
G01*
X93050000Y-70750000D01*
G75*
G02*
X93125000Y-70675000I75000J0D01*
G01*
X93275000Y-70675000D01*
G75*
G02*
X93350000Y-70750000I0J-75000D01*
G01*
X93350000Y-72075000D01*
G75*
G02*
X93275000Y-72150000I-75000J0D01*
G01*
G37*
G04 #@! TD.AperFunction*
G04 #@! TO.P,U3,32*
G04 #@! TO.N,/USBDM*
G04 #@! TA.AperFunction,SMDPad,CuDef*
G36*
G01*
X92775000Y-72150000D02*
X92625000Y-72150000D01*
G75*
G02*
X92550000Y-72075000I0J75000D01*
G01*
X92550000Y-70750000D01*
G75*
G02*
X92625000Y-70675000I75000J0D01*
G01*
X92775000Y-70675000D01*
G75*
G02*
X92850000Y-70750000I0J-75000D01*
G01*
X92850000Y-72075000D01*
G75*
G02*
X92775000Y-72150000I-75000J0D01*
G01*
G37*
G04 #@! TD.AperFunction*
G04 #@! TO.P,U3,33*
G04 #@! TO.N,/USBDP*
G04 #@! TA.AperFunction,SMDPad,CuDef*
G36*
G01*
X92275000Y-72150000D02*
X92125000Y-72150000D01*
G75*
G02*
X92050000Y-72075000I0J75000D01*
G01*
X92050000Y-70750000D01*
G75*
G02*
X92125000Y-70675000I75000J0D01*
G01*
X92275000Y-70675000D01*
G75*
G02*
X92350000Y-70750000I0J-75000D01*
G01*
X92350000Y-72075000D01*
G75*
G02*
X92275000Y-72150000I-75000J0D01*
G01*
G37*
G04 #@! TD.AperFunction*
G04 #@! TO.P,U3,34*
G04 #@! TO.N,/USB_PULLUP*
G04 #@! TA.AperFunction,SMDPad,CuDef*
G36*
G01*
X91775000Y-72150000D02*
X91625000Y-72150000D01*
G75*
G02*
X91550000Y-72075000I0J75000D01*
G01*
X91550000Y-70750000D01*
G75*
G02*
X91625000Y-70675000I75000J0D01*
G01*
X91775000Y-70675000D01*
G75*
G02*
X91850000Y-70750000I0J-75000D01*
G01*
X91850000Y-72075000D01*
G75*
G02*
X91775000Y-72150000I-75000J0D01*
G01*
G37*
G04 #@! TD.AperFunction*
G04 #@! TO.P,U3,35*
G04 #@! TO.N,GND*
G04 #@! TA.AperFunction,SMDPad,CuDef*
G36*
G01*
X91275000Y-72150000D02*
X91125000Y-72150000D01*
G75*
G02*
X91050000Y-72075000I0J75000D01*
G01*
X91050000Y-70750000D01*
G75*
G02*
X91125000Y-70675000I75000J0D01*
G01*
X91275000Y-70675000D01*
G75*
G02*
X91350000Y-70750000I0J-75000D01*
G01*
X91350000Y-72075000D01*
G75*
G02*
X91275000Y-72150000I-75000J0D01*
G01*
G37*
G04 #@! TD.AperFunction*
G04 #@! TO.P,U3,36*
G04 #@! TO.N,+3V3*
G04 #@! TA.AperFunction,SMDPad,CuDef*
G36*
G01*
X90775000Y-72150000D02*
X90625000Y-72150000D01*
G75*
G02*
X90550000Y-72075000I0J75000D01*
G01*
X90550000Y-70750000D01*
G75*
G02*
X90625000Y-70675000I75000J0D01*
G01*
X90775000Y-70675000D01*
G75*
G02*
X90850000Y-70750000I0J-75000D01*
G01*
X90850000Y-72075000D01*
G75*
G02*
X90775000Y-72150000I-75000J0D01*
G01*
G37*
G04 #@! TD.AperFunction*
G04 #@! TO.P,U3,37*
G04 #@! TO.N,/P6*
G04 #@! TA.AperFunction,SMDPad,CuDef*
G36*
G01*
X89950000Y-72975000D02*
X88625000Y-72975000D01*
G75*
G02*
X88550000Y-72900000I0J75000D01*
G01*
X88550000Y-72750000D01*
G75*
G02*
X88625000Y-72675000I75000J0D01*
G01*
X89950000Y-72675000D01*
G75*
G02*
X90025000Y-72750000I0J-75000D01*
G01*
X90025000Y-72900000D01*
G75*
G02*
X89950000Y-72975000I-75000J0D01*
G01*
G37*
G04 #@! TD.AperFunction*
G04 #@! TO.P,U3,38*
G04 #@! TO.N,/P7*
G04 #@! TA.AperFunction,SMDPad,CuDef*
G36*
G01*
X89950000Y-73475000D02*
X88625000Y-73475000D01*
G75*
G02*
X88550000Y-73400000I0J75000D01*
G01*
X88550000Y-73250000D01*
G75*
G02*
X88625000Y-73175000I75000J0D01*
G01*
X89950000Y-73175000D01*
G75*
G02*
X90025000Y-73250000I0J-75000D01*
G01*
X90025000Y-73400000D01*
G75*
G02*
X89950000Y-73475000I-75000J0D01*
G01*
G37*
G04 #@! TD.AperFunction*
G04 #@! TO.P,U3,39*
G04 #@! TO.N,/P8*
G04 #@! TA.AperFunction,SMDPad,CuDef*
G36*
G01*
X89950000Y-73975000D02*
X88625000Y-73975000D01*
G75*
G02*
X88550000Y-73900000I0J75000D01*
G01*
X88550000Y-73750000D01*
G75*
G02*
X88625000Y-73675000I75000J0D01*
G01*
X89950000Y-73675000D01*
G75*
G02*
X90025000Y-73750000I0J-75000D01*
G01*
X90025000Y-73900000D01*
G75*
G02*
X89950000Y-73975000I-75000J0D01*
G01*
G37*
G04 #@! TD.AperFunction*
G04 #@! TO.P,U3,40*
G04 #@! TO.N,/P9*
G04 #@! TA.AperFunction,SMDPad,CuDef*
G36*
G01*
X89950000Y-74475000D02*
X88625000Y-74475000D01*
G75*
G02*
X88550000Y-74400000I0J75000D01*
G01*
X88550000Y-74250000D01*
G75*
G02*
X88625000Y-74175000I75000J0D01*
G01*
X89950000Y-74175000D01*
G75*
G02*
X90025000Y-74250000I0J-75000D01*
G01*
X90025000Y-74400000D01*
G75*
G02*
X89950000Y-74475000I-75000J0D01*
G01*
G37*
G04 #@! TD.AperFunction*
G04 #@! TO.P,U3,41*
G04 #@! TO.N,/P10*
G04 #@! TA.AperFunction,SMDPad,CuDef*
G36*
G01*
X89950000Y-74975000D02*
X88625000Y-74975000D01*
G75*
G02*
X88550000Y-74900000I0J75000D01*
G01*
X88550000Y-74750000D01*
G75*
G02*
X88625000Y-74675000I75000J0D01*
G01*
X89950000Y-74675000D01*
G75*
G02*
X90025000Y-74750000I0J-75000D01*
G01*
X90025000Y-74900000D01*
G75*
G02*
X89950000Y-74975000I-75000J0D01*
G01*
G37*
G04 #@! TD.AperFunction*
G04 #@! TO.P,U3,42*
G04 #@! TO.N,/P11*
G04 #@! TA.AperFunction,SMDPad,CuDef*
G36*
G01*
X89950000Y-75475000D02*
X88625000Y-75475000D01*
G75*
G02*
X88550000Y-75400000I0J75000D01*
G01*
X88550000Y-75250000D01*
G75*
G02*
X88625000Y-75175000I75000J0D01*
G01*
X89950000Y-75175000D01*
G75*
G02*
X90025000Y-75250000I0J-75000D01*
G01*
X90025000Y-75400000D01*
G75*
G02*
X89950000Y-75475000I-75000J0D01*
G01*
G37*
G04 #@! TD.AperFunction*
G04 #@! TO.P,U3,43*
G04 #@! TO.N,/P12*
G04 #@! TA.AperFunction,SMDPad,CuDef*
G36*
G01*
X89950000Y-75975000D02*
X88625000Y-75975000D01*
G75*
G02*
X88550000Y-75900000I0J75000D01*
G01*
X88550000Y-75750000D01*
G75*
G02*
X88625000Y-75675000I75000J0D01*
G01*
X89950000Y-75675000D01*
G75*
G02*
X90025000Y-75750000I0J-75000D01*
G01*
X90025000Y-75900000D01*
G75*
G02*
X89950000Y-75975000I-75000J0D01*
G01*
G37*
G04 #@! TD.AperFunction*
G04 #@! TO.P,U3,44*
G04 #@! TO.N,/BOOT0*
G04 #@! TA.AperFunction,SMDPad,CuDef*
G36*
G01*
X89950000Y-76475000D02*
X88625000Y-76475000D01*
G75*
G02*
X88550000Y-76400000I0J75000D01*
G01*
X88550000Y-76250000D01*
G75*
G02*
X88625000Y-76175000I75000J0D01*
G01*
X89950000Y-76175000D01*
G75*
G02*
X90025000Y-76250000I0J-75000D01*
G01*
X90025000Y-76400000D01*
G75*
G02*
X89950000Y-76475000I-75000J0D01*
G01*
G37*
G04 #@! TD.AperFunction*
G04 #@! TO.P,U3,45*
G04 #@! TO.N,/P13*
G04 #@! TA.AperFunction,SMDPad,CuDef*
G36*
G01*
X89950000Y-76975000D02*
X88625000Y-76975000D01*
G75*
G02*
X88550000Y-76900000I0J75000D01*
G01*
X88550000Y-76750000D01*
G75*
G02*
X88625000Y-76675000I75000J0D01*
G01*
X89950000Y-76675000D01*
G75*
G02*
X90025000Y-76750000I0J-75000D01*
G01*
X90025000Y-76900000D01*
G75*
G02*
X89950000Y-76975000I-75000J0D01*
G01*
G37*
G04 #@! TD.AperFunction*
G04 #@! TO.P,U3,46*
G04 #@! TO.N,/P14*
G04 #@! TA.AperFunction,SMDPad,CuDef*
G36*
G01*
X89950000Y-77475000D02*
X88625000Y-77475000D01*
G75*
G02*
X88550000Y-77400000I0J75000D01*
G01*
X88550000Y-77250000D01*
G75*
G02*
X88625000Y-77175000I75000J0D01*
G01*
X89950000Y-77175000D01*
G75*
G02*
X90025000Y-77250000I0J-75000D01*
G01*
X90025000Y-77400000D01*
G75*
G02*
X89950000Y-77475000I-75000J0D01*
G01*
G37*
G04 #@! TD.AperFunction*
G04 #@! TO.P,U3,47*
G04 #@! TO.N,GND*
G04 #@! TA.AperFunction,SMDPad,CuDef*
G36*
G01*
X89950000Y-77975000D02*
X88625000Y-77975000D01*
G75*
G02*
X88550000Y-77900000I0J75000D01*
G01*
X88550000Y-77750000D01*
G75*
G02*
X88625000Y-77675000I75000J0D01*
G01*
X89950000Y-77675000D01*
G75*
G02*
X90025000Y-77750000I0J-75000D01*
G01*
X90025000Y-77900000D01*
G75*
G02*
X89950000Y-77975000I-75000J0D01*
G01*
G37*
G04 #@! TD.AperFunction*
G04 #@! TO.P,U3,48*
G04 #@! TO.N,+3V3*
G04 #@! TA.AperFunction,SMDPad,CuDef*
G36*
G01*
X89950000Y-78475000D02*
X88625000Y-78475000D01*
G75*
G02*
X88550000Y-78400000I0J75000D01*
G01*
X88550000Y-78250000D01*
G75*
G02*
X88625000Y-78175000I75000J0D01*
G01*
X89950000Y-78175000D01*
G75*
G02*
X90025000Y-78250000I0J-75000D01*
G01*
X90025000Y-78400000D01*
G75*
G02*
X89950000Y-78475000I-75000J0D01*
G01*
G37*
G04 #@! TD.AperFunction*
G04 #@! TD*
D22*
G04 #@! TO.P,Y1,1*
G04 #@! TO.N,Net-(C13-Pad1)*
X91300000Y-86800000D03*
G04 #@! TO.P,Y1,2*
G04 #@! TO.N,Net-(C14-Pad1)*
X96180000Y-86800000D03*
G04 #@! TD*
D23*
G04 #@! TO.N,GND*
X94030700Y-68319900D03*
G04 #@! TO.N,+5V*
X104079900Y-77541200D03*
G04 #@! TO.N,/NRST*
X95041700Y-84521100D03*
X101078100Y-87820500D03*
G04 #@! TO.N,Net-(J2-PadA6)*
X104496700Y-74229100D03*
X104466000Y-75269400D03*
G04 #@! TO.N,/BOOT1*
X99458500Y-92432100D03*
G04 #@! TO.N,/BOOT0*
X90564900Y-75638200D03*
G04 #@! TO.N,/USBDP*
X101268300Y-74119500D03*
X93179500Y-73041500D03*
G04 #@! TO.N,/P1*
X96333600Y-67985800D03*
G04 #@! TO.N,/P2*
X95711200Y-68241900D03*
G04 #@! TO.N,/P3*
X95208500Y-69789600D03*
G04 #@! TO.N,/P4*
X94700000Y-70146300D03*
G04 #@! TO.N,/P5*
X94083100Y-70251000D03*
G04 #@! TO.N,/P8*
X90429300Y-73825000D03*
G04 #@! TO.N,/P18*
X95117600Y-78359600D03*
G04 #@! TO.N,/P19*
X95749300Y-78578000D03*
G04 #@! TO.N,/P20*
X96758100Y-79494600D03*
G04 #@! TO.N,/P21*
X96806900Y-80095000D03*
G04 #@! TO.N,/P22*
X95904300Y-80884500D03*
G04 #@! TO.N,/P23*
X96773300Y-78894200D03*
G04 #@! TO.N,/P24*
X97067700Y-81095700D03*
G04 #@! TO.N,/P25*
X96462100Y-76560200D03*
G04 #@! TO.N,/P26*
X96289500Y-75912200D03*
G04 #@! TO.N,/P27*
X98924900Y-76551700D03*
G04 #@! TO.N,/P28*
X96455600Y-75009500D03*
G04 #@! TO.N,/P29*
X99747600Y-82747300D03*
G04 #@! TO.N,Net-(C14-Pad1)*
X94460400Y-85080400D03*
G04 #@! TD*
D24*
G04 #@! TO.N,GND*
X103080000Y-76200000D02*
X102075000Y-76200000D01*
X102075000Y-76200000D02*
X99250000Y-73375000D01*
X103080000Y-76200000D02*
X103080000Y-77249200D01*
X103080000Y-77249200D02*
X104030800Y-78200000D01*
X104030800Y-78200000D02*
X104609700Y-78200000D01*
X100000000Y-94450000D02*
X99850000Y-94300000D01*
X101810000Y-94450000D02*
X100000000Y-94450000D01*
X99740600Y-95730000D02*
X100000000Y-95470600D01*
X100000000Y-95470600D02*
X100000000Y-94450000D01*
X99740600Y-95730000D02*
X99850000Y-95839400D01*
X99850000Y-95839400D02*
X99850000Y-96850000D01*
X84850300Y-97400000D02*
X85450200Y-97999900D01*
X85450200Y-97999900D02*
X91494300Y-97999900D01*
X91494300Y-97999900D02*
X93764200Y-95730000D01*
X93764200Y-95730000D02*
X99740600Y-95730000D01*
X105100000Y-97650000D02*
X104853700Y-97650000D01*
X104853700Y-97650000D02*
X101810100Y-94606400D01*
X101810100Y-94606400D02*
X101810100Y-94450000D01*
X101810100Y-94450000D02*
X101810000Y-94450000D01*
X106720200Y-97650000D02*
X111600000Y-97650000D01*
X105100000Y-97650000D02*
X106720200Y-97650000D01*
X106720200Y-79320000D02*
X106720200Y-97650000D01*
X106720200Y-79320000D02*
X107370300Y-79320000D01*
X106070000Y-79320000D02*
X106720200Y-79320000D01*
X94110000Y-81325000D02*
X94200000Y-81235000D01*
X94200000Y-81235000D02*
X94200000Y-79737500D01*
X89000000Y-67150000D02*
X88946500Y-67203500D01*
X88946500Y-67203500D02*
X88946500Y-71215500D01*
X88946500Y-71215500D02*
X91068300Y-73337300D01*
X91068300Y-73337300D02*
X91068300Y-76865100D01*
X91068300Y-76865100D02*
X90108400Y-77825000D01*
X90108400Y-77825000D02*
X89287500Y-77825000D01*
X89050000Y-65375000D02*
X88680700Y-65375000D01*
X88680700Y-65375000D02*
X86092500Y-62786800D01*
X86092500Y-62786800D02*
X86092500Y-60011900D01*
X86092500Y-60011900D02*
X88505700Y-57598700D01*
X88505700Y-57598700D02*
X89723700Y-57598700D01*
X89723700Y-57598700D02*
X90525000Y-58400000D01*
X89050000Y-65375000D02*
X89050000Y-67100000D01*
X89050000Y-67100000D02*
X89000000Y-67150000D01*
X90407400Y-69825000D02*
X90407400Y-69302600D01*
X90407400Y-69302600D02*
X92595000Y-67115000D01*
X90210000Y-87197200D02*
X90882800Y-87870000D01*
X90882800Y-87870000D02*
X92432600Y-87870000D01*
X92432600Y-87870000D02*
X95580000Y-84722600D01*
X95580000Y-84722600D02*
X95580000Y-83450000D01*
X94110000Y-81325000D02*
X94110000Y-81980000D01*
X94110000Y-81980000D02*
X95580000Y-83450000D01*
X93729200Y-59675000D02*
X93961900Y-59907700D01*
X93961900Y-59907700D02*
X94614500Y-59907700D01*
X94614500Y-59907700D02*
X94900000Y-59622200D01*
X94900000Y-59622200D02*
X94900000Y-59400000D01*
X101818200Y-58265700D02*
X101127000Y-57574500D01*
X101127000Y-57574500D02*
X94099000Y-57574500D01*
X94099000Y-57574500D02*
X93729200Y-57944300D01*
X93729200Y-57944300D02*
X93729200Y-59675000D01*
X91975000Y-59675000D02*
X93729200Y-59675000D01*
X101818200Y-58265700D02*
X101818200Y-61068300D01*
X101818200Y-61068300D02*
X102049900Y-61300000D01*
X104609700Y-58940000D02*
X103744400Y-58074700D01*
X103744400Y-58074700D02*
X102009200Y-58074700D01*
X102009200Y-58074700D02*
X101818200Y-58265700D01*
X87650000Y-78055000D02*
X87880000Y-77825000D01*
X87880000Y-77825000D02*
X89287500Y-77825000D01*
X104609700Y-58940000D02*
X104609700Y-59900000D01*
X104769700Y-58780000D02*
X104609700Y-58940000D01*
X102049900Y-61300000D02*
X102049900Y-61787300D01*
X102049900Y-61787300D02*
X99997200Y-63840000D01*
X99997200Y-63840000D02*
X99600000Y-63840000D01*
X103080000Y-61300000D02*
X102049900Y-61300000D01*
X90525000Y-58400000D02*
X91800000Y-59675000D01*
X91800000Y-59675000D02*
X91975000Y-59675000D01*
X90210000Y-87197200D02*
X86365000Y-91042200D01*
X86365000Y-91042200D02*
X83289200Y-91042200D01*
X83289200Y-91042200D02*
X82549600Y-91781800D01*
X82549600Y-91781800D02*
X82549600Y-92594600D01*
X82549600Y-92594600D02*
X81665600Y-93478600D01*
X81665600Y-93478600D02*
X80847400Y-93478600D01*
X80847400Y-93478600D02*
X79978300Y-94347700D01*
X79978300Y-94347700D02*
X79978300Y-95341000D01*
X79978300Y-95341000D02*
X80887000Y-96249700D01*
X80887000Y-96249700D02*
X81687100Y-96249700D01*
X81687100Y-96249700D02*
X82549700Y-97112300D01*
X82549700Y-97112300D02*
X82549700Y-97400000D01*
X90780000Y-83450000D02*
X90210000Y-84020000D01*
X90210000Y-84020000D02*
X90210000Y-87197200D01*
X83700000Y-97400000D02*
X84850300Y-97400000D01*
X83700000Y-97400000D02*
X82549700Y-97400000D01*
X94030700Y-68319900D02*
X92984800Y-67274000D01*
X92984800Y-67274000D02*
X92984800Y-67273900D01*
X92984800Y-67273900D02*
X92753900Y-67273900D01*
X92753900Y-67273900D02*
X92595000Y-67115000D01*
X89030000Y-79825000D02*
X87934800Y-79825000D01*
X87934800Y-79825000D02*
X87149200Y-79039400D01*
X87149200Y-79039400D02*
X87149200Y-78399500D01*
X87149200Y-78399500D02*
X87493700Y-78055000D01*
X87493700Y-78055000D02*
X87650000Y-78055000D01*
X105490000Y-66300000D02*
X104609700Y-66300000D01*
X104609700Y-66300000D02*
X103080000Y-64770300D01*
X103080000Y-64770300D02*
X103080000Y-64400000D01*
X105745000Y-67420000D02*
X105490000Y-67165000D01*
X105490000Y-67165000D02*
X105490000Y-66300000D01*
X109089700Y-78805000D02*
X107885300Y-78805000D01*
X107885300Y-78805000D02*
X107370300Y-79320000D01*
X109664900Y-79320000D02*
X109149900Y-78805000D01*
X109149900Y-78805000D02*
X109089700Y-78805000D01*
X109089700Y-78805000D02*
X109089700Y-70680000D01*
X110240000Y-70680000D02*
X109089700Y-70680000D01*
X110240000Y-79320000D02*
X109664900Y-79320000D01*
X105490000Y-78200000D02*
X104609700Y-78200000D01*
X106070000Y-79320000D02*
X104769700Y-79320000D01*
X104769700Y-79320000D02*
X104609700Y-79160000D01*
X104609700Y-79160000D02*
X104609700Y-78200000D01*
X90407400Y-69825000D02*
X91200000Y-70617600D01*
X91200000Y-70617600D02*
X91200000Y-71412500D01*
X105419900Y-70680000D02*
X105745000Y-70354900D01*
X105745000Y-70354900D02*
X105745000Y-67420000D01*
X105419900Y-70680000D02*
X104769700Y-70680000D01*
X106070000Y-70680000D02*
X105419900Y-70680000D01*
X104769700Y-70680000D02*
X104609700Y-70840000D01*
X104609700Y-70840000D02*
X104609700Y-71800000D01*
X106070000Y-67420000D02*
X105745000Y-67420000D01*
X109089700Y-58780000D02*
X107370300Y-58780000D01*
X109664900Y-67420000D02*
X109089700Y-66844800D01*
X109089700Y-66844800D02*
X109089700Y-58780000D01*
X106070000Y-58780000D02*
X107370300Y-58780000D01*
X105490000Y-59900000D02*
X104609700Y-59900000D01*
X106070000Y-58780000D02*
X104769700Y-58780000D01*
X110240000Y-58780000D02*
X109089700Y-58780000D01*
X110240000Y-67420000D02*
X109664900Y-67420000D01*
X103080000Y-73300000D02*
X103080000Y-73143700D01*
X103080000Y-73143700D02*
X104423700Y-71800000D01*
X104423700Y-71800000D02*
X104609700Y-71800000D01*
X97612500Y-73325000D02*
X99200000Y-73325000D01*
X99200000Y-73325000D02*
X99250000Y-73375000D01*
X90407400Y-69825000D02*
X90170000Y-69825000D01*
X90375000Y-63700100D02*
X91569900Y-63700100D01*
X91569900Y-63700100D02*
X91975000Y-63295000D01*
X90375000Y-63700100D02*
X90375000Y-64075300D01*
X90375000Y-63325000D02*
X90375000Y-63700100D01*
X90375000Y-64075300D02*
X90349700Y-64075300D01*
X90349700Y-64075300D02*
X89050000Y-65375000D01*
X105490000Y-71800000D02*
X104609700Y-71800000D01*
G04 #@! TO.N,+5V*
X102450000Y-58600000D02*
X102450000Y-59125300D01*
X105490000Y-60700000D02*
X104024700Y-60700000D01*
X104024700Y-60700000D02*
X102450000Y-59125300D01*
X106721400Y-65300400D02*
X106783500Y-65238300D01*
X106783500Y-65238300D02*
X106783500Y-61430000D01*
X106783500Y-61430000D02*
X106053500Y-60700000D01*
X106053500Y-60700000D02*
X105490000Y-60700000D01*
X105490000Y-77400000D02*
X104609700Y-77400000D01*
X104079900Y-77541200D02*
X104468500Y-77541200D01*
X104468500Y-77541200D02*
X104609700Y-77400000D01*
X106721400Y-65300400D02*
X105689600Y-65300400D01*
X105689600Y-65300400D02*
X105490000Y-65500000D01*
X106463000Y-73065000D02*
X107374800Y-72153200D01*
X107374800Y-72153200D02*
X107374800Y-65953800D01*
X107374800Y-65953800D02*
X106721400Y-65300400D01*
X106463000Y-73065000D02*
X105998000Y-72600000D01*
X105998000Y-72600000D02*
X105490000Y-72600000D01*
X105490000Y-77400000D02*
X106026500Y-77400000D01*
X106026500Y-77400000D02*
X106824700Y-76601800D01*
X106824700Y-76601800D02*
X106824700Y-73426700D01*
X106824700Y-73426700D02*
X106463000Y-73065000D01*
G04 #@! TO.N,+3V3*
X86614800Y-94184800D02*
X86730000Y-94300000D01*
X82310300Y-94860000D02*
X82310300Y-94572400D01*
X82310300Y-94572400D02*
X83204000Y-93678700D01*
X83204000Y-93678700D02*
X86108700Y-93678700D01*
X86108700Y-93678700D02*
X86614800Y-94184800D01*
X86614800Y-94184800D02*
X89871200Y-90928400D01*
X89871200Y-90928400D02*
X97230400Y-90928400D01*
X97230400Y-90928400D02*
X99452000Y-93150000D01*
X99452000Y-93150000D02*
X101810000Y-93150000D01*
X94750000Y-81325000D02*
X94905200Y-81325000D01*
X94905200Y-81325000D02*
X97230400Y-83650200D01*
X97230400Y-83650200D02*
X97230400Y-90928400D01*
X81160000Y-94860000D02*
X82310300Y-94860000D01*
X94700000Y-79737500D02*
X94700000Y-81275000D01*
X94700000Y-81275000D02*
X94750000Y-81325000D01*
X93131600Y-77370400D02*
X93457500Y-77044500D01*
X93457500Y-77044500D02*
X93457500Y-74968400D01*
X90410000Y-79447500D02*
X90410000Y-79243100D01*
X90410000Y-79243100D02*
X92174000Y-77479100D01*
X92174000Y-77479100D02*
X93022900Y-77479100D01*
X93022900Y-77479100D02*
X93131600Y-77370400D01*
X93131600Y-77370400D02*
X94700000Y-78938900D01*
X94700000Y-78938900D02*
X94700000Y-79737500D01*
X97612500Y-72825000D02*
X96805100Y-72825000D01*
X96805100Y-72825000D02*
X96705400Y-72924700D01*
X96705400Y-72924700D02*
X95501200Y-72924700D01*
X95501200Y-72924700D02*
X93457500Y-74968400D01*
X93457500Y-74968400D02*
X90700000Y-72210900D01*
X90700000Y-72210900D02*
X90700000Y-71412500D01*
X90700000Y-79737500D02*
X90410000Y-79447500D01*
X90410000Y-79447500D02*
X89670000Y-79447500D01*
X89530000Y-69825000D02*
X89530000Y-68170000D01*
X89530000Y-68170000D02*
X90550000Y-67150000D01*
X90700000Y-71412500D02*
X89530000Y-70242500D01*
X89530000Y-70242500D02*
X89530000Y-69825000D01*
X89670000Y-79447500D02*
X89670000Y-79825000D01*
X88917500Y-78695000D02*
X89670000Y-79447500D01*
X89287500Y-78325000D02*
X88917500Y-78695000D01*
X88917500Y-78695000D02*
X87650000Y-78695000D01*
X91225000Y-66475000D02*
X90550000Y-67150000D01*
X92481200Y-63000400D02*
X92135800Y-62655000D01*
X92135800Y-62655000D02*
X91975000Y-62655000D01*
X90771000Y-65375000D02*
X92481200Y-63664800D01*
X92481200Y-63664800D02*
X92481200Y-63000400D01*
X94650000Y-62570000D02*
X92911600Y-62570000D01*
X92911600Y-62570000D02*
X92481200Y-63000400D01*
X90771000Y-65375000D02*
X90600000Y-65375000D01*
X91225000Y-66475000D02*
X91225000Y-65829000D01*
X91225000Y-65829000D02*
X90771000Y-65375000D01*
X92595000Y-66475000D02*
X91225000Y-66475000D01*
X90287500Y-61825000D02*
X91145000Y-61825000D01*
X91145000Y-61825000D02*
X91975000Y-62655000D01*
X94650000Y-66380000D02*
X92690000Y-66380000D01*
X92690000Y-66380000D02*
X92595000Y-66475000D01*
X99250000Y-72735000D02*
X99160000Y-72825000D01*
X99160000Y-72825000D02*
X97612500Y-72825000D01*
X86730000Y-96850000D02*
X86730000Y-94300000D01*
G04 #@! TO.N,/NRST*
X95041700Y-84521100D02*
X93551200Y-83030600D01*
X93551200Y-83030600D02*
X93551200Y-80903800D01*
X93551200Y-80903800D02*
X93700000Y-80755000D01*
X93700000Y-80755000D02*
X93700000Y-79737500D01*
X102450000Y-93150000D02*
X102450000Y-89192400D01*
X102450000Y-89192400D02*
X101078100Y-87820500D01*
X105100000Y-93150000D02*
X102450000Y-93150000D01*
X102450000Y-93150000D02*
X102450000Y-94450000D01*
G04 #@! TO.N,Net-(J1-PadB5)*
X105490000Y-61350000D02*
X103770000Y-61350000D01*
X103770000Y-61350000D02*
X103720000Y-61300000D01*
G04 #@! TO.N,Net-(J1-PadA6)*
X105490000Y-63350000D02*
X106370300Y-63350000D01*
X105490000Y-62350000D02*
X106370300Y-62350000D01*
X106370300Y-62350000D02*
X106370300Y-63350000D01*
X103720000Y-62350000D02*
X105490000Y-62350000D01*
G04 #@! TO.N,Net-(J1-PadA5)*
X105490000Y-64350000D02*
X103770000Y-64350000D01*
X103770000Y-64350000D02*
X103720000Y-64400000D01*
G04 #@! TO.N,Net-(J1-PadA7)*
X105490000Y-62850000D02*
X104609700Y-62850000D01*
X105490000Y-63850000D02*
X104609700Y-63850000D01*
X104345000Y-63397900D02*
X104345000Y-63114700D01*
X104345000Y-63114700D02*
X104609700Y-62850000D01*
X104609700Y-63850000D02*
X104609700Y-63662600D01*
X104609700Y-63662600D02*
X104345000Y-63397900D01*
X104345000Y-63397900D02*
X103797100Y-63397900D01*
X103797100Y-63397900D02*
X103720000Y-63475000D01*
G04 #@! TO.N,Net-(J2-PadB5)*
X105490000Y-73250000D02*
X103770000Y-73250000D01*
X103770000Y-73250000D02*
X103720000Y-73300000D01*
G04 #@! TO.N,Net-(J2-PadA6)*
X104609700Y-74250000D02*
X104588800Y-74229100D01*
X104588800Y-74229100D02*
X104496700Y-74229100D01*
X104466000Y-75250000D02*
X104609700Y-75250000D01*
X103720000Y-75225000D02*
X104441000Y-75225000D01*
X104441000Y-75225000D02*
X104466000Y-75250000D01*
X104466000Y-75250000D02*
X104466000Y-75269400D01*
X105490000Y-74250000D02*
X104609700Y-74250000D01*
X105150000Y-75250000D02*
X105490000Y-75250000D01*
X105150000Y-75250000D02*
X104609700Y-75250000D01*
G04 #@! TO.N,Net-(J2-PadA5)*
X105490000Y-76250000D02*
X103770000Y-76250000D01*
X103770000Y-76250000D02*
X103720000Y-76200000D01*
G04 #@! TO.N,Net-(J2-PadA7)*
X105490000Y-74750000D02*
X106370300Y-74750000D01*
X105490000Y-75750000D02*
X106370300Y-75750000D01*
X106370300Y-75750000D02*
X106370300Y-74750000D01*
X105490000Y-74750000D02*
X104609700Y-74750000D01*
X103720000Y-74225000D02*
X104245000Y-74750000D01*
X104245000Y-74750000D02*
X104609700Y-74750000D01*
G04 #@! TO.N,Net-(R1-Pad2)*
X89500000Y-96840000D02*
X87380000Y-96840000D01*
X87380000Y-96840000D02*
X87370000Y-96850000D01*
G04 #@! TO.N,Net-(R2-Pad1)*
X89500000Y-94300000D02*
X87370000Y-94300000D01*
G04 #@! TO.N,Net-(R5-Pad1)*
X99600000Y-66380000D02*
X99254300Y-66380000D01*
X99254300Y-66380000D02*
X98314400Y-65440100D01*
X98314400Y-65440100D02*
X98314400Y-64768700D01*
X98314400Y-64768700D02*
X98608100Y-64475000D01*
X98608100Y-64475000D02*
X100955000Y-64475000D01*
X100955000Y-64475000D02*
X103080000Y-62350000D01*
G04 #@! TO.N,/BOOT1*
X97612500Y-74825000D02*
X98512600Y-74825000D01*
X98512600Y-74825000D02*
X99458500Y-75770900D01*
X99458500Y-75770900D02*
X99458500Y-82328900D01*
X99458500Y-82328900D02*
X99247300Y-82540100D01*
X99247300Y-82540100D02*
X99247300Y-92220900D01*
X99247300Y-92220900D02*
X99458500Y-92432100D01*
X97120000Y-96840000D02*
X99200000Y-96840000D01*
X99200000Y-96840000D02*
X99210000Y-96850000D01*
G04 #@! TO.N,/BOOT0*
X89287500Y-76325000D02*
X90102000Y-76325000D01*
X90102000Y-76325000D02*
X90564900Y-75862100D01*
X90564900Y-75862100D02*
X90564900Y-75638200D01*
X99210000Y-94300000D02*
X97120000Y-94300000D01*
G04 #@! TO.N,/USBDP*
X103080000Y-75225000D02*
X102373800Y-75225000D01*
X102373800Y-75225000D02*
X101268300Y-74119500D01*
X92200000Y-71412500D02*
X92200000Y-72296700D01*
X92200000Y-72296700D02*
X92944800Y-73041500D01*
X92944800Y-73041500D02*
X93179500Y-73041500D01*
X91870000Y-69825000D02*
X92200000Y-70155000D01*
X92200000Y-70155000D02*
X92200000Y-71412500D01*
G04 #@! TO.N,/USB_PULLUP*
X91700000Y-71412500D02*
X91700000Y-70551300D01*
X91700000Y-70551300D02*
X91230000Y-70081300D01*
X91230000Y-70081300D02*
X91230000Y-69825000D01*
G04 #@! TO.N,/USBDM*
X103080000Y-74225000D02*
X101057900Y-72202900D01*
X101057900Y-72202900D02*
X96822100Y-72202900D01*
X96822100Y-72202900D02*
X96549500Y-72475500D01*
X96549500Y-72475500D02*
X92965700Y-72475500D01*
X92965700Y-72475500D02*
X92700000Y-72209800D01*
X92700000Y-72209800D02*
X92700000Y-71412500D01*
G04 #@! TO.N,/USART1_TX*
X93700000Y-71412500D02*
X93700000Y-70644200D01*
X93700000Y-70644200D02*
X93582700Y-70526900D01*
X93582700Y-70526900D02*
X93582700Y-70041600D01*
X93582700Y-70041600D02*
X94931300Y-68693000D01*
X94931300Y-68693000D02*
X94931300Y-68277500D01*
X94931300Y-68277500D02*
X96381200Y-66827600D01*
X96381200Y-66827600D02*
X96381200Y-65881600D01*
X96381200Y-65881600D02*
X95609600Y-65110000D01*
X95609600Y-65110000D02*
X94650000Y-65110000D01*
G04 #@! TO.N,/USART1_RX*
X93200000Y-71412500D02*
X93182300Y-71394800D01*
X93182300Y-71394800D02*
X93182300Y-69875900D01*
X93182300Y-69875900D02*
X94531000Y-68527200D01*
X94531000Y-68527200D02*
X94531000Y-68111400D01*
X94531000Y-68111400D02*
X95935200Y-66707200D01*
X95935200Y-66707200D02*
X95935200Y-66016500D01*
X95935200Y-66016500D02*
X95645200Y-65726500D01*
X95645200Y-65726500D02*
X93640100Y-65726500D01*
X93640100Y-65726500D02*
X93367400Y-65453800D01*
X93367400Y-65453800D02*
X93367400Y-64731000D01*
X93367400Y-64731000D02*
X94258400Y-63840000D01*
X94258400Y-63840000D02*
X94650000Y-63840000D01*
G04 #@! TO.N,/P1*
X96200000Y-71412500D02*
X96333600Y-71278900D01*
X96333600Y-71278900D02*
X96333600Y-67985800D01*
G04 #@! TO.N,/P2*
X95700000Y-71412500D02*
X95711200Y-71401300D01*
X95711200Y-71401300D02*
X95711200Y-68241900D01*
G04 #@! TO.N,/P3*
X95200000Y-71412500D02*
X95208500Y-71404000D01*
X95208500Y-71404000D02*
X95208500Y-69789600D01*
G04 #@! TO.N,/P4*
X94700000Y-71412500D02*
X94700000Y-70146300D01*
G04 #@! TO.N,/P5*
X94200000Y-71412500D02*
X94200000Y-70367900D01*
X94200000Y-70367900D02*
X94083100Y-70251000D01*
G04 #@! TO.N,/P6*
X81160000Y-64380000D02*
X82310300Y-64380000D01*
X89287500Y-72825000D02*
X86203100Y-69740600D01*
X86203100Y-69740600D02*
X86203100Y-67762400D01*
X86203100Y-67762400D02*
X84090700Y-65650000D01*
X84090700Y-65650000D02*
X83341900Y-65650000D01*
X83341900Y-65650000D02*
X82310300Y-64618400D01*
X82310300Y-64618400D02*
X82310300Y-64380000D01*
G04 #@! TO.N,/P7*
X83700000Y-66920000D02*
X83700000Y-68070300D01*
X89287500Y-73325000D02*
X88508900Y-73325000D01*
X88508900Y-73325000D02*
X85089600Y-69905700D01*
X85089600Y-69905700D02*
X85089600Y-69221600D01*
X85089600Y-69221600D02*
X83938300Y-68070300D01*
X83938300Y-68070300D02*
X83700000Y-68070300D01*
G04 #@! TO.N,/P8*
X90429300Y-73825000D02*
X89287500Y-73825000D01*
G04 #@! TO.N,/P9*
X89287500Y-74325000D02*
X88492800Y-74325000D01*
X88492800Y-74325000D02*
X83700000Y-69532200D01*
X83700000Y-69532200D02*
X83700000Y-69460000D01*
G04 #@! TO.N,/P10*
X81160000Y-69460000D02*
X82310300Y-69460000D01*
X89287500Y-74825000D02*
X88426500Y-74825000D01*
X88426500Y-74825000D02*
X84331500Y-70730000D01*
X84331500Y-70730000D02*
X83341900Y-70730000D01*
X83341900Y-70730000D02*
X82310300Y-69698400D01*
X82310300Y-69698400D02*
X82310300Y-69460000D01*
G04 #@! TO.N,/P11*
X83700000Y-72000000D02*
X85035200Y-72000000D01*
X85035200Y-72000000D02*
X88360200Y-75325000D01*
X88360200Y-75325000D02*
X89287500Y-75325000D01*
G04 #@! TO.N,/P12*
X81160000Y-72000000D02*
X82310300Y-72000000D01*
X89287500Y-75825000D02*
X88255100Y-75825000D01*
X88255100Y-75825000D02*
X85700100Y-73270000D01*
X85700100Y-73270000D02*
X83341900Y-73270000D01*
X83341900Y-73270000D02*
X82310300Y-72238400D01*
X82310300Y-72238400D02*
X82310300Y-72000000D01*
G04 #@! TO.N,/P13*
X89287500Y-76825000D02*
X88249300Y-76825000D01*
X88249300Y-76825000D02*
X85964300Y-74540000D01*
X85964300Y-74540000D02*
X83700000Y-74540000D01*
G04 #@! TO.N,/P14*
X81160000Y-74540000D02*
X82310300Y-74540000D01*
X89287500Y-77325000D02*
X87077800Y-77325000D01*
X87077800Y-77325000D02*
X85562800Y-75810000D01*
X85562800Y-75810000D02*
X83341900Y-75810000D01*
X83341900Y-75810000D02*
X82310300Y-74778400D01*
X82310300Y-74778400D02*
X82310300Y-74540000D01*
G04 #@! TO.N,/P15*
X91200000Y-79737500D02*
X91200000Y-80505800D01*
X91200000Y-80505800D02*
X90930100Y-80775700D01*
X90930100Y-80775700D02*
X88301000Y-80775700D01*
X88301000Y-80775700D02*
X84850300Y-77325000D01*
X84850300Y-77325000D02*
X84850300Y-77080000D01*
X83700000Y-77080000D02*
X84850300Y-77080000D01*
G04 #@! TO.N,/P16*
X91700000Y-79737500D02*
X91700000Y-80572000D01*
X91700000Y-80572000D02*
X91096000Y-81176000D01*
X91096000Y-81176000D02*
X87661700Y-81176000D01*
X87661700Y-81176000D02*
X84835700Y-78350000D01*
X84835700Y-78350000D02*
X83341900Y-78350000D01*
X83341900Y-78350000D02*
X82310300Y-77318400D01*
X82310300Y-77318400D02*
X82310300Y-77080000D01*
X81160000Y-77080000D02*
X82310300Y-77080000D01*
G04 #@! TO.N,/P17*
X83700000Y-79620000D02*
X84850300Y-79620000D01*
X92200000Y-79737500D02*
X92200000Y-80684500D01*
X92200000Y-80684500D02*
X91308100Y-81576400D01*
X91308100Y-81576400D02*
X86806700Y-81576400D01*
X86806700Y-81576400D02*
X84850300Y-79620000D01*
G04 #@! TO.N,/P18*
X95200000Y-79737500D02*
X95200000Y-78442000D01*
X95200000Y-78442000D02*
X95117600Y-78359600D01*
G04 #@! TO.N,/P19*
X95749300Y-78578000D02*
X95749300Y-79688200D01*
X95749300Y-79688200D02*
X95700000Y-79737500D01*
G04 #@! TO.N,/P20*
X96758100Y-79494600D02*
X96442900Y-79494600D01*
X96442900Y-79494600D02*
X96200000Y-79737500D01*
G04 #@! TO.N,/P21*
X97612500Y-78325000D02*
X97612500Y-79389600D01*
X97612500Y-79389600D02*
X96907100Y-80095000D01*
X96907100Y-80095000D02*
X96806900Y-80095000D01*
G04 #@! TO.N,/P22*
X97612500Y-77825000D02*
X98411800Y-77825000D01*
X98411800Y-77825000D02*
X98655900Y-78069100D01*
X98655900Y-78069100D02*
X98655900Y-78976300D01*
X98655900Y-78976300D02*
X97036800Y-80595400D01*
X97036800Y-80595400D02*
X96725900Y-80595400D01*
X96725900Y-80595400D02*
X96436800Y-80884500D01*
X96436800Y-80884500D02*
X95904300Y-80884500D01*
G04 #@! TO.N,/P23*
X97612500Y-77325000D02*
X96844200Y-77325000D01*
X96844200Y-77325000D02*
X96574400Y-77594800D01*
X96574400Y-77594800D02*
X96574400Y-78695300D01*
X96574400Y-78695300D02*
X96773300Y-78894200D01*
G04 #@! TO.N,/P24*
X97612500Y-76825000D02*
X98456300Y-76825000D01*
X98456300Y-76825000D02*
X99056400Y-77425100D01*
X99056400Y-77425100D02*
X99056400Y-79151900D01*
X99056400Y-79151900D02*
X97112600Y-81095700D01*
X97112600Y-81095700D02*
X97067700Y-81095700D01*
G04 #@! TO.N,/P25*
X97612500Y-76325000D02*
X96697300Y-76325000D01*
X96697300Y-76325000D02*
X96462100Y-76560200D01*
G04 #@! TO.N,/P26*
X96289500Y-75912200D02*
X96376700Y-75825000D01*
X96376700Y-75825000D02*
X97612500Y-75825000D01*
G04 #@! TO.N,/P27*
X97612500Y-75325000D02*
X98403000Y-75325000D01*
X98403000Y-75325000D02*
X98924900Y-75846900D01*
X98924900Y-75846900D02*
X98924900Y-76551700D01*
G04 #@! TO.N,/P28*
X97612500Y-74325000D02*
X96827600Y-74325000D01*
X96827600Y-74325000D02*
X96455600Y-74697000D01*
X96455600Y-74697000D02*
X96455600Y-75009500D01*
G04 #@! TO.N,/P29*
X97612500Y-73825000D02*
X98427700Y-73825000D01*
X98427700Y-73825000D02*
X99913400Y-75310700D01*
X99913400Y-75310700D02*
X99913400Y-82581500D01*
X99913400Y-82581500D02*
X99747600Y-82747300D01*
G04 #@! TO.N,Net-(C13-Pad1)*
X92700000Y-79737500D02*
X92700000Y-82170000D01*
X92700000Y-82170000D02*
X91420000Y-83450000D01*
X91300000Y-86800000D02*
X91420000Y-86680000D01*
X91420000Y-86680000D02*
X91420000Y-83450000D01*
G04 #@! TO.N,Net-(C14-Pad1)*
X96180000Y-86800000D02*
X96220000Y-86760000D01*
X96220000Y-86760000D02*
X96220000Y-83450000D01*
X93200000Y-79737500D02*
X93150700Y-79786800D01*
X93150700Y-79786800D02*
X93150700Y-83770700D01*
X93150700Y-83770700D02*
X94460400Y-85080400D01*
G04 #@! TO.N,Net-(C6-Pad1)*
X91975000Y-60315000D02*
X94847500Y-60315000D01*
X94847500Y-60315000D02*
X96562500Y-58600000D01*
X91325300Y-60325000D02*
X91335300Y-60315000D01*
X91335300Y-60315000D02*
X91975000Y-60315000D01*
X90375000Y-60325000D02*
X90375000Y-59574700D01*
X88975000Y-58400000D02*
X90149700Y-59574700D01*
X90149700Y-59574700D02*
X90375000Y-59574700D01*
X96562500Y-58600000D02*
X96162500Y-58200000D01*
X96162500Y-58200000D02*
X94920000Y-58200000D01*
X90375000Y-60325000D02*
X91325300Y-60325000D01*
G04 #@! TO.N,Net-(D1-Pad1)*
X98437500Y-58600000D02*
X100350000Y-58600000D01*
G04 #@! TO.N,Net-(D2-Pad2)*
X94260000Y-59400000D02*
X94260000Y-58220000D01*
X94260000Y-58220000D02*
X94280000Y-58200000D01*
G04 #@! TO.N,Net-(R6-Pad1)*
X99600000Y-65110000D02*
X101445000Y-65110000D01*
X101445000Y-65110000D02*
X103080000Y-63475000D01*
G04 #@! TD*
M02*
