G04 #@! TF.GenerationSoftware,KiCad,Pcbnew,5.1.8+dfsg1-1~bpo10+1*
G04 #@! TF.CreationDate,2020-11-28T00:35:18+08:00*
G04 #@! TF.ProjectId,stm32-io-extend,73746d33-322d-4696-9f2d-657874656e64,rev?*
G04 #@! TF.SameCoordinates,Original*
G04 #@! TF.FileFunction,Copper,L2,Bot*
G04 #@! TF.FilePolarity,Positive*
%FSLAX46Y46*%
G04 Gerber Fmt 4.6, Leading zero omitted, Abs format (unit mm)*
G04 Created by KiCad (PCBNEW 5.1.8+dfsg1-1~bpo10+1) date 2020-11-28 00:35:18*
%MOMM*%
%LPD*%
G01*
G04 APERTURE LIST*
G04 #@! TA.AperFunction,ComponentPad*
%ADD10O,2.000000X0.900000*%
G04 #@! TD*
G04 #@! TA.AperFunction,ComponentPad*
%ADD11O,1.700000X0.900000*%
G04 #@! TD*
G04 #@! TA.AperFunction,ComponentPad*
%ADD12R,1.700000X1.700000*%
G04 #@! TD*
G04 #@! TA.AperFunction,ComponentPad*
%ADD13O,1.700000X1.700000*%
G04 #@! TD*
G04 #@! TA.AperFunction,ComponentPad*
%ADD14R,1.600000X1.600000*%
G04 #@! TD*
G04 #@! TA.AperFunction,ComponentPad*
%ADD15O,1.600000X1.600000*%
G04 #@! TD*
G04 #@! TA.AperFunction,ComponentPad*
%ADD16C,2.000000*%
G04 #@! TD*
G04 #@! TA.AperFunction,ComponentPad*
%ADD17C,1.500000*%
G04 #@! TD*
G04 #@! TA.AperFunction,ViaPad*
%ADD18C,0.400000*%
G04 #@! TD*
G04 #@! TA.AperFunction,Conductor*
%ADD19C,0.200000*%
G04 #@! TD*
G04 APERTURE END LIST*
D10*
G04 #@! TO.P,J1,S1*
G04 #@! TO.N,GND*
X106070000Y-67420000D03*
X106070000Y-58780000D03*
D11*
X110240000Y-67420000D03*
X110240000Y-58780000D03*
G04 #@! TD*
G04 #@! TO.P,J2,S1*
G04 #@! TO.N,GND*
X110240000Y-70680000D03*
X110240000Y-79320000D03*
D10*
X106070000Y-70680000D03*
X106070000Y-79320000D03*
G04 #@! TD*
D12*
G04 #@! TO.P,J3,1*
G04 #@! TO.N,/P1*
X83700000Y-59300000D03*
D13*
G04 #@! TO.P,J3,2*
G04 #@! TO.N,/P2*
X81160000Y-59300000D03*
G04 #@! TO.P,J3,3*
G04 #@! TO.N,/P3*
X83700000Y-61840000D03*
G04 #@! TO.P,J3,4*
G04 #@! TO.N,/P4*
X81160000Y-61840000D03*
G04 #@! TO.P,J3,5*
G04 #@! TO.N,/P5*
X83700000Y-64380000D03*
G04 #@! TO.P,J3,6*
G04 #@! TO.N,/P6*
X81160000Y-64380000D03*
G04 #@! TO.P,J3,7*
G04 #@! TO.N,/P7*
X83700000Y-66920000D03*
G04 #@! TO.P,J3,8*
G04 #@! TO.N,/P8*
X81160000Y-66920000D03*
G04 #@! TO.P,J3,9*
G04 #@! TO.N,/P9*
X83700000Y-69460000D03*
G04 #@! TO.P,J3,10*
G04 #@! TO.N,/P10*
X81160000Y-69460000D03*
G04 #@! TO.P,J3,11*
G04 #@! TO.N,/P11*
X83700000Y-72000000D03*
G04 #@! TO.P,J3,12*
G04 #@! TO.N,/P12*
X81160000Y-72000000D03*
G04 #@! TO.P,J3,13*
G04 #@! TO.N,/P13*
X83700000Y-74540000D03*
G04 #@! TO.P,J3,14*
G04 #@! TO.N,/P14*
X81160000Y-74540000D03*
G04 #@! TO.P,J3,15*
G04 #@! TO.N,/P15*
X83700000Y-77080000D03*
G04 #@! TO.P,J3,16*
G04 #@! TO.N,/P16*
X81160000Y-77080000D03*
G04 #@! TO.P,J3,17*
G04 #@! TO.N,/P17*
X83700000Y-79620000D03*
G04 #@! TO.P,J3,18*
G04 #@! TO.N,/P18*
X81160000Y-79620000D03*
G04 #@! TO.P,J3,19*
G04 #@! TO.N,/P19*
X83700000Y-82160000D03*
G04 #@! TO.P,J3,20*
G04 #@! TO.N,/P20*
X81160000Y-82160000D03*
G04 #@! TO.P,J3,21*
G04 #@! TO.N,/P21*
X83700000Y-84700000D03*
G04 #@! TO.P,J3,22*
G04 #@! TO.N,/P22*
X81160000Y-84700000D03*
G04 #@! TO.P,J3,23*
G04 #@! TO.N,/P23*
X83700000Y-87240000D03*
G04 #@! TO.P,J3,24*
G04 #@! TO.N,/P24*
X81160000Y-87240000D03*
G04 #@! TO.P,J3,25*
G04 #@! TO.N,/P25*
X83700000Y-89780000D03*
G04 #@! TO.P,J3,26*
G04 #@! TO.N,/P26*
X81160000Y-89780000D03*
G04 #@! TO.P,J3,27*
G04 #@! TO.N,/P27*
X83700000Y-92320000D03*
G04 #@! TO.P,J3,28*
G04 #@! TO.N,/P28*
X81160000Y-92320000D03*
G04 #@! TO.P,J3,29*
G04 #@! TO.N,/P29*
X83700000Y-94860000D03*
G04 #@! TO.P,J3,30*
G04 #@! TO.N,+3V3*
X81160000Y-94860000D03*
G04 #@! TO.P,J3,31*
G04 #@! TO.N,GND*
X83700000Y-97400000D03*
G04 #@! TO.P,J3,32*
G04 #@! TO.N,+5V*
X81160000Y-97400000D03*
G04 #@! TD*
D14*
G04 #@! TO.P,SW1,1*
G04 #@! TO.N,Net-(R2-Pad1)*
X89500000Y-94300000D03*
D15*
G04 #@! TO.P,SW1,3*
G04 #@! TO.N,/BOOT1*
X97120000Y-96840000D03*
G04 #@! TO.P,SW1,2*
G04 #@! TO.N,Net-(R1-Pad2)*
X89500000Y-96840000D03*
G04 #@! TO.P,SW1,4*
G04 #@! TO.N,/BOOT0*
X97120000Y-94300000D03*
G04 #@! TD*
D16*
G04 #@! TO.P,SW2,2*
G04 #@! TO.N,GND*
X105100000Y-97650000D03*
G04 #@! TO.P,SW2,1*
G04 #@! TO.N,/NRST*
X105100000Y-93150000D03*
G04 #@! TO.P,SW2,2*
G04 #@! TO.N,GND*
X111600000Y-97650000D03*
G04 #@! TO.P,SW2,1*
G04 #@! TO.N,/NRST*
X111600000Y-93150000D03*
G04 #@! TD*
D17*
G04 #@! TO.P,Y1,1*
G04 #@! TO.N,Net-(C13-Pad1)*
X91300000Y-86800000D03*
G04 #@! TO.P,Y1,2*
G04 #@! TO.N,Net-(C14-Pad1)*
X96180000Y-86800000D03*
G04 #@! TD*
D18*
G04 #@! TO.N,GND*
X94030700Y-68319900D03*
G04 #@! TO.N,+5V*
X104079900Y-77541200D03*
G04 #@! TO.N,/NRST*
X95041700Y-84521100D03*
X101078100Y-87820500D03*
G04 #@! TO.N,Net-(J2-PadA6)*
X104496700Y-74229100D03*
X104466000Y-75269400D03*
G04 #@! TO.N,/BOOT1*
X99458500Y-92432100D03*
G04 #@! TO.N,/BOOT0*
X90564900Y-75638200D03*
G04 #@! TO.N,/USBDP*
X101268300Y-74119500D03*
X93179500Y-73041500D03*
G04 #@! TO.N,/P1*
X96333600Y-67985800D03*
G04 #@! TO.N,/P2*
X95711200Y-68241900D03*
G04 #@! TO.N,/P3*
X95208500Y-69789600D03*
G04 #@! TO.N,/P4*
X94700000Y-70146300D03*
G04 #@! TO.N,/P5*
X94083100Y-70251000D03*
G04 #@! TO.N,/P8*
X90429300Y-73825000D03*
G04 #@! TO.N,/P18*
X95117600Y-78359600D03*
G04 #@! TO.N,/P19*
X95749300Y-78578000D03*
G04 #@! TO.N,/P20*
X96758100Y-79494600D03*
G04 #@! TO.N,/P21*
X96806900Y-80095000D03*
G04 #@! TO.N,/P22*
X95904300Y-80884500D03*
G04 #@! TO.N,/P23*
X96773300Y-78894200D03*
G04 #@! TO.N,/P24*
X97067700Y-81095700D03*
G04 #@! TO.N,/P25*
X96462100Y-76560200D03*
G04 #@! TO.N,/P26*
X96289500Y-75912200D03*
G04 #@! TO.N,/P27*
X98924900Y-76551700D03*
G04 #@! TO.N,/P28*
X96455600Y-75009500D03*
G04 #@! TO.N,/P29*
X99747600Y-82747300D03*
G04 #@! TO.N,Net-(C14-Pad1)*
X94460400Y-85080400D03*
G04 #@! TD*
D19*
G04 #@! TO.N,GND*
X106070000Y-67420000D02*
X104769700Y-67420000D01*
X104769700Y-67420000D02*
X103447400Y-68742300D01*
X103447400Y-68742300D02*
X95210800Y-68742300D01*
X95210800Y-68742300D02*
X94788400Y-68319900D01*
X94788400Y-68319900D02*
X94030700Y-68319900D01*
X109089700Y-70680000D02*
X106070000Y-70680000D01*
X110240000Y-70680000D02*
X109089700Y-70680000D01*
X110240000Y-67420000D02*
X109089700Y-67420000D01*
X109089700Y-67420000D02*
X109089700Y-70680000D01*
G04 #@! TO.N,+5V*
X104079900Y-77541200D02*
X98024900Y-83596200D01*
X98024900Y-83596200D02*
X94655700Y-83596200D01*
X94655700Y-83596200D02*
X93331900Y-84920000D01*
X93331900Y-84920000D02*
X93331900Y-86298600D01*
X93331900Y-86298600D02*
X86137200Y-93493300D01*
X86137200Y-93493300D02*
X83378200Y-93493300D01*
X83378200Y-93493300D02*
X82310300Y-94561200D01*
X82310300Y-94561200D02*
X82310300Y-95387100D01*
X82310300Y-95387100D02*
X81447700Y-96249700D01*
X81447700Y-96249700D02*
X81160000Y-96249700D01*
X81160000Y-97400000D02*
X81160000Y-96249700D01*
G04 #@! TO.N,/NRST*
X101078100Y-87820500D02*
X97778700Y-84521100D01*
X97778700Y-84521100D02*
X95041700Y-84521100D01*
X111600000Y-93150000D02*
X105100000Y-93150000D01*
G04 #@! TO.N,Net-(J2-PadA6)*
X104466000Y-75269400D02*
X104466000Y-74259800D01*
X104466000Y-74259800D02*
X104496700Y-74229100D01*
G04 #@! TO.N,/BOOT1*
X97120000Y-95739700D02*
X97348000Y-95739700D01*
X97348000Y-95739700D02*
X99458500Y-93629200D01*
X99458500Y-93629200D02*
X99458500Y-92432100D01*
X97120000Y-96840000D02*
X97120000Y-95739700D01*
G04 #@! TO.N,/BOOT0*
X97120000Y-94300000D02*
X97120000Y-93199700D01*
X97120000Y-93199700D02*
X104644100Y-85675600D01*
X104644100Y-85675600D02*
X104644100Y-77397800D01*
X104644100Y-77397800D02*
X104287200Y-77040900D01*
X104287200Y-77040900D02*
X100722100Y-77040900D01*
X100722100Y-77040900D02*
X98174200Y-74493000D01*
X98174200Y-74493000D02*
X91710100Y-74493000D01*
X91710100Y-74493000D02*
X90564900Y-75638200D01*
G04 #@! TO.N,/USBDP*
X93179500Y-73041500D02*
X100190300Y-73041500D01*
X100190300Y-73041500D02*
X101268300Y-74119500D01*
G04 #@! TO.N,/P1*
X96333600Y-67985800D02*
X87647800Y-59300000D01*
X87647800Y-59300000D02*
X83700000Y-59300000D01*
G04 #@! TO.N,/P2*
X82310300Y-59300000D02*
X82310300Y-60090900D01*
X82310300Y-60090900D02*
X82669700Y-60450300D01*
X82669700Y-60450300D02*
X87919600Y-60450300D01*
X87919600Y-60450300D02*
X95711200Y-68241900D01*
X81160000Y-59300000D02*
X82310300Y-59300000D01*
G04 #@! TO.N,/P3*
X83700000Y-61840000D02*
X86843300Y-61840000D01*
X86843300Y-61840000D02*
X93823500Y-68820200D01*
X93823500Y-68820200D02*
X94239100Y-68820200D01*
X94239100Y-68820200D02*
X95208500Y-69789600D01*
G04 #@! TO.N,/P4*
X82310300Y-61840000D02*
X82310300Y-62078400D01*
X82310300Y-62078400D02*
X83222300Y-62990400D01*
X83222300Y-62990400D02*
X87251300Y-62990400D01*
X87251300Y-62990400D02*
X93554500Y-69293600D01*
X93554500Y-69293600D02*
X93847300Y-69293600D01*
X93847300Y-69293600D02*
X94700000Y-70146300D01*
X81160000Y-61840000D02*
X82310300Y-61840000D01*
G04 #@! TO.N,/P5*
X84850300Y-64380000D02*
X90721300Y-70251000D01*
X90721300Y-70251000D02*
X94083100Y-70251000D01*
X83700000Y-64380000D02*
X84850300Y-64380000D01*
G04 #@! TO.N,/P8*
X82310300Y-66920000D02*
X82310300Y-67207700D01*
X82310300Y-67207700D02*
X83172900Y-68070300D01*
X83172900Y-68070300D02*
X84674600Y-68070300D01*
X84674600Y-68070300D02*
X90429300Y-73825000D01*
X81160000Y-66920000D02*
X82310300Y-66920000D01*
G04 #@! TO.N,/P18*
X82310300Y-79620000D02*
X82310300Y-79332400D01*
X82310300Y-79332400D02*
X83283100Y-78359600D01*
X83283100Y-78359600D02*
X95117600Y-78359600D01*
X81160000Y-79620000D02*
X82310300Y-79620000D01*
G04 #@! TO.N,/P19*
X95749300Y-78578000D02*
X94333800Y-79993500D01*
X94333800Y-79993500D02*
X87016800Y-79993500D01*
X87016800Y-79993500D02*
X84850300Y-82160000D01*
X83700000Y-82160000D02*
X84850300Y-82160000D01*
G04 #@! TO.N,/P20*
X96758100Y-79494600D02*
X95663400Y-79494600D01*
X95663400Y-79494600D02*
X94764200Y-80393800D01*
X94764200Y-80393800D02*
X91504300Y-80393800D01*
X91504300Y-80393800D02*
X88587700Y-83310400D01*
X88587700Y-83310400D02*
X83173100Y-83310400D01*
X83173100Y-83310400D02*
X82310300Y-82447600D01*
X82310300Y-82447600D02*
X82310300Y-82160000D01*
X81160000Y-82160000D02*
X82310300Y-82160000D01*
G04 #@! TO.N,/P21*
X96806900Y-80095000D02*
X95629100Y-80095000D01*
X95629100Y-80095000D02*
X94930000Y-80794100D01*
X94930000Y-80794100D02*
X92143400Y-80794100D01*
X92143400Y-80794100D02*
X88237500Y-84700000D01*
X88237500Y-84700000D02*
X83700000Y-84700000D01*
G04 #@! TO.N,/P22*
X95904300Y-80884500D02*
X95594400Y-81194400D01*
X95594400Y-81194400D02*
X92309200Y-81194400D01*
X92309200Y-81194400D02*
X87613000Y-85890600D01*
X87613000Y-85890600D02*
X83213300Y-85890600D01*
X83213300Y-85890600D02*
X82310300Y-84987600D01*
X82310300Y-84987600D02*
X82310300Y-84700000D01*
X81160000Y-84700000D02*
X82310300Y-84700000D01*
G04 #@! TO.N,/P23*
X96773300Y-78894200D02*
X96865300Y-78894200D01*
X96865300Y-78894200D02*
X97347300Y-79376200D01*
X97347300Y-79376200D02*
X97347300Y-80284700D01*
X97347300Y-80284700D02*
X97036600Y-80595400D01*
X97036600Y-80595400D02*
X96814700Y-80595400D01*
X96814700Y-80595400D02*
X96432700Y-80977400D01*
X96432700Y-80977400D02*
X96432700Y-81063800D01*
X96432700Y-81063800D02*
X95901800Y-81594700D01*
X95901800Y-81594700D02*
X92475000Y-81594700D01*
X92475000Y-81594700D02*
X86829700Y-87240000D01*
X86829700Y-87240000D02*
X83700000Y-87240000D01*
G04 #@! TO.N,/P24*
X97067700Y-81095700D02*
X96168400Y-81995000D01*
X96168400Y-81995000D02*
X92640800Y-81995000D01*
X92640800Y-81995000D02*
X86206500Y-88429300D01*
X86206500Y-88429300D02*
X83212000Y-88429300D01*
X83212000Y-88429300D02*
X82310300Y-87527600D01*
X82310300Y-87527600D02*
X82310300Y-87240000D01*
X81160000Y-87240000D02*
X82310300Y-87240000D01*
G04 #@! TO.N,/P25*
X96462100Y-76560200D02*
X97749500Y-77847600D01*
X97749500Y-77847600D02*
X97749500Y-81138400D01*
X97749500Y-81138400D02*
X96492600Y-82395300D01*
X96492600Y-82395300D02*
X92806600Y-82395300D01*
X92806600Y-82395300D02*
X85421900Y-89780000D01*
X85421900Y-89780000D02*
X83700000Y-89780000D01*
G04 #@! TO.N,/P26*
X81160000Y-88629700D02*
X80872400Y-88629700D01*
X80872400Y-88629700D02*
X80003500Y-87760800D01*
X80003500Y-87760800D02*
X80003500Y-79110700D01*
X80003500Y-79110700D02*
X80644600Y-78469600D01*
X80644600Y-78469600D02*
X81434600Y-78469600D01*
X81434600Y-78469600D02*
X82549600Y-77354600D01*
X82549600Y-77354600D02*
X82549600Y-76541900D01*
X82549600Y-76541900D02*
X83179300Y-75912200D01*
X83179300Y-75912200D02*
X90131400Y-75912200D01*
X90131400Y-75912200D02*
X90357700Y-76138500D01*
X90357700Y-76138500D02*
X96063200Y-76138500D01*
X96063200Y-76138500D02*
X96289500Y-75912200D01*
X81160000Y-89780000D02*
X81160000Y-88629700D01*
G04 #@! TO.N,/P27*
X98924900Y-76551700D02*
X98924900Y-81122600D01*
X98924900Y-81122600D02*
X96851600Y-83195900D01*
X96851600Y-83195900D02*
X93347500Y-83195900D01*
X93347500Y-83195900D02*
X84850300Y-91693100D01*
X84850300Y-91693100D02*
X84850300Y-92320000D01*
X83700000Y-92320000D02*
X84850300Y-92320000D01*
G04 #@! TO.N,/P28*
X96455600Y-75009500D02*
X98160700Y-76714600D01*
X98160700Y-76714600D02*
X98160700Y-81306700D01*
X98160700Y-81306700D02*
X96671800Y-82795600D01*
X96671800Y-82795600D02*
X92972500Y-82795600D01*
X92972500Y-82795600D02*
X84837700Y-90930400D01*
X84837700Y-90930400D02*
X83461500Y-90930400D01*
X83461500Y-90930400D02*
X82310300Y-92081600D01*
X82310300Y-92081600D02*
X82310300Y-92320000D01*
X81160000Y-92320000D02*
X82310300Y-92320000D01*
G04 #@! TO.N,/P29*
X99747600Y-82747300D02*
X98498400Y-83996500D01*
X98498400Y-83996500D02*
X94821500Y-83996500D01*
X94821500Y-83996500D02*
X93932300Y-84885700D01*
X93932300Y-84885700D02*
X93932300Y-86307800D01*
X93932300Y-86307800D02*
X85380100Y-94860000D01*
X85380100Y-94860000D02*
X83700000Y-94860000D01*
G04 #@! TO.N,Net-(C14-Pad1)*
X96180000Y-86800000D02*
X94460400Y-85080400D01*
G04 #@! TD*
M02*
