M48
; DRILL file {KiCad 5.1.7+dfsg1-1~bpo10+1} date Wed Nov  4 14:19:50 2020
; FORMAT={-:-/ absolute / inch / decimal}
; #@! TF.CreationDate,2020-11-04T14:19:50+08:00
; #@! TF.GenerationSoftware,Kicad,Pcbnew,5.1.7+dfsg1-1~bpo10+1
; #@! TF.FileFunction,Plated,1,2,PTH
FMAT,2
INCH
T1C0.0079
T2C0.0236
T3C0.0315
T4C0.0394
T5C0.0433
%
G90
G05
T1
X3.5602Y-2.9065
X3.5655Y-2.9779
X3.6685Y-2.8756
X3.702Y-2.6898
X3.7041Y-2.7658
X3.7189Y-3.3496
X3.7283Y-2.7617
X3.7418Y-3.3276
X3.7448Y-3.085
X3.7484Y-2.7476
X3.7682Y-2.6867
X3.7697Y-3.0936
X3.7758Y-3.1844
X3.7909Y-2.9887
X3.7927Y-2.6766
X3.7975Y-2.9531
X3.7977Y-3.0142
X3.8094Y-3.1297
X3.81Y-3.1061
X3.8113Y-3.1533
X3.8216Y-3.1927
X3.8947Y-3.0138
X3.9157Y-3.6391
X3.9271Y-3.2578
X3.9795Y-3.4575
X3.9869Y-2.9181
X4.0976Y-3.0528
X4.1128Y-2.9634
X4.114Y-2.9224
T3
X3.5945Y-3.4173
X3.7866Y-3.4173
X3.5236Y-3.7126
X3.5236Y-3.8126
X3.8236Y-3.7126
X3.8236Y-3.8126
T4
X3.1953Y-2.3346
X3.1953Y-2.4346
X3.1953Y-2.5346
X3.1953Y-2.6346
X3.1953Y-2.7346
X3.1953Y-2.8346
X3.1953Y-2.9346
X3.1953Y-3.0346
X3.1953Y-3.1346
X3.1953Y-3.2346
X3.1953Y-3.3346
X3.1953Y-3.4346
X3.1953Y-3.5346
X3.1953Y-3.6346
X3.1953Y-3.7346
X3.1953Y-3.8346
X3.2953Y-2.3346
X3.2953Y-2.4346
X3.2953Y-2.5346
X3.2953Y-2.6346
X3.2953Y-2.7346
X3.2953Y-2.8346
X3.2953Y-2.9346
X3.2953Y-3.0346
X3.2953Y-3.1346
X3.2953Y-3.2346
X3.2953Y-3.3346
X3.2953Y-3.4346
X3.2953Y-3.5346
X3.2953Y-3.6346
X3.2953Y-3.7346
X3.2953Y-3.8346
T5
X4.1378Y-3.6673
X4.1378Y-3.8445
X4.3937Y-3.6673
X4.3937Y-3.8445
T2
G00X4.1976Y-2.7827
M15
G01X4.1543Y-2.7827
M16
G05
G00X4.1976Y-3.1228
M15
G01X4.1543Y-3.1228
M16
G05
G00X4.3559Y-2.7827
M15
G01X4.3244Y-2.7827
M16
G05
G00X4.3559Y-3.1228
M15
G01X4.3244Y-3.1228
M16
G05
G00X4.1976Y-2.3142
M15
G01X4.1543Y-2.3142
M16
G05
G00X4.1976Y-2.6543
M15
G01X4.1543Y-2.6543
M16
G05
G00X4.3559Y-2.3142
M15
G01X4.3244Y-2.3142
M16
G05
G00X4.3559Y-2.6543
M15
G01X4.3244Y-2.6543
M16
G05
T0
M30
