G04 #@! TF.GenerationSoftware,KiCad,Pcbnew,5.1.8+dfsg1-1~bpo10+1*
G04 #@! TF.CreationDate,2020-11-28T00:35:18+08:00*
G04 #@! TF.ProjectId,stm32-io-extend,73746d33-322d-4696-9f2d-657874656e64,rev?*
G04 #@! TF.SameCoordinates,Original*
G04 #@! TF.FileFunction,Legend,Top*
G04 #@! TF.FilePolarity,Positive*
%FSLAX46Y46*%
G04 Gerber Fmt 4.6, Leading zero omitted, Abs format (unit mm)*
G04 Created by KiCad (PCBNEW 5.1.8+dfsg1-1~bpo10+1) date 2020-11-28 00:35:18*
%MOMM*%
%LPD*%
G01*
G04 APERTURE LIST*
%ADD10C,0.120000*%
%ADD11C,0.100000*%
%ADD12C,0.150000*%
G04 APERTURE END LIST*
D10*
G04 #@! TO.C,C6*
X89609420Y-57890000D02*
X89890580Y-57890000D01*
X89609420Y-58910000D02*
X89890580Y-58910000D01*
G04 #@! TO.C,C10*
X89915580Y-67660000D02*
X89634420Y-67660000D01*
X89915580Y-66640000D02*
X89634420Y-66640000D01*
G04 #@! TO.C,C12*
X89965580Y-64865000D02*
X89684420Y-64865000D01*
X89965580Y-65885000D02*
X89684420Y-65885000D01*
G04 #@! TO.C,D1*
X99900000Y-57750000D02*
X99900000Y-59450000D01*
X99900000Y-59450000D02*
X102450000Y-59450000D01*
X99900000Y-57750000D02*
X102450000Y-57750000D01*
D11*
G04 #@! TO.C,D2*
X95490000Y-59400000D02*
G75*
G03*
X95490000Y-59400000I-50000J0D01*
G01*
D10*
G04 #@! TO.C,F1*
X97241422Y-57890000D02*
X97758578Y-57890000D01*
X97241422Y-59310000D02*
X97758578Y-59310000D01*
G04 #@! TO.C,J1*
X112840000Y-58630000D02*
X112840000Y-67570000D01*
X107330000Y-58630000D02*
X109130000Y-58630000D01*
X112840000Y-58630000D02*
X111380000Y-58630000D01*
X112840000Y-67570000D02*
X111380000Y-67570000D01*
X107330000Y-67570000D02*
X109130000Y-67570000D01*
G04 #@! TO.C,J2*
X107330000Y-79470000D02*
X109130000Y-79470000D01*
X112840000Y-79470000D02*
X111380000Y-79470000D01*
X112840000Y-70530000D02*
X111380000Y-70530000D01*
X107330000Y-70530000D02*
X109130000Y-70530000D01*
X112840000Y-70530000D02*
X112840000Y-79470000D01*
G04 #@! TO.C,J3*
X79830000Y-57970000D02*
X82430000Y-57970000D01*
X79830000Y-57970000D02*
X79830000Y-98730000D01*
X79830000Y-98730000D02*
X85030000Y-98730000D01*
X85030000Y-60570000D02*
X85030000Y-98730000D01*
X82430000Y-60570000D02*
X85030000Y-60570000D01*
X82430000Y-57970000D02*
X82430000Y-60570000D01*
X85030000Y-57970000D02*
X85030000Y-59300000D01*
X83700000Y-57970000D02*
X85030000Y-57970000D01*
G04 #@! TO.C,SW1*
X89900000Y-92190000D02*
X96721000Y-92190000D01*
X89900000Y-98950000D02*
X96721000Y-98950000D01*
X89900000Y-92190000D02*
X89900000Y-93260000D01*
X89900000Y-95340000D02*
X89900000Y-95851000D01*
X89900000Y-97830000D02*
X89900000Y-98950000D01*
X96721000Y-97830000D02*
X96721000Y-98950000D01*
X96721000Y-92190000D02*
X96721000Y-93310000D01*
X96721000Y-95290000D02*
X96721000Y-95851000D01*
X89660000Y-91950000D02*
X91043000Y-91950000D01*
X89660000Y-91950000D02*
X89660000Y-93260000D01*
X91500000Y-93665000D02*
X91500000Y-94935000D01*
X91500000Y-94935000D02*
X95120000Y-94935000D01*
X95120000Y-94935000D02*
X95120000Y-93665000D01*
X95120000Y-93665000D02*
X91500000Y-93665000D01*
X91500000Y-93785000D02*
X92706667Y-93785000D01*
X91500000Y-93905000D02*
X92706667Y-93905000D01*
X91500000Y-94025000D02*
X92706667Y-94025000D01*
X91500000Y-94145000D02*
X92706667Y-94145000D01*
X91500000Y-94265000D02*
X92706667Y-94265000D01*
X91500000Y-94385000D02*
X92706667Y-94385000D01*
X91500000Y-94505000D02*
X92706667Y-94505000D01*
X91500000Y-94625000D02*
X92706667Y-94625000D01*
X91500000Y-94745000D02*
X92706667Y-94745000D01*
X91500000Y-94865000D02*
X92706667Y-94865000D01*
X92706667Y-93665000D02*
X92706667Y-94935000D01*
X91500000Y-96205000D02*
X91500000Y-97475000D01*
X91500000Y-97475000D02*
X95120000Y-97475000D01*
X95120000Y-97475000D02*
X95120000Y-96205000D01*
X95120000Y-96205000D02*
X91500000Y-96205000D01*
X91500000Y-96325000D02*
X92706667Y-96325000D01*
X91500000Y-96445000D02*
X92706667Y-96445000D01*
X91500000Y-96565000D02*
X92706667Y-96565000D01*
X91500000Y-96685000D02*
X92706667Y-96685000D01*
X91500000Y-96805000D02*
X92706667Y-96805000D01*
X91500000Y-96925000D02*
X92706667Y-96925000D01*
X91500000Y-97045000D02*
X92706667Y-97045000D01*
X91500000Y-97165000D02*
X92706667Y-97165000D01*
X91500000Y-97285000D02*
X92706667Y-97285000D01*
X91500000Y-97405000D02*
X92706667Y-97405000D01*
X92706667Y-96205000D02*
X92706667Y-97475000D01*
G04 #@! TO.C,SW2*
X106100000Y-98650000D02*
X110600000Y-98650000D01*
X104850000Y-94650000D02*
X104850000Y-96150000D01*
X110600000Y-92150000D02*
X106100000Y-92150000D01*
X111850000Y-96150000D02*
X111850000Y-94650000D01*
G04 #@! TO.C,U1*
X87065000Y-60775000D02*
X87065000Y-59465000D01*
X87065000Y-59465000D02*
X89785000Y-59465000D01*
X90925000Y-63955000D02*
X89785000Y-63955000D01*
X87065000Y-64185000D02*
X87065000Y-62875000D01*
X89785000Y-64185000D02*
X87065000Y-64185000D01*
X89785000Y-64185000D02*
X89785000Y-63955000D01*
X89785000Y-59465000D02*
X89785000Y-59695000D01*
G04 #@! TO.C,U2*
X97125000Y-61915000D02*
X95175000Y-61915000D01*
X97125000Y-61915000D02*
X99075000Y-61915000D01*
X97125000Y-67035000D02*
X95175000Y-67035000D01*
X97125000Y-67035000D02*
X100575000Y-67035000D01*
G04 #@! TO.C,U3*
X97060000Y-72415000D02*
X97060000Y-71965000D01*
X97060000Y-71965000D02*
X96610000Y-71965000D01*
X97060000Y-78735000D02*
X97060000Y-79185000D01*
X97060000Y-79185000D02*
X96610000Y-79185000D01*
X89840000Y-72415000D02*
X89840000Y-71965000D01*
X89840000Y-71965000D02*
X90290000Y-71965000D01*
X89840000Y-78735000D02*
X89840000Y-79185000D01*
X89840000Y-79185000D02*
X90290000Y-79185000D01*
X90290000Y-79185000D02*
X90290000Y-80475000D01*
G04 #@! TO.C,Y1*
X90615000Y-84275000D02*
X96865000Y-84275000D01*
X90615000Y-89325000D02*
X96865000Y-89325000D01*
X90615000Y-89325000D02*
G75*
G02*
X90615000Y-84275000I0J2525000D01*
G01*
X96865000Y-89325000D02*
G75*
G03*
X96865000Y-84275000I0J2525000D01*
G01*
G04 #@! TO.C,C1*
D12*
X88658333Y-81457142D02*
X88610714Y-81504761D01*
X88467857Y-81552380D01*
X88372619Y-81552380D01*
X88229761Y-81504761D01*
X88134523Y-81409523D01*
X88086904Y-81314285D01*
X88039285Y-81123809D01*
X88039285Y-80980952D01*
X88086904Y-80790476D01*
X88134523Y-80695238D01*
X88229761Y-80600000D01*
X88372619Y-80552380D01*
X88467857Y-80552380D01*
X88610714Y-80600000D01*
X88658333Y-80647619D01*
X89610714Y-81552380D02*
X89039285Y-81552380D01*
X89325000Y-81552380D02*
X89325000Y-80552380D01*
X89229761Y-80695238D01*
X89134523Y-80790476D01*
X89039285Y-80838095D01*
G04 #@! TO.C,C2*
X96183333Y-82007142D02*
X96135714Y-82054761D01*
X95992857Y-82102380D01*
X95897619Y-82102380D01*
X95754761Y-82054761D01*
X95659523Y-81959523D01*
X95611904Y-81864285D01*
X95564285Y-81673809D01*
X95564285Y-81530952D01*
X95611904Y-81340476D01*
X95659523Y-81245238D01*
X95754761Y-81150000D01*
X95897619Y-81102380D01*
X95992857Y-81102380D01*
X96135714Y-81150000D01*
X96183333Y-81197619D01*
X96564285Y-81197619D02*
X96611904Y-81150000D01*
X96707142Y-81102380D01*
X96945238Y-81102380D01*
X97040476Y-81150000D01*
X97088095Y-81197619D01*
X97135714Y-81292857D01*
X97135714Y-81388095D01*
X97088095Y-81530952D01*
X96516666Y-82102380D01*
X97135714Y-82102380D01*
G04 #@! TO.C,C3*
X86858333Y-77282142D02*
X86810714Y-77329761D01*
X86667857Y-77377380D01*
X86572619Y-77377380D01*
X86429761Y-77329761D01*
X86334523Y-77234523D01*
X86286904Y-77139285D01*
X86239285Y-76948809D01*
X86239285Y-76805952D01*
X86286904Y-76615476D01*
X86334523Y-76520238D01*
X86429761Y-76425000D01*
X86572619Y-76377380D01*
X86667857Y-76377380D01*
X86810714Y-76425000D01*
X86858333Y-76472619D01*
X87191666Y-76377380D02*
X87810714Y-76377380D01*
X87477380Y-76758333D01*
X87620238Y-76758333D01*
X87715476Y-76805952D01*
X87763095Y-76853571D01*
X87810714Y-76948809D01*
X87810714Y-77186904D01*
X87763095Y-77282142D01*
X87715476Y-77329761D01*
X87620238Y-77377380D01*
X87334523Y-77377380D01*
X87239285Y-77329761D01*
X87191666Y-77282142D01*
G04 #@! TO.C,C4*
X92058333Y-62057142D02*
X92010714Y-62104761D01*
X91867857Y-62152380D01*
X91772619Y-62152380D01*
X91629761Y-62104761D01*
X91534523Y-62009523D01*
X91486904Y-61914285D01*
X91439285Y-61723809D01*
X91439285Y-61580952D01*
X91486904Y-61390476D01*
X91534523Y-61295238D01*
X91629761Y-61200000D01*
X91772619Y-61152380D01*
X91867857Y-61152380D01*
X92010714Y-61200000D01*
X92058333Y-61247619D01*
X92915476Y-61485714D02*
X92915476Y-62152380D01*
X92677380Y-61104761D02*
X92439285Y-61819047D01*
X93058333Y-61819047D01*
G04 #@! TO.C,C5*
X98608333Y-71932142D02*
X98560714Y-71979761D01*
X98417857Y-72027380D01*
X98322619Y-72027380D01*
X98179761Y-71979761D01*
X98084523Y-71884523D01*
X98036904Y-71789285D01*
X97989285Y-71598809D01*
X97989285Y-71455952D01*
X98036904Y-71265476D01*
X98084523Y-71170238D01*
X98179761Y-71075000D01*
X98322619Y-71027380D01*
X98417857Y-71027380D01*
X98560714Y-71075000D01*
X98608333Y-71122619D01*
X99513095Y-71027380D02*
X99036904Y-71027380D01*
X98989285Y-71503571D01*
X99036904Y-71455952D01*
X99132142Y-71408333D01*
X99370238Y-71408333D01*
X99465476Y-71455952D01*
X99513095Y-71503571D01*
X99560714Y-71598809D01*
X99560714Y-71836904D01*
X99513095Y-71932142D01*
X99465476Y-71979761D01*
X99370238Y-72027380D01*
X99132142Y-72027380D01*
X99036904Y-71979761D01*
X98989285Y-71932142D01*
G04 #@! TO.C,C6*
X89583333Y-57307142D02*
X89535714Y-57354761D01*
X89392857Y-57402380D01*
X89297619Y-57402380D01*
X89154761Y-57354761D01*
X89059523Y-57259523D01*
X89011904Y-57164285D01*
X88964285Y-56973809D01*
X88964285Y-56830952D01*
X89011904Y-56640476D01*
X89059523Y-56545238D01*
X89154761Y-56450000D01*
X89297619Y-56402380D01*
X89392857Y-56402380D01*
X89535714Y-56450000D01*
X89583333Y-56497619D01*
X90440476Y-56402380D02*
X90250000Y-56402380D01*
X90154761Y-56450000D01*
X90107142Y-56497619D01*
X90011904Y-56640476D01*
X89964285Y-56830952D01*
X89964285Y-57211904D01*
X90011904Y-57307142D01*
X90059523Y-57354761D01*
X90154761Y-57402380D01*
X90345238Y-57402380D01*
X90440476Y-57354761D01*
X90488095Y-57307142D01*
X90535714Y-57211904D01*
X90535714Y-56973809D01*
X90488095Y-56878571D01*
X90440476Y-56830952D01*
X90345238Y-56783333D01*
X90154761Y-56783333D01*
X90059523Y-56830952D01*
X90011904Y-56878571D01*
X89964285Y-56973809D01*
G04 #@! TO.C,C7*
X88033333Y-70032142D02*
X87985714Y-70079761D01*
X87842857Y-70127380D01*
X87747619Y-70127380D01*
X87604761Y-70079761D01*
X87509523Y-69984523D01*
X87461904Y-69889285D01*
X87414285Y-69698809D01*
X87414285Y-69555952D01*
X87461904Y-69365476D01*
X87509523Y-69270238D01*
X87604761Y-69175000D01*
X87747619Y-69127380D01*
X87842857Y-69127380D01*
X87985714Y-69175000D01*
X88033333Y-69222619D01*
X88366666Y-69127380D02*
X89033333Y-69127380D01*
X88604761Y-70127380D01*
G04 #@! TO.C,C8*
X92058333Y-58857142D02*
X92010714Y-58904761D01*
X91867857Y-58952380D01*
X91772619Y-58952380D01*
X91629761Y-58904761D01*
X91534523Y-58809523D01*
X91486904Y-58714285D01*
X91439285Y-58523809D01*
X91439285Y-58380952D01*
X91486904Y-58190476D01*
X91534523Y-58095238D01*
X91629761Y-58000000D01*
X91772619Y-57952380D01*
X91867857Y-57952380D01*
X92010714Y-58000000D01*
X92058333Y-58047619D01*
X92629761Y-58380952D02*
X92534523Y-58333333D01*
X92486904Y-58285714D01*
X92439285Y-58190476D01*
X92439285Y-58142857D01*
X92486904Y-58047619D01*
X92534523Y-58000000D01*
X92629761Y-57952380D01*
X92820238Y-57952380D01*
X92915476Y-58000000D01*
X92963095Y-58047619D01*
X93010714Y-58142857D01*
X93010714Y-58190476D01*
X92963095Y-58285714D01*
X92915476Y-58333333D01*
X92820238Y-58380952D01*
X92629761Y-58380952D01*
X92534523Y-58428571D01*
X92486904Y-58476190D01*
X92439285Y-58571428D01*
X92439285Y-58761904D01*
X92486904Y-58857142D01*
X92534523Y-58904761D01*
X92629761Y-58952380D01*
X92820238Y-58952380D01*
X92915476Y-58904761D01*
X92963095Y-58857142D01*
X93010714Y-58761904D01*
X93010714Y-58571428D01*
X92963095Y-58476190D01*
X92915476Y-58428571D01*
X92820238Y-58380952D01*
G04 #@! TO.C,C9*
X92208333Y-65757142D02*
X92160714Y-65804761D01*
X92017857Y-65852380D01*
X91922619Y-65852380D01*
X91779761Y-65804761D01*
X91684523Y-65709523D01*
X91636904Y-65614285D01*
X91589285Y-65423809D01*
X91589285Y-65280952D01*
X91636904Y-65090476D01*
X91684523Y-64995238D01*
X91779761Y-64900000D01*
X91922619Y-64852380D01*
X92017857Y-64852380D01*
X92160714Y-64900000D01*
X92208333Y-64947619D01*
X92684523Y-65852380D02*
X92875000Y-65852380D01*
X92970238Y-65804761D01*
X93017857Y-65757142D01*
X93113095Y-65614285D01*
X93160714Y-65423809D01*
X93160714Y-65042857D01*
X93113095Y-64947619D01*
X93065476Y-64900000D01*
X92970238Y-64852380D01*
X92779761Y-64852380D01*
X92684523Y-64900000D01*
X92636904Y-64947619D01*
X92589285Y-65042857D01*
X92589285Y-65280952D01*
X92636904Y-65376190D01*
X92684523Y-65423809D01*
X92779761Y-65471428D01*
X92970238Y-65471428D01*
X93065476Y-65423809D01*
X93113095Y-65376190D01*
X93160714Y-65280952D01*
G04 #@! TO.C,C10*
X86232142Y-67507142D02*
X86184523Y-67554761D01*
X86041666Y-67602380D01*
X85946428Y-67602380D01*
X85803571Y-67554761D01*
X85708333Y-67459523D01*
X85660714Y-67364285D01*
X85613095Y-67173809D01*
X85613095Y-67030952D01*
X85660714Y-66840476D01*
X85708333Y-66745238D01*
X85803571Y-66650000D01*
X85946428Y-66602380D01*
X86041666Y-66602380D01*
X86184523Y-66650000D01*
X86232142Y-66697619D01*
X87184523Y-67602380D02*
X86613095Y-67602380D01*
X86898809Y-67602380D02*
X86898809Y-66602380D01*
X86803571Y-66745238D01*
X86708333Y-66840476D01*
X86613095Y-66888095D01*
X87803571Y-66602380D02*
X87898809Y-66602380D01*
X87994047Y-66650000D01*
X88041666Y-66697619D01*
X88089285Y-66792857D01*
X88136904Y-66983333D01*
X88136904Y-67221428D01*
X88089285Y-67411904D01*
X88041666Y-67507142D01*
X87994047Y-67554761D01*
X87898809Y-67602380D01*
X87803571Y-67602380D01*
X87708333Y-67554761D01*
X87660714Y-67507142D01*
X87613095Y-67411904D01*
X87565476Y-67221428D01*
X87565476Y-66983333D01*
X87613095Y-66792857D01*
X87660714Y-66697619D01*
X87708333Y-66650000D01*
X87803571Y-66602380D01*
G04 #@! TO.C,C11*
X101537142Y-95907142D02*
X101489523Y-95954761D01*
X101346666Y-96002380D01*
X101251428Y-96002380D01*
X101108571Y-95954761D01*
X101013333Y-95859523D01*
X100965714Y-95764285D01*
X100918095Y-95573809D01*
X100918095Y-95430952D01*
X100965714Y-95240476D01*
X101013333Y-95145238D01*
X101108571Y-95050000D01*
X101251428Y-95002380D01*
X101346666Y-95002380D01*
X101489523Y-95050000D01*
X101537142Y-95097619D01*
X102489523Y-96002380D02*
X101918095Y-96002380D01*
X102203809Y-96002380D02*
X102203809Y-95002380D01*
X102108571Y-95145238D01*
X102013333Y-95240476D01*
X101918095Y-95288095D01*
X103441904Y-96002380D02*
X102870476Y-96002380D01*
X103156190Y-96002380D02*
X103156190Y-95002380D01*
X103060952Y-95145238D01*
X102965714Y-95240476D01*
X102870476Y-95288095D01*
G04 #@! TO.C,C12*
X86282142Y-65732142D02*
X86234523Y-65779761D01*
X86091666Y-65827380D01*
X85996428Y-65827380D01*
X85853571Y-65779761D01*
X85758333Y-65684523D01*
X85710714Y-65589285D01*
X85663095Y-65398809D01*
X85663095Y-65255952D01*
X85710714Y-65065476D01*
X85758333Y-64970238D01*
X85853571Y-64875000D01*
X85996428Y-64827380D01*
X86091666Y-64827380D01*
X86234523Y-64875000D01*
X86282142Y-64922619D01*
X87234523Y-65827380D02*
X86663095Y-65827380D01*
X86948809Y-65827380D02*
X86948809Y-64827380D01*
X86853571Y-64970238D01*
X86758333Y-65065476D01*
X86663095Y-65113095D01*
X87615476Y-64922619D02*
X87663095Y-64875000D01*
X87758333Y-64827380D01*
X87996428Y-64827380D01*
X88091666Y-64875000D01*
X88139285Y-64922619D01*
X88186904Y-65017857D01*
X88186904Y-65113095D01*
X88139285Y-65255952D01*
X87567857Y-65827380D01*
X88186904Y-65827380D01*
G04 #@! TO.C,C13*
X88157142Y-83557142D02*
X88109523Y-83604761D01*
X87966666Y-83652380D01*
X87871428Y-83652380D01*
X87728571Y-83604761D01*
X87633333Y-83509523D01*
X87585714Y-83414285D01*
X87538095Y-83223809D01*
X87538095Y-83080952D01*
X87585714Y-82890476D01*
X87633333Y-82795238D01*
X87728571Y-82700000D01*
X87871428Y-82652380D01*
X87966666Y-82652380D01*
X88109523Y-82700000D01*
X88157142Y-82747619D01*
X89109523Y-83652380D02*
X88538095Y-83652380D01*
X88823809Y-83652380D02*
X88823809Y-82652380D01*
X88728571Y-82795238D01*
X88633333Y-82890476D01*
X88538095Y-82938095D01*
X89442857Y-82652380D02*
X90061904Y-82652380D01*
X89728571Y-83033333D01*
X89871428Y-83033333D01*
X89966666Y-83080952D01*
X90014285Y-83128571D01*
X90061904Y-83223809D01*
X90061904Y-83461904D01*
X90014285Y-83557142D01*
X89966666Y-83604761D01*
X89871428Y-83652380D01*
X89585714Y-83652380D01*
X89490476Y-83604761D01*
X89442857Y-83557142D01*
G04 #@! TO.C,C14*
X97457142Y-83657142D02*
X97409523Y-83704761D01*
X97266666Y-83752380D01*
X97171428Y-83752380D01*
X97028571Y-83704761D01*
X96933333Y-83609523D01*
X96885714Y-83514285D01*
X96838095Y-83323809D01*
X96838095Y-83180952D01*
X96885714Y-82990476D01*
X96933333Y-82895238D01*
X97028571Y-82800000D01*
X97171428Y-82752380D01*
X97266666Y-82752380D01*
X97409523Y-82800000D01*
X97457142Y-82847619D01*
X98409523Y-83752380D02*
X97838095Y-83752380D01*
X98123809Y-83752380D02*
X98123809Y-82752380D01*
X98028571Y-82895238D01*
X97933333Y-82990476D01*
X97838095Y-83038095D01*
X99266666Y-83085714D02*
X99266666Y-83752380D01*
X99028571Y-82704761D02*
X98790476Y-83419047D01*
X99409523Y-83419047D01*
G04 #@! TO.C,D1*
X100661904Y-57402380D02*
X100661904Y-56402380D01*
X100900000Y-56402380D01*
X101042857Y-56450000D01*
X101138095Y-56545238D01*
X101185714Y-56640476D01*
X101233333Y-56830952D01*
X101233333Y-56973809D01*
X101185714Y-57164285D01*
X101138095Y-57259523D01*
X101042857Y-57354761D01*
X100900000Y-57402380D01*
X100661904Y-57402380D01*
X102185714Y-57402380D02*
X101614285Y-57402380D01*
X101900000Y-57402380D02*
X101900000Y-56402380D01*
X101804761Y-56545238D01*
X101709523Y-56640476D01*
X101614285Y-56688095D01*
G04 #@! TO.C,D2*
X93841904Y-60902380D02*
X93841904Y-59902380D01*
X94080000Y-59902380D01*
X94222857Y-59950000D01*
X94318095Y-60045238D01*
X94365714Y-60140476D01*
X94413333Y-60330952D01*
X94413333Y-60473809D01*
X94365714Y-60664285D01*
X94318095Y-60759523D01*
X94222857Y-60854761D01*
X94080000Y-60902380D01*
X93841904Y-60902380D01*
X94794285Y-59997619D02*
X94841904Y-59950000D01*
X94937142Y-59902380D01*
X95175238Y-59902380D01*
X95270476Y-59950000D01*
X95318095Y-59997619D01*
X95365714Y-60092857D01*
X95365714Y-60188095D01*
X95318095Y-60330952D01*
X94746666Y-60902380D01*
X95365714Y-60902380D01*
G04 #@! TO.C,F1*
X97166666Y-56878571D02*
X96833333Y-56878571D01*
X96833333Y-57402380D02*
X96833333Y-56402380D01*
X97309523Y-56402380D01*
X98214285Y-57402380D02*
X97642857Y-57402380D01*
X97928571Y-57402380D02*
X97928571Y-56402380D01*
X97833333Y-56545238D01*
X97738095Y-56640476D01*
X97642857Y-56688095D01*
G04 #@! TO.C,J1*
X104866666Y-56402380D02*
X104866666Y-57116666D01*
X104819047Y-57259523D01*
X104723809Y-57354761D01*
X104580952Y-57402380D01*
X104485714Y-57402380D01*
X105866666Y-57402380D02*
X105295238Y-57402380D01*
X105580952Y-57402380D02*
X105580952Y-56402380D01*
X105485714Y-56545238D01*
X105390476Y-56640476D01*
X105295238Y-56688095D01*
G04 #@! TO.C,J2*
X104866666Y-68552380D02*
X104866666Y-69266666D01*
X104819047Y-69409523D01*
X104723809Y-69504761D01*
X104580952Y-69552380D01*
X104485714Y-69552380D01*
X105295238Y-68647619D02*
X105342857Y-68600000D01*
X105438095Y-68552380D01*
X105676190Y-68552380D01*
X105771428Y-68600000D01*
X105819047Y-68647619D01*
X105866666Y-68742857D01*
X105866666Y-68838095D01*
X105819047Y-68980952D01*
X105247619Y-69552380D01*
X105866666Y-69552380D01*
G04 #@! TO.C,J3*
X82096666Y-56402380D02*
X82096666Y-57116666D01*
X82049047Y-57259523D01*
X81953809Y-57354761D01*
X81810952Y-57402380D01*
X81715714Y-57402380D01*
X82477619Y-56402380D02*
X83096666Y-56402380D01*
X82763333Y-56783333D01*
X82906190Y-56783333D01*
X83001428Y-56830952D01*
X83049047Y-56878571D01*
X83096666Y-56973809D01*
X83096666Y-57211904D01*
X83049047Y-57307142D01*
X83001428Y-57354761D01*
X82906190Y-57402380D01*
X82620476Y-57402380D01*
X82525238Y-57354761D01*
X82477619Y-57307142D01*
G04 #@! TO.C,R1*
X86883333Y-96252380D02*
X86550000Y-95776190D01*
X86311904Y-96252380D02*
X86311904Y-95252380D01*
X86692857Y-95252380D01*
X86788095Y-95300000D01*
X86835714Y-95347619D01*
X86883333Y-95442857D01*
X86883333Y-95585714D01*
X86835714Y-95680952D01*
X86788095Y-95728571D01*
X86692857Y-95776190D01*
X86311904Y-95776190D01*
X87835714Y-96252380D02*
X87264285Y-96252380D01*
X87550000Y-96252380D02*
X87550000Y-95252380D01*
X87454761Y-95395238D01*
X87359523Y-95490476D01*
X87264285Y-95538095D01*
G04 #@! TO.C,R2*
X86883333Y-93752380D02*
X86550000Y-93276190D01*
X86311904Y-93752380D02*
X86311904Y-92752380D01*
X86692857Y-92752380D01*
X86788095Y-92800000D01*
X86835714Y-92847619D01*
X86883333Y-92942857D01*
X86883333Y-93085714D01*
X86835714Y-93180952D01*
X86788095Y-93228571D01*
X86692857Y-93276190D01*
X86311904Y-93276190D01*
X87264285Y-92847619D02*
X87311904Y-92800000D01*
X87407142Y-92752380D01*
X87645238Y-92752380D01*
X87740476Y-92800000D01*
X87788095Y-92847619D01*
X87835714Y-92942857D01*
X87835714Y-93038095D01*
X87788095Y-93180952D01*
X87216666Y-93752380D01*
X87835714Y-93752380D01*
G04 #@! TO.C,R3*
X94433333Y-57552380D02*
X94100000Y-57076190D01*
X93861904Y-57552380D02*
X93861904Y-56552380D01*
X94242857Y-56552380D01*
X94338095Y-56600000D01*
X94385714Y-56647619D01*
X94433333Y-56742857D01*
X94433333Y-56885714D01*
X94385714Y-56980952D01*
X94338095Y-57028571D01*
X94242857Y-57076190D01*
X93861904Y-57076190D01*
X94766666Y-56552380D02*
X95385714Y-56552380D01*
X95052380Y-56933333D01*
X95195238Y-56933333D01*
X95290476Y-56980952D01*
X95338095Y-57028571D01*
X95385714Y-57123809D01*
X95385714Y-57361904D01*
X95338095Y-57457142D01*
X95290476Y-57504761D01*
X95195238Y-57552380D01*
X94909523Y-57552380D01*
X94814285Y-57504761D01*
X94766666Y-57457142D01*
G04 #@! TO.C,R4*
X103258333Y-66127380D02*
X102925000Y-65651190D01*
X102686904Y-66127380D02*
X102686904Y-65127380D01*
X103067857Y-65127380D01*
X103163095Y-65175000D01*
X103210714Y-65222619D01*
X103258333Y-65317857D01*
X103258333Y-65460714D01*
X103210714Y-65555952D01*
X103163095Y-65603571D01*
X103067857Y-65651190D01*
X102686904Y-65651190D01*
X104115476Y-65460714D02*
X104115476Y-66127380D01*
X103877380Y-65079761D02*
X103639285Y-65794047D01*
X104258333Y-65794047D01*
G04 #@! TO.C,R5*
X101558333Y-62602380D02*
X101225000Y-62126190D01*
X100986904Y-62602380D02*
X100986904Y-61602380D01*
X101367857Y-61602380D01*
X101463095Y-61650000D01*
X101510714Y-61697619D01*
X101558333Y-61792857D01*
X101558333Y-61935714D01*
X101510714Y-62030952D01*
X101463095Y-62078571D01*
X101367857Y-62126190D01*
X100986904Y-62126190D01*
X102463095Y-61602380D02*
X101986904Y-61602380D01*
X101939285Y-62078571D01*
X101986904Y-62030952D01*
X102082142Y-61983333D01*
X102320238Y-61983333D01*
X102415476Y-62030952D01*
X102463095Y-62078571D01*
X102510714Y-62173809D01*
X102510714Y-62411904D01*
X102463095Y-62507142D01*
X102415476Y-62554761D01*
X102320238Y-62602380D01*
X102082142Y-62602380D01*
X101986904Y-62554761D01*
X101939285Y-62507142D01*
G04 #@! TO.C,R6*
X101558333Y-64102380D02*
X101225000Y-63626190D01*
X100986904Y-64102380D02*
X100986904Y-63102380D01*
X101367857Y-63102380D01*
X101463095Y-63150000D01*
X101510714Y-63197619D01*
X101558333Y-63292857D01*
X101558333Y-63435714D01*
X101510714Y-63530952D01*
X101463095Y-63578571D01*
X101367857Y-63626190D01*
X100986904Y-63626190D01*
X102415476Y-63102380D02*
X102225000Y-63102380D01*
X102129761Y-63150000D01*
X102082142Y-63197619D01*
X101986904Y-63340476D01*
X101939285Y-63530952D01*
X101939285Y-63911904D01*
X101986904Y-64007142D01*
X102034523Y-64054761D01*
X102129761Y-64102380D01*
X102320238Y-64102380D01*
X102415476Y-64054761D01*
X102463095Y-64007142D01*
X102510714Y-63911904D01*
X102510714Y-63673809D01*
X102463095Y-63578571D01*
X102415476Y-63530952D01*
X102320238Y-63483333D01*
X102129761Y-63483333D01*
X102034523Y-63530952D01*
X101986904Y-63578571D01*
X101939285Y-63673809D01*
G04 #@! TO.C,R7*
X103233333Y-60752380D02*
X102900000Y-60276190D01*
X102661904Y-60752380D02*
X102661904Y-59752380D01*
X103042857Y-59752380D01*
X103138095Y-59800000D01*
X103185714Y-59847619D01*
X103233333Y-59942857D01*
X103233333Y-60085714D01*
X103185714Y-60180952D01*
X103138095Y-60228571D01*
X103042857Y-60276190D01*
X102661904Y-60276190D01*
X103566666Y-59752380D02*
X104233333Y-59752380D01*
X103804761Y-60752380D01*
G04 #@! TO.C,R8*
X99358333Y-96252380D02*
X99025000Y-95776190D01*
X98786904Y-96252380D02*
X98786904Y-95252380D01*
X99167857Y-95252380D01*
X99263095Y-95300000D01*
X99310714Y-95347619D01*
X99358333Y-95442857D01*
X99358333Y-95585714D01*
X99310714Y-95680952D01*
X99263095Y-95728571D01*
X99167857Y-95776190D01*
X98786904Y-95776190D01*
X99929761Y-95680952D02*
X99834523Y-95633333D01*
X99786904Y-95585714D01*
X99739285Y-95490476D01*
X99739285Y-95442857D01*
X99786904Y-95347619D01*
X99834523Y-95300000D01*
X99929761Y-95252380D01*
X100120238Y-95252380D01*
X100215476Y-95300000D01*
X100263095Y-95347619D01*
X100310714Y-95442857D01*
X100310714Y-95490476D01*
X100263095Y-95585714D01*
X100215476Y-95633333D01*
X100120238Y-95680952D01*
X99929761Y-95680952D01*
X99834523Y-95728571D01*
X99786904Y-95776190D01*
X99739285Y-95871428D01*
X99739285Y-96061904D01*
X99786904Y-96157142D01*
X99834523Y-96204761D01*
X99929761Y-96252380D01*
X100120238Y-96252380D01*
X100215476Y-96204761D01*
X100263095Y-96157142D01*
X100310714Y-96061904D01*
X100310714Y-95871428D01*
X100263095Y-95776190D01*
X100215476Y-95728571D01*
X100120238Y-95680952D01*
G04 #@! TO.C,R9*
X101963333Y-92552380D02*
X101630000Y-92076190D01*
X101391904Y-92552380D02*
X101391904Y-91552380D01*
X101772857Y-91552380D01*
X101868095Y-91600000D01*
X101915714Y-91647619D01*
X101963333Y-91742857D01*
X101963333Y-91885714D01*
X101915714Y-91980952D01*
X101868095Y-92028571D01*
X101772857Y-92076190D01*
X101391904Y-92076190D01*
X102439523Y-92552380D02*
X102630000Y-92552380D01*
X102725238Y-92504761D01*
X102772857Y-92457142D01*
X102868095Y-92314285D01*
X102915714Y-92123809D01*
X102915714Y-91742857D01*
X102868095Y-91647619D01*
X102820476Y-91600000D01*
X102725238Y-91552380D01*
X102534761Y-91552380D01*
X102439523Y-91600000D01*
X102391904Y-91647619D01*
X102344285Y-91742857D01*
X102344285Y-91980952D01*
X102391904Y-92076190D01*
X102439523Y-92123809D01*
X102534761Y-92171428D01*
X102725238Y-92171428D01*
X102820476Y-92123809D01*
X102868095Y-92076190D01*
X102915714Y-91980952D01*
G04 #@! TO.C,R10*
X99007142Y-93702380D02*
X98673809Y-93226190D01*
X98435714Y-93702380D02*
X98435714Y-92702380D01*
X98816666Y-92702380D01*
X98911904Y-92750000D01*
X98959523Y-92797619D01*
X99007142Y-92892857D01*
X99007142Y-93035714D01*
X98959523Y-93130952D01*
X98911904Y-93178571D01*
X98816666Y-93226190D01*
X98435714Y-93226190D01*
X99959523Y-93702380D02*
X99388095Y-93702380D01*
X99673809Y-93702380D02*
X99673809Y-92702380D01*
X99578571Y-92845238D01*
X99483333Y-92940476D01*
X99388095Y-92988095D01*
X100578571Y-92702380D02*
X100673809Y-92702380D01*
X100769047Y-92750000D01*
X100816666Y-92797619D01*
X100864285Y-92892857D01*
X100911904Y-93083333D01*
X100911904Y-93321428D01*
X100864285Y-93511904D01*
X100816666Y-93607142D01*
X100769047Y-93654761D01*
X100673809Y-93702380D01*
X100578571Y-93702380D01*
X100483333Y-93654761D01*
X100435714Y-93607142D01*
X100388095Y-93511904D01*
X100340476Y-93321428D01*
X100340476Y-93083333D01*
X100388095Y-92892857D01*
X100435714Y-92797619D01*
X100483333Y-92750000D01*
X100578571Y-92702380D01*
G04 #@! TO.C,R11*
X102332142Y-72677380D02*
X101998809Y-72201190D01*
X101760714Y-72677380D02*
X101760714Y-71677380D01*
X102141666Y-71677380D01*
X102236904Y-71725000D01*
X102284523Y-71772619D01*
X102332142Y-71867857D01*
X102332142Y-72010714D01*
X102284523Y-72105952D01*
X102236904Y-72153571D01*
X102141666Y-72201190D01*
X101760714Y-72201190D01*
X103284523Y-72677380D02*
X102713095Y-72677380D01*
X102998809Y-72677380D02*
X102998809Y-71677380D01*
X102903571Y-71820238D01*
X102808333Y-71915476D01*
X102713095Y-71963095D01*
X104236904Y-72677380D02*
X103665476Y-72677380D01*
X103951190Y-72677380D02*
X103951190Y-71677380D01*
X103855952Y-71820238D01*
X103760714Y-71915476D01*
X103665476Y-71963095D01*
G04 #@! TO.C,R12*
X100482142Y-75952380D02*
X100148809Y-75476190D01*
X99910714Y-75952380D02*
X99910714Y-74952380D01*
X100291666Y-74952380D01*
X100386904Y-75000000D01*
X100434523Y-75047619D01*
X100482142Y-75142857D01*
X100482142Y-75285714D01*
X100434523Y-75380952D01*
X100386904Y-75428571D01*
X100291666Y-75476190D01*
X99910714Y-75476190D01*
X101434523Y-75952380D02*
X100863095Y-75952380D01*
X101148809Y-75952380D02*
X101148809Y-74952380D01*
X101053571Y-75095238D01*
X100958333Y-75190476D01*
X100863095Y-75238095D01*
X101815476Y-75047619D02*
X101863095Y-75000000D01*
X101958333Y-74952380D01*
X102196428Y-74952380D01*
X102291666Y-75000000D01*
X102339285Y-75047619D01*
X102386904Y-75142857D01*
X102386904Y-75238095D01*
X102339285Y-75380952D01*
X101767857Y-75952380D01*
X102386904Y-75952380D01*
G04 #@! TO.C,R13*
X93032142Y-70127380D02*
X92698809Y-69651190D01*
X92460714Y-70127380D02*
X92460714Y-69127380D01*
X92841666Y-69127380D01*
X92936904Y-69175000D01*
X92984523Y-69222619D01*
X93032142Y-69317857D01*
X93032142Y-69460714D01*
X92984523Y-69555952D01*
X92936904Y-69603571D01*
X92841666Y-69651190D01*
X92460714Y-69651190D01*
X93984523Y-70127380D02*
X93413095Y-70127380D01*
X93698809Y-70127380D02*
X93698809Y-69127380D01*
X93603571Y-69270238D01*
X93508333Y-69365476D01*
X93413095Y-69413095D01*
X94317857Y-69127380D02*
X94936904Y-69127380D01*
X94603571Y-69508333D01*
X94746428Y-69508333D01*
X94841666Y-69555952D01*
X94889285Y-69603571D01*
X94936904Y-69698809D01*
X94936904Y-69936904D01*
X94889285Y-70032142D01*
X94841666Y-70079761D01*
X94746428Y-70127380D01*
X94460714Y-70127380D01*
X94365476Y-70079761D01*
X94317857Y-70032142D01*
G04 #@! TO.C,R14*
X102257142Y-77827380D02*
X101923809Y-77351190D01*
X101685714Y-77827380D02*
X101685714Y-76827380D01*
X102066666Y-76827380D01*
X102161904Y-76875000D01*
X102209523Y-76922619D01*
X102257142Y-77017857D01*
X102257142Y-77160714D01*
X102209523Y-77255952D01*
X102161904Y-77303571D01*
X102066666Y-77351190D01*
X101685714Y-77351190D01*
X103209523Y-77827380D02*
X102638095Y-77827380D01*
X102923809Y-77827380D02*
X102923809Y-76827380D01*
X102828571Y-76970238D01*
X102733333Y-77065476D01*
X102638095Y-77113095D01*
X104066666Y-77160714D02*
X104066666Y-77827380D01*
X103828571Y-76779761D02*
X103590476Y-77494047D01*
X104209523Y-77494047D01*
G04 #@! TO.C,R15*
X100482142Y-74577380D02*
X100148809Y-74101190D01*
X99910714Y-74577380D02*
X99910714Y-73577380D01*
X100291666Y-73577380D01*
X100386904Y-73625000D01*
X100434523Y-73672619D01*
X100482142Y-73767857D01*
X100482142Y-73910714D01*
X100434523Y-74005952D01*
X100386904Y-74053571D01*
X100291666Y-74101190D01*
X99910714Y-74101190D01*
X101434523Y-74577380D02*
X100863095Y-74577380D01*
X101148809Y-74577380D02*
X101148809Y-73577380D01*
X101053571Y-73720238D01*
X100958333Y-73815476D01*
X100863095Y-73863095D01*
X102339285Y-73577380D02*
X101863095Y-73577380D01*
X101815476Y-74053571D01*
X101863095Y-74005952D01*
X101958333Y-73958333D01*
X102196428Y-73958333D01*
X102291666Y-74005952D01*
X102339285Y-74053571D01*
X102386904Y-74148809D01*
X102386904Y-74386904D01*
X102339285Y-74482142D01*
X102291666Y-74529761D01*
X102196428Y-74577380D01*
X101958333Y-74577380D01*
X101863095Y-74529761D01*
X101815476Y-74482142D01*
G04 #@! TO.C,SW1*
X91916666Y-91554761D02*
X92059523Y-91602380D01*
X92297619Y-91602380D01*
X92392857Y-91554761D01*
X92440476Y-91507142D01*
X92488095Y-91411904D01*
X92488095Y-91316666D01*
X92440476Y-91221428D01*
X92392857Y-91173809D01*
X92297619Y-91126190D01*
X92107142Y-91078571D01*
X92011904Y-91030952D01*
X91964285Y-90983333D01*
X91916666Y-90888095D01*
X91916666Y-90792857D01*
X91964285Y-90697619D01*
X92011904Y-90650000D01*
X92107142Y-90602380D01*
X92345238Y-90602380D01*
X92488095Y-90650000D01*
X92821428Y-90602380D02*
X93059523Y-91602380D01*
X93250000Y-90888095D01*
X93440476Y-91602380D01*
X93678571Y-90602380D01*
X94583333Y-91602380D02*
X94011904Y-91602380D01*
X94297619Y-91602380D02*
X94297619Y-90602380D01*
X94202380Y-90745238D01*
X94107142Y-90840476D01*
X94011904Y-90888095D01*
G04 #@! TO.C,SW2*
X106941666Y-91279761D02*
X107084523Y-91327380D01*
X107322619Y-91327380D01*
X107417857Y-91279761D01*
X107465476Y-91232142D01*
X107513095Y-91136904D01*
X107513095Y-91041666D01*
X107465476Y-90946428D01*
X107417857Y-90898809D01*
X107322619Y-90851190D01*
X107132142Y-90803571D01*
X107036904Y-90755952D01*
X106989285Y-90708333D01*
X106941666Y-90613095D01*
X106941666Y-90517857D01*
X106989285Y-90422619D01*
X107036904Y-90375000D01*
X107132142Y-90327380D01*
X107370238Y-90327380D01*
X107513095Y-90375000D01*
X107846428Y-90327380D02*
X108084523Y-91327380D01*
X108275000Y-90613095D01*
X108465476Y-91327380D01*
X108703571Y-90327380D01*
X109036904Y-90422619D02*
X109084523Y-90375000D01*
X109179761Y-90327380D01*
X109417857Y-90327380D01*
X109513095Y-90375000D01*
X109560714Y-90422619D01*
X109608333Y-90517857D01*
X109608333Y-90613095D01*
X109560714Y-90755952D01*
X108989285Y-91327380D01*
X109608333Y-91327380D01*
G04 #@! TO.C,U1*
X86338095Y-57927380D02*
X86338095Y-58736904D01*
X86385714Y-58832142D01*
X86433333Y-58879761D01*
X86528571Y-58927380D01*
X86719047Y-58927380D01*
X86814285Y-58879761D01*
X86861904Y-58832142D01*
X86909523Y-58736904D01*
X86909523Y-57927380D01*
X87909523Y-58927380D02*
X87338095Y-58927380D01*
X87623809Y-58927380D02*
X87623809Y-57927380D01*
X87528571Y-58070238D01*
X87433333Y-58165476D01*
X87338095Y-58213095D01*
G04 #@! TO.C,U2*
X99063095Y-60577380D02*
X99063095Y-61386904D01*
X99110714Y-61482142D01*
X99158333Y-61529761D01*
X99253571Y-61577380D01*
X99444047Y-61577380D01*
X99539285Y-61529761D01*
X99586904Y-61482142D01*
X99634523Y-61386904D01*
X99634523Y-60577380D01*
X100063095Y-60672619D02*
X100110714Y-60625000D01*
X100205952Y-60577380D01*
X100444047Y-60577380D01*
X100539285Y-60625000D01*
X100586904Y-60672619D01*
X100634523Y-60767857D01*
X100634523Y-60863095D01*
X100586904Y-61005952D01*
X100015476Y-61577380D01*
X100634523Y-61577380D01*
G04 #@! TO.C,U3*
X86363095Y-72502380D02*
X86363095Y-73311904D01*
X86410714Y-73407142D01*
X86458333Y-73454761D01*
X86553571Y-73502380D01*
X86744047Y-73502380D01*
X86839285Y-73454761D01*
X86886904Y-73407142D01*
X86934523Y-73311904D01*
X86934523Y-72502380D01*
X87315476Y-72502380D02*
X87934523Y-72502380D01*
X87601190Y-72883333D01*
X87744047Y-72883333D01*
X87839285Y-72930952D01*
X87886904Y-72978571D01*
X87934523Y-73073809D01*
X87934523Y-73311904D01*
X87886904Y-73407142D01*
X87839285Y-73454761D01*
X87744047Y-73502380D01*
X87458333Y-73502380D01*
X87363095Y-73454761D01*
X87315476Y-73407142D01*
G04 #@! TO.C,Y1*
X86623809Y-86876190D02*
X86623809Y-87352380D01*
X86290476Y-86352380D02*
X86623809Y-86876190D01*
X86957142Y-86352380D01*
X87814285Y-87352380D02*
X87242857Y-87352380D01*
X87528571Y-87352380D02*
X87528571Y-86352380D01*
X87433333Y-86495238D01*
X87338095Y-86590476D01*
X87242857Y-86638095D01*
G04 #@! TD*
M02*
