%TF.GenerationSoftware,KiCad,Pcbnew,5.1.7+dfsg1-1~bpo10+1*%
%TF.CreationDate,2020-10-25T19:55:51+08:00*%
%TF.ProjectId,stm32-io-extend,73746d33-322d-4696-9f2d-657874656e64,rev?*%
%TF.SameCoordinates,Original*%
%TF.FileFunction,Paste,Top*%
%TF.FilePolarity,Positive*%
%FSLAX46Y46*%
G04 Gerber Fmt 4.6, Leading zero omitted, Abs format (unit mm)*
G04 Created by KiCad (PCBNEW 5.1.7+dfsg1-1~bpo10+1) date 2020-10-25 19:55:51*
%MOMM*%
%LPD*%
G01*
G04 APERTURE LIST*
%ADD10R,1.160000X0.300000*%
%ADD11R,1.160000X0.600000*%
%ADD12R,2.000000X3.800000*%
%ADD13R,2.000000X1.500000*%
G04 APERTURE END LIST*
%TO.C,C1*%
G36*
G01*
X149999500Y-67186000D02*
X150200500Y-67186000D01*
G75*
G02*
X150280000Y-67265500I0J-79500D01*
G01*
X150280000Y-67424500D01*
G75*
G02*
X150200500Y-67504000I-79500J0D01*
G01*
X149999500Y-67504000D01*
G75*
G02*
X149920000Y-67424500I0J79500D01*
G01*
X149920000Y-67265500D01*
G75*
G02*
X149999500Y-67186000I79500J0D01*
G01*
G37*
G36*
G01*
X149999500Y-66496000D02*
X150200500Y-66496000D01*
G75*
G02*
X150280000Y-66575500I0J-79500D01*
G01*
X150280000Y-66734500D01*
G75*
G02*
X150200500Y-66814000I-79500J0D01*
G01*
X149999500Y-66814000D01*
G75*
G02*
X149920000Y-66734500I0J79500D01*
G01*
X149920000Y-66575500D01*
G75*
G02*
X149999500Y-66496000I79500J0D01*
G01*
G37*
%TD*%
%TO.C,C2*%
G36*
G01*
X146600500Y-89504000D02*
X146399500Y-89504000D01*
G75*
G02*
X146320000Y-89424500I0J79500D01*
G01*
X146320000Y-89265500D01*
G75*
G02*
X146399500Y-89186000I79500J0D01*
G01*
X146600500Y-89186000D01*
G75*
G02*
X146680000Y-89265500I0J-79500D01*
G01*
X146680000Y-89424500D01*
G75*
G02*
X146600500Y-89504000I-79500J0D01*
G01*
G37*
G36*
G01*
X146600500Y-88814000D02*
X146399500Y-88814000D01*
G75*
G02*
X146320000Y-88734500I0J79500D01*
G01*
X146320000Y-88575500D01*
G75*
G02*
X146399500Y-88496000I79500J0D01*
G01*
X146600500Y-88496000D01*
G75*
G02*
X146680000Y-88575500I0J-79500D01*
G01*
X146680000Y-88734500D01*
G75*
G02*
X146600500Y-88814000I-79500J0D01*
G01*
G37*
%TD*%
%TO.C,C3*%
G36*
G01*
X146600500Y-93014000D02*
X146399500Y-93014000D01*
G75*
G02*
X146320000Y-92934500I0J79500D01*
G01*
X146320000Y-92775500D01*
G75*
G02*
X146399500Y-92696000I79500J0D01*
G01*
X146600500Y-92696000D01*
G75*
G02*
X146680000Y-92775500I0J-79500D01*
G01*
X146680000Y-92934500D01*
G75*
G02*
X146600500Y-93014000I-79500J0D01*
G01*
G37*
G36*
G01*
X146600500Y-93704000D02*
X146399500Y-93704000D01*
G75*
G02*
X146320000Y-93624500I0J79500D01*
G01*
X146320000Y-93465500D01*
G75*
G02*
X146399500Y-93386000I79500J0D01*
G01*
X146600500Y-93386000D01*
G75*
G02*
X146680000Y-93465500I0J-79500D01*
G01*
X146680000Y-93624500D01*
G75*
G02*
X146600500Y-93704000I-79500J0D01*
G01*
G37*
%TD*%
%TO.C,C4*%
G36*
G01*
X148450000Y-67825000D02*
X148950000Y-67825000D01*
G75*
G02*
X149175000Y-68050000I0J-225000D01*
G01*
X149175000Y-68500000D01*
G75*
G02*
X148950000Y-68725000I-225000J0D01*
G01*
X148450000Y-68725000D01*
G75*
G02*
X148225000Y-68500000I0J225000D01*
G01*
X148225000Y-68050000D01*
G75*
G02*
X148450000Y-67825000I225000J0D01*
G01*
G37*
G36*
G01*
X148450000Y-66275000D02*
X148950000Y-66275000D01*
G75*
G02*
X149175000Y-66500000I0J-225000D01*
G01*
X149175000Y-66950000D01*
G75*
G02*
X148950000Y-67175000I-225000J0D01*
G01*
X148450000Y-67175000D01*
G75*
G02*
X148225000Y-66950000I0J225000D01*
G01*
X148225000Y-66500000D01*
G75*
G02*
X148450000Y-66275000I225000J0D01*
G01*
G37*
%TD*%
%TO.C,C5*%
G36*
G01*
X154814000Y-97899500D02*
X154814000Y-98100500D01*
G75*
G02*
X154734500Y-98180000I-79500J0D01*
G01*
X154575500Y-98180000D01*
G75*
G02*
X154496000Y-98100500I0J79500D01*
G01*
X154496000Y-97899500D01*
G75*
G02*
X154575500Y-97820000I79500J0D01*
G01*
X154734500Y-97820000D01*
G75*
G02*
X154814000Y-97899500I0J-79500D01*
G01*
G37*
G36*
G01*
X155504000Y-97899500D02*
X155504000Y-98100500D01*
G75*
G02*
X155424500Y-98180000I-79500J0D01*
G01*
X155265500Y-98180000D01*
G75*
G02*
X155186000Y-98100500I0J79500D01*
G01*
X155186000Y-97899500D01*
G75*
G02*
X155265500Y-97820000I79500J0D01*
G01*
X155424500Y-97820000D01*
G75*
G02*
X155504000Y-97899500I0J-79500D01*
G01*
G37*
%TD*%
%TO.C,C6*%
G36*
G01*
X151999500Y-71996000D02*
X152200500Y-71996000D01*
G75*
G02*
X152280000Y-72075500I0J-79500D01*
G01*
X152280000Y-72234500D01*
G75*
G02*
X152200500Y-72314000I-79500J0D01*
G01*
X151999500Y-72314000D01*
G75*
G02*
X151920000Y-72234500I0J79500D01*
G01*
X151920000Y-72075500D01*
G75*
G02*
X151999500Y-71996000I79500J0D01*
G01*
G37*
G36*
G01*
X151999500Y-72686000D02*
X152200500Y-72686000D01*
G75*
G02*
X152280000Y-72765500I0J-79500D01*
G01*
X152280000Y-72924500D01*
G75*
G02*
X152200500Y-73004000I-79500J0D01*
G01*
X151999500Y-73004000D01*
G75*
G02*
X151920000Y-72924500I0J79500D01*
G01*
X151920000Y-72765500D01*
G75*
G02*
X151999500Y-72686000I79500J0D01*
G01*
G37*
%TD*%
%TO.C,C7*%
G36*
G01*
X158199500Y-89096000D02*
X158400500Y-89096000D01*
G75*
G02*
X158480000Y-89175500I0J-79500D01*
G01*
X158480000Y-89334500D01*
G75*
G02*
X158400500Y-89414000I-79500J0D01*
G01*
X158199500Y-89414000D01*
G75*
G02*
X158120000Y-89334500I0J79500D01*
G01*
X158120000Y-89175500D01*
G75*
G02*
X158199500Y-89096000I79500J0D01*
G01*
G37*
G36*
G01*
X158199500Y-89786000D02*
X158400500Y-89786000D01*
G75*
G02*
X158480000Y-89865500I0J-79500D01*
G01*
X158480000Y-90024500D01*
G75*
G02*
X158400500Y-90104000I-79500J0D01*
G01*
X158199500Y-90104000D01*
G75*
G02*
X158120000Y-90024500I0J79500D01*
G01*
X158120000Y-89865500D01*
G75*
G02*
X158199500Y-89786000I79500J0D01*
G01*
G37*
%TD*%
%TO.C,C8*%
G36*
G01*
X149296000Y-86300500D02*
X149296000Y-86099500D01*
G75*
G02*
X149375500Y-86020000I79500J0D01*
G01*
X149534500Y-86020000D01*
G75*
G02*
X149614000Y-86099500I0J-79500D01*
G01*
X149614000Y-86300500D01*
G75*
G02*
X149534500Y-86380000I-79500J0D01*
G01*
X149375500Y-86380000D01*
G75*
G02*
X149296000Y-86300500I0J79500D01*
G01*
G37*
G36*
G01*
X149986000Y-86300500D02*
X149986000Y-86099500D01*
G75*
G02*
X150065500Y-86020000I79500J0D01*
G01*
X150224500Y-86020000D01*
G75*
G02*
X150304000Y-86099500I0J-79500D01*
G01*
X150304000Y-86300500D01*
G75*
G02*
X150224500Y-86380000I-79500J0D01*
G01*
X150065500Y-86380000D01*
G75*
G02*
X149986000Y-86300500I0J79500D01*
G01*
G37*
%TD*%
%TO.C,C9*%
G36*
G01*
X150296000Y-77100500D02*
X150296000Y-76899500D01*
G75*
G02*
X150375500Y-76820000I79500J0D01*
G01*
X150534500Y-76820000D01*
G75*
G02*
X150614000Y-76899500I0J-79500D01*
G01*
X150614000Y-77100500D01*
G75*
G02*
X150534500Y-77180000I-79500J0D01*
G01*
X150375500Y-77180000D01*
G75*
G02*
X150296000Y-77100500I0J79500D01*
G01*
G37*
G36*
G01*
X150986000Y-77100500D02*
X150986000Y-76899500D01*
G75*
G02*
X151065500Y-76820000I79500J0D01*
G01*
X151224500Y-76820000D01*
G75*
G02*
X151304000Y-76899500I0J-79500D01*
G01*
X151304000Y-77100500D01*
G75*
G02*
X151224500Y-77180000I-79500J0D01*
G01*
X151065500Y-77180000D01*
G75*
G02*
X150986000Y-77100500I0J79500D01*
G01*
G37*
%TD*%
%TO.C,C10*%
G36*
G01*
X148450000Y-70475000D02*
X148950000Y-70475000D01*
G75*
G02*
X149175000Y-70700000I0J-225000D01*
G01*
X149175000Y-71150000D01*
G75*
G02*
X148950000Y-71375000I-225000J0D01*
G01*
X148450000Y-71375000D01*
G75*
G02*
X148225000Y-71150000I0J225000D01*
G01*
X148225000Y-70700000D01*
G75*
G02*
X148450000Y-70475000I225000J0D01*
G01*
G37*
G36*
G01*
X148450000Y-72025000D02*
X148950000Y-72025000D01*
G75*
G02*
X149175000Y-72250000I0J-225000D01*
G01*
X149175000Y-72700000D01*
G75*
G02*
X148950000Y-72925000I-225000J0D01*
G01*
X148450000Y-72925000D01*
G75*
G02*
X148225000Y-72700000I0J225000D01*
G01*
X148225000Y-72250000D01*
G75*
G02*
X148450000Y-72025000I225000J0D01*
G01*
G37*
%TD*%
%TO.C,C11*%
G36*
G01*
X150350000Y-70475000D02*
X150850000Y-70475000D01*
G75*
G02*
X151075000Y-70700000I0J-225000D01*
G01*
X151075000Y-71150000D01*
G75*
G02*
X150850000Y-71375000I-225000J0D01*
G01*
X150350000Y-71375000D01*
G75*
G02*
X150125000Y-71150000I0J225000D01*
G01*
X150125000Y-70700000D01*
G75*
G02*
X150350000Y-70475000I225000J0D01*
G01*
G37*
G36*
G01*
X150350000Y-72025000D02*
X150850000Y-72025000D01*
G75*
G02*
X151075000Y-72250000I0J-225000D01*
G01*
X151075000Y-72700000D01*
G75*
G02*
X150850000Y-72925000I-225000J0D01*
G01*
X150350000Y-72925000D01*
G75*
G02*
X150125000Y-72700000I0J225000D01*
G01*
X150125000Y-72250000D01*
G75*
G02*
X150350000Y-72025000I225000J0D01*
G01*
G37*
%TD*%
%TO.C,C12*%
G36*
G01*
X164486000Y-99500500D02*
X164486000Y-99299500D01*
G75*
G02*
X164565500Y-99220000I79500J0D01*
G01*
X164724500Y-99220000D01*
G75*
G02*
X164804000Y-99299500I0J-79500D01*
G01*
X164804000Y-99500500D01*
G75*
G02*
X164724500Y-99580000I-79500J0D01*
G01*
X164565500Y-99580000D01*
G75*
G02*
X164486000Y-99500500I0J79500D01*
G01*
G37*
G36*
G01*
X163796000Y-99500500D02*
X163796000Y-99299500D01*
G75*
G02*
X163875500Y-99220000I79500J0D01*
G01*
X164034500Y-99220000D01*
G75*
G02*
X164114000Y-99299500I0J-79500D01*
G01*
X164114000Y-99500500D01*
G75*
G02*
X164034500Y-99580000I-79500J0D01*
G01*
X163875500Y-99580000D01*
G75*
G02*
X163796000Y-99500500I0J79500D01*
G01*
G37*
%TD*%
%TO.C,C13*%
G36*
G01*
X145299500Y-88496000D02*
X145500500Y-88496000D01*
G75*
G02*
X145580000Y-88575500I0J-79500D01*
G01*
X145580000Y-88734500D01*
G75*
G02*
X145500500Y-88814000I-79500J0D01*
G01*
X145299500Y-88814000D01*
G75*
G02*
X145220000Y-88734500I0J79500D01*
G01*
X145220000Y-88575500D01*
G75*
G02*
X145299500Y-88496000I79500J0D01*
G01*
G37*
G36*
G01*
X145299500Y-89186000D02*
X145500500Y-89186000D01*
G75*
G02*
X145580000Y-89265500I0J-79500D01*
G01*
X145580000Y-89424500D01*
G75*
G02*
X145500500Y-89504000I-79500J0D01*
G01*
X145299500Y-89504000D01*
G75*
G02*
X145220000Y-89424500I0J79500D01*
G01*
X145220000Y-89265500D01*
G75*
G02*
X145299500Y-89186000I79500J0D01*
G01*
G37*
%TD*%
%TO.C,C14*%
G36*
G01*
X145500500Y-93014000D02*
X145299500Y-93014000D01*
G75*
G02*
X145220000Y-92934500I0J79500D01*
G01*
X145220000Y-92775500D01*
G75*
G02*
X145299500Y-92696000I79500J0D01*
G01*
X145500500Y-92696000D01*
G75*
G02*
X145580000Y-92775500I0J-79500D01*
G01*
X145580000Y-92934500D01*
G75*
G02*
X145500500Y-93014000I-79500J0D01*
G01*
G37*
G36*
G01*
X145500500Y-93704000D02*
X145299500Y-93704000D01*
G75*
G02*
X145220000Y-93624500I0J79500D01*
G01*
X145220000Y-93465500D01*
G75*
G02*
X145299500Y-93386000I79500J0D01*
G01*
X145500500Y-93386000D01*
G75*
G02*
X145580000Y-93465500I0J-79500D01*
G01*
X145580000Y-93624500D01*
G75*
G02*
X145500500Y-93704000I-79500J0D01*
G01*
G37*
%TD*%
D10*
%TO.C,J1*%
X156990000Y-71750000D03*
X156990000Y-71250000D03*
X156990000Y-70750000D03*
X156990000Y-72750000D03*
X156990000Y-72250000D03*
X156990000Y-69750000D03*
X156990000Y-70250000D03*
X156990000Y-69250000D03*
D11*
X156990000Y-73400000D03*
X156990000Y-73400000D03*
X156990000Y-74200000D03*
X156990000Y-74200000D03*
X156990000Y-68600000D03*
X156990000Y-67800000D03*
X156990000Y-68600000D03*
X156990000Y-67800000D03*
%TD*%
%TO.C,J2*%
X156990000Y-79300000D03*
X156990000Y-80100000D03*
X156990000Y-79300000D03*
X156990000Y-80100000D03*
X156990000Y-85700000D03*
X156990000Y-85700000D03*
X156990000Y-84900000D03*
X156990000Y-84900000D03*
D10*
X156990000Y-80750000D03*
X156990000Y-81750000D03*
X156990000Y-81250000D03*
X156990000Y-83750000D03*
X156990000Y-84250000D03*
X156990000Y-82250000D03*
X156990000Y-82750000D03*
X156990000Y-83250000D03*
%TD*%
%TO.C,R1*%
G36*
G01*
X140186000Y-105400500D02*
X140186000Y-105199500D01*
G75*
G02*
X140265500Y-105120000I79500J0D01*
G01*
X140424500Y-105120000D01*
G75*
G02*
X140504000Y-105199500I0J-79500D01*
G01*
X140504000Y-105400500D01*
G75*
G02*
X140424500Y-105480000I-79500J0D01*
G01*
X140265500Y-105480000D01*
G75*
G02*
X140186000Y-105400500I0J79500D01*
G01*
G37*
G36*
G01*
X139496000Y-105400500D02*
X139496000Y-105199500D01*
G75*
G02*
X139575500Y-105120000I79500J0D01*
G01*
X139734500Y-105120000D01*
G75*
G02*
X139814000Y-105199500I0J-79500D01*
G01*
X139814000Y-105400500D01*
G75*
G02*
X139734500Y-105480000I-79500J0D01*
G01*
X139575500Y-105480000D01*
G75*
G02*
X139496000Y-105400500I0J79500D01*
G01*
G37*
%TD*%
%TO.C,R2*%
G36*
G01*
X140504000Y-102699500D02*
X140504000Y-102900500D01*
G75*
G02*
X140424500Y-102980000I-79500J0D01*
G01*
X140265500Y-102980000D01*
G75*
G02*
X140186000Y-102900500I0J79500D01*
G01*
X140186000Y-102699500D01*
G75*
G02*
X140265500Y-102620000I79500J0D01*
G01*
X140424500Y-102620000D01*
G75*
G02*
X140504000Y-102699500I0J-79500D01*
G01*
G37*
G36*
G01*
X139814000Y-102699500D02*
X139814000Y-102900500D01*
G75*
G02*
X139734500Y-102980000I-79500J0D01*
G01*
X139575500Y-102980000D01*
G75*
G02*
X139496000Y-102900500I0J79500D01*
G01*
X139496000Y-102699500D01*
G75*
G02*
X139575500Y-102620000I79500J0D01*
G01*
X139734500Y-102620000D01*
G75*
G02*
X139814000Y-102699500I0J-79500D01*
G01*
G37*
%TD*%
%TO.C,R3*%
G36*
G01*
X154966000Y-72300500D02*
X154966000Y-72099500D01*
G75*
G02*
X155045500Y-72020000I79500J0D01*
G01*
X155204500Y-72020000D01*
G75*
G02*
X155284000Y-72099500I0J-79500D01*
G01*
X155284000Y-72300500D01*
G75*
G02*
X155204500Y-72380000I-79500J0D01*
G01*
X155045500Y-72380000D01*
G75*
G02*
X154966000Y-72300500I0J79500D01*
G01*
G37*
G36*
G01*
X154276000Y-72300500D02*
X154276000Y-72099500D01*
G75*
G02*
X154355500Y-72020000I79500J0D01*
G01*
X154514500Y-72020000D01*
G75*
G02*
X154594000Y-72099500I0J-79500D01*
G01*
X154594000Y-72300500D01*
G75*
G02*
X154514500Y-72380000I-79500J0D01*
G01*
X154355500Y-72380000D01*
G75*
G02*
X154276000Y-72300500I0J79500D01*
G01*
G37*
%TD*%
%TO.C,R4*%
G36*
G01*
X141704000Y-76899500D02*
X141704000Y-77100500D01*
G75*
G02*
X141624500Y-77180000I-79500J0D01*
G01*
X141465500Y-77180000D01*
G75*
G02*
X141386000Y-77100500I0J79500D01*
G01*
X141386000Y-76899500D01*
G75*
G02*
X141465500Y-76820000I79500J0D01*
G01*
X141624500Y-76820000D01*
G75*
G02*
X141704000Y-76899500I0J-79500D01*
G01*
G37*
G36*
G01*
X141014000Y-76899500D02*
X141014000Y-77100500D01*
G75*
G02*
X140934500Y-77180000I-79500J0D01*
G01*
X140775500Y-77180000D01*
G75*
G02*
X140696000Y-77100500I0J79500D01*
G01*
X140696000Y-76899500D01*
G75*
G02*
X140775500Y-76820000I79500J0D01*
G01*
X140934500Y-76820000D01*
G75*
G02*
X141014000Y-76899500I0J-79500D01*
G01*
G37*
%TD*%
%TO.C,R5*%
G36*
G01*
X141014000Y-78199500D02*
X141014000Y-78400500D01*
G75*
G02*
X140934500Y-78480000I-79500J0D01*
G01*
X140775500Y-78480000D01*
G75*
G02*
X140696000Y-78400500I0J79500D01*
G01*
X140696000Y-78199500D01*
G75*
G02*
X140775500Y-78120000I79500J0D01*
G01*
X140934500Y-78120000D01*
G75*
G02*
X141014000Y-78199500I0J-79500D01*
G01*
G37*
G36*
G01*
X141704000Y-78199500D02*
X141704000Y-78400500D01*
G75*
G02*
X141624500Y-78480000I-79500J0D01*
G01*
X141465500Y-78480000D01*
G75*
G02*
X141386000Y-78400500I0J79500D01*
G01*
X141386000Y-78199500D01*
G75*
G02*
X141465500Y-78120000I79500J0D01*
G01*
X141624500Y-78120000D01*
G75*
G02*
X141704000Y-78199500I0J-79500D01*
G01*
G37*
%TD*%
%TO.C,R6*%
G36*
G01*
X162686000Y-99500500D02*
X162686000Y-99299500D01*
G75*
G02*
X162765500Y-99220000I79500J0D01*
G01*
X162924500Y-99220000D01*
G75*
G02*
X163004000Y-99299500I0J-79500D01*
G01*
X163004000Y-99500500D01*
G75*
G02*
X162924500Y-99580000I-79500J0D01*
G01*
X162765500Y-99580000D01*
G75*
G02*
X162686000Y-99500500I0J79500D01*
G01*
G37*
G36*
G01*
X161996000Y-99500500D02*
X161996000Y-99299500D01*
G75*
G02*
X162075500Y-99220000I79500J0D01*
G01*
X162234500Y-99220000D01*
G75*
G02*
X162314000Y-99299500I0J-79500D01*
G01*
X162314000Y-99500500D01*
G75*
G02*
X162234500Y-99580000I-79500J0D01*
G01*
X162075500Y-99580000D01*
G75*
G02*
X161996000Y-99500500I0J79500D01*
G01*
G37*
%TD*%
%TO.C,R7*%
G36*
G01*
X154296000Y-69400500D02*
X154296000Y-69199500D01*
G75*
G02*
X154375500Y-69120000I79500J0D01*
G01*
X154534500Y-69120000D01*
G75*
G02*
X154614000Y-69199500I0J-79500D01*
G01*
X154614000Y-69400500D01*
G75*
G02*
X154534500Y-69480000I-79500J0D01*
G01*
X154375500Y-69480000D01*
G75*
G02*
X154296000Y-69400500I0J79500D01*
G01*
G37*
G36*
G01*
X154986000Y-69400500D02*
X154986000Y-69199500D01*
G75*
G02*
X155065500Y-69120000I79500J0D01*
G01*
X155224500Y-69120000D01*
G75*
G02*
X155304000Y-69199500I0J-79500D01*
G01*
X155304000Y-69400500D01*
G75*
G02*
X155224500Y-69480000I-79500J0D01*
G01*
X155065500Y-69480000D01*
G75*
G02*
X154986000Y-69400500I0J79500D01*
G01*
G37*
%TD*%
%TO.C,R8*%
G36*
G01*
X151814000Y-105299500D02*
X151814000Y-105500500D01*
G75*
G02*
X151734500Y-105580000I-79500J0D01*
G01*
X151575500Y-105580000D01*
G75*
G02*
X151496000Y-105500500I0J79500D01*
G01*
X151496000Y-105299500D01*
G75*
G02*
X151575500Y-105220000I79500J0D01*
G01*
X151734500Y-105220000D01*
G75*
G02*
X151814000Y-105299500I0J-79500D01*
G01*
G37*
G36*
G01*
X152504000Y-105299500D02*
X152504000Y-105500500D01*
G75*
G02*
X152424500Y-105580000I-79500J0D01*
G01*
X152265500Y-105580000D01*
G75*
G02*
X152186000Y-105500500I0J79500D01*
G01*
X152186000Y-105299500D01*
G75*
G02*
X152265500Y-105220000I79500J0D01*
G01*
X152424500Y-105220000D01*
G75*
G02*
X152504000Y-105299500I0J-79500D01*
G01*
G37*
%TD*%
%TO.C,R9*%
G36*
G01*
X152504000Y-102699500D02*
X152504000Y-102900500D01*
G75*
G02*
X152424500Y-102980000I-79500J0D01*
G01*
X152265500Y-102980000D01*
G75*
G02*
X152186000Y-102900500I0J79500D01*
G01*
X152186000Y-102699500D01*
G75*
G02*
X152265500Y-102620000I79500J0D01*
G01*
X152424500Y-102620000D01*
G75*
G02*
X152504000Y-102699500I0J-79500D01*
G01*
G37*
G36*
G01*
X151814000Y-102699500D02*
X151814000Y-102900500D01*
G75*
G02*
X151734500Y-102980000I-79500J0D01*
G01*
X151575500Y-102980000D01*
G75*
G02*
X151496000Y-102900500I0J79500D01*
G01*
X151496000Y-102699500D01*
G75*
G02*
X151575500Y-102620000I79500J0D01*
G01*
X151734500Y-102620000D01*
G75*
G02*
X151814000Y-102699500I0J-79500D01*
G01*
G37*
%TD*%
%TO.C,R10*%
G36*
G01*
X154966000Y-80800500D02*
X154966000Y-80599500D01*
G75*
G02*
X155045500Y-80520000I79500J0D01*
G01*
X155204500Y-80520000D01*
G75*
G02*
X155284000Y-80599500I0J-79500D01*
G01*
X155284000Y-80800500D01*
G75*
G02*
X155204500Y-80880000I-79500J0D01*
G01*
X155045500Y-80880000D01*
G75*
G02*
X154966000Y-80800500I0J79500D01*
G01*
G37*
G36*
G01*
X154276000Y-80800500D02*
X154276000Y-80599500D01*
G75*
G02*
X154355500Y-80520000I79500J0D01*
G01*
X154514500Y-80520000D01*
G75*
G02*
X154594000Y-80599500I0J-79500D01*
G01*
X154594000Y-80800500D01*
G75*
G02*
X154514500Y-80880000I-79500J0D01*
G01*
X154355500Y-80880000D01*
G75*
G02*
X154276000Y-80800500I0J79500D01*
G01*
G37*
%TD*%
%TO.C,R11*%
G36*
G01*
X159500500Y-91149000D02*
X159299500Y-91149000D01*
G75*
G02*
X159220000Y-91069500I0J79500D01*
G01*
X159220000Y-90910500D01*
G75*
G02*
X159299500Y-90831000I79500J0D01*
G01*
X159500500Y-90831000D01*
G75*
G02*
X159580000Y-90910500I0J-79500D01*
G01*
X159580000Y-91069500D01*
G75*
G02*
X159500500Y-91149000I-79500J0D01*
G01*
G37*
G36*
G01*
X159500500Y-90459000D02*
X159299500Y-90459000D01*
G75*
G02*
X159220000Y-90379500I0J79500D01*
G01*
X159220000Y-90220500D01*
G75*
G02*
X159299500Y-90141000I79500J0D01*
G01*
X159500500Y-90141000D01*
G75*
G02*
X159580000Y-90220500I0J-79500D01*
G01*
X159580000Y-90379500D01*
G75*
G02*
X159500500Y-90459000I-79500J0D01*
G01*
G37*
%TD*%
%TO.C,R12*%
G36*
G01*
X161600500Y-91149000D02*
X161399500Y-91149000D01*
G75*
G02*
X161320000Y-91069500I0J79500D01*
G01*
X161320000Y-90910500D01*
G75*
G02*
X161399500Y-90831000I79500J0D01*
G01*
X161600500Y-90831000D01*
G75*
G02*
X161680000Y-90910500I0J-79500D01*
G01*
X161680000Y-91069500D01*
G75*
G02*
X161600500Y-91149000I-79500J0D01*
G01*
G37*
G36*
G01*
X161600500Y-90459000D02*
X161399500Y-90459000D01*
G75*
G02*
X161320000Y-90379500I0J79500D01*
G01*
X161320000Y-90220500D01*
G75*
G02*
X161399500Y-90141000I79500J0D01*
G01*
X161600500Y-90141000D01*
G75*
G02*
X161680000Y-90220500I0J-79500D01*
G01*
X161680000Y-90379500D01*
G75*
G02*
X161600500Y-90459000I-79500J0D01*
G01*
G37*
%TD*%
%TO.C,R13*%
G36*
G01*
X154296000Y-83800500D02*
X154296000Y-83599500D01*
G75*
G02*
X154375500Y-83520000I79500J0D01*
G01*
X154534500Y-83520000D01*
G75*
G02*
X154614000Y-83599500I0J-79500D01*
G01*
X154614000Y-83800500D01*
G75*
G02*
X154534500Y-83880000I-79500J0D01*
G01*
X154375500Y-83880000D01*
G75*
G02*
X154296000Y-83800500I0J79500D01*
G01*
G37*
G36*
G01*
X154986000Y-83800500D02*
X154986000Y-83599500D01*
G75*
G02*
X155065500Y-83520000I79500J0D01*
G01*
X155224500Y-83520000D01*
G75*
G02*
X155304000Y-83599500I0J-79500D01*
G01*
X155304000Y-83800500D01*
G75*
G02*
X155224500Y-83880000I-79500J0D01*
G01*
X155065500Y-83880000D01*
G75*
G02*
X154986000Y-83800500I0J79500D01*
G01*
G37*
%TD*%
%TO.C,R14*%
G36*
G01*
X160500500Y-90459000D02*
X160299500Y-90459000D01*
G75*
G02*
X160220000Y-90379500I0J79500D01*
G01*
X160220000Y-90220500D01*
G75*
G02*
X160299500Y-90141000I79500J0D01*
G01*
X160500500Y-90141000D01*
G75*
G02*
X160580000Y-90220500I0J-79500D01*
G01*
X160580000Y-90379500D01*
G75*
G02*
X160500500Y-90459000I-79500J0D01*
G01*
G37*
G36*
G01*
X160500500Y-91149000D02*
X160299500Y-91149000D01*
G75*
G02*
X160220000Y-91069500I0J79500D01*
G01*
X160220000Y-90910500D01*
G75*
G02*
X160299500Y-90831000I79500J0D01*
G01*
X160500500Y-90831000D01*
G75*
G02*
X160580000Y-90910500I0J-79500D01*
G01*
X160580000Y-91069500D01*
G75*
G02*
X160500500Y-91149000I-79500J0D01*
G01*
G37*
%TD*%
D12*
%TO.C,U1*%
X140050000Y-69600000D03*
D13*
X146350000Y-69600000D03*
X146350000Y-67300000D03*
X146350000Y-71900000D03*
%TD*%
%TO.C,U2*%
G36*
G01*
X142550000Y-77145000D02*
X142550000Y-76845000D01*
G75*
G02*
X142700000Y-76695000I150000J0D01*
G01*
X144350000Y-76695000D01*
G75*
G02*
X144500000Y-76845000I0J-150000D01*
G01*
X144500000Y-77145000D01*
G75*
G02*
X144350000Y-77295000I-150000J0D01*
G01*
X142700000Y-77295000D01*
G75*
G02*
X142550000Y-77145000I0J150000D01*
G01*
G37*
G36*
G01*
X142550000Y-78415000D02*
X142550000Y-78115000D01*
G75*
G02*
X142700000Y-77965000I150000J0D01*
G01*
X144350000Y-77965000D01*
G75*
G02*
X144500000Y-78115000I0J-150000D01*
G01*
X144500000Y-78415000D01*
G75*
G02*
X144350000Y-78565000I-150000J0D01*
G01*
X142700000Y-78565000D01*
G75*
G02*
X142550000Y-78415000I0J150000D01*
G01*
G37*
G36*
G01*
X142550000Y-79685000D02*
X142550000Y-79385000D01*
G75*
G02*
X142700000Y-79235000I150000J0D01*
G01*
X144350000Y-79235000D01*
G75*
G02*
X144500000Y-79385000I0J-150000D01*
G01*
X144500000Y-79685000D01*
G75*
G02*
X144350000Y-79835000I-150000J0D01*
G01*
X142700000Y-79835000D01*
G75*
G02*
X142550000Y-79685000I0J150000D01*
G01*
G37*
G36*
G01*
X142550000Y-80955000D02*
X142550000Y-80655000D01*
G75*
G02*
X142700000Y-80505000I150000J0D01*
G01*
X144350000Y-80505000D01*
G75*
G02*
X144500000Y-80655000I0J-150000D01*
G01*
X144500000Y-80955000D01*
G75*
G02*
X144350000Y-81105000I-150000J0D01*
G01*
X142700000Y-81105000D01*
G75*
G02*
X142550000Y-80955000I0J150000D01*
G01*
G37*
G36*
G01*
X147500000Y-80955000D02*
X147500000Y-80655000D01*
G75*
G02*
X147650000Y-80505000I150000J0D01*
G01*
X149300000Y-80505000D01*
G75*
G02*
X149450000Y-80655000I0J-150000D01*
G01*
X149450000Y-80955000D01*
G75*
G02*
X149300000Y-81105000I-150000J0D01*
G01*
X147650000Y-81105000D01*
G75*
G02*
X147500000Y-80955000I0J150000D01*
G01*
G37*
G36*
G01*
X147500000Y-79685000D02*
X147500000Y-79385000D01*
G75*
G02*
X147650000Y-79235000I150000J0D01*
G01*
X149300000Y-79235000D01*
G75*
G02*
X149450000Y-79385000I0J-150000D01*
G01*
X149450000Y-79685000D01*
G75*
G02*
X149300000Y-79835000I-150000J0D01*
G01*
X147650000Y-79835000D01*
G75*
G02*
X147500000Y-79685000I0J150000D01*
G01*
G37*
G36*
G01*
X147500000Y-78415000D02*
X147500000Y-78115000D01*
G75*
G02*
X147650000Y-77965000I150000J0D01*
G01*
X149300000Y-77965000D01*
G75*
G02*
X149450000Y-78115000I0J-150000D01*
G01*
X149450000Y-78415000D01*
G75*
G02*
X149300000Y-78565000I-150000J0D01*
G01*
X147650000Y-78565000D01*
G75*
G02*
X147500000Y-78415000I0J150000D01*
G01*
G37*
G36*
G01*
X147500000Y-77145000D02*
X147500000Y-76845000D01*
G75*
G02*
X147650000Y-76695000I150000J0D01*
G01*
X149300000Y-76695000D01*
G75*
G02*
X149450000Y-76845000I0J-150000D01*
G01*
X149450000Y-77145000D01*
G75*
G02*
X149300000Y-77295000I-150000J0D01*
G01*
X147650000Y-77295000D01*
G75*
G02*
X147500000Y-77145000I0J150000D01*
G01*
G37*
%TD*%
%TO.C,U3*%
G36*
G01*
X147500000Y-89425000D02*
X147500000Y-89275000D01*
G75*
G02*
X147575000Y-89200000I75000J0D01*
G01*
X148900000Y-89200000D01*
G75*
G02*
X148975000Y-89275000I0J-75000D01*
G01*
X148975000Y-89425000D01*
G75*
G02*
X148900000Y-89500000I-75000J0D01*
G01*
X147575000Y-89500000D01*
G75*
G02*
X147500000Y-89425000I0J75000D01*
G01*
G37*
G36*
G01*
X147500000Y-89925000D02*
X147500000Y-89775000D01*
G75*
G02*
X147575000Y-89700000I75000J0D01*
G01*
X148900000Y-89700000D01*
G75*
G02*
X148975000Y-89775000I0J-75000D01*
G01*
X148975000Y-89925000D01*
G75*
G02*
X148900000Y-90000000I-75000J0D01*
G01*
X147575000Y-90000000D01*
G75*
G02*
X147500000Y-89925000I0J75000D01*
G01*
G37*
G36*
G01*
X147500000Y-90425000D02*
X147500000Y-90275000D01*
G75*
G02*
X147575000Y-90200000I75000J0D01*
G01*
X148900000Y-90200000D01*
G75*
G02*
X148975000Y-90275000I0J-75000D01*
G01*
X148975000Y-90425000D01*
G75*
G02*
X148900000Y-90500000I-75000J0D01*
G01*
X147575000Y-90500000D01*
G75*
G02*
X147500000Y-90425000I0J75000D01*
G01*
G37*
G36*
G01*
X147500000Y-90925000D02*
X147500000Y-90775000D01*
G75*
G02*
X147575000Y-90700000I75000J0D01*
G01*
X148900000Y-90700000D01*
G75*
G02*
X148975000Y-90775000I0J-75000D01*
G01*
X148975000Y-90925000D01*
G75*
G02*
X148900000Y-91000000I-75000J0D01*
G01*
X147575000Y-91000000D01*
G75*
G02*
X147500000Y-90925000I0J75000D01*
G01*
G37*
G36*
G01*
X147500000Y-91425000D02*
X147500000Y-91275000D01*
G75*
G02*
X147575000Y-91200000I75000J0D01*
G01*
X148900000Y-91200000D01*
G75*
G02*
X148975000Y-91275000I0J-75000D01*
G01*
X148975000Y-91425000D01*
G75*
G02*
X148900000Y-91500000I-75000J0D01*
G01*
X147575000Y-91500000D01*
G75*
G02*
X147500000Y-91425000I0J75000D01*
G01*
G37*
G36*
G01*
X147500000Y-91925000D02*
X147500000Y-91775000D01*
G75*
G02*
X147575000Y-91700000I75000J0D01*
G01*
X148900000Y-91700000D01*
G75*
G02*
X148975000Y-91775000I0J-75000D01*
G01*
X148975000Y-91925000D01*
G75*
G02*
X148900000Y-92000000I-75000J0D01*
G01*
X147575000Y-92000000D01*
G75*
G02*
X147500000Y-91925000I0J75000D01*
G01*
G37*
G36*
G01*
X147500000Y-92425000D02*
X147500000Y-92275000D01*
G75*
G02*
X147575000Y-92200000I75000J0D01*
G01*
X148900000Y-92200000D01*
G75*
G02*
X148975000Y-92275000I0J-75000D01*
G01*
X148975000Y-92425000D01*
G75*
G02*
X148900000Y-92500000I-75000J0D01*
G01*
X147575000Y-92500000D01*
G75*
G02*
X147500000Y-92425000I0J75000D01*
G01*
G37*
G36*
G01*
X147500000Y-92925000D02*
X147500000Y-92775000D01*
G75*
G02*
X147575000Y-92700000I75000J0D01*
G01*
X148900000Y-92700000D01*
G75*
G02*
X148975000Y-92775000I0J-75000D01*
G01*
X148975000Y-92925000D01*
G75*
G02*
X148900000Y-93000000I-75000J0D01*
G01*
X147575000Y-93000000D01*
G75*
G02*
X147500000Y-92925000I0J75000D01*
G01*
G37*
G36*
G01*
X147500000Y-93425000D02*
X147500000Y-93275000D01*
G75*
G02*
X147575000Y-93200000I75000J0D01*
G01*
X148900000Y-93200000D01*
G75*
G02*
X148975000Y-93275000I0J-75000D01*
G01*
X148975000Y-93425000D01*
G75*
G02*
X148900000Y-93500000I-75000J0D01*
G01*
X147575000Y-93500000D01*
G75*
G02*
X147500000Y-93425000I0J75000D01*
G01*
G37*
G36*
G01*
X147500000Y-93925000D02*
X147500000Y-93775000D01*
G75*
G02*
X147575000Y-93700000I75000J0D01*
G01*
X148900000Y-93700000D01*
G75*
G02*
X148975000Y-93775000I0J-75000D01*
G01*
X148975000Y-93925000D01*
G75*
G02*
X148900000Y-94000000I-75000J0D01*
G01*
X147575000Y-94000000D01*
G75*
G02*
X147500000Y-93925000I0J75000D01*
G01*
G37*
G36*
G01*
X147500000Y-94425000D02*
X147500000Y-94275000D01*
G75*
G02*
X147575000Y-94200000I75000J0D01*
G01*
X148900000Y-94200000D01*
G75*
G02*
X148975000Y-94275000I0J-75000D01*
G01*
X148975000Y-94425000D01*
G75*
G02*
X148900000Y-94500000I-75000J0D01*
G01*
X147575000Y-94500000D01*
G75*
G02*
X147500000Y-94425000I0J75000D01*
G01*
G37*
G36*
G01*
X147500000Y-94925000D02*
X147500000Y-94775000D01*
G75*
G02*
X147575000Y-94700000I75000J0D01*
G01*
X148900000Y-94700000D01*
G75*
G02*
X148975000Y-94775000I0J-75000D01*
G01*
X148975000Y-94925000D01*
G75*
G02*
X148900000Y-95000000I-75000J0D01*
G01*
X147575000Y-95000000D01*
G75*
G02*
X147500000Y-94925000I0J75000D01*
G01*
G37*
G36*
G01*
X149500000Y-96925000D02*
X149500000Y-95600000D01*
G75*
G02*
X149575000Y-95525000I75000J0D01*
G01*
X149725000Y-95525000D01*
G75*
G02*
X149800000Y-95600000I0J-75000D01*
G01*
X149800000Y-96925000D01*
G75*
G02*
X149725000Y-97000000I-75000J0D01*
G01*
X149575000Y-97000000D01*
G75*
G02*
X149500000Y-96925000I0J75000D01*
G01*
G37*
G36*
G01*
X150000000Y-96925000D02*
X150000000Y-95600000D01*
G75*
G02*
X150075000Y-95525000I75000J0D01*
G01*
X150225000Y-95525000D01*
G75*
G02*
X150300000Y-95600000I0J-75000D01*
G01*
X150300000Y-96925000D01*
G75*
G02*
X150225000Y-97000000I-75000J0D01*
G01*
X150075000Y-97000000D01*
G75*
G02*
X150000000Y-96925000I0J75000D01*
G01*
G37*
G36*
G01*
X150500000Y-96925000D02*
X150500000Y-95600000D01*
G75*
G02*
X150575000Y-95525000I75000J0D01*
G01*
X150725000Y-95525000D01*
G75*
G02*
X150800000Y-95600000I0J-75000D01*
G01*
X150800000Y-96925000D01*
G75*
G02*
X150725000Y-97000000I-75000J0D01*
G01*
X150575000Y-97000000D01*
G75*
G02*
X150500000Y-96925000I0J75000D01*
G01*
G37*
G36*
G01*
X151000000Y-96925000D02*
X151000000Y-95600000D01*
G75*
G02*
X151075000Y-95525000I75000J0D01*
G01*
X151225000Y-95525000D01*
G75*
G02*
X151300000Y-95600000I0J-75000D01*
G01*
X151300000Y-96925000D01*
G75*
G02*
X151225000Y-97000000I-75000J0D01*
G01*
X151075000Y-97000000D01*
G75*
G02*
X151000000Y-96925000I0J75000D01*
G01*
G37*
G36*
G01*
X151500000Y-96925000D02*
X151500000Y-95600000D01*
G75*
G02*
X151575000Y-95525000I75000J0D01*
G01*
X151725000Y-95525000D01*
G75*
G02*
X151800000Y-95600000I0J-75000D01*
G01*
X151800000Y-96925000D01*
G75*
G02*
X151725000Y-97000000I-75000J0D01*
G01*
X151575000Y-97000000D01*
G75*
G02*
X151500000Y-96925000I0J75000D01*
G01*
G37*
G36*
G01*
X152000000Y-96925000D02*
X152000000Y-95600000D01*
G75*
G02*
X152075000Y-95525000I75000J0D01*
G01*
X152225000Y-95525000D01*
G75*
G02*
X152300000Y-95600000I0J-75000D01*
G01*
X152300000Y-96925000D01*
G75*
G02*
X152225000Y-97000000I-75000J0D01*
G01*
X152075000Y-97000000D01*
G75*
G02*
X152000000Y-96925000I0J75000D01*
G01*
G37*
G36*
G01*
X152500000Y-96925000D02*
X152500000Y-95600000D01*
G75*
G02*
X152575000Y-95525000I75000J0D01*
G01*
X152725000Y-95525000D01*
G75*
G02*
X152800000Y-95600000I0J-75000D01*
G01*
X152800000Y-96925000D01*
G75*
G02*
X152725000Y-97000000I-75000J0D01*
G01*
X152575000Y-97000000D01*
G75*
G02*
X152500000Y-96925000I0J75000D01*
G01*
G37*
G36*
G01*
X153000000Y-96925000D02*
X153000000Y-95600000D01*
G75*
G02*
X153075000Y-95525000I75000J0D01*
G01*
X153225000Y-95525000D01*
G75*
G02*
X153300000Y-95600000I0J-75000D01*
G01*
X153300000Y-96925000D01*
G75*
G02*
X153225000Y-97000000I-75000J0D01*
G01*
X153075000Y-97000000D01*
G75*
G02*
X153000000Y-96925000I0J75000D01*
G01*
G37*
G36*
G01*
X153500000Y-96925000D02*
X153500000Y-95600000D01*
G75*
G02*
X153575000Y-95525000I75000J0D01*
G01*
X153725000Y-95525000D01*
G75*
G02*
X153800000Y-95600000I0J-75000D01*
G01*
X153800000Y-96925000D01*
G75*
G02*
X153725000Y-97000000I-75000J0D01*
G01*
X153575000Y-97000000D01*
G75*
G02*
X153500000Y-96925000I0J75000D01*
G01*
G37*
G36*
G01*
X154000000Y-96925000D02*
X154000000Y-95600000D01*
G75*
G02*
X154075000Y-95525000I75000J0D01*
G01*
X154225000Y-95525000D01*
G75*
G02*
X154300000Y-95600000I0J-75000D01*
G01*
X154300000Y-96925000D01*
G75*
G02*
X154225000Y-97000000I-75000J0D01*
G01*
X154075000Y-97000000D01*
G75*
G02*
X154000000Y-96925000I0J75000D01*
G01*
G37*
G36*
G01*
X154500000Y-96925000D02*
X154500000Y-95600000D01*
G75*
G02*
X154575000Y-95525000I75000J0D01*
G01*
X154725000Y-95525000D01*
G75*
G02*
X154800000Y-95600000I0J-75000D01*
G01*
X154800000Y-96925000D01*
G75*
G02*
X154725000Y-97000000I-75000J0D01*
G01*
X154575000Y-97000000D01*
G75*
G02*
X154500000Y-96925000I0J75000D01*
G01*
G37*
G36*
G01*
X155000000Y-96925000D02*
X155000000Y-95600000D01*
G75*
G02*
X155075000Y-95525000I75000J0D01*
G01*
X155225000Y-95525000D01*
G75*
G02*
X155300000Y-95600000I0J-75000D01*
G01*
X155300000Y-96925000D01*
G75*
G02*
X155225000Y-97000000I-75000J0D01*
G01*
X155075000Y-97000000D01*
G75*
G02*
X155000000Y-96925000I0J75000D01*
G01*
G37*
G36*
G01*
X155825000Y-94925000D02*
X155825000Y-94775000D01*
G75*
G02*
X155900000Y-94700000I75000J0D01*
G01*
X157225000Y-94700000D01*
G75*
G02*
X157300000Y-94775000I0J-75000D01*
G01*
X157300000Y-94925000D01*
G75*
G02*
X157225000Y-95000000I-75000J0D01*
G01*
X155900000Y-95000000D01*
G75*
G02*
X155825000Y-94925000I0J75000D01*
G01*
G37*
G36*
G01*
X155825000Y-94425000D02*
X155825000Y-94275000D01*
G75*
G02*
X155900000Y-94200000I75000J0D01*
G01*
X157225000Y-94200000D01*
G75*
G02*
X157300000Y-94275000I0J-75000D01*
G01*
X157300000Y-94425000D01*
G75*
G02*
X157225000Y-94500000I-75000J0D01*
G01*
X155900000Y-94500000D01*
G75*
G02*
X155825000Y-94425000I0J75000D01*
G01*
G37*
G36*
G01*
X155825000Y-93925000D02*
X155825000Y-93775000D01*
G75*
G02*
X155900000Y-93700000I75000J0D01*
G01*
X157225000Y-93700000D01*
G75*
G02*
X157300000Y-93775000I0J-75000D01*
G01*
X157300000Y-93925000D01*
G75*
G02*
X157225000Y-94000000I-75000J0D01*
G01*
X155900000Y-94000000D01*
G75*
G02*
X155825000Y-93925000I0J75000D01*
G01*
G37*
G36*
G01*
X155825000Y-93425000D02*
X155825000Y-93275000D01*
G75*
G02*
X155900000Y-93200000I75000J0D01*
G01*
X157225000Y-93200000D01*
G75*
G02*
X157300000Y-93275000I0J-75000D01*
G01*
X157300000Y-93425000D01*
G75*
G02*
X157225000Y-93500000I-75000J0D01*
G01*
X155900000Y-93500000D01*
G75*
G02*
X155825000Y-93425000I0J75000D01*
G01*
G37*
G36*
G01*
X155825000Y-92925000D02*
X155825000Y-92775000D01*
G75*
G02*
X155900000Y-92700000I75000J0D01*
G01*
X157225000Y-92700000D01*
G75*
G02*
X157300000Y-92775000I0J-75000D01*
G01*
X157300000Y-92925000D01*
G75*
G02*
X157225000Y-93000000I-75000J0D01*
G01*
X155900000Y-93000000D01*
G75*
G02*
X155825000Y-92925000I0J75000D01*
G01*
G37*
G36*
G01*
X155825000Y-92425000D02*
X155825000Y-92275000D01*
G75*
G02*
X155900000Y-92200000I75000J0D01*
G01*
X157225000Y-92200000D01*
G75*
G02*
X157300000Y-92275000I0J-75000D01*
G01*
X157300000Y-92425000D01*
G75*
G02*
X157225000Y-92500000I-75000J0D01*
G01*
X155900000Y-92500000D01*
G75*
G02*
X155825000Y-92425000I0J75000D01*
G01*
G37*
G36*
G01*
X155825000Y-91925000D02*
X155825000Y-91775000D01*
G75*
G02*
X155900000Y-91700000I75000J0D01*
G01*
X157225000Y-91700000D01*
G75*
G02*
X157300000Y-91775000I0J-75000D01*
G01*
X157300000Y-91925000D01*
G75*
G02*
X157225000Y-92000000I-75000J0D01*
G01*
X155900000Y-92000000D01*
G75*
G02*
X155825000Y-91925000I0J75000D01*
G01*
G37*
G36*
G01*
X155825000Y-91425000D02*
X155825000Y-91275000D01*
G75*
G02*
X155900000Y-91200000I75000J0D01*
G01*
X157225000Y-91200000D01*
G75*
G02*
X157300000Y-91275000I0J-75000D01*
G01*
X157300000Y-91425000D01*
G75*
G02*
X157225000Y-91500000I-75000J0D01*
G01*
X155900000Y-91500000D01*
G75*
G02*
X155825000Y-91425000I0J75000D01*
G01*
G37*
G36*
G01*
X155825000Y-90925000D02*
X155825000Y-90775000D01*
G75*
G02*
X155900000Y-90700000I75000J0D01*
G01*
X157225000Y-90700000D01*
G75*
G02*
X157300000Y-90775000I0J-75000D01*
G01*
X157300000Y-90925000D01*
G75*
G02*
X157225000Y-91000000I-75000J0D01*
G01*
X155900000Y-91000000D01*
G75*
G02*
X155825000Y-90925000I0J75000D01*
G01*
G37*
G36*
G01*
X155825000Y-90425000D02*
X155825000Y-90275000D01*
G75*
G02*
X155900000Y-90200000I75000J0D01*
G01*
X157225000Y-90200000D01*
G75*
G02*
X157300000Y-90275000I0J-75000D01*
G01*
X157300000Y-90425000D01*
G75*
G02*
X157225000Y-90500000I-75000J0D01*
G01*
X155900000Y-90500000D01*
G75*
G02*
X155825000Y-90425000I0J75000D01*
G01*
G37*
G36*
G01*
X155825000Y-89925000D02*
X155825000Y-89775000D01*
G75*
G02*
X155900000Y-89700000I75000J0D01*
G01*
X157225000Y-89700000D01*
G75*
G02*
X157300000Y-89775000I0J-75000D01*
G01*
X157300000Y-89925000D01*
G75*
G02*
X157225000Y-90000000I-75000J0D01*
G01*
X155900000Y-90000000D01*
G75*
G02*
X155825000Y-89925000I0J75000D01*
G01*
G37*
G36*
G01*
X155825000Y-89425000D02*
X155825000Y-89275000D01*
G75*
G02*
X155900000Y-89200000I75000J0D01*
G01*
X157225000Y-89200000D01*
G75*
G02*
X157300000Y-89275000I0J-75000D01*
G01*
X157300000Y-89425000D01*
G75*
G02*
X157225000Y-89500000I-75000J0D01*
G01*
X155900000Y-89500000D01*
G75*
G02*
X155825000Y-89425000I0J75000D01*
G01*
G37*
G36*
G01*
X155000000Y-88600000D02*
X155000000Y-87275000D01*
G75*
G02*
X155075000Y-87200000I75000J0D01*
G01*
X155225000Y-87200000D01*
G75*
G02*
X155300000Y-87275000I0J-75000D01*
G01*
X155300000Y-88600000D01*
G75*
G02*
X155225000Y-88675000I-75000J0D01*
G01*
X155075000Y-88675000D01*
G75*
G02*
X155000000Y-88600000I0J75000D01*
G01*
G37*
G36*
G01*
X154500000Y-88600000D02*
X154500000Y-87275000D01*
G75*
G02*
X154575000Y-87200000I75000J0D01*
G01*
X154725000Y-87200000D01*
G75*
G02*
X154800000Y-87275000I0J-75000D01*
G01*
X154800000Y-88600000D01*
G75*
G02*
X154725000Y-88675000I-75000J0D01*
G01*
X154575000Y-88675000D01*
G75*
G02*
X154500000Y-88600000I0J75000D01*
G01*
G37*
G36*
G01*
X154000000Y-88600000D02*
X154000000Y-87275000D01*
G75*
G02*
X154075000Y-87200000I75000J0D01*
G01*
X154225000Y-87200000D01*
G75*
G02*
X154300000Y-87275000I0J-75000D01*
G01*
X154300000Y-88600000D01*
G75*
G02*
X154225000Y-88675000I-75000J0D01*
G01*
X154075000Y-88675000D01*
G75*
G02*
X154000000Y-88600000I0J75000D01*
G01*
G37*
G36*
G01*
X153500000Y-88600000D02*
X153500000Y-87275000D01*
G75*
G02*
X153575000Y-87200000I75000J0D01*
G01*
X153725000Y-87200000D01*
G75*
G02*
X153800000Y-87275000I0J-75000D01*
G01*
X153800000Y-88600000D01*
G75*
G02*
X153725000Y-88675000I-75000J0D01*
G01*
X153575000Y-88675000D01*
G75*
G02*
X153500000Y-88600000I0J75000D01*
G01*
G37*
G36*
G01*
X153000000Y-88600000D02*
X153000000Y-87275000D01*
G75*
G02*
X153075000Y-87200000I75000J0D01*
G01*
X153225000Y-87200000D01*
G75*
G02*
X153300000Y-87275000I0J-75000D01*
G01*
X153300000Y-88600000D01*
G75*
G02*
X153225000Y-88675000I-75000J0D01*
G01*
X153075000Y-88675000D01*
G75*
G02*
X153000000Y-88600000I0J75000D01*
G01*
G37*
G36*
G01*
X152500000Y-88600000D02*
X152500000Y-87275000D01*
G75*
G02*
X152575000Y-87200000I75000J0D01*
G01*
X152725000Y-87200000D01*
G75*
G02*
X152800000Y-87275000I0J-75000D01*
G01*
X152800000Y-88600000D01*
G75*
G02*
X152725000Y-88675000I-75000J0D01*
G01*
X152575000Y-88675000D01*
G75*
G02*
X152500000Y-88600000I0J75000D01*
G01*
G37*
G36*
G01*
X152000000Y-88600000D02*
X152000000Y-87275000D01*
G75*
G02*
X152075000Y-87200000I75000J0D01*
G01*
X152225000Y-87200000D01*
G75*
G02*
X152300000Y-87275000I0J-75000D01*
G01*
X152300000Y-88600000D01*
G75*
G02*
X152225000Y-88675000I-75000J0D01*
G01*
X152075000Y-88675000D01*
G75*
G02*
X152000000Y-88600000I0J75000D01*
G01*
G37*
G36*
G01*
X151500000Y-88600000D02*
X151500000Y-87275000D01*
G75*
G02*
X151575000Y-87200000I75000J0D01*
G01*
X151725000Y-87200000D01*
G75*
G02*
X151800000Y-87275000I0J-75000D01*
G01*
X151800000Y-88600000D01*
G75*
G02*
X151725000Y-88675000I-75000J0D01*
G01*
X151575000Y-88675000D01*
G75*
G02*
X151500000Y-88600000I0J75000D01*
G01*
G37*
G36*
G01*
X151000000Y-88600000D02*
X151000000Y-87275000D01*
G75*
G02*
X151075000Y-87200000I75000J0D01*
G01*
X151225000Y-87200000D01*
G75*
G02*
X151300000Y-87275000I0J-75000D01*
G01*
X151300000Y-88600000D01*
G75*
G02*
X151225000Y-88675000I-75000J0D01*
G01*
X151075000Y-88675000D01*
G75*
G02*
X151000000Y-88600000I0J75000D01*
G01*
G37*
G36*
G01*
X150500000Y-88600000D02*
X150500000Y-87275000D01*
G75*
G02*
X150575000Y-87200000I75000J0D01*
G01*
X150725000Y-87200000D01*
G75*
G02*
X150800000Y-87275000I0J-75000D01*
G01*
X150800000Y-88600000D01*
G75*
G02*
X150725000Y-88675000I-75000J0D01*
G01*
X150575000Y-88675000D01*
G75*
G02*
X150500000Y-88600000I0J75000D01*
G01*
G37*
G36*
G01*
X150000000Y-88600000D02*
X150000000Y-87275000D01*
G75*
G02*
X150075000Y-87200000I75000J0D01*
G01*
X150225000Y-87200000D01*
G75*
G02*
X150300000Y-87275000I0J-75000D01*
G01*
X150300000Y-88600000D01*
G75*
G02*
X150225000Y-88675000I-75000J0D01*
G01*
X150075000Y-88675000D01*
G75*
G02*
X150000000Y-88600000I0J75000D01*
G01*
G37*
G36*
G01*
X149500000Y-88600000D02*
X149500000Y-87275000D01*
G75*
G02*
X149575000Y-87200000I75000J0D01*
G01*
X149725000Y-87200000D01*
G75*
G02*
X149800000Y-87275000I0J-75000D01*
G01*
X149800000Y-88600000D01*
G75*
G02*
X149725000Y-88675000I-75000J0D01*
G01*
X149575000Y-88675000D01*
G75*
G02*
X149500000Y-88600000I0J75000D01*
G01*
G37*
%TD*%
M02*
