M48
; DRILL file {KiCad 5.1.7+dfsg1-1~bpo10+1} date Sun Oct 25 19:55:55 2020
; FORMAT={-:-/ absolute / inch / decimal}
; #@! TF.CreationDate,2020-10-25T19:55:55+08:00
; #@! TF.GenerationSoftware,Kicad,Pcbnew,5.1.7+dfsg1-1~bpo10+1
; #@! TF.FileFunction,Plated,1,2,PTH
FMAT,2
INCH
T1C0.0157
T2C0.0236
T3C0.0315
T4C0.0394
T5C0.0433
%
G90
G05
T1
X5.7799Y-3.5745
X5.7867Y-3.6206
X5.8092Y-3.492
X5.8849Y-3.6939
X5.885Y-3.5766
X5.9219Y-3.6318
X5.9819Y-3.2844
X6.0359Y-3.3712
X6.0647Y-3.6999
X6.101Y-3.3649
X6.1099Y-3.8859
X6.1381Y-3.2791
X6.1382Y-3.2185
X6.1576Y-3.7907
X6.1697Y-3.8262
X6.177Y-3.76
X6.2472Y-3.586
X6.2568Y-3.8696
X6.3316Y-3.6075
T3
X5.5984Y-4.0472
X5.5984Y-4.1472
X5.8984Y-4.0472
X5.8984Y-4.1472
X5.5827Y-3.4882
X5.5827Y-3.6803
T4
X5.278Y-2.6693
X5.278Y-2.7693
X5.278Y-2.8693
X5.278Y-2.9693
X5.278Y-3.0693
X5.278Y-3.1693
X5.278Y-3.2693
X5.278Y-3.3693
X5.278Y-3.4693
X5.278Y-3.5693
X5.278Y-3.6693
X5.278Y-3.7693
X5.278Y-3.8693
X5.278Y-3.9693
X5.278Y-4.0693
X5.278Y-4.1693
X5.378Y-2.6693
X5.378Y-2.7693
X5.378Y-2.8693
X5.378Y-2.9693
X5.378Y-3.0693
X5.378Y-3.1693
X5.378Y-3.2693
X5.378Y-3.3693
X5.378Y-3.4693
X5.378Y-3.5693
X5.378Y-3.6693
X5.378Y-3.7693
X5.378Y-3.8693
X5.378Y-3.9693
X5.378Y-4.0693
X5.378Y-4.1693
T5
X6.1772Y-3.9961
X6.1772Y-4.1732
X6.4331Y-3.9961
X6.4331Y-4.1732
T2
G00X6.2252Y-3.078
M15
G01X6.1819Y-3.078
M16
G05
G00X6.2252Y-3.4181
M15
G01X6.1819Y-3.4181
M16
G05
G00X6.3835Y-3.078
M15
G01X6.352Y-3.078
M16
G05
G00X6.3835Y-3.4181
M15
G01X6.352Y-3.4181
M16
G05
G00X6.2252Y-2.6252
M15
G01X6.1819Y-2.6252
M16
G05
G00X6.2252Y-2.9654
M15
G01X6.1819Y-2.9654
M16
G05
G00X6.3835Y-2.6252
M15
G01X6.352Y-2.6252
M16
G05
G00X6.3835Y-2.9654
M15
G01X6.352Y-2.9654
M16
G05
T0
M30
