%TF.GenerationSoftware,KiCad,Pcbnew,5.1.7+dfsg1-1~bpo10+1*%
%TF.CreationDate,2020-10-25T19:55:51+08:00*%
%TF.ProjectId,stm32-io-extend,73746d33-322d-4696-9f2d-657874656e64,rev?*%
%TF.SameCoordinates,Original*%
%TF.FileFunction,Copper,L1,Top*%
%TF.FilePolarity,Positive*%
%FSLAX46Y46*%
G04 Gerber Fmt 4.6, Leading zero omitted, Abs format (unit mm)*
G04 Created by KiCad (PCBNEW 5.1.7+dfsg1-1~bpo10+1) date 2020-10-25 19:55:51*
%MOMM*%
%LPD*%
G01*
G04 APERTURE LIST*
%TA.AperFunction,ComponentPad*%
%ADD10O,2.000000X0.900000*%
%TD*%
%TA.AperFunction,ComponentPad*%
%ADD11O,1.700000X0.900000*%
%TD*%
%TA.AperFunction,SMDPad,CuDef*%
%ADD12R,1.160000X0.300000*%
%TD*%
%TA.AperFunction,SMDPad,CuDef*%
%ADD13R,1.160000X0.600000*%
%TD*%
%TA.AperFunction,ComponentPad*%
%ADD14R,1.700000X1.700000*%
%TD*%
%TA.AperFunction,ComponentPad*%
%ADD15O,1.700000X1.700000*%
%TD*%
%TA.AperFunction,ComponentPad*%
%ADD16R,1.600000X1.600000*%
%TD*%
%TA.AperFunction,ComponentPad*%
%ADD17O,1.600000X1.600000*%
%TD*%
%TA.AperFunction,ComponentPad*%
%ADD18C,2.000000*%
%TD*%
%TA.AperFunction,SMDPad,CuDef*%
%ADD19R,2.000000X3.800000*%
%TD*%
%TA.AperFunction,SMDPad,CuDef*%
%ADD20R,2.000000X1.500000*%
%TD*%
%TA.AperFunction,ComponentPad*%
%ADD21C,1.500000*%
%TD*%
%TA.AperFunction,ViaPad*%
%ADD22C,0.800000*%
%TD*%
%TA.AperFunction,Conductor*%
%ADD23C,0.100000*%
%TD*%
G04 APERTURE END LIST*
%TO.P,C1,2*%
%TO.N,GND*%
%TA.AperFunction,SMDPad,CuDef*%
G36*
G01*
X150000000Y-67090000D02*
X150200000Y-67090000D01*
G75*
G02*
X150300000Y-67190000I0J-100000D01*
G01*
X150300000Y-67450000D01*
G75*
G02*
X150200000Y-67550000I-100000J0D01*
G01*
X150000000Y-67550000D01*
G75*
G02*
X149900000Y-67450000I0J100000D01*
G01*
X149900000Y-67190000D01*
G75*
G02*
X150000000Y-67090000I100000J0D01*
G01*
G37*
%TD.AperFunction*%
%TO.P,C1,1*%
%TO.N,+5V*%
%TA.AperFunction,SMDPad,CuDef*%
G36*
G01*
X150000000Y-66450000D02*
X150200000Y-66450000D01*
G75*
G02*
X150300000Y-66550000I0J-100000D01*
G01*
X150300000Y-66810000D01*
G75*
G02*
X150200000Y-66910000I-100000J0D01*
G01*
X150000000Y-66910000D01*
G75*
G02*
X149900000Y-66810000I0J100000D01*
G01*
X149900000Y-66550000D01*
G75*
G02*
X150000000Y-66450000I100000J0D01*
G01*
G37*
%TD.AperFunction*%
%TD*%
%TO.P,C2,1*%
%TO.N,+3V3*%
%TA.AperFunction,SMDPad,CuDef*%
G36*
G01*
X146600000Y-89550000D02*
X146400000Y-89550000D01*
G75*
G02*
X146300000Y-89450000I0J100000D01*
G01*
X146300000Y-89190000D01*
G75*
G02*
X146400000Y-89090000I100000J0D01*
G01*
X146600000Y-89090000D01*
G75*
G02*
X146700000Y-89190000I0J-100000D01*
G01*
X146700000Y-89450000D01*
G75*
G02*
X146600000Y-89550000I-100000J0D01*
G01*
G37*
%TD.AperFunction*%
%TO.P,C2,2*%
%TO.N,GND*%
%TA.AperFunction,SMDPad,CuDef*%
G36*
G01*
X146600000Y-88910000D02*
X146400000Y-88910000D01*
G75*
G02*
X146300000Y-88810000I0J100000D01*
G01*
X146300000Y-88550000D01*
G75*
G02*
X146400000Y-88450000I100000J0D01*
G01*
X146600000Y-88450000D01*
G75*
G02*
X146700000Y-88550000I0J-100000D01*
G01*
X146700000Y-88810000D01*
G75*
G02*
X146600000Y-88910000I-100000J0D01*
G01*
G37*
%TD.AperFunction*%
%TD*%
%TO.P,C3,2*%
%TO.N,GND*%
%TA.AperFunction,SMDPad,CuDef*%
G36*
G01*
X146600000Y-93110000D02*
X146400000Y-93110000D01*
G75*
G02*
X146300000Y-93010000I0J100000D01*
G01*
X146300000Y-92750000D01*
G75*
G02*
X146400000Y-92650000I100000J0D01*
G01*
X146600000Y-92650000D01*
G75*
G02*
X146700000Y-92750000I0J-100000D01*
G01*
X146700000Y-93010000D01*
G75*
G02*
X146600000Y-93110000I-100000J0D01*
G01*
G37*
%TD.AperFunction*%
%TO.P,C3,1*%
%TO.N,+3V3*%
%TA.AperFunction,SMDPad,CuDef*%
G36*
G01*
X146600000Y-93750000D02*
X146400000Y-93750000D01*
G75*
G02*
X146300000Y-93650000I0J100000D01*
G01*
X146300000Y-93390000D01*
G75*
G02*
X146400000Y-93290000I100000J0D01*
G01*
X146600000Y-93290000D01*
G75*
G02*
X146700000Y-93390000I0J-100000D01*
G01*
X146700000Y-93650000D01*
G75*
G02*
X146600000Y-93750000I-100000J0D01*
G01*
G37*
%TD.AperFunction*%
%TD*%
%TO.P,C4,2*%
%TO.N,GND*%
%TA.AperFunction,SMDPad,CuDef*%
G36*
G01*
X148450000Y-67825000D02*
X148950000Y-67825000D01*
G75*
G02*
X149175000Y-68050000I0J-225000D01*
G01*
X149175000Y-68500000D01*
G75*
G02*
X148950000Y-68725000I-225000J0D01*
G01*
X148450000Y-68725000D01*
G75*
G02*
X148225000Y-68500000I0J225000D01*
G01*
X148225000Y-68050000D01*
G75*
G02*
X148450000Y-67825000I225000J0D01*
G01*
G37*
%TD.AperFunction*%
%TO.P,C4,1*%
%TO.N,+5V*%
%TA.AperFunction,SMDPad,CuDef*%
G36*
G01*
X148450000Y-66275000D02*
X148950000Y-66275000D01*
G75*
G02*
X149175000Y-66500000I0J-225000D01*
G01*
X149175000Y-66950000D01*
G75*
G02*
X148950000Y-67175000I-225000J0D01*
G01*
X148450000Y-67175000D01*
G75*
G02*
X148225000Y-66950000I0J225000D01*
G01*
X148225000Y-66500000D01*
G75*
G02*
X148450000Y-66275000I225000J0D01*
G01*
G37*
%TD.AperFunction*%
%TD*%
%TO.P,C5,2*%
%TO.N,GND*%
%TA.AperFunction,SMDPad,CuDef*%
G36*
G01*
X154910000Y-97900000D02*
X154910000Y-98100000D01*
G75*
G02*
X154810000Y-98200000I-100000J0D01*
G01*
X154550000Y-98200000D01*
G75*
G02*
X154450000Y-98100000I0J100000D01*
G01*
X154450000Y-97900000D01*
G75*
G02*
X154550000Y-97800000I100000J0D01*
G01*
X154810000Y-97800000D01*
G75*
G02*
X154910000Y-97900000I0J-100000D01*
G01*
G37*
%TD.AperFunction*%
%TO.P,C5,1*%
%TO.N,+3V3*%
%TA.AperFunction,SMDPad,CuDef*%
G36*
G01*
X155550000Y-97900000D02*
X155550000Y-98100000D01*
G75*
G02*
X155450000Y-98200000I-100000J0D01*
G01*
X155190000Y-98200000D01*
G75*
G02*
X155090000Y-98100000I0J100000D01*
G01*
X155090000Y-97900000D01*
G75*
G02*
X155190000Y-97800000I100000J0D01*
G01*
X155450000Y-97800000D01*
G75*
G02*
X155550000Y-97900000I0J-100000D01*
G01*
G37*
%TD.AperFunction*%
%TD*%
%TO.P,C6,1*%
%TO.N,+3V3*%
%TA.AperFunction,SMDPad,CuDef*%
G36*
G01*
X152000000Y-71950000D02*
X152200000Y-71950000D01*
G75*
G02*
X152300000Y-72050000I0J-100000D01*
G01*
X152300000Y-72310000D01*
G75*
G02*
X152200000Y-72410000I-100000J0D01*
G01*
X152000000Y-72410000D01*
G75*
G02*
X151900000Y-72310000I0J100000D01*
G01*
X151900000Y-72050000D01*
G75*
G02*
X152000000Y-71950000I100000J0D01*
G01*
G37*
%TD.AperFunction*%
%TO.P,C6,2*%
%TO.N,GND*%
%TA.AperFunction,SMDPad,CuDef*%
G36*
G01*
X152000000Y-72590000D02*
X152200000Y-72590000D01*
G75*
G02*
X152300000Y-72690000I0J-100000D01*
G01*
X152300000Y-72950000D01*
G75*
G02*
X152200000Y-73050000I-100000J0D01*
G01*
X152000000Y-73050000D01*
G75*
G02*
X151900000Y-72950000I0J100000D01*
G01*
X151900000Y-72690000D01*
G75*
G02*
X152000000Y-72590000I100000J0D01*
G01*
G37*
%TD.AperFunction*%
%TD*%
%TO.P,C7,1*%
%TO.N,+3V3*%
%TA.AperFunction,SMDPad,CuDef*%
G36*
G01*
X158200000Y-89050000D02*
X158400000Y-89050000D01*
G75*
G02*
X158500000Y-89150000I0J-100000D01*
G01*
X158500000Y-89410000D01*
G75*
G02*
X158400000Y-89510000I-100000J0D01*
G01*
X158200000Y-89510000D01*
G75*
G02*
X158100000Y-89410000I0J100000D01*
G01*
X158100000Y-89150000D01*
G75*
G02*
X158200000Y-89050000I100000J0D01*
G01*
G37*
%TD.AperFunction*%
%TO.P,C7,2*%
%TO.N,GND*%
%TA.AperFunction,SMDPad,CuDef*%
G36*
G01*
X158200000Y-89690000D02*
X158400000Y-89690000D01*
G75*
G02*
X158500000Y-89790000I0J-100000D01*
G01*
X158500000Y-90050000D01*
G75*
G02*
X158400000Y-90150000I-100000J0D01*
G01*
X158200000Y-90150000D01*
G75*
G02*
X158100000Y-90050000I0J100000D01*
G01*
X158100000Y-89790000D01*
G75*
G02*
X158200000Y-89690000I100000J0D01*
G01*
G37*
%TD.AperFunction*%
%TD*%
%TO.P,C8,1*%
%TO.N,+3V3*%
%TA.AperFunction,SMDPad,CuDef*%
G36*
G01*
X149250000Y-86300000D02*
X149250000Y-86100000D01*
G75*
G02*
X149350000Y-86000000I100000J0D01*
G01*
X149610000Y-86000000D01*
G75*
G02*
X149710000Y-86100000I0J-100000D01*
G01*
X149710000Y-86300000D01*
G75*
G02*
X149610000Y-86400000I-100000J0D01*
G01*
X149350000Y-86400000D01*
G75*
G02*
X149250000Y-86300000I0J100000D01*
G01*
G37*
%TD.AperFunction*%
%TO.P,C8,2*%
%TO.N,GND*%
%TA.AperFunction,SMDPad,CuDef*%
G36*
G01*
X149890000Y-86300000D02*
X149890000Y-86100000D01*
G75*
G02*
X149990000Y-86000000I100000J0D01*
G01*
X150250000Y-86000000D01*
G75*
G02*
X150350000Y-86100000I0J-100000D01*
G01*
X150350000Y-86300000D01*
G75*
G02*
X150250000Y-86400000I-100000J0D01*
G01*
X149990000Y-86400000D01*
G75*
G02*
X149890000Y-86300000I0J100000D01*
G01*
G37*
%TD.AperFunction*%
%TD*%
%TO.P,C9,1*%
%TO.N,+3V3*%
%TA.AperFunction,SMDPad,CuDef*%
G36*
G01*
X150250000Y-77100000D02*
X150250000Y-76900000D01*
G75*
G02*
X150350000Y-76800000I100000J0D01*
G01*
X150610000Y-76800000D01*
G75*
G02*
X150710000Y-76900000I0J-100000D01*
G01*
X150710000Y-77100000D01*
G75*
G02*
X150610000Y-77200000I-100000J0D01*
G01*
X150350000Y-77200000D01*
G75*
G02*
X150250000Y-77100000I0J100000D01*
G01*
G37*
%TD.AperFunction*%
%TO.P,C9,2*%
%TO.N,GND*%
%TA.AperFunction,SMDPad,CuDef*%
G36*
G01*
X150890000Y-77100000D02*
X150890000Y-76900000D01*
G75*
G02*
X150990000Y-76800000I100000J0D01*
G01*
X151250000Y-76800000D01*
G75*
G02*
X151350000Y-76900000I0J-100000D01*
G01*
X151350000Y-77100000D01*
G75*
G02*
X151250000Y-77200000I-100000J0D01*
G01*
X150990000Y-77200000D01*
G75*
G02*
X150890000Y-77100000I0J100000D01*
G01*
G37*
%TD.AperFunction*%
%TD*%
%TO.P,C10,1*%
%TO.N,+3V3*%
%TA.AperFunction,SMDPad,CuDef*%
G36*
G01*
X148450000Y-70475000D02*
X148950000Y-70475000D01*
G75*
G02*
X149175000Y-70700000I0J-225000D01*
G01*
X149175000Y-71150000D01*
G75*
G02*
X148950000Y-71375000I-225000J0D01*
G01*
X148450000Y-71375000D01*
G75*
G02*
X148225000Y-71150000I0J225000D01*
G01*
X148225000Y-70700000D01*
G75*
G02*
X148450000Y-70475000I225000J0D01*
G01*
G37*
%TD.AperFunction*%
%TO.P,C10,2*%
%TO.N,GND*%
%TA.AperFunction,SMDPad,CuDef*%
G36*
G01*
X148450000Y-72025000D02*
X148950000Y-72025000D01*
G75*
G02*
X149175000Y-72250000I0J-225000D01*
G01*
X149175000Y-72700000D01*
G75*
G02*
X148950000Y-72925000I-225000J0D01*
G01*
X148450000Y-72925000D01*
G75*
G02*
X148225000Y-72700000I0J225000D01*
G01*
X148225000Y-72250000D01*
G75*
G02*
X148450000Y-72025000I225000J0D01*
G01*
G37*
%TD.AperFunction*%
%TD*%
%TO.P,C11,1*%
%TO.N,+3V3*%
%TA.AperFunction,SMDPad,CuDef*%
G36*
G01*
X150350000Y-70475000D02*
X150850000Y-70475000D01*
G75*
G02*
X151075000Y-70700000I0J-225000D01*
G01*
X151075000Y-71150000D01*
G75*
G02*
X150850000Y-71375000I-225000J0D01*
G01*
X150350000Y-71375000D01*
G75*
G02*
X150125000Y-71150000I0J225000D01*
G01*
X150125000Y-70700000D01*
G75*
G02*
X150350000Y-70475000I225000J0D01*
G01*
G37*
%TD.AperFunction*%
%TO.P,C11,2*%
%TO.N,GND*%
%TA.AperFunction,SMDPad,CuDef*%
G36*
G01*
X150350000Y-72025000D02*
X150850000Y-72025000D01*
G75*
G02*
X151075000Y-72250000I0J-225000D01*
G01*
X151075000Y-72700000D01*
G75*
G02*
X150850000Y-72925000I-225000J0D01*
G01*
X150350000Y-72925000D01*
G75*
G02*
X150125000Y-72700000I0J225000D01*
G01*
X150125000Y-72250000D01*
G75*
G02*
X150350000Y-72025000I225000J0D01*
G01*
G37*
%TD.AperFunction*%
%TD*%
%TO.P,C12,2*%
%TO.N,GND*%
%TA.AperFunction,SMDPad,CuDef*%
G36*
G01*
X164390000Y-99500000D02*
X164390000Y-99300000D01*
G75*
G02*
X164490000Y-99200000I100000J0D01*
G01*
X164750000Y-99200000D01*
G75*
G02*
X164850000Y-99300000I0J-100000D01*
G01*
X164850000Y-99500000D01*
G75*
G02*
X164750000Y-99600000I-100000J0D01*
G01*
X164490000Y-99600000D01*
G75*
G02*
X164390000Y-99500000I0J100000D01*
G01*
G37*
%TD.AperFunction*%
%TO.P,C12,1*%
%TO.N,/NRST*%
%TA.AperFunction,SMDPad,CuDef*%
G36*
G01*
X163750000Y-99500000D02*
X163750000Y-99300000D01*
G75*
G02*
X163850000Y-99200000I100000J0D01*
G01*
X164110000Y-99200000D01*
G75*
G02*
X164210000Y-99300000I0J-100000D01*
G01*
X164210000Y-99500000D01*
G75*
G02*
X164110000Y-99600000I-100000J0D01*
G01*
X163850000Y-99600000D01*
G75*
G02*
X163750000Y-99500000I0J100000D01*
G01*
G37*
%TD.AperFunction*%
%TD*%
%TO.P,C13,1*%
%TO.N,Net-(C13-Pad1)*%
%TA.AperFunction,SMDPad,CuDef*%
G36*
G01*
X145300000Y-88450000D02*
X145500000Y-88450000D01*
G75*
G02*
X145600000Y-88550000I0J-100000D01*
G01*
X145600000Y-88810000D01*
G75*
G02*
X145500000Y-88910000I-100000J0D01*
G01*
X145300000Y-88910000D01*
G75*
G02*
X145200000Y-88810000I0J100000D01*
G01*
X145200000Y-88550000D01*
G75*
G02*
X145300000Y-88450000I100000J0D01*
G01*
G37*
%TD.AperFunction*%
%TO.P,C13,2*%
%TO.N,GND*%
%TA.AperFunction,SMDPad,CuDef*%
G36*
G01*
X145300000Y-89090000D02*
X145500000Y-89090000D01*
G75*
G02*
X145600000Y-89190000I0J-100000D01*
G01*
X145600000Y-89450000D01*
G75*
G02*
X145500000Y-89550000I-100000J0D01*
G01*
X145300000Y-89550000D01*
G75*
G02*
X145200000Y-89450000I0J100000D01*
G01*
X145200000Y-89190000D01*
G75*
G02*
X145300000Y-89090000I100000J0D01*
G01*
G37*
%TD.AperFunction*%
%TD*%
%TO.P,C14,2*%
%TO.N,GND*%
%TA.AperFunction,SMDPad,CuDef*%
G36*
G01*
X145500000Y-93110000D02*
X145300000Y-93110000D01*
G75*
G02*
X145200000Y-93010000I0J100000D01*
G01*
X145200000Y-92750000D01*
G75*
G02*
X145300000Y-92650000I100000J0D01*
G01*
X145500000Y-92650000D01*
G75*
G02*
X145600000Y-92750000I0J-100000D01*
G01*
X145600000Y-93010000D01*
G75*
G02*
X145500000Y-93110000I-100000J0D01*
G01*
G37*
%TD.AperFunction*%
%TO.P,C14,1*%
%TO.N,Net-(C14-Pad1)*%
%TA.AperFunction,SMDPad,CuDef*%
G36*
G01*
X145500000Y-93750000D02*
X145300000Y-93750000D01*
G75*
G02*
X145200000Y-93650000I0J100000D01*
G01*
X145200000Y-93390000D01*
G75*
G02*
X145300000Y-93290000I100000J0D01*
G01*
X145500000Y-93290000D01*
G75*
G02*
X145600000Y-93390000I0J-100000D01*
G01*
X145600000Y-93650000D01*
G75*
G02*
X145500000Y-93750000I-100000J0D01*
G01*
G37*
%TD.AperFunction*%
%TD*%
D10*
%TO.P,J1,S1*%
%TO.N,GND*%
X157570000Y-75320000D03*
X157570000Y-66680000D03*
D11*
X161740000Y-75320000D03*
X161740000Y-66680000D03*
D12*
%TO.P,J1,B7*%
%TO.N,Net-(J1-PadA7)*%
X156990000Y-71750000D03*
%TO.P,J1,A6*%
%TO.N,Net-(J1-PadA6)*%
X156990000Y-71250000D03*
%TO.P,J1,A7*%
%TO.N,Net-(J1-PadA7)*%
X156990000Y-70750000D03*
%TO.P,J1,B8*%
%TO.N,N/C*%
X156990000Y-72750000D03*
%TO.P,J1,A5*%
%TO.N,Net-(J1-PadA5)*%
X156990000Y-72250000D03*
%TO.P,J1,A8*%
%TO.N,N/C*%
X156990000Y-69750000D03*
%TO.P,J1,B6*%
%TO.N,Net-(J1-PadA6)*%
X156990000Y-70250000D03*
%TO.P,J1,B5*%
%TO.N,Net-(J1-PadB5)*%
X156990000Y-69250000D03*
D13*
%TO.P,J1,A4*%
%TO.N,+5V*%
X156990000Y-73400000D03*
%TO.P,J1,B9*%
X156990000Y-73400000D03*
%TO.P,J1,A1*%
%TO.N,GND*%
X156990000Y-74200000D03*
%TO.P,J1,B12*%
X156990000Y-74200000D03*
%TO.P,J1,B4*%
%TO.N,+5V*%
X156990000Y-68600000D03*
%TO.P,J1,B1*%
%TO.N,GND*%
X156990000Y-67800000D03*
%TO.P,J1,A9*%
%TO.N,+5V*%
X156990000Y-68600000D03*
%TO.P,J1,A12*%
%TO.N,GND*%
X156990000Y-67800000D03*
%TD*%
%TO.P,J2,A12*%
%TO.N,GND*%
X156990000Y-79300000D03*
%TO.P,J2,A9*%
%TO.N,+5V*%
X156990000Y-80100000D03*
%TO.P,J2,B1*%
%TO.N,GND*%
X156990000Y-79300000D03*
%TO.P,J2,B4*%
%TO.N,+5V*%
X156990000Y-80100000D03*
%TO.P,J2,B12*%
%TO.N,GND*%
X156990000Y-85700000D03*
%TO.P,J2,A1*%
X156990000Y-85700000D03*
%TO.P,J2,B9*%
%TO.N,+5V*%
X156990000Y-84900000D03*
%TO.P,J2,A4*%
X156990000Y-84900000D03*
D12*
%TO.P,J2,B5*%
%TO.N,Net-(J2-PadB5)*%
X156990000Y-80750000D03*
%TO.P,J2,B6*%
%TO.N,Net-(J2-PadA6)*%
X156990000Y-81750000D03*
%TO.P,J2,A8*%
%TO.N,N/C*%
X156990000Y-81250000D03*
%TO.P,J2,A5*%
%TO.N,Net-(J2-PadA5)*%
X156990000Y-83750000D03*
%TO.P,J2,B8*%
%TO.N,N/C*%
X156990000Y-84250000D03*
%TO.P,J2,A7*%
%TO.N,Net-(J2-PadA7)*%
X156990000Y-82250000D03*
%TO.P,J2,A6*%
%TO.N,Net-(J2-PadA6)*%
X156990000Y-82750000D03*
%TO.P,J2,B7*%
%TO.N,Net-(J2-PadA7)*%
X156990000Y-83250000D03*
D11*
%TO.P,J2,S1*%
%TO.N,GND*%
X161740000Y-78180000D03*
X161740000Y-86820000D03*
D10*
X157570000Y-78180000D03*
X157570000Y-86820000D03*
%TD*%
D14*
%TO.P,J3,1*%
%TO.N,/P1*%
X136600000Y-67800000D03*
D15*
%TO.P,J3,2*%
%TO.N,/P2*%
X134060000Y-67800000D03*
%TO.P,J3,3*%
%TO.N,/P3*%
X136600000Y-70340000D03*
%TO.P,J3,4*%
%TO.N,/P4*%
X134060000Y-70340000D03*
%TO.P,J3,5*%
%TO.N,/P5*%
X136600000Y-72880000D03*
%TO.P,J3,6*%
%TO.N,/P6*%
X134060000Y-72880000D03*
%TO.P,J3,7*%
%TO.N,/P7*%
X136600000Y-75420000D03*
%TO.P,J3,8*%
%TO.N,/P8*%
X134060000Y-75420000D03*
%TO.P,J3,9*%
%TO.N,/P9*%
X136600000Y-77960000D03*
%TO.P,J3,10*%
%TO.N,/P10*%
X134060000Y-77960000D03*
%TO.P,J3,11*%
%TO.N,/P11*%
X136600000Y-80500000D03*
%TO.P,J3,12*%
%TO.N,/P12*%
X134060000Y-80500000D03*
%TO.P,J3,13*%
%TO.N,/P13*%
X136600000Y-83040000D03*
%TO.P,J3,14*%
%TO.N,/P14*%
X134060000Y-83040000D03*
%TO.P,J3,15*%
%TO.N,/P15*%
X136600000Y-85580000D03*
%TO.P,J3,16*%
%TO.N,/P16*%
X134060000Y-85580000D03*
%TO.P,J3,17*%
%TO.N,/P17*%
X136600000Y-88120000D03*
%TO.P,J3,18*%
%TO.N,/P18*%
X134060000Y-88120000D03*
%TO.P,J3,19*%
%TO.N,/P19*%
X136600000Y-90660000D03*
%TO.P,J3,20*%
%TO.N,/P20*%
X134060000Y-90660000D03*
%TO.P,J3,21*%
%TO.N,/P21*%
X136600000Y-93200000D03*
%TO.P,J3,22*%
%TO.N,/P22*%
X134060000Y-93200000D03*
%TO.P,J3,23*%
%TO.N,/P23*%
X136600000Y-95740000D03*
%TO.P,J3,24*%
%TO.N,/P24*%
X134060000Y-95740000D03*
%TO.P,J3,25*%
%TO.N,/P25*%
X136600000Y-98280000D03*
%TO.P,J3,26*%
%TO.N,/P26*%
X134060000Y-98280000D03*
%TO.P,J3,27*%
%TO.N,/P27*%
X136600000Y-100820000D03*
%TO.P,J3,28*%
%TO.N,/P28*%
X134060000Y-100820000D03*
%TO.P,J3,29*%
%TO.N,/P29*%
X136600000Y-103360000D03*
%TO.P,J3,30*%
%TO.N,+3V3*%
X134060000Y-103360000D03*
%TO.P,J3,31*%
%TO.N,GND*%
X136600000Y-105900000D03*
%TO.P,J3,32*%
%TO.N,+5V*%
X134060000Y-105900000D03*
%TD*%
%TO.P,R1,2*%
%TO.N,Net-(R1-Pad2)*%
%TA.AperFunction,SMDPad,CuDef*%
G36*
G01*
X140090000Y-105400000D02*
X140090000Y-105200000D01*
G75*
G02*
X140190000Y-105100000I100000J0D01*
G01*
X140450000Y-105100000D01*
G75*
G02*
X140550000Y-105200000I0J-100000D01*
G01*
X140550000Y-105400000D01*
G75*
G02*
X140450000Y-105500000I-100000J0D01*
G01*
X140190000Y-105500000D01*
G75*
G02*
X140090000Y-105400000I0J100000D01*
G01*
G37*
%TD.AperFunction*%
%TO.P,R1,1*%
%TO.N,+3V3*%
%TA.AperFunction,SMDPad,CuDef*%
G36*
G01*
X139450000Y-105400000D02*
X139450000Y-105200000D01*
G75*
G02*
X139550000Y-105100000I100000J0D01*
G01*
X139810000Y-105100000D01*
G75*
G02*
X139910000Y-105200000I0J-100000D01*
G01*
X139910000Y-105400000D01*
G75*
G02*
X139810000Y-105500000I-100000J0D01*
G01*
X139550000Y-105500000D01*
G75*
G02*
X139450000Y-105400000I0J100000D01*
G01*
G37*
%TD.AperFunction*%
%TD*%
%TO.P,R2,1*%
%TO.N,Net-(R2-Pad1)*%
%TA.AperFunction,SMDPad,CuDef*%
G36*
G01*
X140550000Y-102700000D02*
X140550000Y-102900000D01*
G75*
G02*
X140450000Y-103000000I-100000J0D01*
G01*
X140190000Y-103000000D01*
G75*
G02*
X140090000Y-102900000I0J100000D01*
G01*
X140090000Y-102700000D01*
G75*
G02*
X140190000Y-102600000I100000J0D01*
G01*
X140450000Y-102600000D01*
G75*
G02*
X140550000Y-102700000I0J-100000D01*
G01*
G37*
%TD.AperFunction*%
%TO.P,R2,2*%
%TO.N,+3V3*%
%TA.AperFunction,SMDPad,CuDef*%
G36*
G01*
X139910000Y-102700000D02*
X139910000Y-102900000D01*
G75*
G02*
X139810000Y-103000000I-100000J0D01*
G01*
X139550000Y-103000000D01*
G75*
G02*
X139450000Y-102900000I0J100000D01*
G01*
X139450000Y-102700000D01*
G75*
G02*
X139550000Y-102600000I100000J0D01*
G01*
X139810000Y-102600000D01*
G75*
G02*
X139910000Y-102700000I0J-100000D01*
G01*
G37*
%TD.AperFunction*%
%TD*%
%TO.P,R3,2*%
%TO.N,Net-(J1-PadA5)*%
%TA.AperFunction,SMDPad,CuDef*%
G36*
G01*
X154870000Y-72300000D02*
X154870000Y-72100000D01*
G75*
G02*
X154970000Y-72000000I100000J0D01*
G01*
X155230000Y-72000000D01*
G75*
G02*
X155330000Y-72100000I0J-100000D01*
G01*
X155330000Y-72300000D01*
G75*
G02*
X155230000Y-72400000I-100000J0D01*
G01*
X154970000Y-72400000D01*
G75*
G02*
X154870000Y-72300000I0J100000D01*
G01*
G37*
%TD.AperFunction*%
%TO.P,R3,1*%
%TO.N,GND*%
%TA.AperFunction,SMDPad,CuDef*%
G36*
G01*
X154230000Y-72300000D02*
X154230000Y-72100000D01*
G75*
G02*
X154330000Y-72000000I100000J0D01*
G01*
X154590000Y-72000000D01*
G75*
G02*
X154690000Y-72100000I0J-100000D01*
G01*
X154690000Y-72300000D01*
G75*
G02*
X154590000Y-72400000I-100000J0D01*
G01*
X154330000Y-72400000D01*
G75*
G02*
X154230000Y-72300000I0J100000D01*
G01*
G37*
%TD.AperFunction*%
%TD*%
%TO.P,R4,1*%
%TO.N,Net-(R4-Pad1)*%
%TA.AperFunction,SMDPad,CuDef*%
G36*
G01*
X141750000Y-76900000D02*
X141750000Y-77100000D01*
G75*
G02*
X141650000Y-77200000I-100000J0D01*
G01*
X141390000Y-77200000D01*
G75*
G02*
X141290000Y-77100000I0J100000D01*
G01*
X141290000Y-76900000D01*
G75*
G02*
X141390000Y-76800000I100000J0D01*
G01*
X141650000Y-76800000D01*
G75*
G02*
X141750000Y-76900000I0J-100000D01*
G01*
G37*
%TD.AperFunction*%
%TO.P,R4,2*%
%TO.N,Net-(J1-PadA6)*%
%TA.AperFunction,SMDPad,CuDef*%
G36*
G01*
X141110000Y-76900000D02*
X141110000Y-77100000D01*
G75*
G02*
X141010000Y-77200000I-100000J0D01*
G01*
X140750000Y-77200000D01*
G75*
G02*
X140650000Y-77100000I0J100000D01*
G01*
X140650000Y-76900000D01*
G75*
G02*
X140750000Y-76800000I100000J0D01*
G01*
X141010000Y-76800000D01*
G75*
G02*
X141110000Y-76900000I0J-100000D01*
G01*
G37*
%TD.AperFunction*%
%TD*%
%TO.P,R5,2*%
%TO.N,Net-(J1-PadA7)*%
%TA.AperFunction,SMDPad,CuDef*%
G36*
G01*
X141110000Y-78200000D02*
X141110000Y-78400000D01*
G75*
G02*
X141010000Y-78500000I-100000J0D01*
G01*
X140750000Y-78500000D01*
G75*
G02*
X140650000Y-78400000I0J100000D01*
G01*
X140650000Y-78200000D01*
G75*
G02*
X140750000Y-78100000I100000J0D01*
G01*
X141010000Y-78100000D01*
G75*
G02*
X141110000Y-78200000I0J-100000D01*
G01*
G37*
%TD.AperFunction*%
%TO.P,R5,1*%
%TO.N,Net-(R5-Pad1)*%
%TA.AperFunction,SMDPad,CuDef*%
G36*
G01*
X141750000Y-78200000D02*
X141750000Y-78400000D01*
G75*
G02*
X141650000Y-78500000I-100000J0D01*
G01*
X141390000Y-78500000D01*
G75*
G02*
X141290000Y-78400000I0J100000D01*
G01*
X141290000Y-78200000D01*
G75*
G02*
X141390000Y-78100000I100000J0D01*
G01*
X141650000Y-78100000D01*
G75*
G02*
X141750000Y-78200000I0J-100000D01*
G01*
G37*
%TD.AperFunction*%
%TD*%
%TO.P,R6,2*%
%TO.N,/NRST*%
%TA.AperFunction,SMDPad,CuDef*%
G36*
G01*
X162590000Y-99500000D02*
X162590000Y-99300000D01*
G75*
G02*
X162690000Y-99200000I100000J0D01*
G01*
X162950000Y-99200000D01*
G75*
G02*
X163050000Y-99300000I0J-100000D01*
G01*
X163050000Y-99500000D01*
G75*
G02*
X162950000Y-99600000I-100000J0D01*
G01*
X162690000Y-99600000D01*
G75*
G02*
X162590000Y-99500000I0J100000D01*
G01*
G37*
%TD.AperFunction*%
%TO.P,R6,1*%
%TO.N,+3V3*%
%TA.AperFunction,SMDPad,CuDef*%
G36*
G01*
X161950000Y-99500000D02*
X161950000Y-99300000D01*
G75*
G02*
X162050000Y-99200000I100000J0D01*
G01*
X162310000Y-99200000D01*
G75*
G02*
X162410000Y-99300000I0J-100000D01*
G01*
X162410000Y-99500000D01*
G75*
G02*
X162310000Y-99600000I-100000J0D01*
G01*
X162050000Y-99600000D01*
G75*
G02*
X161950000Y-99500000I0J100000D01*
G01*
G37*
%TD.AperFunction*%
%TD*%
%TO.P,R7,1*%
%TO.N,GND*%
%TA.AperFunction,SMDPad,CuDef*%
G36*
G01*
X154250000Y-69400000D02*
X154250000Y-69200000D01*
G75*
G02*
X154350000Y-69100000I100000J0D01*
G01*
X154610000Y-69100000D01*
G75*
G02*
X154710000Y-69200000I0J-100000D01*
G01*
X154710000Y-69400000D01*
G75*
G02*
X154610000Y-69500000I-100000J0D01*
G01*
X154350000Y-69500000D01*
G75*
G02*
X154250000Y-69400000I0J100000D01*
G01*
G37*
%TD.AperFunction*%
%TO.P,R7,2*%
%TO.N,Net-(J1-PadB5)*%
%TA.AperFunction,SMDPad,CuDef*%
G36*
G01*
X154890000Y-69400000D02*
X154890000Y-69200000D01*
G75*
G02*
X154990000Y-69100000I100000J0D01*
G01*
X155250000Y-69100000D01*
G75*
G02*
X155350000Y-69200000I0J-100000D01*
G01*
X155350000Y-69400000D01*
G75*
G02*
X155250000Y-69500000I-100000J0D01*
G01*
X154990000Y-69500000D01*
G75*
G02*
X154890000Y-69400000I0J100000D01*
G01*
G37*
%TD.AperFunction*%
%TD*%
%TO.P,R8,2*%
%TO.N,/BOOT1*%
%TA.AperFunction,SMDPad,CuDef*%
G36*
G01*
X151910000Y-105300000D02*
X151910000Y-105500000D01*
G75*
G02*
X151810000Y-105600000I-100000J0D01*
G01*
X151550000Y-105600000D01*
G75*
G02*
X151450000Y-105500000I0J100000D01*
G01*
X151450000Y-105300000D01*
G75*
G02*
X151550000Y-105200000I100000J0D01*
G01*
X151810000Y-105200000D01*
G75*
G02*
X151910000Y-105300000I0J-100000D01*
G01*
G37*
%TD.AperFunction*%
%TO.P,R8,1*%
%TO.N,GND*%
%TA.AperFunction,SMDPad,CuDef*%
G36*
G01*
X152550000Y-105300000D02*
X152550000Y-105500000D01*
G75*
G02*
X152450000Y-105600000I-100000J0D01*
G01*
X152190000Y-105600000D01*
G75*
G02*
X152090000Y-105500000I0J100000D01*
G01*
X152090000Y-105300000D01*
G75*
G02*
X152190000Y-105200000I100000J0D01*
G01*
X152450000Y-105200000D01*
G75*
G02*
X152550000Y-105300000I0J-100000D01*
G01*
G37*
%TD.AperFunction*%
%TD*%
%TO.P,R9,1*%
%TO.N,GND*%
%TA.AperFunction,SMDPad,CuDef*%
G36*
G01*
X152550000Y-102700000D02*
X152550000Y-102900000D01*
G75*
G02*
X152450000Y-103000000I-100000J0D01*
G01*
X152190000Y-103000000D01*
G75*
G02*
X152090000Y-102900000I0J100000D01*
G01*
X152090000Y-102700000D01*
G75*
G02*
X152190000Y-102600000I100000J0D01*
G01*
X152450000Y-102600000D01*
G75*
G02*
X152550000Y-102700000I0J-100000D01*
G01*
G37*
%TD.AperFunction*%
%TO.P,R9,2*%
%TO.N,/BOOT0*%
%TA.AperFunction,SMDPad,CuDef*%
G36*
G01*
X151910000Y-102700000D02*
X151910000Y-102900000D01*
G75*
G02*
X151810000Y-103000000I-100000J0D01*
G01*
X151550000Y-103000000D01*
G75*
G02*
X151450000Y-102900000I0J100000D01*
G01*
X151450000Y-102700000D01*
G75*
G02*
X151550000Y-102600000I100000J0D01*
G01*
X151810000Y-102600000D01*
G75*
G02*
X151910000Y-102700000I0J-100000D01*
G01*
G37*
%TD.AperFunction*%
%TD*%
%TO.P,R10,2*%
%TO.N,Net-(J2-PadB5)*%
%TA.AperFunction,SMDPad,CuDef*%
G36*
G01*
X154870000Y-80800000D02*
X154870000Y-80600000D01*
G75*
G02*
X154970000Y-80500000I100000J0D01*
G01*
X155230000Y-80500000D01*
G75*
G02*
X155330000Y-80600000I0J-100000D01*
G01*
X155330000Y-80800000D01*
G75*
G02*
X155230000Y-80900000I-100000J0D01*
G01*
X154970000Y-80900000D01*
G75*
G02*
X154870000Y-80800000I0J100000D01*
G01*
G37*
%TD.AperFunction*%
%TO.P,R10,1*%
%TO.N,GND*%
%TA.AperFunction,SMDPad,CuDef*%
G36*
G01*
X154230000Y-80800000D02*
X154230000Y-80600000D01*
G75*
G02*
X154330000Y-80500000I100000J0D01*
G01*
X154590000Y-80500000D01*
G75*
G02*
X154690000Y-80600000I0J-100000D01*
G01*
X154690000Y-80800000D01*
G75*
G02*
X154590000Y-80900000I-100000J0D01*
G01*
X154330000Y-80900000D01*
G75*
G02*
X154230000Y-80800000I0J100000D01*
G01*
G37*
%TD.AperFunction*%
%TD*%
%TO.P,R11,1*%
%TO.N,/USBDP*%
%TA.AperFunction,SMDPad,CuDef*%
G36*
G01*
X159500000Y-91195000D02*
X159300000Y-91195000D01*
G75*
G02*
X159200000Y-91095000I0J100000D01*
G01*
X159200000Y-90835000D01*
G75*
G02*
X159300000Y-90735000I100000J0D01*
G01*
X159500000Y-90735000D01*
G75*
G02*
X159600000Y-90835000I0J-100000D01*
G01*
X159600000Y-91095000D01*
G75*
G02*
X159500000Y-91195000I-100000J0D01*
G01*
G37*
%TD.AperFunction*%
%TO.P,R11,2*%
%TO.N,Net-(J2-PadA6)*%
%TA.AperFunction,SMDPad,CuDef*%
G36*
G01*
X159500000Y-90555000D02*
X159300000Y-90555000D01*
G75*
G02*
X159200000Y-90455000I0J100000D01*
G01*
X159200000Y-90195000D01*
G75*
G02*
X159300000Y-90095000I100000J0D01*
G01*
X159500000Y-90095000D01*
G75*
G02*
X159600000Y-90195000I0J-100000D01*
G01*
X159600000Y-90455000D01*
G75*
G02*
X159500000Y-90555000I-100000J0D01*
G01*
G37*
%TD.AperFunction*%
%TD*%
%TO.P,R12,1*%
%TO.N,/USBDP*%
%TA.AperFunction,SMDPad,CuDef*%
G36*
G01*
X161600000Y-91195000D02*
X161400000Y-91195000D01*
G75*
G02*
X161300000Y-91095000I0J100000D01*
G01*
X161300000Y-90835000D01*
G75*
G02*
X161400000Y-90735000I100000J0D01*
G01*
X161600000Y-90735000D01*
G75*
G02*
X161700000Y-90835000I0J-100000D01*
G01*
X161700000Y-91095000D01*
G75*
G02*
X161600000Y-91195000I-100000J0D01*
G01*
G37*
%TD.AperFunction*%
%TO.P,R12,2*%
%TO.N,/USB_PULLUP*%
%TA.AperFunction,SMDPad,CuDef*%
G36*
G01*
X161600000Y-90555000D02*
X161400000Y-90555000D01*
G75*
G02*
X161300000Y-90455000I0J100000D01*
G01*
X161300000Y-90195000D01*
G75*
G02*
X161400000Y-90095000I100000J0D01*
G01*
X161600000Y-90095000D01*
G75*
G02*
X161700000Y-90195000I0J-100000D01*
G01*
X161700000Y-90455000D01*
G75*
G02*
X161600000Y-90555000I-100000J0D01*
G01*
G37*
%TD.AperFunction*%
%TD*%
%TO.P,R13,1*%
%TO.N,GND*%
%TA.AperFunction,SMDPad,CuDef*%
G36*
G01*
X154250000Y-83800000D02*
X154250000Y-83600000D01*
G75*
G02*
X154350000Y-83500000I100000J0D01*
G01*
X154610000Y-83500000D01*
G75*
G02*
X154710000Y-83600000I0J-100000D01*
G01*
X154710000Y-83800000D01*
G75*
G02*
X154610000Y-83900000I-100000J0D01*
G01*
X154350000Y-83900000D01*
G75*
G02*
X154250000Y-83800000I0J100000D01*
G01*
G37*
%TD.AperFunction*%
%TO.P,R13,2*%
%TO.N,Net-(J2-PadA5)*%
%TA.AperFunction,SMDPad,CuDef*%
G36*
G01*
X154890000Y-83800000D02*
X154890000Y-83600000D01*
G75*
G02*
X154990000Y-83500000I100000J0D01*
G01*
X155250000Y-83500000D01*
G75*
G02*
X155350000Y-83600000I0J-100000D01*
G01*
X155350000Y-83800000D01*
G75*
G02*
X155250000Y-83900000I-100000J0D01*
G01*
X154990000Y-83900000D01*
G75*
G02*
X154890000Y-83800000I0J100000D01*
G01*
G37*
%TD.AperFunction*%
%TD*%
%TO.P,R14,2*%
%TO.N,Net-(J2-PadA7)*%
%TA.AperFunction,SMDPad,CuDef*%
G36*
G01*
X160500000Y-90555000D02*
X160300000Y-90555000D01*
G75*
G02*
X160200000Y-90455000I0J100000D01*
G01*
X160200000Y-90195000D01*
G75*
G02*
X160300000Y-90095000I100000J0D01*
G01*
X160500000Y-90095000D01*
G75*
G02*
X160600000Y-90195000I0J-100000D01*
G01*
X160600000Y-90455000D01*
G75*
G02*
X160500000Y-90555000I-100000J0D01*
G01*
G37*
%TD.AperFunction*%
%TO.P,R14,1*%
%TO.N,/USBDM*%
%TA.AperFunction,SMDPad,CuDef*%
G36*
G01*
X160500000Y-91195000D02*
X160300000Y-91195000D01*
G75*
G02*
X160200000Y-91095000I0J100000D01*
G01*
X160200000Y-90835000D01*
G75*
G02*
X160300000Y-90735000I100000J0D01*
G01*
X160500000Y-90735000D01*
G75*
G02*
X160600000Y-90835000I0J-100000D01*
G01*
X160600000Y-91095000D01*
G75*
G02*
X160500000Y-91195000I-100000J0D01*
G01*
G37*
%TD.AperFunction*%
%TD*%
D16*
%TO.P,SW1,1*%
%TO.N,Net-(R2-Pad1)*%
X142200000Y-102800000D03*
D17*
%TO.P,SW1,3*%
%TO.N,/BOOT1*%
X149820000Y-105340000D03*
%TO.P,SW1,2*%
%TO.N,Net-(R1-Pad2)*%
X142200000Y-105340000D03*
%TO.P,SW1,4*%
%TO.N,/BOOT0*%
X149820000Y-102800000D03*
%TD*%
D18*
%TO.P,SW2,2*%
%TO.N,GND*%
X156900000Y-106000000D03*
%TO.P,SW2,1*%
%TO.N,/NRST*%
X156900000Y-101500000D03*
%TO.P,SW2,2*%
%TO.N,GND*%
X163400000Y-106000000D03*
%TO.P,SW2,1*%
%TO.N,/NRST*%
X163400000Y-101500000D03*
%TD*%
D19*
%TO.P,U1,4*%
%TO.N,N/C*%
X140050000Y-69600000D03*
D20*
%TO.P,U1,2*%
%TO.N,+3V3*%
X146350000Y-69600000D03*
%TO.P,U1,3*%
%TO.N,+5V*%
X146350000Y-67300000D03*
%TO.P,U1,1*%
%TO.N,GND*%
X146350000Y-71900000D03*
%TD*%
%TO.P,U2,1*%
%TO.N,Net-(R4-Pad1)*%
%TA.AperFunction,SMDPad,CuDef*%
G36*
G01*
X142550000Y-77145000D02*
X142550000Y-76845000D01*
G75*
G02*
X142700000Y-76695000I150000J0D01*
G01*
X144350000Y-76695000D01*
G75*
G02*
X144500000Y-76845000I0J-150000D01*
G01*
X144500000Y-77145000D01*
G75*
G02*
X144350000Y-77295000I-150000J0D01*
G01*
X142700000Y-77295000D01*
G75*
G02*
X142550000Y-77145000I0J150000D01*
G01*
G37*
%TD.AperFunction*%
%TO.P,U2,2*%
%TO.N,Net-(R5-Pad1)*%
%TA.AperFunction,SMDPad,CuDef*%
G36*
G01*
X142550000Y-78415000D02*
X142550000Y-78115000D01*
G75*
G02*
X142700000Y-77965000I150000J0D01*
G01*
X144350000Y-77965000D01*
G75*
G02*
X144500000Y-78115000I0J-150000D01*
G01*
X144500000Y-78415000D01*
G75*
G02*
X144350000Y-78565000I-150000J0D01*
G01*
X142700000Y-78565000D01*
G75*
G02*
X142550000Y-78415000I0J150000D01*
G01*
G37*
%TD.AperFunction*%
%TO.P,U2,3*%
%TO.N,GND*%
%TA.AperFunction,SMDPad,CuDef*%
G36*
G01*
X142550000Y-79685000D02*
X142550000Y-79385000D01*
G75*
G02*
X142700000Y-79235000I150000J0D01*
G01*
X144350000Y-79235000D01*
G75*
G02*
X144500000Y-79385000I0J-150000D01*
G01*
X144500000Y-79685000D01*
G75*
G02*
X144350000Y-79835000I-150000J0D01*
G01*
X142700000Y-79835000D01*
G75*
G02*
X142550000Y-79685000I0J150000D01*
G01*
G37*
%TD.AperFunction*%
%TO.P,U2,4*%
%TO.N,N/C*%
%TA.AperFunction,SMDPad,CuDef*%
G36*
G01*
X142550000Y-80955000D02*
X142550000Y-80655000D01*
G75*
G02*
X142700000Y-80505000I150000J0D01*
G01*
X144350000Y-80505000D01*
G75*
G02*
X144500000Y-80655000I0J-150000D01*
G01*
X144500000Y-80955000D01*
G75*
G02*
X144350000Y-81105000I-150000J0D01*
G01*
X142700000Y-81105000D01*
G75*
G02*
X142550000Y-80955000I0J150000D01*
G01*
G37*
%TD.AperFunction*%
%TO.P,U2,5*%
%TO.N,+3V3*%
%TA.AperFunction,SMDPad,CuDef*%
G36*
G01*
X147500000Y-80955000D02*
X147500000Y-80655000D01*
G75*
G02*
X147650000Y-80505000I150000J0D01*
G01*
X149300000Y-80505000D01*
G75*
G02*
X149450000Y-80655000I0J-150000D01*
G01*
X149450000Y-80955000D01*
G75*
G02*
X149300000Y-81105000I-150000J0D01*
G01*
X147650000Y-81105000D01*
G75*
G02*
X147500000Y-80955000I0J150000D01*
G01*
G37*
%TD.AperFunction*%
%TO.P,U2,6*%
%TO.N,/USART1_RX*%
%TA.AperFunction,SMDPad,CuDef*%
G36*
G01*
X147500000Y-79685000D02*
X147500000Y-79385000D01*
G75*
G02*
X147650000Y-79235000I150000J0D01*
G01*
X149300000Y-79235000D01*
G75*
G02*
X149450000Y-79385000I0J-150000D01*
G01*
X149450000Y-79685000D01*
G75*
G02*
X149300000Y-79835000I-150000J0D01*
G01*
X147650000Y-79835000D01*
G75*
G02*
X147500000Y-79685000I0J150000D01*
G01*
G37*
%TD.AperFunction*%
%TO.P,U2,7*%
%TO.N,/USART1_TX*%
%TA.AperFunction,SMDPad,CuDef*%
G36*
G01*
X147500000Y-78415000D02*
X147500000Y-78115000D01*
G75*
G02*
X147650000Y-77965000I150000J0D01*
G01*
X149300000Y-77965000D01*
G75*
G02*
X149450000Y-78115000I0J-150000D01*
G01*
X149450000Y-78415000D01*
G75*
G02*
X149300000Y-78565000I-150000J0D01*
G01*
X147650000Y-78565000D01*
G75*
G02*
X147500000Y-78415000I0J150000D01*
G01*
G37*
%TD.AperFunction*%
%TO.P,U2,8*%
%TO.N,+3V3*%
%TA.AperFunction,SMDPad,CuDef*%
G36*
G01*
X147500000Y-77145000D02*
X147500000Y-76845000D01*
G75*
G02*
X147650000Y-76695000I150000J0D01*
G01*
X149300000Y-76695000D01*
G75*
G02*
X149450000Y-76845000I0J-150000D01*
G01*
X149450000Y-77145000D01*
G75*
G02*
X149300000Y-77295000I-150000J0D01*
G01*
X147650000Y-77295000D01*
G75*
G02*
X147500000Y-77145000I0J150000D01*
G01*
G37*
%TD.AperFunction*%
%TD*%
%TO.P,U3,1*%
%TO.N,+3V3*%
%TA.AperFunction,SMDPad,CuDef*%
G36*
G01*
X147500000Y-89425000D02*
X147500000Y-89275000D01*
G75*
G02*
X147575000Y-89200000I75000J0D01*
G01*
X148900000Y-89200000D01*
G75*
G02*
X148975000Y-89275000I0J-75000D01*
G01*
X148975000Y-89425000D01*
G75*
G02*
X148900000Y-89500000I-75000J0D01*
G01*
X147575000Y-89500000D01*
G75*
G02*
X147500000Y-89425000I0J75000D01*
G01*
G37*
%TD.AperFunction*%
%TO.P,U3,2*%
%TO.N,/P10*%
%TA.AperFunction,SMDPad,CuDef*%
G36*
G01*
X147500000Y-89925000D02*
X147500000Y-89775000D01*
G75*
G02*
X147575000Y-89700000I75000J0D01*
G01*
X148900000Y-89700000D01*
G75*
G02*
X148975000Y-89775000I0J-75000D01*
G01*
X148975000Y-89925000D01*
G75*
G02*
X148900000Y-90000000I-75000J0D01*
G01*
X147575000Y-90000000D01*
G75*
G02*
X147500000Y-89925000I0J75000D01*
G01*
G37*
%TD.AperFunction*%
%TO.P,U3,3*%
%TO.N,/P11*%
%TA.AperFunction,SMDPad,CuDef*%
G36*
G01*
X147500000Y-90425000D02*
X147500000Y-90275000D01*
G75*
G02*
X147575000Y-90200000I75000J0D01*
G01*
X148900000Y-90200000D01*
G75*
G02*
X148975000Y-90275000I0J-75000D01*
G01*
X148975000Y-90425000D01*
G75*
G02*
X148900000Y-90500000I-75000J0D01*
G01*
X147575000Y-90500000D01*
G75*
G02*
X147500000Y-90425000I0J75000D01*
G01*
G37*
%TD.AperFunction*%
%TO.P,U3,4*%
%TO.N,/P12*%
%TA.AperFunction,SMDPad,CuDef*%
G36*
G01*
X147500000Y-90925000D02*
X147500000Y-90775000D01*
G75*
G02*
X147575000Y-90700000I75000J0D01*
G01*
X148900000Y-90700000D01*
G75*
G02*
X148975000Y-90775000I0J-75000D01*
G01*
X148975000Y-90925000D01*
G75*
G02*
X148900000Y-91000000I-75000J0D01*
G01*
X147575000Y-91000000D01*
G75*
G02*
X147500000Y-90925000I0J75000D01*
G01*
G37*
%TD.AperFunction*%
%TO.P,U3,5*%
%TO.N,Net-(C13-Pad1)*%
%TA.AperFunction,SMDPad,CuDef*%
G36*
G01*
X147500000Y-91425000D02*
X147500000Y-91275000D01*
G75*
G02*
X147575000Y-91200000I75000J0D01*
G01*
X148900000Y-91200000D01*
G75*
G02*
X148975000Y-91275000I0J-75000D01*
G01*
X148975000Y-91425000D01*
G75*
G02*
X148900000Y-91500000I-75000J0D01*
G01*
X147575000Y-91500000D01*
G75*
G02*
X147500000Y-91425000I0J75000D01*
G01*
G37*
%TD.AperFunction*%
%TO.P,U3,6*%
%TO.N,Net-(C14-Pad1)*%
%TA.AperFunction,SMDPad,CuDef*%
G36*
G01*
X147500000Y-91925000D02*
X147500000Y-91775000D01*
G75*
G02*
X147575000Y-91700000I75000J0D01*
G01*
X148900000Y-91700000D01*
G75*
G02*
X148975000Y-91775000I0J-75000D01*
G01*
X148975000Y-91925000D01*
G75*
G02*
X148900000Y-92000000I-75000J0D01*
G01*
X147575000Y-92000000D01*
G75*
G02*
X147500000Y-91925000I0J75000D01*
G01*
G37*
%TD.AperFunction*%
%TO.P,U3,7*%
%TO.N,/NRST*%
%TA.AperFunction,SMDPad,CuDef*%
G36*
G01*
X147500000Y-92425000D02*
X147500000Y-92275000D01*
G75*
G02*
X147575000Y-92200000I75000J0D01*
G01*
X148900000Y-92200000D01*
G75*
G02*
X148975000Y-92275000I0J-75000D01*
G01*
X148975000Y-92425000D01*
G75*
G02*
X148900000Y-92500000I-75000J0D01*
G01*
X147575000Y-92500000D01*
G75*
G02*
X147500000Y-92425000I0J75000D01*
G01*
G37*
%TD.AperFunction*%
%TO.P,U3,8*%
%TO.N,GND*%
%TA.AperFunction,SMDPad,CuDef*%
G36*
G01*
X147500000Y-92925000D02*
X147500000Y-92775000D01*
G75*
G02*
X147575000Y-92700000I75000J0D01*
G01*
X148900000Y-92700000D01*
G75*
G02*
X148975000Y-92775000I0J-75000D01*
G01*
X148975000Y-92925000D01*
G75*
G02*
X148900000Y-93000000I-75000J0D01*
G01*
X147575000Y-93000000D01*
G75*
G02*
X147500000Y-92925000I0J75000D01*
G01*
G37*
%TD.AperFunction*%
%TO.P,U3,9*%
%TO.N,+3V3*%
%TA.AperFunction,SMDPad,CuDef*%
G36*
G01*
X147500000Y-93425000D02*
X147500000Y-93275000D01*
G75*
G02*
X147575000Y-93200000I75000J0D01*
G01*
X148900000Y-93200000D01*
G75*
G02*
X148975000Y-93275000I0J-75000D01*
G01*
X148975000Y-93425000D01*
G75*
G02*
X148900000Y-93500000I-75000J0D01*
G01*
X147575000Y-93500000D01*
G75*
G02*
X147500000Y-93425000I0J75000D01*
G01*
G37*
%TD.AperFunction*%
%TO.P,U3,10*%
%TO.N,/P13*%
%TA.AperFunction,SMDPad,CuDef*%
G36*
G01*
X147500000Y-93925000D02*
X147500000Y-93775000D01*
G75*
G02*
X147575000Y-93700000I75000J0D01*
G01*
X148900000Y-93700000D01*
G75*
G02*
X148975000Y-93775000I0J-75000D01*
G01*
X148975000Y-93925000D01*
G75*
G02*
X148900000Y-94000000I-75000J0D01*
G01*
X147575000Y-94000000D01*
G75*
G02*
X147500000Y-93925000I0J75000D01*
G01*
G37*
%TD.AperFunction*%
%TO.P,U3,11*%
%TO.N,/P14*%
%TA.AperFunction,SMDPad,CuDef*%
G36*
G01*
X147500000Y-94425000D02*
X147500000Y-94275000D01*
G75*
G02*
X147575000Y-94200000I75000J0D01*
G01*
X148900000Y-94200000D01*
G75*
G02*
X148975000Y-94275000I0J-75000D01*
G01*
X148975000Y-94425000D01*
G75*
G02*
X148900000Y-94500000I-75000J0D01*
G01*
X147575000Y-94500000D01*
G75*
G02*
X147500000Y-94425000I0J75000D01*
G01*
G37*
%TD.AperFunction*%
%TO.P,U3,12*%
%TO.N,/P15*%
%TA.AperFunction,SMDPad,CuDef*%
G36*
G01*
X147500000Y-94925000D02*
X147500000Y-94775000D01*
G75*
G02*
X147575000Y-94700000I75000J0D01*
G01*
X148900000Y-94700000D01*
G75*
G02*
X148975000Y-94775000I0J-75000D01*
G01*
X148975000Y-94925000D01*
G75*
G02*
X148900000Y-95000000I-75000J0D01*
G01*
X147575000Y-95000000D01*
G75*
G02*
X147500000Y-94925000I0J75000D01*
G01*
G37*
%TD.AperFunction*%
%TO.P,U3,13*%
%TO.N,/P16*%
%TA.AperFunction,SMDPad,CuDef*%
G36*
G01*
X149500000Y-96925000D02*
X149500000Y-95600000D01*
G75*
G02*
X149575000Y-95525000I75000J0D01*
G01*
X149725000Y-95525000D01*
G75*
G02*
X149800000Y-95600000I0J-75000D01*
G01*
X149800000Y-96925000D01*
G75*
G02*
X149725000Y-97000000I-75000J0D01*
G01*
X149575000Y-97000000D01*
G75*
G02*
X149500000Y-96925000I0J75000D01*
G01*
G37*
%TD.AperFunction*%
%TO.P,U3,14*%
%TO.N,/P17*%
%TA.AperFunction,SMDPad,CuDef*%
G36*
G01*
X150000000Y-96925000D02*
X150000000Y-95600000D01*
G75*
G02*
X150075000Y-95525000I75000J0D01*
G01*
X150225000Y-95525000D01*
G75*
G02*
X150300000Y-95600000I0J-75000D01*
G01*
X150300000Y-96925000D01*
G75*
G02*
X150225000Y-97000000I-75000J0D01*
G01*
X150075000Y-97000000D01*
G75*
G02*
X150000000Y-96925000I0J75000D01*
G01*
G37*
%TD.AperFunction*%
%TO.P,U3,15*%
%TO.N,/P18*%
%TA.AperFunction,SMDPad,CuDef*%
G36*
G01*
X150500000Y-96925000D02*
X150500000Y-95600000D01*
G75*
G02*
X150575000Y-95525000I75000J0D01*
G01*
X150725000Y-95525000D01*
G75*
G02*
X150800000Y-95600000I0J-75000D01*
G01*
X150800000Y-96925000D01*
G75*
G02*
X150725000Y-97000000I-75000J0D01*
G01*
X150575000Y-97000000D01*
G75*
G02*
X150500000Y-96925000I0J75000D01*
G01*
G37*
%TD.AperFunction*%
%TO.P,U3,16*%
%TO.N,/P19*%
%TA.AperFunction,SMDPad,CuDef*%
G36*
G01*
X151000000Y-96925000D02*
X151000000Y-95600000D01*
G75*
G02*
X151075000Y-95525000I75000J0D01*
G01*
X151225000Y-95525000D01*
G75*
G02*
X151300000Y-95600000I0J-75000D01*
G01*
X151300000Y-96925000D01*
G75*
G02*
X151225000Y-97000000I-75000J0D01*
G01*
X151075000Y-97000000D01*
G75*
G02*
X151000000Y-96925000I0J75000D01*
G01*
G37*
%TD.AperFunction*%
%TO.P,U3,17*%
%TO.N,/P20*%
%TA.AperFunction,SMDPad,CuDef*%
G36*
G01*
X151500000Y-96925000D02*
X151500000Y-95600000D01*
G75*
G02*
X151575000Y-95525000I75000J0D01*
G01*
X151725000Y-95525000D01*
G75*
G02*
X151800000Y-95600000I0J-75000D01*
G01*
X151800000Y-96925000D01*
G75*
G02*
X151725000Y-97000000I-75000J0D01*
G01*
X151575000Y-97000000D01*
G75*
G02*
X151500000Y-96925000I0J75000D01*
G01*
G37*
%TD.AperFunction*%
%TO.P,U3,18*%
%TO.N,/P21*%
%TA.AperFunction,SMDPad,CuDef*%
G36*
G01*
X152000000Y-96925000D02*
X152000000Y-95600000D01*
G75*
G02*
X152075000Y-95525000I75000J0D01*
G01*
X152225000Y-95525000D01*
G75*
G02*
X152300000Y-95600000I0J-75000D01*
G01*
X152300000Y-96925000D01*
G75*
G02*
X152225000Y-97000000I-75000J0D01*
G01*
X152075000Y-97000000D01*
G75*
G02*
X152000000Y-96925000I0J75000D01*
G01*
G37*
%TD.AperFunction*%
%TO.P,U3,19*%
%TO.N,/P22*%
%TA.AperFunction,SMDPad,CuDef*%
G36*
G01*
X152500000Y-96925000D02*
X152500000Y-95600000D01*
G75*
G02*
X152575000Y-95525000I75000J0D01*
G01*
X152725000Y-95525000D01*
G75*
G02*
X152800000Y-95600000I0J-75000D01*
G01*
X152800000Y-96925000D01*
G75*
G02*
X152725000Y-97000000I-75000J0D01*
G01*
X152575000Y-97000000D01*
G75*
G02*
X152500000Y-96925000I0J75000D01*
G01*
G37*
%TD.AperFunction*%
%TO.P,U3,20*%
%TO.N,/BOOT1*%
%TA.AperFunction,SMDPad,CuDef*%
G36*
G01*
X153000000Y-96925000D02*
X153000000Y-95600000D01*
G75*
G02*
X153075000Y-95525000I75000J0D01*
G01*
X153225000Y-95525000D01*
G75*
G02*
X153300000Y-95600000I0J-75000D01*
G01*
X153300000Y-96925000D01*
G75*
G02*
X153225000Y-97000000I-75000J0D01*
G01*
X153075000Y-97000000D01*
G75*
G02*
X153000000Y-96925000I0J75000D01*
G01*
G37*
%TD.AperFunction*%
%TO.P,U3,21*%
%TO.N,/P23*%
%TA.AperFunction,SMDPad,CuDef*%
G36*
G01*
X153500000Y-96925000D02*
X153500000Y-95600000D01*
G75*
G02*
X153575000Y-95525000I75000J0D01*
G01*
X153725000Y-95525000D01*
G75*
G02*
X153800000Y-95600000I0J-75000D01*
G01*
X153800000Y-96925000D01*
G75*
G02*
X153725000Y-97000000I-75000J0D01*
G01*
X153575000Y-97000000D01*
G75*
G02*
X153500000Y-96925000I0J75000D01*
G01*
G37*
%TD.AperFunction*%
%TO.P,U3,22*%
%TO.N,/P24*%
%TA.AperFunction,SMDPad,CuDef*%
G36*
G01*
X154000000Y-96925000D02*
X154000000Y-95600000D01*
G75*
G02*
X154075000Y-95525000I75000J0D01*
G01*
X154225000Y-95525000D01*
G75*
G02*
X154300000Y-95600000I0J-75000D01*
G01*
X154300000Y-96925000D01*
G75*
G02*
X154225000Y-97000000I-75000J0D01*
G01*
X154075000Y-97000000D01*
G75*
G02*
X154000000Y-96925000I0J75000D01*
G01*
G37*
%TD.AperFunction*%
%TO.P,U3,23*%
%TO.N,GND*%
%TA.AperFunction,SMDPad,CuDef*%
G36*
G01*
X154500000Y-96925000D02*
X154500000Y-95600000D01*
G75*
G02*
X154575000Y-95525000I75000J0D01*
G01*
X154725000Y-95525000D01*
G75*
G02*
X154800000Y-95600000I0J-75000D01*
G01*
X154800000Y-96925000D01*
G75*
G02*
X154725000Y-97000000I-75000J0D01*
G01*
X154575000Y-97000000D01*
G75*
G02*
X154500000Y-96925000I0J75000D01*
G01*
G37*
%TD.AperFunction*%
%TO.P,U3,24*%
%TO.N,+3V3*%
%TA.AperFunction,SMDPad,CuDef*%
G36*
G01*
X155000000Y-96925000D02*
X155000000Y-95600000D01*
G75*
G02*
X155075000Y-95525000I75000J0D01*
G01*
X155225000Y-95525000D01*
G75*
G02*
X155300000Y-95600000I0J-75000D01*
G01*
X155300000Y-96925000D01*
G75*
G02*
X155225000Y-97000000I-75000J0D01*
G01*
X155075000Y-97000000D01*
G75*
G02*
X155000000Y-96925000I0J75000D01*
G01*
G37*
%TD.AperFunction*%
%TO.P,U3,25*%
%TO.N,/P25*%
%TA.AperFunction,SMDPad,CuDef*%
G36*
G01*
X155825000Y-94925000D02*
X155825000Y-94775000D01*
G75*
G02*
X155900000Y-94700000I75000J0D01*
G01*
X157225000Y-94700000D01*
G75*
G02*
X157300000Y-94775000I0J-75000D01*
G01*
X157300000Y-94925000D01*
G75*
G02*
X157225000Y-95000000I-75000J0D01*
G01*
X155900000Y-95000000D01*
G75*
G02*
X155825000Y-94925000I0J75000D01*
G01*
G37*
%TD.AperFunction*%
%TO.P,U3,26*%
%TO.N,/P26*%
%TA.AperFunction,SMDPad,CuDef*%
G36*
G01*
X155825000Y-94425000D02*
X155825000Y-94275000D01*
G75*
G02*
X155900000Y-94200000I75000J0D01*
G01*
X157225000Y-94200000D01*
G75*
G02*
X157300000Y-94275000I0J-75000D01*
G01*
X157300000Y-94425000D01*
G75*
G02*
X157225000Y-94500000I-75000J0D01*
G01*
X155900000Y-94500000D01*
G75*
G02*
X155825000Y-94425000I0J75000D01*
G01*
G37*
%TD.AperFunction*%
%TO.P,U3,27*%
%TO.N,/P27*%
%TA.AperFunction,SMDPad,CuDef*%
G36*
G01*
X155825000Y-93925000D02*
X155825000Y-93775000D01*
G75*
G02*
X155900000Y-93700000I75000J0D01*
G01*
X157225000Y-93700000D01*
G75*
G02*
X157300000Y-93775000I0J-75000D01*
G01*
X157300000Y-93925000D01*
G75*
G02*
X157225000Y-94000000I-75000J0D01*
G01*
X155900000Y-94000000D01*
G75*
G02*
X155825000Y-93925000I0J75000D01*
G01*
G37*
%TD.AperFunction*%
%TO.P,U3,28*%
%TO.N,/P28*%
%TA.AperFunction,SMDPad,CuDef*%
G36*
G01*
X155825000Y-93425000D02*
X155825000Y-93275000D01*
G75*
G02*
X155900000Y-93200000I75000J0D01*
G01*
X157225000Y-93200000D01*
G75*
G02*
X157300000Y-93275000I0J-75000D01*
G01*
X157300000Y-93425000D01*
G75*
G02*
X157225000Y-93500000I-75000J0D01*
G01*
X155900000Y-93500000D01*
G75*
G02*
X155825000Y-93425000I0J75000D01*
G01*
G37*
%TD.AperFunction*%
%TO.P,U3,29*%
%TO.N,/P29*%
%TA.AperFunction,SMDPad,CuDef*%
G36*
G01*
X155825000Y-92925000D02*
X155825000Y-92775000D01*
G75*
G02*
X155900000Y-92700000I75000J0D01*
G01*
X157225000Y-92700000D01*
G75*
G02*
X157300000Y-92775000I0J-75000D01*
G01*
X157300000Y-92925000D01*
G75*
G02*
X157225000Y-93000000I-75000J0D01*
G01*
X155900000Y-93000000D01*
G75*
G02*
X155825000Y-92925000I0J75000D01*
G01*
G37*
%TD.AperFunction*%
%TO.P,U3,30*%
%TO.N,/USART1_TX*%
%TA.AperFunction,SMDPad,CuDef*%
G36*
G01*
X155825000Y-92425000D02*
X155825000Y-92275000D01*
G75*
G02*
X155900000Y-92200000I75000J0D01*
G01*
X157225000Y-92200000D01*
G75*
G02*
X157300000Y-92275000I0J-75000D01*
G01*
X157300000Y-92425000D01*
G75*
G02*
X157225000Y-92500000I-75000J0D01*
G01*
X155900000Y-92500000D01*
G75*
G02*
X155825000Y-92425000I0J75000D01*
G01*
G37*
%TD.AperFunction*%
%TO.P,U3,31*%
%TO.N,/USART1_RX*%
%TA.AperFunction,SMDPad,CuDef*%
G36*
G01*
X155825000Y-91925000D02*
X155825000Y-91775000D01*
G75*
G02*
X155900000Y-91700000I75000J0D01*
G01*
X157225000Y-91700000D01*
G75*
G02*
X157300000Y-91775000I0J-75000D01*
G01*
X157300000Y-91925000D01*
G75*
G02*
X157225000Y-92000000I-75000J0D01*
G01*
X155900000Y-92000000D01*
G75*
G02*
X155825000Y-91925000I0J75000D01*
G01*
G37*
%TD.AperFunction*%
%TO.P,U3,32*%
%TO.N,/USBDM*%
%TA.AperFunction,SMDPad,CuDef*%
G36*
G01*
X155825000Y-91425000D02*
X155825000Y-91275000D01*
G75*
G02*
X155900000Y-91200000I75000J0D01*
G01*
X157225000Y-91200000D01*
G75*
G02*
X157300000Y-91275000I0J-75000D01*
G01*
X157300000Y-91425000D01*
G75*
G02*
X157225000Y-91500000I-75000J0D01*
G01*
X155900000Y-91500000D01*
G75*
G02*
X155825000Y-91425000I0J75000D01*
G01*
G37*
%TD.AperFunction*%
%TO.P,U3,33*%
%TO.N,/USBDP*%
%TA.AperFunction,SMDPad,CuDef*%
G36*
G01*
X155825000Y-90925000D02*
X155825000Y-90775000D01*
G75*
G02*
X155900000Y-90700000I75000J0D01*
G01*
X157225000Y-90700000D01*
G75*
G02*
X157300000Y-90775000I0J-75000D01*
G01*
X157300000Y-90925000D01*
G75*
G02*
X157225000Y-91000000I-75000J0D01*
G01*
X155900000Y-91000000D01*
G75*
G02*
X155825000Y-90925000I0J75000D01*
G01*
G37*
%TD.AperFunction*%
%TO.P,U3,34*%
%TO.N,/USB_PULLUP*%
%TA.AperFunction,SMDPad,CuDef*%
G36*
G01*
X155825000Y-90425000D02*
X155825000Y-90275000D01*
G75*
G02*
X155900000Y-90200000I75000J0D01*
G01*
X157225000Y-90200000D01*
G75*
G02*
X157300000Y-90275000I0J-75000D01*
G01*
X157300000Y-90425000D01*
G75*
G02*
X157225000Y-90500000I-75000J0D01*
G01*
X155900000Y-90500000D01*
G75*
G02*
X155825000Y-90425000I0J75000D01*
G01*
G37*
%TD.AperFunction*%
%TO.P,U3,35*%
%TO.N,GND*%
%TA.AperFunction,SMDPad,CuDef*%
G36*
G01*
X155825000Y-89925000D02*
X155825000Y-89775000D01*
G75*
G02*
X155900000Y-89700000I75000J0D01*
G01*
X157225000Y-89700000D01*
G75*
G02*
X157300000Y-89775000I0J-75000D01*
G01*
X157300000Y-89925000D01*
G75*
G02*
X157225000Y-90000000I-75000J0D01*
G01*
X155900000Y-90000000D01*
G75*
G02*
X155825000Y-89925000I0J75000D01*
G01*
G37*
%TD.AperFunction*%
%TO.P,U3,36*%
%TO.N,+3V3*%
%TA.AperFunction,SMDPad,CuDef*%
G36*
G01*
X155825000Y-89425000D02*
X155825000Y-89275000D01*
G75*
G02*
X155900000Y-89200000I75000J0D01*
G01*
X157225000Y-89200000D01*
G75*
G02*
X157300000Y-89275000I0J-75000D01*
G01*
X157300000Y-89425000D01*
G75*
G02*
X157225000Y-89500000I-75000J0D01*
G01*
X155900000Y-89500000D01*
G75*
G02*
X155825000Y-89425000I0J75000D01*
G01*
G37*
%TD.AperFunction*%
%TO.P,U3,37*%
%TO.N,/P1*%
%TA.AperFunction,SMDPad,CuDef*%
G36*
G01*
X155000000Y-88600000D02*
X155000000Y-87275000D01*
G75*
G02*
X155075000Y-87200000I75000J0D01*
G01*
X155225000Y-87200000D01*
G75*
G02*
X155300000Y-87275000I0J-75000D01*
G01*
X155300000Y-88600000D01*
G75*
G02*
X155225000Y-88675000I-75000J0D01*
G01*
X155075000Y-88675000D01*
G75*
G02*
X155000000Y-88600000I0J75000D01*
G01*
G37*
%TD.AperFunction*%
%TO.P,U3,38*%
%TO.N,/P2*%
%TA.AperFunction,SMDPad,CuDef*%
G36*
G01*
X154500000Y-88600000D02*
X154500000Y-87275000D01*
G75*
G02*
X154575000Y-87200000I75000J0D01*
G01*
X154725000Y-87200000D01*
G75*
G02*
X154800000Y-87275000I0J-75000D01*
G01*
X154800000Y-88600000D01*
G75*
G02*
X154725000Y-88675000I-75000J0D01*
G01*
X154575000Y-88675000D01*
G75*
G02*
X154500000Y-88600000I0J75000D01*
G01*
G37*
%TD.AperFunction*%
%TO.P,U3,39*%
%TO.N,/P3*%
%TA.AperFunction,SMDPad,CuDef*%
G36*
G01*
X154000000Y-88600000D02*
X154000000Y-87275000D01*
G75*
G02*
X154075000Y-87200000I75000J0D01*
G01*
X154225000Y-87200000D01*
G75*
G02*
X154300000Y-87275000I0J-75000D01*
G01*
X154300000Y-88600000D01*
G75*
G02*
X154225000Y-88675000I-75000J0D01*
G01*
X154075000Y-88675000D01*
G75*
G02*
X154000000Y-88600000I0J75000D01*
G01*
G37*
%TD.AperFunction*%
%TO.P,U3,40*%
%TO.N,/P4*%
%TA.AperFunction,SMDPad,CuDef*%
G36*
G01*
X153500000Y-88600000D02*
X153500000Y-87275000D01*
G75*
G02*
X153575000Y-87200000I75000J0D01*
G01*
X153725000Y-87200000D01*
G75*
G02*
X153800000Y-87275000I0J-75000D01*
G01*
X153800000Y-88600000D01*
G75*
G02*
X153725000Y-88675000I-75000J0D01*
G01*
X153575000Y-88675000D01*
G75*
G02*
X153500000Y-88600000I0J75000D01*
G01*
G37*
%TD.AperFunction*%
%TO.P,U3,41*%
%TO.N,/P5*%
%TA.AperFunction,SMDPad,CuDef*%
G36*
G01*
X153000000Y-88600000D02*
X153000000Y-87275000D01*
G75*
G02*
X153075000Y-87200000I75000J0D01*
G01*
X153225000Y-87200000D01*
G75*
G02*
X153300000Y-87275000I0J-75000D01*
G01*
X153300000Y-88600000D01*
G75*
G02*
X153225000Y-88675000I-75000J0D01*
G01*
X153075000Y-88675000D01*
G75*
G02*
X153000000Y-88600000I0J75000D01*
G01*
G37*
%TD.AperFunction*%
%TO.P,U3,42*%
%TO.N,/P6*%
%TA.AperFunction,SMDPad,CuDef*%
G36*
G01*
X152500000Y-88600000D02*
X152500000Y-87275000D01*
G75*
G02*
X152575000Y-87200000I75000J0D01*
G01*
X152725000Y-87200000D01*
G75*
G02*
X152800000Y-87275000I0J-75000D01*
G01*
X152800000Y-88600000D01*
G75*
G02*
X152725000Y-88675000I-75000J0D01*
G01*
X152575000Y-88675000D01*
G75*
G02*
X152500000Y-88600000I0J75000D01*
G01*
G37*
%TD.AperFunction*%
%TO.P,U3,43*%
%TO.N,/P7*%
%TA.AperFunction,SMDPad,CuDef*%
G36*
G01*
X152000000Y-88600000D02*
X152000000Y-87275000D01*
G75*
G02*
X152075000Y-87200000I75000J0D01*
G01*
X152225000Y-87200000D01*
G75*
G02*
X152300000Y-87275000I0J-75000D01*
G01*
X152300000Y-88600000D01*
G75*
G02*
X152225000Y-88675000I-75000J0D01*
G01*
X152075000Y-88675000D01*
G75*
G02*
X152000000Y-88600000I0J75000D01*
G01*
G37*
%TD.AperFunction*%
%TO.P,U3,44*%
%TO.N,/BOOT0*%
%TA.AperFunction,SMDPad,CuDef*%
G36*
G01*
X151500000Y-88600000D02*
X151500000Y-87275000D01*
G75*
G02*
X151575000Y-87200000I75000J0D01*
G01*
X151725000Y-87200000D01*
G75*
G02*
X151800000Y-87275000I0J-75000D01*
G01*
X151800000Y-88600000D01*
G75*
G02*
X151725000Y-88675000I-75000J0D01*
G01*
X151575000Y-88675000D01*
G75*
G02*
X151500000Y-88600000I0J75000D01*
G01*
G37*
%TD.AperFunction*%
%TO.P,U3,45*%
%TO.N,/P8*%
%TA.AperFunction,SMDPad,CuDef*%
G36*
G01*
X151000000Y-88600000D02*
X151000000Y-87275000D01*
G75*
G02*
X151075000Y-87200000I75000J0D01*
G01*
X151225000Y-87200000D01*
G75*
G02*
X151300000Y-87275000I0J-75000D01*
G01*
X151300000Y-88600000D01*
G75*
G02*
X151225000Y-88675000I-75000J0D01*
G01*
X151075000Y-88675000D01*
G75*
G02*
X151000000Y-88600000I0J75000D01*
G01*
G37*
%TD.AperFunction*%
%TO.P,U3,46*%
%TO.N,/P9*%
%TA.AperFunction,SMDPad,CuDef*%
G36*
G01*
X150500000Y-88600000D02*
X150500000Y-87275000D01*
G75*
G02*
X150575000Y-87200000I75000J0D01*
G01*
X150725000Y-87200000D01*
G75*
G02*
X150800000Y-87275000I0J-75000D01*
G01*
X150800000Y-88600000D01*
G75*
G02*
X150725000Y-88675000I-75000J0D01*
G01*
X150575000Y-88675000D01*
G75*
G02*
X150500000Y-88600000I0J75000D01*
G01*
G37*
%TD.AperFunction*%
%TO.P,U3,47*%
%TO.N,GND*%
%TA.AperFunction,SMDPad,CuDef*%
G36*
G01*
X150000000Y-88600000D02*
X150000000Y-87275000D01*
G75*
G02*
X150075000Y-87200000I75000J0D01*
G01*
X150225000Y-87200000D01*
G75*
G02*
X150300000Y-87275000I0J-75000D01*
G01*
X150300000Y-88600000D01*
G75*
G02*
X150225000Y-88675000I-75000J0D01*
G01*
X150075000Y-88675000D01*
G75*
G02*
X150000000Y-88600000I0J75000D01*
G01*
G37*
%TD.AperFunction*%
%TO.P,U3,48*%
%TO.N,+3V3*%
%TA.AperFunction,SMDPad,CuDef*%
G36*
G01*
X149500000Y-88600000D02*
X149500000Y-87275000D01*
G75*
G02*
X149575000Y-87200000I75000J0D01*
G01*
X149725000Y-87200000D01*
G75*
G02*
X149800000Y-87275000I0J-75000D01*
G01*
X149800000Y-88600000D01*
G75*
G02*
X149725000Y-88675000I-75000J0D01*
G01*
X149575000Y-88675000D01*
G75*
G02*
X149500000Y-88600000I0J75000D01*
G01*
G37*
%TD.AperFunction*%
%TD*%
D21*
%TO.P,Y1,1*%
%TO.N,Net-(C13-Pad1)*%
X141800000Y-88600000D03*
%TO.P,Y1,2*%
%TO.N,Net-(C14-Pad1)*%
X141800000Y-93480000D03*
%TD*%
D22*
%TO.N,+3V3*%
X158923900Y-98288600D03*
X155192300Y-98703000D03*
X154964900Y-85469600D03*
X154042900Y-93977400D03*
%TO.N,/NRST*%
X150416600Y-92246600D03*
%TO.N,Net-(J2-PadA6)*%
X158678000Y-91085300D03*
X155909400Y-81750000D03*
%TO.N,Net-(J2-PadA7)*%
X160822100Y-91631400D03*
X155906800Y-83288700D03*
%TO.N,/P1*%
X151941100Y-83424300D03*
%TO.N,/P2*%
X153310900Y-85628900D03*
%TO.N,/P10*%
X147554700Y-88696200D03*
%TO.N,/P11*%
X149479800Y-90845500D03*
%TO.N,/P12*%
X146809000Y-90792800D03*
%TO.N,/P13*%
X149476000Y-93825700D03*
%TO.N,/P25*%
X156404000Y-96283900D03*
%TO.N,/P26*%
X156896700Y-95503100D03*
%TO.N,/P27*%
X156711400Y-97184300D03*
%TO.N,Net-(C14-Pad1)*%
X146981900Y-91962000D03*
%TD*%
D23*
%TO.N,GND*%
X156259700Y-67800000D02*
X155980000Y-67800000D01*
X155980000Y-67800000D02*
X154480000Y-69300000D01*
X156419700Y-66680000D02*
X156259700Y-66840000D01*
X156259700Y-66840000D02*
X156259700Y-67800000D01*
X156990000Y-67800000D02*
X156259700Y-67800000D01*
X157570000Y-66680000D02*
X156419700Y-66680000D01*
X150120000Y-86200000D02*
X149754700Y-85834700D01*
X149754700Y-85834700D02*
X149229500Y-85834700D01*
X149229500Y-85834700D02*
X146500000Y-88564200D01*
X146500000Y-88564200D02*
X146500000Y-88680000D01*
X150150000Y-87937500D02*
X150150000Y-86230000D01*
X150150000Y-86230000D02*
X150120000Y-86200000D01*
X152320000Y-102800000D02*
X152320000Y-100360000D01*
X152320000Y-100360000D02*
X154680000Y-98000000D01*
X151276100Y-99551200D02*
X151276100Y-103007600D01*
X151276100Y-103007600D02*
X151425500Y-103157000D01*
X151425500Y-103157000D02*
X151963000Y-103157000D01*
X151963000Y-103157000D02*
X152320000Y-102800000D01*
X146040000Y-88680000D02*
X145036600Y-87676600D01*
X145036600Y-87676600D02*
X141380700Y-87676600D01*
X141380700Y-87676600D02*
X140868300Y-88189000D01*
X140868300Y-88189000D02*
X140868300Y-88979000D01*
X140868300Y-88979000D02*
X141464400Y-89575100D01*
X141464400Y-89575100D02*
X143334200Y-89575100D01*
X143334200Y-89575100D02*
X146530000Y-92770900D01*
X146530000Y-92770900D02*
X146530000Y-92850000D01*
X146530000Y-92850000D02*
X146500000Y-92880000D01*
X148237500Y-92850000D02*
X146530000Y-92850000D01*
X146040000Y-88680000D02*
X145400000Y-89320000D01*
X146500000Y-88680000D02*
X146040000Y-88680000D01*
X154650000Y-97177100D02*
X155346600Y-97177100D01*
X155346600Y-97177100D02*
X155453100Y-97070600D01*
X155453100Y-97070600D02*
X155453100Y-95468100D01*
X155453100Y-95468100D02*
X155150000Y-95165000D01*
X155150000Y-95165000D02*
X155150000Y-93686200D01*
X155150000Y-93686200D02*
X150150000Y-88686200D01*
X150150000Y-88686200D02*
X150150000Y-87937500D01*
X154650000Y-96262500D02*
X154650000Y-95679700D01*
X154650000Y-95679700D02*
X154157900Y-95187600D01*
X154157900Y-95187600D02*
X142197600Y-95187600D01*
X142197600Y-95187600D02*
X140851000Y-93841000D01*
X140851000Y-93841000D02*
X140851000Y-93136100D01*
X140851000Y-93136100D02*
X141415500Y-92571600D01*
X141415500Y-92571600D02*
X145091600Y-92571600D01*
X145091600Y-92571600D02*
X145400000Y-92880000D01*
X154650000Y-97177100D02*
X154650000Y-96262500D01*
X156900000Y-106000000D02*
X152920000Y-106000000D01*
X152920000Y-106000000D02*
X152320000Y-105400000D01*
X161740000Y-86820000D02*
X162740300Y-86820000D01*
X164620000Y-99400000D02*
X164620000Y-88699700D01*
X164620000Y-88699700D02*
X162740300Y-86820000D01*
X163400000Y-106000000D02*
X164620000Y-104780000D01*
X164620000Y-104780000D02*
X164620000Y-99400000D01*
X161740000Y-75320000D02*
X160739700Y-75320000D01*
X161740000Y-66680000D02*
X160739700Y-66680000D01*
X160739700Y-66680000D02*
X160739700Y-75320000D01*
X151276100Y-99551200D02*
X152181500Y-99551200D01*
X152181500Y-99551200D02*
X154555600Y-97177100D01*
X154555600Y-97177100D02*
X154650000Y-97177100D01*
X151276100Y-99551200D02*
X133556700Y-99551200D01*
X133556700Y-99551200D02*
X132771700Y-100336200D01*
X132771700Y-100336200D02*
X132771700Y-103555800D01*
X132771700Y-103555800D02*
X133991600Y-104775700D01*
X133991600Y-104775700D02*
X134475400Y-104775700D01*
X134475400Y-104775700D02*
X135599700Y-105900000D01*
X136600000Y-105900000D02*
X135599700Y-105900000D01*
X158300000Y-89892000D02*
X156604500Y-89892000D01*
X156604500Y-89892000D02*
X156562500Y-89850000D01*
X158720300Y-86820000D02*
X158720300Y-89471700D01*
X158720300Y-89471700D02*
X158300000Y-89892000D01*
X158300000Y-89892000D02*
X158300000Y-89920000D01*
X157097500Y-75320000D02*
X156624900Y-75320000D01*
X157570000Y-75320000D02*
X157097500Y-75320000D01*
X157097500Y-78180000D02*
X156419700Y-78180000D01*
X157570000Y-78180000D02*
X157097500Y-78180000D01*
X157097500Y-75320000D02*
X157097500Y-78180000D01*
X156419700Y-78180000D02*
X156259700Y-78340000D01*
X156259700Y-78340000D02*
X156259700Y-79300000D01*
X150945000Y-76494500D02*
X151120000Y-76669500D01*
X151120000Y-76669500D02*
X151120000Y-77000000D01*
X143525000Y-79535000D02*
X144482200Y-79535000D01*
X144482200Y-79535000D02*
X147522700Y-76494500D01*
X147522700Y-76494500D02*
X150945000Y-76494500D01*
X150945000Y-76494500D02*
X150945000Y-72820000D01*
X150945000Y-72820000D02*
X152100000Y-72820000D01*
X150600000Y-72475000D02*
X150945000Y-72820000D01*
X148700000Y-72475000D02*
X150600000Y-72475000D01*
X157570000Y-86820000D02*
X158720300Y-86820000D01*
X156624900Y-74200000D02*
X156624900Y-75320000D01*
X156624900Y-74200000D02*
X156259700Y-74200000D01*
X156990000Y-74200000D02*
X156624900Y-74200000D01*
X156309800Y-85700000D02*
X154480000Y-83870200D01*
X154480000Y-83870200D02*
X154480000Y-83700000D01*
X154460000Y-72200000D02*
X152510000Y-70250000D01*
X152510000Y-70250000D02*
X149054300Y-70250000D01*
X149054300Y-70250000D02*
X147503900Y-68699600D01*
X147503900Y-68699600D02*
X145276000Y-68699600D01*
X145276000Y-68699600D02*
X145199700Y-68775900D01*
X145199700Y-68775900D02*
X145199700Y-70412300D01*
X145199700Y-70412300D02*
X145787100Y-70999700D01*
X145787100Y-70999700D02*
X146350000Y-70999700D01*
X156259700Y-74200000D02*
X156259700Y-73999700D01*
X156259700Y-73999700D02*
X154460000Y-72200000D01*
X146350000Y-71900000D02*
X146350000Y-70999700D01*
X156990000Y-85700000D02*
X156309800Y-85700000D01*
X154480000Y-80700000D02*
X154480000Y-83700000D01*
X150100000Y-67320000D02*
X152080000Y-69300000D01*
X152080000Y-69300000D02*
X154480000Y-69300000D01*
X148700000Y-68275000D02*
X149145000Y-68275000D01*
X149145000Y-68275000D02*
X150100000Y-67320000D01*
X156259700Y-79300000D02*
X155880000Y-79300000D01*
X155880000Y-79300000D02*
X154480000Y-80700000D01*
X154480000Y-80700000D02*
X154460000Y-80700000D01*
X146350000Y-71900000D02*
X147500300Y-71900000D01*
X148700000Y-72475000D02*
X148075300Y-72475000D01*
X148075300Y-72475000D02*
X147500300Y-71900000D01*
X156990000Y-79300000D02*
X156259700Y-79300000D01*
%TO.N,+5V*%
X157964600Y-84655700D02*
X162052100Y-88743200D01*
X162052100Y-88743200D02*
X162052100Y-94331900D01*
X162052100Y-94331900D02*
X158323200Y-98060800D01*
X158323200Y-98060800D02*
X158323200Y-98239200D01*
X158323200Y-98239200D02*
X152187400Y-104375000D01*
X152187400Y-104375000D02*
X149143800Y-104375000D01*
X149143800Y-104375000D02*
X146599200Y-106919600D01*
X146599200Y-106919600D02*
X136079900Y-106919600D01*
X136079900Y-106919600D02*
X135060300Y-105900000D01*
X134060000Y-105900000D02*
X135060300Y-105900000D01*
X157964600Y-84655700D02*
X157720300Y-84900000D01*
X157964600Y-80100000D02*
X157964600Y-84655700D01*
X157964600Y-80100000D02*
X158271500Y-80100000D01*
X158271500Y-80100000D02*
X158742300Y-79629200D01*
X158742300Y-79629200D02*
X158742300Y-73910900D01*
X158742300Y-73910900D02*
X158231400Y-73400000D01*
X158231400Y-73400000D02*
X157720300Y-73400000D01*
X157720300Y-80100000D02*
X157964600Y-80100000D01*
X156990000Y-84900000D02*
X157720300Y-84900000D01*
X157720300Y-73400000D02*
X157920600Y-73199700D01*
X157920600Y-73199700D02*
X157920600Y-68800300D01*
X148700000Y-66725000D02*
X150055000Y-66725000D01*
X150055000Y-66725000D02*
X150100000Y-66680000D01*
X146350000Y-67300000D02*
X148125000Y-67300000D01*
X148125000Y-67300000D02*
X148700000Y-66725000D01*
X157920600Y-68800300D02*
X157720300Y-68600000D01*
X150100000Y-66680000D02*
X150721000Y-66059000D01*
X150721000Y-66059000D02*
X158357900Y-66059000D01*
X158357900Y-66059000D02*
X158732700Y-66433800D01*
X158732700Y-66433800D02*
X158732700Y-68098700D01*
X158732700Y-68098700D02*
X158031100Y-68800300D01*
X158031100Y-68800300D02*
X157920600Y-68800300D01*
X156990000Y-73400000D02*
X157720300Y-73400000D01*
X156990000Y-68600000D02*
X157720300Y-68600000D01*
X156990000Y-80100000D02*
X157720300Y-80100000D01*
%TO.N,+3V3*%
X158923900Y-98288600D02*
X161068600Y-98288600D01*
X161068600Y-98288600D02*
X162180000Y-99400000D01*
X148691500Y-88726000D02*
X148691500Y-89219200D01*
X149480000Y-87937500D02*
X148691500Y-88726000D01*
X148691500Y-88726000D02*
X148101600Y-88136100D01*
X148101600Y-88136100D02*
X147314900Y-88136100D01*
X147314900Y-88136100D02*
X146922200Y-88528800D01*
X146922200Y-88528800D02*
X146922200Y-88897800D01*
X146922200Y-88897800D02*
X146500000Y-89320000D01*
X149480000Y-87937500D02*
X149480000Y-86200000D01*
X149650000Y-87937500D02*
X149480000Y-87937500D01*
X148691500Y-89219200D02*
X148560700Y-89350000D01*
X148560700Y-89350000D02*
X148237500Y-89350000D01*
X150966900Y-92548700D02*
X150966900Y-91494600D01*
X150966900Y-91494600D02*
X148691500Y-89219200D01*
X156562500Y-89280000D02*
X156562500Y-87215300D01*
X156562500Y-87215300D02*
X154964900Y-85617700D01*
X154964900Y-85617700D02*
X154964900Y-85469600D01*
X154964900Y-85469600D02*
X154964900Y-85386700D01*
X154964900Y-85386700D02*
X149847200Y-80269000D01*
X149847200Y-80269000D02*
X149847200Y-79499400D01*
X149847200Y-79499400D02*
X149404800Y-79057000D01*
X149404800Y-79057000D02*
X147339400Y-79057000D01*
X156562500Y-89350000D02*
X156562500Y-89280000D01*
X156562500Y-89280000D02*
X158300000Y-89280000D01*
X148237500Y-93350000D02*
X146670000Y-93350000D01*
X146670000Y-93350000D02*
X146500000Y-93520000D01*
X150966900Y-92548700D02*
X150254800Y-93260800D01*
X150254800Y-93260800D02*
X148326700Y-93260800D01*
X148326700Y-93260800D02*
X148237500Y-93350000D01*
X155320000Y-98000000D02*
X155320000Y-98575300D01*
X155320000Y-98575300D02*
X155192300Y-98703000D01*
X154042900Y-93977400D02*
X152395600Y-93977400D01*
X152395600Y-93977400D02*
X150966900Y-92548700D01*
X155150000Y-96262500D02*
X155150000Y-95517400D01*
X155150000Y-95517400D02*
X154042900Y-94410300D01*
X154042900Y-94410300D02*
X154042900Y-93977400D01*
X147339400Y-79057000D02*
X147339400Y-79827600D01*
X147339400Y-79827600D02*
X148316800Y-80805000D01*
X148316800Y-80805000D02*
X148475000Y-80805000D01*
X139680000Y-102800000D02*
X139680000Y-102437300D01*
X139680000Y-102437300D02*
X137040900Y-99798200D01*
X137040900Y-99798200D02*
X133603400Y-99798200D01*
X133603400Y-99798200D02*
X133018300Y-100383300D01*
X133018300Y-100383300D02*
X133018300Y-101318000D01*
X133018300Y-101318000D02*
X134060000Y-102359700D01*
X150480000Y-77000000D02*
X150853900Y-77373900D01*
X150853900Y-77373900D02*
X151330200Y-77373900D01*
X151330200Y-77373900D02*
X152469700Y-76234400D01*
X152469700Y-76234400D02*
X152469700Y-72549700D01*
X152469700Y-72549700D02*
X152100000Y-72180000D01*
X148475000Y-76995000D02*
X150475000Y-76995000D01*
X150475000Y-76995000D02*
X150480000Y-77000000D01*
X147339400Y-79057000D02*
X147339400Y-77954200D01*
X147339400Y-77954200D02*
X148298600Y-76995000D01*
X148298600Y-76995000D02*
X148475000Y-76995000D01*
X146350000Y-69600000D02*
X147500300Y-69600000D01*
X148700000Y-70925000D02*
X147500300Y-69725300D01*
X147500300Y-69725300D02*
X147500300Y-69600000D01*
X148700000Y-70925000D02*
X150600000Y-70925000D01*
X150600000Y-70925000D02*
X151855000Y-72180000D01*
X151855000Y-72180000D02*
X152100000Y-72180000D01*
X134060000Y-103360000D02*
X134060000Y-102359700D01*
X135060300Y-103360000D02*
X136275600Y-104575300D01*
X136275600Y-104575300D02*
X138955300Y-104575300D01*
X138955300Y-104575300D02*
X139680000Y-105300000D01*
X134060000Y-103360000D02*
X135060300Y-103360000D01*
%TO.N,/NRST*%
X163980000Y-99400000D02*
X162820000Y-99400000D01*
X163400000Y-101500000D02*
X163980000Y-100920000D01*
X163980000Y-100920000D02*
X163980000Y-99400000D01*
X148237500Y-92350000D02*
X150313200Y-92350000D01*
X150313200Y-92350000D02*
X150416600Y-92246600D01*
%TO.N,Net-(J1-PadB5)*%
X156990000Y-69250000D02*
X155170000Y-69250000D01*
X155170000Y-69250000D02*
X155120000Y-69300000D01*
%TO.N,Net-(J1-PadA6)*%
X156259700Y-70250000D02*
X155859100Y-69849400D01*
X155859100Y-69849400D02*
X149220100Y-69849400D01*
X149220100Y-69849400D02*
X147669700Y-68299000D01*
X147669700Y-68299000D02*
X145110200Y-68299000D01*
X145110200Y-68299000D02*
X140880000Y-72529200D01*
X140880000Y-72529200D02*
X140880000Y-77000000D01*
X156309800Y-70250000D02*
X156259700Y-70250000D01*
X156990000Y-70250000D02*
X156309800Y-70250000D01*
X156990000Y-71250000D02*
X156259700Y-71250000D01*
X156259700Y-70250000D02*
X156259700Y-71250000D01*
%TO.N,Net-(J1-PadA5)*%
X156990000Y-72250000D02*
X156259700Y-72250000D01*
X155100000Y-72200000D02*
X155150000Y-72250000D01*
X155150000Y-72250000D02*
X156259700Y-72250000D01*
%TO.N,Net-(J1-PadA7)*%
X156990000Y-71750000D02*
X157720300Y-71750000D01*
X156990000Y-70750000D02*
X157720300Y-70750000D01*
X157720300Y-70750000D02*
X157720300Y-71750000D01*
X156259700Y-71750000D02*
X154559400Y-70049700D01*
X154559400Y-70049700D02*
X149137200Y-70049700D01*
X149137200Y-70049700D02*
X147586800Y-68499300D01*
X147586800Y-68499300D02*
X145193100Y-68499300D01*
X145193100Y-68499300D02*
X144999400Y-68693000D01*
X144999400Y-68693000D02*
X144999400Y-76920900D01*
X144999400Y-76920900D02*
X144247000Y-77673300D01*
X144247000Y-77673300D02*
X141506700Y-77673300D01*
X141506700Y-77673300D02*
X140880000Y-78300000D01*
X156990000Y-71750000D02*
X156259700Y-71750000D01*
%TO.N,Net-(J2-PadB5)*%
X156990000Y-80750000D02*
X155150000Y-80750000D01*
X155150000Y-80750000D02*
X155100000Y-80700000D01*
%TO.N,Net-(J2-PadA6)*%
X159400000Y-90325000D02*
X159768000Y-90693000D01*
X159768000Y-90693000D02*
X159768000Y-91238400D01*
X159768000Y-91238400D02*
X159650100Y-91356300D01*
X159650100Y-91356300D02*
X158949000Y-91356300D01*
X158949000Y-91356300D02*
X158678000Y-91085300D01*
X156990000Y-81750000D02*
X157720300Y-81750000D01*
X156990000Y-82750000D02*
X157720300Y-82750000D01*
X157720300Y-82750000D02*
X157720300Y-81750000D01*
X156990000Y-81750000D02*
X155909400Y-81750000D01*
%TO.N,Net-(J2-PadA5)*%
X156990000Y-83750000D02*
X156259700Y-83750000D01*
X156259700Y-83750000D02*
X156161900Y-83847800D01*
X156161900Y-83847800D02*
X155267800Y-83847800D01*
X155267800Y-83847800D02*
X155120000Y-83700000D01*
%TO.N,Net-(J2-PadA7)*%
X156259700Y-83250000D02*
X155945500Y-83250000D01*
X155945500Y-83250000D02*
X155906800Y-83288700D01*
X160400000Y-90325000D02*
X160822100Y-90747100D01*
X160822100Y-90747100D02*
X160822100Y-91631400D01*
X156259700Y-83250000D02*
X156259700Y-82250000D01*
X156990000Y-82250000D02*
X156259700Y-82250000D01*
X156990000Y-83250000D02*
X156259700Y-83250000D01*
%TO.N,Net-(R1-Pad2)*%
X142200000Y-105340000D02*
X140360000Y-105340000D01*
X140360000Y-105340000D02*
X140320000Y-105300000D01*
%TO.N,Net-(R2-Pad1)*%
X142200000Y-102800000D02*
X140320000Y-102800000D01*
%TO.N,Net-(R4-Pad1)*%
X143525000Y-76995000D02*
X141525000Y-76995000D01*
X141525000Y-76995000D02*
X141520000Y-77000000D01*
%TO.N,Net-(R5-Pad1)*%
X143525000Y-78265000D02*
X141555000Y-78265000D01*
X141555000Y-78265000D02*
X141520000Y-78300000D01*
%TO.N,/BOOT1*%
X148869700Y-105340000D02*
X147089700Y-107120000D01*
X147089700Y-107120000D02*
X133817000Y-107120000D01*
X133817000Y-107120000D02*
X132565400Y-105868400D01*
X132565400Y-105868400D02*
X132565400Y-95778600D01*
X132565400Y-95778600D02*
X133614900Y-94729100D01*
X133614900Y-94729100D02*
X137161200Y-94729100D01*
X137161200Y-94729100D02*
X140863700Y-98431600D01*
X140863700Y-98431600D02*
X151564500Y-98431600D01*
X151564500Y-98431600D02*
X153150000Y-96846100D01*
X153150000Y-96846100D02*
X153150000Y-96262500D01*
X149820000Y-105340000D02*
X148869700Y-105340000D01*
X149820000Y-105340000D02*
X151620000Y-105340000D01*
X151620000Y-105340000D02*
X151680000Y-105400000D01*
%TO.N,/BOOT0*%
X155492000Y-97545500D02*
X155744400Y-97797900D01*
X155744400Y-97797900D02*
X155744400Y-99965600D01*
X155744400Y-99965600D02*
X152346800Y-103363200D01*
X152346800Y-103363200D02*
X151333500Y-103363200D01*
X151333500Y-103363200D02*
X150770300Y-102800000D01*
X151650000Y-87937500D02*
X151650000Y-89798200D01*
X151650000Y-89798200D02*
X155459500Y-93607700D01*
X155459500Y-93607700D02*
X155459500Y-95191200D01*
X155459500Y-95191200D02*
X155659800Y-95391500D01*
X155659800Y-95391500D02*
X155659800Y-95966800D01*
X155659800Y-95966800D02*
X155653400Y-95973200D01*
X155653400Y-95973200D02*
X155653400Y-97384100D01*
X155653400Y-97384100D02*
X155492000Y-97545500D01*
X151680000Y-102800000D02*
X151680000Y-100377300D01*
X151680000Y-100377300D02*
X154511800Y-97545500D01*
X154511800Y-97545500D02*
X155492000Y-97545500D01*
X149820000Y-102800000D02*
X150770300Y-102800000D01*
%TO.N,/USBDP*%
X158988600Y-90510600D02*
X158988600Y-90140400D01*
X158988600Y-90140400D02*
X159187700Y-89941300D01*
X159187700Y-89941300D02*
X160603200Y-89941300D01*
X160603200Y-89941300D02*
X161106800Y-90444900D01*
X161106800Y-90444900D02*
X161106800Y-90571800D01*
X161106800Y-90571800D02*
X161500000Y-90965000D01*
X159400000Y-90965000D02*
X158988600Y-90553600D01*
X158988600Y-90553600D02*
X158988600Y-90510600D01*
X158988600Y-90510600D02*
X157882900Y-90510600D01*
X157882900Y-90510600D02*
X157543500Y-90850000D01*
X157543500Y-90850000D02*
X156562500Y-90850000D01*
%TO.N,/USB_PULLUP*%
X161500000Y-90325000D02*
X160916000Y-89741000D01*
X160916000Y-89741000D02*
X159074100Y-89741000D01*
X159074100Y-89741000D02*
X158504800Y-90310300D01*
X158504800Y-90310300D02*
X156602200Y-90310300D01*
X156602200Y-90310300D02*
X156562500Y-90350000D01*
%TO.N,/USBDM*%
X156562500Y-91350000D02*
X157621700Y-91350000D01*
X157621700Y-91350000D02*
X157907300Y-91635600D01*
X157907300Y-91635600D02*
X159729400Y-91635600D01*
X159729400Y-91635600D02*
X160400000Y-90965000D01*
%TO.N,/USART1_TX*%
X148475000Y-78265000D02*
X148941800Y-78265000D01*
X148941800Y-78265000D02*
X152053200Y-81376400D01*
X152053200Y-81376400D02*
X152053200Y-81857300D01*
X152053200Y-81857300D02*
X155099600Y-84903700D01*
X155099600Y-84903700D02*
X155192800Y-84903700D01*
X155192800Y-84903700D02*
X155515200Y-85226100D01*
X155515200Y-85226100D02*
X155515200Y-85319300D01*
X155515200Y-85319300D02*
X156346400Y-86150500D01*
X156346400Y-86150500D02*
X158356900Y-86150500D01*
X158356900Y-86150500D02*
X161851700Y-89645300D01*
X161851700Y-89645300D02*
X161851700Y-91390600D01*
X161851700Y-91390600D02*
X160892300Y-92350000D01*
X160892300Y-92350000D02*
X156562500Y-92350000D01*
%TO.N,/USART1_RX*%
X156562500Y-91850000D02*
X155979600Y-91850000D01*
X155979600Y-91850000D02*
X155623000Y-91493400D01*
X155623000Y-91493400D02*
X155623000Y-87067800D01*
X155623000Y-87067800D02*
X154414500Y-85859300D01*
X154414500Y-85859300D02*
X154414500Y-85277600D01*
X154414500Y-85277600D02*
X152491400Y-83354500D01*
X152491400Y-83354500D02*
X152491400Y-83196400D01*
X152491400Y-83196400D02*
X152169000Y-82874000D01*
X152169000Y-82874000D02*
X152010900Y-82874000D01*
X152010900Y-82874000D02*
X148671900Y-79535000D01*
X148671900Y-79535000D02*
X148475000Y-79535000D01*
%TO.N,/P1*%
X155150000Y-87937500D02*
X155150000Y-87184500D01*
X155150000Y-87184500D02*
X153932000Y-85966500D01*
X153932000Y-85966500D02*
X153932000Y-85415200D01*
X153932000Y-85415200D02*
X151941100Y-83424300D01*
%TO.N,/P2*%
X154650000Y-87937500D02*
X154650000Y-86968000D01*
X154650000Y-86968000D02*
X153310900Y-85628900D01*
%TO.N,/P3*%
X136600000Y-70340000D02*
X136600000Y-71340300D01*
X154150000Y-87937500D02*
X154150000Y-87377500D01*
X154150000Y-87377500D02*
X148697800Y-81925300D01*
X148697800Y-81925300D02*
X147424800Y-81925300D01*
X147424800Y-81925300D02*
X145640200Y-80140700D01*
X145640200Y-80140700D02*
X142100500Y-80140700D01*
X142100500Y-80140700D02*
X139741000Y-77781200D01*
X139741000Y-77781200D02*
X139741000Y-74237900D01*
X139741000Y-74237900D02*
X136843400Y-71340300D01*
X136843400Y-71340300D02*
X136600000Y-71340300D01*
%TO.N,/P4*%
X135060300Y-70340000D02*
X136330300Y-71610000D01*
X136330300Y-71610000D02*
X136758700Y-71610000D01*
X136758700Y-71610000D02*
X139540700Y-74392000D01*
X139540700Y-74392000D02*
X139540700Y-77864400D01*
X139540700Y-77864400D02*
X142030400Y-80354100D01*
X142030400Y-80354100D02*
X145158900Y-80354100D01*
X145158900Y-80354100D02*
X148188700Y-83383900D01*
X148188700Y-83383900D02*
X149652600Y-83383900D01*
X149652600Y-83383900D02*
X153650000Y-87381300D01*
X153650000Y-87381300D02*
X153650000Y-87937500D01*
X134060000Y-70340000D02*
X135060300Y-70340000D01*
%TO.N,/P5*%
X136600000Y-73880300D02*
X136807300Y-73880300D01*
X136807300Y-73880300D02*
X139340400Y-76413400D01*
X139340400Y-76413400D02*
X139340400Y-78043600D01*
X139340400Y-78043600D02*
X145314200Y-84017400D01*
X145314200Y-84017400D02*
X149790300Y-84017400D01*
X149790300Y-84017400D02*
X153150000Y-87377100D01*
X153150000Y-87377100D02*
X153150000Y-87937500D01*
X136600000Y-72880000D02*
X136600000Y-73880300D01*
%TO.N,/P6*%
X135060300Y-72880000D02*
X136330300Y-74150000D01*
X136330300Y-74150000D02*
X136744700Y-74150000D01*
X136744700Y-74150000D02*
X139140100Y-76545400D01*
X139140100Y-76545400D02*
X139140100Y-78140700D01*
X139140100Y-78140700D02*
X145918100Y-84918700D01*
X145918100Y-84918700D02*
X150273500Y-84918700D01*
X150273500Y-84918700D02*
X152650000Y-87295200D01*
X152650000Y-87295200D02*
X152650000Y-87937500D01*
X134060000Y-72880000D02*
X135060300Y-72880000D01*
%TO.N,/P7*%
X136600000Y-76420300D02*
X136963800Y-76420300D01*
X136963800Y-76420300D02*
X145662600Y-85119100D01*
X145662600Y-85119100D02*
X150190400Y-85119100D01*
X150190400Y-85119100D02*
X152150000Y-87078700D01*
X152150000Y-87078700D02*
X152150000Y-87937500D01*
X136600000Y-75420000D02*
X136600000Y-76420300D01*
%TO.N,/P8*%
X135060300Y-75420000D02*
X136330300Y-76690000D01*
X136330300Y-76690000D02*
X136744700Y-76690000D01*
X136744700Y-76690000D02*
X145474100Y-85419400D01*
X145474100Y-85419400D02*
X150207300Y-85419400D01*
X150207300Y-85419400D02*
X151150000Y-86362100D01*
X151150000Y-86362100D02*
X151150000Y-87937500D01*
X134060000Y-75420000D02*
X135060300Y-75420000D01*
%TO.N,/P9*%
X137600300Y-77960000D02*
X145260100Y-85619800D01*
X145260100Y-85619800D02*
X150124200Y-85619800D01*
X150124200Y-85619800D02*
X150650000Y-86145600D01*
X150650000Y-86145600D02*
X150650000Y-87937500D01*
X136600000Y-77960000D02*
X137600300Y-77960000D01*
%TO.N,/P10*%
X148237500Y-89850000D02*
X147611900Y-89850000D01*
X147611900Y-89850000D02*
X147349400Y-89587500D01*
X147349400Y-89587500D02*
X147349400Y-88901500D01*
X147349400Y-88901500D02*
X147554700Y-88696200D01*
%TO.N,/P11*%
X148237500Y-90350000D02*
X148984300Y-90350000D01*
X148984300Y-90350000D02*
X149479800Y-90845500D01*
%TO.N,/P12*%
X148237500Y-90850000D02*
X146866200Y-90850000D01*
X146866200Y-90850000D02*
X146809000Y-90792800D01*
%TO.N,/P13*%
X148237500Y-93850000D02*
X149451700Y-93850000D01*
X149451700Y-93850000D02*
X149476000Y-93825700D01*
%TO.N,/P14*%
X135060300Y-83040000D02*
X136330300Y-84310000D01*
X136330300Y-84310000D02*
X136747400Y-84310000D01*
X136747400Y-84310000D02*
X140440800Y-88003400D01*
X140440800Y-88003400D02*
X140440800Y-88834900D01*
X140440800Y-88834900D02*
X141381400Y-89775500D01*
X141381400Y-89775500D02*
X143172500Y-89775500D01*
X143172500Y-89775500D02*
X146149200Y-92752200D01*
X146149200Y-92752200D02*
X146149200Y-93762200D01*
X146149200Y-93762200D02*
X146737000Y-94350000D01*
X146737000Y-94350000D02*
X148237500Y-94350000D01*
X134060000Y-83040000D02*
X135060300Y-83040000D01*
%TO.N,/P15*%
X137600300Y-85580000D02*
X137600300Y-86277600D01*
X137600300Y-86277600D02*
X142185700Y-90863000D01*
X142185700Y-90863000D02*
X143969200Y-90863000D01*
X143969200Y-90863000D02*
X145895200Y-92789000D01*
X145895200Y-92789000D02*
X145895200Y-93867900D01*
X145895200Y-93867900D02*
X146877300Y-94850000D01*
X146877300Y-94850000D02*
X148237500Y-94850000D01*
X136600000Y-85580000D02*
X137600300Y-85580000D01*
%TO.N,/P16*%
X134060000Y-85580000D02*
X135060300Y-85580000D01*
X149650000Y-96262500D02*
X142961000Y-96262500D01*
X142961000Y-96262500D02*
X140416500Y-93718000D01*
X140416500Y-93718000D02*
X140416500Y-90450500D01*
X140416500Y-90450500D02*
X136816000Y-86850000D01*
X136816000Y-86850000D02*
X136330300Y-86850000D01*
X136330300Y-86850000D02*
X135060300Y-85580000D01*
%TO.N,/P17*%
X136600000Y-89120300D02*
X136807300Y-89120300D01*
X136807300Y-89120300D02*
X140040900Y-92353900D01*
X140040900Y-92353900D02*
X140040900Y-93625900D01*
X140040900Y-93625900D02*
X143571000Y-97156000D01*
X143571000Y-97156000D02*
X149833000Y-97156000D01*
X149833000Y-97156000D02*
X150150000Y-96839000D01*
X150150000Y-96839000D02*
X150150000Y-96262500D01*
X136600000Y-88120000D02*
X136600000Y-89120300D01*
%TO.N,/P18*%
X135060300Y-88120000D02*
X136472000Y-89531700D01*
X136472000Y-89531700D02*
X136906700Y-89531700D01*
X136906700Y-89531700D02*
X139823400Y-92448400D01*
X139823400Y-92448400D02*
X139823400Y-93719900D01*
X139823400Y-93719900D02*
X143465300Y-97361800D01*
X143465300Y-97361800D02*
X150138100Y-97361800D01*
X150138100Y-97361800D02*
X150650000Y-96849900D01*
X150650000Y-96849900D02*
X150650000Y-96262500D01*
X134060000Y-88120000D02*
X135060300Y-88120000D01*
%TO.N,/P19*%
X136600000Y-91660300D02*
X137254000Y-91660300D01*
X137254000Y-91660300D02*
X143155900Y-97562200D01*
X143155900Y-97562200D02*
X150438700Y-97562200D01*
X150438700Y-97562200D02*
X151150000Y-96850900D01*
X151150000Y-96850900D02*
X151150000Y-96262500D01*
X136600000Y-90660000D02*
X136600000Y-91660300D01*
%TO.N,/P20*%
X151650000Y-96262500D02*
X151650000Y-96819400D01*
X151650000Y-96819400D02*
X150697800Y-97771600D01*
X150697800Y-97771600D02*
X142586300Y-97771600D01*
X142586300Y-97771600D02*
X136744700Y-91930000D01*
X136744700Y-91930000D02*
X136330300Y-91930000D01*
X136330300Y-91930000D02*
X135060300Y-90660000D01*
X134060000Y-90660000D02*
X135060300Y-90660000D01*
%TO.N,/P21*%
X152150000Y-96262500D02*
X152150000Y-96826100D01*
X152150000Y-96826100D02*
X150978000Y-97998100D01*
X150978000Y-97998100D02*
X142398400Y-97998100D01*
X142398400Y-97998100D02*
X137600300Y-93200000D01*
X136600000Y-93200000D02*
X137600300Y-93200000D01*
%TO.N,/P22*%
X134060000Y-93200000D02*
X135060300Y-93200000D01*
X152650000Y-96262500D02*
X152650000Y-96826100D01*
X152650000Y-96826100D02*
X151244900Y-98231200D01*
X151244900Y-98231200D02*
X141747700Y-98231200D01*
X141747700Y-98231200D02*
X137951900Y-94435400D01*
X137951900Y-94435400D02*
X136295700Y-94435400D01*
X136295700Y-94435400D02*
X135060300Y-93200000D01*
%TO.N,/P23*%
X137600300Y-95740000D02*
X140492200Y-98631900D01*
X140492200Y-98631900D02*
X151857600Y-98631900D01*
X151857600Y-98631900D02*
X153650000Y-96839500D01*
X153650000Y-96839500D02*
X153650000Y-96262500D01*
X136600000Y-95740000D02*
X137600300Y-95740000D01*
%TO.N,/P24*%
X135060300Y-95740000D02*
X136330300Y-97010000D01*
X136330300Y-97010000D02*
X137445300Y-97010000D01*
X137445300Y-97010000D02*
X139267500Y-98832200D01*
X139267500Y-98832200D02*
X152137800Y-98832200D01*
X152137800Y-98832200D02*
X154150000Y-96820000D01*
X154150000Y-96820000D02*
X154150000Y-96262500D01*
X134060000Y-95740000D02*
X135060300Y-95740000D01*
%TO.N,/P25*%
X156562500Y-94850000D02*
X156319200Y-95093300D01*
X156319200Y-95093300D02*
X156319200Y-96199100D01*
X156319200Y-96199100D02*
X156404000Y-96283900D01*
%TO.N,/P26*%
X156562500Y-94350000D02*
X157151100Y-94350000D01*
X157151100Y-94350000D02*
X157450700Y-94649600D01*
X157450700Y-94649600D02*
X157450700Y-95050400D01*
X157450700Y-95050400D02*
X156998000Y-95503100D01*
X156998000Y-95503100D02*
X156896700Y-95503100D01*
%TO.N,/P27*%
X156562500Y-93850000D02*
X157186900Y-93850000D01*
X157186900Y-93850000D02*
X157651100Y-94314200D01*
X157651100Y-94314200D02*
X157651100Y-96244600D01*
X157651100Y-96244600D02*
X156711400Y-97184300D01*
%TO.N,/P28*%
X156562500Y-93350000D02*
X155974700Y-93350000D01*
X155974700Y-93350000D02*
X155668700Y-93656000D01*
X155668700Y-93656000D02*
X155668700Y-95117200D01*
X155668700Y-95117200D02*
X155860100Y-95308600D01*
X155860100Y-95308600D02*
X155860100Y-96049700D01*
X155860100Y-96049700D02*
X155853700Y-96056100D01*
X155853700Y-96056100D02*
X155853700Y-97423400D01*
X155853700Y-97423400D02*
X155944700Y-97514400D01*
X155944700Y-97514400D02*
X155944700Y-100050900D01*
X155944700Y-100050900D02*
X152231900Y-103763700D01*
X152231900Y-103763700D02*
X138803900Y-103763700D01*
X138803900Y-103763700D02*
X137130200Y-102090000D01*
X137130200Y-102090000D02*
X136330300Y-102090000D01*
X136330300Y-102090000D02*
X135060300Y-100820000D01*
X134060000Y-100820000D02*
X135060300Y-100820000D01*
%TO.N,/P29*%
X136600000Y-103360000D02*
X137600300Y-103360000D01*
X156562500Y-92850000D02*
X157145700Y-92850000D01*
X157145700Y-92850000D02*
X157865600Y-93569900D01*
X157865600Y-93569900D02*
X157865600Y-98413400D01*
X157865600Y-98413400D02*
X152314900Y-103964100D01*
X152314900Y-103964100D02*
X138204400Y-103964100D01*
X138204400Y-103964100D02*
X137600300Y-103360000D01*
%TO.N,Net-(C13-Pad1)*%
X145012800Y-88680000D02*
X145012800Y-89792600D01*
X145012800Y-89792600D02*
X146570200Y-91350000D01*
X146570200Y-91350000D02*
X148237500Y-91350000D01*
X141800000Y-88600000D02*
X144932800Y-88600000D01*
X144932800Y-88600000D02*
X145012800Y-88680000D01*
X145012800Y-88680000D02*
X145400000Y-88680000D01*
%TO.N,Net-(C14-Pad1)*%
X146981900Y-91962000D02*
X148125500Y-91962000D01*
X148125500Y-91962000D02*
X148237500Y-91850000D01*
X141800000Y-93480000D02*
X145360000Y-93480000D01*
X145360000Y-93480000D02*
X145400000Y-93520000D01*
%TD*%
M02*
