%TF.GenerationSoftware,KiCad,Pcbnew,5.1.7+dfsg1-1~bpo10+1*%
%TF.CreationDate,2020-10-25T19:55:51+08:00*%
%TF.ProjectId,stm32-io-extend,73746d33-322d-4696-9f2d-657874656e64,rev?*%
%TF.SameCoordinates,Original*%
%TF.FileFunction,Copper,L2,Bot*%
%TF.FilePolarity,Positive*%
%FSLAX46Y46*%
G04 Gerber Fmt 4.6, Leading zero omitted, Abs format (unit mm)*
G04 Created by KiCad (PCBNEW 5.1.7+dfsg1-1~bpo10+1) date 2020-10-25 19:55:51*
%MOMM*%
%LPD*%
G01*
G04 APERTURE LIST*
%TA.AperFunction,ComponentPad*%
%ADD10O,2.000000X0.900000*%
%TD*%
%TA.AperFunction,ComponentPad*%
%ADD11O,1.700000X0.900000*%
%TD*%
%TA.AperFunction,ComponentPad*%
%ADD12R,1.700000X1.700000*%
%TD*%
%TA.AperFunction,ComponentPad*%
%ADD13O,1.700000X1.700000*%
%TD*%
%TA.AperFunction,ComponentPad*%
%ADD14R,1.600000X1.600000*%
%TD*%
%TA.AperFunction,ComponentPad*%
%ADD15O,1.600000X1.600000*%
%TD*%
%TA.AperFunction,ComponentPad*%
%ADD16C,2.000000*%
%TD*%
%TA.AperFunction,ComponentPad*%
%ADD17C,1.500000*%
%TD*%
%TA.AperFunction,ViaPad*%
%ADD18C,0.800000*%
%TD*%
%TA.AperFunction,Conductor*%
%ADD19C,0.100000*%
%TD*%
G04 APERTURE END LIST*
D10*
%TO.P,J1,S1*%
%TO.N,GND*%
X157570000Y-75320000D03*
X157570000Y-66680000D03*
D11*
X161740000Y-75320000D03*
X161740000Y-66680000D03*
%TD*%
%TO.P,J2,S1*%
%TO.N,GND*%
X161740000Y-78180000D03*
X161740000Y-86820000D03*
D10*
X157570000Y-78180000D03*
X157570000Y-86820000D03*
%TD*%
D12*
%TO.P,J3,1*%
%TO.N,/P1*%
X136600000Y-67800000D03*
D13*
%TO.P,J3,2*%
%TO.N,/P2*%
X134060000Y-67800000D03*
%TO.P,J3,3*%
%TO.N,/P3*%
X136600000Y-70340000D03*
%TO.P,J3,4*%
%TO.N,/P4*%
X134060000Y-70340000D03*
%TO.P,J3,5*%
%TO.N,/P5*%
X136600000Y-72880000D03*
%TO.P,J3,6*%
%TO.N,/P6*%
X134060000Y-72880000D03*
%TO.P,J3,7*%
%TO.N,/P7*%
X136600000Y-75420000D03*
%TO.P,J3,8*%
%TO.N,/P8*%
X134060000Y-75420000D03*
%TO.P,J3,9*%
%TO.N,/P9*%
X136600000Y-77960000D03*
%TO.P,J3,10*%
%TO.N,/P10*%
X134060000Y-77960000D03*
%TO.P,J3,11*%
%TO.N,/P11*%
X136600000Y-80500000D03*
%TO.P,J3,12*%
%TO.N,/P12*%
X134060000Y-80500000D03*
%TO.P,J3,13*%
%TO.N,/P13*%
X136600000Y-83040000D03*
%TO.P,J3,14*%
%TO.N,/P14*%
X134060000Y-83040000D03*
%TO.P,J3,15*%
%TO.N,/P15*%
X136600000Y-85580000D03*
%TO.P,J3,16*%
%TO.N,/P16*%
X134060000Y-85580000D03*
%TO.P,J3,17*%
%TO.N,/P17*%
X136600000Y-88120000D03*
%TO.P,J3,18*%
%TO.N,/P18*%
X134060000Y-88120000D03*
%TO.P,J3,19*%
%TO.N,/P19*%
X136600000Y-90660000D03*
%TO.P,J3,20*%
%TO.N,/P20*%
X134060000Y-90660000D03*
%TO.P,J3,21*%
%TO.N,/P21*%
X136600000Y-93200000D03*
%TO.P,J3,22*%
%TO.N,/P22*%
X134060000Y-93200000D03*
%TO.P,J3,23*%
%TO.N,/P23*%
X136600000Y-95740000D03*
%TO.P,J3,24*%
%TO.N,/P24*%
X134060000Y-95740000D03*
%TO.P,J3,25*%
%TO.N,/P25*%
X136600000Y-98280000D03*
%TO.P,J3,26*%
%TO.N,/P26*%
X134060000Y-98280000D03*
%TO.P,J3,27*%
%TO.N,/P27*%
X136600000Y-100820000D03*
%TO.P,J3,28*%
%TO.N,/P28*%
X134060000Y-100820000D03*
%TO.P,J3,29*%
%TO.N,/P29*%
X136600000Y-103360000D03*
%TO.P,J3,30*%
%TO.N,+3V3*%
X134060000Y-103360000D03*
%TO.P,J3,31*%
%TO.N,GND*%
X136600000Y-105900000D03*
%TO.P,J3,32*%
%TO.N,+5V*%
X134060000Y-105900000D03*
%TD*%
D14*
%TO.P,SW1,1*%
%TO.N,Net-(R2-Pad1)*%
X142200000Y-102800000D03*
D15*
%TO.P,SW1,3*%
%TO.N,/BOOT1*%
X149820000Y-105340000D03*
%TO.P,SW1,2*%
%TO.N,Net-(R1-Pad2)*%
X142200000Y-105340000D03*
%TO.P,SW1,4*%
%TO.N,/BOOT0*%
X149820000Y-102800000D03*
%TD*%
D16*
%TO.P,SW2,2*%
%TO.N,GND*%
X156900000Y-106000000D03*
%TO.P,SW2,1*%
%TO.N,/NRST*%
X156900000Y-101500000D03*
%TO.P,SW2,2*%
%TO.N,GND*%
X163400000Y-106000000D03*
%TO.P,SW2,1*%
%TO.N,/NRST*%
X163400000Y-101500000D03*
%TD*%
D17*
%TO.P,Y1,1*%
%TO.N,Net-(C13-Pad1)*%
X141800000Y-88600000D03*
%TO.P,Y1,2*%
%TO.N,Net-(C14-Pad1)*%
X141800000Y-93480000D03*
%TD*%
D18*
%TO.N,+3V3*%
X158923900Y-98288600D03*
X155192300Y-98703000D03*
X154964900Y-85469600D03*
X154042900Y-93977400D03*
%TO.N,/NRST*%
X150416600Y-92246600D03*
%TO.N,Net-(J2-PadA6)*%
X158678000Y-91085300D03*
X155909400Y-81750000D03*
%TO.N,Net-(J2-PadA7)*%
X160822100Y-91631400D03*
X155906800Y-83288700D03*
%TO.N,/P1*%
X151941100Y-83424300D03*
%TO.N,/P2*%
X153310900Y-85628900D03*
%TO.N,/P10*%
X147554700Y-88696200D03*
%TO.N,/P11*%
X149479800Y-90845500D03*
%TO.N,/P12*%
X146809000Y-90792800D03*
%TO.N,/P13*%
X149476000Y-93825700D03*
%TO.N,/P25*%
X156404000Y-96283900D03*
%TO.N,/P26*%
X156896700Y-95503100D03*
%TO.N,/P27*%
X156711400Y-97184300D03*
%TO.N,Net-(C14-Pad1)*%
X146981900Y-91962000D03*
%TD*%
D19*
%TO.N,GND*%
X156900000Y-106000000D02*
X163400000Y-106000000D01*
X137600300Y-105900000D02*
X138003800Y-106303500D01*
X138003800Y-106303500D02*
X156596500Y-106303500D01*
X156596500Y-106303500D02*
X156900000Y-106000000D01*
X161740000Y-66680000D02*
X157570000Y-66680000D01*
X160739700Y-86820000D02*
X158720300Y-86820000D01*
X161740000Y-86820000D02*
X160739700Y-86820000D01*
X160739700Y-86820000D02*
X160739700Y-78180000D01*
X160739700Y-78180000D02*
X161740000Y-78180000D01*
X157570000Y-78180000D02*
X160739700Y-78180000D01*
X160739700Y-78180000D02*
X160739700Y-75320000D01*
X161740000Y-75320000D02*
X160739700Y-75320000D01*
X136600000Y-105900000D02*
X137600300Y-105900000D01*
X157570000Y-86820000D02*
X158720300Y-86820000D01*
%TO.N,+3V3*%
X157502000Y-98144300D02*
X158779600Y-98144300D01*
X158779600Y-98144300D02*
X158923900Y-98288600D01*
X157502000Y-98144300D02*
X155751000Y-98144300D01*
X155751000Y-98144300D02*
X155192300Y-98703000D01*
X154042900Y-93977400D02*
X156152600Y-93977400D01*
X156152600Y-93977400D02*
X157502000Y-95326800D01*
X157502000Y-95326800D02*
X157502000Y-98144300D01*
X154042900Y-93977400D02*
X151339000Y-93977400D01*
X151339000Y-93977400D02*
X149864600Y-92503000D01*
X149864600Y-92503000D02*
X149864600Y-91946300D01*
X149864600Y-91946300D02*
X154964900Y-86846000D01*
X154964900Y-86846000D02*
X154964900Y-85469600D01*
X135060300Y-103360000D02*
X136330300Y-102090000D01*
X136330300Y-102090000D02*
X140980000Y-102090000D01*
X140980000Y-102090000D02*
X144367000Y-98703000D01*
X144367000Y-98703000D02*
X155192300Y-98703000D01*
X134060000Y-103360000D02*
X135060300Y-103360000D01*
%TO.N,/NRST*%
X159477300Y-99052200D02*
X157029500Y-101500000D01*
X157029500Y-101500000D02*
X156900000Y-101500000D01*
X150416600Y-92246600D02*
X154727300Y-92246600D01*
X154727300Y-92246600D02*
X159477300Y-96996600D01*
X159477300Y-96996600D02*
X159477300Y-99052200D01*
X163400000Y-101500000D02*
X161925100Y-101500000D01*
X161925100Y-101500000D02*
X159477300Y-99052200D01*
%TO.N,Net-(J2-PadA6)*%
X158678000Y-91085300D02*
X155515200Y-87922500D01*
X155515200Y-87922500D02*
X155515200Y-85226100D01*
X155515200Y-85226100D02*
X155323800Y-85034700D01*
X155323800Y-85034700D02*
X155323800Y-82335600D01*
X155323800Y-82335600D02*
X155909400Y-81750000D01*
%TO.N,Net-(J2-PadA7)*%
X160822100Y-91631400D02*
X155906800Y-86716100D01*
X155906800Y-86716100D02*
X155906800Y-83288700D01*
%TO.N,/P1*%
X151941100Y-83424300D02*
X136600000Y-68083200D01*
X136600000Y-68083200D02*
X136600000Y-67800000D01*
%TO.N,/P2*%
X135060300Y-67800000D02*
X135060300Y-68214600D01*
X135060300Y-68214600D02*
X135844800Y-68999100D01*
X135844800Y-68999100D02*
X136681100Y-68999100D01*
X136681100Y-68999100D02*
X153310900Y-85628900D01*
X134060000Y-67800000D02*
X135060300Y-67800000D01*
%TO.N,/P10*%
X135060300Y-77960000D02*
X136599900Y-79499600D01*
X136599900Y-79499600D02*
X138358100Y-79499600D01*
X138358100Y-79499600D02*
X147554700Y-88696200D01*
X134060000Y-77960000D02*
X135060300Y-77960000D01*
%TO.N,/P11*%
X136600000Y-80500000D02*
X137600300Y-80500000D01*
X137600300Y-80500000D02*
X147945800Y-90845500D01*
X147945800Y-90845500D02*
X149479800Y-90845500D01*
%TO.N,/P12*%
X134060000Y-81500300D02*
X135060300Y-82500600D01*
X135060300Y-82500600D02*
X135060300Y-82983500D01*
X135060300Y-82983500D02*
X136117200Y-84040400D01*
X136117200Y-84040400D02*
X140056600Y-84040400D01*
X140056600Y-84040400D02*
X146809000Y-90792800D01*
X134060000Y-80500000D02*
X134060000Y-81500300D01*
%TO.N,/P13*%
X136600000Y-83040000D02*
X139834700Y-83040000D01*
X139834700Y-83040000D02*
X149476000Y-92681300D01*
X149476000Y-92681300D02*
X149476000Y-93825700D01*
%TO.N,/P25*%
X137600300Y-98280000D02*
X138307600Y-97572700D01*
X138307600Y-97572700D02*
X155115200Y-97572700D01*
X155115200Y-97572700D02*
X156404000Y-96283900D01*
X136600000Y-98280000D02*
X137600300Y-98280000D01*
%TO.N,/P26*%
X135060300Y-98280000D02*
X136060600Y-97279700D01*
X136060600Y-97279700D02*
X154379200Y-97279700D01*
X154379200Y-97279700D02*
X156155800Y-95503100D01*
X156155800Y-95503100D02*
X156896700Y-95503100D01*
X134060000Y-98280000D02*
X135060300Y-98280000D01*
%TO.N,/P27*%
X156711400Y-97184300D02*
X156080900Y-97814800D01*
X156080900Y-97814800D02*
X140605500Y-97814800D01*
X140605500Y-97814800D02*
X137600300Y-100820000D01*
X136600000Y-100820000D02*
X137600300Y-100820000D01*
%TO.N,Net-(C14-Pad1)*%
X141800000Y-93480000D02*
X145463900Y-93480000D01*
X145463900Y-93480000D02*
X146981900Y-91962000D01*
%TD*%
M02*
