%TF.GenerationSoftware,KiCad,Pcbnew,5.1.7+dfsg1-1~bpo10+1*%
%TF.CreationDate,2020-10-25T19:55:51+08:00*%
%TF.ProjectId,stm32-io-extend,73746d33-322d-4696-9f2d-657874656e64,rev?*%
%TF.SameCoordinates,Original*%
%TF.FileFunction,Soldermask,Top*%
%TF.FilePolarity,Negative*%
%FSLAX46Y46*%
G04 Gerber Fmt 4.6, Leading zero omitted, Abs format (unit mm)*
G04 Created by KiCad (PCBNEW 5.1.7+dfsg1-1~bpo10+1) date 2020-10-25 19:55:51*
%MOMM*%
%LPD*%
G01*
G04 APERTURE LIST*
%ADD10O,2.000000X0.900000*%
%ADD11O,1.700000X0.900000*%
%ADD12R,1.160000X0.300000*%
%ADD13C,0.600000*%
%ADD14R,1.160000X0.600000*%
%ADD15R,1.700000X1.700000*%
%ADD16O,1.700000X1.700000*%
%ADD17R,1.600000X1.600000*%
%ADD18O,1.600000X1.600000*%
%ADD19C,2.000000*%
%ADD20R,2.000000X3.800000*%
%ADD21R,2.000000X1.500000*%
%ADD22C,1.500000*%
G04 APERTURE END LIST*
%TO.C,C1*%
G36*
G01*
X150000000Y-67090000D02*
X150200000Y-67090000D01*
G75*
G02*
X150300000Y-67190000I0J-100000D01*
G01*
X150300000Y-67450000D01*
G75*
G02*
X150200000Y-67550000I-100000J0D01*
G01*
X150000000Y-67550000D01*
G75*
G02*
X149900000Y-67450000I0J100000D01*
G01*
X149900000Y-67190000D01*
G75*
G02*
X150000000Y-67090000I100000J0D01*
G01*
G37*
G36*
G01*
X150000000Y-66450000D02*
X150200000Y-66450000D01*
G75*
G02*
X150300000Y-66550000I0J-100000D01*
G01*
X150300000Y-66810000D01*
G75*
G02*
X150200000Y-66910000I-100000J0D01*
G01*
X150000000Y-66910000D01*
G75*
G02*
X149900000Y-66810000I0J100000D01*
G01*
X149900000Y-66550000D01*
G75*
G02*
X150000000Y-66450000I100000J0D01*
G01*
G37*
%TD*%
%TO.C,C2*%
G36*
G01*
X146600000Y-89550000D02*
X146400000Y-89550000D01*
G75*
G02*
X146300000Y-89450000I0J100000D01*
G01*
X146300000Y-89190000D01*
G75*
G02*
X146400000Y-89090000I100000J0D01*
G01*
X146600000Y-89090000D01*
G75*
G02*
X146700000Y-89190000I0J-100000D01*
G01*
X146700000Y-89450000D01*
G75*
G02*
X146600000Y-89550000I-100000J0D01*
G01*
G37*
G36*
G01*
X146600000Y-88910000D02*
X146400000Y-88910000D01*
G75*
G02*
X146300000Y-88810000I0J100000D01*
G01*
X146300000Y-88550000D01*
G75*
G02*
X146400000Y-88450000I100000J0D01*
G01*
X146600000Y-88450000D01*
G75*
G02*
X146700000Y-88550000I0J-100000D01*
G01*
X146700000Y-88810000D01*
G75*
G02*
X146600000Y-88910000I-100000J0D01*
G01*
G37*
%TD*%
%TO.C,C3*%
G36*
G01*
X146600000Y-93110000D02*
X146400000Y-93110000D01*
G75*
G02*
X146300000Y-93010000I0J100000D01*
G01*
X146300000Y-92750000D01*
G75*
G02*
X146400000Y-92650000I100000J0D01*
G01*
X146600000Y-92650000D01*
G75*
G02*
X146700000Y-92750000I0J-100000D01*
G01*
X146700000Y-93010000D01*
G75*
G02*
X146600000Y-93110000I-100000J0D01*
G01*
G37*
G36*
G01*
X146600000Y-93750000D02*
X146400000Y-93750000D01*
G75*
G02*
X146300000Y-93650000I0J100000D01*
G01*
X146300000Y-93390000D01*
G75*
G02*
X146400000Y-93290000I100000J0D01*
G01*
X146600000Y-93290000D01*
G75*
G02*
X146700000Y-93390000I0J-100000D01*
G01*
X146700000Y-93650000D01*
G75*
G02*
X146600000Y-93750000I-100000J0D01*
G01*
G37*
%TD*%
%TO.C,C4*%
G36*
G01*
X148450000Y-67825000D02*
X148950000Y-67825000D01*
G75*
G02*
X149175000Y-68050000I0J-225000D01*
G01*
X149175000Y-68500000D01*
G75*
G02*
X148950000Y-68725000I-225000J0D01*
G01*
X148450000Y-68725000D01*
G75*
G02*
X148225000Y-68500000I0J225000D01*
G01*
X148225000Y-68050000D01*
G75*
G02*
X148450000Y-67825000I225000J0D01*
G01*
G37*
G36*
G01*
X148450000Y-66275000D02*
X148950000Y-66275000D01*
G75*
G02*
X149175000Y-66500000I0J-225000D01*
G01*
X149175000Y-66950000D01*
G75*
G02*
X148950000Y-67175000I-225000J0D01*
G01*
X148450000Y-67175000D01*
G75*
G02*
X148225000Y-66950000I0J225000D01*
G01*
X148225000Y-66500000D01*
G75*
G02*
X148450000Y-66275000I225000J0D01*
G01*
G37*
%TD*%
%TO.C,C5*%
G36*
G01*
X154910000Y-97900000D02*
X154910000Y-98100000D01*
G75*
G02*
X154810000Y-98200000I-100000J0D01*
G01*
X154550000Y-98200000D01*
G75*
G02*
X154450000Y-98100000I0J100000D01*
G01*
X154450000Y-97900000D01*
G75*
G02*
X154550000Y-97800000I100000J0D01*
G01*
X154810000Y-97800000D01*
G75*
G02*
X154910000Y-97900000I0J-100000D01*
G01*
G37*
G36*
G01*
X155550000Y-97900000D02*
X155550000Y-98100000D01*
G75*
G02*
X155450000Y-98200000I-100000J0D01*
G01*
X155190000Y-98200000D01*
G75*
G02*
X155090000Y-98100000I0J100000D01*
G01*
X155090000Y-97900000D01*
G75*
G02*
X155190000Y-97800000I100000J0D01*
G01*
X155450000Y-97800000D01*
G75*
G02*
X155550000Y-97900000I0J-100000D01*
G01*
G37*
%TD*%
%TO.C,C6*%
G36*
G01*
X152000000Y-71950000D02*
X152200000Y-71950000D01*
G75*
G02*
X152300000Y-72050000I0J-100000D01*
G01*
X152300000Y-72310000D01*
G75*
G02*
X152200000Y-72410000I-100000J0D01*
G01*
X152000000Y-72410000D01*
G75*
G02*
X151900000Y-72310000I0J100000D01*
G01*
X151900000Y-72050000D01*
G75*
G02*
X152000000Y-71950000I100000J0D01*
G01*
G37*
G36*
G01*
X152000000Y-72590000D02*
X152200000Y-72590000D01*
G75*
G02*
X152300000Y-72690000I0J-100000D01*
G01*
X152300000Y-72950000D01*
G75*
G02*
X152200000Y-73050000I-100000J0D01*
G01*
X152000000Y-73050000D01*
G75*
G02*
X151900000Y-72950000I0J100000D01*
G01*
X151900000Y-72690000D01*
G75*
G02*
X152000000Y-72590000I100000J0D01*
G01*
G37*
%TD*%
%TO.C,C7*%
G36*
G01*
X158200000Y-89050000D02*
X158400000Y-89050000D01*
G75*
G02*
X158500000Y-89150000I0J-100000D01*
G01*
X158500000Y-89410000D01*
G75*
G02*
X158400000Y-89510000I-100000J0D01*
G01*
X158200000Y-89510000D01*
G75*
G02*
X158100000Y-89410000I0J100000D01*
G01*
X158100000Y-89150000D01*
G75*
G02*
X158200000Y-89050000I100000J0D01*
G01*
G37*
G36*
G01*
X158200000Y-89690000D02*
X158400000Y-89690000D01*
G75*
G02*
X158500000Y-89790000I0J-100000D01*
G01*
X158500000Y-90050000D01*
G75*
G02*
X158400000Y-90150000I-100000J0D01*
G01*
X158200000Y-90150000D01*
G75*
G02*
X158100000Y-90050000I0J100000D01*
G01*
X158100000Y-89790000D01*
G75*
G02*
X158200000Y-89690000I100000J0D01*
G01*
G37*
%TD*%
%TO.C,C8*%
G36*
G01*
X149250000Y-86300000D02*
X149250000Y-86100000D01*
G75*
G02*
X149350000Y-86000000I100000J0D01*
G01*
X149610000Y-86000000D01*
G75*
G02*
X149710000Y-86100000I0J-100000D01*
G01*
X149710000Y-86300000D01*
G75*
G02*
X149610000Y-86400000I-100000J0D01*
G01*
X149350000Y-86400000D01*
G75*
G02*
X149250000Y-86300000I0J100000D01*
G01*
G37*
G36*
G01*
X149890000Y-86300000D02*
X149890000Y-86100000D01*
G75*
G02*
X149990000Y-86000000I100000J0D01*
G01*
X150250000Y-86000000D01*
G75*
G02*
X150350000Y-86100000I0J-100000D01*
G01*
X150350000Y-86300000D01*
G75*
G02*
X150250000Y-86400000I-100000J0D01*
G01*
X149990000Y-86400000D01*
G75*
G02*
X149890000Y-86300000I0J100000D01*
G01*
G37*
%TD*%
%TO.C,C9*%
G36*
G01*
X150250000Y-77100000D02*
X150250000Y-76900000D01*
G75*
G02*
X150350000Y-76800000I100000J0D01*
G01*
X150610000Y-76800000D01*
G75*
G02*
X150710000Y-76900000I0J-100000D01*
G01*
X150710000Y-77100000D01*
G75*
G02*
X150610000Y-77200000I-100000J0D01*
G01*
X150350000Y-77200000D01*
G75*
G02*
X150250000Y-77100000I0J100000D01*
G01*
G37*
G36*
G01*
X150890000Y-77100000D02*
X150890000Y-76900000D01*
G75*
G02*
X150990000Y-76800000I100000J0D01*
G01*
X151250000Y-76800000D01*
G75*
G02*
X151350000Y-76900000I0J-100000D01*
G01*
X151350000Y-77100000D01*
G75*
G02*
X151250000Y-77200000I-100000J0D01*
G01*
X150990000Y-77200000D01*
G75*
G02*
X150890000Y-77100000I0J100000D01*
G01*
G37*
%TD*%
%TO.C,C10*%
G36*
G01*
X148450000Y-70475000D02*
X148950000Y-70475000D01*
G75*
G02*
X149175000Y-70700000I0J-225000D01*
G01*
X149175000Y-71150000D01*
G75*
G02*
X148950000Y-71375000I-225000J0D01*
G01*
X148450000Y-71375000D01*
G75*
G02*
X148225000Y-71150000I0J225000D01*
G01*
X148225000Y-70700000D01*
G75*
G02*
X148450000Y-70475000I225000J0D01*
G01*
G37*
G36*
G01*
X148450000Y-72025000D02*
X148950000Y-72025000D01*
G75*
G02*
X149175000Y-72250000I0J-225000D01*
G01*
X149175000Y-72700000D01*
G75*
G02*
X148950000Y-72925000I-225000J0D01*
G01*
X148450000Y-72925000D01*
G75*
G02*
X148225000Y-72700000I0J225000D01*
G01*
X148225000Y-72250000D01*
G75*
G02*
X148450000Y-72025000I225000J0D01*
G01*
G37*
%TD*%
%TO.C,C11*%
G36*
G01*
X150350000Y-70475000D02*
X150850000Y-70475000D01*
G75*
G02*
X151075000Y-70700000I0J-225000D01*
G01*
X151075000Y-71150000D01*
G75*
G02*
X150850000Y-71375000I-225000J0D01*
G01*
X150350000Y-71375000D01*
G75*
G02*
X150125000Y-71150000I0J225000D01*
G01*
X150125000Y-70700000D01*
G75*
G02*
X150350000Y-70475000I225000J0D01*
G01*
G37*
G36*
G01*
X150350000Y-72025000D02*
X150850000Y-72025000D01*
G75*
G02*
X151075000Y-72250000I0J-225000D01*
G01*
X151075000Y-72700000D01*
G75*
G02*
X150850000Y-72925000I-225000J0D01*
G01*
X150350000Y-72925000D01*
G75*
G02*
X150125000Y-72700000I0J225000D01*
G01*
X150125000Y-72250000D01*
G75*
G02*
X150350000Y-72025000I225000J0D01*
G01*
G37*
%TD*%
%TO.C,C12*%
G36*
G01*
X164390000Y-99500000D02*
X164390000Y-99300000D01*
G75*
G02*
X164490000Y-99200000I100000J0D01*
G01*
X164750000Y-99200000D01*
G75*
G02*
X164850000Y-99300000I0J-100000D01*
G01*
X164850000Y-99500000D01*
G75*
G02*
X164750000Y-99600000I-100000J0D01*
G01*
X164490000Y-99600000D01*
G75*
G02*
X164390000Y-99500000I0J100000D01*
G01*
G37*
G36*
G01*
X163750000Y-99500000D02*
X163750000Y-99300000D01*
G75*
G02*
X163850000Y-99200000I100000J0D01*
G01*
X164110000Y-99200000D01*
G75*
G02*
X164210000Y-99300000I0J-100000D01*
G01*
X164210000Y-99500000D01*
G75*
G02*
X164110000Y-99600000I-100000J0D01*
G01*
X163850000Y-99600000D01*
G75*
G02*
X163750000Y-99500000I0J100000D01*
G01*
G37*
%TD*%
%TO.C,C13*%
G36*
G01*
X145300000Y-88450000D02*
X145500000Y-88450000D01*
G75*
G02*
X145600000Y-88550000I0J-100000D01*
G01*
X145600000Y-88810000D01*
G75*
G02*
X145500000Y-88910000I-100000J0D01*
G01*
X145300000Y-88910000D01*
G75*
G02*
X145200000Y-88810000I0J100000D01*
G01*
X145200000Y-88550000D01*
G75*
G02*
X145300000Y-88450000I100000J0D01*
G01*
G37*
G36*
G01*
X145300000Y-89090000D02*
X145500000Y-89090000D01*
G75*
G02*
X145600000Y-89190000I0J-100000D01*
G01*
X145600000Y-89450000D01*
G75*
G02*
X145500000Y-89550000I-100000J0D01*
G01*
X145300000Y-89550000D01*
G75*
G02*
X145200000Y-89450000I0J100000D01*
G01*
X145200000Y-89190000D01*
G75*
G02*
X145300000Y-89090000I100000J0D01*
G01*
G37*
%TD*%
%TO.C,C14*%
G36*
G01*
X145500000Y-93110000D02*
X145300000Y-93110000D01*
G75*
G02*
X145200000Y-93010000I0J100000D01*
G01*
X145200000Y-92750000D01*
G75*
G02*
X145300000Y-92650000I100000J0D01*
G01*
X145500000Y-92650000D01*
G75*
G02*
X145600000Y-92750000I0J-100000D01*
G01*
X145600000Y-93010000D01*
G75*
G02*
X145500000Y-93110000I-100000J0D01*
G01*
G37*
G36*
G01*
X145500000Y-93750000D02*
X145300000Y-93750000D01*
G75*
G02*
X145200000Y-93650000I0J100000D01*
G01*
X145200000Y-93390000D01*
G75*
G02*
X145300000Y-93290000I100000J0D01*
G01*
X145500000Y-93290000D01*
G75*
G02*
X145600000Y-93390000I0J-100000D01*
G01*
X145600000Y-93650000D01*
G75*
G02*
X145500000Y-93750000I-100000J0D01*
G01*
G37*
%TD*%
D10*
%TO.C,J1*%
X157570000Y-75320000D03*
X157570000Y-66680000D03*
D11*
X161740000Y-75320000D03*
X161740000Y-66680000D03*
D12*
X156990000Y-71750000D03*
X156990000Y-71250000D03*
X156990000Y-70750000D03*
X156990000Y-72750000D03*
X156990000Y-72250000D03*
X156990000Y-69750000D03*
X156990000Y-70250000D03*
X156990000Y-69250000D03*
D13*
X158050000Y-68110000D03*
X158050000Y-73890000D03*
D14*
X156990000Y-73400000D03*
X156990000Y-73400000D03*
X156990000Y-74200000D03*
X156990000Y-74200000D03*
X156990000Y-68600000D03*
X156990000Y-67800000D03*
X156990000Y-68600000D03*
X156990000Y-67800000D03*
%TD*%
%TO.C,J2*%
X156990000Y-79300000D03*
X156990000Y-80100000D03*
X156990000Y-79300000D03*
X156990000Y-80100000D03*
X156990000Y-85700000D03*
X156990000Y-85700000D03*
X156990000Y-84900000D03*
X156990000Y-84900000D03*
D13*
X158050000Y-85390000D03*
X158050000Y-79610000D03*
D12*
X156990000Y-80750000D03*
X156990000Y-81750000D03*
X156990000Y-81250000D03*
X156990000Y-83750000D03*
X156990000Y-84250000D03*
X156990000Y-82250000D03*
X156990000Y-82750000D03*
X156990000Y-83250000D03*
D11*
X161740000Y-78180000D03*
X161740000Y-86820000D03*
D10*
X157570000Y-78180000D03*
X157570000Y-86820000D03*
%TD*%
D15*
%TO.C,J3*%
X136600000Y-67800000D03*
D16*
X134060000Y-67800000D03*
X136600000Y-70340000D03*
X134060000Y-70340000D03*
X136600000Y-72880000D03*
X134060000Y-72880000D03*
X136600000Y-75420000D03*
X134060000Y-75420000D03*
X136600000Y-77960000D03*
X134060000Y-77960000D03*
X136600000Y-80500000D03*
X134060000Y-80500000D03*
X136600000Y-83040000D03*
X134060000Y-83040000D03*
X136600000Y-85580000D03*
X134060000Y-85580000D03*
X136600000Y-88120000D03*
X134060000Y-88120000D03*
X136600000Y-90660000D03*
X134060000Y-90660000D03*
X136600000Y-93200000D03*
X134060000Y-93200000D03*
X136600000Y-95740000D03*
X134060000Y-95740000D03*
X136600000Y-98280000D03*
X134060000Y-98280000D03*
X136600000Y-100820000D03*
X134060000Y-100820000D03*
X136600000Y-103360000D03*
X134060000Y-103360000D03*
X136600000Y-105900000D03*
X134060000Y-105900000D03*
%TD*%
%TO.C,R1*%
G36*
G01*
X140090000Y-105400000D02*
X140090000Y-105200000D01*
G75*
G02*
X140190000Y-105100000I100000J0D01*
G01*
X140450000Y-105100000D01*
G75*
G02*
X140550000Y-105200000I0J-100000D01*
G01*
X140550000Y-105400000D01*
G75*
G02*
X140450000Y-105500000I-100000J0D01*
G01*
X140190000Y-105500000D01*
G75*
G02*
X140090000Y-105400000I0J100000D01*
G01*
G37*
G36*
G01*
X139450000Y-105400000D02*
X139450000Y-105200000D01*
G75*
G02*
X139550000Y-105100000I100000J0D01*
G01*
X139810000Y-105100000D01*
G75*
G02*
X139910000Y-105200000I0J-100000D01*
G01*
X139910000Y-105400000D01*
G75*
G02*
X139810000Y-105500000I-100000J0D01*
G01*
X139550000Y-105500000D01*
G75*
G02*
X139450000Y-105400000I0J100000D01*
G01*
G37*
%TD*%
%TO.C,R2*%
G36*
G01*
X140550000Y-102700000D02*
X140550000Y-102900000D01*
G75*
G02*
X140450000Y-103000000I-100000J0D01*
G01*
X140190000Y-103000000D01*
G75*
G02*
X140090000Y-102900000I0J100000D01*
G01*
X140090000Y-102700000D01*
G75*
G02*
X140190000Y-102600000I100000J0D01*
G01*
X140450000Y-102600000D01*
G75*
G02*
X140550000Y-102700000I0J-100000D01*
G01*
G37*
G36*
G01*
X139910000Y-102700000D02*
X139910000Y-102900000D01*
G75*
G02*
X139810000Y-103000000I-100000J0D01*
G01*
X139550000Y-103000000D01*
G75*
G02*
X139450000Y-102900000I0J100000D01*
G01*
X139450000Y-102700000D01*
G75*
G02*
X139550000Y-102600000I100000J0D01*
G01*
X139810000Y-102600000D01*
G75*
G02*
X139910000Y-102700000I0J-100000D01*
G01*
G37*
%TD*%
%TO.C,R3*%
G36*
G01*
X154870000Y-72300000D02*
X154870000Y-72100000D01*
G75*
G02*
X154970000Y-72000000I100000J0D01*
G01*
X155230000Y-72000000D01*
G75*
G02*
X155330000Y-72100000I0J-100000D01*
G01*
X155330000Y-72300000D01*
G75*
G02*
X155230000Y-72400000I-100000J0D01*
G01*
X154970000Y-72400000D01*
G75*
G02*
X154870000Y-72300000I0J100000D01*
G01*
G37*
G36*
G01*
X154230000Y-72300000D02*
X154230000Y-72100000D01*
G75*
G02*
X154330000Y-72000000I100000J0D01*
G01*
X154590000Y-72000000D01*
G75*
G02*
X154690000Y-72100000I0J-100000D01*
G01*
X154690000Y-72300000D01*
G75*
G02*
X154590000Y-72400000I-100000J0D01*
G01*
X154330000Y-72400000D01*
G75*
G02*
X154230000Y-72300000I0J100000D01*
G01*
G37*
%TD*%
%TO.C,R4*%
G36*
G01*
X141750000Y-76900000D02*
X141750000Y-77100000D01*
G75*
G02*
X141650000Y-77200000I-100000J0D01*
G01*
X141390000Y-77200000D01*
G75*
G02*
X141290000Y-77100000I0J100000D01*
G01*
X141290000Y-76900000D01*
G75*
G02*
X141390000Y-76800000I100000J0D01*
G01*
X141650000Y-76800000D01*
G75*
G02*
X141750000Y-76900000I0J-100000D01*
G01*
G37*
G36*
G01*
X141110000Y-76900000D02*
X141110000Y-77100000D01*
G75*
G02*
X141010000Y-77200000I-100000J0D01*
G01*
X140750000Y-77200000D01*
G75*
G02*
X140650000Y-77100000I0J100000D01*
G01*
X140650000Y-76900000D01*
G75*
G02*
X140750000Y-76800000I100000J0D01*
G01*
X141010000Y-76800000D01*
G75*
G02*
X141110000Y-76900000I0J-100000D01*
G01*
G37*
%TD*%
%TO.C,R5*%
G36*
G01*
X141110000Y-78200000D02*
X141110000Y-78400000D01*
G75*
G02*
X141010000Y-78500000I-100000J0D01*
G01*
X140750000Y-78500000D01*
G75*
G02*
X140650000Y-78400000I0J100000D01*
G01*
X140650000Y-78200000D01*
G75*
G02*
X140750000Y-78100000I100000J0D01*
G01*
X141010000Y-78100000D01*
G75*
G02*
X141110000Y-78200000I0J-100000D01*
G01*
G37*
G36*
G01*
X141750000Y-78200000D02*
X141750000Y-78400000D01*
G75*
G02*
X141650000Y-78500000I-100000J0D01*
G01*
X141390000Y-78500000D01*
G75*
G02*
X141290000Y-78400000I0J100000D01*
G01*
X141290000Y-78200000D01*
G75*
G02*
X141390000Y-78100000I100000J0D01*
G01*
X141650000Y-78100000D01*
G75*
G02*
X141750000Y-78200000I0J-100000D01*
G01*
G37*
%TD*%
%TO.C,R6*%
G36*
G01*
X162590000Y-99500000D02*
X162590000Y-99300000D01*
G75*
G02*
X162690000Y-99200000I100000J0D01*
G01*
X162950000Y-99200000D01*
G75*
G02*
X163050000Y-99300000I0J-100000D01*
G01*
X163050000Y-99500000D01*
G75*
G02*
X162950000Y-99600000I-100000J0D01*
G01*
X162690000Y-99600000D01*
G75*
G02*
X162590000Y-99500000I0J100000D01*
G01*
G37*
G36*
G01*
X161950000Y-99500000D02*
X161950000Y-99300000D01*
G75*
G02*
X162050000Y-99200000I100000J0D01*
G01*
X162310000Y-99200000D01*
G75*
G02*
X162410000Y-99300000I0J-100000D01*
G01*
X162410000Y-99500000D01*
G75*
G02*
X162310000Y-99600000I-100000J0D01*
G01*
X162050000Y-99600000D01*
G75*
G02*
X161950000Y-99500000I0J100000D01*
G01*
G37*
%TD*%
%TO.C,R7*%
G36*
G01*
X154250000Y-69400000D02*
X154250000Y-69200000D01*
G75*
G02*
X154350000Y-69100000I100000J0D01*
G01*
X154610000Y-69100000D01*
G75*
G02*
X154710000Y-69200000I0J-100000D01*
G01*
X154710000Y-69400000D01*
G75*
G02*
X154610000Y-69500000I-100000J0D01*
G01*
X154350000Y-69500000D01*
G75*
G02*
X154250000Y-69400000I0J100000D01*
G01*
G37*
G36*
G01*
X154890000Y-69400000D02*
X154890000Y-69200000D01*
G75*
G02*
X154990000Y-69100000I100000J0D01*
G01*
X155250000Y-69100000D01*
G75*
G02*
X155350000Y-69200000I0J-100000D01*
G01*
X155350000Y-69400000D01*
G75*
G02*
X155250000Y-69500000I-100000J0D01*
G01*
X154990000Y-69500000D01*
G75*
G02*
X154890000Y-69400000I0J100000D01*
G01*
G37*
%TD*%
%TO.C,R8*%
G36*
G01*
X151910000Y-105300000D02*
X151910000Y-105500000D01*
G75*
G02*
X151810000Y-105600000I-100000J0D01*
G01*
X151550000Y-105600000D01*
G75*
G02*
X151450000Y-105500000I0J100000D01*
G01*
X151450000Y-105300000D01*
G75*
G02*
X151550000Y-105200000I100000J0D01*
G01*
X151810000Y-105200000D01*
G75*
G02*
X151910000Y-105300000I0J-100000D01*
G01*
G37*
G36*
G01*
X152550000Y-105300000D02*
X152550000Y-105500000D01*
G75*
G02*
X152450000Y-105600000I-100000J0D01*
G01*
X152190000Y-105600000D01*
G75*
G02*
X152090000Y-105500000I0J100000D01*
G01*
X152090000Y-105300000D01*
G75*
G02*
X152190000Y-105200000I100000J0D01*
G01*
X152450000Y-105200000D01*
G75*
G02*
X152550000Y-105300000I0J-100000D01*
G01*
G37*
%TD*%
%TO.C,R9*%
G36*
G01*
X152550000Y-102700000D02*
X152550000Y-102900000D01*
G75*
G02*
X152450000Y-103000000I-100000J0D01*
G01*
X152190000Y-103000000D01*
G75*
G02*
X152090000Y-102900000I0J100000D01*
G01*
X152090000Y-102700000D01*
G75*
G02*
X152190000Y-102600000I100000J0D01*
G01*
X152450000Y-102600000D01*
G75*
G02*
X152550000Y-102700000I0J-100000D01*
G01*
G37*
G36*
G01*
X151910000Y-102700000D02*
X151910000Y-102900000D01*
G75*
G02*
X151810000Y-103000000I-100000J0D01*
G01*
X151550000Y-103000000D01*
G75*
G02*
X151450000Y-102900000I0J100000D01*
G01*
X151450000Y-102700000D01*
G75*
G02*
X151550000Y-102600000I100000J0D01*
G01*
X151810000Y-102600000D01*
G75*
G02*
X151910000Y-102700000I0J-100000D01*
G01*
G37*
%TD*%
%TO.C,R10*%
G36*
G01*
X154870000Y-80800000D02*
X154870000Y-80600000D01*
G75*
G02*
X154970000Y-80500000I100000J0D01*
G01*
X155230000Y-80500000D01*
G75*
G02*
X155330000Y-80600000I0J-100000D01*
G01*
X155330000Y-80800000D01*
G75*
G02*
X155230000Y-80900000I-100000J0D01*
G01*
X154970000Y-80900000D01*
G75*
G02*
X154870000Y-80800000I0J100000D01*
G01*
G37*
G36*
G01*
X154230000Y-80800000D02*
X154230000Y-80600000D01*
G75*
G02*
X154330000Y-80500000I100000J0D01*
G01*
X154590000Y-80500000D01*
G75*
G02*
X154690000Y-80600000I0J-100000D01*
G01*
X154690000Y-80800000D01*
G75*
G02*
X154590000Y-80900000I-100000J0D01*
G01*
X154330000Y-80900000D01*
G75*
G02*
X154230000Y-80800000I0J100000D01*
G01*
G37*
%TD*%
%TO.C,R11*%
G36*
G01*
X159500000Y-91195000D02*
X159300000Y-91195000D01*
G75*
G02*
X159200000Y-91095000I0J100000D01*
G01*
X159200000Y-90835000D01*
G75*
G02*
X159300000Y-90735000I100000J0D01*
G01*
X159500000Y-90735000D01*
G75*
G02*
X159600000Y-90835000I0J-100000D01*
G01*
X159600000Y-91095000D01*
G75*
G02*
X159500000Y-91195000I-100000J0D01*
G01*
G37*
G36*
G01*
X159500000Y-90555000D02*
X159300000Y-90555000D01*
G75*
G02*
X159200000Y-90455000I0J100000D01*
G01*
X159200000Y-90195000D01*
G75*
G02*
X159300000Y-90095000I100000J0D01*
G01*
X159500000Y-90095000D01*
G75*
G02*
X159600000Y-90195000I0J-100000D01*
G01*
X159600000Y-90455000D01*
G75*
G02*
X159500000Y-90555000I-100000J0D01*
G01*
G37*
%TD*%
%TO.C,R12*%
G36*
G01*
X161600000Y-91195000D02*
X161400000Y-91195000D01*
G75*
G02*
X161300000Y-91095000I0J100000D01*
G01*
X161300000Y-90835000D01*
G75*
G02*
X161400000Y-90735000I100000J0D01*
G01*
X161600000Y-90735000D01*
G75*
G02*
X161700000Y-90835000I0J-100000D01*
G01*
X161700000Y-91095000D01*
G75*
G02*
X161600000Y-91195000I-100000J0D01*
G01*
G37*
G36*
G01*
X161600000Y-90555000D02*
X161400000Y-90555000D01*
G75*
G02*
X161300000Y-90455000I0J100000D01*
G01*
X161300000Y-90195000D01*
G75*
G02*
X161400000Y-90095000I100000J0D01*
G01*
X161600000Y-90095000D01*
G75*
G02*
X161700000Y-90195000I0J-100000D01*
G01*
X161700000Y-90455000D01*
G75*
G02*
X161600000Y-90555000I-100000J0D01*
G01*
G37*
%TD*%
%TO.C,R13*%
G36*
G01*
X154250000Y-83800000D02*
X154250000Y-83600000D01*
G75*
G02*
X154350000Y-83500000I100000J0D01*
G01*
X154610000Y-83500000D01*
G75*
G02*
X154710000Y-83600000I0J-100000D01*
G01*
X154710000Y-83800000D01*
G75*
G02*
X154610000Y-83900000I-100000J0D01*
G01*
X154350000Y-83900000D01*
G75*
G02*
X154250000Y-83800000I0J100000D01*
G01*
G37*
G36*
G01*
X154890000Y-83800000D02*
X154890000Y-83600000D01*
G75*
G02*
X154990000Y-83500000I100000J0D01*
G01*
X155250000Y-83500000D01*
G75*
G02*
X155350000Y-83600000I0J-100000D01*
G01*
X155350000Y-83800000D01*
G75*
G02*
X155250000Y-83900000I-100000J0D01*
G01*
X154990000Y-83900000D01*
G75*
G02*
X154890000Y-83800000I0J100000D01*
G01*
G37*
%TD*%
%TO.C,R14*%
G36*
G01*
X160500000Y-90555000D02*
X160300000Y-90555000D01*
G75*
G02*
X160200000Y-90455000I0J100000D01*
G01*
X160200000Y-90195000D01*
G75*
G02*
X160300000Y-90095000I100000J0D01*
G01*
X160500000Y-90095000D01*
G75*
G02*
X160600000Y-90195000I0J-100000D01*
G01*
X160600000Y-90455000D01*
G75*
G02*
X160500000Y-90555000I-100000J0D01*
G01*
G37*
G36*
G01*
X160500000Y-91195000D02*
X160300000Y-91195000D01*
G75*
G02*
X160200000Y-91095000I0J100000D01*
G01*
X160200000Y-90835000D01*
G75*
G02*
X160300000Y-90735000I100000J0D01*
G01*
X160500000Y-90735000D01*
G75*
G02*
X160600000Y-90835000I0J-100000D01*
G01*
X160600000Y-91095000D01*
G75*
G02*
X160500000Y-91195000I-100000J0D01*
G01*
G37*
%TD*%
D17*
%TO.C,SW1*%
X142200000Y-102800000D03*
D18*
X149820000Y-105340000D03*
X142200000Y-105340000D03*
X149820000Y-102800000D03*
%TD*%
D19*
%TO.C,SW2*%
X156900000Y-106000000D03*
X156900000Y-101500000D03*
X163400000Y-106000000D03*
X163400000Y-101500000D03*
%TD*%
D20*
%TO.C,U1*%
X140050000Y-69600000D03*
D21*
X146350000Y-69600000D03*
X146350000Y-67300000D03*
X146350000Y-71900000D03*
%TD*%
%TO.C,U2*%
G36*
G01*
X142550000Y-77145000D02*
X142550000Y-76845000D01*
G75*
G02*
X142700000Y-76695000I150000J0D01*
G01*
X144350000Y-76695000D01*
G75*
G02*
X144500000Y-76845000I0J-150000D01*
G01*
X144500000Y-77145000D01*
G75*
G02*
X144350000Y-77295000I-150000J0D01*
G01*
X142700000Y-77295000D01*
G75*
G02*
X142550000Y-77145000I0J150000D01*
G01*
G37*
G36*
G01*
X142550000Y-78415000D02*
X142550000Y-78115000D01*
G75*
G02*
X142700000Y-77965000I150000J0D01*
G01*
X144350000Y-77965000D01*
G75*
G02*
X144500000Y-78115000I0J-150000D01*
G01*
X144500000Y-78415000D01*
G75*
G02*
X144350000Y-78565000I-150000J0D01*
G01*
X142700000Y-78565000D01*
G75*
G02*
X142550000Y-78415000I0J150000D01*
G01*
G37*
G36*
G01*
X142550000Y-79685000D02*
X142550000Y-79385000D01*
G75*
G02*
X142700000Y-79235000I150000J0D01*
G01*
X144350000Y-79235000D01*
G75*
G02*
X144500000Y-79385000I0J-150000D01*
G01*
X144500000Y-79685000D01*
G75*
G02*
X144350000Y-79835000I-150000J0D01*
G01*
X142700000Y-79835000D01*
G75*
G02*
X142550000Y-79685000I0J150000D01*
G01*
G37*
G36*
G01*
X142550000Y-80955000D02*
X142550000Y-80655000D01*
G75*
G02*
X142700000Y-80505000I150000J0D01*
G01*
X144350000Y-80505000D01*
G75*
G02*
X144500000Y-80655000I0J-150000D01*
G01*
X144500000Y-80955000D01*
G75*
G02*
X144350000Y-81105000I-150000J0D01*
G01*
X142700000Y-81105000D01*
G75*
G02*
X142550000Y-80955000I0J150000D01*
G01*
G37*
G36*
G01*
X147500000Y-80955000D02*
X147500000Y-80655000D01*
G75*
G02*
X147650000Y-80505000I150000J0D01*
G01*
X149300000Y-80505000D01*
G75*
G02*
X149450000Y-80655000I0J-150000D01*
G01*
X149450000Y-80955000D01*
G75*
G02*
X149300000Y-81105000I-150000J0D01*
G01*
X147650000Y-81105000D01*
G75*
G02*
X147500000Y-80955000I0J150000D01*
G01*
G37*
G36*
G01*
X147500000Y-79685000D02*
X147500000Y-79385000D01*
G75*
G02*
X147650000Y-79235000I150000J0D01*
G01*
X149300000Y-79235000D01*
G75*
G02*
X149450000Y-79385000I0J-150000D01*
G01*
X149450000Y-79685000D01*
G75*
G02*
X149300000Y-79835000I-150000J0D01*
G01*
X147650000Y-79835000D01*
G75*
G02*
X147500000Y-79685000I0J150000D01*
G01*
G37*
G36*
G01*
X147500000Y-78415000D02*
X147500000Y-78115000D01*
G75*
G02*
X147650000Y-77965000I150000J0D01*
G01*
X149300000Y-77965000D01*
G75*
G02*
X149450000Y-78115000I0J-150000D01*
G01*
X149450000Y-78415000D01*
G75*
G02*
X149300000Y-78565000I-150000J0D01*
G01*
X147650000Y-78565000D01*
G75*
G02*
X147500000Y-78415000I0J150000D01*
G01*
G37*
G36*
G01*
X147500000Y-77145000D02*
X147500000Y-76845000D01*
G75*
G02*
X147650000Y-76695000I150000J0D01*
G01*
X149300000Y-76695000D01*
G75*
G02*
X149450000Y-76845000I0J-150000D01*
G01*
X149450000Y-77145000D01*
G75*
G02*
X149300000Y-77295000I-150000J0D01*
G01*
X147650000Y-77295000D01*
G75*
G02*
X147500000Y-77145000I0J150000D01*
G01*
G37*
%TD*%
%TO.C,U3*%
G36*
G01*
X147500000Y-89425000D02*
X147500000Y-89275000D01*
G75*
G02*
X147575000Y-89200000I75000J0D01*
G01*
X148900000Y-89200000D01*
G75*
G02*
X148975000Y-89275000I0J-75000D01*
G01*
X148975000Y-89425000D01*
G75*
G02*
X148900000Y-89500000I-75000J0D01*
G01*
X147575000Y-89500000D01*
G75*
G02*
X147500000Y-89425000I0J75000D01*
G01*
G37*
G36*
G01*
X147500000Y-89925000D02*
X147500000Y-89775000D01*
G75*
G02*
X147575000Y-89700000I75000J0D01*
G01*
X148900000Y-89700000D01*
G75*
G02*
X148975000Y-89775000I0J-75000D01*
G01*
X148975000Y-89925000D01*
G75*
G02*
X148900000Y-90000000I-75000J0D01*
G01*
X147575000Y-90000000D01*
G75*
G02*
X147500000Y-89925000I0J75000D01*
G01*
G37*
G36*
G01*
X147500000Y-90425000D02*
X147500000Y-90275000D01*
G75*
G02*
X147575000Y-90200000I75000J0D01*
G01*
X148900000Y-90200000D01*
G75*
G02*
X148975000Y-90275000I0J-75000D01*
G01*
X148975000Y-90425000D01*
G75*
G02*
X148900000Y-90500000I-75000J0D01*
G01*
X147575000Y-90500000D01*
G75*
G02*
X147500000Y-90425000I0J75000D01*
G01*
G37*
G36*
G01*
X147500000Y-90925000D02*
X147500000Y-90775000D01*
G75*
G02*
X147575000Y-90700000I75000J0D01*
G01*
X148900000Y-90700000D01*
G75*
G02*
X148975000Y-90775000I0J-75000D01*
G01*
X148975000Y-90925000D01*
G75*
G02*
X148900000Y-91000000I-75000J0D01*
G01*
X147575000Y-91000000D01*
G75*
G02*
X147500000Y-90925000I0J75000D01*
G01*
G37*
G36*
G01*
X147500000Y-91425000D02*
X147500000Y-91275000D01*
G75*
G02*
X147575000Y-91200000I75000J0D01*
G01*
X148900000Y-91200000D01*
G75*
G02*
X148975000Y-91275000I0J-75000D01*
G01*
X148975000Y-91425000D01*
G75*
G02*
X148900000Y-91500000I-75000J0D01*
G01*
X147575000Y-91500000D01*
G75*
G02*
X147500000Y-91425000I0J75000D01*
G01*
G37*
G36*
G01*
X147500000Y-91925000D02*
X147500000Y-91775000D01*
G75*
G02*
X147575000Y-91700000I75000J0D01*
G01*
X148900000Y-91700000D01*
G75*
G02*
X148975000Y-91775000I0J-75000D01*
G01*
X148975000Y-91925000D01*
G75*
G02*
X148900000Y-92000000I-75000J0D01*
G01*
X147575000Y-92000000D01*
G75*
G02*
X147500000Y-91925000I0J75000D01*
G01*
G37*
G36*
G01*
X147500000Y-92425000D02*
X147500000Y-92275000D01*
G75*
G02*
X147575000Y-92200000I75000J0D01*
G01*
X148900000Y-92200000D01*
G75*
G02*
X148975000Y-92275000I0J-75000D01*
G01*
X148975000Y-92425000D01*
G75*
G02*
X148900000Y-92500000I-75000J0D01*
G01*
X147575000Y-92500000D01*
G75*
G02*
X147500000Y-92425000I0J75000D01*
G01*
G37*
G36*
G01*
X147500000Y-92925000D02*
X147500000Y-92775000D01*
G75*
G02*
X147575000Y-92700000I75000J0D01*
G01*
X148900000Y-92700000D01*
G75*
G02*
X148975000Y-92775000I0J-75000D01*
G01*
X148975000Y-92925000D01*
G75*
G02*
X148900000Y-93000000I-75000J0D01*
G01*
X147575000Y-93000000D01*
G75*
G02*
X147500000Y-92925000I0J75000D01*
G01*
G37*
G36*
G01*
X147500000Y-93425000D02*
X147500000Y-93275000D01*
G75*
G02*
X147575000Y-93200000I75000J0D01*
G01*
X148900000Y-93200000D01*
G75*
G02*
X148975000Y-93275000I0J-75000D01*
G01*
X148975000Y-93425000D01*
G75*
G02*
X148900000Y-93500000I-75000J0D01*
G01*
X147575000Y-93500000D01*
G75*
G02*
X147500000Y-93425000I0J75000D01*
G01*
G37*
G36*
G01*
X147500000Y-93925000D02*
X147500000Y-93775000D01*
G75*
G02*
X147575000Y-93700000I75000J0D01*
G01*
X148900000Y-93700000D01*
G75*
G02*
X148975000Y-93775000I0J-75000D01*
G01*
X148975000Y-93925000D01*
G75*
G02*
X148900000Y-94000000I-75000J0D01*
G01*
X147575000Y-94000000D01*
G75*
G02*
X147500000Y-93925000I0J75000D01*
G01*
G37*
G36*
G01*
X147500000Y-94425000D02*
X147500000Y-94275000D01*
G75*
G02*
X147575000Y-94200000I75000J0D01*
G01*
X148900000Y-94200000D01*
G75*
G02*
X148975000Y-94275000I0J-75000D01*
G01*
X148975000Y-94425000D01*
G75*
G02*
X148900000Y-94500000I-75000J0D01*
G01*
X147575000Y-94500000D01*
G75*
G02*
X147500000Y-94425000I0J75000D01*
G01*
G37*
G36*
G01*
X147500000Y-94925000D02*
X147500000Y-94775000D01*
G75*
G02*
X147575000Y-94700000I75000J0D01*
G01*
X148900000Y-94700000D01*
G75*
G02*
X148975000Y-94775000I0J-75000D01*
G01*
X148975000Y-94925000D01*
G75*
G02*
X148900000Y-95000000I-75000J0D01*
G01*
X147575000Y-95000000D01*
G75*
G02*
X147500000Y-94925000I0J75000D01*
G01*
G37*
G36*
G01*
X149500000Y-96925000D02*
X149500000Y-95600000D01*
G75*
G02*
X149575000Y-95525000I75000J0D01*
G01*
X149725000Y-95525000D01*
G75*
G02*
X149800000Y-95600000I0J-75000D01*
G01*
X149800000Y-96925000D01*
G75*
G02*
X149725000Y-97000000I-75000J0D01*
G01*
X149575000Y-97000000D01*
G75*
G02*
X149500000Y-96925000I0J75000D01*
G01*
G37*
G36*
G01*
X150000000Y-96925000D02*
X150000000Y-95600000D01*
G75*
G02*
X150075000Y-95525000I75000J0D01*
G01*
X150225000Y-95525000D01*
G75*
G02*
X150300000Y-95600000I0J-75000D01*
G01*
X150300000Y-96925000D01*
G75*
G02*
X150225000Y-97000000I-75000J0D01*
G01*
X150075000Y-97000000D01*
G75*
G02*
X150000000Y-96925000I0J75000D01*
G01*
G37*
G36*
G01*
X150500000Y-96925000D02*
X150500000Y-95600000D01*
G75*
G02*
X150575000Y-95525000I75000J0D01*
G01*
X150725000Y-95525000D01*
G75*
G02*
X150800000Y-95600000I0J-75000D01*
G01*
X150800000Y-96925000D01*
G75*
G02*
X150725000Y-97000000I-75000J0D01*
G01*
X150575000Y-97000000D01*
G75*
G02*
X150500000Y-96925000I0J75000D01*
G01*
G37*
G36*
G01*
X151000000Y-96925000D02*
X151000000Y-95600000D01*
G75*
G02*
X151075000Y-95525000I75000J0D01*
G01*
X151225000Y-95525000D01*
G75*
G02*
X151300000Y-95600000I0J-75000D01*
G01*
X151300000Y-96925000D01*
G75*
G02*
X151225000Y-97000000I-75000J0D01*
G01*
X151075000Y-97000000D01*
G75*
G02*
X151000000Y-96925000I0J75000D01*
G01*
G37*
G36*
G01*
X151500000Y-96925000D02*
X151500000Y-95600000D01*
G75*
G02*
X151575000Y-95525000I75000J0D01*
G01*
X151725000Y-95525000D01*
G75*
G02*
X151800000Y-95600000I0J-75000D01*
G01*
X151800000Y-96925000D01*
G75*
G02*
X151725000Y-97000000I-75000J0D01*
G01*
X151575000Y-97000000D01*
G75*
G02*
X151500000Y-96925000I0J75000D01*
G01*
G37*
G36*
G01*
X152000000Y-96925000D02*
X152000000Y-95600000D01*
G75*
G02*
X152075000Y-95525000I75000J0D01*
G01*
X152225000Y-95525000D01*
G75*
G02*
X152300000Y-95600000I0J-75000D01*
G01*
X152300000Y-96925000D01*
G75*
G02*
X152225000Y-97000000I-75000J0D01*
G01*
X152075000Y-97000000D01*
G75*
G02*
X152000000Y-96925000I0J75000D01*
G01*
G37*
G36*
G01*
X152500000Y-96925000D02*
X152500000Y-95600000D01*
G75*
G02*
X152575000Y-95525000I75000J0D01*
G01*
X152725000Y-95525000D01*
G75*
G02*
X152800000Y-95600000I0J-75000D01*
G01*
X152800000Y-96925000D01*
G75*
G02*
X152725000Y-97000000I-75000J0D01*
G01*
X152575000Y-97000000D01*
G75*
G02*
X152500000Y-96925000I0J75000D01*
G01*
G37*
G36*
G01*
X153000000Y-96925000D02*
X153000000Y-95600000D01*
G75*
G02*
X153075000Y-95525000I75000J0D01*
G01*
X153225000Y-95525000D01*
G75*
G02*
X153300000Y-95600000I0J-75000D01*
G01*
X153300000Y-96925000D01*
G75*
G02*
X153225000Y-97000000I-75000J0D01*
G01*
X153075000Y-97000000D01*
G75*
G02*
X153000000Y-96925000I0J75000D01*
G01*
G37*
G36*
G01*
X153500000Y-96925000D02*
X153500000Y-95600000D01*
G75*
G02*
X153575000Y-95525000I75000J0D01*
G01*
X153725000Y-95525000D01*
G75*
G02*
X153800000Y-95600000I0J-75000D01*
G01*
X153800000Y-96925000D01*
G75*
G02*
X153725000Y-97000000I-75000J0D01*
G01*
X153575000Y-97000000D01*
G75*
G02*
X153500000Y-96925000I0J75000D01*
G01*
G37*
G36*
G01*
X154000000Y-96925000D02*
X154000000Y-95600000D01*
G75*
G02*
X154075000Y-95525000I75000J0D01*
G01*
X154225000Y-95525000D01*
G75*
G02*
X154300000Y-95600000I0J-75000D01*
G01*
X154300000Y-96925000D01*
G75*
G02*
X154225000Y-97000000I-75000J0D01*
G01*
X154075000Y-97000000D01*
G75*
G02*
X154000000Y-96925000I0J75000D01*
G01*
G37*
G36*
G01*
X154500000Y-96925000D02*
X154500000Y-95600000D01*
G75*
G02*
X154575000Y-95525000I75000J0D01*
G01*
X154725000Y-95525000D01*
G75*
G02*
X154800000Y-95600000I0J-75000D01*
G01*
X154800000Y-96925000D01*
G75*
G02*
X154725000Y-97000000I-75000J0D01*
G01*
X154575000Y-97000000D01*
G75*
G02*
X154500000Y-96925000I0J75000D01*
G01*
G37*
G36*
G01*
X155000000Y-96925000D02*
X155000000Y-95600000D01*
G75*
G02*
X155075000Y-95525000I75000J0D01*
G01*
X155225000Y-95525000D01*
G75*
G02*
X155300000Y-95600000I0J-75000D01*
G01*
X155300000Y-96925000D01*
G75*
G02*
X155225000Y-97000000I-75000J0D01*
G01*
X155075000Y-97000000D01*
G75*
G02*
X155000000Y-96925000I0J75000D01*
G01*
G37*
G36*
G01*
X155825000Y-94925000D02*
X155825000Y-94775000D01*
G75*
G02*
X155900000Y-94700000I75000J0D01*
G01*
X157225000Y-94700000D01*
G75*
G02*
X157300000Y-94775000I0J-75000D01*
G01*
X157300000Y-94925000D01*
G75*
G02*
X157225000Y-95000000I-75000J0D01*
G01*
X155900000Y-95000000D01*
G75*
G02*
X155825000Y-94925000I0J75000D01*
G01*
G37*
G36*
G01*
X155825000Y-94425000D02*
X155825000Y-94275000D01*
G75*
G02*
X155900000Y-94200000I75000J0D01*
G01*
X157225000Y-94200000D01*
G75*
G02*
X157300000Y-94275000I0J-75000D01*
G01*
X157300000Y-94425000D01*
G75*
G02*
X157225000Y-94500000I-75000J0D01*
G01*
X155900000Y-94500000D01*
G75*
G02*
X155825000Y-94425000I0J75000D01*
G01*
G37*
G36*
G01*
X155825000Y-93925000D02*
X155825000Y-93775000D01*
G75*
G02*
X155900000Y-93700000I75000J0D01*
G01*
X157225000Y-93700000D01*
G75*
G02*
X157300000Y-93775000I0J-75000D01*
G01*
X157300000Y-93925000D01*
G75*
G02*
X157225000Y-94000000I-75000J0D01*
G01*
X155900000Y-94000000D01*
G75*
G02*
X155825000Y-93925000I0J75000D01*
G01*
G37*
G36*
G01*
X155825000Y-93425000D02*
X155825000Y-93275000D01*
G75*
G02*
X155900000Y-93200000I75000J0D01*
G01*
X157225000Y-93200000D01*
G75*
G02*
X157300000Y-93275000I0J-75000D01*
G01*
X157300000Y-93425000D01*
G75*
G02*
X157225000Y-93500000I-75000J0D01*
G01*
X155900000Y-93500000D01*
G75*
G02*
X155825000Y-93425000I0J75000D01*
G01*
G37*
G36*
G01*
X155825000Y-92925000D02*
X155825000Y-92775000D01*
G75*
G02*
X155900000Y-92700000I75000J0D01*
G01*
X157225000Y-92700000D01*
G75*
G02*
X157300000Y-92775000I0J-75000D01*
G01*
X157300000Y-92925000D01*
G75*
G02*
X157225000Y-93000000I-75000J0D01*
G01*
X155900000Y-93000000D01*
G75*
G02*
X155825000Y-92925000I0J75000D01*
G01*
G37*
G36*
G01*
X155825000Y-92425000D02*
X155825000Y-92275000D01*
G75*
G02*
X155900000Y-92200000I75000J0D01*
G01*
X157225000Y-92200000D01*
G75*
G02*
X157300000Y-92275000I0J-75000D01*
G01*
X157300000Y-92425000D01*
G75*
G02*
X157225000Y-92500000I-75000J0D01*
G01*
X155900000Y-92500000D01*
G75*
G02*
X155825000Y-92425000I0J75000D01*
G01*
G37*
G36*
G01*
X155825000Y-91925000D02*
X155825000Y-91775000D01*
G75*
G02*
X155900000Y-91700000I75000J0D01*
G01*
X157225000Y-91700000D01*
G75*
G02*
X157300000Y-91775000I0J-75000D01*
G01*
X157300000Y-91925000D01*
G75*
G02*
X157225000Y-92000000I-75000J0D01*
G01*
X155900000Y-92000000D01*
G75*
G02*
X155825000Y-91925000I0J75000D01*
G01*
G37*
G36*
G01*
X155825000Y-91425000D02*
X155825000Y-91275000D01*
G75*
G02*
X155900000Y-91200000I75000J0D01*
G01*
X157225000Y-91200000D01*
G75*
G02*
X157300000Y-91275000I0J-75000D01*
G01*
X157300000Y-91425000D01*
G75*
G02*
X157225000Y-91500000I-75000J0D01*
G01*
X155900000Y-91500000D01*
G75*
G02*
X155825000Y-91425000I0J75000D01*
G01*
G37*
G36*
G01*
X155825000Y-90925000D02*
X155825000Y-90775000D01*
G75*
G02*
X155900000Y-90700000I75000J0D01*
G01*
X157225000Y-90700000D01*
G75*
G02*
X157300000Y-90775000I0J-75000D01*
G01*
X157300000Y-90925000D01*
G75*
G02*
X157225000Y-91000000I-75000J0D01*
G01*
X155900000Y-91000000D01*
G75*
G02*
X155825000Y-90925000I0J75000D01*
G01*
G37*
G36*
G01*
X155825000Y-90425000D02*
X155825000Y-90275000D01*
G75*
G02*
X155900000Y-90200000I75000J0D01*
G01*
X157225000Y-90200000D01*
G75*
G02*
X157300000Y-90275000I0J-75000D01*
G01*
X157300000Y-90425000D01*
G75*
G02*
X157225000Y-90500000I-75000J0D01*
G01*
X155900000Y-90500000D01*
G75*
G02*
X155825000Y-90425000I0J75000D01*
G01*
G37*
G36*
G01*
X155825000Y-89925000D02*
X155825000Y-89775000D01*
G75*
G02*
X155900000Y-89700000I75000J0D01*
G01*
X157225000Y-89700000D01*
G75*
G02*
X157300000Y-89775000I0J-75000D01*
G01*
X157300000Y-89925000D01*
G75*
G02*
X157225000Y-90000000I-75000J0D01*
G01*
X155900000Y-90000000D01*
G75*
G02*
X155825000Y-89925000I0J75000D01*
G01*
G37*
G36*
G01*
X155825000Y-89425000D02*
X155825000Y-89275000D01*
G75*
G02*
X155900000Y-89200000I75000J0D01*
G01*
X157225000Y-89200000D01*
G75*
G02*
X157300000Y-89275000I0J-75000D01*
G01*
X157300000Y-89425000D01*
G75*
G02*
X157225000Y-89500000I-75000J0D01*
G01*
X155900000Y-89500000D01*
G75*
G02*
X155825000Y-89425000I0J75000D01*
G01*
G37*
G36*
G01*
X155000000Y-88600000D02*
X155000000Y-87275000D01*
G75*
G02*
X155075000Y-87200000I75000J0D01*
G01*
X155225000Y-87200000D01*
G75*
G02*
X155300000Y-87275000I0J-75000D01*
G01*
X155300000Y-88600000D01*
G75*
G02*
X155225000Y-88675000I-75000J0D01*
G01*
X155075000Y-88675000D01*
G75*
G02*
X155000000Y-88600000I0J75000D01*
G01*
G37*
G36*
G01*
X154500000Y-88600000D02*
X154500000Y-87275000D01*
G75*
G02*
X154575000Y-87200000I75000J0D01*
G01*
X154725000Y-87200000D01*
G75*
G02*
X154800000Y-87275000I0J-75000D01*
G01*
X154800000Y-88600000D01*
G75*
G02*
X154725000Y-88675000I-75000J0D01*
G01*
X154575000Y-88675000D01*
G75*
G02*
X154500000Y-88600000I0J75000D01*
G01*
G37*
G36*
G01*
X154000000Y-88600000D02*
X154000000Y-87275000D01*
G75*
G02*
X154075000Y-87200000I75000J0D01*
G01*
X154225000Y-87200000D01*
G75*
G02*
X154300000Y-87275000I0J-75000D01*
G01*
X154300000Y-88600000D01*
G75*
G02*
X154225000Y-88675000I-75000J0D01*
G01*
X154075000Y-88675000D01*
G75*
G02*
X154000000Y-88600000I0J75000D01*
G01*
G37*
G36*
G01*
X153500000Y-88600000D02*
X153500000Y-87275000D01*
G75*
G02*
X153575000Y-87200000I75000J0D01*
G01*
X153725000Y-87200000D01*
G75*
G02*
X153800000Y-87275000I0J-75000D01*
G01*
X153800000Y-88600000D01*
G75*
G02*
X153725000Y-88675000I-75000J0D01*
G01*
X153575000Y-88675000D01*
G75*
G02*
X153500000Y-88600000I0J75000D01*
G01*
G37*
G36*
G01*
X153000000Y-88600000D02*
X153000000Y-87275000D01*
G75*
G02*
X153075000Y-87200000I75000J0D01*
G01*
X153225000Y-87200000D01*
G75*
G02*
X153300000Y-87275000I0J-75000D01*
G01*
X153300000Y-88600000D01*
G75*
G02*
X153225000Y-88675000I-75000J0D01*
G01*
X153075000Y-88675000D01*
G75*
G02*
X153000000Y-88600000I0J75000D01*
G01*
G37*
G36*
G01*
X152500000Y-88600000D02*
X152500000Y-87275000D01*
G75*
G02*
X152575000Y-87200000I75000J0D01*
G01*
X152725000Y-87200000D01*
G75*
G02*
X152800000Y-87275000I0J-75000D01*
G01*
X152800000Y-88600000D01*
G75*
G02*
X152725000Y-88675000I-75000J0D01*
G01*
X152575000Y-88675000D01*
G75*
G02*
X152500000Y-88600000I0J75000D01*
G01*
G37*
G36*
G01*
X152000000Y-88600000D02*
X152000000Y-87275000D01*
G75*
G02*
X152075000Y-87200000I75000J0D01*
G01*
X152225000Y-87200000D01*
G75*
G02*
X152300000Y-87275000I0J-75000D01*
G01*
X152300000Y-88600000D01*
G75*
G02*
X152225000Y-88675000I-75000J0D01*
G01*
X152075000Y-88675000D01*
G75*
G02*
X152000000Y-88600000I0J75000D01*
G01*
G37*
G36*
G01*
X151500000Y-88600000D02*
X151500000Y-87275000D01*
G75*
G02*
X151575000Y-87200000I75000J0D01*
G01*
X151725000Y-87200000D01*
G75*
G02*
X151800000Y-87275000I0J-75000D01*
G01*
X151800000Y-88600000D01*
G75*
G02*
X151725000Y-88675000I-75000J0D01*
G01*
X151575000Y-88675000D01*
G75*
G02*
X151500000Y-88600000I0J75000D01*
G01*
G37*
G36*
G01*
X151000000Y-88600000D02*
X151000000Y-87275000D01*
G75*
G02*
X151075000Y-87200000I75000J0D01*
G01*
X151225000Y-87200000D01*
G75*
G02*
X151300000Y-87275000I0J-75000D01*
G01*
X151300000Y-88600000D01*
G75*
G02*
X151225000Y-88675000I-75000J0D01*
G01*
X151075000Y-88675000D01*
G75*
G02*
X151000000Y-88600000I0J75000D01*
G01*
G37*
G36*
G01*
X150500000Y-88600000D02*
X150500000Y-87275000D01*
G75*
G02*
X150575000Y-87200000I75000J0D01*
G01*
X150725000Y-87200000D01*
G75*
G02*
X150800000Y-87275000I0J-75000D01*
G01*
X150800000Y-88600000D01*
G75*
G02*
X150725000Y-88675000I-75000J0D01*
G01*
X150575000Y-88675000D01*
G75*
G02*
X150500000Y-88600000I0J75000D01*
G01*
G37*
G36*
G01*
X150000000Y-88600000D02*
X150000000Y-87275000D01*
G75*
G02*
X150075000Y-87200000I75000J0D01*
G01*
X150225000Y-87200000D01*
G75*
G02*
X150300000Y-87275000I0J-75000D01*
G01*
X150300000Y-88600000D01*
G75*
G02*
X150225000Y-88675000I-75000J0D01*
G01*
X150075000Y-88675000D01*
G75*
G02*
X150000000Y-88600000I0J75000D01*
G01*
G37*
G36*
G01*
X149500000Y-88600000D02*
X149500000Y-87275000D01*
G75*
G02*
X149575000Y-87200000I75000J0D01*
G01*
X149725000Y-87200000D01*
G75*
G02*
X149800000Y-87275000I0J-75000D01*
G01*
X149800000Y-88600000D01*
G75*
G02*
X149725000Y-88675000I-75000J0D01*
G01*
X149575000Y-88675000D01*
G75*
G02*
X149500000Y-88600000I0J75000D01*
G01*
G37*
%TD*%
D22*
%TO.C,Y1*%
X141800000Y-88600000D03*
X141800000Y-93480000D03*
%TD*%
M02*
