%TF.GenerationSoftware,KiCad,Pcbnew,5.1.7+dfsg1-1~bpo10+1*%
%TF.CreationDate,2020-10-25T19:55:51+08:00*%
%TF.ProjectId,stm32-io-extend,73746d33-322d-4696-9f2d-657874656e64,rev?*%
%TF.SameCoordinates,Original*%
%TF.FileFunction,Legend,Top*%
%TF.FilePolarity,Positive*%
%FSLAX46Y46*%
G04 Gerber Fmt 4.6, Leading zero omitted, Abs format (unit mm)*
G04 Created by KiCad (PCBNEW 5.1.7+dfsg1-1~bpo10+1) date 2020-10-25 19:55:51*
%MOMM*%
%LPD*%
G01*
G04 APERTURE LIST*
%ADD10C,0.120000*%
%ADD11C,0.150000*%
G04 APERTURE END LIST*
D10*
%TO.C,C4*%
X149210000Y-67359420D02*
X149210000Y-67640580D01*
X148190000Y-67359420D02*
X148190000Y-67640580D01*
%TO.C,C10*%
X148190000Y-71559420D02*
X148190000Y-71840580D01*
X149210000Y-71559420D02*
X149210000Y-71840580D01*
%TO.C,C11*%
X150090000Y-71559420D02*
X150090000Y-71840580D01*
X151110000Y-71559420D02*
X151110000Y-71840580D01*
%TO.C,J1*%
X158830000Y-75470000D02*
X160630000Y-75470000D01*
X164340000Y-75470000D02*
X162880000Y-75470000D01*
X164340000Y-66530000D02*
X162880000Y-66530000D01*
X158830000Y-66530000D02*
X160630000Y-66530000D01*
X164340000Y-66530000D02*
X164340000Y-75470000D01*
%TO.C,J2*%
X164340000Y-78030000D02*
X164340000Y-86970000D01*
X158830000Y-78030000D02*
X160630000Y-78030000D01*
X164340000Y-78030000D02*
X162880000Y-78030000D01*
X164340000Y-86970000D02*
X162880000Y-86970000D01*
X158830000Y-86970000D02*
X160630000Y-86970000D01*
%TO.C,J3*%
X136600000Y-66470000D02*
X137930000Y-66470000D01*
X137930000Y-66470000D02*
X137930000Y-67800000D01*
X135330000Y-66470000D02*
X135330000Y-69070000D01*
X135330000Y-69070000D02*
X137930000Y-69070000D01*
X137930000Y-69070000D02*
X137930000Y-107230000D01*
X132730000Y-107230000D02*
X137930000Y-107230000D01*
X132730000Y-66470000D02*
X132730000Y-107230000D01*
X132730000Y-66470000D02*
X135330000Y-66470000D01*
%TO.C,SW1*%
X145406667Y-104705000D02*
X145406667Y-105975000D01*
X144200000Y-105905000D02*
X145406667Y-105905000D01*
X144200000Y-105785000D02*
X145406667Y-105785000D01*
X144200000Y-105665000D02*
X145406667Y-105665000D01*
X144200000Y-105545000D02*
X145406667Y-105545000D01*
X144200000Y-105425000D02*
X145406667Y-105425000D01*
X144200000Y-105305000D02*
X145406667Y-105305000D01*
X144200000Y-105185000D02*
X145406667Y-105185000D01*
X144200000Y-105065000D02*
X145406667Y-105065000D01*
X144200000Y-104945000D02*
X145406667Y-104945000D01*
X144200000Y-104825000D02*
X145406667Y-104825000D01*
X147820000Y-104705000D02*
X144200000Y-104705000D01*
X147820000Y-105975000D02*
X147820000Y-104705000D01*
X144200000Y-105975000D02*
X147820000Y-105975000D01*
X144200000Y-104705000D02*
X144200000Y-105975000D01*
X145406667Y-102165000D02*
X145406667Y-103435000D01*
X144200000Y-103365000D02*
X145406667Y-103365000D01*
X144200000Y-103245000D02*
X145406667Y-103245000D01*
X144200000Y-103125000D02*
X145406667Y-103125000D01*
X144200000Y-103005000D02*
X145406667Y-103005000D01*
X144200000Y-102885000D02*
X145406667Y-102885000D01*
X144200000Y-102765000D02*
X145406667Y-102765000D01*
X144200000Y-102645000D02*
X145406667Y-102645000D01*
X144200000Y-102525000D02*
X145406667Y-102525000D01*
X144200000Y-102405000D02*
X145406667Y-102405000D01*
X144200000Y-102285000D02*
X145406667Y-102285000D01*
X147820000Y-102165000D02*
X144200000Y-102165000D01*
X147820000Y-103435000D02*
X147820000Y-102165000D01*
X144200000Y-103435000D02*
X147820000Y-103435000D01*
X144200000Y-102165000D02*
X144200000Y-103435000D01*
X142360000Y-100450000D02*
X142360000Y-101760000D01*
X142360000Y-100450000D02*
X143743000Y-100450000D01*
X149421000Y-103790000D02*
X149421000Y-104351000D01*
X149421000Y-100690000D02*
X149421000Y-101810000D01*
X149421000Y-106330000D02*
X149421000Y-107450000D01*
X142600000Y-106330000D02*
X142600000Y-107450000D01*
X142600000Y-103840000D02*
X142600000Y-104351000D01*
X142600000Y-100690000D02*
X142600000Y-101760000D01*
X142600000Y-107450000D02*
X149421000Y-107450000D01*
X142600000Y-100690000D02*
X149421000Y-100690000D01*
%TO.C,SW2*%
X163650000Y-104500000D02*
X163650000Y-103000000D01*
X162400000Y-100500000D02*
X157900000Y-100500000D01*
X156650000Y-103000000D02*
X156650000Y-104500000D01*
X157900000Y-107000000D02*
X162400000Y-107000000D01*
%TO.C,U1*%
X147300000Y-73010000D02*
X141290000Y-73010000D01*
X145050000Y-66190000D02*
X141290000Y-66190000D01*
X141290000Y-73010000D02*
X141290000Y-71750000D01*
X141290000Y-66190000D02*
X141290000Y-67450000D01*
%TO.C,U2*%
X146000000Y-76340000D02*
X142550000Y-76340000D01*
X146000000Y-76340000D02*
X147950000Y-76340000D01*
X146000000Y-81460000D02*
X144050000Y-81460000D01*
X146000000Y-81460000D02*
X147950000Y-81460000D01*
%TO.C,U3*%
X148790000Y-88940000D02*
X147500000Y-88940000D01*
X148790000Y-88490000D02*
X148790000Y-88940000D01*
X149240000Y-88490000D02*
X148790000Y-88490000D01*
X156010000Y-88490000D02*
X156010000Y-88940000D01*
X155560000Y-88490000D02*
X156010000Y-88490000D01*
X148790000Y-95710000D02*
X148790000Y-95260000D01*
X149240000Y-95710000D02*
X148790000Y-95710000D01*
X156010000Y-95710000D02*
X156010000Y-95260000D01*
X155560000Y-95710000D02*
X156010000Y-95710000D01*
%TO.C,Y1*%
X139275000Y-87915000D02*
X139275000Y-94165000D01*
X144325000Y-87915000D02*
X144325000Y-94165000D01*
X139275000Y-87915000D02*
G75*
G02*
X144325000Y-87915000I2525000J0D01*
G01*
X139275000Y-94165000D02*
G75*
G03*
X144325000Y-94165000I2525000J0D01*
G01*
%TO.C,C1*%
D11*
X151233333Y-67457142D02*
X151185714Y-67504761D01*
X151042857Y-67552380D01*
X150947619Y-67552380D01*
X150804761Y-67504761D01*
X150709523Y-67409523D01*
X150661904Y-67314285D01*
X150614285Y-67123809D01*
X150614285Y-66980952D01*
X150661904Y-66790476D01*
X150709523Y-66695238D01*
X150804761Y-66600000D01*
X150947619Y-66552380D01*
X151042857Y-66552380D01*
X151185714Y-66600000D01*
X151233333Y-66647619D01*
X152185714Y-67552380D02*
X151614285Y-67552380D01*
X151900000Y-67552380D02*
X151900000Y-66552380D01*
X151804761Y-66695238D01*
X151709523Y-66790476D01*
X151614285Y-66838095D01*
%TO.C,C2*%
X147157142Y-87566666D02*
X147204761Y-87614285D01*
X147252380Y-87757142D01*
X147252380Y-87852380D01*
X147204761Y-87995238D01*
X147109523Y-88090476D01*
X147014285Y-88138095D01*
X146823809Y-88185714D01*
X146680952Y-88185714D01*
X146490476Y-88138095D01*
X146395238Y-88090476D01*
X146300000Y-87995238D01*
X146252380Y-87852380D01*
X146252380Y-87757142D01*
X146300000Y-87614285D01*
X146347619Y-87566666D01*
X146347619Y-87185714D02*
X146300000Y-87138095D01*
X146252380Y-87042857D01*
X146252380Y-86804761D01*
X146300000Y-86709523D01*
X146347619Y-86661904D01*
X146442857Y-86614285D01*
X146538095Y-86614285D01*
X146680952Y-86661904D01*
X147252380Y-87233333D01*
X147252380Y-86614285D01*
%TO.C,C3*%
X146957142Y-91766666D02*
X147004761Y-91814285D01*
X147052380Y-91957142D01*
X147052380Y-92052380D01*
X147004761Y-92195238D01*
X146909523Y-92290476D01*
X146814285Y-92338095D01*
X146623809Y-92385714D01*
X146480952Y-92385714D01*
X146290476Y-92338095D01*
X146195238Y-92290476D01*
X146100000Y-92195238D01*
X146052380Y-92052380D01*
X146052380Y-91957142D01*
X146100000Y-91814285D01*
X146147619Y-91766666D01*
X146052380Y-91433333D02*
X146052380Y-90814285D01*
X146433333Y-91147619D01*
X146433333Y-91004761D01*
X146480952Y-90909523D01*
X146528571Y-90861904D01*
X146623809Y-90814285D01*
X146861904Y-90814285D01*
X146957142Y-90861904D01*
X147004761Y-90909523D01*
X147052380Y-91004761D01*
X147052380Y-91290476D01*
X147004761Y-91385714D01*
X146957142Y-91433333D01*
%TO.C,C4*%
X150233333Y-68957142D02*
X150185714Y-69004761D01*
X150042857Y-69052380D01*
X149947619Y-69052380D01*
X149804761Y-69004761D01*
X149709523Y-68909523D01*
X149661904Y-68814285D01*
X149614285Y-68623809D01*
X149614285Y-68480952D01*
X149661904Y-68290476D01*
X149709523Y-68195238D01*
X149804761Y-68100000D01*
X149947619Y-68052380D01*
X150042857Y-68052380D01*
X150185714Y-68100000D01*
X150233333Y-68147619D01*
X151090476Y-68385714D02*
X151090476Y-69052380D01*
X150852380Y-68004761D02*
X150614285Y-68719047D01*
X151233333Y-68719047D01*
%TO.C,C5*%
X154833333Y-99407142D02*
X154785714Y-99454761D01*
X154642857Y-99502380D01*
X154547619Y-99502380D01*
X154404761Y-99454761D01*
X154309523Y-99359523D01*
X154261904Y-99264285D01*
X154214285Y-99073809D01*
X154214285Y-98930952D01*
X154261904Y-98740476D01*
X154309523Y-98645238D01*
X154404761Y-98550000D01*
X154547619Y-98502380D01*
X154642857Y-98502380D01*
X154785714Y-98550000D01*
X154833333Y-98597619D01*
X155738095Y-98502380D02*
X155261904Y-98502380D01*
X155214285Y-98978571D01*
X155261904Y-98930952D01*
X155357142Y-98883333D01*
X155595238Y-98883333D01*
X155690476Y-98930952D01*
X155738095Y-98978571D01*
X155785714Y-99073809D01*
X155785714Y-99311904D01*
X155738095Y-99407142D01*
X155690476Y-99454761D01*
X155595238Y-99502380D01*
X155357142Y-99502380D01*
X155261904Y-99454761D01*
X155214285Y-99407142D01*
%TO.C,C6*%
X153233333Y-72857142D02*
X153185714Y-72904761D01*
X153042857Y-72952380D01*
X152947619Y-72952380D01*
X152804761Y-72904761D01*
X152709523Y-72809523D01*
X152661904Y-72714285D01*
X152614285Y-72523809D01*
X152614285Y-72380952D01*
X152661904Y-72190476D01*
X152709523Y-72095238D01*
X152804761Y-72000000D01*
X152947619Y-71952380D01*
X153042857Y-71952380D01*
X153185714Y-72000000D01*
X153233333Y-72047619D01*
X154090476Y-71952380D02*
X153900000Y-71952380D01*
X153804761Y-72000000D01*
X153757142Y-72047619D01*
X153661904Y-72190476D01*
X153614285Y-72380952D01*
X153614285Y-72761904D01*
X153661904Y-72857142D01*
X153709523Y-72904761D01*
X153804761Y-72952380D01*
X153995238Y-72952380D01*
X154090476Y-72904761D01*
X154138095Y-72857142D01*
X154185714Y-72761904D01*
X154185714Y-72523809D01*
X154138095Y-72428571D01*
X154090476Y-72380952D01*
X153995238Y-72333333D01*
X153804761Y-72333333D01*
X153709523Y-72380952D01*
X153661904Y-72428571D01*
X153614285Y-72523809D01*
%TO.C,C7*%
X157933333Y-88657142D02*
X157885714Y-88704761D01*
X157742857Y-88752380D01*
X157647619Y-88752380D01*
X157504761Y-88704761D01*
X157409523Y-88609523D01*
X157361904Y-88514285D01*
X157314285Y-88323809D01*
X157314285Y-88180952D01*
X157361904Y-87990476D01*
X157409523Y-87895238D01*
X157504761Y-87800000D01*
X157647619Y-87752380D01*
X157742857Y-87752380D01*
X157885714Y-87800000D01*
X157933333Y-87847619D01*
X158266666Y-87752380D02*
X158933333Y-87752380D01*
X158504761Y-88752380D01*
%TO.C,C8*%
X149633333Y-85507142D02*
X149585714Y-85554761D01*
X149442857Y-85602380D01*
X149347619Y-85602380D01*
X149204761Y-85554761D01*
X149109523Y-85459523D01*
X149061904Y-85364285D01*
X149014285Y-85173809D01*
X149014285Y-85030952D01*
X149061904Y-84840476D01*
X149109523Y-84745238D01*
X149204761Y-84650000D01*
X149347619Y-84602380D01*
X149442857Y-84602380D01*
X149585714Y-84650000D01*
X149633333Y-84697619D01*
X150204761Y-85030952D02*
X150109523Y-84983333D01*
X150061904Y-84935714D01*
X150014285Y-84840476D01*
X150014285Y-84792857D01*
X150061904Y-84697619D01*
X150109523Y-84650000D01*
X150204761Y-84602380D01*
X150395238Y-84602380D01*
X150490476Y-84650000D01*
X150538095Y-84697619D01*
X150585714Y-84792857D01*
X150585714Y-84840476D01*
X150538095Y-84935714D01*
X150490476Y-84983333D01*
X150395238Y-85030952D01*
X150204761Y-85030952D01*
X150109523Y-85078571D01*
X150061904Y-85126190D01*
X150014285Y-85221428D01*
X150014285Y-85411904D01*
X150061904Y-85507142D01*
X150109523Y-85554761D01*
X150204761Y-85602380D01*
X150395238Y-85602380D01*
X150490476Y-85554761D01*
X150538095Y-85507142D01*
X150585714Y-85411904D01*
X150585714Y-85221428D01*
X150538095Y-85126190D01*
X150490476Y-85078571D01*
X150395238Y-85030952D01*
%TO.C,C9*%
X150633333Y-76307142D02*
X150585714Y-76354761D01*
X150442857Y-76402380D01*
X150347619Y-76402380D01*
X150204761Y-76354761D01*
X150109523Y-76259523D01*
X150061904Y-76164285D01*
X150014285Y-75973809D01*
X150014285Y-75830952D01*
X150061904Y-75640476D01*
X150109523Y-75545238D01*
X150204761Y-75450000D01*
X150347619Y-75402380D01*
X150442857Y-75402380D01*
X150585714Y-75450000D01*
X150633333Y-75497619D01*
X151109523Y-76402380D02*
X151300000Y-76402380D01*
X151395238Y-76354761D01*
X151442857Y-76307142D01*
X151538095Y-76164285D01*
X151585714Y-75973809D01*
X151585714Y-75592857D01*
X151538095Y-75497619D01*
X151490476Y-75450000D01*
X151395238Y-75402380D01*
X151204761Y-75402380D01*
X151109523Y-75450000D01*
X151061904Y-75497619D01*
X151014285Y-75592857D01*
X151014285Y-75830952D01*
X151061904Y-75926190D01*
X151109523Y-75973809D01*
X151204761Y-76021428D01*
X151395238Y-76021428D01*
X151490476Y-75973809D01*
X151538095Y-75926190D01*
X151585714Y-75830952D01*
%TO.C,C10*%
X147557142Y-74357142D02*
X147509523Y-74404761D01*
X147366666Y-74452380D01*
X147271428Y-74452380D01*
X147128571Y-74404761D01*
X147033333Y-74309523D01*
X146985714Y-74214285D01*
X146938095Y-74023809D01*
X146938095Y-73880952D01*
X146985714Y-73690476D01*
X147033333Y-73595238D01*
X147128571Y-73500000D01*
X147271428Y-73452380D01*
X147366666Y-73452380D01*
X147509523Y-73500000D01*
X147557142Y-73547619D01*
X148509523Y-74452380D02*
X147938095Y-74452380D01*
X148223809Y-74452380D02*
X148223809Y-73452380D01*
X148128571Y-73595238D01*
X148033333Y-73690476D01*
X147938095Y-73738095D01*
X149128571Y-73452380D02*
X149223809Y-73452380D01*
X149319047Y-73500000D01*
X149366666Y-73547619D01*
X149414285Y-73642857D01*
X149461904Y-73833333D01*
X149461904Y-74071428D01*
X149414285Y-74261904D01*
X149366666Y-74357142D01*
X149319047Y-74404761D01*
X149223809Y-74452380D01*
X149128571Y-74452380D01*
X149033333Y-74404761D01*
X148985714Y-74357142D01*
X148938095Y-74261904D01*
X148890476Y-74071428D01*
X148890476Y-73833333D01*
X148938095Y-73642857D01*
X148985714Y-73547619D01*
X149033333Y-73500000D01*
X149128571Y-73452380D01*
%TO.C,C11*%
X150457142Y-74357142D02*
X150409523Y-74404761D01*
X150266666Y-74452380D01*
X150171428Y-74452380D01*
X150028571Y-74404761D01*
X149933333Y-74309523D01*
X149885714Y-74214285D01*
X149838095Y-74023809D01*
X149838095Y-73880952D01*
X149885714Y-73690476D01*
X149933333Y-73595238D01*
X150028571Y-73500000D01*
X150171428Y-73452380D01*
X150266666Y-73452380D01*
X150409523Y-73500000D01*
X150457142Y-73547619D01*
X151409523Y-74452380D02*
X150838095Y-74452380D01*
X151123809Y-74452380D02*
X151123809Y-73452380D01*
X151028571Y-73595238D01*
X150933333Y-73690476D01*
X150838095Y-73738095D01*
X152361904Y-74452380D02*
X151790476Y-74452380D01*
X152076190Y-74452380D02*
X152076190Y-73452380D01*
X151980952Y-73595238D01*
X151885714Y-73690476D01*
X151790476Y-73738095D01*
%TO.C,C12*%
X162957142Y-98707142D02*
X162909523Y-98754761D01*
X162766666Y-98802380D01*
X162671428Y-98802380D01*
X162528571Y-98754761D01*
X162433333Y-98659523D01*
X162385714Y-98564285D01*
X162338095Y-98373809D01*
X162338095Y-98230952D01*
X162385714Y-98040476D01*
X162433333Y-97945238D01*
X162528571Y-97850000D01*
X162671428Y-97802380D01*
X162766666Y-97802380D01*
X162909523Y-97850000D01*
X162957142Y-97897619D01*
X163909523Y-98802380D02*
X163338095Y-98802380D01*
X163623809Y-98802380D02*
X163623809Y-97802380D01*
X163528571Y-97945238D01*
X163433333Y-98040476D01*
X163338095Y-98088095D01*
X164290476Y-97897619D02*
X164338095Y-97850000D01*
X164433333Y-97802380D01*
X164671428Y-97802380D01*
X164766666Y-97850000D01*
X164814285Y-97897619D01*
X164861904Y-97992857D01*
X164861904Y-98088095D01*
X164814285Y-98230952D01*
X164242857Y-98802380D01*
X164861904Y-98802380D01*
%TO.C,C13*%
X145757142Y-87542857D02*
X145804761Y-87590476D01*
X145852380Y-87733333D01*
X145852380Y-87828571D01*
X145804761Y-87971428D01*
X145709523Y-88066666D01*
X145614285Y-88114285D01*
X145423809Y-88161904D01*
X145280952Y-88161904D01*
X145090476Y-88114285D01*
X144995238Y-88066666D01*
X144900000Y-87971428D01*
X144852380Y-87828571D01*
X144852380Y-87733333D01*
X144900000Y-87590476D01*
X144947619Y-87542857D01*
X145852380Y-86590476D02*
X145852380Y-87161904D01*
X145852380Y-86876190D02*
X144852380Y-86876190D01*
X144995238Y-86971428D01*
X145090476Y-87066666D01*
X145138095Y-87161904D01*
X144852380Y-86257142D02*
X144852380Y-85638095D01*
X145233333Y-85971428D01*
X145233333Y-85828571D01*
X145280952Y-85733333D01*
X145328571Y-85685714D01*
X145423809Y-85638095D01*
X145661904Y-85638095D01*
X145757142Y-85685714D01*
X145804761Y-85733333D01*
X145852380Y-85828571D01*
X145852380Y-86114285D01*
X145804761Y-86209523D01*
X145757142Y-86257142D01*
%TO.C,C14*%
X145657142Y-96042857D02*
X145704761Y-96090476D01*
X145752380Y-96233333D01*
X145752380Y-96328571D01*
X145704761Y-96471428D01*
X145609523Y-96566666D01*
X145514285Y-96614285D01*
X145323809Y-96661904D01*
X145180952Y-96661904D01*
X144990476Y-96614285D01*
X144895238Y-96566666D01*
X144800000Y-96471428D01*
X144752380Y-96328571D01*
X144752380Y-96233333D01*
X144800000Y-96090476D01*
X144847619Y-96042857D01*
X145752380Y-95090476D02*
X145752380Y-95661904D01*
X145752380Y-95376190D02*
X144752380Y-95376190D01*
X144895238Y-95471428D01*
X144990476Y-95566666D01*
X145038095Y-95661904D01*
X145085714Y-94233333D02*
X145752380Y-94233333D01*
X144704761Y-94471428D02*
X145419047Y-94709523D01*
X145419047Y-94090476D01*
%TO.C,J1*%
X154766666Y-65852380D02*
X154766666Y-66566666D01*
X154719047Y-66709523D01*
X154623809Y-66804761D01*
X154480952Y-66852380D01*
X154385714Y-66852380D01*
X155766666Y-66852380D02*
X155195238Y-66852380D01*
X155480952Y-66852380D02*
X155480952Y-65852380D01*
X155385714Y-65995238D01*
X155290476Y-66090476D01*
X155195238Y-66138095D01*
%TO.C,J2*%
X154766666Y-77252380D02*
X154766666Y-77966666D01*
X154719047Y-78109523D01*
X154623809Y-78204761D01*
X154480952Y-78252380D01*
X154385714Y-78252380D01*
X155195238Y-77347619D02*
X155242857Y-77300000D01*
X155338095Y-77252380D01*
X155576190Y-77252380D01*
X155671428Y-77300000D01*
X155719047Y-77347619D01*
X155766666Y-77442857D01*
X155766666Y-77538095D01*
X155719047Y-77680952D01*
X155147619Y-78252380D01*
X155766666Y-78252380D01*
%TO.C,J3*%
X138666666Y-107352380D02*
X138666666Y-108066666D01*
X138619047Y-108209523D01*
X138523809Y-108304761D01*
X138380952Y-108352380D01*
X138285714Y-108352380D01*
X139047619Y-107352380D02*
X139666666Y-107352380D01*
X139333333Y-107733333D01*
X139476190Y-107733333D01*
X139571428Y-107780952D01*
X139619047Y-107828571D01*
X139666666Y-107923809D01*
X139666666Y-108161904D01*
X139619047Y-108257142D01*
X139571428Y-108304761D01*
X139476190Y-108352380D01*
X139190476Y-108352380D01*
X139095238Y-108304761D01*
X139047619Y-108257142D01*
%TO.C,R1*%
X139833333Y-104752380D02*
X139500000Y-104276190D01*
X139261904Y-104752380D02*
X139261904Y-103752380D01*
X139642857Y-103752380D01*
X139738095Y-103800000D01*
X139785714Y-103847619D01*
X139833333Y-103942857D01*
X139833333Y-104085714D01*
X139785714Y-104180952D01*
X139738095Y-104228571D01*
X139642857Y-104276190D01*
X139261904Y-104276190D01*
X140785714Y-104752380D02*
X140214285Y-104752380D01*
X140500000Y-104752380D02*
X140500000Y-103752380D01*
X140404761Y-103895238D01*
X140309523Y-103990476D01*
X140214285Y-104038095D01*
%TO.C,R2*%
X139833333Y-102252380D02*
X139500000Y-101776190D01*
X139261904Y-102252380D02*
X139261904Y-101252380D01*
X139642857Y-101252380D01*
X139738095Y-101300000D01*
X139785714Y-101347619D01*
X139833333Y-101442857D01*
X139833333Y-101585714D01*
X139785714Y-101680952D01*
X139738095Y-101728571D01*
X139642857Y-101776190D01*
X139261904Y-101776190D01*
X140214285Y-101347619D02*
X140261904Y-101300000D01*
X140357142Y-101252380D01*
X140595238Y-101252380D01*
X140690476Y-101300000D01*
X140738095Y-101347619D01*
X140785714Y-101442857D01*
X140785714Y-101538095D01*
X140738095Y-101680952D01*
X140166666Y-102252380D01*
X140785714Y-102252380D01*
%TO.C,R3*%
X154613333Y-71602380D02*
X154280000Y-71126190D01*
X154041904Y-71602380D02*
X154041904Y-70602380D01*
X154422857Y-70602380D01*
X154518095Y-70650000D01*
X154565714Y-70697619D01*
X154613333Y-70792857D01*
X154613333Y-70935714D01*
X154565714Y-71030952D01*
X154518095Y-71078571D01*
X154422857Y-71126190D01*
X154041904Y-71126190D01*
X154946666Y-70602380D02*
X155565714Y-70602380D01*
X155232380Y-70983333D01*
X155375238Y-70983333D01*
X155470476Y-71030952D01*
X155518095Y-71078571D01*
X155565714Y-71173809D01*
X155565714Y-71411904D01*
X155518095Y-71507142D01*
X155470476Y-71554761D01*
X155375238Y-71602380D01*
X155089523Y-71602380D01*
X154994285Y-71554761D01*
X154946666Y-71507142D01*
%TO.C,R4*%
X141033333Y-76552380D02*
X140700000Y-76076190D01*
X140461904Y-76552380D02*
X140461904Y-75552380D01*
X140842857Y-75552380D01*
X140938095Y-75600000D01*
X140985714Y-75647619D01*
X141033333Y-75742857D01*
X141033333Y-75885714D01*
X140985714Y-75980952D01*
X140938095Y-76028571D01*
X140842857Y-76076190D01*
X140461904Y-76076190D01*
X141890476Y-75885714D02*
X141890476Y-76552380D01*
X141652380Y-75504761D02*
X141414285Y-76219047D01*
X142033333Y-76219047D01*
%TO.C,R5*%
X141033333Y-79802380D02*
X140700000Y-79326190D01*
X140461904Y-79802380D02*
X140461904Y-78802380D01*
X140842857Y-78802380D01*
X140938095Y-78850000D01*
X140985714Y-78897619D01*
X141033333Y-78992857D01*
X141033333Y-79135714D01*
X140985714Y-79230952D01*
X140938095Y-79278571D01*
X140842857Y-79326190D01*
X140461904Y-79326190D01*
X141938095Y-78802380D02*
X141461904Y-78802380D01*
X141414285Y-79278571D01*
X141461904Y-79230952D01*
X141557142Y-79183333D01*
X141795238Y-79183333D01*
X141890476Y-79230952D01*
X141938095Y-79278571D01*
X141985714Y-79373809D01*
X141985714Y-79611904D01*
X141938095Y-79707142D01*
X141890476Y-79754761D01*
X141795238Y-79802380D01*
X141557142Y-79802380D01*
X141461904Y-79754761D01*
X141414285Y-79707142D01*
%TO.C,R6*%
X161133333Y-98752380D02*
X160800000Y-98276190D01*
X160561904Y-98752380D02*
X160561904Y-97752380D01*
X160942857Y-97752380D01*
X161038095Y-97800000D01*
X161085714Y-97847619D01*
X161133333Y-97942857D01*
X161133333Y-98085714D01*
X161085714Y-98180952D01*
X161038095Y-98228571D01*
X160942857Y-98276190D01*
X160561904Y-98276190D01*
X161990476Y-97752380D02*
X161800000Y-97752380D01*
X161704761Y-97800000D01*
X161657142Y-97847619D01*
X161561904Y-97990476D01*
X161514285Y-98180952D01*
X161514285Y-98561904D01*
X161561904Y-98657142D01*
X161609523Y-98704761D01*
X161704761Y-98752380D01*
X161895238Y-98752380D01*
X161990476Y-98704761D01*
X162038095Y-98657142D01*
X162085714Y-98561904D01*
X162085714Y-98323809D01*
X162038095Y-98228571D01*
X161990476Y-98180952D01*
X161895238Y-98133333D01*
X161704761Y-98133333D01*
X161609523Y-98180952D01*
X161561904Y-98228571D01*
X161514285Y-98323809D01*
%TO.C,R7*%
X154633333Y-68702380D02*
X154300000Y-68226190D01*
X154061904Y-68702380D02*
X154061904Y-67702380D01*
X154442857Y-67702380D01*
X154538095Y-67750000D01*
X154585714Y-67797619D01*
X154633333Y-67892857D01*
X154633333Y-68035714D01*
X154585714Y-68130952D01*
X154538095Y-68178571D01*
X154442857Y-68226190D01*
X154061904Y-68226190D01*
X154966666Y-67702380D02*
X155633333Y-67702380D01*
X155204761Y-68702380D01*
%TO.C,R8*%
X151833333Y-104852380D02*
X151500000Y-104376190D01*
X151261904Y-104852380D02*
X151261904Y-103852380D01*
X151642857Y-103852380D01*
X151738095Y-103900000D01*
X151785714Y-103947619D01*
X151833333Y-104042857D01*
X151833333Y-104185714D01*
X151785714Y-104280952D01*
X151738095Y-104328571D01*
X151642857Y-104376190D01*
X151261904Y-104376190D01*
X152404761Y-104280952D02*
X152309523Y-104233333D01*
X152261904Y-104185714D01*
X152214285Y-104090476D01*
X152214285Y-104042857D01*
X152261904Y-103947619D01*
X152309523Y-103900000D01*
X152404761Y-103852380D01*
X152595238Y-103852380D01*
X152690476Y-103900000D01*
X152738095Y-103947619D01*
X152785714Y-104042857D01*
X152785714Y-104090476D01*
X152738095Y-104185714D01*
X152690476Y-104233333D01*
X152595238Y-104280952D01*
X152404761Y-104280952D01*
X152309523Y-104328571D01*
X152261904Y-104376190D01*
X152214285Y-104471428D01*
X152214285Y-104661904D01*
X152261904Y-104757142D01*
X152309523Y-104804761D01*
X152404761Y-104852380D01*
X152595238Y-104852380D01*
X152690476Y-104804761D01*
X152738095Y-104757142D01*
X152785714Y-104661904D01*
X152785714Y-104471428D01*
X152738095Y-104376190D01*
X152690476Y-104328571D01*
X152595238Y-104280952D01*
%TO.C,R9*%
X151833333Y-102252380D02*
X151500000Y-101776190D01*
X151261904Y-102252380D02*
X151261904Y-101252380D01*
X151642857Y-101252380D01*
X151738095Y-101300000D01*
X151785714Y-101347619D01*
X151833333Y-101442857D01*
X151833333Y-101585714D01*
X151785714Y-101680952D01*
X151738095Y-101728571D01*
X151642857Y-101776190D01*
X151261904Y-101776190D01*
X152309523Y-102252380D02*
X152500000Y-102252380D01*
X152595238Y-102204761D01*
X152642857Y-102157142D01*
X152738095Y-102014285D01*
X152785714Y-101823809D01*
X152785714Y-101442857D01*
X152738095Y-101347619D01*
X152690476Y-101300000D01*
X152595238Y-101252380D01*
X152404761Y-101252380D01*
X152309523Y-101300000D01*
X152261904Y-101347619D01*
X152214285Y-101442857D01*
X152214285Y-101680952D01*
X152261904Y-101776190D01*
X152309523Y-101823809D01*
X152404761Y-101871428D01*
X152595238Y-101871428D01*
X152690476Y-101823809D01*
X152738095Y-101776190D01*
X152785714Y-101680952D01*
%TO.C,R10*%
X153857142Y-80152380D02*
X153523809Y-79676190D01*
X153285714Y-80152380D02*
X153285714Y-79152380D01*
X153666666Y-79152380D01*
X153761904Y-79200000D01*
X153809523Y-79247619D01*
X153857142Y-79342857D01*
X153857142Y-79485714D01*
X153809523Y-79580952D01*
X153761904Y-79628571D01*
X153666666Y-79676190D01*
X153285714Y-79676190D01*
X154809523Y-80152380D02*
X154238095Y-80152380D01*
X154523809Y-80152380D02*
X154523809Y-79152380D01*
X154428571Y-79295238D01*
X154333333Y-79390476D01*
X154238095Y-79438095D01*
X155428571Y-79152380D02*
X155523809Y-79152380D01*
X155619047Y-79200000D01*
X155666666Y-79247619D01*
X155714285Y-79342857D01*
X155761904Y-79533333D01*
X155761904Y-79771428D01*
X155714285Y-79961904D01*
X155666666Y-80057142D01*
X155619047Y-80104761D01*
X155523809Y-80152380D01*
X155428571Y-80152380D01*
X155333333Y-80104761D01*
X155285714Y-80057142D01*
X155238095Y-79961904D01*
X155190476Y-79771428D01*
X155190476Y-79533333D01*
X155238095Y-79342857D01*
X155285714Y-79247619D01*
X155333333Y-79200000D01*
X155428571Y-79152380D01*
%TO.C,R11*%
X158757142Y-92552380D02*
X158423809Y-92076190D01*
X158185714Y-92552380D02*
X158185714Y-91552380D01*
X158566666Y-91552380D01*
X158661904Y-91600000D01*
X158709523Y-91647619D01*
X158757142Y-91742857D01*
X158757142Y-91885714D01*
X158709523Y-91980952D01*
X158661904Y-92028571D01*
X158566666Y-92076190D01*
X158185714Y-92076190D01*
X159709523Y-92552380D02*
X159138095Y-92552380D01*
X159423809Y-92552380D02*
X159423809Y-91552380D01*
X159328571Y-91695238D01*
X159233333Y-91790476D01*
X159138095Y-91838095D01*
X160661904Y-92552380D02*
X160090476Y-92552380D01*
X160376190Y-92552380D02*
X160376190Y-91552380D01*
X160280952Y-91695238D01*
X160185714Y-91790476D01*
X160090476Y-91838095D01*
%TO.C,R12*%
X162557142Y-91152380D02*
X162223809Y-90676190D01*
X161985714Y-91152380D02*
X161985714Y-90152380D01*
X162366666Y-90152380D01*
X162461904Y-90200000D01*
X162509523Y-90247619D01*
X162557142Y-90342857D01*
X162557142Y-90485714D01*
X162509523Y-90580952D01*
X162461904Y-90628571D01*
X162366666Y-90676190D01*
X161985714Y-90676190D01*
X163509523Y-91152380D02*
X162938095Y-91152380D01*
X163223809Y-91152380D02*
X163223809Y-90152380D01*
X163128571Y-90295238D01*
X163033333Y-90390476D01*
X162938095Y-90438095D01*
X163890476Y-90247619D02*
X163938095Y-90200000D01*
X164033333Y-90152380D01*
X164271428Y-90152380D01*
X164366666Y-90200000D01*
X164414285Y-90247619D01*
X164461904Y-90342857D01*
X164461904Y-90438095D01*
X164414285Y-90580952D01*
X163842857Y-91152380D01*
X164461904Y-91152380D01*
%TO.C,R13*%
X153857142Y-83152380D02*
X153523809Y-82676190D01*
X153285714Y-83152380D02*
X153285714Y-82152380D01*
X153666666Y-82152380D01*
X153761904Y-82200000D01*
X153809523Y-82247619D01*
X153857142Y-82342857D01*
X153857142Y-82485714D01*
X153809523Y-82580952D01*
X153761904Y-82628571D01*
X153666666Y-82676190D01*
X153285714Y-82676190D01*
X154809523Y-83152380D02*
X154238095Y-83152380D01*
X154523809Y-83152380D02*
X154523809Y-82152380D01*
X154428571Y-82295238D01*
X154333333Y-82390476D01*
X154238095Y-82438095D01*
X155142857Y-82152380D02*
X155761904Y-82152380D01*
X155428571Y-82533333D01*
X155571428Y-82533333D01*
X155666666Y-82580952D01*
X155714285Y-82628571D01*
X155761904Y-82723809D01*
X155761904Y-82961904D01*
X155714285Y-83057142D01*
X155666666Y-83104761D01*
X155571428Y-83152380D01*
X155285714Y-83152380D01*
X155190476Y-83104761D01*
X155142857Y-83057142D01*
%TO.C,R14*%
X159657142Y-89752380D02*
X159323809Y-89276190D01*
X159085714Y-89752380D02*
X159085714Y-88752380D01*
X159466666Y-88752380D01*
X159561904Y-88800000D01*
X159609523Y-88847619D01*
X159657142Y-88942857D01*
X159657142Y-89085714D01*
X159609523Y-89180952D01*
X159561904Y-89228571D01*
X159466666Y-89276190D01*
X159085714Y-89276190D01*
X160609523Y-89752380D02*
X160038095Y-89752380D01*
X160323809Y-89752380D02*
X160323809Y-88752380D01*
X160228571Y-88895238D01*
X160133333Y-88990476D01*
X160038095Y-89038095D01*
X161466666Y-89085714D02*
X161466666Y-89752380D01*
X161228571Y-88704761D02*
X160990476Y-89419047D01*
X161609523Y-89419047D01*
%TO.C,SW1*%
X144676666Y-100094761D02*
X144819523Y-100142380D01*
X145057619Y-100142380D01*
X145152857Y-100094761D01*
X145200476Y-100047142D01*
X145248095Y-99951904D01*
X145248095Y-99856666D01*
X145200476Y-99761428D01*
X145152857Y-99713809D01*
X145057619Y-99666190D01*
X144867142Y-99618571D01*
X144771904Y-99570952D01*
X144724285Y-99523333D01*
X144676666Y-99428095D01*
X144676666Y-99332857D01*
X144724285Y-99237619D01*
X144771904Y-99190000D01*
X144867142Y-99142380D01*
X145105238Y-99142380D01*
X145248095Y-99190000D01*
X145581428Y-99142380D02*
X145819523Y-100142380D01*
X146010000Y-99428095D01*
X146200476Y-100142380D01*
X146438571Y-99142380D01*
X147343333Y-100142380D02*
X146771904Y-100142380D01*
X147057619Y-100142380D02*
X147057619Y-99142380D01*
X146962380Y-99285238D01*
X146867142Y-99380476D01*
X146771904Y-99428095D01*
%TO.C,SW2*%
X156566666Y-99804761D02*
X156709523Y-99852380D01*
X156947619Y-99852380D01*
X157042857Y-99804761D01*
X157090476Y-99757142D01*
X157138095Y-99661904D01*
X157138095Y-99566666D01*
X157090476Y-99471428D01*
X157042857Y-99423809D01*
X156947619Y-99376190D01*
X156757142Y-99328571D01*
X156661904Y-99280952D01*
X156614285Y-99233333D01*
X156566666Y-99138095D01*
X156566666Y-99042857D01*
X156614285Y-98947619D01*
X156661904Y-98900000D01*
X156757142Y-98852380D01*
X156995238Y-98852380D01*
X157138095Y-98900000D01*
X157471428Y-98852380D02*
X157709523Y-99852380D01*
X157900000Y-99138095D01*
X158090476Y-99852380D01*
X158328571Y-98852380D01*
X158661904Y-98947619D02*
X158709523Y-98900000D01*
X158804761Y-98852380D01*
X159042857Y-98852380D01*
X159138095Y-98900000D01*
X159185714Y-98947619D01*
X159233333Y-99042857D01*
X159233333Y-99138095D01*
X159185714Y-99280952D01*
X158614285Y-99852380D01*
X159233333Y-99852380D01*
%TO.C,U1*%
X138938095Y-73552380D02*
X138938095Y-74361904D01*
X138985714Y-74457142D01*
X139033333Y-74504761D01*
X139128571Y-74552380D01*
X139319047Y-74552380D01*
X139414285Y-74504761D01*
X139461904Y-74457142D01*
X139509523Y-74361904D01*
X139509523Y-73552380D01*
X140509523Y-74552380D02*
X139938095Y-74552380D01*
X140223809Y-74552380D02*
X140223809Y-73552380D01*
X140128571Y-73695238D01*
X140033333Y-73790476D01*
X139938095Y-73838095D01*
%TO.C,U2*%
X145238095Y-74952380D02*
X145238095Y-75761904D01*
X145285714Y-75857142D01*
X145333333Y-75904761D01*
X145428571Y-75952380D01*
X145619047Y-75952380D01*
X145714285Y-75904761D01*
X145761904Y-75857142D01*
X145809523Y-75761904D01*
X145809523Y-74952380D01*
X146238095Y-75047619D02*
X146285714Y-75000000D01*
X146380952Y-74952380D01*
X146619047Y-74952380D01*
X146714285Y-75000000D01*
X146761904Y-75047619D01*
X146809523Y-75142857D01*
X146809523Y-75238095D01*
X146761904Y-75380952D01*
X146190476Y-75952380D01*
X146809523Y-75952380D01*
%TO.C,U3*%
X151638095Y-85702380D02*
X151638095Y-86511904D01*
X151685714Y-86607142D01*
X151733333Y-86654761D01*
X151828571Y-86702380D01*
X152019047Y-86702380D01*
X152114285Y-86654761D01*
X152161904Y-86607142D01*
X152209523Y-86511904D01*
X152209523Y-85702380D01*
X152590476Y-85702380D02*
X153209523Y-85702380D01*
X152876190Y-86083333D01*
X153019047Y-86083333D01*
X153114285Y-86130952D01*
X153161904Y-86178571D01*
X153209523Y-86273809D01*
X153209523Y-86511904D01*
X153161904Y-86607142D01*
X153114285Y-86654761D01*
X153019047Y-86702380D01*
X152733333Y-86702380D01*
X152638095Y-86654761D01*
X152590476Y-86607142D01*
%TO.C,Y1*%
X139423809Y-84376190D02*
X139423809Y-84852380D01*
X139090476Y-83852380D02*
X139423809Y-84376190D01*
X139757142Y-83852380D01*
X140614285Y-84852380D02*
X140042857Y-84852380D01*
X140328571Y-84852380D02*
X140328571Y-83852380D01*
X140233333Y-83995238D01*
X140138095Y-84090476D01*
X140042857Y-84138095D01*
%TD*%
M02*
