G04 #@! TF.GenerationSoftware,KiCad,Pcbnew,5.1.8+dfsg1-1~bpo10+1*
G04 #@! TF.CreationDate,2020-11-15T21:14:17+08:00*
G04 #@! TF.ProjectId,stm32-io-extend,73746d33-322d-4696-9f2d-657874656e64,rev?*
G04 #@! TF.SameCoordinates,Original*
G04 #@! TF.FileFunction,Copper,L2,Bot*
G04 #@! TF.FilePolarity,Positive*
%FSLAX46Y46*%
G04 Gerber Fmt 4.6, Leading zero omitted, Abs format (unit mm)*
G04 Created by KiCad (PCBNEW 5.1.8+dfsg1-1~bpo10+1) date 2020-11-15 21:14:17*
%MOMM*%
%LPD*%
G01*
G04 APERTURE LIST*
G04 #@! TA.AperFunction,ComponentPad*
%ADD10O,2.000000X0.900000*%
G04 #@! TD*
G04 #@! TA.AperFunction,ComponentPad*
%ADD11O,1.700000X0.900000*%
G04 #@! TD*
G04 #@! TA.AperFunction,ComponentPad*
%ADD12R,1.700000X1.700000*%
G04 #@! TD*
G04 #@! TA.AperFunction,ComponentPad*
%ADD13O,1.700000X1.700000*%
G04 #@! TD*
G04 #@! TA.AperFunction,ComponentPad*
%ADD14R,1.600000X1.600000*%
G04 #@! TD*
G04 #@! TA.AperFunction,ComponentPad*
%ADD15O,1.600000X1.600000*%
G04 #@! TD*
G04 #@! TA.AperFunction,ComponentPad*
%ADD16C,2.000000*%
G04 #@! TD*
G04 #@! TA.AperFunction,ComponentPad*
%ADD17C,1.500000*%
G04 #@! TD*
G04 #@! TA.AperFunction,ViaPad*
%ADD18C,0.400000*%
G04 #@! TD*
G04 #@! TA.AperFunction,Conductor*
%ADD19C,0.200000*%
G04 #@! TD*
G04 APERTURE END LIST*
D10*
G04 #@! TO.P,J1,S1*
G04 #@! TO.N,GND*
X139270000Y-39920000D03*
X139270000Y-31280000D03*
D11*
X143440000Y-39920000D03*
X143440000Y-31280000D03*
G04 #@! TD*
G04 #@! TO.P,J2,S1*
G04 #@! TO.N,GND*
X143440000Y-42880000D03*
X143440000Y-51520000D03*
D10*
X139270000Y-42880000D03*
X139270000Y-51520000D03*
G04 #@! TD*
D12*
G04 #@! TO.P,J3,1*
G04 #@! TO.N,/P1*
X115400000Y-32150000D03*
D13*
G04 #@! TO.P,J3,2*
G04 #@! TO.N,/P2*
X112860000Y-32150000D03*
G04 #@! TO.P,J3,3*
G04 #@! TO.N,/P3*
X115400000Y-34690000D03*
G04 #@! TO.P,J3,4*
G04 #@! TO.N,/P4*
X112860000Y-34690000D03*
G04 #@! TO.P,J3,5*
G04 #@! TO.N,/P5*
X115400000Y-37230000D03*
G04 #@! TO.P,J3,6*
G04 #@! TO.N,/P6*
X112860000Y-37230000D03*
G04 #@! TO.P,J3,7*
G04 #@! TO.N,/P7*
X115400000Y-39770000D03*
G04 #@! TO.P,J3,8*
G04 #@! TO.N,/P8*
X112860000Y-39770000D03*
G04 #@! TO.P,J3,9*
G04 #@! TO.N,/P9*
X115400000Y-42310000D03*
G04 #@! TO.P,J3,10*
G04 #@! TO.N,/P10*
X112860000Y-42310000D03*
G04 #@! TO.P,J3,11*
G04 #@! TO.N,/P11*
X115400000Y-44850000D03*
G04 #@! TO.P,J3,12*
G04 #@! TO.N,/P12*
X112860000Y-44850000D03*
G04 #@! TO.P,J3,13*
G04 #@! TO.N,/P13*
X115400000Y-47390000D03*
G04 #@! TO.P,J3,14*
G04 #@! TO.N,/P14*
X112860000Y-47390000D03*
G04 #@! TO.P,J3,15*
G04 #@! TO.N,/P15*
X115400000Y-49930000D03*
G04 #@! TO.P,J3,16*
G04 #@! TO.N,/P16*
X112860000Y-49930000D03*
G04 #@! TO.P,J3,17*
G04 #@! TO.N,/P17*
X115400000Y-52470000D03*
G04 #@! TO.P,J3,18*
G04 #@! TO.N,/P18*
X112860000Y-52470000D03*
G04 #@! TO.P,J3,19*
G04 #@! TO.N,/P19*
X115400000Y-55010000D03*
G04 #@! TO.P,J3,20*
G04 #@! TO.N,/P20*
X112860000Y-55010000D03*
G04 #@! TO.P,J3,21*
G04 #@! TO.N,/P21*
X115400000Y-57550000D03*
G04 #@! TO.P,J3,22*
G04 #@! TO.N,/P22*
X112860000Y-57550000D03*
G04 #@! TO.P,J3,23*
G04 #@! TO.N,/P23*
X115400000Y-60090000D03*
G04 #@! TO.P,J3,24*
G04 #@! TO.N,/P24*
X112860000Y-60090000D03*
G04 #@! TO.P,J3,25*
G04 #@! TO.N,/P25*
X115400000Y-62630000D03*
G04 #@! TO.P,J3,26*
G04 #@! TO.N,/P26*
X112860000Y-62630000D03*
G04 #@! TO.P,J3,27*
G04 #@! TO.N,/P27*
X115400000Y-65170000D03*
G04 #@! TO.P,J3,28*
G04 #@! TO.N,/P28*
X112860000Y-65170000D03*
G04 #@! TO.P,J3,29*
G04 #@! TO.N,/P29*
X115400000Y-67710000D03*
G04 #@! TO.P,J3,30*
G04 #@! TO.N,+3V3*
X112860000Y-67710000D03*
G04 #@! TO.P,J3,31*
G04 #@! TO.N,GND*
X115400000Y-70250000D03*
G04 #@! TO.P,J3,32*
G04 #@! TO.N,+5V*
X112860000Y-70250000D03*
G04 #@! TD*
D14*
G04 #@! TO.P,SW1,1*
G04 #@! TO.N,Net-(R2-Pad1)*
X121300000Y-66750000D03*
D15*
G04 #@! TO.P,SW1,3*
G04 #@! TO.N,/BOOT1*
X128920000Y-69290000D03*
G04 #@! TO.P,SW1,2*
G04 #@! TO.N,Net-(R1-Pad2)*
X121300000Y-69290000D03*
G04 #@! TO.P,SW1,4*
G04 #@! TO.N,/BOOT0*
X128920000Y-66750000D03*
G04 #@! TD*
D16*
G04 #@! TO.P,SW2,2*
G04 #@! TO.N,GND*
X134450000Y-70300000D03*
G04 #@! TO.P,SW2,1*
G04 #@! TO.N,/NRST*
X134450000Y-65800000D03*
G04 #@! TO.P,SW2,2*
G04 #@! TO.N,GND*
X140950000Y-70300000D03*
G04 #@! TO.P,SW2,1*
G04 #@! TO.N,/NRST*
X140950000Y-65800000D03*
G04 #@! TD*
D17*
G04 #@! TO.P,Y1,1*
G04 #@! TO.N,Net-(C13-Pad1)*
X123330000Y-59560000D03*
G04 #@! TO.P,Y1,2*
G04 #@! TO.N,Net-(C14-Pad1)*
X128210000Y-59560000D03*
G04 #@! TD*
D18*
G04 #@! TO.N,+5V*
X137709700Y-49882600D03*
G04 #@! TO.N,+3V3*
X128849100Y-53450200D03*
X121495900Y-56701100D03*
X125476000Y-53062900D03*
X120923000Y-51035400D03*
G04 #@! TO.N,/NRST*
X125035800Y-55536000D03*
G04 #@! TO.N,/USBDM*
X133564600Y-48093300D03*
X123650000Y-44575700D03*
G04 #@! TO.N,/P1*
X126590700Y-42197800D03*
G04 #@! TO.N,/P2*
X126762700Y-44584200D03*
G04 #@! TO.N,/P3*
X126099700Y-44629000D03*
G04 #@! TO.N,/P4*
X125650000Y-42054200D03*
G04 #@! TO.N,/P5*
X125150000Y-44583000D03*
G04 #@! TO.N,/P7*
X121380500Y-45067500D03*
G04 #@! TO.N,/P12*
X118804900Y-47825100D03*
G04 #@! TO.N,/P16*
X122518900Y-49965000D03*
G04 #@! TO.N,/P19*
X125233800Y-50284500D03*
G04 #@! TO.N,/P22*
X127419300Y-49918500D03*
G04 #@! TO.N,/P23*
X129302800Y-50923600D03*
G04 #@! TO.N,/P24*
X126754400Y-50318800D03*
G04 #@! TO.N,/P25*
X129016700Y-51758100D03*
G04 #@! TO.N,/P26*
X127408900Y-47850000D03*
G04 #@! TO.N,/P28*
X127414100Y-46350000D03*
G04 #@! TO.N,/P29*
X131129000Y-51969100D03*
G04 #@! TO.N,Net-(C13-Pad1)*
X120410600Y-60145500D03*
G04 #@! TO.N,Net-(C14-Pad1)*
X124526100Y-56045800D03*
G04 #@! TD*
D19*
G04 #@! TO.N,GND*
X143440000Y-42880000D02*
X139270000Y-42880000D01*
X143440000Y-51520000D02*
X139270000Y-51520000D01*
G04 #@! TO.N,+5V*
X114010300Y-70250000D02*
X114010300Y-69962300D01*
X114010300Y-69962300D02*
X114872900Y-69099700D01*
X114872900Y-69099700D02*
X115709800Y-69099700D01*
X115709800Y-69099700D02*
X119663200Y-65146300D01*
X119663200Y-65146300D02*
X119663200Y-60169700D01*
X119663200Y-60169700D02*
X125383000Y-54449900D01*
X125383000Y-54449900D02*
X133142400Y-54449900D01*
X133142400Y-54449900D02*
X137709700Y-49882600D01*
X112860000Y-70250000D02*
X114010300Y-70250000D01*
G04 #@! TO.N,+3V3*
X120923000Y-51035400D02*
X122725700Y-51035400D01*
X122725700Y-51035400D02*
X124377300Y-49383800D01*
X124377300Y-49383800D02*
X128527100Y-49383800D01*
X128527100Y-49383800D02*
X129804600Y-50661300D01*
X129804600Y-50661300D02*
X129804600Y-51720100D01*
X129804600Y-51720100D02*
X128461800Y-53062900D01*
X125476000Y-53062900D02*
X128461800Y-53062900D01*
X128461800Y-53062900D02*
X128849100Y-53450200D01*
X112860000Y-67710000D02*
X112860000Y-66559700D01*
X112860000Y-66559700D02*
X113147700Y-66559700D01*
X113147700Y-66559700D02*
X114010300Y-65697100D01*
X114010300Y-65697100D02*
X114010300Y-64871200D01*
X114010300Y-64871200D02*
X114981500Y-63900000D01*
X114981500Y-63900000D02*
X115765900Y-63900000D01*
X115765900Y-63900000D02*
X117624500Y-62041400D01*
X117624500Y-62041400D02*
X117624500Y-60572500D01*
X117624500Y-60572500D02*
X121495900Y-56701100D01*
X125476000Y-53062900D02*
X121837800Y-56701100D01*
X121837800Y-56701100D02*
X121495900Y-56701100D01*
G04 #@! TO.N,/NRST*
X134450000Y-65800000D02*
X134450000Y-64274700D01*
X134450000Y-64274700D02*
X125711300Y-55536000D01*
X125711300Y-55536000D02*
X125035800Y-55536000D01*
X134450000Y-65800000D02*
X140950000Y-65800000D01*
G04 #@! TO.N,/USBDM*
X123650000Y-44575700D02*
X124214100Y-45139800D01*
X124214100Y-45139800D02*
X130611100Y-45139800D01*
X130611100Y-45139800D02*
X133564600Y-48093300D01*
G04 #@! TO.N,/P1*
X115400000Y-32150000D02*
X124511800Y-41261800D01*
X124511800Y-41261800D02*
X124511800Y-41631200D01*
X124511800Y-41631200D02*
X125435300Y-42554700D01*
X125435300Y-42554700D02*
X126233800Y-42554700D01*
X126233800Y-42554700D02*
X126590700Y-42197800D01*
G04 #@! TO.N,/P2*
X114010300Y-32150000D02*
X114010300Y-32940900D01*
X114010300Y-32940900D02*
X114369700Y-33300300D01*
X114369700Y-33300300D02*
X115756300Y-33300300D01*
X115756300Y-33300300D02*
X123969800Y-41513800D01*
X123969800Y-41513800D02*
X123969800Y-41791300D01*
X123969800Y-41791300D02*
X126762700Y-44584200D01*
X112860000Y-32150000D02*
X114010300Y-32150000D01*
G04 #@! TO.N,/P3*
X116550300Y-34690000D02*
X116550300Y-35079600D01*
X116550300Y-35079600D02*
X126099700Y-44629000D01*
X115400000Y-34690000D02*
X116550300Y-34690000D01*
G04 #@! TO.N,/P4*
X112860000Y-33539700D02*
X112621600Y-33539700D01*
X112621600Y-33539700D02*
X111709300Y-32627400D01*
X111709300Y-32627400D02*
X111709300Y-31669200D01*
X111709300Y-31669200D02*
X112426100Y-30952400D01*
X112426100Y-30952400D02*
X116327100Y-30952400D01*
X116327100Y-30952400D02*
X125650000Y-40275300D01*
X125650000Y-40275300D02*
X125650000Y-42054200D01*
X112860000Y-34690000D02*
X112860000Y-33539700D01*
G04 #@! TO.N,/P5*
X116550300Y-37230000D02*
X117797000Y-37230000D01*
X117797000Y-37230000D02*
X125150000Y-44583000D01*
X115400000Y-37230000D02*
X116550300Y-37230000D01*
G04 #@! TO.N,/P7*
X116550300Y-39770000D02*
X116550300Y-40237300D01*
X116550300Y-40237300D02*
X121380500Y-45067500D01*
X115400000Y-39770000D02*
X116550300Y-39770000D01*
G04 #@! TO.N,/P12*
X114010300Y-44850000D02*
X114010300Y-44562400D01*
X114010300Y-44562400D02*
X114889400Y-43683300D01*
X114889400Y-43683300D02*
X115883800Y-43683300D01*
X115883800Y-43683300D02*
X118804900Y-46604400D01*
X118804900Y-46604400D02*
X118804900Y-47825100D01*
X112860000Y-44850000D02*
X114010300Y-44850000D01*
G04 #@! TO.N,/P16*
X112860000Y-49930000D02*
X114010300Y-49930000D01*
X114010300Y-49930000D02*
X114010300Y-50217600D01*
X114010300Y-50217600D02*
X114913300Y-51120600D01*
X114913300Y-51120600D02*
X117229500Y-51120600D01*
X117229500Y-51120600D02*
X118385100Y-49965000D01*
X118385100Y-49965000D02*
X122518900Y-49965000D01*
G04 #@! TO.N,/P19*
X116550300Y-55010000D02*
X120198800Y-55010000D01*
X120198800Y-55010000D02*
X124924300Y-50284500D01*
X124924300Y-50284500D02*
X125233800Y-50284500D01*
X115400000Y-55010000D02*
X116550300Y-55010000D01*
G04 #@! TO.N,/P22*
X114010300Y-57550000D02*
X114010300Y-57311600D01*
X114010300Y-57311600D02*
X115042100Y-56279800D01*
X115042100Y-56279800D02*
X119511200Y-56279800D01*
X119511200Y-56279800D02*
X125006200Y-50784800D01*
X125006200Y-50784800D02*
X125441100Y-50784800D01*
X125441100Y-50784800D02*
X126417200Y-49808700D01*
X126417200Y-49808700D02*
X127309500Y-49808700D01*
X127309500Y-49808700D02*
X127419300Y-49918500D01*
X112860000Y-57550000D02*
X114010300Y-57550000D01*
G04 #@! TO.N,/P23*
X116550300Y-60090000D02*
X116833400Y-60090000D01*
X116833400Y-60090000D02*
X125338000Y-51585400D01*
X125338000Y-51585400D02*
X125862500Y-51585400D01*
X125862500Y-51585400D02*
X126524300Y-50923600D01*
X126524300Y-50923600D02*
X129302800Y-50923600D01*
X115400000Y-60090000D02*
X116550300Y-60090000D01*
G04 #@! TO.N,/P24*
X114010300Y-60090000D02*
X114010300Y-59851600D01*
X114010300Y-59851600D02*
X115041900Y-58820000D01*
X115041900Y-58820000D02*
X117537300Y-58820000D01*
X117537300Y-58820000D02*
X125172200Y-51185100D01*
X125172200Y-51185100D02*
X125606900Y-51185100D01*
X125606900Y-51185100D02*
X126473200Y-50318800D01*
X126473200Y-50318800D02*
X126754400Y-50318800D01*
X112860000Y-60090000D02*
X114010300Y-60090000D01*
G04 #@! TO.N,/P25*
X115400000Y-61479700D02*
X116009800Y-61479700D01*
X116009800Y-61479700D02*
X125503800Y-51985700D01*
X125503800Y-51985700D02*
X128789100Y-51985700D01*
X128789100Y-51985700D02*
X129016700Y-51758100D01*
X115400000Y-62630000D02*
X115400000Y-61479700D01*
G04 #@! TO.N,/P26*
X112860000Y-62630000D02*
X112860000Y-61479700D01*
X112860000Y-61479700D02*
X112572400Y-61479700D01*
X112572400Y-61479700D02*
X111683700Y-60591000D01*
X111683700Y-60591000D02*
X111683700Y-57073300D01*
X111683700Y-57073300D02*
X112477000Y-56280000D01*
X112477000Y-56280000D02*
X113244600Y-56280000D01*
X113244600Y-56280000D02*
X114249600Y-55275000D01*
X114249600Y-55275000D02*
X114249600Y-54505000D01*
X114249600Y-54505000D02*
X114895000Y-53859600D01*
X114895000Y-53859600D02*
X117325000Y-53859600D01*
X117325000Y-53859600D02*
X120649600Y-50535000D01*
X120649600Y-50535000D02*
X122659800Y-50535000D01*
X122659800Y-50535000D02*
X125344800Y-47850000D01*
X125344800Y-47850000D02*
X127408900Y-47850000D01*
G04 #@! TO.N,/P28*
X112860000Y-64019700D02*
X112572400Y-64019700D01*
X112572400Y-64019700D02*
X111283300Y-62730600D01*
X111283300Y-62730600D02*
X111283300Y-49879200D01*
X111283300Y-49879200D02*
X112502500Y-48660000D01*
X112502500Y-48660000D02*
X122576300Y-48660000D01*
X122576300Y-48660000D02*
X124886300Y-46350000D01*
X124886300Y-46350000D02*
X127414100Y-46350000D01*
X112860000Y-65170000D02*
X112860000Y-64019700D01*
G04 #@! TO.N,/P29*
X115400000Y-66559700D02*
X115638300Y-66559700D01*
X115638300Y-66559700D02*
X119262900Y-62935100D01*
X119262900Y-62935100D02*
X119262900Y-59924900D01*
X119262900Y-59924900D02*
X125237300Y-53950500D01*
X125237300Y-53950500D02*
X129147600Y-53950500D01*
X129147600Y-53950500D02*
X131129000Y-51969100D01*
X115400000Y-67710000D02*
X115400000Y-66559700D01*
G04 #@! TO.N,Net-(C13-Pad1)*
X123330000Y-59560000D02*
X120996100Y-59560000D01*
X120996100Y-59560000D02*
X120410600Y-60145500D01*
G04 #@! TO.N,Net-(C14-Pad1)*
X128210000Y-59560000D02*
X124695800Y-56045800D01*
X124695800Y-56045800D02*
X124526100Y-56045800D01*
G04 #@! TD*
M02*
