M48
; DRILL file {KiCad 5.1.8+dfsg1-1~bpo10+1} date Sun Nov 15 21:14:27 2020
; FORMAT={-:-/ absolute / inch / decimal}
; #@! TF.CreationDate,2020-11-15T21:14:27+08:00
; #@! TF.GenerationSoftware,Kicad,Pcbnew,5.1.8+dfsg1-1~bpo10+1
; #@! TF.FileFunction,Plated,1,2,PTH
FMAT,2
INCH
T1C0.0079
T2C0.0236
T3C0.0315
T4C0.0394
T5C0.0433
%
G90
G05
T1
X4.6774Y-1.8829
X4.7406Y-2.3679
X4.7607Y-2.0093
X4.7788Y-1.7743
X4.7833Y-2.2323
X4.8236Y-1.9671
X4.8681Y-1.7549
X4.9026Y-2.2065
X4.9227Y-2.1865
X4.9272Y-1.7552
X4.9305Y-1.9797
X4.94Y-2.0891
X4.9469Y-1.6557
X4.9646Y-1.757
X4.9839Y-1.6613
X4.9903Y-1.9811
X4.9907Y-1.7553
X5.0161Y-1.8839
X5.0163Y-1.8248
X5.0165Y-1.9653
X5.0728Y-2.1043
X5.0794Y-2.0377
X5.0907Y-2.0049
X5.1626Y-2.046
X5.2584Y-1.8934
X5.4216Y-1.9639
T3
X4.7756Y-2.628
X4.7756Y-2.728
X5.0756Y-2.628
X5.0756Y-2.728
X4.8555Y-2.3449
X5.0476Y-2.3449
T4
X4.4433Y-1.2657
X4.4433Y-1.3657
X4.4433Y-1.4657
X4.4433Y-1.5657
X4.4433Y-1.6657
X4.4433Y-1.7657
X4.4433Y-1.8657
X4.4433Y-1.9657
X4.4433Y-2.0657
X4.4433Y-2.1657
X4.4433Y-2.2657
X4.4433Y-2.3657
X4.4433Y-2.4657
X4.4433Y-2.5657
X4.4433Y-2.6657
X4.4433Y-2.7657
X4.5433Y-1.2657
X4.5433Y-1.3657
X4.5433Y-1.4657
X4.5433Y-1.5657
X4.5433Y-1.6657
X4.5433Y-1.7657
X4.5433Y-1.8657
X4.5433Y-1.9657
X4.5433Y-2.0657
X4.5433Y-2.1657
X4.5433Y-2.2657
X4.5433Y-2.3657
X4.5433Y-2.4657
X4.5433Y-2.5657
X4.5433Y-2.6657
X4.5433Y-2.7657
T5
X5.2933Y-2.5906
X5.2933Y-2.7677
X5.5492Y-2.5906
X5.5492Y-2.7677
T2
G00X5.5047Y-1.2315
M15
G01X5.4614Y-1.2315
M16
G05
G00X5.5047Y-1.5717
M15
G01X5.4614Y-1.5717
M16
G05
G00X5.663Y-1.2315
M15
G01X5.6315Y-1.2315
M16
G05
G00X5.663Y-1.5717
M15
G01X5.6315Y-1.5717
M16
G05
G00X5.5047Y-1.6882
M15
G01X5.4614Y-1.6882
M16
G05
G00X5.5047Y-2.0283
M15
G01X5.4614Y-2.0283
M16
G05
G00X5.663Y-1.6882
M15
G01X5.6315Y-1.6882
M16
G05
G00X5.663Y-2.0283
M15
G01X5.6315Y-2.0283
M16
G05
T0
M30
