G04 #@! TF.GenerationSoftware,KiCad,Pcbnew,5.1.8+dfsg1-1~bpo10+1*
G04 #@! TF.CreationDate,2020-11-15T21:14:17+08:00*
G04 #@! TF.ProjectId,stm32-io-extend,73746d33-322d-4696-9f2d-657874656e64,rev?*
G04 #@! TF.SameCoordinates,Original*
G04 #@! TF.FileFunction,Legend,Top*
G04 #@! TF.FilePolarity,Positive*
%FSLAX46Y46*%
G04 Gerber Fmt 4.6, Leading zero omitted, Abs format (unit mm)*
G04 Created by KiCad (PCBNEW 5.1.8+dfsg1-1~bpo10+1) date 2020-11-15 21:14:17*
%MOMM*%
%LPD*%
G01*
G04 APERTURE LIST*
%ADD10C,0.120000*%
%ADD11C,0.150000*%
G04 APERTURE END LIST*
D10*
G04 #@! TO.C,C1*
X120110000Y-42740580D02*
X120110000Y-42459420D01*
X119090000Y-42740580D02*
X119090000Y-42459420D01*
G04 #@! TO.C,C2*
X127940000Y-54959420D02*
X127940000Y-55240580D01*
X128960000Y-54959420D02*
X128960000Y-55240580D01*
G04 #@! TO.C,C3*
X129884420Y-42310000D02*
X130165580Y-42310000D01*
X129884420Y-41290000D02*
X130165580Y-41290000D01*
G04 #@! TO.C,C4*
X130710000Y-54959420D02*
X130710000Y-55240580D01*
X129690000Y-54959420D02*
X129690000Y-55240580D01*
G04 #@! TO.C,C5*
X122190000Y-55240580D02*
X122190000Y-54959420D01*
X123210000Y-55240580D02*
X123210000Y-54959420D01*
G04 #@! TO.C,C6*
X120490000Y-34859420D02*
X120490000Y-35140580D01*
X121510000Y-34859420D02*
X121510000Y-35140580D01*
G04 #@! TO.C,C7*
X121460000Y-55240580D02*
X121460000Y-54959420D01*
X120440000Y-55240580D02*
X120440000Y-54959420D01*
G04 #@! TO.C,C8*
X119710000Y-34859420D02*
X119710000Y-35140580D01*
X118690000Y-34859420D02*
X118690000Y-35140580D01*
G04 #@! TO.C,C9*
X137740580Y-56310000D02*
X137459420Y-56310000D01*
X137740580Y-55290000D02*
X137459420Y-55290000D01*
G04 #@! TO.C,C10*
X129884420Y-39490000D02*
X130165580Y-39490000D01*
X129884420Y-40510000D02*
X130165580Y-40510000D01*
G04 #@! TO.C,C11*
X143190000Y-69909420D02*
X143190000Y-70190580D01*
X144210000Y-69909420D02*
X144210000Y-70190580D01*
G04 #@! TO.C,C12*
X129110000Y-34859420D02*
X129110000Y-35140580D01*
X128090000Y-34859420D02*
X128090000Y-35140580D01*
G04 #@! TO.C,C13*
X119260000Y-58390580D02*
X119260000Y-58109420D01*
X118240000Y-58390580D02*
X118240000Y-58109420D01*
G04 #@! TO.C,C14*
X132240000Y-58390580D02*
X132240000Y-58109420D01*
X133260000Y-58390580D02*
X133260000Y-58109420D01*
G04 #@! TO.C,D1*
X132500000Y-30350000D02*
X135050000Y-30350000D01*
X132500000Y-32050000D02*
X135050000Y-32050000D01*
X132500000Y-30350000D02*
X132500000Y-32050000D01*
G04 #@! TO.C,D2*
X123685000Y-30265000D02*
X121400000Y-30265000D01*
X123685000Y-31735000D02*
X123685000Y-30265000D01*
X121400000Y-31735000D02*
X123685000Y-31735000D01*
G04 #@! TO.C,F1*
X129941422Y-31910000D02*
X130458578Y-31910000D01*
X129941422Y-30490000D02*
X130458578Y-30490000D01*
G04 #@! TO.C,J1*
X140530000Y-40070000D02*
X142330000Y-40070000D01*
X146040000Y-40070000D02*
X144580000Y-40070000D01*
X146040000Y-31130000D02*
X144580000Y-31130000D01*
X140530000Y-31130000D02*
X142330000Y-31130000D01*
X146040000Y-31130000D02*
X146040000Y-40070000D01*
G04 #@! TO.C,J2*
X146040000Y-42730000D02*
X146040000Y-51670000D01*
X140530000Y-42730000D02*
X142330000Y-42730000D01*
X146040000Y-42730000D02*
X144580000Y-42730000D01*
X146040000Y-51670000D02*
X144580000Y-51670000D01*
X140530000Y-51670000D02*
X142330000Y-51670000D01*
G04 #@! TO.C,J3*
X115400000Y-30820000D02*
X116730000Y-30820000D01*
X116730000Y-30820000D02*
X116730000Y-32150000D01*
X114130000Y-30820000D02*
X114130000Y-33420000D01*
X114130000Y-33420000D02*
X116730000Y-33420000D01*
X116730000Y-33420000D02*
X116730000Y-71580000D01*
X111530000Y-71580000D02*
X116730000Y-71580000D01*
X111530000Y-30820000D02*
X111530000Y-71580000D01*
X111530000Y-30820000D02*
X114130000Y-30820000D01*
G04 #@! TO.C,R1*
X118427500Y-70287258D02*
X118427500Y-69812742D01*
X119472500Y-70287258D02*
X119472500Y-69812742D01*
G04 #@! TO.C,R2*
X119472500Y-66037258D02*
X119472500Y-65562742D01*
X118427500Y-66037258D02*
X118427500Y-65562742D01*
G04 #@! TO.C,R3*
X126837258Y-30477500D02*
X126362742Y-30477500D01*
X126837258Y-31522500D02*
X126362742Y-31522500D01*
G04 #@! TO.C,R4*
X134962742Y-37522500D02*
X135437258Y-37522500D01*
X134962742Y-36477500D02*
X135437258Y-36477500D01*
G04 #@! TO.C,R5*
X142077500Y-54637258D02*
X142077500Y-54162742D01*
X143122500Y-54637258D02*
X143122500Y-54162742D01*
G04 #@! TO.C,R6*
X141122500Y-54637258D02*
X141122500Y-54162742D01*
X140077500Y-54637258D02*
X140077500Y-54162742D01*
G04 #@! TO.C,R7*
X134962742Y-34277500D02*
X135437258Y-34277500D01*
X134962742Y-35322500D02*
X135437258Y-35322500D01*
G04 #@! TO.C,R8*
X131722500Y-70287258D02*
X131722500Y-69812742D01*
X130677500Y-70287258D02*
X130677500Y-69812742D01*
G04 #@! TO.C,R9*
X143177500Y-65562742D02*
X143177500Y-66037258D01*
X144222500Y-65562742D02*
X144222500Y-66037258D01*
G04 #@! TO.C,R10*
X131722500Y-65562742D02*
X131722500Y-66037258D01*
X130677500Y-65562742D02*
X130677500Y-66037258D01*
G04 #@! TO.C,R11*
X135437258Y-43877500D02*
X134962742Y-43877500D01*
X135437258Y-44922500D02*
X134962742Y-44922500D01*
G04 #@! TO.C,R12*
X134962742Y-46077500D02*
X135437258Y-46077500D01*
X134962742Y-47122500D02*
X135437258Y-47122500D01*
G04 #@! TO.C,R13*
X123637258Y-40522500D02*
X123162742Y-40522500D01*
X123637258Y-39477500D02*
X123162742Y-39477500D01*
G04 #@! TO.C,R14*
X135437258Y-51322500D02*
X134962742Y-51322500D01*
X135437258Y-50277500D02*
X134962742Y-50277500D01*
G04 #@! TO.C,R15*
X134962742Y-49122500D02*
X135437258Y-49122500D01*
X134962742Y-48077500D02*
X135437258Y-48077500D01*
G04 #@! TO.C,SW1*
X124506667Y-68655000D02*
X124506667Y-69925000D01*
X123300000Y-69855000D02*
X124506667Y-69855000D01*
X123300000Y-69735000D02*
X124506667Y-69735000D01*
X123300000Y-69615000D02*
X124506667Y-69615000D01*
X123300000Y-69495000D02*
X124506667Y-69495000D01*
X123300000Y-69375000D02*
X124506667Y-69375000D01*
X123300000Y-69255000D02*
X124506667Y-69255000D01*
X123300000Y-69135000D02*
X124506667Y-69135000D01*
X123300000Y-69015000D02*
X124506667Y-69015000D01*
X123300000Y-68895000D02*
X124506667Y-68895000D01*
X123300000Y-68775000D02*
X124506667Y-68775000D01*
X126920000Y-68655000D02*
X123300000Y-68655000D01*
X126920000Y-69925000D02*
X126920000Y-68655000D01*
X123300000Y-69925000D02*
X126920000Y-69925000D01*
X123300000Y-68655000D02*
X123300000Y-69925000D01*
X124506667Y-66115000D02*
X124506667Y-67385000D01*
X123300000Y-67315000D02*
X124506667Y-67315000D01*
X123300000Y-67195000D02*
X124506667Y-67195000D01*
X123300000Y-67075000D02*
X124506667Y-67075000D01*
X123300000Y-66955000D02*
X124506667Y-66955000D01*
X123300000Y-66835000D02*
X124506667Y-66835000D01*
X123300000Y-66715000D02*
X124506667Y-66715000D01*
X123300000Y-66595000D02*
X124506667Y-66595000D01*
X123300000Y-66475000D02*
X124506667Y-66475000D01*
X123300000Y-66355000D02*
X124506667Y-66355000D01*
X123300000Y-66235000D02*
X124506667Y-66235000D01*
X126920000Y-66115000D02*
X123300000Y-66115000D01*
X126920000Y-67385000D02*
X126920000Y-66115000D01*
X123300000Y-67385000D02*
X126920000Y-67385000D01*
X123300000Y-66115000D02*
X123300000Y-67385000D01*
X121460000Y-64400000D02*
X121460000Y-65710000D01*
X121460000Y-64400000D02*
X122843000Y-64400000D01*
X128521000Y-67740000D02*
X128521000Y-68301000D01*
X128521000Y-64640000D02*
X128521000Y-65760000D01*
X128521000Y-70280000D02*
X128521000Y-71400000D01*
X121700000Y-70280000D02*
X121700000Y-71400000D01*
X121700000Y-67790000D02*
X121700000Y-68301000D01*
X121700000Y-64640000D02*
X121700000Y-65710000D01*
X121700000Y-71400000D02*
X128521000Y-71400000D01*
X121700000Y-64640000D02*
X128521000Y-64640000D01*
G04 #@! TO.C,SW2*
X141200000Y-68800000D02*
X141200000Y-67300000D01*
X139950000Y-64800000D02*
X135450000Y-64800000D01*
X134200000Y-67300000D02*
X134200000Y-68800000D01*
X135450000Y-71300000D02*
X139950000Y-71300000D01*
G04 #@! TO.C,U1*
X122440000Y-34940000D02*
X122670000Y-34940000D01*
X127160000Y-34940000D02*
X126930000Y-34940000D01*
X127160000Y-34940000D02*
X127160000Y-37660000D01*
X127160000Y-37660000D02*
X125850000Y-37660000D01*
X126930000Y-33800000D02*
X126930000Y-34940000D01*
X122440000Y-37660000D02*
X122440000Y-34940000D01*
X123750000Y-37660000D02*
X122440000Y-37660000D01*
G04 #@! TO.C,U2*
X141000000Y-62160000D02*
X144450000Y-62160000D01*
X141000000Y-62160000D02*
X139050000Y-62160000D01*
X141000000Y-57040000D02*
X142950000Y-57040000D01*
X141000000Y-57040000D02*
X139050000Y-57040000D01*
G04 #@! TO.C,U3*
X121240000Y-51210000D02*
X121240000Y-52500000D01*
X120790000Y-51210000D02*
X121240000Y-51210000D01*
X120790000Y-50760000D02*
X120790000Y-51210000D01*
X120790000Y-43990000D02*
X121240000Y-43990000D01*
X120790000Y-44440000D02*
X120790000Y-43990000D01*
X128010000Y-51210000D02*
X127560000Y-51210000D01*
X128010000Y-50760000D02*
X128010000Y-51210000D01*
X128010000Y-43990000D02*
X127560000Y-43990000D01*
X128010000Y-44440000D02*
X128010000Y-43990000D01*
G04 #@! TO.C,Y1*
X122645000Y-62085000D02*
X128895000Y-62085000D01*
X122645000Y-57035000D02*
X128895000Y-57035000D01*
X122645000Y-62085000D02*
G75*
G02*
X122645000Y-57035000I0J2525000D01*
G01*
X128895000Y-62085000D02*
G75*
G03*
X128895000Y-57035000I0J2525000D01*
G01*
G04 #@! TO.C,C1*
D11*
X119433333Y-40757142D02*
X119385714Y-40804761D01*
X119242857Y-40852380D01*
X119147619Y-40852380D01*
X119004761Y-40804761D01*
X118909523Y-40709523D01*
X118861904Y-40614285D01*
X118814285Y-40423809D01*
X118814285Y-40280952D01*
X118861904Y-40090476D01*
X118909523Y-39995238D01*
X119004761Y-39900000D01*
X119147619Y-39852380D01*
X119242857Y-39852380D01*
X119385714Y-39900000D01*
X119433333Y-39947619D01*
X120385714Y-40852380D02*
X119814285Y-40852380D01*
X120100000Y-40852380D02*
X120100000Y-39852380D01*
X120004761Y-39995238D01*
X119909523Y-40090476D01*
X119814285Y-40138095D01*
G04 #@! TO.C,C2*
X126533333Y-54607142D02*
X126485714Y-54654761D01*
X126342857Y-54702380D01*
X126247619Y-54702380D01*
X126104761Y-54654761D01*
X126009523Y-54559523D01*
X125961904Y-54464285D01*
X125914285Y-54273809D01*
X125914285Y-54130952D01*
X125961904Y-53940476D01*
X126009523Y-53845238D01*
X126104761Y-53750000D01*
X126247619Y-53702380D01*
X126342857Y-53702380D01*
X126485714Y-53750000D01*
X126533333Y-53797619D01*
X126914285Y-53797619D02*
X126961904Y-53750000D01*
X127057142Y-53702380D01*
X127295238Y-53702380D01*
X127390476Y-53750000D01*
X127438095Y-53797619D01*
X127485714Y-53892857D01*
X127485714Y-53988095D01*
X127438095Y-54130952D01*
X126866666Y-54702380D01*
X127485714Y-54702380D01*
G04 #@! TO.C,C3*
X132458333Y-42157142D02*
X132410714Y-42204761D01*
X132267857Y-42252380D01*
X132172619Y-42252380D01*
X132029761Y-42204761D01*
X131934523Y-42109523D01*
X131886904Y-42014285D01*
X131839285Y-41823809D01*
X131839285Y-41680952D01*
X131886904Y-41490476D01*
X131934523Y-41395238D01*
X132029761Y-41300000D01*
X132172619Y-41252380D01*
X132267857Y-41252380D01*
X132410714Y-41300000D01*
X132458333Y-41347619D01*
X132791666Y-41252380D02*
X133410714Y-41252380D01*
X133077380Y-41633333D01*
X133220238Y-41633333D01*
X133315476Y-41680952D01*
X133363095Y-41728571D01*
X133410714Y-41823809D01*
X133410714Y-42061904D01*
X133363095Y-42157142D01*
X133315476Y-42204761D01*
X133220238Y-42252380D01*
X132934523Y-42252380D01*
X132839285Y-42204761D01*
X132791666Y-42157142D01*
G04 #@! TO.C,C4*
X131783333Y-54607142D02*
X131735714Y-54654761D01*
X131592857Y-54702380D01*
X131497619Y-54702380D01*
X131354761Y-54654761D01*
X131259523Y-54559523D01*
X131211904Y-54464285D01*
X131164285Y-54273809D01*
X131164285Y-54130952D01*
X131211904Y-53940476D01*
X131259523Y-53845238D01*
X131354761Y-53750000D01*
X131497619Y-53702380D01*
X131592857Y-53702380D01*
X131735714Y-53750000D01*
X131783333Y-53797619D01*
X132640476Y-54035714D02*
X132640476Y-54702380D01*
X132402380Y-53654761D02*
X132164285Y-54369047D01*
X132783333Y-54369047D01*
G04 #@! TO.C,C5*
X124233333Y-54557142D02*
X124185714Y-54604761D01*
X124042857Y-54652380D01*
X123947619Y-54652380D01*
X123804761Y-54604761D01*
X123709523Y-54509523D01*
X123661904Y-54414285D01*
X123614285Y-54223809D01*
X123614285Y-54080952D01*
X123661904Y-53890476D01*
X123709523Y-53795238D01*
X123804761Y-53700000D01*
X123947619Y-53652380D01*
X124042857Y-53652380D01*
X124185714Y-53700000D01*
X124233333Y-53747619D01*
X125138095Y-53652380D02*
X124661904Y-53652380D01*
X124614285Y-54128571D01*
X124661904Y-54080952D01*
X124757142Y-54033333D01*
X124995238Y-54033333D01*
X125090476Y-54080952D01*
X125138095Y-54128571D01*
X125185714Y-54223809D01*
X125185714Y-54461904D01*
X125138095Y-54557142D01*
X125090476Y-54604761D01*
X124995238Y-54652380D01*
X124757142Y-54652380D01*
X124661904Y-54604761D01*
X124614285Y-54557142D01*
G04 #@! TO.C,C6*
X120833333Y-37757142D02*
X120785714Y-37804761D01*
X120642857Y-37852380D01*
X120547619Y-37852380D01*
X120404761Y-37804761D01*
X120309523Y-37709523D01*
X120261904Y-37614285D01*
X120214285Y-37423809D01*
X120214285Y-37280952D01*
X120261904Y-37090476D01*
X120309523Y-36995238D01*
X120404761Y-36900000D01*
X120547619Y-36852380D01*
X120642857Y-36852380D01*
X120785714Y-36900000D01*
X120833333Y-36947619D01*
X121690476Y-36852380D02*
X121500000Y-36852380D01*
X121404761Y-36900000D01*
X121357142Y-36947619D01*
X121261904Y-37090476D01*
X121214285Y-37280952D01*
X121214285Y-37661904D01*
X121261904Y-37757142D01*
X121309523Y-37804761D01*
X121404761Y-37852380D01*
X121595238Y-37852380D01*
X121690476Y-37804761D01*
X121738095Y-37757142D01*
X121785714Y-37661904D01*
X121785714Y-37423809D01*
X121738095Y-37328571D01*
X121690476Y-37280952D01*
X121595238Y-37233333D01*
X121404761Y-37233333D01*
X121309523Y-37280952D01*
X121261904Y-37328571D01*
X121214285Y-37423809D01*
G04 #@! TO.C,C7*
X119033333Y-54557142D02*
X118985714Y-54604761D01*
X118842857Y-54652380D01*
X118747619Y-54652380D01*
X118604761Y-54604761D01*
X118509523Y-54509523D01*
X118461904Y-54414285D01*
X118414285Y-54223809D01*
X118414285Y-54080952D01*
X118461904Y-53890476D01*
X118509523Y-53795238D01*
X118604761Y-53700000D01*
X118747619Y-53652380D01*
X118842857Y-53652380D01*
X118985714Y-53700000D01*
X119033333Y-53747619D01*
X119366666Y-53652380D02*
X120033333Y-53652380D01*
X119604761Y-54652380D01*
G04 #@! TO.C,C8*
X119033333Y-37757142D02*
X118985714Y-37804761D01*
X118842857Y-37852380D01*
X118747619Y-37852380D01*
X118604761Y-37804761D01*
X118509523Y-37709523D01*
X118461904Y-37614285D01*
X118414285Y-37423809D01*
X118414285Y-37280952D01*
X118461904Y-37090476D01*
X118509523Y-36995238D01*
X118604761Y-36900000D01*
X118747619Y-36852380D01*
X118842857Y-36852380D01*
X118985714Y-36900000D01*
X119033333Y-36947619D01*
X119604761Y-37280952D02*
X119509523Y-37233333D01*
X119461904Y-37185714D01*
X119414285Y-37090476D01*
X119414285Y-37042857D01*
X119461904Y-36947619D01*
X119509523Y-36900000D01*
X119604761Y-36852380D01*
X119795238Y-36852380D01*
X119890476Y-36900000D01*
X119938095Y-36947619D01*
X119985714Y-37042857D01*
X119985714Y-37090476D01*
X119938095Y-37185714D01*
X119890476Y-37233333D01*
X119795238Y-37280952D01*
X119604761Y-37280952D01*
X119509523Y-37328571D01*
X119461904Y-37376190D01*
X119414285Y-37471428D01*
X119414285Y-37661904D01*
X119461904Y-37757142D01*
X119509523Y-37804761D01*
X119604761Y-37852380D01*
X119795238Y-37852380D01*
X119890476Y-37804761D01*
X119938095Y-37757142D01*
X119985714Y-37661904D01*
X119985714Y-37471428D01*
X119938095Y-37376190D01*
X119890476Y-37328571D01*
X119795238Y-37280952D01*
G04 #@! TO.C,C9*
X136633333Y-54757142D02*
X136585714Y-54804761D01*
X136442857Y-54852380D01*
X136347619Y-54852380D01*
X136204761Y-54804761D01*
X136109523Y-54709523D01*
X136061904Y-54614285D01*
X136014285Y-54423809D01*
X136014285Y-54280952D01*
X136061904Y-54090476D01*
X136109523Y-53995238D01*
X136204761Y-53900000D01*
X136347619Y-53852380D01*
X136442857Y-53852380D01*
X136585714Y-53900000D01*
X136633333Y-53947619D01*
X137109523Y-54852380D02*
X137300000Y-54852380D01*
X137395238Y-54804761D01*
X137442857Y-54757142D01*
X137538095Y-54614285D01*
X137585714Y-54423809D01*
X137585714Y-54042857D01*
X137538095Y-53947619D01*
X137490476Y-53900000D01*
X137395238Y-53852380D01*
X137204761Y-53852380D01*
X137109523Y-53900000D01*
X137061904Y-53947619D01*
X137014285Y-54042857D01*
X137014285Y-54280952D01*
X137061904Y-54376190D01*
X137109523Y-54423809D01*
X137204761Y-54471428D01*
X137395238Y-54471428D01*
X137490476Y-54423809D01*
X137538095Y-54376190D01*
X137585714Y-54280952D01*
G04 #@! TO.C,C10*
X132357142Y-40357142D02*
X132309523Y-40404761D01*
X132166666Y-40452380D01*
X132071428Y-40452380D01*
X131928571Y-40404761D01*
X131833333Y-40309523D01*
X131785714Y-40214285D01*
X131738095Y-40023809D01*
X131738095Y-39880952D01*
X131785714Y-39690476D01*
X131833333Y-39595238D01*
X131928571Y-39500000D01*
X132071428Y-39452380D01*
X132166666Y-39452380D01*
X132309523Y-39500000D01*
X132357142Y-39547619D01*
X133309523Y-40452380D02*
X132738095Y-40452380D01*
X133023809Y-40452380D02*
X133023809Y-39452380D01*
X132928571Y-39595238D01*
X132833333Y-39690476D01*
X132738095Y-39738095D01*
X133928571Y-39452380D02*
X134023809Y-39452380D01*
X134119047Y-39500000D01*
X134166666Y-39547619D01*
X134214285Y-39642857D01*
X134261904Y-39833333D01*
X134261904Y-40071428D01*
X134214285Y-40261904D01*
X134166666Y-40357142D01*
X134119047Y-40404761D01*
X134023809Y-40452380D01*
X133928571Y-40452380D01*
X133833333Y-40404761D01*
X133785714Y-40357142D01*
X133738095Y-40261904D01*
X133690476Y-40071428D01*
X133690476Y-39833333D01*
X133738095Y-39642857D01*
X133785714Y-39547619D01*
X133833333Y-39500000D01*
X133928571Y-39452380D01*
G04 #@! TO.C,C11*
X143557142Y-68357142D02*
X143509523Y-68404761D01*
X143366666Y-68452380D01*
X143271428Y-68452380D01*
X143128571Y-68404761D01*
X143033333Y-68309523D01*
X142985714Y-68214285D01*
X142938095Y-68023809D01*
X142938095Y-67880952D01*
X142985714Y-67690476D01*
X143033333Y-67595238D01*
X143128571Y-67500000D01*
X143271428Y-67452380D01*
X143366666Y-67452380D01*
X143509523Y-67500000D01*
X143557142Y-67547619D01*
X144509523Y-68452380D02*
X143938095Y-68452380D01*
X144223809Y-68452380D02*
X144223809Y-67452380D01*
X144128571Y-67595238D01*
X144033333Y-67690476D01*
X143938095Y-67738095D01*
X145461904Y-68452380D02*
X144890476Y-68452380D01*
X145176190Y-68452380D02*
X145176190Y-67452380D01*
X145080952Y-67595238D01*
X144985714Y-67690476D01*
X144890476Y-67738095D01*
G04 #@! TO.C,C12*
X128157142Y-37557142D02*
X128109523Y-37604761D01*
X127966666Y-37652380D01*
X127871428Y-37652380D01*
X127728571Y-37604761D01*
X127633333Y-37509523D01*
X127585714Y-37414285D01*
X127538095Y-37223809D01*
X127538095Y-37080952D01*
X127585714Y-36890476D01*
X127633333Y-36795238D01*
X127728571Y-36700000D01*
X127871428Y-36652380D01*
X127966666Y-36652380D01*
X128109523Y-36700000D01*
X128157142Y-36747619D01*
X129109523Y-37652380D02*
X128538095Y-37652380D01*
X128823809Y-37652380D02*
X128823809Y-36652380D01*
X128728571Y-36795238D01*
X128633333Y-36890476D01*
X128538095Y-36938095D01*
X129490476Y-36747619D02*
X129538095Y-36700000D01*
X129633333Y-36652380D01*
X129871428Y-36652380D01*
X129966666Y-36700000D01*
X130014285Y-36747619D01*
X130061904Y-36842857D01*
X130061904Y-36938095D01*
X130014285Y-37080952D01*
X129442857Y-37652380D01*
X130061904Y-37652380D01*
G04 #@! TO.C,C13*
X118107142Y-56357142D02*
X118059523Y-56404761D01*
X117916666Y-56452380D01*
X117821428Y-56452380D01*
X117678571Y-56404761D01*
X117583333Y-56309523D01*
X117535714Y-56214285D01*
X117488095Y-56023809D01*
X117488095Y-55880952D01*
X117535714Y-55690476D01*
X117583333Y-55595238D01*
X117678571Y-55500000D01*
X117821428Y-55452380D01*
X117916666Y-55452380D01*
X118059523Y-55500000D01*
X118107142Y-55547619D01*
X119059523Y-56452380D02*
X118488095Y-56452380D01*
X118773809Y-56452380D02*
X118773809Y-55452380D01*
X118678571Y-55595238D01*
X118583333Y-55690476D01*
X118488095Y-55738095D01*
X119392857Y-55452380D02*
X120011904Y-55452380D01*
X119678571Y-55833333D01*
X119821428Y-55833333D01*
X119916666Y-55880952D01*
X119964285Y-55928571D01*
X120011904Y-56023809D01*
X120011904Y-56261904D01*
X119964285Y-56357142D01*
X119916666Y-56404761D01*
X119821428Y-56452380D01*
X119535714Y-56452380D01*
X119440476Y-56404761D01*
X119392857Y-56357142D01*
G04 #@! TO.C,C14*
X131857142Y-56357142D02*
X131809523Y-56404761D01*
X131666666Y-56452380D01*
X131571428Y-56452380D01*
X131428571Y-56404761D01*
X131333333Y-56309523D01*
X131285714Y-56214285D01*
X131238095Y-56023809D01*
X131238095Y-55880952D01*
X131285714Y-55690476D01*
X131333333Y-55595238D01*
X131428571Y-55500000D01*
X131571428Y-55452380D01*
X131666666Y-55452380D01*
X131809523Y-55500000D01*
X131857142Y-55547619D01*
X132809523Y-56452380D02*
X132238095Y-56452380D01*
X132523809Y-56452380D02*
X132523809Y-55452380D01*
X132428571Y-55595238D01*
X132333333Y-55690476D01*
X132238095Y-55738095D01*
X133666666Y-55785714D02*
X133666666Y-56452380D01*
X133428571Y-55404761D02*
X133190476Y-56119047D01*
X133809523Y-56119047D01*
G04 #@! TO.C,D1*
X133061904Y-33452380D02*
X133061904Y-32452380D01*
X133300000Y-32452380D01*
X133442857Y-32500000D01*
X133538095Y-32595238D01*
X133585714Y-32690476D01*
X133633333Y-32880952D01*
X133633333Y-33023809D01*
X133585714Y-33214285D01*
X133538095Y-33309523D01*
X133442857Y-33404761D01*
X133300000Y-33452380D01*
X133061904Y-33452380D01*
X134585714Y-33452380D02*
X134014285Y-33452380D01*
X134300000Y-33452380D02*
X134300000Y-32452380D01*
X134204761Y-32595238D01*
X134109523Y-32690476D01*
X134014285Y-32738095D01*
G04 #@! TO.C,D2*
X121461904Y-33052380D02*
X121461904Y-32052380D01*
X121700000Y-32052380D01*
X121842857Y-32100000D01*
X121938095Y-32195238D01*
X121985714Y-32290476D01*
X122033333Y-32480952D01*
X122033333Y-32623809D01*
X121985714Y-32814285D01*
X121938095Y-32909523D01*
X121842857Y-33004761D01*
X121700000Y-33052380D01*
X121461904Y-33052380D01*
X122414285Y-32147619D02*
X122461904Y-32100000D01*
X122557142Y-32052380D01*
X122795238Y-32052380D01*
X122890476Y-32100000D01*
X122938095Y-32147619D01*
X122985714Y-32242857D01*
X122985714Y-32338095D01*
X122938095Y-32480952D01*
X122366666Y-33052380D01*
X122985714Y-33052380D01*
G04 #@! TO.C,F1*
X129866666Y-32928571D02*
X129533333Y-32928571D01*
X129533333Y-33452380D02*
X129533333Y-32452380D01*
X130009523Y-32452380D01*
X130914285Y-33452380D02*
X130342857Y-33452380D01*
X130628571Y-33452380D02*
X130628571Y-32452380D01*
X130533333Y-32595238D01*
X130438095Y-32690476D01*
X130342857Y-32738095D01*
G04 #@! TO.C,J1*
X136366666Y-30302380D02*
X136366666Y-31016666D01*
X136319047Y-31159523D01*
X136223809Y-31254761D01*
X136080952Y-31302380D01*
X135985714Y-31302380D01*
X137366666Y-31302380D02*
X136795238Y-31302380D01*
X137080952Y-31302380D02*
X137080952Y-30302380D01*
X136985714Y-30445238D01*
X136890476Y-30540476D01*
X136795238Y-30588095D01*
G04 #@! TO.C,J2*
X136266666Y-41852380D02*
X136266666Y-42566666D01*
X136219047Y-42709523D01*
X136123809Y-42804761D01*
X135980952Y-42852380D01*
X135885714Y-42852380D01*
X136695238Y-41947619D02*
X136742857Y-41900000D01*
X136838095Y-41852380D01*
X137076190Y-41852380D01*
X137171428Y-41900000D01*
X137219047Y-41947619D01*
X137266666Y-42042857D01*
X137266666Y-42138095D01*
X137219047Y-42280952D01*
X136647619Y-42852380D01*
X137266666Y-42852380D01*
G04 #@! TO.C,J3*
X117866666Y-30252380D02*
X117866666Y-30966666D01*
X117819047Y-31109523D01*
X117723809Y-31204761D01*
X117580952Y-31252380D01*
X117485714Y-31252380D01*
X118247619Y-30252380D02*
X118866666Y-30252380D01*
X118533333Y-30633333D01*
X118676190Y-30633333D01*
X118771428Y-30680952D01*
X118819047Y-30728571D01*
X118866666Y-30823809D01*
X118866666Y-31061904D01*
X118819047Y-31157142D01*
X118771428Y-31204761D01*
X118676190Y-31252380D01*
X118390476Y-31252380D01*
X118295238Y-31204761D01*
X118247619Y-31157142D01*
G04 #@! TO.C,R1*
X118783333Y-68502380D02*
X118450000Y-68026190D01*
X118211904Y-68502380D02*
X118211904Y-67502380D01*
X118592857Y-67502380D01*
X118688095Y-67550000D01*
X118735714Y-67597619D01*
X118783333Y-67692857D01*
X118783333Y-67835714D01*
X118735714Y-67930952D01*
X118688095Y-67978571D01*
X118592857Y-68026190D01*
X118211904Y-68026190D01*
X119735714Y-68502380D02*
X119164285Y-68502380D01*
X119450000Y-68502380D02*
X119450000Y-67502380D01*
X119354761Y-67645238D01*
X119259523Y-67740476D01*
X119164285Y-67788095D01*
G04 #@! TO.C,R2*
X118783333Y-64002380D02*
X118450000Y-63526190D01*
X118211904Y-64002380D02*
X118211904Y-63002380D01*
X118592857Y-63002380D01*
X118688095Y-63050000D01*
X118735714Y-63097619D01*
X118783333Y-63192857D01*
X118783333Y-63335714D01*
X118735714Y-63430952D01*
X118688095Y-63478571D01*
X118592857Y-63526190D01*
X118211904Y-63526190D01*
X119164285Y-63097619D02*
X119211904Y-63050000D01*
X119307142Y-63002380D01*
X119545238Y-63002380D01*
X119640476Y-63050000D01*
X119688095Y-63097619D01*
X119735714Y-63192857D01*
X119735714Y-63288095D01*
X119688095Y-63430952D01*
X119116666Y-64002380D01*
X119735714Y-64002380D01*
G04 #@! TO.C,R3*
X126433333Y-33052380D02*
X126100000Y-32576190D01*
X125861904Y-33052380D02*
X125861904Y-32052380D01*
X126242857Y-32052380D01*
X126338095Y-32100000D01*
X126385714Y-32147619D01*
X126433333Y-32242857D01*
X126433333Y-32385714D01*
X126385714Y-32480952D01*
X126338095Y-32528571D01*
X126242857Y-32576190D01*
X125861904Y-32576190D01*
X126766666Y-32052380D02*
X127385714Y-32052380D01*
X127052380Y-32433333D01*
X127195238Y-32433333D01*
X127290476Y-32480952D01*
X127338095Y-32528571D01*
X127385714Y-32623809D01*
X127385714Y-32861904D01*
X127338095Y-32957142D01*
X127290476Y-33004761D01*
X127195238Y-33052380D01*
X126909523Y-33052380D01*
X126814285Y-33004761D01*
X126766666Y-32957142D01*
G04 #@! TO.C,R4*
X132533333Y-37402380D02*
X132200000Y-36926190D01*
X131961904Y-37402380D02*
X131961904Y-36402380D01*
X132342857Y-36402380D01*
X132438095Y-36450000D01*
X132485714Y-36497619D01*
X132533333Y-36592857D01*
X132533333Y-36735714D01*
X132485714Y-36830952D01*
X132438095Y-36878571D01*
X132342857Y-36926190D01*
X131961904Y-36926190D01*
X133390476Y-36735714D02*
X133390476Y-37402380D01*
X133152380Y-36354761D02*
X132914285Y-37069047D01*
X133533333Y-37069047D01*
G04 #@! TO.C,R5*
X144233333Y-54052380D02*
X143900000Y-53576190D01*
X143661904Y-54052380D02*
X143661904Y-53052380D01*
X144042857Y-53052380D01*
X144138095Y-53100000D01*
X144185714Y-53147619D01*
X144233333Y-53242857D01*
X144233333Y-53385714D01*
X144185714Y-53480952D01*
X144138095Y-53528571D01*
X144042857Y-53576190D01*
X143661904Y-53576190D01*
X145138095Y-53052380D02*
X144661904Y-53052380D01*
X144614285Y-53528571D01*
X144661904Y-53480952D01*
X144757142Y-53433333D01*
X144995238Y-53433333D01*
X145090476Y-53480952D01*
X145138095Y-53528571D01*
X145185714Y-53623809D01*
X145185714Y-53861904D01*
X145138095Y-53957142D01*
X145090476Y-54004761D01*
X144995238Y-54052380D01*
X144757142Y-54052380D01*
X144661904Y-54004761D01*
X144614285Y-53957142D01*
G04 #@! TO.C,R6*
X138633333Y-54052380D02*
X138300000Y-53576190D01*
X138061904Y-54052380D02*
X138061904Y-53052380D01*
X138442857Y-53052380D01*
X138538095Y-53100000D01*
X138585714Y-53147619D01*
X138633333Y-53242857D01*
X138633333Y-53385714D01*
X138585714Y-53480952D01*
X138538095Y-53528571D01*
X138442857Y-53576190D01*
X138061904Y-53576190D01*
X139490476Y-53052380D02*
X139300000Y-53052380D01*
X139204761Y-53100000D01*
X139157142Y-53147619D01*
X139061904Y-53290476D01*
X139014285Y-53480952D01*
X139014285Y-53861904D01*
X139061904Y-53957142D01*
X139109523Y-54004761D01*
X139204761Y-54052380D01*
X139395238Y-54052380D01*
X139490476Y-54004761D01*
X139538095Y-53957142D01*
X139585714Y-53861904D01*
X139585714Y-53623809D01*
X139538095Y-53528571D01*
X139490476Y-53480952D01*
X139395238Y-53433333D01*
X139204761Y-53433333D01*
X139109523Y-53480952D01*
X139061904Y-53528571D01*
X139014285Y-53623809D01*
G04 #@! TO.C,R7*
X132533333Y-35402380D02*
X132200000Y-34926190D01*
X131961904Y-35402380D02*
X131961904Y-34402380D01*
X132342857Y-34402380D01*
X132438095Y-34450000D01*
X132485714Y-34497619D01*
X132533333Y-34592857D01*
X132533333Y-34735714D01*
X132485714Y-34830952D01*
X132438095Y-34878571D01*
X132342857Y-34926190D01*
X131961904Y-34926190D01*
X132866666Y-34402380D02*
X133533333Y-34402380D01*
X133104761Y-35402380D01*
G04 #@! TO.C,R8*
X131033333Y-68502380D02*
X130700000Y-68026190D01*
X130461904Y-68502380D02*
X130461904Y-67502380D01*
X130842857Y-67502380D01*
X130938095Y-67550000D01*
X130985714Y-67597619D01*
X131033333Y-67692857D01*
X131033333Y-67835714D01*
X130985714Y-67930952D01*
X130938095Y-67978571D01*
X130842857Y-68026190D01*
X130461904Y-68026190D01*
X131604761Y-67930952D02*
X131509523Y-67883333D01*
X131461904Y-67835714D01*
X131414285Y-67740476D01*
X131414285Y-67692857D01*
X131461904Y-67597619D01*
X131509523Y-67550000D01*
X131604761Y-67502380D01*
X131795238Y-67502380D01*
X131890476Y-67550000D01*
X131938095Y-67597619D01*
X131985714Y-67692857D01*
X131985714Y-67740476D01*
X131938095Y-67835714D01*
X131890476Y-67883333D01*
X131795238Y-67930952D01*
X131604761Y-67930952D01*
X131509523Y-67978571D01*
X131461904Y-68026190D01*
X131414285Y-68121428D01*
X131414285Y-68311904D01*
X131461904Y-68407142D01*
X131509523Y-68454761D01*
X131604761Y-68502380D01*
X131795238Y-68502380D01*
X131890476Y-68454761D01*
X131938095Y-68407142D01*
X131985714Y-68311904D01*
X131985714Y-68121428D01*
X131938095Y-68026190D01*
X131890476Y-67978571D01*
X131795238Y-67930952D01*
G04 #@! TO.C,R9*
X143533333Y-64002380D02*
X143200000Y-63526190D01*
X142961904Y-64002380D02*
X142961904Y-63002380D01*
X143342857Y-63002380D01*
X143438095Y-63050000D01*
X143485714Y-63097619D01*
X143533333Y-63192857D01*
X143533333Y-63335714D01*
X143485714Y-63430952D01*
X143438095Y-63478571D01*
X143342857Y-63526190D01*
X142961904Y-63526190D01*
X144009523Y-64002380D02*
X144200000Y-64002380D01*
X144295238Y-63954761D01*
X144342857Y-63907142D01*
X144438095Y-63764285D01*
X144485714Y-63573809D01*
X144485714Y-63192857D01*
X144438095Y-63097619D01*
X144390476Y-63050000D01*
X144295238Y-63002380D01*
X144104761Y-63002380D01*
X144009523Y-63050000D01*
X143961904Y-63097619D01*
X143914285Y-63192857D01*
X143914285Y-63430952D01*
X143961904Y-63526190D01*
X144009523Y-63573809D01*
X144104761Y-63621428D01*
X144295238Y-63621428D01*
X144390476Y-63573809D01*
X144438095Y-63526190D01*
X144485714Y-63430952D01*
G04 #@! TO.C,R10*
X130957142Y-64052380D02*
X130623809Y-63576190D01*
X130385714Y-64052380D02*
X130385714Y-63052380D01*
X130766666Y-63052380D01*
X130861904Y-63100000D01*
X130909523Y-63147619D01*
X130957142Y-63242857D01*
X130957142Y-63385714D01*
X130909523Y-63480952D01*
X130861904Y-63528571D01*
X130766666Y-63576190D01*
X130385714Y-63576190D01*
X131909523Y-64052380D02*
X131338095Y-64052380D01*
X131623809Y-64052380D02*
X131623809Y-63052380D01*
X131528571Y-63195238D01*
X131433333Y-63290476D01*
X131338095Y-63338095D01*
X132528571Y-63052380D02*
X132623809Y-63052380D01*
X132719047Y-63100000D01*
X132766666Y-63147619D01*
X132814285Y-63242857D01*
X132861904Y-63433333D01*
X132861904Y-63671428D01*
X132814285Y-63861904D01*
X132766666Y-63957142D01*
X132719047Y-64004761D01*
X132623809Y-64052380D01*
X132528571Y-64052380D01*
X132433333Y-64004761D01*
X132385714Y-63957142D01*
X132338095Y-63861904D01*
X132290476Y-63671428D01*
X132290476Y-63433333D01*
X132338095Y-63242857D01*
X132385714Y-63147619D01*
X132433333Y-63100000D01*
X132528571Y-63052380D01*
G04 #@! TO.C,R11*
X131557142Y-44852380D02*
X131223809Y-44376190D01*
X130985714Y-44852380D02*
X130985714Y-43852380D01*
X131366666Y-43852380D01*
X131461904Y-43900000D01*
X131509523Y-43947619D01*
X131557142Y-44042857D01*
X131557142Y-44185714D01*
X131509523Y-44280952D01*
X131461904Y-44328571D01*
X131366666Y-44376190D01*
X130985714Y-44376190D01*
X132509523Y-44852380D02*
X131938095Y-44852380D01*
X132223809Y-44852380D02*
X132223809Y-43852380D01*
X132128571Y-43995238D01*
X132033333Y-44090476D01*
X131938095Y-44138095D01*
X133461904Y-44852380D02*
X132890476Y-44852380D01*
X133176190Y-44852380D02*
X133176190Y-43852380D01*
X133080952Y-43995238D01*
X132985714Y-44090476D01*
X132890476Y-44138095D01*
G04 #@! TO.C,R12*
X131557142Y-47052380D02*
X131223809Y-46576190D01*
X130985714Y-47052380D02*
X130985714Y-46052380D01*
X131366666Y-46052380D01*
X131461904Y-46100000D01*
X131509523Y-46147619D01*
X131557142Y-46242857D01*
X131557142Y-46385714D01*
X131509523Y-46480952D01*
X131461904Y-46528571D01*
X131366666Y-46576190D01*
X130985714Y-46576190D01*
X132509523Y-47052380D02*
X131938095Y-47052380D01*
X132223809Y-47052380D02*
X132223809Y-46052380D01*
X132128571Y-46195238D01*
X132033333Y-46290476D01*
X131938095Y-46338095D01*
X132890476Y-46147619D02*
X132938095Y-46100000D01*
X133033333Y-46052380D01*
X133271428Y-46052380D01*
X133366666Y-46100000D01*
X133414285Y-46147619D01*
X133461904Y-46242857D01*
X133461904Y-46338095D01*
X133414285Y-46480952D01*
X132842857Y-47052380D01*
X133461904Y-47052380D01*
G04 #@! TO.C,R13*
X125757142Y-40452380D02*
X125423809Y-39976190D01*
X125185714Y-40452380D02*
X125185714Y-39452380D01*
X125566666Y-39452380D01*
X125661904Y-39500000D01*
X125709523Y-39547619D01*
X125757142Y-39642857D01*
X125757142Y-39785714D01*
X125709523Y-39880952D01*
X125661904Y-39928571D01*
X125566666Y-39976190D01*
X125185714Y-39976190D01*
X126709523Y-40452380D02*
X126138095Y-40452380D01*
X126423809Y-40452380D02*
X126423809Y-39452380D01*
X126328571Y-39595238D01*
X126233333Y-39690476D01*
X126138095Y-39738095D01*
X127042857Y-39452380D02*
X127661904Y-39452380D01*
X127328571Y-39833333D01*
X127471428Y-39833333D01*
X127566666Y-39880952D01*
X127614285Y-39928571D01*
X127661904Y-40023809D01*
X127661904Y-40261904D01*
X127614285Y-40357142D01*
X127566666Y-40404761D01*
X127471428Y-40452380D01*
X127185714Y-40452380D01*
X127090476Y-40404761D01*
X127042857Y-40357142D01*
G04 #@! TO.C,R14*
X131357142Y-51252380D02*
X131023809Y-50776190D01*
X130785714Y-51252380D02*
X130785714Y-50252380D01*
X131166666Y-50252380D01*
X131261904Y-50300000D01*
X131309523Y-50347619D01*
X131357142Y-50442857D01*
X131357142Y-50585714D01*
X131309523Y-50680952D01*
X131261904Y-50728571D01*
X131166666Y-50776190D01*
X130785714Y-50776190D01*
X132309523Y-51252380D02*
X131738095Y-51252380D01*
X132023809Y-51252380D02*
X132023809Y-50252380D01*
X131928571Y-50395238D01*
X131833333Y-50490476D01*
X131738095Y-50538095D01*
X133166666Y-50585714D02*
X133166666Y-51252380D01*
X132928571Y-50204761D02*
X132690476Y-50919047D01*
X133309523Y-50919047D01*
G04 #@! TO.C,R15*
X131357142Y-49252380D02*
X131023809Y-48776190D01*
X130785714Y-49252380D02*
X130785714Y-48252380D01*
X131166666Y-48252380D01*
X131261904Y-48300000D01*
X131309523Y-48347619D01*
X131357142Y-48442857D01*
X131357142Y-48585714D01*
X131309523Y-48680952D01*
X131261904Y-48728571D01*
X131166666Y-48776190D01*
X130785714Y-48776190D01*
X132309523Y-49252380D02*
X131738095Y-49252380D01*
X132023809Y-49252380D02*
X132023809Y-48252380D01*
X131928571Y-48395238D01*
X131833333Y-48490476D01*
X131738095Y-48538095D01*
X133214285Y-48252380D02*
X132738095Y-48252380D01*
X132690476Y-48728571D01*
X132738095Y-48680952D01*
X132833333Y-48633333D01*
X133071428Y-48633333D01*
X133166666Y-48680952D01*
X133214285Y-48728571D01*
X133261904Y-48823809D01*
X133261904Y-49061904D01*
X133214285Y-49157142D01*
X133166666Y-49204761D01*
X133071428Y-49252380D01*
X132833333Y-49252380D01*
X132738095Y-49204761D01*
X132690476Y-49157142D01*
G04 #@! TO.C,SW1*
X123776666Y-64044761D02*
X123919523Y-64092380D01*
X124157619Y-64092380D01*
X124252857Y-64044761D01*
X124300476Y-63997142D01*
X124348095Y-63901904D01*
X124348095Y-63806666D01*
X124300476Y-63711428D01*
X124252857Y-63663809D01*
X124157619Y-63616190D01*
X123967142Y-63568571D01*
X123871904Y-63520952D01*
X123824285Y-63473333D01*
X123776666Y-63378095D01*
X123776666Y-63282857D01*
X123824285Y-63187619D01*
X123871904Y-63140000D01*
X123967142Y-63092380D01*
X124205238Y-63092380D01*
X124348095Y-63140000D01*
X124681428Y-63092380D02*
X124919523Y-64092380D01*
X125110000Y-63378095D01*
X125300476Y-64092380D01*
X125538571Y-63092380D01*
X126443333Y-64092380D02*
X125871904Y-64092380D01*
X126157619Y-64092380D02*
X126157619Y-63092380D01*
X126062380Y-63235238D01*
X125967142Y-63330476D01*
X125871904Y-63378095D01*
G04 #@! TO.C,SW2*
X136466666Y-64004761D02*
X136609523Y-64052380D01*
X136847619Y-64052380D01*
X136942857Y-64004761D01*
X136990476Y-63957142D01*
X137038095Y-63861904D01*
X137038095Y-63766666D01*
X136990476Y-63671428D01*
X136942857Y-63623809D01*
X136847619Y-63576190D01*
X136657142Y-63528571D01*
X136561904Y-63480952D01*
X136514285Y-63433333D01*
X136466666Y-63338095D01*
X136466666Y-63242857D01*
X136514285Y-63147619D01*
X136561904Y-63100000D01*
X136657142Y-63052380D01*
X136895238Y-63052380D01*
X137038095Y-63100000D01*
X137371428Y-63052380D02*
X137609523Y-64052380D01*
X137800000Y-63338095D01*
X137990476Y-64052380D01*
X138228571Y-63052380D01*
X138561904Y-63147619D02*
X138609523Y-63100000D01*
X138704761Y-63052380D01*
X138942857Y-63052380D01*
X139038095Y-63100000D01*
X139085714Y-63147619D01*
X139133333Y-63242857D01*
X139133333Y-63338095D01*
X139085714Y-63480952D01*
X138514285Y-64052380D01*
X139133333Y-64052380D01*
G04 #@! TO.C,U1*
X123838095Y-32252380D02*
X123838095Y-33061904D01*
X123885714Y-33157142D01*
X123933333Y-33204761D01*
X124028571Y-33252380D01*
X124219047Y-33252380D01*
X124314285Y-33204761D01*
X124361904Y-33157142D01*
X124409523Y-33061904D01*
X124409523Y-32252380D01*
X125409523Y-33252380D02*
X124838095Y-33252380D01*
X125123809Y-33252380D02*
X125123809Y-32252380D01*
X125028571Y-32395238D01*
X124933333Y-32490476D01*
X124838095Y-32538095D01*
G04 #@! TO.C,U2*
X135238095Y-61252380D02*
X135238095Y-62061904D01*
X135285714Y-62157142D01*
X135333333Y-62204761D01*
X135428571Y-62252380D01*
X135619047Y-62252380D01*
X135714285Y-62204761D01*
X135761904Y-62157142D01*
X135809523Y-62061904D01*
X135809523Y-61252380D01*
X136238095Y-61347619D02*
X136285714Y-61300000D01*
X136380952Y-61252380D01*
X136619047Y-61252380D01*
X136714285Y-61300000D01*
X136761904Y-61347619D01*
X136809523Y-61442857D01*
X136809523Y-61538095D01*
X136761904Y-61680952D01*
X136190476Y-62252380D01*
X136809523Y-62252380D01*
G04 #@! TO.C,U3*
X118838095Y-51452380D02*
X118838095Y-52261904D01*
X118885714Y-52357142D01*
X118933333Y-52404761D01*
X119028571Y-52452380D01*
X119219047Y-52452380D01*
X119314285Y-52404761D01*
X119361904Y-52357142D01*
X119409523Y-52261904D01*
X119409523Y-51452380D01*
X119790476Y-51452380D02*
X120409523Y-51452380D01*
X120076190Y-51833333D01*
X120219047Y-51833333D01*
X120314285Y-51880952D01*
X120361904Y-51928571D01*
X120409523Y-52023809D01*
X120409523Y-52261904D01*
X120361904Y-52357142D01*
X120314285Y-52404761D01*
X120219047Y-52452380D01*
X119933333Y-52452380D01*
X119838095Y-52404761D01*
X119790476Y-52357142D01*
G04 #@! TO.C,Y1*
X125293809Y-56011190D02*
X125293809Y-56487380D01*
X124960476Y-55487380D02*
X125293809Y-56011190D01*
X125627142Y-55487380D01*
X126484285Y-56487380D02*
X125912857Y-56487380D01*
X126198571Y-56487380D02*
X126198571Y-55487380D01*
X126103333Y-55630238D01*
X126008095Y-55725476D01*
X125912857Y-55773095D01*
G04 #@! TD*
M02*
