G04 #@! TF.GenerationSoftware,KiCad,Pcbnew,5.1.8+dfsg1-1~bpo10+1*
G04 #@! TF.CreationDate,2020-11-15T21:14:17+08:00*
G04 #@! TF.ProjectId,stm32-io-extend,73746d33-322d-4696-9f2d-657874656e64,rev?*
G04 #@! TF.SameCoordinates,Original*
G04 #@! TF.FileFunction,Soldermask,Bot*
G04 #@! TF.FilePolarity,Negative*
%FSLAX46Y46*%
G04 Gerber Fmt 4.6, Leading zero omitted, Abs format (unit mm)*
G04 Created by KiCad (PCBNEW 5.1.8+dfsg1-1~bpo10+1) date 2020-11-15 21:14:17*
%MOMM*%
%LPD*%
G01*
G04 APERTURE LIST*
%ADD10O,2.000000X0.900000*%
%ADD11O,1.700000X0.900000*%
%ADD12C,0.600000*%
%ADD13R,1.700000X1.700000*%
%ADD14O,1.700000X1.700000*%
%ADD15R,1.600000X1.600000*%
%ADD16O,1.600000X1.600000*%
%ADD17C,2.000000*%
%ADD18C,1.500000*%
G04 APERTURE END LIST*
D10*
G04 #@! TO.C,J1*
X139270000Y-39920000D03*
X139270000Y-31280000D03*
D11*
X143440000Y-39920000D03*
X143440000Y-31280000D03*
D12*
X139750000Y-32710000D03*
X139750000Y-38490000D03*
G04 #@! TD*
G04 #@! TO.C,J2*
X139750000Y-50090000D03*
X139750000Y-44310000D03*
D11*
X143440000Y-42880000D03*
X143440000Y-51520000D03*
D10*
X139270000Y-42880000D03*
X139270000Y-51520000D03*
G04 #@! TD*
D13*
G04 #@! TO.C,J3*
X115400000Y-32150000D03*
D14*
X112860000Y-32150000D03*
X115400000Y-34690000D03*
X112860000Y-34690000D03*
X115400000Y-37230000D03*
X112860000Y-37230000D03*
X115400000Y-39770000D03*
X112860000Y-39770000D03*
X115400000Y-42310000D03*
X112860000Y-42310000D03*
X115400000Y-44850000D03*
X112860000Y-44850000D03*
X115400000Y-47390000D03*
X112860000Y-47390000D03*
X115400000Y-49930000D03*
X112860000Y-49930000D03*
X115400000Y-52470000D03*
X112860000Y-52470000D03*
X115400000Y-55010000D03*
X112860000Y-55010000D03*
X115400000Y-57550000D03*
X112860000Y-57550000D03*
X115400000Y-60090000D03*
X112860000Y-60090000D03*
X115400000Y-62630000D03*
X112860000Y-62630000D03*
X115400000Y-65170000D03*
X112860000Y-65170000D03*
X115400000Y-67710000D03*
X112860000Y-67710000D03*
X115400000Y-70250000D03*
X112860000Y-70250000D03*
G04 #@! TD*
D15*
G04 #@! TO.C,SW1*
X121300000Y-66750000D03*
D16*
X128920000Y-69290000D03*
X121300000Y-69290000D03*
X128920000Y-66750000D03*
G04 #@! TD*
D17*
G04 #@! TO.C,SW2*
X134450000Y-70300000D03*
X134450000Y-65800000D03*
X140950000Y-70300000D03*
X140950000Y-65800000D03*
G04 #@! TD*
D18*
G04 #@! TO.C,Y1*
X123330000Y-59560000D03*
X128210000Y-59560000D03*
G04 #@! TD*
M02*
