G04 #@! TF.GenerationSoftware,KiCad,Pcbnew,5.1.8+dfsg1-1~bpo10+1*
G04 #@! TF.CreationDate,2020-11-15T21:14:17+08:00*
G04 #@! TF.ProjectId,stm32-io-extend,73746d33-322d-4696-9f2d-657874656e64,rev?*
G04 #@! TF.SameCoordinates,Original*
G04 #@! TF.FileFunction,Copper,L1,Top*
G04 #@! TF.FilePolarity,Positive*
%FSLAX46Y46*%
G04 Gerber Fmt 4.6, Leading zero omitted, Abs format (unit mm)*
G04 Created by KiCad (PCBNEW 5.1.8+dfsg1-1~bpo10+1) date 2020-11-15 21:14:17*
%MOMM*%
%LPD*%
G01*
G04 APERTURE LIST*
G04 #@! TA.AperFunction,SMDPad,CuDef*
%ADD10R,0.600000X0.450000*%
G04 #@! TD*
G04 #@! TA.AperFunction,ComponentPad*
%ADD11O,2.000000X0.900000*%
G04 #@! TD*
G04 #@! TA.AperFunction,ComponentPad*
%ADD12O,1.700000X0.900000*%
G04 #@! TD*
G04 #@! TA.AperFunction,SMDPad,CuDef*
%ADD13R,1.160000X0.300000*%
G04 #@! TD*
G04 #@! TA.AperFunction,SMDPad,CuDef*
%ADD14R,1.160000X0.600000*%
G04 #@! TD*
G04 #@! TA.AperFunction,ComponentPad*
%ADD15R,1.700000X1.700000*%
G04 #@! TD*
G04 #@! TA.AperFunction,ComponentPad*
%ADD16O,1.700000X1.700000*%
G04 #@! TD*
G04 #@! TA.AperFunction,ComponentPad*
%ADD17R,1.600000X1.600000*%
G04 #@! TD*
G04 #@! TA.AperFunction,ComponentPad*
%ADD18O,1.600000X1.600000*%
G04 #@! TD*
G04 #@! TA.AperFunction,ComponentPad*
%ADD19C,2.000000*%
G04 #@! TD*
G04 #@! TA.AperFunction,SMDPad,CuDef*
%ADD20R,0.900000X1.300000*%
G04 #@! TD*
G04 #@! TA.AperFunction,SMDPad,CuDef*
%ADD21C,0.100000*%
G04 #@! TD*
G04 #@! TA.AperFunction,ComponentPad*
%ADD22C,1.500000*%
G04 #@! TD*
G04 #@! TA.AperFunction,ViaPad*
%ADD23C,0.400000*%
G04 #@! TD*
G04 #@! TA.AperFunction,Conductor*
%ADD24C,0.200000*%
G04 #@! TD*
G04 APERTURE END LIST*
G04 #@! TO.P,C1,1*
G04 #@! TO.N,+3V3*
G04 #@! TA.AperFunction,SMDPad,CuDef*
G36*
G01*
X119850000Y-43825000D02*
X119350000Y-43825000D01*
G75*
G02*
X119125000Y-43600000I0J225000D01*
G01*
X119125000Y-43150000D01*
G75*
G02*
X119350000Y-42925000I225000J0D01*
G01*
X119850000Y-42925000D01*
G75*
G02*
X120075000Y-43150000I0J-225000D01*
G01*
X120075000Y-43600000D01*
G75*
G02*
X119850000Y-43825000I-225000J0D01*
G01*
G37*
G04 #@! TD.AperFunction*
G04 #@! TO.P,C1,2*
G04 #@! TO.N,GND*
G04 #@! TA.AperFunction,SMDPad,CuDef*
G36*
G01*
X119850000Y-42275000D02*
X119350000Y-42275000D01*
G75*
G02*
X119125000Y-42050000I0J225000D01*
G01*
X119125000Y-41600000D01*
G75*
G02*
X119350000Y-41375000I225000J0D01*
G01*
X119850000Y-41375000D01*
G75*
G02*
X120075000Y-41600000I0J-225000D01*
G01*
X120075000Y-42050000D01*
G75*
G02*
X119850000Y-42275000I-225000J0D01*
G01*
G37*
G04 #@! TD.AperFunction*
G04 #@! TD*
G04 #@! TO.P,C2,1*
G04 #@! TO.N,+3V3*
G04 #@! TA.AperFunction,SMDPad,CuDef*
G36*
G01*
X128200000Y-53875000D02*
X128700000Y-53875000D01*
G75*
G02*
X128925000Y-54100000I0J-225000D01*
G01*
X128925000Y-54550000D01*
G75*
G02*
X128700000Y-54775000I-225000J0D01*
G01*
X128200000Y-54775000D01*
G75*
G02*
X127975000Y-54550000I0J225000D01*
G01*
X127975000Y-54100000D01*
G75*
G02*
X128200000Y-53875000I225000J0D01*
G01*
G37*
G04 #@! TD.AperFunction*
G04 #@! TO.P,C2,2*
G04 #@! TO.N,GND*
G04 #@! TA.AperFunction,SMDPad,CuDef*
G36*
G01*
X128200000Y-55425000D02*
X128700000Y-55425000D01*
G75*
G02*
X128925000Y-55650000I0J-225000D01*
G01*
X128925000Y-56100000D01*
G75*
G02*
X128700000Y-56325000I-225000J0D01*
G01*
X128200000Y-56325000D01*
G75*
G02*
X127975000Y-56100000I0J225000D01*
G01*
X127975000Y-55650000D01*
G75*
G02*
X128200000Y-55425000I225000J0D01*
G01*
G37*
G04 #@! TD.AperFunction*
G04 #@! TD*
G04 #@! TO.P,C3,1*
G04 #@! TO.N,+3V3*
G04 #@! TA.AperFunction,SMDPad,CuDef*
G36*
G01*
X128800000Y-42050000D02*
X128800000Y-41550000D01*
G75*
G02*
X129025000Y-41325000I225000J0D01*
G01*
X129475000Y-41325000D01*
G75*
G02*
X129700000Y-41550000I0J-225000D01*
G01*
X129700000Y-42050000D01*
G75*
G02*
X129475000Y-42275000I-225000J0D01*
G01*
X129025000Y-42275000D01*
G75*
G02*
X128800000Y-42050000I0J225000D01*
G01*
G37*
G04 #@! TD.AperFunction*
G04 #@! TO.P,C3,2*
G04 #@! TO.N,GND*
G04 #@! TA.AperFunction,SMDPad,CuDef*
G36*
G01*
X130350000Y-42050000D02*
X130350000Y-41550000D01*
G75*
G02*
X130575000Y-41325000I225000J0D01*
G01*
X131025000Y-41325000D01*
G75*
G02*
X131250000Y-41550000I0J-225000D01*
G01*
X131250000Y-42050000D01*
G75*
G02*
X131025000Y-42275000I-225000J0D01*
G01*
X130575000Y-42275000D01*
G75*
G02*
X130350000Y-42050000I0J225000D01*
G01*
G37*
G04 #@! TD.AperFunction*
G04 #@! TD*
G04 #@! TO.P,C4,2*
G04 #@! TO.N,GND*
G04 #@! TA.AperFunction,SMDPad,CuDef*
G36*
G01*
X129950000Y-55425000D02*
X130450000Y-55425000D01*
G75*
G02*
X130675000Y-55650000I0J-225000D01*
G01*
X130675000Y-56100000D01*
G75*
G02*
X130450000Y-56325000I-225000J0D01*
G01*
X129950000Y-56325000D01*
G75*
G02*
X129725000Y-56100000I0J225000D01*
G01*
X129725000Y-55650000D01*
G75*
G02*
X129950000Y-55425000I225000J0D01*
G01*
G37*
G04 #@! TD.AperFunction*
G04 #@! TO.P,C4,1*
G04 #@! TO.N,+3V3*
G04 #@! TA.AperFunction,SMDPad,CuDef*
G36*
G01*
X129950000Y-53875000D02*
X130450000Y-53875000D01*
G75*
G02*
X130675000Y-54100000I0J-225000D01*
G01*
X130675000Y-54550000D01*
G75*
G02*
X130450000Y-54775000I-225000J0D01*
G01*
X129950000Y-54775000D01*
G75*
G02*
X129725000Y-54550000I0J225000D01*
G01*
X129725000Y-54100000D01*
G75*
G02*
X129950000Y-53875000I225000J0D01*
G01*
G37*
G04 #@! TD.AperFunction*
G04 #@! TD*
G04 #@! TO.P,C5,2*
G04 #@! TO.N,GND*
G04 #@! TA.AperFunction,SMDPad,CuDef*
G36*
G01*
X122950000Y-54775000D02*
X122450000Y-54775000D01*
G75*
G02*
X122225000Y-54550000I0J225000D01*
G01*
X122225000Y-54100000D01*
G75*
G02*
X122450000Y-53875000I225000J0D01*
G01*
X122950000Y-53875000D01*
G75*
G02*
X123175000Y-54100000I0J-225000D01*
G01*
X123175000Y-54550000D01*
G75*
G02*
X122950000Y-54775000I-225000J0D01*
G01*
G37*
G04 #@! TD.AperFunction*
G04 #@! TO.P,C5,1*
G04 #@! TO.N,+3V3*
G04 #@! TA.AperFunction,SMDPad,CuDef*
G36*
G01*
X122950000Y-56325000D02*
X122450000Y-56325000D01*
G75*
G02*
X122225000Y-56100000I0J225000D01*
G01*
X122225000Y-55650000D01*
G75*
G02*
X122450000Y-55425000I225000J0D01*
G01*
X122950000Y-55425000D01*
G75*
G02*
X123175000Y-55650000I0J-225000D01*
G01*
X123175000Y-56100000D01*
G75*
G02*
X122950000Y-56325000I-225000J0D01*
G01*
G37*
G04 #@! TD.AperFunction*
G04 #@! TD*
G04 #@! TO.P,C6,1*
G04 #@! TO.N,Net-(C6-Pad1)*
G04 #@! TA.AperFunction,SMDPad,CuDef*
G36*
G01*
X120750000Y-33775000D02*
X121250000Y-33775000D01*
G75*
G02*
X121475000Y-34000000I0J-225000D01*
G01*
X121475000Y-34450000D01*
G75*
G02*
X121250000Y-34675000I-225000J0D01*
G01*
X120750000Y-34675000D01*
G75*
G02*
X120525000Y-34450000I0J225000D01*
G01*
X120525000Y-34000000D01*
G75*
G02*
X120750000Y-33775000I225000J0D01*
G01*
G37*
G04 #@! TD.AperFunction*
G04 #@! TO.P,C6,2*
G04 #@! TO.N,GND*
G04 #@! TA.AperFunction,SMDPad,CuDef*
G36*
G01*
X120750000Y-35325000D02*
X121250000Y-35325000D01*
G75*
G02*
X121475000Y-35550000I0J-225000D01*
G01*
X121475000Y-36000000D01*
G75*
G02*
X121250000Y-36225000I-225000J0D01*
G01*
X120750000Y-36225000D01*
G75*
G02*
X120525000Y-36000000I0J225000D01*
G01*
X120525000Y-35550000D01*
G75*
G02*
X120750000Y-35325000I225000J0D01*
G01*
G37*
G04 #@! TD.AperFunction*
G04 #@! TD*
G04 #@! TO.P,C7,1*
G04 #@! TO.N,+3V3*
G04 #@! TA.AperFunction,SMDPad,CuDef*
G36*
G01*
X121200000Y-56325000D02*
X120700000Y-56325000D01*
G75*
G02*
X120475000Y-56100000I0J225000D01*
G01*
X120475000Y-55650000D01*
G75*
G02*
X120700000Y-55425000I225000J0D01*
G01*
X121200000Y-55425000D01*
G75*
G02*
X121425000Y-55650000I0J-225000D01*
G01*
X121425000Y-56100000D01*
G75*
G02*
X121200000Y-56325000I-225000J0D01*
G01*
G37*
G04 #@! TD.AperFunction*
G04 #@! TO.P,C7,2*
G04 #@! TO.N,GND*
G04 #@! TA.AperFunction,SMDPad,CuDef*
G36*
G01*
X121200000Y-54775000D02*
X120700000Y-54775000D01*
G75*
G02*
X120475000Y-54550000I0J225000D01*
G01*
X120475000Y-54100000D01*
G75*
G02*
X120700000Y-53875000I225000J0D01*
G01*
X121200000Y-53875000D01*
G75*
G02*
X121425000Y-54100000I0J-225000D01*
G01*
X121425000Y-54550000D01*
G75*
G02*
X121200000Y-54775000I-225000J0D01*
G01*
G37*
G04 #@! TD.AperFunction*
G04 #@! TD*
G04 #@! TO.P,C8,2*
G04 #@! TO.N,GND*
G04 #@! TA.AperFunction,SMDPad,CuDef*
G36*
G01*
X118950000Y-35325000D02*
X119450000Y-35325000D01*
G75*
G02*
X119675000Y-35550000I0J-225000D01*
G01*
X119675000Y-36000000D01*
G75*
G02*
X119450000Y-36225000I-225000J0D01*
G01*
X118950000Y-36225000D01*
G75*
G02*
X118725000Y-36000000I0J225000D01*
G01*
X118725000Y-35550000D01*
G75*
G02*
X118950000Y-35325000I225000J0D01*
G01*
G37*
G04 #@! TD.AperFunction*
G04 #@! TO.P,C8,1*
G04 #@! TO.N,Net-(C6-Pad1)*
G04 #@! TA.AperFunction,SMDPad,CuDef*
G36*
G01*
X118950000Y-33775000D02*
X119450000Y-33775000D01*
G75*
G02*
X119675000Y-34000000I0J-225000D01*
G01*
X119675000Y-34450000D01*
G75*
G02*
X119450000Y-34675000I-225000J0D01*
G01*
X118950000Y-34675000D01*
G75*
G02*
X118725000Y-34450000I0J225000D01*
G01*
X118725000Y-34000000D01*
G75*
G02*
X118950000Y-33775000I225000J0D01*
G01*
G37*
G04 #@! TD.AperFunction*
G04 #@! TD*
G04 #@! TO.P,C9,2*
G04 #@! TO.N,GND*
G04 #@! TA.AperFunction,SMDPad,CuDef*
G36*
G01*
X137275000Y-55550000D02*
X137275000Y-56050000D01*
G75*
G02*
X137050000Y-56275000I-225000J0D01*
G01*
X136600000Y-56275000D01*
G75*
G02*
X136375000Y-56050000I0J225000D01*
G01*
X136375000Y-55550000D01*
G75*
G02*
X136600000Y-55325000I225000J0D01*
G01*
X137050000Y-55325000D01*
G75*
G02*
X137275000Y-55550000I0J-225000D01*
G01*
G37*
G04 #@! TD.AperFunction*
G04 #@! TO.P,C9,1*
G04 #@! TO.N,+3V3*
G04 #@! TA.AperFunction,SMDPad,CuDef*
G36*
G01*
X138825000Y-55550000D02*
X138825000Y-56050000D01*
G75*
G02*
X138600000Y-56275000I-225000J0D01*
G01*
X138150000Y-56275000D01*
G75*
G02*
X137925000Y-56050000I0J225000D01*
G01*
X137925000Y-55550000D01*
G75*
G02*
X138150000Y-55325000I225000J0D01*
G01*
X138600000Y-55325000D01*
G75*
G02*
X138825000Y-55550000I0J-225000D01*
G01*
G37*
G04 #@! TD.AperFunction*
G04 #@! TD*
G04 #@! TO.P,C10,2*
G04 #@! TO.N,GND*
G04 #@! TA.AperFunction,SMDPad,CuDef*
G36*
G01*
X130350000Y-40250000D02*
X130350000Y-39750000D01*
G75*
G02*
X130575000Y-39525000I225000J0D01*
G01*
X131025000Y-39525000D01*
G75*
G02*
X131250000Y-39750000I0J-225000D01*
G01*
X131250000Y-40250000D01*
G75*
G02*
X131025000Y-40475000I-225000J0D01*
G01*
X130575000Y-40475000D01*
G75*
G02*
X130350000Y-40250000I0J225000D01*
G01*
G37*
G04 #@! TD.AperFunction*
G04 #@! TO.P,C10,1*
G04 #@! TO.N,+3V3*
G04 #@! TA.AperFunction,SMDPad,CuDef*
G36*
G01*
X128800000Y-40250000D02*
X128800000Y-39750000D01*
G75*
G02*
X129025000Y-39525000I225000J0D01*
G01*
X129475000Y-39525000D01*
G75*
G02*
X129700000Y-39750000I0J-225000D01*
G01*
X129700000Y-40250000D01*
G75*
G02*
X129475000Y-40475000I-225000J0D01*
G01*
X129025000Y-40475000D01*
G75*
G02*
X128800000Y-40250000I0J225000D01*
G01*
G37*
G04 #@! TD.AperFunction*
G04 #@! TD*
G04 #@! TO.P,C11,1*
G04 #@! TO.N,/NRST*
G04 #@! TA.AperFunction,SMDPad,CuDef*
G36*
G01*
X143450000Y-68825000D02*
X143950000Y-68825000D01*
G75*
G02*
X144175000Y-69050000I0J-225000D01*
G01*
X144175000Y-69500000D01*
G75*
G02*
X143950000Y-69725000I-225000J0D01*
G01*
X143450000Y-69725000D01*
G75*
G02*
X143225000Y-69500000I0J225000D01*
G01*
X143225000Y-69050000D01*
G75*
G02*
X143450000Y-68825000I225000J0D01*
G01*
G37*
G04 #@! TD.AperFunction*
G04 #@! TO.P,C11,2*
G04 #@! TO.N,GND*
G04 #@! TA.AperFunction,SMDPad,CuDef*
G36*
G01*
X143450000Y-70375000D02*
X143950000Y-70375000D01*
G75*
G02*
X144175000Y-70600000I0J-225000D01*
G01*
X144175000Y-71050000D01*
G75*
G02*
X143950000Y-71275000I-225000J0D01*
G01*
X143450000Y-71275000D01*
G75*
G02*
X143225000Y-71050000I0J225000D01*
G01*
X143225000Y-70600000D01*
G75*
G02*
X143450000Y-70375000I225000J0D01*
G01*
G37*
G04 #@! TD.AperFunction*
G04 #@! TD*
G04 #@! TO.P,C12,2*
G04 #@! TO.N,GND*
G04 #@! TA.AperFunction,SMDPad,CuDef*
G36*
G01*
X128350000Y-35325000D02*
X128850000Y-35325000D01*
G75*
G02*
X129075000Y-35550000I0J-225000D01*
G01*
X129075000Y-36000000D01*
G75*
G02*
X128850000Y-36225000I-225000J0D01*
G01*
X128350000Y-36225000D01*
G75*
G02*
X128125000Y-36000000I0J225000D01*
G01*
X128125000Y-35550000D01*
G75*
G02*
X128350000Y-35325000I225000J0D01*
G01*
G37*
G04 #@! TD.AperFunction*
G04 #@! TO.P,C12,1*
G04 #@! TO.N,+3V3*
G04 #@! TA.AperFunction,SMDPad,CuDef*
G36*
G01*
X128350000Y-33775000D02*
X128850000Y-33775000D01*
G75*
G02*
X129075000Y-34000000I0J-225000D01*
G01*
X129075000Y-34450000D01*
G75*
G02*
X128850000Y-34675000I-225000J0D01*
G01*
X128350000Y-34675000D01*
G75*
G02*
X128125000Y-34450000I0J225000D01*
G01*
X128125000Y-34000000D01*
G75*
G02*
X128350000Y-33775000I225000J0D01*
G01*
G37*
G04 #@! TD.AperFunction*
G04 #@! TD*
G04 #@! TO.P,C13,1*
G04 #@! TO.N,Net-(C13-Pad1)*
G04 #@! TA.AperFunction,SMDPad,CuDef*
G36*
G01*
X119000000Y-59475000D02*
X118500000Y-59475000D01*
G75*
G02*
X118275000Y-59250000I0J225000D01*
G01*
X118275000Y-58800000D01*
G75*
G02*
X118500000Y-58575000I225000J0D01*
G01*
X119000000Y-58575000D01*
G75*
G02*
X119225000Y-58800000I0J-225000D01*
G01*
X119225000Y-59250000D01*
G75*
G02*
X119000000Y-59475000I-225000J0D01*
G01*
G37*
G04 #@! TD.AperFunction*
G04 #@! TO.P,C13,2*
G04 #@! TO.N,GND*
G04 #@! TA.AperFunction,SMDPad,CuDef*
G36*
G01*
X119000000Y-57925000D02*
X118500000Y-57925000D01*
G75*
G02*
X118275000Y-57700000I0J225000D01*
G01*
X118275000Y-57250000D01*
G75*
G02*
X118500000Y-57025000I225000J0D01*
G01*
X119000000Y-57025000D01*
G75*
G02*
X119225000Y-57250000I0J-225000D01*
G01*
X119225000Y-57700000D01*
G75*
G02*
X119000000Y-57925000I-225000J0D01*
G01*
G37*
G04 #@! TD.AperFunction*
G04 #@! TD*
G04 #@! TO.P,C14,2*
G04 #@! TO.N,GND*
G04 #@! TA.AperFunction,SMDPad,CuDef*
G36*
G01*
X133000000Y-57925000D02*
X132500000Y-57925000D01*
G75*
G02*
X132275000Y-57700000I0J225000D01*
G01*
X132275000Y-57250000D01*
G75*
G02*
X132500000Y-57025000I225000J0D01*
G01*
X133000000Y-57025000D01*
G75*
G02*
X133225000Y-57250000I0J-225000D01*
G01*
X133225000Y-57700000D01*
G75*
G02*
X133000000Y-57925000I-225000J0D01*
G01*
G37*
G04 #@! TD.AperFunction*
G04 #@! TO.P,C14,1*
G04 #@! TO.N,Net-(C14-Pad1)*
G04 #@! TA.AperFunction,SMDPad,CuDef*
G36*
G01*
X133000000Y-59475000D02*
X132500000Y-59475000D01*
G75*
G02*
X132275000Y-59250000I0J225000D01*
G01*
X132275000Y-58800000D01*
G75*
G02*
X132500000Y-58575000I225000J0D01*
G01*
X133000000Y-58575000D01*
G75*
G02*
X133225000Y-58800000I0J-225000D01*
G01*
X133225000Y-59250000D01*
G75*
G02*
X133000000Y-59475000I-225000J0D01*
G01*
G37*
G04 #@! TD.AperFunction*
G04 #@! TD*
D10*
G04 #@! TO.P,D1,1*
G04 #@! TO.N,Net-(D1-Pad1)*
X132950000Y-31200000D03*
G04 #@! TO.P,D1,2*
G04 #@! TO.N,+5V*
X135050000Y-31200000D03*
G04 #@! TD*
G04 #@! TO.P,D2,1*
G04 #@! TO.N,GND*
G04 #@! TA.AperFunction,SMDPad,CuDef*
G36*
G01*
X123425000Y-30743750D02*
X123425000Y-31256250D01*
G75*
G02*
X123206250Y-31475000I-218750J0D01*
G01*
X122768750Y-31475000D01*
G75*
G02*
X122550000Y-31256250I0J218750D01*
G01*
X122550000Y-30743750D01*
G75*
G02*
X122768750Y-30525000I218750J0D01*
G01*
X123206250Y-30525000D01*
G75*
G02*
X123425000Y-30743750I0J-218750D01*
G01*
G37*
G04 #@! TD.AperFunction*
G04 #@! TO.P,D2,2*
G04 #@! TO.N,Net-(D2-Pad2)*
G04 #@! TA.AperFunction,SMDPad,CuDef*
G36*
G01*
X121850000Y-30743750D02*
X121850000Y-31256250D01*
G75*
G02*
X121631250Y-31475000I-218750J0D01*
G01*
X121193750Y-31475000D01*
G75*
G02*
X120975000Y-31256250I0J218750D01*
G01*
X120975000Y-30743750D01*
G75*
G02*
X121193750Y-30525000I218750J0D01*
G01*
X121631250Y-30525000D01*
G75*
G02*
X121850000Y-30743750I0J-218750D01*
G01*
G37*
G04 #@! TD.AperFunction*
G04 #@! TD*
G04 #@! TO.P,F1,1*
G04 #@! TO.N,Net-(C6-Pad1)*
G04 #@! TA.AperFunction,SMDPad,CuDef*
G36*
G01*
X128775000Y-31656250D02*
X128775000Y-30743750D01*
G75*
G02*
X129018750Y-30500000I243750J0D01*
G01*
X129506250Y-30500000D01*
G75*
G02*
X129750000Y-30743750I0J-243750D01*
G01*
X129750000Y-31656250D01*
G75*
G02*
X129506250Y-31900000I-243750J0D01*
G01*
X129018750Y-31900000D01*
G75*
G02*
X128775000Y-31656250I0J243750D01*
G01*
G37*
G04 #@! TD.AperFunction*
G04 #@! TO.P,F1,2*
G04 #@! TO.N,Net-(D1-Pad1)*
G04 #@! TA.AperFunction,SMDPad,CuDef*
G36*
G01*
X130650000Y-31656250D02*
X130650000Y-30743750D01*
G75*
G02*
X130893750Y-30500000I243750J0D01*
G01*
X131381250Y-30500000D01*
G75*
G02*
X131625000Y-30743750I0J-243750D01*
G01*
X131625000Y-31656250D01*
G75*
G02*
X131381250Y-31900000I-243750J0D01*
G01*
X130893750Y-31900000D01*
G75*
G02*
X130650000Y-31656250I0J243750D01*
G01*
G37*
G04 #@! TD.AperFunction*
G04 #@! TD*
D11*
G04 #@! TO.P,J1,S1*
G04 #@! TO.N,GND*
X139270000Y-39920000D03*
X139270000Y-31280000D03*
D12*
X143440000Y-39920000D03*
X143440000Y-31280000D03*
D13*
G04 #@! TO.P,J1,B7*
G04 #@! TO.N,Net-(J1-PadA7)*
X138690000Y-36350000D03*
G04 #@! TO.P,J1,A6*
G04 #@! TO.N,Net-(J1-PadA6)*
X138690000Y-35850000D03*
G04 #@! TO.P,J1,A7*
G04 #@! TO.N,Net-(J1-PadA7)*
X138690000Y-35350000D03*
G04 #@! TO.P,J1,B8*
G04 #@! TO.N,N/C*
X138690000Y-37350000D03*
G04 #@! TO.P,J1,A5*
G04 #@! TO.N,Net-(J1-PadA5)*
X138690000Y-36850000D03*
G04 #@! TO.P,J1,A8*
G04 #@! TO.N,N/C*
X138690000Y-34350000D03*
G04 #@! TO.P,J1,B6*
G04 #@! TO.N,Net-(J1-PadA6)*
X138690000Y-34850000D03*
G04 #@! TO.P,J1,B5*
G04 #@! TO.N,Net-(J1-PadB5)*
X138690000Y-33850000D03*
D14*
G04 #@! TO.P,J1,A4*
G04 #@! TO.N,+5V*
X138690000Y-38000000D03*
G04 #@! TO.P,J1,B9*
X138690000Y-38000000D03*
G04 #@! TO.P,J1,A1*
G04 #@! TO.N,GND*
X138690000Y-38800000D03*
G04 #@! TO.P,J1,B12*
X138690000Y-38800000D03*
G04 #@! TO.P,J1,B4*
G04 #@! TO.N,+5V*
X138690000Y-33200000D03*
G04 #@! TO.P,J1,B1*
G04 #@! TO.N,GND*
X138690000Y-32400000D03*
G04 #@! TO.P,J1,A9*
G04 #@! TO.N,+5V*
X138690000Y-33200000D03*
G04 #@! TO.P,J1,A12*
G04 #@! TO.N,GND*
X138690000Y-32400000D03*
G04 #@! TD*
G04 #@! TO.P,J2,A12*
G04 #@! TO.N,GND*
X138690000Y-44000000D03*
G04 #@! TO.P,J2,A9*
G04 #@! TO.N,+5V*
X138690000Y-44800000D03*
G04 #@! TO.P,J2,B1*
G04 #@! TO.N,GND*
X138690000Y-44000000D03*
G04 #@! TO.P,J2,B4*
G04 #@! TO.N,+5V*
X138690000Y-44800000D03*
G04 #@! TO.P,J2,B12*
G04 #@! TO.N,GND*
X138690000Y-50400000D03*
G04 #@! TO.P,J2,A1*
X138690000Y-50400000D03*
G04 #@! TO.P,J2,B9*
G04 #@! TO.N,+5V*
X138690000Y-49600000D03*
G04 #@! TO.P,J2,A4*
X138690000Y-49600000D03*
D13*
G04 #@! TO.P,J2,B5*
G04 #@! TO.N,Net-(J2-PadB5)*
X138690000Y-45450000D03*
G04 #@! TO.P,J2,B6*
G04 #@! TO.N,Net-(J2-PadA6)*
X138690000Y-46450000D03*
G04 #@! TO.P,J2,A8*
G04 #@! TO.N,N/C*
X138690000Y-45950000D03*
G04 #@! TO.P,J2,A5*
G04 #@! TO.N,Net-(J2-PadA5)*
X138690000Y-48450000D03*
G04 #@! TO.P,J2,B8*
G04 #@! TO.N,N/C*
X138690000Y-48950000D03*
G04 #@! TO.P,J2,A7*
G04 #@! TO.N,Net-(J2-PadA7)*
X138690000Y-46950000D03*
G04 #@! TO.P,J2,A6*
G04 #@! TO.N,Net-(J2-PadA6)*
X138690000Y-47450000D03*
G04 #@! TO.P,J2,B7*
G04 #@! TO.N,Net-(J2-PadA7)*
X138690000Y-47950000D03*
D12*
G04 #@! TO.P,J2,S1*
G04 #@! TO.N,GND*
X143440000Y-42880000D03*
X143440000Y-51520000D03*
D11*
X139270000Y-42880000D03*
X139270000Y-51520000D03*
G04 #@! TD*
D15*
G04 #@! TO.P,J3,1*
G04 #@! TO.N,/P1*
X115400000Y-32150000D03*
D16*
G04 #@! TO.P,J3,2*
G04 #@! TO.N,/P2*
X112860000Y-32150000D03*
G04 #@! TO.P,J3,3*
G04 #@! TO.N,/P3*
X115400000Y-34690000D03*
G04 #@! TO.P,J3,4*
G04 #@! TO.N,/P4*
X112860000Y-34690000D03*
G04 #@! TO.P,J3,5*
G04 #@! TO.N,/P5*
X115400000Y-37230000D03*
G04 #@! TO.P,J3,6*
G04 #@! TO.N,/P6*
X112860000Y-37230000D03*
G04 #@! TO.P,J3,7*
G04 #@! TO.N,/P7*
X115400000Y-39770000D03*
G04 #@! TO.P,J3,8*
G04 #@! TO.N,/P8*
X112860000Y-39770000D03*
G04 #@! TO.P,J3,9*
G04 #@! TO.N,/P9*
X115400000Y-42310000D03*
G04 #@! TO.P,J3,10*
G04 #@! TO.N,/P10*
X112860000Y-42310000D03*
G04 #@! TO.P,J3,11*
G04 #@! TO.N,/P11*
X115400000Y-44850000D03*
G04 #@! TO.P,J3,12*
G04 #@! TO.N,/P12*
X112860000Y-44850000D03*
G04 #@! TO.P,J3,13*
G04 #@! TO.N,/P13*
X115400000Y-47390000D03*
G04 #@! TO.P,J3,14*
G04 #@! TO.N,/P14*
X112860000Y-47390000D03*
G04 #@! TO.P,J3,15*
G04 #@! TO.N,/P15*
X115400000Y-49930000D03*
G04 #@! TO.P,J3,16*
G04 #@! TO.N,/P16*
X112860000Y-49930000D03*
G04 #@! TO.P,J3,17*
G04 #@! TO.N,/P17*
X115400000Y-52470000D03*
G04 #@! TO.P,J3,18*
G04 #@! TO.N,/P18*
X112860000Y-52470000D03*
G04 #@! TO.P,J3,19*
G04 #@! TO.N,/P19*
X115400000Y-55010000D03*
G04 #@! TO.P,J3,20*
G04 #@! TO.N,/P20*
X112860000Y-55010000D03*
G04 #@! TO.P,J3,21*
G04 #@! TO.N,/P21*
X115400000Y-57550000D03*
G04 #@! TO.P,J3,22*
G04 #@! TO.N,/P22*
X112860000Y-57550000D03*
G04 #@! TO.P,J3,23*
G04 #@! TO.N,/P23*
X115400000Y-60090000D03*
G04 #@! TO.P,J3,24*
G04 #@! TO.N,/P24*
X112860000Y-60090000D03*
G04 #@! TO.P,J3,25*
G04 #@! TO.N,/P25*
X115400000Y-62630000D03*
G04 #@! TO.P,J3,26*
G04 #@! TO.N,/P26*
X112860000Y-62630000D03*
G04 #@! TO.P,J3,27*
G04 #@! TO.N,/P27*
X115400000Y-65170000D03*
G04 #@! TO.P,J3,28*
G04 #@! TO.N,/P28*
X112860000Y-65170000D03*
G04 #@! TO.P,J3,29*
G04 #@! TO.N,/P29*
X115400000Y-67710000D03*
G04 #@! TO.P,J3,30*
G04 #@! TO.N,+3V3*
X112860000Y-67710000D03*
G04 #@! TO.P,J3,31*
G04 #@! TO.N,GND*
X115400000Y-70250000D03*
G04 #@! TO.P,J3,32*
G04 #@! TO.N,+5V*
X112860000Y-70250000D03*
G04 #@! TD*
G04 #@! TO.P,R1,2*
G04 #@! TO.N,Net-(R1-Pad2)*
G04 #@! TA.AperFunction,SMDPad,CuDef*
G36*
G01*
X119225000Y-69625000D02*
X118675000Y-69625000D01*
G75*
G02*
X118475000Y-69425000I0J200000D01*
G01*
X118475000Y-69025000D01*
G75*
G02*
X118675000Y-68825000I200000J0D01*
G01*
X119225000Y-68825000D01*
G75*
G02*
X119425000Y-69025000I0J-200000D01*
G01*
X119425000Y-69425000D01*
G75*
G02*
X119225000Y-69625000I-200000J0D01*
G01*
G37*
G04 #@! TD.AperFunction*
G04 #@! TO.P,R1,1*
G04 #@! TO.N,+3V3*
G04 #@! TA.AperFunction,SMDPad,CuDef*
G36*
G01*
X119225000Y-71275000D02*
X118675000Y-71275000D01*
G75*
G02*
X118475000Y-71075000I0J200000D01*
G01*
X118475000Y-70675000D01*
G75*
G02*
X118675000Y-70475000I200000J0D01*
G01*
X119225000Y-70475000D01*
G75*
G02*
X119425000Y-70675000I0J-200000D01*
G01*
X119425000Y-71075000D01*
G75*
G02*
X119225000Y-71275000I-200000J0D01*
G01*
G37*
G04 #@! TD.AperFunction*
G04 #@! TD*
G04 #@! TO.P,R2,1*
G04 #@! TO.N,Net-(R2-Pad1)*
G04 #@! TA.AperFunction,SMDPad,CuDef*
G36*
G01*
X119225000Y-67025000D02*
X118675000Y-67025000D01*
G75*
G02*
X118475000Y-66825000I0J200000D01*
G01*
X118475000Y-66425000D01*
G75*
G02*
X118675000Y-66225000I200000J0D01*
G01*
X119225000Y-66225000D01*
G75*
G02*
X119425000Y-66425000I0J-200000D01*
G01*
X119425000Y-66825000D01*
G75*
G02*
X119225000Y-67025000I-200000J0D01*
G01*
G37*
G04 #@! TD.AperFunction*
G04 #@! TO.P,R2,2*
G04 #@! TO.N,+3V3*
G04 #@! TA.AperFunction,SMDPad,CuDef*
G36*
G01*
X119225000Y-65375000D02*
X118675000Y-65375000D01*
G75*
G02*
X118475000Y-65175000I0J200000D01*
G01*
X118475000Y-64775000D01*
G75*
G02*
X118675000Y-64575000I200000J0D01*
G01*
X119225000Y-64575000D01*
G75*
G02*
X119425000Y-64775000I0J-200000D01*
G01*
X119425000Y-65175000D01*
G75*
G02*
X119225000Y-65375000I-200000J0D01*
G01*
G37*
G04 #@! TD.AperFunction*
G04 #@! TD*
G04 #@! TO.P,R3,1*
G04 #@! TO.N,Net-(C6-Pad1)*
G04 #@! TA.AperFunction,SMDPad,CuDef*
G36*
G01*
X127825000Y-30725000D02*
X127825000Y-31275000D01*
G75*
G02*
X127625000Y-31475000I-200000J0D01*
G01*
X127225000Y-31475000D01*
G75*
G02*
X127025000Y-31275000I0J200000D01*
G01*
X127025000Y-30725000D01*
G75*
G02*
X127225000Y-30525000I200000J0D01*
G01*
X127625000Y-30525000D01*
G75*
G02*
X127825000Y-30725000I0J-200000D01*
G01*
G37*
G04 #@! TD.AperFunction*
G04 #@! TO.P,R3,2*
G04 #@! TO.N,Net-(D2-Pad2)*
G04 #@! TA.AperFunction,SMDPad,CuDef*
G36*
G01*
X126175000Y-30725000D02*
X126175000Y-31275000D01*
G75*
G02*
X125975000Y-31475000I-200000J0D01*
G01*
X125575000Y-31475000D01*
G75*
G02*
X125375000Y-31275000I0J200000D01*
G01*
X125375000Y-30725000D01*
G75*
G02*
X125575000Y-30525000I200000J0D01*
G01*
X125975000Y-30525000D01*
G75*
G02*
X126175000Y-30725000I0J-200000D01*
G01*
G37*
G04 #@! TD.AperFunction*
G04 #@! TD*
G04 #@! TO.P,R4,1*
G04 #@! TO.N,GND*
G04 #@! TA.AperFunction,SMDPad,CuDef*
G36*
G01*
X133975000Y-37275000D02*
X133975000Y-36725000D01*
G75*
G02*
X134175000Y-36525000I200000J0D01*
G01*
X134575000Y-36525000D01*
G75*
G02*
X134775000Y-36725000I0J-200000D01*
G01*
X134775000Y-37275000D01*
G75*
G02*
X134575000Y-37475000I-200000J0D01*
G01*
X134175000Y-37475000D01*
G75*
G02*
X133975000Y-37275000I0J200000D01*
G01*
G37*
G04 #@! TD.AperFunction*
G04 #@! TO.P,R4,2*
G04 #@! TO.N,Net-(J1-PadA5)*
G04 #@! TA.AperFunction,SMDPad,CuDef*
G36*
G01*
X135625000Y-37275000D02*
X135625000Y-36725000D01*
G75*
G02*
X135825000Y-36525000I200000J0D01*
G01*
X136225000Y-36525000D01*
G75*
G02*
X136425000Y-36725000I0J-200000D01*
G01*
X136425000Y-37275000D01*
G75*
G02*
X136225000Y-37475000I-200000J0D01*
G01*
X135825000Y-37475000D01*
G75*
G02*
X135625000Y-37275000I0J200000D01*
G01*
G37*
G04 #@! TD.AperFunction*
G04 #@! TD*
G04 #@! TO.P,R5,2*
G04 #@! TO.N,Net-(J1-PadA6)*
G04 #@! TA.AperFunction,SMDPad,CuDef*
G36*
G01*
X142875000Y-53975000D02*
X142325000Y-53975000D01*
G75*
G02*
X142125000Y-53775000I0J200000D01*
G01*
X142125000Y-53375000D01*
G75*
G02*
X142325000Y-53175000I200000J0D01*
G01*
X142875000Y-53175000D01*
G75*
G02*
X143075000Y-53375000I0J-200000D01*
G01*
X143075000Y-53775000D01*
G75*
G02*
X142875000Y-53975000I-200000J0D01*
G01*
G37*
G04 #@! TD.AperFunction*
G04 #@! TO.P,R5,1*
G04 #@! TO.N,Net-(R5-Pad1)*
G04 #@! TA.AperFunction,SMDPad,CuDef*
G36*
G01*
X142875000Y-55625000D02*
X142325000Y-55625000D01*
G75*
G02*
X142125000Y-55425000I0J200000D01*
G01*
X142125000Y-55025000D01*
G75*
G02*
X142325000Y-54825000I200000J0D01*
G01*
X142875000Y-54825000D01*
G75*
G02*
X143075000Y-55025000I0J-200000D01*
G01*
X143075000Y-55425000D01*
G75*
G02*
X142875000Y-55625000I-200000J0D01*
G01*
G37*
G04 #@! TD.AperFunction*
G04 #@! TD*
G04 #@! TO.P,R6,1*
G04 #@! TO.N,Net-(R6-Pad1)*
G04 #@! TA.AperFunction,SMDPad,CuDef*
G36*
G01*
X140875000Y-55625000D02*
X140325000Y-55625000D01*
G75*
G02*
X140125000Y-55425000I0J200000D01*
G01*
X140125000Y-55025000D01*
G75*
G02*
X140325000Y-54825000I200000J0D01*
G01*
X140875000Y-54825000D01*
G75*
G02*
X141075000Y-55025000I0J-200000D01*
G01*
X141075000Y-55425000D01*
G75*
G02*
X140875000Y-55625000I-200000J0D01*
G01*
G37*
G04 #@! TD.AperFunction*
G04 #@! TO.P,R6,2*
G04 #@! TO.N,Net-(J1-PadA7)*
G04 #@! TA.AperFunction,SMDPad,CuDef*
G36*
G01*
X140875000Y-53975000D02*
X140325000Y-53975000D01*
G75*
G02*
X140125000Y-53775000I0J200000D01*
G01*
X140125000Y-53375000D01*
G75*
G02*
X140325000Y-53175000I200000J0D01*
G01*
X140875000Y-53175000D01*
G75*
G02*
X141075000Y-53375000I0J-200000D01*
G01*
X141075000Y-53775000D01*
G75*
G02*
X140875000Y-53975000I-200000J0D01*
G01*
G37*
G04 #@! TD.AperFunction*
G04 #@! TD*
G04 #@! TO.P,R7,2*
G04 #@! TO.N,Net-(J1-PadB5)*
G04 #@! TA.AperFunction,SMDPad,CuDef*
G36*
G01*
X135625000Y-35075000D02*
X135625000Y-34525000D01*
G75*
G02*
X135825000Y-34325000I200000J0D01*
G01*
X136225000Y-34325000D01*
G75*
G02*
X136425000Y-34525000I0J-200000D01*
G01*
X136425000Y-35075000D01*
G75*
G02*
X136225000Y-35275000I-200000J0D01*
G01*
X135825000Y-35275000D01*
G75*
G02*
X135625000Y-35075000I0J200000D01*
G01*
G37*
G04 #@! TD.AperFunction*
G04 #@! TO.P,R7,1*
G04 #@! TO.N,GND*
G04 #@! TA.AperFunction,SMDPad,CuDef*
G36*
G01*
X133975000Y-35075000D02*
X133975000Y-34525000D01*
G75*
G02*
X134175000Y-34325000I200000J0D01*
G01*
X134575000Y-34325000D01*
G75*
G02*
X134775000Y-34525000I0J-200000D01*
G01*
X134775000Y-35075000D01*
G75*
G02*
X134575000Y-35275000I-200000J0D01*
G01*
X134175000Y-35275000D01*
G75*
G02*
X133975000Y-35075000I0J200000D01*
G01*
G37*
G04 #@! TD.AperFunction*
G04 #@! TD*
G04 #@! TO.P,R8,1*
G04 #@! TO.N,GND*
G04 #@! TA.AperFunction,SMDPad,CuDef*
G36*
G01*
X131475000Y-71275000D02*
X130925000Y-71275000D01*
G75*
G02*
X130725000Y-71075000I0J200000D01*
G01*
X130725000Y-70675000D01*
G75*
G02*
X130925000Y-70475000I200000J0D01*
G01*
X131475000Y-70475000D01*
G75*
G02*
X131675000Y-70675000I0J-200000D01*
G01*
X131675000Y-71075000D01*
G75*
G02*
X131475000Y-71275000I-200000J0D01*
G01*
G37*
G04 #@! TD.AperFunction*
G04 #@! TO.P,R8,2*
G04 #@! TO.N,/BOOT1*
G04 #@! TA.AperFunction,SMDPad,CuDef*
G36*
G01*
X131475000Y-69625000D02*
X130925000Y-69625000D01*
G75*
G02*
X130725000Y-69425000I0J200000D01*
G01*
X130725000Y-69025000D01*
G75*
G02*
X130925000Y-68825000I200000J0D01*
G01*
X131475000Y-68825000D01*
G75*
G02*
X131675000Y-69025000I0J-200000D01*
G01*
X131675000Y-69425000D01*
G75*
G02*
X131475000Y-69625000I-200000J0D01*
G01*
G37*
G04 #@! TD.AperFunction*
G04 #@! TD*
G04 #@! TO.P,R9,1*
G04 #@! TO.N,+3V3*
G04 #@! TA.AperFunction,SMDPad,CuDef*
G36*
G01*
X143425000Y-64575000D02*
X143975000Y-64575000D01*
G75*
G02*
X144175000Y-64775000I0J-200000D01*
G01*
X144175000Y-65175000D01*
G75*
G02*
X143975000Y-65375000I-200000J0D01*
G01*
X143425000Y-65375000D01*
G75*
G02*
X143225000Y-65175000I0J200000D01*
G01*
X143225000Y-64775000D01*
G75*
G02*
X143425000Y-64575000I200000J0D01*
G01*
G37*
G04 #@! TD.AperFunction*
G04 #@! TO.P,R9,2*
G04 #@! TO.N,/NRST*
G04 #@! TA.AperFunction,SMDPad,CuDef*
G36*
G01*
X143425000Y-66225000D02*
X143975000Y-66225000D01*
G75*
G02*
X144175000Y-66425000I0J-200000D01*
G01*
X144175000Y-66825000D01*
G75*
G02*
X143975000Y-67025000I-200000J0D01*
G01*
X143425000Y-67025000D01*
G75*
G02*
X143225000Y-66825000I0J200000D01*
G01*
X143225000Y-66425000D01*
G75*
G02*
X143425000Y-66225000I200000J0D01*
G01*
G37*
G04 #@! TD.AperFunction*
G04 #@! TD*
G04 #@! TO.P,R10,2*
G04 #@! TO.N,/BOOT0*
G04 #@! TA.AperFunction,SMDPad,CuDef*
G36*
G01*
X130925000Y-66225000D02*
X131475000Y-66225000D01*
G75*
G02*
X131675000Y-66425000I0J-200000D01*
G01*
X131675000Y-66825000D01*
G75*
G02*
X131475000Y-67025000I-200000J0D01*
G01*
X130925000Y-67025000D01*
G75*
G02*
X130725000Y-66825000I0J200000D01*
G01*
X130725000Y-66425000D01*
G75*
G02*
X130925000Y-66225000I200000J0D01*
G01*
G37*
G04 #@! TD.AperFunction*
G04 #@! TO.P,R10,1*
G04 #@! TO.N,GND*
G04 #@! TA.AperFunction,SMDPad,CuDef*
G36*
G01*
X130925000Y-64575000D02*
X131475000Y-64575000D01*
G75*
G02*
X131675000Y-64775000I0J-200000D01*
G01*
X131675000Y-65175000D01*
G75*
G02*
X131475000Y-65375000I-200000J0D01*
G01*
X130925000Y-65375000D01*
G75*
G02*
X130725000Y-65175000I0J200000D01*
G01*
X130725000Y-64775000D01*
G75*
G02*
X130925000Y-64575000I200000J0D01*
G01*
G37*
G04 #@! TD.AperFunction*
G04 #@! TD*
G04 #@! TO.P,R11,1*
G04 #@! TO.N,GND*
G04 #@! TA.AperFunction,SMDPad,CuDef*
G36*
G01*
X136425000Y-44125000D02*
X136425000Y-44675000D01*
G75*
G02*
X136225000Y-44875000I-200000J0D01*
G01*
X135825000Y-44875000D01*
G75*
G02*
X135625000Y-44675000I0J200000D01*
G01*
X135625000Y-44125000D01*
G75*
G02*
X135825000Y-43925000I200000J0D01*
G01*
X136225000Y-43925000D01*
G75*
G02*
X136425000Y-44125000I0J-200000D01*
G01*
G37*
G04 #@! TD.AperFunction*
G04 #@! TO.P,R11,2*
G04 #@! TO.N,Net-(J2-PadB5)*
G04 #@! TA.AperFunction,SMDPad,CuDef*
G36*
G01*
X134775000Y-44125000D02*
X134775000Y-44675000D01*
G75*
G02*
X134575000Y-44875000I-200000J0D01*
G01*
X134175000Y-44875000D01*
G75*
G02*
X133975000Y-44675000I0J200000D01*
G01*
X133975000Y-44125000D01*
G75*
G02*
X134175000Y-43925000I200000J0D01*
G01*
X134575000Y-43925000D01*
G75*
G02*
X134775000Y-44125000I0J-200000D01*
G01*
G37*
G04 #@! TD.AperFunction*
G04 #@! TD*
G04 #@! TO.P,R12,2*
G04 #@! TO.N,Net-(J2-PadA6)*
G04 #@! TA.AperFunction,SMDPad,CuDef*
G36*
G01*
X135625000Y-46875000D02*
X135625000Y-46325000D01*
G75*
G02*
X135825000Y-46125000I200000J0D01*
G01*
X136225000Y-46125000D01*
G75*
G02*
X136425000Y-46325000I0J-200000D01*
G01*
X136425000Y-46875000D01*
G75*
G02*
X136225000Y-47075000I-200000J0D01*
G01*
X135825000Y-47075000D01*
G75*
G02*
X135625000Y-46875000I0J200000D01*
G01*
G37*
G04 #@! TD.AperFunction*
G04 #@! TO.P,R12,1*
G04 #@! TO.N,/USBDP*
G04 #@! TA.AperFunction,SMDPad,CuDef*
G36*
G01*
X133975000Y-46875000D02*
X133975000Y-46325000D01*
G75*
G02*
X134175000Y-46125000I200000J0D01*
G01*
X134575000Y-46125000D01*
G75*
G02*
X134775000Y-46325000I0J-200000D01*
G01*
X134775000Y-46875000D01*
G75*
G02*
X134575000Y-47075000I-200000J0D01*
G01*
X134175000Y-47075000D01*
G75*
G02*
X133975000Y-46875000I0J200000D01*
G01*
G37*
G04 #@! TD.AperFunction*
G04 #@! TD*
G04 #@! TO.P,R13,2*
G04 #@! TO.N,/USB_PULLUP*
G04 #@! TA.AperFunction,SMDPad,CuDef*
G36*
G01*
X122975000Y-39725000D02*
X122975000Y-40275000D01*
G75*
G02*
X122775000Y-40475000I-200000J0D01*
G01*
X122375000Y-40475000D01*
G75*
G02*
X122175000Y-40275000I0J200000D01*
G01*
X122175000Y-39725000D01*
G75*
G02*
X122375000Y-39525000I200000J0D01*
G01*
X122775000Y-39525000D01*
G75*
G02*
X122975000Y-39725000I0J-200000D01*
G01*
G37*
G04 #@! TD.AperFunction*
G04 #@! TO.P,R13,1*
G04 #@! TO.N,/USBDP*
G04 #@! TA.AperFunction,SMDPad,CuDef*
G36*
G01*
X124625000Y-39725000D02*
X124625000Y-40275000D01*
G75*
G02*
X124425000Y-40475000I-200000J0D01*
G01*
X124025000Y-40475000D01*
G75*
G02*
X123825000Y-40275000I0J200000D01*
G01*
X123825000Y-39725000D01*
G75*
G02*
X124025000Y-39525000I200000J0D01*
G01*
X124425000Y-39525000D01*
G75*
G02*
X124625000Y-39725000I0J-200000D01*
G01*
G37*
G04 #@! TD.AperFunction*
G04 #@! TD*
G04 #@! TO.P,R14,2*
G04 #@! TO.N,Net-(J2-PadA5)*
G04 #@! TA.AperFunction,SMDPad,CuDef*
G36*
G01*
X134775000Y-50525000D02*
X134775000Y-51075000D01*
G75*
G02*
X134575000Y-51275000I-200000J0D01*
G01*
X134175000Y-51275000D01*
G75*
G02*
X133975000Y-51075000I0J200000D01*
G01*
X133975000Y-50525000D01*
G75*
G02*
X134175000Y-50325000I200000J0D01*
G01*
X134575000Y-50325000D01*
G75*
G02*
X134775000Y-50525000I0J-200000D01*
G01*
G37*
G04 #@! TD.AperFunction*
G04 #@! TO.P,R14,1*
G04 #@! TO.N,GND*
G04 #@! TA.AperFunction,SMDPad,CuDef*
G36*
G01*
X136425000Y-50525000D02*
X136425000Y-51075000D01*
G75*
G02*
X136225000Y-51275000I-200000J0D01*
G01*
X135825000Y-51275000D01*
G75*
G02*
X135625000Y-51075000I0J200000D01*
G01*
X135625000Y-50525000D01*
G75*
G02*
X135825000Y-50325000I200000J0D01*
G01*
X136225000Y-50325000D01*
G75*
G02*
X136425000Y-50525000I0J-200000D01*
G01*
G37*
G04 #@! TD.AperFunction*
G04 #@! TD*
G04 #@! TO.P,R15,1*
G04 #@! TO.N,/USBDM*
G04 #@! TA.AperFunction,SMDPad,CuDef*
G36*
G01*
X133975000Y-48875000D02*
X133975000Y-48325000D01*
G75*
G02*
X134175000Y-48125000I200000J0D01*
G01*
X134575000Y-48125000D01*
G75*
G02*
X134775000Y-48325000I0J-200000D01*
G01*
X134775000Y-48875000D01*
G75*
G02*
X134575000Y-49075000I-200000J0D01*
G01*
X134175000Y-49075000D01*
G75*
G02*
X133975000Y-48875000I0J200000D01*
G01*
G37*
G04 #@! TD.AperFunction*
G04 #@! TO.P,R15,2*
G04 #@! TO.N,Net-(J2-PadA7)*
G04 #@! TA.AperFunction,SMDPad,CuDef*
G36*
G01*
X135625000Y-48875000D02*
X135625000Y-48325000D01*
G75*
G02*
X135825000Y-48125000I200000J0D01*
G01*
X136225000Y-48125000D01*
G75*
G02*
X136425000Y-48325000I0J-200000D01*
G01*
X136425000Y-48875000D01*
G75*
G02*
X136225000Y-49075000I-200000J0D01*
G01*
X135825000Y-49075000D01*
G75*
G02*
X135625000Y-48875000I0J200000D01*
G01*
G37*
G04 #@! TD.AperFunction*
G04 #@! TD*
D17*
G04 #@! TO.P,SW1,1*
G04 #@! TO.N,Net-(R2-Pad1)*
X121300000Y-66750000D03*
D18*
G04 #@! TO.P,SW1,3*
G04 #@! TO.N,/BOOT1*
X128920000Y-69290000D03*
G04 #@! TO.P,SW1,2*
G04 #@! TO.N,Net-(R1-Pad2)*
X121300000Y-69290000D03*
G04 #@! TO.P,SW1,4*
G04 #@! TO.N,/BOOT0*
X128920000Y-66750000D03*
G04 #@! TD*
D19*
G04 #@! TO.P,SW2,2*
G04 #@! TO.N,GND*
X134450000Y-70300000D03*
G04 #@! TO.P,SW2,1*
G04 #@! TO.N,/NRST*
X134450000Y-65800000D03*
G04 #@! TO.P,SW2,2*
G04 #@! TO.N,GND*
X140950000Y-70300000D03*
G04 #@! TO.P,SW2,1*
G04 #@! TO.N,/NRST*
X140950000Y-65800000D03*
G04 #@! TD*
D20*
G04 #@! TO.P,U1,1*
G04 #@! TO.N,GND*
X126300000Y-34350000D03*
G04 #@! TO.P,U1,3*
G04 #@! TO.N,Net-(C6-Pad1)*
X123300000Y-34350000D03*
G04 #@! TA.AperFunction,SMDPad,CuDef*
D21*
G04 #@! TO.P,U1,2*
G04 #@! TO.N,+3V3*
G36*
X123933500Y-38300000D02*
G01*
X123933500Y-35175000D01*
X124350000Y-35175000D01*
X124350000Y-33700000D01*
X125250000Y-33700000D01*
X125250000Y-35175000D01*
X125666500Y-35175000D01*
X125666500Y-38300000D01*
X123933500Y-38300000D01*
G37*
G04 #@! TD.AperFunction*
G04 #@! TD*
G04 #@! TO.P,U2,1*
G04 #@! TO.N,Net-(R5-Pad1)*
G04 #@! TA.AperFunction,SMDPad,CuDef*
G36*
G01*
X144450000Y-61355000D02*
X144450000Y-61655000D01*
G75*
G02*
X144300000Y-61805000I-150000J0D01*
G01*
X142650000Y-61805000D01*
G75*
G02*
X142500000Y-61655000I0J150000D01*
G01*
X142500000Y-61355000D01*
G75*
G02*
X142650000Y-61205000I150000J0D01*
G01*
X144300000Y-61205000D01*
G75*
G02*
X144450000Y-61355000I0J-150000D01*
G01*
G37*
G04 #@! TD.AperFunction*
G04 #@! TO.P,U2,2*
G04 #@! TO.N,Net-(R6-Pad1)*
G04 #@! TA.AperFunction,SMDPad,CuDef*
G36*
G01*
X144450000Y-60085000D02*
X144450000Y-60385000D01*
G75*
G02*
X144300000Y-60535000I-150000J0D01*
G01*
X142650000Y-60535000D01*
G75*
G02*
X142500000Y-60385000I0J150000D01*
G01*
X142500000Y-60085000D01*
G75*
G02*
X142650000Y-59935000I150000J0D01*
G01*
X144300000Y-59935000D01*
G75*
G02*
X144450000Y-60085000I0J-150000D01*
G01*
G37*
G04 #@! TD.AperFunction*
G04 #@! TO.P,U2,3*
G04 #@! TO.N,GND*
G04 #@! TA.AperFunction,SMDPad,CuDef*
G36*
G01*
X144450000Y-58815000D02*
X144450000Y-59115000D01*
G75*
G02*
X144300000Y-59265000I-150000J0D01*
G01*
X142650000Y-59265000D01*
G75*
G02*
X142500000Y-59115000I0J150000D01*
G01*
X142500000Y-58815000D01*
G75*
G02*
X142650000Y-58665000I150000J0D01*
G01*
X144300000Y-58665000D01*
G75*
G02*
X144450000Y-58815000I0J-150000D01*
G01*
G37*
G04 #@! TD.AperFunction*
G04 #@! TO.P,U2,4*
G04 #@! TO.N,N/C*
G04 #@! TA.AperFunction,SMDPad,CuDef*
G36*
G01*
X144450000Y-57545000D02*
X144450000Y-57845000D01*
G75*
G02*
X144300000Y-57995000I-150000J0D01*
G01*
X142650000Y-57995000D01*
G75*
G02*
X142500000Y-57845000I0J150000D01*
G01*
X142500000Y-57545000D01*
G75*
G02*
X142650000Y-57395000I150000J0D01*
G01*
X144300000Y-57395000D01*
G75*
G02*
X144450000Y-57545000I0J-150000D01*
G01*
G37*
G04 #@! TD.AperFunction*
G04 #@! TO.P,U2,5*
G04 #@! TO.N,+3V3*
G04 #@! TA.AperFunction,SMDPad,CuDef*
G36*
G01*
X139500000Y-57545000D02*
X139500000Y-57845000D01*
G75*
G02*
X139350000Y-57995000I-150000J0D01*
G01*
X137700000Y-57995000D01*
G75*
G02*
X137550000Y-57845000I0J150000D01*
G01*
X137550000Y-57545000D01*
G75*
G02*
X137700000Y-57395000I150000J0D01*
G01*
X139350000Y-57395000D01*
G75*
G02*
X139500000Y-57545000I0J-150000D01*
G01*
G37*
G04 #@! TD.AperFunction*
G04 #@! TO.P,U2,6*
G04 #@! TO.N,/USART1_RX*
G04 #@! TA.AperFunction,SMDPad,CuDef*
G36*
G01*
X139500000Y-58815000D02*
X139500000Y-59115000D01*
G75*
G02*
X139350000Y-59265000I-150000J0D01*
G01*
X137700000Y-59265000D01*
G75*
G02*
X137550000Y-59115000I0J150000D01*
G01*
X137550000Y-58815000D01*
G75*
G02*
X137700000Y-58665000I150000J0D01*
G01*
X139350000Y-58665000D01*
G75*
G02*
X139500000Y-58815000I0J-150000D01*
G01*
G37*
G04 #@! TD.AperFunction*
G04 #@! TO.P,U2,7*
G04 #@! TO.N,/USART1_TX*
G04 #@! TA.AperFunction,SMDPad,CuDef*
G36*
G01*
X139500000Y-60085000D02*
X139500000Y-60385000D01*
G75*
G02*
X139350000Y-60535000I-150000J0D01*
G01*
X137700000Y-60535000D01*
G75*
G02*
X137550000Y-60385000I0J150000D01*
G01*
X137550000Y-60085000D01*
G75*
G02*
X137700000Y-59935000I150000J0D01*
G01*
X139350000Y-59935000D01*
G75*
G02*
X139500000Y-60085000I0J-150000D01*
G01*
G37*
G04 #@! TD.AperFunction*
G04 #@! TO.P,U2,8*
G04 #@! TO.N,+3V3*
G04 #@! TA.AperFunction,SMDPad,CuDef*
G36*
G01*
X139500000Y-61355000D02*
X139500000Y-61655000D01*
G75*
G02*
X139350000Y-61805000I-150000J0D01*
G01*
X137700000Y-61805000D01*
G75*
G02*
X137550000Y-61655000I0J150000D01*
G01*
X137550000Y-61355000D01*
G75*
G02*
X137700000Y-61205000I150000J0D01*
G01*
X139350000Y-61205000D01*
G75*
G02*
X139500000Y-61355000I0J-150000D01*
G01*
G37*
G04 #@! TD.AperFunction*
G04 #@! TD*
G04 #@! TO.P,U3,1*
G04 #@! TO.N,+3V3*
G04 #@! TA.AperFunction,SMDPad,CuDef*
G36*
G01*
X121725000Y-52500000D02*
X121575000Y-52500000D01*
G75*
G02*
X121500000Y-52425000I0J75000D01*
G01*
X121500000Y-51100000D01*
G75*
G02*
X121575000Y-51025000I75000J0D01*
G01*
X121725000Y-51025000D01*
G75*
G02*
X121800000Y-51100000I0J-75000D01*
G01*
X121800000Y-52425000D01*
G75*
G02*
X121725000Y-52500000I-75000J0D01*
G01*
G37*
G04 #@! TD.AperFunction*
G04 #@! TO.P,U3,2*
G04 #@! TO.N,/P15*
G04 #@! TA.AperFunction,SMDPad,CuDef*
G36*
G01*
X122225000Y-52500000D02*
X122075000Y-52500000D01*
G75*
G02*
X122000000Y-52425000I0J75000D01*
G01*
X122000000Y-51100000D01*
G75*
G02*
X122075000Y-51025000I75000J0D01*
G01*
X122225000Y-51025000D01*
G75*
G02*
X122300000Y-51100000I0J-75000D01*
G01*
X122300000Y-52425000D01*
G75*
G02*
X122225000Y-52500000I-75000J0D01*
G01*
G37*
G04 #@! TD.AperFunction*
G04 #@! TO.P,U3,3*
G04 #@! TO.N,/P16*
G04 #@! TA.AperFunction,SMDPad,CuDef*
G36*
G01*
X122725000Y-52500000D02*
X122575000Y-52500000D01*
G75*
G02*
X122500000Y-52425000I0J75000D01*
G01*
X122500000Y-51100000D01*
G75*
G02*
X122575000Y-51025000I75000J0D01*
G01*
X122725000Y-51025000D01*
G75*
G02*
X122800000Y-51100000I0J-75000D01*
G01*
X122800000Y-52425000D01*
G75*
G02*
X122725000Y-52500000I-75000J0D01*
G01*
G37*
G04 #@! TD.AperFunction*
G04 #@! TO.P,U3,4*
G04 #@! TO.N,/P17*
G04 #@! TA.AperFunction,SMDPad,CuDef*
G36*
G01*
X123225000Y-52500000D02*
X123075000Y-52500000D01*
G75*
G02*
X123000000Y-52425000I0J75000D01*
G01*
X123000000Y-51100000D01*
G75*
G02*
X123075000Y-51025000I75000J0D01*
G01*
X123225000Y-51025000D01*
G75*
G02*
X123300000Y-51100000I0J-75000D01*
G01*
X123300000Y-52425000D01*
G75*
G02*
X123225000Y-52500000I-75000J0D01*
G01*
G37*
G04 #@! TD.AperFunction*
G04 #@! TO.P,U3,5*
G04 #@! TO.N,Net-(C13-Pad1)*
G04 #@! TA.AperFunction,SMDPad,CuDef*
G36*
G01*
X123725000Y-52500000D02*
X123575000Y-52500000D01*
G75*
G02*
X123500000Y-52425000I0J75000D01*
G01*
X123500000Y-51100000D01*
G75*
G02*
X123575000Y-51025000I75000J0D01*
G01*
X123725000Y-51025000D01*
G75*
G02*
X123800000Y-51100000I0J-75000D01*
G01*
X123800000Y-52425000D01*
G75*
G02*
X123725000Y-52500000I-75000J0D01*
G01*
G37*
G04 #@! TD.AperFunction*
G04 #@! TO.P,U3,6*
G04 #@! TO.N,Net-(C14-Pad1)*
G04 #@! TA.AperFunction,SMDPad,CuDef*
G36*
G01*
X124225000Y-52500000D02*
X124075000Y-52500000D01*
G75*
G02*
X124000000Y-52425000I0J75000D01*
G01*
X124000000Y-51100000D01*
G75*
G02*
X124075000Y-51025000I75000J0D01*
G01*
X124225000Y-51025000D01*
G75*
G02*
X124300000Y-51100000I0J-75000D01*
G01*
X124300000Y-52425000D01*
G75*
G02*
X124225000Y-52500000I-75000J0D01*
G01*
G37*
G04 #@! TD.AperFunction*
G04 #@! TO.P,U3,7*
G04 #@! TO.N,/NRST*
G04 #@! TA.AperFunction,SMDPad,CuDef*
G36*
G01*
X124725000Y-52500000D02*
X124575000Y-52500000D01*
G75*
G02*
X124500000Y-52425000I0J75000D01*
G01*
X124500000Y-51100000D01*
G75*
G02*
X124575000Y-51025000I75000J0D01*
G01*
X124725000Y-51025000D01*
G75*
G02*
X124800000Y-51100000I0J-75000D01*
G01*
X124800000Y-52425000D01*
G75*
G02*
X124725000Y-52500000I-75000J0D01*
G01*
G37*
G04 #@! TD.AperFunction*
G04 #@! TO.P,U3,8*
G04 #@! TO.N,GND*
G04 #@! TA.AperFunction,SMDPad,CuDef*
G36*
G01*
X125225000Y-52500000D02*
X125075000Y-52500000D01*
G75*
G02*
X125000000Y-52425000I0J75000D01*
G01*
X125000000Y-51100000D01*
G75*
G02*
X125075000Y-51025000I75000J0D01*
G01*
X125225000Y-51025000D01*
G75*
G02*
X125300000Y-51100000I0J-75000D01*
G01*
X125300000Y-52425000D01*
G75*
G02*
X125225000Y-52500000I-75000J0D01*
G01*
G37*
G04 #@! TD.AperFunction*
G04 #@! TO.P,U3,9*
G04 #@! TO.N,+3V3*
G04 #@! TA.AperFunction,SMDPad,CuDef*
G36*
G01*
X125725000Y-52500000D02*
X125575000Y-52500000D01*
G75*
G02*
X125500000Y-52425000I0J75000D01*
G01*
X125500000Y-51100000D01*
G75*
G02*
X125575000Y-51025000I75000J0D01*
G01*
X125725000Y-51025000D01*
G75*
G02*
X125800000Y-51100000I0J-75000D01*
G01*
X125800000Y-52425000D01*
G75*
G02*
X125725000Y-52500000I-75000J0D01*
G01*
G37*
G04 #@! TD.AperFunction*
G04 #@! TO.P,U3,10*
G04 #@! TO.N,/P18*
G04 #@! TA.AperFunction,SMDPad,CuDef*
G36*
G01*
X126225000Y-52500000D02*
X126075000Y-52500000D01*
G75*
G02*
X126000000Y-52425000I0J75000D01*
G01*
X126000000Y-51100000D01*
G75*
G02*
X126075000Y-51025000I75000J0D01*
G01*
X126225000Y-51025000D01*
G75*
G02*
X126300000Y-51100000I0J-75000D01*
G01*
X126300000Y-52425000D01*
G75*
G02*
X126225000Y-52500000I-75000J0D01*
G01*
G37*
G04 #@! TD.AperFunction*
G04 #@! TO.P,U3,11*
G04 #@! TO.N,/P19*
G04 #@! TA.AperFunction,SMDPad,CuDef*
G36*
G01*
X126725000Y-52500000D02*
X126575000Y-52500000D01*
G75*
G02*
X126500000Y-52425000I0J75000D01*
G01*
X126500000Y-51100000D01*
G75*
G02*
X126575000Y-51025000I75000J0D01*
G01*
X126725000Y-51025000D01*
G75*
G02*
X126800000Y-51100000I0J-75000D01*
G01*
X126800000Y-52425000D01*
G75*
G02*
X126725000Y-52500000I-75000J0D01*
G01*
G37*
G04 #@! TD.AperFunction*
G04 #@! TO.P,U3,12*
G04 #@! TO.N,/P20*
G04 #@! TA.AperFunction,SMDPad,CuDef*
G36*
G01*
X127225000Y-52500000D02*
X127075000Y-52500000D01*
G75*
G02*
X127000000Y-52425000I0J75000D01*
G01*
X127000000Y-51100000D01*
G75*
G02*
X127075000Y-51025000I75000J0D01*
G01*
X127225000Y-51025000D01*
G75*
G02*
X127300000Y-51100000I0J-75000D01*
G01*
X127300000Y-52425000D01*
G75*
G02*
X127225000Y-52500000I-75000J0D01*
G01*
G37*
G04 #@! TD.AperFunction*
G04 #@! TO.P,U3,13*
G04 #@! TO.N,/P21*
G04 #@! TA.AperFunction,SMDPad,CuDef*
G36*
G01*
X129225000Y-50500000D02*
X127900000Y-50500000D01*
G75*
G02*
X127825000Y-50425000I0J75000D01*
G01*
X127825000Y-50275000D01*
G75*
G02*
X127900000Y-50200000I75000J0D01*
G01*
X129225000Y-50200000D01*
G75*
G02*
X129300000Y-50275000I0J-75000D01*
G01*
X129300000Y-50425000D01*
G75*
G02*
X129225000Y-50500000I-75000J0D01*
G01*
G37*
G04 #@! TD.AperFunction*
G04 #@! TO.P,U3,14*
G04 #@! TO.N,/P22*
G04 #@! TA.AperFunction,SMDPad,CuDef*
G36*
G01*
X129225000Y-50000000D02*
X127900000Y-50000000D01*
G75*
G02*
X127825000Y-49925000I0J75000D01*
G01*
X127825000Y-49775000D01*
G75*
G02*
X127900000Y-49700000I75000J0D01*
G01*
X129225000Y-49700000D01*
G75*
G02*
X129300000Y-49775000I0J-75000D01*
G01*
X129300000Y-49925000D01*
G75*
G02*
X129225000Y-50000000I-75000J0D01*
G01*
G37*
G04 #@! TD.AperFunction*
G04 #@! TO.P,U3,15*
G04 #@! TO.N,/P23*
G04 #@! TA.AperFunction,SMDPad,CuDef*
G36*
G01*
X129225000Y-49500000D02*
X127900000Y-49500000D01*
G75*
G02*
X127825000Y-49425000I0J75000D01*
G01*
X127825000Y-49275000D01*
G75*
G02*
X127900000Y-49200000I75000J0D01*
G01*
X129225000Y-49200000D01*
G75*
G02*
X129300000Y-49275000I0J-75000D01*
G01*
X129300000Y-49425000D01*
G75*
G02*
X129225000Y-49500000I-75000J0D01*
G01*
G37*
G04 #@! TD.AperFunction*
G04 #@! TO.P,U3,16*
G04 #@! TO.N,/P24*
G04 #@! TA.AperFunction,SMDPad,CuDef*
G36*
G01*
X129225000Y-49000000D02*
X127900000Y-49000000D01*
G75*
G02*
X127825000Y-48925000I0J75000D01*
G01*
X127825000Y-48775000D01*
G75*
G02*
X127900000Y-48700000I75000J0D01*
G01*
X129225000Y-48700000D01*
G75*
G02*
X129300000Y-48775000I0J-75000D01*
G01*
X129300000Y-48925000D01*
G75*
G02*
X129225000Y-49000000I-75000J0D01*
G01*
G37*
G04 #@! TD.AperFunction*
G04 #@! TO.P,U3,17*
G04 #@! TO.N,/P25*
G04 #@! TA.AperFunction,SMDPad,CuDef*
G36*
G01*
X129225000Y-48500000D02*
X127900000Y-48500000D01*
G75*
G02*
X127825000Y-48425000I0J75000D01*
G01*
X127825000Y-48275000D01*
G75*
G02*
X127900000Y-48200000I75000J0D01*
G01*
X129225000Y-48200000D01*
G75*
G02*
X129300000Y-48275000I0J-75000D01*
G01*
X129300000Y-48425000D01*
G75*
G02*
X129225000Y-48500000I-75000J0D01*
G01*
G37*
G04 #@! TD.AperFunction*
G04 #@! TO.P,U3,18*
G04 #@! TO.N,/P26*
G04 #@! TA.AperFunction,SMDPad,CuDef*
G36*
G01*
X129225000Y-48000000D02*
X127900000Y-48000000D01*
G75*
G02*
X127825000Y-47925000I0J75000D01*
G01*
X127825000Y-47775000D01*
G75*
G02*
X127900000Y-47700000I75000J0D01*
G01*
X129225000Y-47700000D01*
G75*
G02*
X129300000Y-47775000I0J-75000D01*
G01*
X129300000Y-47925000D01*
G75*
G02*
X129225000Y-48000000I-75000J0D01*
G01*
G37*
G04 #@! TD.AperFunction*
G04 #@! TO.P,U3,19*
G04 #@! TO.N,/P27*
G04 #@! TA.AperFunction,SMDPad,CuDef*
G36*
G01*
X129225000Y-47500000D02*
X127900000Y-47500000D01*
G75*
G02*
X127825000Y-47425000I0J75000D01*
G01*
X127825000Y-47275000D01*
G75*
G02*
X127900000Y-47200000I75000J0D01*
G01*
X129225000Y-47200000D01*
G75*
G02*
X129300000Y-47275000I0J-75000D01*
G01*
X129300000Y-47425000D01*
G75*
G02*
X129225000Y-47500000I-75000J0D01*
G01*
G37*
G04 #@! TD.AperFunction*
G04 #@! TO.P,U3,20*
G04 #@! TO.N,/BOOT1*
G04 #@! TA.AperFunction,SMDPad,CuDef*
G36*
G01*
X129225000Y-47000000D02*
X127900000Y-47000000D01*
G75*
G02*
X127825000Y-46925000I0J75000D01*
G01*
X127825000Y-46775000D01*
G75*
G02*
X127900000Y-46700000I75000J0D01*
G01*
X129225000Y-46700000D01*
G75*
G02*
X129300000Y-46775000I0J-75000D01*
G01*
X129300000Y-46925000D01*
G75*
G02*
X129225000Y-47000000I-75000J0D01*
G01*
G37*
G04 #@! TD.AperFunction*
G04 #@! TO.P,U3,21*
G04 #@! TO.N,/P28*
G04 #@! TA.AperFunction,SMDPad,CuDef*
G36*
G01*
X129225000Y-46500000D02*
X127900000Y-46500000D01*
G75*
G02*
X127825000Y-46425000I0J75000D01*
G01*
X127825000Y-46275000D01*
G75*
G02*
X127900000Y-46200000I75000J0D01*
G01*
X129225000Y-46200000D01*
G75*
G02*
X129300000Y-46275000I0J-75000D01*
G01*
X129300000Y-46425000D01*
G75*
G02*
X129225000Y-46500000I-75000J0D01*
G01*
G37*
G04 #@! TD.AperFunction*
G04 #@! TO.P,U3,22*
G04 #@! TO.N,/P29*
G04 #@! TA.AperFunction,SMDPad,CuDef*
G36*
G01*
X129225000Y-46000000D02*
X127900000Y-46000000D01*
G75*
G02*
X127825000Y-45925000I0J75000D01*
G01*
X127825000Y-45775000D01*
G75*
G02*
X127900000Y-45700000I75000J0D01*
G01*
X129225000Y-45700000D01*
G75*
G02*
X129300000Y-45775000I0J-75000D01*
G01*
X129300000Y-45925000D01*
G75*
G02*
X129225000Y-46000000I-75000J0D01*
G01*
G37*
G04 #@! TD.AperFunction*
G04 #@! TO.P,U3,23*
G04 #@! TO.N,GND*
G04 #@! TA.AperFunction,SMDPad,CuDef*
G36*
G01*
X129225000Y-45500000D02*
X127900000Y-45500000D01*
G75*
G02*
X127825000Y-45425000I0J75000D01*
G01*
X127825000Y-45275000D01*
G75*
G02*
X127900000Y-45200000I75000J0D01*
G01*
X129225000Y-45200000D01*
G75*
G02*
X129300000Y-45275000I0J-75000D01*
G01*
X129300000Y-45425000D01*
G75*
G02*
X129225000Y-45500000I-75000J0D01*
G01*
G37*
G04 #@! TD.AperFunction*
G04 #@! TO.P,U3,24*
G04 #@! TO.N,+3V3*
G04 #@! TA.AperFunction,SMDPad,CuDef*
G36*
G01*
X129225000Y-45000000D02*
X127900000Y-45000000D01*
G75*
G02*
X127825000Y-44925000I0J75000D01*
G01*
X127825000Y-44775000D01*
G75*
G02*
X127900000Y-44700000I75000J0D01*
G01*
X129225000Y-44700000D01*
G75*
G02*
X129300000Y-44775000I0J-75000D01*
G01*
X129300000Y-44925000D01*
G75*
G02*
X129225000Y-45000000I-75000J0D01*
G01*
G37*
G04 #@! TD.AperFunction*
G04 #@! TO.P,U3,25*
G04 #@! TO.N,/P1*
G04 #@! TA.AperFunction,SMDPad,CuDef*
G36*
G01*
X127225000Y-44175000D02*
X127075000Y-44175000D01*
G75*
G02*
X127000000Y-44100000I0J75000D01*
G01*
X127000000Y-42775000D01*
G75*
G02*
X127075000Y-42700000I75000J0D01*
G01*
X127225000Y-42700000D01*
G75*
G02*
X127300000Y-42775000I0J-75000D01*
G01*
X127300000Y-44100000D01*
G75*
G02*
X127225000Y-44175000I-75000J0D01*
G01*
G37*
G04 #@! TD.AperFunction*
G04 #@! TO.P,U3,26*
G04 #@! TO.N,/P2*
G04 #@! TA.AperFunction,SMDPad,CuDef*
G36*
G01*
X126725000Y-44175000D02*
X126575000Y-44175000D01*
G75*
G02*
X126500000Y-44100000I0J75000D01*
G01*
X126500000Y-42775000D01*
G75*
G02*
X126575000Y-42700000I75000J0D01*
G01*
X126725000Y-42700000D01*
G75*
G02*
X126800000Y-42775000I0J-75000D01*
G01*
X126800000Y-44100000D01*
G75*
G02*
X126725000Y-44175000I-75000J0D01*
G01*
G37*
G04 #@! TD.AperFunction*
G04 #@! TO.P,U3,27*
G04 #@! TO.N,/P3*
G04 #@! TA.AperFunction,SMDPad,CuDef*
G36*
G01*
X126225000Y-44175000D02*
X126075000Y-44175000D01*
G75*
G02*
X126000000Y-44100000I0J75000D01*
G01*
X126000000Y-42775000D01*
G75*
G02*
X126075000Y-42700000I75000J0D01*
G01*
X126225000Y-42700000D01*
G75*
G02*
X126300000Y-42775000I0J-75000D01*
G01*
X126300000Y-44100000D01*
G75*
G02*
X126225000Y-44175000I-75000J0D01*
G01*
G37*
G04 #@! TD.AperFunction*
G04 #@! TO.P,U3,28*
G04 #@! TO.N,/P4*
G04 #@! TA.AperFunction,SMDPad,CuDef*
G36*
G01*
X125725000Y-44175000D02*
X125575000Y-44175000D01*
G75*
G02*
X125500000Y-44100000I0J75000D01*
G01*
X125500000Y-42775000D01*
G75*
G02*
X125575000Y-42700000I75000J0D01*
G01*
X125725000Y-42700000D01*
G75*
G02*
X125800000Y-42775000I0J-75000D01*
G01*
X125800000Y-44100000D01*
G75*
G02*
X125725000Y-44175000I-75000J0D01*
G01*
G37*
G04 #@! TD.AperFunction*
G04 #@! TO.P,U3,29*
G04 #@! TO.N,/P5*
G04 #@! TA.AperFunction,SMDPad,CuDef*
G36*
G01*
X125225000Y-44175000D02*
X125075000Y-44175000D01*
G75*
G02*
X125000000Y-44100000I0J75000D01*
G01*
X125000000Y-42775000D01*
G75*
G02*
X125075000Y-42700000I75000J0D01*
G01*
X125225000Y-42700000D01*
G75*
G02*
X125300000Y-42775000I0J-75000D01*
G01*
X125300000Y-44100000D01*
G75*
G02*
X125225000Y-44175000I-75000J0D01*
G01*
G37*
G04 #@! TD.AperFunction*
G04 #@! TO.P,U3,30*
G04 #@! TO.N,/USART1_TX*
G04 #@! TA.AperFunction,SMDPad,CuDef*
G36*
G01*
X124725000Y-44175000D02*
X124575000Y-44175000D01*
G75*
G02*
X124500000Y-44100000I0J75000D01*
G01*
X124500000Y-42775000D01*
G75*
G02*
X124575000Y-42700000I75000J0D01*
G01*
X124725000Y-42700000D01*
G75*
G02*
X124800000Y-42775000I0J-75000D01*
G01*
X124800000Y-44100000D01*
G75*
G02*
X124725000Y-44175000I-75000J0D01*
G01*
G37*
G04 #@! TD.AperFunction*
G04 #@! TO.P,U3,31*
G04 #@! TO.N,/USART1_RX*
G04 #@! TA.AperFunction,SMDPad,CuDef*
G36*
G01*
X124225000Y-44175000D02*
X124075000Y-44175000D01*
G75*
G02*
X124000000Y-44100000I0J75000D01*
G01*
X124000000Y-42775000D01*
G75*
G02*
X124075000Y-42700000I75000J0D01*
G01*
X124225000Y-42700000D01*
G75*
G02*
X124300000Y-42775000I0J-75000D01*
G01*
X124300000Y-44100000D01*
G75*
G02*
X124225000Y-44175000I-75000J0D01*
G01*
G37*
G04 #@! TD.AperFunction*
G04 #@! TO.P,U3,32*
G04 #@! TO.N,/USBDM*
G04 #@! TA.AperFunction,SMDPad,CuDef*
G36*
G01*
X123725000Y-44175000D02*
X123575000Y-44175000D01*
G75*
G02*
X123500000Y-44100000I0J75000D01*
G01*
X123500000Y-42775000D01*
G75*
G02*
X123575000Y-42700000I75000J0D01*
G01*
X123725000Y-42700000D01*
G75*
G02*
X123800000Y-42775000I0J-75000D01*
G01*
X123800000Y-44100000D01*
G75*
G02*
X123725000Y-44175000I-75000J0D01*
G01*
G37*
G04 #@! TD.AperFunction*
G04 #@! TO.P,U3,33*
G04 #@! TO.N,/USBDP*
G04 #@! TA.AperFunction,SMDPad,CuDef*
G36*
G01*
X123225000Y-44175000D02*
X123075000Y-44175000D01*
G75*
G02*
X123000000Y-44100000I0J75000D01*
G01*
X123000000Y-42775000D01*
G75*
G02*
X123075000Y-42700000I75000J0D01*
G01*
X123225000Y-42700000D01*
G75*
G02*
X123300000Y-42775000I0J-75000D01*
G01*
X123300000Y-44100000D01*
G75*
G02*
X123225000Y-44175000I-75000J0D01*
G01*
G37*
G04 #@! TD.AperFunction*
G04 #@! TO.P,U3,34*
G04 #@! TO.N,/USB_PULLUP*
G04 #@! TA.AperFunction,SMDPad,CuDef*
G36*
G01*
X122725000Y-44175000D02*
X122575000Y-44175000D01*
G75*
G02*
X122500000Y-44100000I0J75000D01*
G01*
X122500000Y-42775000D01*
G75*
G02*
X122575000Y-42700000I75000J0D01*
G01*
X122725000Y-42700000D01*
G75*
G02*
X122800000Y-42775000I0J-75000D01*
G01*
X122800000Y-44100000D01*
G75*
G02*
X122725000Y-44175000I-75000J0D01*
G01*
G37*
G04 #@! TD.AperFunction*
G04 #@! TO.P,U3,35*
G04 #@! TO.N,GND*
G04 #@! TA.AperFunction,SMDPad,CuDef*
G36*
G01*
X122225000Y-44175000D02*
X122075000Y-44175000D01*
G75*
G02*
X122000000Y-44100000I0J75000D01*
G01*
X122000000Y-42775000D01*
G75*
G02*
X122075000Y-42700000I75000J0D01*
G01*
X122225000Y-42700000D01*
G75*
G02*
X122300000Y-42775000I0J-75000D01*
G01*
X122300000Y-44100000D01*
G75*
G02*
X122225000Y-44175000I-75000J0D01*
G01*
G37*
G04 #@! TD.AperFunction*
G04 #@! TO.P,U3,36*
G04 #@! TO.N,+3V3*
G04 #@! TA.AperFunction,SMDPad,CuDef*
G36*
G01*
X121725000Y-44175000D02*
X121575000Y-44175000D01*
G75*
G02*
X121500000Y-44100000I0J75000D01*
G01*
X121500000Y-42775000D01*
G75*
G02*
X121575000Y-42700000I75000J0D01*
G01*
X121725000Y-42700000D01*
G75*
G02*
X121800000Y-42775000I0J-75000D01*
G01*
X121800000Y-44100000D01*
G75*
G02*
X121725000Y-44175000I-75000J0D01*
G01*
G37*
G04 #@! TD.AperFunction*
G04 #@! TO.P,U3,37*
G04 #@! TO.N,/P6*
G04 #@! TA.AperFunction,SMDPad,CuDef*
G36*
G01*
X120900000Y-45000000D02*
X119575000Y-45000000D01*
G75*
G02*
X119500000Y-44925000I0J75000D01*
G01*
X119500000Y-44775000D01*
G75*
G02*
X119575000Y-44700000I75000J0D01*
G01*
X120900000Y-44700000D01*
G75*
G02*
X120975000Y-44775000I0J-75000D01*
G01*
X120975000Y-44925000D01*
G75*
G02*
X120900000Y-45000000I-75000J0D01*
G01*
G37*
G04 #@! TD.AperFunction*
G04 #@! TO.P,U3,38*
G04 #@! TO.N,/P7*
G04 #@! TA.AperFunction,SMDPad,CuDef*
G36*
G01*
X120900000Y-45500000D02*
X119575000Y-45500000D01*
G75*
G02*
X119500000Y-45425000I0J75000D01*
G01*
X119500000Y-45275000D01*
G75*
G02*
X119575000Y-45200000I75000J0D01*
G01*
X120900000Y-45200000D01*
G75*
G02*
X120975000Y-45275000I0J-75000D01*
G01*
X120975000Y-45425000D01*
G75*
G02*
X120900000Y-45500000I-75000J0D01*
G01*
G37*
G04 #@! TD.AperFunction*
G04 #@! TO.P,U3,39*
G04 #@! TO.N,/P8*
G04 #@! TA.AperFunction,SMDPad,CuDef*
G36*
G01*
X120900000Y-46000000D02*
X119575000Y-46000000D01*
G75*
G02*
X119500000Y-45925000I0J75000D01*
G01*
X119500000Y-45775000D01*
G75*
G02*
X119575000Y-45700000I75000J0D01*
G01*
X120900000Y-45700000D01*
G75*
G02*
X120975000Y-45775000I0J-75000D01*
G01*
X120975000Y-45925000D01*
G75*
G02*
X120900000Y-46000000I-75000J0D01*
G01*
G37*
G04 #@! TD.AperFunction*
G04 #@! TO.P,U3,40*
G04 #@! TO.N,/P9*
G04 #@! TA.AperFunction,SMDPad,CuDef*
G36*
G01*
X120900000Y-46500000D02*
X119575000Y-46500000D01*
G75*
G02*
X119500000Y-46425000I0J75000D01*
G01*
X119500000Y-46275000D01*
G75*
G02*
X119575000Y-46200000I75000J0D01*
G01*
X120900000Y-46200000D01*
G75*
G02*
X120975000Y-46275000I0J-75000D01*
G01*
X120975000Y-46425000D01*
G75*
G02*
X120900000Y-46500000I-75000J0D01*
G01*
G37*
G04 #@! TD.AperFunction*
G04 #@! TO.P,U3,41*
G04 #@! TO.N,/P10*
G04 #@! TA.AperFunction,SMDPad,CuDef*
G36*
G01*
X120900000Y-47000000D02*
X119575000Y-47000000D01*
G75*
G02*
X119500000Y-46925000I0J75000D01*
G01*
X119500000Y-46775000D01*
G75*
G02*
X119575000Y-46700000I75000J0D01*
G01*
X120900000Y-46700000D01*
G75*
G02*
X120975000Y-46775000I0J-75000D01*
G01*
X120975000Y-46925000D01*
G75*
G02*
X120900000Y-47000000I-75000J0D01*
G01*
G37*
G04 #@! TD.AperFunction*
G04 #@! TO.P,U3,42*
G04 #@! TO.N,/P11*
G04 #@! TA.AperFunction,SMDPad,CuDef*
G36*
G01*
X120900000Y-47500000D02*
X119575000Y-47500000D01*
G75*
G02*
X119500000Y-47425000I0J75000D01*
G01*
X119500000Y-47275000D01*
G75*
G02*
X119575000Y-47200000I75000J0D01*
G01*
X120900000Y-47200000D01*
G75*
G02*
X120975000Y-47275000I0J-75000D01*
G01*
X120975000Y-47425000D01*
G75*
G02*
X120900000Y-47500000I-75000J0D01*
G01*
G37*
G04 #@! TD.AperFunction*
G04 #@! TO.P,U3,43*
G04 #@! TO.N,/P12*
G04 #@! TA.AperFunction,SMDPad,CuDef*
G36*
G01*
X120900000Y-48000000D02*
X119575000Y-48000000D01*
G75*
G02*
X119500000Y-47925000I0J75000D01*
G01*
X119500000Y-47775000D01*
G75*
G02*
X119575000Y-47700000I75000J0D01*
G01*
X120900000Y-47700000D01*
G75*
G02*
X120975000Y-47775000I0J-75000D01*
G01*
X120975000Y-47925000D01*
G75*
G02*
X120900000Y-48000000I-75000J0D01*
G01*
G37*
G04 #@! TD.AperFunction*
G04 #@! TO.P,U3,44*
G04 #@! TO.N,/BOOT0*
G04 #@! TA.AperFunction,SMDPad,CuDef*
G36*
G01*
X120900000Y-48500000D02*
X119575000Y-48500000D01*
G75*
G02*
X119500000Y-48425000I0J75000D01*
G01*
X119500000Y-48275000D01*
G75*
G02*
X119575000Y-48200000I75000J0D01*
G01*
X120900000Y-48200000D01*
G75*
G02*
X120975000Y-48275000I0J-75000D01*
G01*
X120975000Y-48425000D01*
G75*
G02*
X120900000Y-48500000I-75000J0D01*
G01*
G37*
G04 #@! TD.AperFunction*
G04 #@! TO.P,U3,45*
G04 #@! TO.N,/P13*
G04 #@! TA.AperFunction,SMDPad,CuDef*
G36*
G01*
X120900000Y-49000000D02*
X119575000Y-49000000D01*
G75*
G02*
X119500000Y-48925000I0J75000D01*
G01*
X119500000Y-48775000D01*
G75*
G02*
X119575000Y-48700000I75000J0D01*
G01*
X120900000Y-48700000D01*
G75*
G02*
X120975000Y-48775000I0J-75000D01*
G01*
X120975000Y-48925000D01*
G75*
G02*
X120900000Y-49000000I-75000J0D01*
G01*
G37*
G04 #@! TD.AperFunction*
G04 #@! TO.P,U3,46*
G04 #@! TO.N,/P14*
G04 #@! TA.AperFunction,SMDPad,CuDef*
G36*
G01*
X120900000Y-49500000D02*
X119575000Y-49500000D01*
G75*
G02*
X119500000Y-49425000I0J75000D01*
G01*
X119500000Y-49275000D01*
G75*
G02*
X119575000Y-49200000I75000J0D01*
G01*
X120900000Y-49200000D01*
G75*
G02*
X120975000Y-49275000I0J-75000D01*
G01*
X120975000Y-49425000D01*
G75*
G02*
X120900000Y-49500000I-75000J0D01*
G01*
G37*
G04 #@! TD.AperFunction*
G04 #@! TO.P,U3,47*
G04 #@! TO.N,GND*
G04 #@! TA.AperFunction,SMDPad,CuDef*
G36*
G01*
X120900000Y-50000000D02*
X119575000Y-50000000D01*
G75*
G02*
X119500000Y-49925000I0J75000D01*
G01*
X119500000Y-49775000D01*
G75*
G02*
X119575000Y-49700000I75000J0D01*
G01*
X120900000Y-49700000D01*
G75*
G02*
X120975000Y-49775000I0J-75000D01*
G01*
X120975000Y-49925000D01*
G75*
G02*
X120900000Y-50000000I-75000J0D01*
G01*
G37*
G04 #@! TD.AperFunction*
G04 #@! TO.P,U3,48*
G04 #@! TO.N,+3V3*
G04 #@! TA.AperFunction,SMDPad,CuDef*
G36*
G01*
X120900000Y-50500000D02*
X119575000Y-50500000D01*
G75*
G02*
X119500000Y-50425000I0J75000D01*
G01*
X119500000Y-50275000D01*
G75*
G02*
X119575000Y-50200000I75000J0D01*
G01*
X120900000Y-50200000D01*
G75*
G02*
X120975000Y-50275000I0J-75000D01*
G01*
X120975000Y-50425000D01*
G75*
G02*
X120900000Y-50500000I-75000J0D01*
G01*
G37*
G04 #@! TD.AperFunction*
G04 #@! TD*
D22*
G04 #@! TO.P,Y1,1*
G04 #@! TO.N,Net-(C13-Pad1)*
X123330000Y-59560000D03*
G04 #@! TO.P,Y1,2*
G04 #@! TO.N,Net-(C14-Pad1)*
X128210000Y-59560000D03*
G04 #@! TD*
D23*
G04 #@! TO.N,+5V*
X137709700Y-49882600D03*
G04 #@! TO.N,+3V3*
X128849100Y-53450200D03*
X121495900Y-56701100D03*
X125476000Y-53062900D03*
X120923000Y-51035400D03*
G04 #@! TO.N,/NRST*
X125035800Y-55536000D03*
G04 #@! TO.N,/USBDM*
X133564600Y-48093300D03*
X123650000Y-44575700D03*
G04 #@! TO.N,/P1*
X126590700Y-42197800D03*
G04 #@! TO.N,/P2*
X126762700Y-44584200D03*
G04 #@! TO.N,/P3*
X126099700Y-44629000D03*
G04 #@! TO.N,/P4*
X125650000Y-42054200D03*
G04 #@! TO.N,/P5*
X125150000Y-44583000D03*
G04 #@! TO.N,/P7*
X121380500Y-45067500D03*
G04 #@! TO.N,/P12*
X118804900Y-47825100D03*
G04 #@! TO.N,/P16*
X122518900Y-49965000D03*
G04 #@! TO.N,/P19*
X125233800Y-50284500D03*
G04 #@! TO.N,/P22*
X127419300Y-49918500D03*
G04 #@! TO.N,/P23*
X129302800Y-50923600D03*
G04 #@! TO.N,/P24*
X126754400Y-50318800D03*
G04 #@! TO.N,/P25*
X129016700Y-51758100D03*
G04 #@! TO.N,/P26*
X127408900Y-47850000D03*
G04 #@! TO.N,/P28*
X127414100Y-46350000D03*
G04 #@! TO.N,/P29*
X131129000Y-51969100D03*
G04 #@! TO.N,Net-(C13-Pad1)*
X120410600Y-60145500D03*
G04 #@! TO.N,Net-(C14-Pad1)*
X124526100Y-56045800D03*
G04 #@! TD*
D24*
G04 #@! TO.N,GND*
X137969700Y-51520000D02*
X136825000Y-52664700D01*
X136825000Y-52664700D02*
X136825000Y-55800000D01*
X137969700Y-51520000D02*
X137809700Y-51360000D01*
X137809700Y-51360000D02*
X137809700Y-50800000D01*
X137809700Y-50800000D02*
X137809700Y-50400000D01*
X136025000Y-50800000D02*
X137809700Y-50800000D01*
X139270000Y-51520000D02*
X137969700Y-51520000D01*
X122559500Y-48360700D02*
X125150000Y-50951200D01*
X125150000Y-50951200D02*
X125150000Y-51762500D01*
X122559500Y-48360700D02*
X123212900Y-47707300D01*
X123212900Y-47707300D02*
X123212900Y-45599600D01*
X120237500Y-49850000D02*
X121070200Y-49850000D01*
X121070200Y-49850000D02*
X122559500Y-48360700D01*
X123212900Y-45599600D02*
X127110500Y-45599600D01*
X127110500Y-45599600D02*
X127360100Y-45350000D01*
X127360100Y-45350000D02*
X128562500Y-45350000D01*
X122150000Y-44536700D02*
X123212900Y-45599600D01*
X130800000Y-40000000D02*
X130800000Y-41800000D01*
X130800000Y-37169500D02*
X130800000Y-40000000D01*
X134290300Y-37084700D02*
X134375000Y-37000000D01*
X130800000Y-37169500D02*
X134205500Y-37169500D01*
X134205500Y-37169500D02*
X134290300Y-37084700D01*
X137969700Y-39080200D02*
X136285700Y-39080200D01*
X136285700Y-39080200D02*
X134290300Y-37084700D01*
X137969700Y-39080200D02*
X137969700Y-39920000D01*
X138249900Y-38800000D02*
X137969700Y-39080200D01*
X129405500Y-35775000D02*
X130800000Y-37169500D01*
X132750000Y-57475000D02*
X133533500Y-58258500D01*
X133533500Y-58258500D02*
X133533500Y-62641500D01*
X133533500Y-62641500D02*
X131200000Y-64975000D01*
X130200000Y-55875000D02*
X131800000Y-57475000D01*
X131800000Y-57475000D02*
X132750000Y-57475000D01*
X119200000Y-35775000D02*
X118414700Y-34989700D01*
X118414700Y-34989700D02*
X118414700Y-33780600D01*
X118414700Y-33780600D02*
X119946000Y-32249300D01*
X119946000Y-32249300D02*
X121738200Y-32249300D01*
X121738200Y-32249300D02*
X122987500Y-31000000D01*
X119600000Y-35775000D02*
X119200000Y-35775000D01*
X119600000Y-35775000D02*
X121000000Y-35775000D01*
X119600000Y-35775000D02*
X119600000Y-41825000D01*
X122150000Y-44536700D02*
X121336700Y-44536700D01*
X121336700Y-44536700D02*
X121062800Y-44262800D01*
X121062800Y-44262800D02*
X119216600Y-44262800D01*
X119216600Y-44262800D02*
X118801300Y-43847500D01*
X118801300Y-43847500D02*
X118801300Y-42623700D01*
X118801300Y-42623700D02*
X119600000Y-41825000D01*
X134450000Y-70300000D02*
X140950000Y-70300000D01*
X119570200Y-57475000D02*
X122744300Y-60649100D01*
X122744300Y-60649100D02*
X123732400Y-60649100D01*
X123732400Y-60649100D02*
X125112800Y-59268700D01*
X125112800Y-59268700D02*
X125112800Y-56339400D01*
X125112800Y-56339400D02*
X125558800Y-55893400D01*
X125558800Y-55893400D02*
X125558800Y-54282200D01*
X125558800Y-54282200D02*
X124975700Y-53699100D01*
X124975700Y-53699100D02*
X124975700Y-52855700D01*
X124975700Y-52855700D02*
X125150000Y-52681400D01*
X125150000Y-52681400D02*
X125150000Y-51762500D01*
X129050100Y-33441800D02*
X127958500Y-33441800D01*
X127958500Y-33441800D02*
X127050300Y-34350000D01*
X129405500Y-35775000D02*
X129405500Y-33797200D01*
X129405500Y-33797200D02*
X129050100Y-33441800D01*
X129050100Y-33441800D02*
X130100900Y-32391000D01*
X130100900Y-32391000D02*
X130100900Y-30495800D01*
X130100900Y-30495800D02*
X129800000Y-30194900D01*
X129800000Y-30194900D02*
X127031600Y-30194900D01*
X127031600Y-30194900D02*
X126723900Y-30502600D01*
X126723900Y-30502600D02*
X126723900Y-31276500D01*
X126723900Y-31276500D02*
X126182800Y-31817600D01*
X126182800Y-31817600D02*
X123805100Y-31817600D01*
X123805100Y-31817600D02*
X122987500Y-31000000D01*
X128600000Y-35775000D02*
X129405500Y-35775000D01*
X126300000Y-34350000D02*
X127050300Y-34350000D01*
X122150000Y-44536700D02*
X122150000Y-43437500D01*
X119570200Y-57475000D02*
X118750000Y-57475000D01*
X119570200Y-57475000D02*
X119570200Y-55704800D01*
X119570200Y-55704800D02*
X120950000Y-54325000D01*
X138619900Y-42880000D02*
X137969700Y-42880000D01*
X139270000Y-42880000D02*
X138619900Y-42880000D01*
X138619900Y-39920000D02*
X137969700Y-39920000D01*
X139270000Y-39920000D02*
X138619900Y-39920000D01*
X138619900Y-42880000D02*
X138619900Y-39920000D01*
X138690000Y-38800000D02*
X138249900Y-38800000D01*
X134375000Y-34800000D02*
X134375000Y-30912700D01*
X134375000Y-30912700D02*
X134613100Y-30674600D01*
X134613100Y-30674600D02*
X137044300Y-30674600D01*
X137044300Y-30674600D02*
X137809700Y-31440000D01*
X137809700Y-31440000D02*
X137969700Y-31280000D01*
X137809700Y-32400000D02*
X137809700Y-31440000D01*
X138690000Y-32400000D02*
X137809700Y-32400000D01*
X139270000Y-31280000D02*
X137969700Y-31280000D01*
X120950000Y-54325000D02*
X122700000Y-54325000D01*
X134375000Y-34800000D02*
X134375000Y-37000000D01*
X143546200Y-70671200D02*
X143700000Y-70825000D01*
X139270000Y-31280000D02*
X143440000Y-31280000D01*
X115400000Y-70250000D02*
X116550300Y-70250000D01*
X131200000Y-70875000D02*
X130478300Y-71596700D01*
X130478300Y-71596700D02*
X117897000Y-71596700D01*
X117897000Y-71596700D02*
X116550300Y-70250000D01*
X138690000Y-50400000D02*
X137809700Y-50400000D01*
X143440000Y-42880000D02*
X143440000Y-51520000D01*
X143440000Y-39920000D02*
X143440000Y-42880000D01*
X137969700Y-42880000D02*
X137809700Y-43040000D01*
X137809700Y-43040000D02*
X137809700Y-44000000D01*
X130200000Y-55875000D02*
X128450000Y-55875000D01*
X136025000Y-44400000D02*
X136425000Y-44000000D01*
X136425000Y-44000000D02*
X137809700Y-44000000D01*
X138690000Y-44000000D02*
X137809700Y-44000000D01*
X145182310Y-69342690D02*
X143700000Y-70825000D01*
X143440000Y-51520000D02*
X145182310Y-53262310D01*
X145165000Y-58965000D02*
X145182310Y-58982310D01*
X145182310Y-53262310D02*
X145182310Y-58982310D01*
X143475000Y-58965000D02*
X145165000Y-58965000D01*
X145182310Y-58982310D02*
X145182310Y-69342690D01*
X141475000Y-70825000D02*
X140950000Y-70300000D01*
X143700000Y-70825000D02*
X141475000Y-70825000D01*
X133875000Y-70875000D02*
X134450000Y-70300000D01*
X132376210Y-66151210D02*
X132376210Y-70776210D01*
X131200000Y-70875000D02*
X132475000Y-70875000D01*
X131200000Y-64975000D02*
X132376210Y-66151210D01*
X132475000Y-70875000D02*
X133875000Y-70875000D01*
G04 #@! TO.N,+5V*
X137809700Y-49600000D02*
X137709700Y-49700000D01*
X137709700Y-49700000D02*
X137709700Y-49882600D01*
X138690000Y-49600000D02*
X137809700Y-49600000D01*
X138690000Y-38000000D02*
X138818200Y-37871800D01*
X138818200Y-37871800D02*
X139981800Y-37871800D01*
X139981800Y-37871800D02*
X140600000Y-38490000D01*
X140600000Y-38490000D02*
X140600000Y-44350100D01*
X140600000Y-44350100D02*
X139674100Y-45276000D01*
X138690000Y-38000000D02*
X135816100Y-38000000D01*
X135816100Y-38000000D02*
X135323800Y-37507700D01*
X135323800Y-37507700D02*
X135323800Y-33200000D01*
X139674100Y-45276000D02*
X139198000Y-44800000D01*
X139198000Y-44800000D02*
X138690000Y-44800000D01*
X138690000Y-49600000D02*
X139237100Y-49600000D01*
X139237100Y-49600000D02*
X140010500Y-48826600D01*
X140010500Y-48826600D02*
X140010500Y-45612500D01*
X140010500Y-45612500D02*
X139674100Y-45276000D01*
X135323800Y-33200000D02*
X135323800Y-31999100D01*
X135323800Y-31999100D02*
X135050000Y-31725300D01*
X138690000Y-33200000D02*
X135323800Y-33200000D01*
X135050000Y-31200000D02*
X135050000Y-31725300D01*
G04 #@! TO.N,+3V3*
X128562500Y-44850000D02*
X129361300Y-44850000D01*
X129361300Y-44850000D02*
X131639800Y-47128500D01*
X131639800Y-47128500D02*
X131639800Y-53916900D01*
X131639800Y-53916900D02*
X131231700Y-54325000D01*
X138375000Y-56576600D02*
X136317800Y-56576600D01*
X136317800Y-56576600D02*
X133644600Y-53903400D01*
X133644600Y-53903400D02*
X133644600Y-50330500D01*
X133644600Y-50330500D02*
X133951300Y-50023800D01*
X133951300Y-50023800D02*
X134151500Y-50023800D01*
X134151500Y-50023800D02*
X135124200Y-49051100D01*
X135124200Y-49051100D02*
X135124200Y-46148900D01*
X135124200Y-46148900D02*
X134282600Y-45307300D01*
X134282600Y-45307300D02*
X132757300Y-45307300D01*
X132757300Y-45307300D02*
X129250000Y-41800000D01*
X128849100Y-53450200D02*
X129723900Y-54325000D01*
X129723900Y-54325000D02*
X130200000Y-54325000D01*
X128849100Y-53450200D02*
X128450000Y-53849300D01*
X128450000Y-53849300D02*
X128450000Y-54325000D01*
X121650000Y-43375000D02*
X121650000Y-43437500D01*
X119600000Y-43375000D02*
X121650000Y-43375000D01*
X121650000Y-43375000D02*
X121650000Y-39742200D01*
X121650000Y-39742200D02*
X123581900Y-37810300D01*
X126593800Y-36231200D02*
X128600000Y-34225000D01*
X121495900Y-55875000D02*
X122700000Y-55875000D01*
X120950000Y-55875000D02*
X121495900Y-55875000D01*
X121495900Y-56701100D02*
X121495900Y-55875000D01*
X131231700Y-54325000D02*
X131231700Y-54567500D01*
X131231700Y-54567500D02*
X138169200Y-61505000D01*
X138169200Y-61505000D02*
X138525000Y-61505000D01*
X130200000Y-54325000D02*
X131231700Y-54325000D01*
X125476000Y-53062900D02*
X125650000Y-52888900D01*
X125650000Y-52888900D02*
X125650000Y-51762500D01*
X120923000Y-51035400D02*
X121650000Y-51762500D01*
X120237500Y-50350000D02*
X120923000Y-51035400D01*
X139582100Y-60857100D02*
X138934200Y-61505000D01*
X138934200Y-61505000D02*
X138525000Y-61505000D01*
X129250000Y-40000000D02*
X129250000Y-41800000D01*
X116935300Y-68860300D02*
X118950000Y-70875000D01*
X114010300Y-67710000D02*
X114010300Y-67997700D01*
X114010300Y-67997700D02*
X114872900Y-68860300D01*
X114872900Y-68860300D02*
X116935300Y-68860300D01*
X118950000Y-64975000D02*
X116935300Y-66989700D01*
X116935300Y-66989700D02*
X116935300Y-68860300D01*
X112860000Y-67710000D02*
X114010300Y-67710000D01*
X138375000Y-56576600D02*
X138375000Y-57545000D01*
X138375000Y-57545000D02*
X138525000Y-57695000D01*
X138375000Y-55800000D02*
X138375000Y-56576600D01*
X139582100Y-60857100D02*
X139823800Y-60615400D01*
X139823800Y-60615400D02*
X139823800Y-58600100D01*
X139823800Y-58600100D02*
X138918700Y-57695000D01*
X138918700Y-57695000D02*
X138525000Y-57695000D01*
X139582100Y-60857100D02*
X143700000Y-64975000D01*
X126593700Y-36231300D02*
X126593700Y-37806300D01*
X126593800Y-36231200D02*
X126593700Y-36231300D01*
X129179400Y-40000000D02*
X126989700Y-37810300D01*
X129250000Y-40000000D02*
X129179400Y-40000000D01*
X126589700Y-37810300D02*
X126593700Y-37806300D01*
X126989700Y-37810300D02*
X126589700Y-37810300D01*
X124800000Y-37800000D02*
X124810300Y-37810300D01*
X124800000Y-34437500D02*
X124800000Y-37800000D01*
X123581900Y-37810300D02*
X124810300Y-37810300D01*
X124810300Y-37810300D02*
X126589700Y-37810300D01*
G04 #@! TO.N,/NRST*
X124650000Y-51762500D02*
X124650000Y-52615300D01*
X124650000Y-52615300D02*
X124575400Y-52689900D01*
X124575400Y-52689900D02*
X124575400Y-55075600D01*
X124575400Y-55075600D02*
X125035800Y-55536000D01*
X143700000Y-66625000D02*
X143700000Y-69275000D01*
X140950000Y-65800000D02*
X141775000Y-66625000D01*
X141775000Y-66625000D02*
X143700000Y-66625000D01*
G04 #@! TO.N,Net-(J1-PadB5)*
X136025000Y-34800000D02*
X136975000Y-33850000D01*
X136975000Y-33850000D02*
X138690000Y-33850000D01*
G04 #@! TO.N,Net-(J1-PadA6)*
X139570300Y-35850000D02*
X138690000Y-35850000D01*
X142600000Y-53575000D02*
X142178500Y-53153500D01*
X142178500Y-53153500D02*
X142178500Y-38383300D01*
X142178500Y-38383300D02*
X139645200Y-35850000D01*
X139645200Y-35850000D02*
X139570300Y-35850000D01*
X139570300Y-34850000D02*
X139570300Y-35850000D01*
X138690000Y-34850000D02*
X139570300Y-34850000D01*
G04 #@! TO.N,Net-(J1-PadA5)*
X136025000Y-37000000D02*
X136175000Y-36850000D01*
X136175000Y-36850000D02*
X138690000Y-36850000D01*
G04 #@! TO.N,Net-(J1-PadA7)*
X138690000Y-36350000D02*
X139570300Y-36350000D01*
X140600000Y-53575000D02*
X141007300Y-53167700D01*
X141007300Y-53167700D02*
X141007300Y-37787000D01*
X141007300Y-37787000D02*
X139570300Y-36350000D01*
X138690000Y-36350000D02*
X137809700Y-36350000D01*
X138690000Y-35350000D02*
X137809700Y-35350000D01*
X137809700Y-35350000D02*
X137809700Y-36350000D01*
G04 #@! TO.N,Net-(J2-PadB5)*
X134375000Y-44400000D02*
X135425000Y-45450000D01*
X135425000Y-45450000D02*
X138690000Y-45450000D01*
G04 #@! TO.N,Net-(J2-PadA6)*
X138690000Y-46450000D02*
X139570300Y-46450000D01*
X138690000Y-47450000D02*
X139570300Y-47450000D01*
X139570300Y-47450000D02*
X139570300Y-46450000D01*
X136025000Y-46600000D02*
X136175000Y-46450000D01*
X136175000Y-46450000D02*
X138690000Y-46450000D01*
G04 #@! TO.N,Net-(J2-PadA5)*
X134375000Y-50800000D02*
X135475000Y-49700000D01*
X135475000Y-49700000D02*
X136138500Y-49700000D01*
X136138500Y-49700000D02*
X137388500Y-48450000D01*
X137388500Y-48450000D02*
X138690000Y-48450000D01*
G04 #@! TO.N,Net-(J2-PadA7)*
X137809700Y-47950000D02*
X138690000Y-47950000D01*
X136025000Y-48600000D02*
X136675000Y-47950000D01*
X136675000Y-47950000D02*
X137809700Y-47950000D01*
X137809700Y-47950000D02*
X137809700Y-46950000D01*
X138690000Y-46950000D02*
X137809700Y-46950000D01*
G04 #@! TO.N,Net-(R1-Pad2)*
X121300000Y-69290000D02*
X119015000Y-69290000D01*
X119015000Y-69290000D02*
X118950000Y-69225000D01*
G04 #@! TO.N,Net-(R2-Pad1)*
X121300000Y-66750000D02*
X119075000Y-66750000D01*
X119075000Y-66750000D02*
X118950000Y-66625000D01*
G04 #@! TO.N,Net-(R5-Pad1)*
X143475000Y-61505000D02*
X143851400Y-61505000D01*
X143851400Y-61505000D02*
X144782300Y-60574100D01*
X144782300Y-60574100D02*
X144782300Y-59922800D01*
X144782300Y-59922800D02*
X144459500Y-59600000D01*
X144459500Y-59600000D02*
X142451600Y-59600000D01*
X142451600Y-59600000D02*
X142182700Y-59331100D01*
X142182700Y-59331100D02*
X142182700Y-55642300D01*
X142182700Y-55642300D02*
X142600000Y-55225000D01*
G04 #@! TO.N,/BOOT1*
X128920000Y-69290000D02*
X128920000Y-68739800D01*
X129417300Y-46850000D02*
X128562500Y-46850000D01*
X130831500Y-48264200D02*
X129417300Y-46850000D01*
X130831500Y-51234700D02*
X130831500Y-48264200D01*
X129343600Y-52722600D02*
X130831500Y-51234700D01*
X127125000Y-67495000D02*
X127125000Y-57157700D01*
X128920000Y-69290000D02*
X127125000Y-67495000D01*
X127125000Y-57157700D02*
X127635200Y-56647500D01*
X127635200Y-56647500D02*
X127635200Y-53865200D01*
X127635200Y-53865200D02*
X128777800Y-52722600D01*
X128777800Y-52722600D02*
X129343600Y-52722600D01*
X128985000Y-69225000D02*
X128920000Y-69290000D01*
X131200000Y-69225000D02*
X128985000Y-69225000D01*
G04 #@! TO.N,/BOOT0*
X120237500Y-48350000D02*
X118287000Y-48350000D01*
X118287000Y-48350000D02*
X116141900Y-46204900D01*
X116141900Y-46204900D02*
X112304000Y-46204900D01*
X112304000Y-46204900D02*
X111706900Y-46802000D01*
X111706900Y-46802000D02*
X111706900Y-55542100D01*
X111706900Y-55542100D02*
X112564400Y-56399600D01*
X112564400Y-56399600D02*
X113347300Y-56399600D01*
X113347300Y-56399600D02*
X114130000Y-57182300D01*
X114130000Y-57182300D02*
X114130000Y-65555400D01*
X114130000Y-65555400D02*
X114894900Y-66320300D01*
X114894900Y-66320300D02*
X115993900Y-66320300D01*
X115993900Y-66320300D02*
X118040400Y-64273800D01*
X118040400Y-64273800D02*
X122170300Y-64273800D01*
X122170300Y-64273800D02*
X128304600Y-70408100D01*
X128304600Y-70408100D02*
X130389800Y-70408100D01*
X130389800Y-70408100D02*
X130747900Y-70050000D01*
X130747900Y-70050000D02*
X131592400Y-70050000D01*
X131592400Y-70050000D02*
X131976200Y-69666200D01*
X131976200Y-69666200D02*
X131976200Y-67401200D01*
X131976200Y-67401200D02*
X131200000Y-66625000D01*
X128920000Y-66750000D02*
X131075000Y-66750000D01*
X131075000Y-66750000D02*
X131200000Y-66625000D01*
G04 #@! TO.N,/USBDP*
X124404100Y-41096800D02*
X127046500Y-41096800D01*
X127046500Y-41096800D02*
X128800300Y-42850600D01*
X128800300Y-42850600D02*
X129208700Y-42850600D01*
X129208700Y-42850600D02*
X132958100Y-46600000D01*
X132958100Y-46600000D02*
X134375000Y-46600000D01*
X124404100Y-41096800D02*
X123150000Y-42350900D01*
X123150000Y-42350900D02*
X123150000Y-43437500D01*
X124225000Y-40000000D02*
X124404100Y-40179100D01*
X124404100Y-40179100D02*
X124404100Y-41096800D01*
G04 #@! TO.N,/USB_PULLUP*
X122650000Y-43437500D02*
X122650000Y-40075000D01*
X122650000Y-40075000D02*
X122575000Y-40000000D01*
G04 #@! TO.N,/USBDM*
X134375000Y-48600000D02*
X133868300Y-48093300D01*
X133868300Y-48093300D02*
X133564600Y-48093300D01*
X123650000Y-43437500D02*
X123650000Y-44575700D01*
G04 #@! TO.N,/USART1_TX*
X124650000Y-43437500D02*
X124650000Y-44342100D01*
X124650000Y-44342100D02*
X124587400Y-44404700D01*
X124587400Y-44404700D02*
X124587400Y-44742300D01*
X124587400Y-44742300D02*
X124983500Y-45138400D01*
X124983500Y-45138400D02*
X126933500Y-45138400D01*
X126933500Y-45138400D02*
X127729600Y-44342300D01*
X127729600Y-44342300D02*
X129420000Y-44342300D01*
X129420000Y-44342300D02*
X132040200Y-46962500D01*
X132040200Y-46962500D02*
X132040200Y-54200700D01*
X132040200Y-54200700D02*
X138074500Y-60235000D01*
X138074500Y-60235000D02*
X138525000Y-60235000D01*
G04 #@! TO.N,/USART1_RX*
X138525000Y-58965000D02*
X138119100Y-58965000D01*
X138119100Y-58965000D02*
X132841200Y-53687100D01*
X132841200Y-53687100D02*
X132841200Y-47174500D01*
X132841200Y-47174500D02*
X129059300Y-43392600D01*
X129059300Y-43392600D02*
X128493200Y-43392600D01*
X128493200Y-43392600D02*
X126612000Y-41511400D01*
X126612000Y-41511400D02*
X125285900Y-41511400D01*
X125285900Y-41511400D02*
X124150000Y-42647300D01*
X124150000Y-42647300D02*
X124150000Y-43437500D01*
G04 #@! TO.N,/P1*
X126590700Y-42197800D02*
X126732300Y-42197800D01*
X126732300Y-42197800D02*
X127150000Y-42615500D01*
X127150000Y-42615500D02*
X127150000Y-43437500D01*
G04 #@! TO.N,/P2*
X126650000Y-43437500D02*
X126650000Y-44471500D01*
X126650000Y-44471500D02*
X126762700Y-44584200D01*
G04 #@! TO.N,/P3*
X126150000Y-43437500D02*
X126150000Y-44578700D01*
X126150000Y-44578700D02*
X126099700Y-44629000D01*
G04 #@! TO.N,/P4*
X125650000Y-43437500D02*
X125650000Y-42054200D01*
G04 #@! TO.N,/P5*
X125150000Y-43437500D02*
X125150000Y-44583000D01*
G04 #@! TO.N,/P6*
X112860000Y-37230000D02*
X114010300Y-37230000D01*
X120237500Y-44850000D02*
X119224700Y-44850000D01*
X119224700Y-44850000D02*
X117477200Y-43102500D01*
X117477200Y-43102500D02*
X117477200Y-40218300D01*
X117477200Y-40218300D02*
X115758900Y-38500000D01*
X115758900Y-38500000D02*
X115041900Y-38500000D01*
X115041900Y-38500000D02*
X114010300Y-37468400D01*
X114010300Y-37468400D02*
X114010300Y-37230000D01*
G04 #@! TO.N,/P7*
X120237500Y-45350000D02*
X121098000Y-45350000D01*
X121098000Y-45350000D02*
X121380500Y-45067500D01*
G04 #@! TO.N,/P8*
X112860000Y-39770000D02*
X114010300Y-39770000D01*
X120237500Y-45850000D02*
X119455200Y-45850000D01*
X119455200Y-45850000D02*
X116850200Y-43245000D01*
X116850200Y-43245000D02*
X116850200Y-42128600D01*
X116850200Y-42128600D02*
X115761600Y-41040000D01*
X115761600Y-41040000D02*
X115041900Y-41040000D01*
X115041900Y-41040000D02*
X114010300Y-40008400D01*
X114010300Y-40008400D02*
X114010300Y-39770000D01*
G04 #@! TO.N,/P9*
X120237500Y-46350000D02*
X119388900Y-46350000D01*
X119388900Y-46350000D02*
X115400000Y-42361100D01*
X115400000Y-42361100D02*
X115400000Y-42310000D01*
G04 #@! TO.N,/P10*
X114010300Y-42310000D02*
X114010300Y-42548400D01*
X114010300Y-42548400D02*
X115041900Y-43580000D01*
X115041900Y-43580000D02*
X115867800Y-43580000D01*
X115867800Y-43580000D02*
X119137800Y-46850000D01*
X119137800Y-46850000D02*
X120237500Y-46850000D01*
X112860000Y-42310000D02*
X114010300Y-42310000D01*
G04 #@! TO.N,/P11*
X116550300Y-44850000D02*
X119050300Y-47350000D01*
X119050300Y-47350000D02*
X120237500Y-47350000D01*
X115400000Y-44850000D02*
X116550300Y-44850000D01*
G04 #@! TO.N,/P12*
X120237500Y-47850000D02*
X118829800Y-47850000D01*
X118829800Y-47850000D02*
X118804900Y-47825100D01*
G04 #@! TO.N,/P13*
X115400000Y-47390000D02*
X116550300Y-47390000D01*
X116550300Y-47390000D02*
X118010300Y-48850000D01*
X118010300Y-48850000D02*
X120237500Y-48850000D01*
G04 #@! TO.N,/P14*
X112860000Y-47390000D02*
X114010300Y-47390000D01*
X120237500Y-49350000D02*
X117395800Y-49350000D01*
X117395800Y-49350000D02*
X116825400Y-48779600D01*
X116825400Y-48779600D02*
X115161500Y-48779600D01*
X115161500Y-48779600D02*
X114010300Y-47628400D01*
X114010300Y-47628400D02*
X114010300Y-47390000D01*
G04 #@! TO.N,/P15*
X122150000Y-51762500D02*
X122150000Y-52546500D01*
X122150000Y-52546500D02*
X121890900Y-52805600D01*
X121890900Y-52805600D02*
X119425900Y-52805600D01*
X119425900Y-52805600D02*
X116550300Y-49930000D01*
X115400000Y-49930000D02*
X116550300Y-49930000D01*
G04 #@! TO.N,/P16*
X122650000Y-51762500D02*
X122650000Y-50096100D01*
X122650000Y-50096100D02*
X122518900Y-49965000D01*
G04 #@! TO.N,/P17*
X115400000Y-52470000D02*
X116550300Y-52470000D01*
X123150000Y-51762500D02*
X123150000Y-52582100D01*
X123150000Y-52582100D02*
X122487200Y-53244900D01*
X122487200Y-53244900D02*
X117325200Y-53244900D01*
X117325200Y-53244900D02*
X116550300Y-52470000D01*
G04 #@! TO.N,/P18*
X114010300Y-52470000D02*
X114010300Y-52757700D01*
X114010300Y-52757700D02*
X114872900Y-53620300D01*
X114872900Y-53620300D02*
X115674500Y-53620300D01*
X115674500Y-53620300D02*
X117886300Y-55832100D01*
X117886300Y-55832100D02*
X117886300Y-57856300D01*
X117886300Y-57856300D02*
X118280000Y-58250000D01*
X118280000Y-58250000D02*
X119222700Y-58250000D01*
X119222700Y-58250000D02*
X122042700Y-61070000D01*
X122042700Y-61070000D02*
X123898600Y-61070000D01*
X123898600Y-61070000D02*
X125513100Y-59455500D01*
X125513100Y-59455500D02*
X125513100Y-56505200D01*
X125513100Y-56505200D02*
X126022800Y-55995500D01*
X126022800Y-55995500D02*
X126022800Y-53085100D01*
X126022800Y-53085100D02*
X126150000Y-52957900D01*
X126150000Y-52957900D02*
X126150000Y-51762500D01*
X112860000Y-52470000D02*
X114010300Y-52470000D01*
G04 #@! TO.N,/P19*
X126650000Y-51762500D02*
X126650000Y-50924200D01*
X126650000Y-50924200D02*
X126010300Y-50284500D01*
X126010300Y-50284500D02*
X125233800Y-50284500D01*
G04 #@! TO.N,/P20*
X114010300Y-55010000D02*
X114010300Y-55297700D01*
X114010300Y-55297700D02*
X114872900Y-56160300D01*
X114872900Y-56160300D02*
X115752500Y-56160300D01*
X115752500Y-56160300D02*
X117213100Y-57620900D01*
X117213100Y-57620900D02*
X117213100Y-58716100D01*
X117213100Y-58716100D02*
X119967400Y-61470400D01*
X119967400Y-61470400D02*
X124064300Y-61470400D01*
X124064300Y-61470400D02*
X125913400Y-59621300D01*
X125913400Y-59621300D02*
X125913400Y-56671000D01*
X125913400Y-56671000D02*
X126434300Y-56150100D01*
X126434300Y-56150100D02*
X126434300Y-53266200D01*
X126434300Y-53266200D02*
X127150000Y-52550500D01*
X127150000Y-52550500D02*
X127150000Y-51762500D01*
X112860000Y-55010000D02*
X114010300Y-55010000D01*
G04 #@! TO.N,/P21*
X116550300Y-57550000D02*
X116550300Y-58619400D01*
X116550300Y-58619400D02*
X119801600Y-61870700D01*
X119801600Y-61870700D02*
X124230100Y-61870700D01*
X124230100Y-61870700D02*
X126313700Y-59787100D01*
X126313700Y-59787100D02*
X126313700Y-56836800D01*
X126313700Y-56836800D02*
X126834600Y-56315900D01*
X126834600Y-56315900D02*
X126834600Y-53533000D01*
X126834600Y-53533000D02*
X128328700Y-52038900D01*
X128328700Y-52038900D02*
X128328700Y-50583800D01*
X128328700Y-50583800D02*
X128562500Y-50350000D01*
X115400000Y-57550000D02*
X116550300Y-57550000D01*
G04 #@! TO.N,/P22*
X128562500Y-49850000D02*
X127487800Y-49850000D01*
X127487800Y-49850000D02*
X127419300Y-49918500D01*
G04 #@! TO.N,/P23*
X128562500Y-49350000D02*
X129360200Y-49350000D01*
X129360200Y-49350000D02*
X129626000Y-49615800D01*
X129626000Y-49615800D02*
X129626000Y-50600400D01*
X129626000Y-50600400D02*
X129302800Y-50923600D01*
G04 #@! TO.N,/P24*
X128562500Y-48850000D02*
X127700900Y-48850000D01*
X127700900Y-48850000D02*
X126754400Y-49796500D01*
X126754400Y-49796500D02*
X126754400Y-50318800D01*
G04 #@! TO.N,/P25*
X128562500Y-48350000D02*
X129355300Y-48350000D01*
X129355300Y-48350000D02*
X130030900Y-49025600D01*
X130030900Y-49025600D02*
X130030900Y-50903100D01*
X130030900Y-50903100D02*
X129175900Y-51758100D01*
X129175900Y-51758100D02*
X129016700Y-51758100D01*
G04 #@! TO.N,/P26*
X128562500Y-47850000D02*
X127408900Y-47850000D01*
G04 #@! TO.N,/P27*
X116550300Y-65170000D02*
X117939900Y-63780400D01*
X117939900Y-63780400D02*
X122907200Y-63780400D01*
X122907200Y-63780400D02*
X126714000Y-59973600D01*
X126714000Y-59973600D02*
X126714000Y-57002600D01*
X126714000Y-57002600D02*
X127234900Y-56481700D01*
X127234900Y-56481700D02*
X127234900Y-53699100D01*
X127234900Y-53699100D02*
X128611700Y-52322300D01*
X128611700Y-52322300D02*
X129177800Y-52322300D01*
X129177800Y-52322300D02*
X130431200Y-51068900D01*
X130431200Y-51068900D02*
X130431200Y-48440200D01*
X130431200Y-48440200D02*
X129341000Y-47350000D01*
X129341000Y-47350000D02*
X128562500Y-47350000D01*
X115400000Y-65170000D02*
X116550300Y-65170000D01*
G04 #@! TO.N,/P28*
X128562500Y-46350000D02*
X127414100Y-46350000D01*
G04 #@! TO.N,/P29*
X128562500Y-45850000D02*
X129397100Y-45850000D01*
X129397100Y-45850000D02*
X131239500Y-47692400D01*
X131239500Y-47692400D02*
X131239500Y-51858600D01*
X131239500Y-51858600D02*
X131129000Y-51969100D01*
G04 #@! TO.N,Net-(C13-Pad1)*
X118750000Y-59025000D02*
X119290100Y-59025000D01*
X119290100Y-59025000D02*
X120410600Y-60145500D01*
X123650000Y-51762500D02*
X123650000Y-59240000D01*
X123650000Y-59240000D02*
X123330000Y-59560000D01*
G04 #@! TO.N,Net-(C14-Pad1)*
X124150000Y-51762500D02*
X124150000Y-55669700D01*
X124150000Y-55669700D02*
X124526100Y-56045800D01*
X128210000Y-59560000D02*
X132215000Y-59560000D01*
X132215000Y-59560000D02*
X132750000Y-59025000D01*
G04 #@! TO.N,Net-(C6-Pad1)*
X127425000Y-31200000D02*
X127425000Y-31000000D01*
X122924900Y-34350000D02*
X124625200Y-32649700D01*
X124625200Y-32649700D02*
X125975300Y-32649700D01*
X125975300Y-32649700D02*
X127425000Y-31200000D01*
X127425000Y-31200000D02*
X129262500Y-31200000D01*
X122924900Y-34350000D02*
X122549700Y-34350000D01*
X123300000Y-34350000D02*
X122924900Y-34350000D01*
X122549700Y-34350000D02*
X122424700Y-34225000D01*
X122424700Y-34225000D02*
X121000000Y-34225000D01*
X121000000Y-34225000D02*
X119200000Y-34225000D01*
G04 #@! TO.N,Net-(D1-Pad1)*
X131137500Y-31200000D02*
X132950000Y-31200000D01*
G04 #@! TO.N,Net-(D2-Pad2)*
X125775000Y-31000000D02*
X124988300Y-30213300D01*
X124988300Y-30213300D02*
X122199200Y-30213300D01*
X122199200Y-30213300D02*
X121412500Y-31000000D01*
G04 #@! TO.N,Net-(R6-Pad1)*
X143475000Y-60235000D02*
X142520300Y-60235000D01*
X142520300Y-60235000D02*
X140600000Y-58314700D01*
X140600000Y-58314700D02*
X140600000Y-55225000D01*
G04 #@! TD*
M02*
