G04 #@! TF.GenerationSoftware,KiCad,Pcbnew,5.1.8+dfsg1-1~bpo10+1*
G04 #@! TF.CreationDate,2020-12-17T11:19:26+08:00*
G04 #@! TF.ProjectId,stm32-io-extend,73746d33-322d-4696-9f2d-657874656e64,rev?*
G04 #@! TF.SameCoordinates,PX4cf27c8PY5b7b308*
G04 #@! TF.FileFunction,Copper,L1,Top*
G04 #@! TF.FilePolarity,Positive*
%FSLAX46Y46*%
G04 Gerber Fmt 4.6, Leading zero omitted, Abs format (unit mm)*
G04 Created by KiCad (PCBNEW 5.1.8+dfsg1-1~bpo10+1) date 2020-12-17 11:19:26*
%MOMM*%
%LPD*%
G01*
G04 APERTURE LIST*
G04 #@! TA.AperFunction,SMDPad,CuDef*
%ADD10R,1.900000X0.800000*%
G04 #@! TD*
G04 #@! TA.AperFunction,SMDPad,CuDef*
%ADD11R,1.800000X2.100000*%
G04 #@! TD*
G04 #@! TA.AperFunction,SMDPad,CuDef*
%ADD12C,0.100000*%
G04 #@! TD*
G04 #@! TA.AperFunction,SMDPad,CuDef*
%ADD13R,2.300000X0.900000*%
G04 #@! TD*
G04 #@! TA.AperFunction,SMDPad,CuDef*
%ADD14R,0.550000X1.700000*%
G04 #@! TD*
G04 #@! TA.AperFunction,SMDPad,CuDef*
%ADD15R,1.000000X0.900000*%
G04 #@! TD*
G04 #@! TA.AperFunction,ComponentPad*
%ADD16O,1.700000X1.700000*%
G04 #@! TD*
G04 #@! TA.AperFunction,ComponentPad*
%ADD17R,1.700000X1.700000*%
G04 #@! TD*
G04 #@! TA.AperFunction,SMDPad,CuDef*
%ADD18R,1.160000X0.600000*%
G04 #@! TD*
G04 #@! TA.AperFunction,SMDPad,CuDef*
%ADD19R,1.160000X0.300000*%
G04 #@! TD*
G04 #@! TA.AperFunction,ComponentPad*
%ADD20O,1.700000X0.900000*%
G04 #@! TD*
G04 #@! TA.AperFunction,ComponentPad*
%ADD21O,2.000000X0.900000*%
G04 #@! TD*
G04 #@! TA.AperFunction,SMDPad,CuDef*
%ADD22R,1.000000X1.000000*%
G04 #@! TD*
G04 #@! TA.AperFunction,ViaPad*
%ADD23C,0.800000*%
G04 #@! TD*
G04 #@! TA.AperFunction,Conductor*
%ADD24C,0.250000*%
G04 #@! TD*
G04 APERTURE END LIST*
D10*
G04 #@! TO.P,Q1,3*
G04 #@! TO.N,VCC*
X12415000Y20285000D03*
G04 #@! TO.P,Q1,2*
G04 #@! TO.N,Net-(D5-Pad2)*
X9415000Y19335000D03*
G04 #@! TO.P,Q1,1*
G04 #@! TO.N,Net-(Q1-Pad1)*
X9415000Y21235000D03*
G04 #@! TD*
G04 #@! TO.P,D5,2*
G04 #@! TO.N,Net-(D5-Pad2)*
G04 #@! TA.AperFunction,SMDPad,CuDef*
G36*
G01*
X7252500Y20405000D02*
X6777500Y20405000D01*
G75*
G02*
X6540000Y20642500I0J237500D01*
G01*
X6540000Y21217500D01*
G75*
G02*
X6777500Y21455000I237500J0D01*
G01*
X7252500Y21455000D01*
G75*
G02*
X7490000Y21217500I0J-237500D01*
G01*
X7490000Y20642500D01*
G75*
G02*
X7252500Y20405000I-237500J0D01*
G01*
G37*
G04 #@! TD.AperFunction*
G04 #@! TO.P,D5,1*
G04 #@! TO.N,Net-(D5-Pad1)*
G04 #@! TA.AperFunction,SMDPad,CuDef*
G36*
G01*
X7252500Y18655000D02*
X6777500Y18655000D01*
G75*
G02*
X6540000Y18892500I0J237500D01*
G01*
X6540000Y19467500D01*
G75*
G02*
X6777500Y19705000I237500J0D01*
G01*
X7252500Y19705000D01*
G75*
G02*
X7490000Y19467500I0J-237500D01*
G01*
X7490000Y18892500D01*
G75*
G02*
X7252500Y18655000I-237500J0D01*
G01*
G37*
G04 #@! TD.AperFunction*
G04 #@! TD*
G04 #@! TO.P,D4,2*
G04 #@! TO.N,Net-(D4-Pad2)*
G04 #@! TA.AperFunction,SMDPad,CuDef*
G36*
G01*
X3652500Y20405000D02*
X3177500Y20405000D01*
G75*
G02*
X2940000Y20642500I0J237500D01*
G01*
X2940000Y21217500D01*
G75*
G02*
X3177500Y21455000I237500J0D01*
G01*
X3652500Y21455000D01*
G75*
G02*
X3890000Y21217500I0J-237500D01*
G01*
X3890000Y20642500D01*
G75*
G02*
X3652500Y20405000I-237500J0D01*
G01*
G37*
G04 #@! TD.AperFunction*
G04 #@! TO.P,D4,1*
G04 #@! TO.N,/nWP*
G04 #@! TA.AperFunction,SMDPad,CuDef*
G36*
G01*
X3652500Y18655000D02*
X3177500Y18655000D01*
G75*
G02*
X2940000Y18892500I0J237500D01*
G01*
X2940000Y19467500D01*
G75*
G02*
X3177500Y19705000I237500J0D01*
G01*
X3652500Y19705000D01*
G75*
G02*
X3890000Y19467500I0J-237500D01*
G01*
X3890000Y18892500D01*
G75*
G02*
X3652500Y18655000I-237500J0D01*
G01*
G37*
G04 #@! TD.AperFunction*
G04 #@! TD*
D11*
G04 #@! TO.P,Y1,4*
G04 #@! TO.N,GND*
X24055000Y8165000D03*
G04 #@! TO.P,Y1,3*
G04 #@! TO.N,/OSC_IN*
X24055000Y11065000D03*
G04 #@! TO.P,Y1,2*
G04 #@! TO.N,GND*
X26355000Y11065000D03*
G04 #@! TO.P,Y1,1*
G04 #@! TO.N,/OSC_OUT*
X26355000Y8165000D03*
G04 #@! TD*
G04 #@! TO.P,U2,48*
G04 #@! TO.N,VCC*
G04 #@! TA.AperFunction,SMDPad,CuDef*
G36*
G01*
X27189516Y20939264D02*
X26252600Y21876180D01*
G75*
G02*
X26252600Y21982246I53033J53033D01*
G01*
X26358666Y22088312D01*
G75*
G02*
X26464732Y22088312I53033J-53033D01*
G01*
X27401648Y21151396D01*
G75*
G02*
X27401648Y21045330I-53033J-53033D01*
G01*
X27295582Y20939264D01*
G75*
G02*
X27189516Y20939264I-53033J53033D01*
G01*
G37*
G04 #@! TD.AperFunction*
G04 #@! TO.P,U2,47*
G04 #@! TO.N,GND*
G04 #@! TA.AperFunction,SMDPad,CuDef*
G36*
G01*
X27543070Y21292818D02*
X26606154Y22229734D01*
G75*
G02*
X26606154Y22335800I53033J53033D01*
G01*
X26712220Y22441866D01*
G75*
G02*
X26818286Y22441866I53033J-53033D01*
G01*
X27755202Y21504950D01*
G75*
G02*
X27755202Y21398884I-53033J-53033D01*
G01*
X27649136Y21292818D01*
G75*
G02*
X27543070Y21292818I-53033J53033D01*
G01*
G37*
G04 #@! TD.AperFunction*
G04 #@! TO.P,U2,46*
G04 #@! TO.N,/PB9*
G04 #@! TA.AperFunction,SMDPad,CuDef*
G36*
G01*
X27896623Y21646371D02*
X26959707Y22583287D01*
G75*
G02*
X26959707Y22689353I53033J53033D01*
G01*
X27065773Y22795419D01*
G75*
G02*
X27171839Y22795419I53033J-53033D01*
G01*
X28108755Y21858503D01*
G75*
G02*
X28108755Y21752437I-53033J-53033D01*
G01*
X28002689Y21646371D01*
G75*
G02*
X27896623Y21646371I-53033J53033D01*
G01*
G37*
G04 #@! TD.AperFunction*
G04 #@! TO.P,U2,45*
G04 #@! TO.N,/PB8*
G04 #@! TA.AperFunction,SMDPad,CuDef*
G36*
G01*
X28250177Y21999925D02*
X27313261Y22936841D01*
G75*
G02*
X27313261Y23042907I53033J53033D01*
G01*
X27419327Y23148973D01*
G75*
G02*
X27525393Y23148973I53033J-53033D01*
G01*
X28462309Y22212057D01*
G75*
G02*
X28462309Y22105991I-53033J-53033D01*
G01*
X28356243Y21999925D01*
G75*
G02*
X28250177Y21999925I-53033J53033D01*
G01*
G37*
G04 #@! TD.AperFunction*
G04 #@! TO.P,U2,44*
G04 #@! TO.N,Net-(R10-Pad2)*
G04 #@! TA.AperFunction,SMDPad,CuDef*
G36*
G01*
X28603730Y22353478D02*
X27666814Y23290394D01*
G75*
G02*
X27666814Y23396460I53033J53033D01*
G01*
X27772880Y23502526D01*
G75*
G02*
X27878946Y23502526I53033J-53033D01*
G01*
X28815862Y22565610D01*
G75*
G02*
X28815862Y22459544I-53033J-53033D01*
G01*
X28709796Y22353478D01*
G75*
G02*
X28603730Y22353478I-53033J53033D01*
G01*
G37*
G04 #@! TD.AperFunction*
G04 #@! TO.P,U2,43*
G04 #@! TO.N,/PB7*
G04 #@! TA.AperFunction,SMDPad,CuDef*
G36*
G01*
X28957283Y22707031D02*
X28020367Y23643947D01*
G75*
G02*
X28020367Y23750013I53033J53033D01*
G01*
X28126433Y23856079D01*
G75*
G02*
X28232499Y23856079I53033J-53033D01*
G01*
X29169415Y22919163D01*
G75*
G02*
X29169415Y22813097I-53033J-53033D01*
G01*
X29063349Y22707031D01*
G75*
G02*
X28957283Y22707031I-53033J53033D01*
G01*
G37*
G04 #@! TD.AperFunction*
G04 #@! TO.P,U2,42*
G04 #@! TO.N,/PB6*
G04 #@! TA.AperFunction,SMDPad,CuDef*
G36*
G01*
X29310837Y23060585D02*
X28373921Y23997501D01*
G75*
G02*
X28373921Y24103567I53033J53033D01*
G01*
X28479987Y24209633D01*
G75*
G02*
X28586053Y24209633I53033J-53033D01*
G01*
X29522969Y23272717D01*
G75*
G02*
X29522969Y23166651I-53033J-53033D01*
G01*
X29416903Y23060585D01*
G75*
G02*
X29310837Y23060585I-53033J53033D01*
G01*
G37*
G04 #@! TD.AperFunction*
G04 #@! TO.P,U2,41*
G04 #@! TO.N,/PB5*
G04 #@! TA.AperFunction,SMDPad,CuDef*
G36*
G01*
X29664390Y23414138D02*
X28727474Y24351054D01*
G75*
G02*
X28727474Y24457120I53033J53033D01*
G01*
X28833540Y24563186D01*
G75*
G02*
X28939606Y24563186I53033J-53033D01*
G01*
X29876522Y23626270D01*
G75*
G02*
X29876522Y23520204I-53033J-53033D01*
G01*
X29770456Y23414138D01*
G75*
G02*
X29664390Y23414138I-53033J53033D01*
G01*
G37*
G04 #@! TD.AperFunction*
G04 #@! TO.P,U2,40*
G04 #@! TO.N,/PB4*
G04 #@! TA.AperFunction,SMDPad,CuDef*
G36*
G01*
X30017943Y23767691D02*
X29081027Y24704607D01*
G75*
G02*
X29081027Y24810673I53033J53033D01*
G01*
X29187093Y24916739D01*
G75*
G02*
X29293159Y24916739I53033J-53033D01*
G01*
X30230075Y23979823D01*
G75*
G02*
X30230075Y23873757I-53033J-53033D01*
G01*
X30124009Y23767691D01*
G75*
G02*
X30017943Y23767691I-53033J53033D01*
G01*
G37*
G04 #@! TD.AperFunction*
G04 #@! TO.P,U2,39*
G04 #@! TO.N,/PB3*
G04 #@! TA.AperFunction,SMDPad,CuDef*
G36*
G01*
X30371497Y24121245D02*
X29434581Y25058161D01*
G75*
G02*
X29434581Y25164227I53033J53033D01*
G01*
X29540647Y25270293D01*
G75*
G02*
X29646713Y25270293I53033J-53033D01*
G01*
X30583629Y24333377D01*
G75*
G02*
X30583629Y24227311I-53033J-53033D01*
G01*
X30477563Y24121245D01*
G75*
G02*
X30371497Y24121245I-53033J53033D01*
G01*
G37*
G04 #@! TD.AperFunction*
G04 #@! TO.P,U2,38*
G04 #@! TO.N,/PA15*
G04 #@! TA.AperFunction,SMDPad,CuDef*
G36*
G01*
X30725050Y24474798D02*
X29788134Y25411714D01*
G75*
G02*
X29788134Y25517780I53033J53033D01*
G01*
X29894200Y25623846D01*
G75*
G02*
X30000266Y25623846I53033J-53033D01*
G01*
X30937182Y24686930D01*
G75*
G02*
X30937182Y24580864I-53033J-53033D01*
G01*
X30831116Y24474798D01*
G75*
G02*
X30725050Y24474798I-53033J53033D01*
G01*
G37*
G04 #@! TD.AperFunction*
G04 #@! TO.P,U2,37*
G04 #@! TO.N,/PA14*
G04 #@! TA.AperFunction,SMDPad,CuDef*
G36*
G01*
X31078604Y24828352D02*
X30141688Y25765268D01*
G75*
G02*
X30141688Y25871334I53033J53033D01*
G01*
X30247754Y25977400D01*
G75*
G02*
X30353820Y25977400I53033J-53033D01*
G01*
X31290736Y25040484D01*
G75*
G02*
X31290736Y24934418I-53033J-53033D01*
G01*
X31184670Y24828352D01*
G75*
G02*
X31078604Y24828352I-53033J53033D01*
G01*
G37*
G04 #@! TD.AperFunction*
G04 #@! TO.P,U2,36*
G04 #@! TO.N,VCC*
G04 #@! TA.AperFunction,SMDPad,CuDef*
G36*
G01*
X32245330Y24828352D02*
X32139264Y24934418D01*
G75*
G02*
X32139264Y25040484I53033J53033D01*
G01*
X33076180Y25977400D01*
G75*
G02*
X33182246Y25977400I53033J-53033D01*
G01*
X33288312Y25871334D01*
G75*
G02*
X33288312Y25765268I-53033J-53033D01*
G01*
X32351396Y24828352D01*
G75*
G02*
X32245330Y24828352I-53033J53033D01*
G01*
G37*
G04 #@! TD.AperFunction*
G04 #@! TO.P,U2,35*
G04 #@! TO.N,GND*
G04 #@! TA.AperFunction,SMDPad,CuDef*
G36*
G01*
X32598884Y24474798D02*
X32492818Y24580864D01*
G75*
G02*
X32492818Y24686930I53033J53033D01*
G01*
X33429734Y25623846D01*
G75*
G02*
X33535800Y25623846I53033J-53033D01*
G01*
X33641866Y25517780D01*
G75*
G02*
X33641866Y25411714I-53033J-53033D01*
G01*
X32704950Y24474798D01*
G75*
G02*
X32598884Y24474798I-53033J53033D01*
G01*
G37*
G04 #@! TD.AperFunction*
G04 #@! TO.P,U2,34*
G04 #@! TO.N,/PA13*
G04 #@! TA.AperFunction,SMDPad,CuDef*
G36*
G01*
X32952437Y24121245D02*
X32846371Y24227311D01*
G75*
G02*
X32846371Y24333377I53033J53033D01*
G01*
X33783287Y25270293D01*
G75*
G02*
X33889353Y25270293I53033J-53033D01*
G01*
X33995419Y25164227D01*
G75*
G02*
X33995419Y25058161I-53033J-53033D01*
G01*
X33058503Y24121245D01*
G75*
G02*
X32952437Y24121245I-53033J53033D01*
G01*
G37*
G04 #@! TD.AperFunction*
G04 #@! TO.P,U2,33*
G04 #@! TO.N,/PA12*
G04 #@! TA.AperFunction,SMDPad,CuDef*
G36*
G01*
X33305991Y23767691D02*
X33199925Y23873757D01*
G75*
G02*
X33199925Y23979823I53033J53033D01*
G01*
X34136841Y24916739D01*
G75*
G02*
X34242907Y24916739I53033J-53033D01*
G01*
X34348973Y24810673D01*
G75*
G02*
X34348973Y24704607I-53033J-53033D01*
G01*
X33412057Y23767691D01*
G75*
G02*
X33305991Y23767691I-53033J53033D01*
G01*
G37*
G04 #@! TD.AperFunction*
G04 #@! TO.P,U2,32*
G04 #@! TO.N,/PA11*
G04 #@! TA.AperFunction,SMDPad,CuDef*
G36*
G01*
X33659544Y23414138D02*
X33553478Y23520204D01*
G75*
G02*
X33553478Y23626270I53033J53033D01*
G01*
X34490394Y24563186D01*
G75*
G02*
X34596460Y24563186I53033J-53033D01*
G01*
X34702526Y24457120D01*
G75*
G02*
X34702526Y24351054I-53033J-53033D01*
G01*
X33765610Y23414138D01*
G75*
G02*
X33659544Y23414138I-53033J53033D01*
G01*
G37*
G04 #@! TD.AperFunction*
G04 #@! TO.P,U2,31*
G04 #@! TO.N,/PA10*
G04 #@! TA.AperFunction,SMDPad,CuDef*
G36*
G01*
X34013097Y23060585D02*
X33907031Y23166651D01*
G75*
G02*
X33907031Y23272717I53033J53033D01*
G01*
X34843947Y24209633D01*
G75*
G02*
X34950013Y24209633I53033J-53033D01*
G01*
X35056079Y24103567D01*
G75*
G02*
X35056079Y23997501I-53033J-53033D01*
G01*
X34119163Y23060585D01*
G75*
G02*
X34013097Y23060585I-53033J53033D01*
G01*
G37*
G04 #@! TD.AperFunction*
G04 #@! TO.P,U2,30*
G04 #@! TO.N,/PA9*
G04 #@! TA.AperFunction,SMDPad,CuDef*
G36*
G01*
X34366651Y22707031D02*
X34260585Y22813097D01*
G75*
G02*
X34260585Y22919163I53033J53033D01*
G01*
X35197501Y23856079D01*
G75*
G02*
X35303567Y23856079I53033J-53033D01*
G01*
X35409633Y23750013D01*
G75*
G02*
X35409633Y23643947I-53033J-53033D01*
G01*
X34472717Y22707031D01*
G75*
G02*
X34366651Y22707031I-53033J53033D01*
G01*
G37*
G04 #@! TD.AperFunction*
G04 #@! TO.P,U2,29*
G04 #@! TO.N,/PA8*
G04 #@! TA.AperFunction,SMDPad,CuDef*
G36*
G01*
X34720204Y22353478D02*
X34614138Y22459544D01*
G75*
G02*
X34614138Y22565610I53033J53033D01*
G01*
X35551054Y23502526D01*
G75*
G02*
X35657120Y23502526I53033J-53033D01*
G01*
X35763186Y23396460D01*
G75*
G02*
X35763186Y23290394I-53033J-53033D01*
G01*
X34826270Y22353478D01*
G75*
G02*
X34720204Y22353478I-53033J53033D01*
G01*
G37*
G04 #@! TD.AperFunction*
G04 #@! TO.P,U2,28*
G04 #@! TO.N,/PB15*
G04 #@! TA.AperFunction,SMDPad,CuDef*
G36*
G01*
X35073757Y21999925D02*
X34967691Y22105991D01*
G75*
G02*
X34967691Y22212057I53033J53033D01*
G01*
X35904607Y23148973D01*
G75*
G02*
X36010673Y23148973I53033J-53033D01*
G01*
X36116739Y23042907D01*
G75*
G02*
X36116739Y22936841I-53033J-53033D01*
G01*
X35179823Y21999925D01*
G75*
G02*
X35073757Y21999925I-53033J53033D01*
G01*
G37*
G04 #@! TD.AperFunction*
G04 #@! TO.P,U2,27*
G04 #@! TO.N,/PB14*
G04 #@! TA.AperFunction,SMDPad,CuDef*
G36*
G01*
X35427311Y21646371D02*
X35321245Y21752437D01*
G75*
G02*
X35321245Y21858503I53033J53033D01*
G01*
X36258161Y22795419D01*
G75*
G02*
X36364227Y22795419I53033J-53033D01*
G01*
X36470293Y22689353D01*
G75*
G02*
X36470293Y22583287I-53033J-53033D01*
G01*
X35533377Y21646371D01*
G75*
G02*
X35427311Y21646371I-53033J53033D01*
G01*
G37*
G04 #@! TD.AperFunction*
G04 #@! TO.P,U2,26*
G04 #@! TO.N,/PB13*
G04 #@! TA.AperFunction,SMDPad,CuDef*
G36*
G01*
X35780864Y21292818D02*
X35674798Y21398884D01*
G75*
G02*
X35674798Y21504950I53033J53033D01*
G01*
X36611714Y22441866D01*
G75*
G02*
X36717780Y22441866I53033J-53033D01*
G01*
X36823846Y22335800D01*
G75*
G02*
X36823846Y22229734I-53033J-53033D01*
G01*
X35886930Y21292818D01*
G75*
G02*
X35780864Y21292818I-53033J53033D01*
G01*
G37*
G04 #@! TD.AperFunction*
G04 #@! TO.P,U2,25*
G04 #@! TO.N,/PB12*
G04 #@! TA.AperFunction,SMDPad,CuDef*
G36*
G01*
X36134418Y20939264D02*
X36028352Y21045330D01*
G75*
G02*
X36028352Y21151396I53033J53033D01*
G01*
X36965268Y22088312D01*
G75*
G02*
X37071334Y22088312I53033J-53033D01*
G01*
X37177400Y21982246D01*
G75*
G02*
X37177400Y21876180I-53033J-53033D01*
G01*
X36240484Y20939264D01*
G75*
G02*
X36134418Y20939264I-53033J53033D01*
G01*
G37*
G04 #@! TD.AperFunction*
G04 #@! TO.P,U2,24*
G04 #@! TO.N,VCC*
G04 #@! TA.AperFunction,SMDPad,CuDef*
G36*
G01*
X36965268Y18941688D02*
X36028352Y19878604D01*
G75*
G02*
X36028352Y19984670I53033J53033D01*
G01*
X36134418Y20090736D01*
G75*
G02*
X36240484Y20090736I53033J-53033D01*
G01*
X37177400Y19153820D01*
G75*
G02*
X37177400Y19047754I-53033J-53033D01*
G01*
X37071334Y18941688D01*
G75*
G02*
X36965268Y18941688I-53033J53033D01*
G01*
G37*
G04 #@! TD.AperFunction*
G04 #@! TO.P,U2,23*
G04 #@! TO.N,GND*
G04 #@! TA.AperFunction,SMDPad,CuDef*
G36*
G01*
X36611714Y18588134D02*
X35674798Y19525050D01*
G75*
G02*
X35674798Y19631116I53033J53033D01*
G01*
X35780864Y19737182D01*
G75*
G02*
X35886930Y19737182I53033J-53033D01*
G01*
X36823846Y18800266D01*
G75*
G02*
X36823846Y18694200I-53033J-53033D01*
G01*
X36717780Y18588134D01*
G75*
G02*
X36611714Y18588134I-53033J53033D01*
G01*
G37*
G04 #@! TD.AperFunction*
G04 #@! TO.P,U2,22*
G04 #@! TO.N,/PB11*
G04 #@! TA.AperFunction,SMDPad,CuDef*
G36*
G01*
X36258161Y18234581D02*
X35321245Y19171497D01*
G75*
G02*
X35321245Y19277563I53033J53033D01*
G01*
X35427311Y19383629D01*
G75*
G02*
X35533377Y19383629I53033J-53033D01*
G01*
X36470293Y18446713D01*
G75*
G02*
X36470293Y18340647I-53033J-53033D01*
G01*
X36364227Y18234581D01*
G75*
G02*
X36258161Y18234581I-53033J53033D01*
G01*
G37*
G04 #@! TD.AperFunction*
G04 #@! TO.P,U2,21*
G04 #@! TO.N,/PB10*
G04 #@! TA.AperFunction,SMDPad,CuDef*
G36*
G01*
X35904607Y17881027D02*
X34967691Y18817943D01*
G75*
G02*
X34967691Y18924009I53033J53033D01*
G01*
X35073757Y19030075D01*
G75*
G02*
X35179823Y19030075I53033J-53033D01*
G01*
X36116739Y18093159D01*
G75*
G02*
X36116739Y17987093I-53033J-53033D01*
G01*
X36010673Y17881027D01*
G75*
G02*
X35904607Y17881027I-53033J53033D01*
G01*
G37*
G04 #@! TD.AperFunction*
G04 #@! TO.P,U2,20*
G04 #@! TO.N,/PB2*
G04 #@! TA.AperFunction,SMDPad,CuDef*
G36*
G01*
X35551054Y17527474D02*
X34614138Y18464390D01*
G75*
G02*
X34614138Y18570456I53033J53033D01*
G01*
X34720204Y18676522D01*
G75*
G02*
X34826270Y18676522I53033J-53033D01*
G01*
X35763186Y17739606D01*
G75*
G02*
X35763186Y17633540I-53033J-53033D01*
G01*
X35657120Y17527474D01*
G75*
G02*
X35551054Y17527474I-53033J53033D01*
G01*
G37*
G04 #@! TD.AperFunction*
G04 #@! TO.P,U2,19*
G04 #@! TO.N,/PB1*
G04 #@! TA.AperFunction,SMDPad,CuDef*
G36*
G01*
X35197501Y17173921D02*
X34260585Y18110837D01*
G75*
G02*
X34260585Y18216903I53033J53033D01*
G01*
X34366651Y18322969D01*
G75*
G02*
X34472717Y18322969I53033J-53033D01*
G01*
X35409633Y17386053D01*
G75*
G02*
X35409633Y17279987I-53033J-53033D01*
G01*
X35303567Y17173921D01*
G75*
G02*
X35197501Y17173921I-53033J53033D01*
G01*
G37*
G04 #@! TD.AperFunction*
G04 #@! TO.P,U2,18*
G04 #@! TO.N,/PB0*
G04 #@! TA.AperFunction,SMDPad,CuDef*
G36*
G01*
X34843947Y16820367D02*
X33907031Y17757283D01*
G75*
G02*
X33907031Y17863349I53033J53033D01*
G01*
X34013097Y17969415D01*
G75*
G02*
X34119163Y17969415I53033J-53033D01*
G01*
X35056079Y17032499D01*
G75*
G02*
X35056079Y16926433I-53033J-53033D01*
G01*
X34950013Y16820367D01*
G75*
G02*
X34843947Y16820367I-53033J53033D01*
G01*
G37*
G04 #@! TD.AperFunction*
G04 #@! TO.P,U2,17*
G04 #@! TO.N,/DI*
G04 #@! TA.AperFunction,SMDPad,CuDef*
G36*
G01*
X34490394Y16466814D02*
X33553478Y17403730D01*
G75*
G02*
X33553478Y17509796I53033J53033D01*
G01*
X33659544Y17615862D01*
G75*
G02*
X33765610Y17615862I53033J-53033D01*
G01*
X34702526Y16678946D01*
G75*
G02*
X34702526Y16572880I-53033J-53033D01*
G01*
X34596460Y16466814D01*
G75*
G02*
X34490394Y16466814I-53033J53033D01*
G01*
G37*
G04 #@! TD.AperFunction*
G04 #@! TO.P,U2,16*
G04 #@! TO.N,/DO*
G04 #@! TA.AperFunction,SMDPad,CuDef*
G36*
G01*
X34136841Y16113261D02*
X33199925Y17050177D01*
G75*
G02*
X33199925Y17156243I53033J53033D01*
G01*
X33305991Y17262309D01*
G75*
G02*
X33412057Y17262309I53033J-53033D01*
G01*
X34348973Y16325393D01*
G75*
G02*
X34348973Y16219327I-53033J-53033D01*
G01*
X34242907Y16113261D01*
G75*
G02*
X34136841Y16113261I-53033J53033D01*
G01*
G37*
G04 #@! TD.AperFunction*
G04 #@! TO.P,U2,15*
G04 #@! TO.N,/CLK*
G04 #@! TA.AperFunction,SMDPad,CuDef*
G36*
G01*
X33783287Y15759707D02*
X32846371Y16696623D01*
G75*
G02*
X32846371Y16802689I53033J53033D01*
G01*
X32952437Y16908755D01*
G75*
G02*
X33058503Y16908755I53033J-53033D01*
G01*
X33995419Y15971839D01*
G75*
G02*
X33995419Y15865773I-53033J-53033D01*
G01*
X33889353Y15759707D01*
G75*
G02*
X33783287Y15759707I-53033J53033D01*
G01*
G37*
G04 #@! TD.AperFunction*
G04 #@! TO.P,U2,14*
G04 #@! TO.N,/CS*
G04 #@! TA.AperFunction,SMDPad,CuDef*
G36*
G01*
X33429734Y15406154D02*
X32492818Y16343070D01*
G75*
G02*
X32492818Y16449136I53033J53033D01*
G01*
X32598884Y16555202D01*
G75*
G02*
X32704950Y16555202I53033J-53033D01*
G01*
X33641866Y15618286D01*
G75*
G02*
X33641866Y15512220I-53033J-53033D01*
G01*
X33535800Y15406154D01*
G75*
G02*
X33429734Y15406154I-53033J53033D01*
G01*
G37*
G04 #@! TD.AperFunction*
G04 #@! TO.P,U2,13*
G04 #@! TO.N,/PA3*
G04 #@! TA.AperFunction,SMDPad,CuDef*
G36*
G01*
X33076180Y15052600D02*
X32139264Y15989516D01*
G75*
G02*
X32139264Y16095582I53033J53033D01*
G01*
X32245330Y16201648D01*
G75*
G02*
X32351396Y16201648I53033J-53033D01*
G01*
X33288312Y15264732D01*
G75*
G02*
X33288312Y15158666I-53033J-53033D01*
G01*
X33182246Y15052600D01*
G75*
G02*
X33076180Y15052600I-53033J53033D01*
G01*
G37*
G04 #@! TD.AperFunction*
G04 #@! TO.P,U2,12*
G04 #@! TO.N,/PA2*
G04 #@! TA.AperFunction,SMDPad,CuDef*
G36*
G01*
X30247754Y15052600D02*
X30141688Y15158666D01*
G75*
G02*
X30141688Y15264732I53033J53033D01*
G01*
X31078604Y16201648D01*
G75*
G02*
X31184670Y16201648I53033J-53033D01*
G01*
X31290736Y16095582D01*
G75*
G02*
X31290736Y15989516I-53033J-53033D01*
G01*
X30353820Y15052600D01*
G75*
G02*
X30247754Y15052600I-53033J53033D01*
G01*
G37*
G04 #@! TD.AperFunction*
G04 #@! TO.P,U2,11*
G04 #@! TO.N,/PA1*
G04 #@! TA.AperFunction,SMDPad,CuDef*
G36*
G01*
X29894200Y15406154D02*
X29788134Y15512220D01*
G75*
G02*
X29788134Y15618286I53033J53033D01*
G01*
X30725050Y16555202D01*
G75*
G02*
X30831116Y16555202I53033J-53033D01*
G01*
X30937182Y16449136D01*
G75*
G02*
X30937182Y16343070I-53033J-53033D01*
G01*
X30000266Y15406154D01*
G75*
G02*
X29894200Y15406154I-53033J53033D01*
G01*
G37*
G04 #@! TD.AperFunction*
G04 #@! TO.P,U2,10*
G04 #@! TO.N,/PA0*
G04 #@! TA.AperFunction,SMDPad,CuDef*
G36*
G01*
X29540647Y15759707D02*
X29434581Y15865773D01*
G75*
G02*
X29434581Y15971839I53033J53033D01*
G01*
X30371497Y16908755D01*
G75*
G02*
X30477563Y16908755I53033J-53033D01*
G01*
X30583629Y16802689D01*
G75*
G02*
X30583629Y16696623I-53033J-53033D01*
G01*
X29646713Y15759707D01*
G75*
G02*
X29540647Y15759707I-53033J53033D01*
G01*
G37*
G04 #@! TD.AperFunction*
G04 #@! TO.P,U2,9*
G04 #@! TO.N,VCC*
G04 #@! TA.AperFunction,SMDPad,CuDef*
G36*
G01*
X29187093Y16113261D02*
X29081027Y16219327D01*
G75*
G02*
X29081027Y16325393I53033J53033D01*
G01*
X30017943Y17262309D01*
G75*
G02*
X30124009Y17262309I53033J-53033D01*
G01*
X30230075Y17156243D01*
G75*
G02*
X30230075Y17050177I-53033J-53033D01*
G01*
X29293159Y16113261D01*
G75*
G02*
X29187093Y16113261I-53033J53033D01*
G01*
G37*
G04 #@! TD.AperFunction*
G04 #@! TO.P,U2,8*
G04 #@! TO.N,GND*
G04 #@! TA.AperFunction,SMDPad,CuDef*
G36*
G01*
X28833540Y16466814D02*
X28727474Y16572880D01*
G75*
G02*
X28727474Y16678946I53033J53033D01*
G01*
X29664390Y17615862D01*
G75*
G02*
X29770456Y17615862I53033J-53033D01*
G01*
X29876522Y17509796D01*
G75*
G02*
X29876522Y17403730I-53033J-53033D01*
G01*
X28939606Y16466814D01*
G75*
G02*
X28833540Y16466814I-53033J53033D01*
G01*
G37*
G04 #@! TD.AperFunction*
G04 #@! TO.P,U2,7*
G04 #@! TO.N,/NRST*
G04 #@! TA.AperFunction,SMDPad,CuDef*
G36*
G01*
X28479987Y16820367D02*
X28373921Y16926433D01*
G75*
G02*
X28373921Y17032499I53033J53033D01*
G01*
X29310837Y17969415D01*
G75*
G02*
X29416903Y17969415I53033J-53033D01*
G01*
X29522969Y17863349D01*
G75*
G02*
X29522969Y17757283I-53033J-53033D01*
G01*
X28586053Y16820367D01*
G75*
G02*
X28479987Y16820367I-53033J53033D01*
G01*
G37*
G04 #@! TD.AperFunction*
G04 #@! TO.P,U2,6*
G04 #@! TO.N,/OSC_OUT*
G04 #@! TA.AperFunction,SMDPad,CuDef*
G36*
G01*
X28126433Y17173921D02*
X28020367Y17279987D01*
G75*
G02*
X28020367Y17386053I53033J53033D01*
G01*
X28957283Y18322969D01*
G75*
G02*
X29063349Y18322969I53033J-53033D01*
G01*
X29169415Y18216903D01*
G75*
G02*
X29169415Y18110837I-53033J-53033D01*
G01*
X28232499Y17173921D01*
G75*
G02*
X28126433Y17173921I-53033J53033D01*
G01*
G37*
G04 #@! TD.AperFunction*
G04 #@! TO.P,U2,5*
G04 #@! TO.N,/OSC_IN*
G04 #@! TA.AperFunction,SMDPad,CuDef*
G36*
G01*
X27772880Y17527474D02*
X27666814Y17633540D01*
G75*
G02*
X27666814Y17739606I53033J53033D01*
G01*
X28603730Y18676522D01*
G75*
G02*
X28709796Y18676522I53033J-53033D01*
G01*
X28815862Y18570456D01*
G75*
G02*
X28815862Y18464390I-53033J-53033D01*
G01*
X27878946Y17527474D01*
G75*
G02*
X27772880Y17527474I-53033J53033D01*
G01*
G37*
G04 #@! TD.AperFunction*
G04 #@! TO.P,U2,4*
G04 #@! TO.N,/PC15*
G04 #@! TA.AperFunction,SMDPad,CuDef*
G36*
G01*
X27419327Y17881027D02*
X27313261Y17987093D01*
G75*
G02*
X27313261Y18093159I53033J53033D01*
G01*
X28250177Y19030075D01*
G75*
G02*
X28356243Y19030075I53033J-53033D01*
G01*
X28462309Y18924009D01*
G75*
G02*
X28462309Y18817943I-53033J-53033D01*
G01*
X27525393Y17881027D01*
G75*
G02*
X27419327Y17881027I-53033J53033D01*
G01*
G37*
G04 #@! TD.AperFunction*
G04 #@! TO.P,U2,3*
G04 #@! TO.N,/PC14*
G04 #@! TA.AperFunction,SMDPad,CuDef*
G36*
G01*
X27065773Y18234581D02*
X26959707Y18340647D01*
G75*
G02*
X26959707Y18446713I53033J53033D01*
G01*
X27896623Y19383629D01*
G75*
G02*
X28002689Y19383629I53033J-53033D01*
G01*
X28108755Y19277563D01*
G75*
G02*
X28108755Y19171497I-53033J-53033D01*
G01*
X27171839Y18234581D01*
G75*
G02*
X27065773Y18234581I-53033J53033D01*
G01*
G37*
G04 #@! TD.AperFunction*
G04 #@! TO.P,U2,2*
G04 #@! TO.N,/PC13*
G04 #@! TA.AperFunction,SMDPad,CuDef*
G36*
G01*
X26712220Y18588134D02*
X26606154Y18694200D01*
G75*
G02*
X26606154Y18800266I53033J53033D01*
G01*
X27543070Y19737182D01*
G75*
G02*
X27649136Y19737182I53033J-53033D01*
G01*
X27755202Y19631116D01*
G75*
G02*
X27755202Y19525050I-53033J-53033D01*
G01*
X26818286Y18588134D01*
G75*
G02*
X26712220Y18588134I-53033J53033D01*
G01*
G37*
G04 #@! TD.AperFunction*
G04 #@! TO.P,U2,1*
G04 #@! TO.N,VCC*
G04 #@! TA.AperFunction,SMDPad,CuDef*
G36*
G01*
X26358666Y18941688D02*
X26252600Y19047754D01*
G75*
G02*
X26252600Y19153820I53033J53033D01*
G01*
X27189516Y20090736D01*
G75*
G02*
X27295582Y20090736I53033J-53033D01*
G01*
X27401648Y19984670D01*
G75*
G02*
X27401648Y19878604I-53033J-53033D01*
G01*
X26464732Y18941688D01*
G75*
G02*
X26358666Y18941688I-53033J53033D01*
G01*
G37*
G04 #@! TD.AperFunction*
G04 #@! TD*
G04 #@! TA.AperFunction,SMDPad,CuDef*
D12*
G04 #@! TO.P,U1,2*
G04 #@! TO.N,Net-(D3-Pad2)*
G36*
X49955000Y19038500D02*
G01*
X45830000Y19038500D01*
X45830000Y19455000D01*
X43355000Y19455000D01*
X43355000Y20355000D01*
X45830000Y20355000D01*
X45830000Y20771500D01*
X49955000Y20771500D01*
X49955000Y19038500D01*
G37*
G04 #@! TD.AperFunction*
D13*
G04 #@! TO.P,U1,3*
G04 #@! TO.N,Net-(C1-Pad1)*
X44505000Y18405000D03*
G04 #@! TO.P,U1,1*
G04 #@! TO.N,GND*
X44505000Y21405000D03*
G04 #@! TD*
D14*
G04 #@! TO.P,SW1,SH*
G04 #@! TO.N,N/C*
X20420000Y21195000D03*
D15*
G04 #@! TO.P,SW1,1*
G04 #@! TO.N,/NRST*
X19795000Y23245000D03*
G04 #@! TO.P,SW1,2*
G04 #@! TO.N,GND*
X18195000Y23245000D03*
G04 #@! TO.P,SW1,1*
G04 #@! TO.N,/NRST*
X19795000Y19145000D03*
G04 #@! TO.P,SW1,2*
G04 #@! TO.N,GND*
X18195000Y19145000D03*
G04 #@! TD*
G04 #@! TO.P,R13,2*
G04 #@! TO.N,GND*
G04 #@! TA.AperFunction,SMDPad,CuDef*
G36*
G01*
X62277500Y12200000D02*
X62752500Y12200000D01*
G75*
G02*
X62990000Y11962500I0J-237500D01*
G01*
X62990000Y11462500D01*
G75*
G02*
X62752500Y11225000I-237500J0D01*
G01*
X62277500Y11225000D01*
G75*
G02*
X62040000Y11462500I0J237500D01*
G01*
X62040000Y11962500D01*
G75*
G02*
X62277500Y12200000I237500J0D01*
G01*
G37*
G04 #@! TD.AperFunction*
G04 #@! TO.P,R13,1*
G04 #@! TO.N,/PB2*
G04 #@! TA.AperFunction,SMDPad,CuDef*
G36*
G01*
X62277500Y14025000D02*
X62752500Y14025000D01*
G75*
G02*
X62990000Y13787500I0J-237500D01*
G01*
X62990000Y13287500D01*
G75*
G02*
X62752500Y13050000I-237500J0D01*
G01*
X62277500Y13050000D01*
G75*
G02*
X62040000Y13287500I0J237500D01*
G01*
X62040000Y13787500D01*
G75*
G02*
X62277500Y14025000I237500J0D01*
G01*
G37*
G04 #@! TD.AperFunction*
G04 #@! TD*
G04 #@! TO.P,R12,2*
G04 #@! TO.N,/PB2*
G04 #@! TA.AperFunction,SMDPad,CuDef*
G36*
G01*
X64702500Y13050000D02*
X64227500Y13050000D01*
G75*
G02*
X63990000Y13287500I0J237500D01*
G01*
X63990000Y13787500D01*
G75*
G02*
X64227500Y14025000I237500J0D01*
G01*
X64702500Y14025000D01*
G75*
G02*
X64940000Y13787500I0J-237500D01*
G01*
X64940000Y13287500D01*
G75*
G02*
X64702500Y13050000I-237500J0D01*
G01*
G37*
G04 #@! TD.AperFunction*
G04 #@! TO.P,R12,1*
G04 #@! TO.N,/BOOT1_UP*
G04 #@! TA.AperFunction,SMDPad,CuDef*
G36*
G01*
X64702500Y11225000D02*
X64227500Y11225000D01*
G75*
G02*
X63990000Y11462500I0J237500D01*
G01*
X63990000Y11962500D01*
G75*
G02*
X64227500Y12200000I237500J0D01*
G01*
X64702500Y12200000D01*
G75*
G02*
X64940000Y11962500I0J-237500D01*
G01*
X64940000Y11462500D01*
G75*
G02*
X64702500Y11225000I-237500J0D01*
G01*
G37*
G04 #@! TD.AperFunction*
G04 #@! TD*
G04 #@! TO.P,R11,2*
G04 #@! TO.N,GND*
G04 #@! TA.AperFunction,SMDPad,CuDef*
G36*
G01*
X62752500Y27800000D02*
X62277500Y27800000D01*
G75*
G02*
X62040000Y28037500I0J237500D01*
G01*
X62040000Y28537500D01*
G75*
G02*
X62277500Y28775000I237500J0D01*
G01*
X62752500Y28775000D01*
G75*
G02*
X62990000Y28537500I0J-237500D01*
G01*
X62990000Y28037500D01*
G75*
G02*
X62752500Y27800000I-237500J0D01*
G01*
G37*
G04 #@! TD.AperFunction*
G04 #@! TO.P,R11,1*
G04 #@! TO.N,Net-(R10-Pad2)*
G04 #@! TA.AperFunction,SMDPad,CuDef*
G36*
G01*
X62752500Y25975000D02*
X62277500Y25975000D01*
G75*
G02*
X62040000Y26212500I0J237500D01*
G01*
X62040000Y26712500D01*
G75*
G02*
X62277500Y26950000I237500J0D01*
G01*
X62752500Y26950000D01*
G75*
G02*
X62990000Y26712500I0J-237500D01*
G01*
X62990000Y26212500D01*
G75*
G02*
X62752500Y25975000I-237500J0D01*
G01*
G37*
G04 #@! TD.AperFunction*
G04 #@! TD*
G04 #@! TO.P,R10,2*
G04 #@! TO.N,Net-(R10-Pad2)*
G04 #@! TA.AperFunction,SMDPad,CuDef*
G36*
G01*
X64227500Y26950000D02*
X64702500Y26950000D01*
G75*
G02*
X64940000Y26712500I0J-237500D01*
G01*
X64940000Y26212500D01*
G75*
G02*
X64702500Y25975000I-237500J0D01*
G01*
X64227500Y25975000D01*
G75*
G02*
X63990000Y26212500I0J237500D01*
G01*
X63990000Y26712500D01*
G75*
G02*
X64227500Y26950000I237500J0D01*
G01*
G37*
G04 #@! TD.AperFunction*
G04 #@! TO.P,R10,1*
G04 #@! TO.N,/BOOT0_UP*
G04 #@! TA.AperFunction,SMDPad,CuDef*
G36*
G01*
X64227500Y28775000D02*
X64702500Y28775000D01*
G75*
G02*
X64940000Y28537500I0J-237500D01*
G01*
X64940000Y28037500D01*
G75*
G02*
X64702500Y27800000I-237500J0D01*
G01*
X64227500Y27800000D01*
G75*
G02*
X63990000Y28037500I0J237500D01*
G01*
X63990000Y28537500D01*
G75*
G02*
X64227500Y28775000I237500J0D01*
G01*
G37*
G04 #@! TD.AperFunction*
G04 #@! TD*
G04 #@! TO.P,R9,2*
G04 #@! TO.N,GND*
G04 #@! TA.AperFunction,SMDPad,CuDef*
G36*
G01*
X4977500Y16760000D02*
X5452500Y16760000D01*
G75*
G02*
X5690000Y16522500I0J-237500D01*
G01*
X5690000Y16022500D01*
G75*
G02*
X5452500Y15785000I-237500J0D01*
G01*
X4977500Y15785000D01*
G75*
G02*
X4740000Y16022500I0J237500D01*
G01*
X4740000Y16522500D01*
G75*
G02*
X4977500Y16760000I237500J0D01*
G01*
G37*
G04 #@! TD.AperFunction*
G04 #@! TO.P,R9,1*
G04 #@! TO.N,Net-(D5-Pad1)*
G04 #@! TA.AperFunction,SMDPad,CuDef*
G36*
G01*
X4977500Y18585000D02*
X5452500Y18585000D01*
G75*
G02*
X5690000Y18347500I0J-237500D01*
G01*
X5690000Y17847500D01*
G75*
G02*
X5452500Y17610000I-237500J0D01*
G01*
X4977500Y17610000D01*
G75*
G02*
X4740000Y17847500I0J237500D01*
G01*
X4740000Y18347500D01*
G75*
G02*
X4977500Y18585000I237500J0D01*
G01*
G37*
G04 #@! TD.AperFunction*
G04 #@! TD*
G04 #@! TO.P,R8,2*
G04 #@! TO.N,/PA0*
G04 #@! TA.AperFunction,SMDPad,CuDef*
G36*
G01*
X12540000Y17007500D02*
X12540000Y17482500D01*
G75*
G02*
X12777500Y17720000I237500J0D01*
G01*
X13277500Y17720000D01*
G75*
G02*
X13515000Y17482500I0J-237500D01*
G01*
X13515000Y17007500D01*
G75*
G02*
X13277500Y16770000I-237500J0D01*
G01*
X12777500Y16770000D01*
G75*
G02*
X12540000Y17007500I0J237500D01*
G01*
G37*
G04 #@! TD.AperFunction*
G04 #@! TO.P,R8,1*
G04 #@! TO.N,Net-(Q1-Pad1)*
G04 #@! TA.AperFunction,SMDPad,CuDef*
G36*
G01*
X10715000Y17007500D02*
X10715000Y17482500D01*
G75*
G02*
X10952500Y17720000I237500J0D01*
G01*
X11452500Y17720000D01*
G75*
G02*
X11690000Y17482500I0J-237500D01*
G01*
X11690000Y17007500D01*
G75*
G02*
X11452500Y16770000I-237500J0D01*
G01*
X10952500Y16770000D01*
G75*
G02*
X10715000Y17007500I0J237500D01*
G01*
G37*
G04 #@! TD.AperFunction*
G04 #@! TD*
G04 #@! TO.P,R7,2*
G04 #@! TO.N,VCC*
G04 #@! TA.AperFunction,SMDPad,CuDef*
G36*
G01*
X5452500Y23330000D02*
X4977500Y23330000D01*
G75*
G02*
X4740000Y23567500I0J237500D01*
G01*
X4740000Y24067500D01*
G75*
G02*
X4977500Y24305000I237500J0D01*
G01*
X5452500Y24305000D01*
G75*
G02*
X5690000Y24067500I0J-237500D01*
G01*
X5690000Y23567500D01*
G75*
G02*
X5452500Y23330000I-237500J0D01*
G01*
G37*
G04 #@! TD.AperFunction*
G04 #@! TO.P,R7,1*
G04 #@! TO.N,Net-(D4-Pad2)*
G04 #@! TA.AperFunction,SMDPad,CuDef*
G36*
G01*
X5452500Y21505000D02*
X4977500Y21505000D01*
G75*
G02*
X4740000Y21742500I0J237500D01*
G01*
X4740000Y22242500D01*
G75*
G02*
X4977500Y22480000I237500J0D01*
G01*
X5452500Y22480000D01*
G75*
G02*
X5690000Y22242500I0J-237500D01*
G01*
X5690000Y21742500D01*
G75*
G02*
X5452500Y21505000I-237500J0D01*
G01*
G37*
G04 #@! TD.AperFunction*
G04 #@! TD*
G04 #@! TO.P,R6,2*
G04 #@! TO.N,Net-(J1-PadA6)*
G04 #@! TA.AperFunction,SMDPad,CuDef*
G36*
G01*
X56840000Y27987500D02*
X56840000Y28462500D01*
G75*
G02*
X57077500Y28700000I237500J0D01*
G01*
X57577500Y28700000D01*
G75*
G02*
X57815000Y28462500I0J-237500D01*
G01*
X57815000Y27987500D01*
G75*
G02*
X57577500Y27750000I-237500J0D01*
G01*
X57077500Y27750000D01*
G75*
G02*
X56840000Y27987500I0J237500D01*
G01*
G37*
G04 #@! TD.AperFunction*
G04 #@! TO.P,R6,1*
G04 #@! TO.N,/PA13*
G04 #@! TA.AperFunction,SMDPad,CuDef*
G36*
G01*
X55015000Y27987500D02*
X55015000Y28462500D01*
G75*
G02*
X55252500Y28700000I237500J0D01*
G01*
X55752500Y28700000D01*
G75*
G02*
X55990000Y28462500I0J-237500D01*
G01*
X55990000Y27987500D01*
G75*
G02*
X55752500Y27750000I-237500J0D01*
G01*
X55252500Y27750000D01*
G75*
G02*
X55015000Y27987500I0J237500D01*
G01*
G37*
G04 #@! TD.AperFunction*
G04 #@! TD*
G04 #@! TO.P,R5,2*
G04 #@! TO.N,Net-(J1-PadA6)*
G04 #@! TA.AperFunction,SMDPad,CuDef*
G36*
G01*
X56840000Y20367500D02*
X56840000Y20842500D01*
G75*
G02*
X57077500Y21080000I237500J0D01*
G01*
X57577500Y21080000D01*
G75*
G02*
X57815000Y20842500I0J-237500D01*
G01*
X57815000Y20367500D01*
G75*
G02*
X57577500Y20130000I-237500J0D01*
G01*
X57077500Y20130000D01*
G75*
G02*
X56840000Y20367500I0J237500D01*
G01*
G37*
G04 #@! TD.AperFunction*
G04 #@! TO.P,R5,1*
G04 #@! TO.N,/PA12*
G04 #@! TA.AperFunction,SMDPad,CuDef*
G36*
G01*
X55015000Y20367500D02*
X55015000Y20842500D01*
G75*
G02*
X55252500Y21080000I237500J0D01*
G01*
X55752500Y21080000D01*
G75*
G02*
X55990000Y20842500I0J-237500D01*
G01*
X55990000Y20367500D01*
G75*
G02*
X55752500Y20130000I-237500J0D01*
G01*
X55252500Y20130000D01*
G75*
G02*
X55015000Y20367500I0J237500D01*
G01*
G37*
G04 #@! TD.AperFunction*
G04 #@! TD*
G04 #@! TO.P,R4,2*
G04 #@! TO.N,GND*
G04 #@! TA.AperFunction,SMDPad,CuDef*
G36*
G01*
X55990000Y22542500D02*
X55990000Y22067500D01*
G75*
G02*
X55752500Y21830000I-237500J0D01*
G01*
X55252500Y21830000D01*
G75*
G02*
X55015000Y22067500I0J237500D01*
G01*
X55015000Y22542500D01*
G75*
G02*
X55252500Y22780000I237500J0D01*
G01*
X55752500Y22780000D01*
G75*
G02*
X55990000Y22542500I0J-237500D01*
G01*
G37*
G04 #@! TD.AperFunction*
G04 #@! TO.P,R4,1*
G04 #@! TO.N,Net-(J1-PadB5)*
G04 #@! TA.AperFunction,SMDPad,CuDef*
G36*
G01*
X57815000Y22542500D02*
X57815000Y22067500D01*
G75*
G02*
X57577500Y21830000I-237500J0D01*
G01*
X57077500Y21830000D01*
G75*
G02*
X56840000Y22067500I0J237500D01*
G01*
X56840000Y22542500D01*
G75*
G02*
X57077500Y22780000I237500J0D01*
G01*
X57577500Y22780000D01*
G75*
G02*
X57815000Y22542500I0J-237500D01*
G01*
G37*
G04 #@! TD.AperFunction*
G04 #@! TD*
G04 #@! TO.P,R3,2*
G04 #@! TO.N,Net-(J1-PadA7)*
G04 #@! TA.AperFunction,SMDPad,CuDef*
G36*
G01*
X56840000Y18667500D02*
X56840000Y19142500D01*
G75*
G02*
X57077500Y19380000I237500J0D01*
G01*
X57577500Y19380000D01*
G75*
G02*
X57815000Y19142500I0J-237500D01*
G01*
X57815000Y18667500D01*
G75*
G02*
X57577500Y18430000I-237500J0D01*
G01*
X57077500Y18430000D01*
G75*
G02*
X56840000Y18667500I0J237500D01*
G01*
G37*
G04 #@! TD.AperFunction*
G04 #@! TO.P,R3,1*
G04 #@! TO.N,/PA11*
G04 #@! TA.AperFunction,SMDPad,CuDef*
G36*
G01*
X55015000Y18667500D02*
X55015000Y19142500D01*
G75*
G02*
X55252500Y19380000I237500J0D01*
G01*
X55752500Y19380000D01*
G75*
G02*
X55990000Y19142500I0J-237500D01*
G01*
X55990000Y18667500D01*
G75*
G02*
X55752500Y18430000I-237500J0D01*
G01*
X55252500Y18430000D01*
G75*
G02*
X55015000Y18667500I0J237500D01*
G01*
G37*
G04 #@! TD.AperFunction*
G04 #@! TD*
G04 #@! TO.P,R2,2*
G04 #@! TO.N,Net-(J1-PadA5)*
G04 #@! TA.AperFunction,SMDPad,CuDef*
G36*
G01*
X56840000Y16967500D02*
X56840000Y17442500D01*
G75*
G02*
X57077500Y17680000I237500J0D01*
G01*
X57577500Y17680000D01*
G75*
G02*
X57815000Y17442500I0J-237500D01*
G01*
X57815000Y16967500D01*
G75*
G02*
X57577500Y16730000I-237500J0D01*
G01*
X57077500Y16730000D01*
G75*
G02*
X56840000Y16967500I0J237500D01*
G01*
G37*
G04 #@! TD.AperFunction*
G04 #@! TO.P,R2,1*
G04 #@! TO.N,GND*
G04 #@! TA.AperFunction,SMDPad,CuDef*
G36*
G01*
X55015000Y16967500D02*
X55015000Y17442500D01*
G75*
G02*
X55252500Y17680000I237500J0D01*
G01*
X55752500Y17680000D01*
G75*
G02*
X55990000Y17442500I0J-237500D01*
G01*
X55990000Y16967500D01*
G75*
G02*
X55752500Y16730000I-237500J0D01*
G01*
X55252500Y16730000D01*
G75*
G02*
X55015000Y16967500I0J237500D01*
G01*
G37*
G04 #@! TD.AperFunction*
G04 #@! TD*
G04 #@! TO.P,R1,2*
G04 #@! TO.N,Net-(D2-Pad2)*
G04 #@! TA.AperFunction,SMDPad,CuDef*
G36*
G01*
X45952500Y24930000D02*
X45477500Y24930000D01*
G75*
G02*
X45240000Y25167500I0J237500D01*
G01*
X45240000Y25667500D01*
G75*
G02*
X45477500Y25905000I237500J0D01*
G01*
X45952500Y25905000D01*
G75*
G02*
X46190000Y25667500I0J-237500D01*
G01*
X46190000Y25167500D01*
G75*
G02*
X45952500Y24930000I-237500J0D01*
G01*
G37*
G04 #@! TD.AperFunction*
G04 #@! TO.P,R1,1*
G04 #@! TO.N,Net-(C1-Pad1)*
G04 #@! TA.AperFunction,SMDPad,CuDef*
G36*
G01*
X45952500Y23105000D02*
X45477500Y23105000D01*
G75*
G02*
X45240000Y23342500I0J237500D01*
G01*
X45240000Y23842500D01*
G75*
G02*
X45477500Y24080000I237500J0D01*
G01*
X45952500Y24080000D01*
G75*
G02*
X46190000Y23842500I0J-237500D01*
G01*
X46190000Y23342500D01*
G75*
G02*
X45952500Y23105000I-237500J0D01*
G01*
G37*
G04 #@! TD.AperFunction*
G04 #@! TD*
D16*
G04 #@! TO.P,J5,25*
G04 #@! TO.N,/PC13*
X3515000Y3275000D03*
G04 #@! TO.P,J5,24*
G04 #@! TO.N,/PC14*
X6055000Y3275000D03*
G04 #@! TO.P,J5,23*
G04 #@! TO.N,/PC15*
X8595000Y3275000D03*
G04 #@! TO.P,J5,22*
G04 #@! TO.N,/OSC_IN*
X11135000Y3275000D03*
G04 #@! TO.P,J5,21*
G04 #@! TO.N,/OSC_OUT*
X13675000Y3275000D03*
G04 #@! TO.P,J5,20*
G04 #@! TO.N,/PA0*
X16215000Y3275000D03*
G04 #@! TO.P,J5,19*
G04 #@! TO.N,/PA1*
X18755000Y3275000D03*
G04 #@! TO.P,J5,18*
G04 #@! TO.N,/PA2*
X21295000Y3275000D03*
G04 #@! TO.P,J5,17*
G04 #@! TO.N,/PA3*
X23835000Y3275000D03*
G04 #@! TO.P,J5,16*
G04 #@! TO.N,/CS*
X26375000Y3275000D03*
G04 #@! TO.P,J5,15*
G04 #@! TO.N,/CLK*
X28915000Y3275000D03*
G04 #@! TO.P,J5,14*
G04 #@! TO.N,/DO*
X31455000Y3275000D03*
G04 #@! TO.P,J5,13*
G04 #@! TO.N,/DI*
X33995000Y3275000D03*
G04 #@! TO.P,J5,12*
G04 #@! TO.N,/PB0*
X36535000Y3275000D03*
G04 #@! TO.P,J5,11*
G04 #@! TO.N,/PB1*
X39075000Y3275000D03*
G04 #@! TO.P,J5,10*
G04 #@! TO.N,/PB2*
X41615000Y3275000D03*
G04 #@! TO.P,J5,9*
G04 #@! TO.N,/PB10*
X44155000Y3275000D03*
G04 #@! TO.P,J5,8*
G04 #@! TO.N,/PB11*
X46695000Y3275000D03*
G04 #@! TO.P,J5,7*
G04 #@! TO.N,VCC*
X49235000Y3275000D03*
G04 #@! TO.P,J5,6*
G04 #@! TO.N,/nWP*
X51775000Y3275000D03*
G04 #@! TO.P,J5,5*
G04 #@! TO.N,GND*
X54315000Y3275000D03*
G04 #@! TO.P,J5,4*
G04 #@! TO.N,/PA10*
X56855000Y3275000D03*
G04 #@! TO.P,J5,3*
G04 #@! TO.N,/PA9*
X59395000Y3275000D03*
G04 #@! TO.P,J5,2*
G04 #@! TO.N,VCC*
X61935000Y3275000D03*
D17*
G04 #@! TO.P,J5,1*
G04 #@! TO.N,/BOOT1_UP*
X64475000Y3275000D03*
G04 #@! TD*
D16*
G04 #@! TO.P,J4,25*
G04 #@! TO.N,/PB9*
X3515000Y36725000D03*
G04 #@! TO.P,J4,24*
G04 #@! TO.N,/PB8*
X6055000Y36725000D03*
G04 #@! TO.P,J4,23*
G04 #@! TO.N,/PB7*
X8595000Y36725000D03*
G04 #@! TO.P,J4,22*
G04 #@! TO.N,/PB6*
X11135000Y36725000D03*
G04 #@! TO.P,J4,21*
G04 #@! TO.N,/PB5*
X13675000Y36725000D03*
G04 #@! TO.P,J4,20*
G04 #@! TO.N,/PB4*
X16215000Y36725000D03*
G04 #@! TO.P,J4,19*
G04 #@! TO.N,/PB3*
X18755000Y36725000D03*
G04 #@! TO.P,J4,18*
G04 #@! TO.N,/PA15*
X21295000Y36725000D03*
G04 #@! TO.P,J4,17*
G04 #@! TO.N,/PA14*
X23835000Y36725000D03*
G04 #@! TO.P,J4,16*
G04 #@! TO.N,/PA13*
X26375000Y36725000D03*
G04 #@! TO.P,J4,15*
G04 #@! TO.N,/PA12*
X28915000Y36725000D03*
G04 #@! TO.P,J4,14*
G04 #@! TO.N,/PA11*
X31455000Y36725000D03*
G04 #@! TO.P,J4,13*
G04 #@! TO.N,/PA10*
X33995000Y36725000D03*
G04 #@! TO.P,J4,12*
G04 #@! TO.N,/PA9*
X36535000Y36725000D03*
G04 #@! TO.P,J4,11*
G04 #@! TO.N,/PA8*
X39075000Y36725000D03*
G04 #@! TO.P,J4,10*
G04 #@! TO.N,/PB15*
X41615000Y36725000D03*
G04 #@! TO.P,J4,9*
G04 #@! TO.N,/PB14*
X44155000Y36725000D03*
G04 #@! TO.P,J4,8*
G04 #@! TO.N,/PB13*
X46695000Y36725000D03*
G04 #@! TO.P,J4,7*
G04 #@! TO.N,/PB12*
X49235000Y36725000D03*
G04 #@! TO.P,J4,6*
G04 #@! TO.N,VCC*
X51775000Y36725000D03*
G04 #@! TO.P,J4,5*
G04 #@! TO.N,GND*
X54315000Y36725000D03*
G04 #@! TO.P,J4,4*
G04 #@! TO.N,/PA13*
X56855000Y36725000D03*
G04 #@! TO.P,J4,3*
G04 #@! TO.N,/PA14*
X59395000Y36725000D03*
G04 #@! TO.P,J4,2*
G04 #@! TO.N,VCC*
X61935000Y36725000D03*
D17*
G04 #@! TO.P,J4,1*
G04 #@! TO.N,/BOOT0_UP*
X64475000Y36725000D03*
G04 #@! TD*
D16*
G04 #@! TO.P,J3,8*
G04 #@! TO.N,/nWP*
X4575000Y10675000D03*
G04 #@! TO.P,J3,7*
G04 #@! TO.N,/CS*
X4575000Y13215000D03*
G04 #@! TO.P,J3,6*
G04 #@! TO.N,Net-(C11-Pad1)*
X7115000Y10675000D03*
G04 #@! TO.P,J3,5*
X7115000Y13215000D03*
G04 #@! TO.P,J3,4*
G04 #@! TO.N,GND*
X9655000Y10675000D03*
G04 #@! TO.P,J3,3*
G04 #@! TO.N,/CLK*
X9655000Y13215000D03*
G04 #@! TO.P,J3,2*
G04 #@! TO.N,/DO*
X12195000Y10675000D03*
D17*
G04 #@! TO.P,J3,1*
G04 #@! TO.N,/DI*
X12195000Y13215000D03*
G04 #@! TD*
D16*
G04 #@! TO.P,J2,8*
G04 #@! TO.N,/DI*
X4575000Y26805000D03*
G04 #@! TO.P,J2,7*
G04 #@! TO.N,GND*
X4575000Y29345000D03*
G04 #@! TO.P,J2,6*
G04 #@! TO.N,/CLK*
X7115000Y26805000D03*
G04 #@! TO.P,J2,5*
G04 #@! TO.N,/nWP*
X7115000Y29345000D03*
G04 #@! TO.P,J2,4*
G04 #@! TO.N,Net-(C11-Pad1)*
X9655000Y26805000D03*
G04 #@! TO.P,J2,3*
G04 #@! TO.N,/DO*
X9655000Y29345000D03*
G04 #@! TO.P,J2,2*
G04 #@! TO.N,Net-(C11-Pad1)*
X12195000Y26805000D03*
D17*
G04 #@! TO.P,J2,1*
G04 #@! TO.N,/CS*
X12195000Y29345000D03*
G04 #@! TD*
D18*
G04 #@! TO.P,J1,A12*
G04 #@! TO.N,GND*
X61105000Y23225000D03*
G04 #@! TO.P,J1,A9*
G04 #@! TO.N,+5V*
X61105000Y22425000D03*
G04 #@! TO.P,J1,B1*
G04 #@! TO.N,GND*
X61105000Y23225000D03*
G04 #@! TO.P,J1,B4*
G04 #@! TO.N,+5V*
X61105000Y22425000D03*
G04 #@! TO.P,J1,B12*
G04 #@! TO.N,GND*
X61105000Y16825000D03*
G04 #@! TO.P,J1,A1*
X61105000Y16825000D03*
G04 #@! TO.P,J1,B9*
G04 #@! TO.N,+5V*
X61105000Y17625000D03*
G04 #@! TO.P,J1,A4*
X61105000Y17625000D03*
D19*
G04 #@! TO.P,J1,B5*
G04 #@! TO.N,Net-(J1-PadB5)*
X61105000Y21775000D03*
G04 #@! TO.P,J1,B6*
G04 #@! TO.N,Net-(J1-PadA6)*
X61105000Y20775000D03*
G04 #@! TO.P,J1,A8*
G04 #@! TO.N,N/C*
X61105000Y21275000D03*
G04 #@! TO.P,J1,A5*
G04 #@! TO.N,Net-(J1-PadA5)*
X61105000Y18775000D03*
G04 #@! TO.P,J1,B8*
G04 #@! TO.N,N/C*
X61105000Y18275000D03*
G04 #@! TO.P,J1,A7*
G04 #@! TO.N,Net-(J1-PadA7)*
X61105000Y20275000D03*
G04 #@! TO.P,J1,A6*
G04 #@! TO.N,Net-(J1-PadA6)*
X61105000Y19775000D03*
G04 #@! TO.P,J1,B7*
G04 #@! TO.N,Net-(J1-PadA7)*
X61105000Y19275000D03*
D20*
G04 #@! TO.P,J1,S1*
G04 #@! TO.N,GND*
X65855000Y24345000D03*
X65855000Y15705000D03*
D21*
X61685000Y24345000D03*
X61685000Y15705000D03*
G04 #@! TD*
G04 #@! TO.P,F2,2*
G04 #@! TO.N,Net-(C11-Pad1)*
G04 #@! TA.AperFunction,SMDPad,CuDef*
G36*
G01*
X11665000Y24075001D02*
X11665000Y23174999D01*
G75*
G02*
X11415001Y22925000I-249999J0D01*
G01*
X10764999Y22925000D01*
G75*
G02*
X10515000Y23174999I0J249999D01*
G01*
X10515000Y24075001D01*
G75*
G02*
X10764999Y24325000I249999J0D01*
G01*
X11415001Y24325000D01*
G75*
G02*
X11665000Y24075001I0J-249999D01*
G01*
G37*
G04 #@! TD.AperFunction*
G04 #@! TO.P,F2,1*
G04 #@! TO.N,VCC*
G04 #@! TA.AperFunction,SMDPad,CuDef*
G36*
G01*
X13715000Y24075001D02*
X13715000Y23174999D01*
G75*
G02*
X13465001Y22925000I-249999J0D01*
G01*
X12814999Y22925000D01*
G75*
G02*
X12565000Y23174999I0J249999D01*
G01*
X12565000Y24075001D01*
G75*
G02*
X12814999Y24325000I249999J0D01*
G01*
X13465001Y24325000D01*
G75*
G02*
X13715000Y24075001I0J-249999D01*
G01*
G37*
G04 #@! TD.AperFunction*
G04 #@! TD*
G04 #@! TO.P,F1,2*
G04 #@! TO.N,Net-(D1-Pad1)*
G04 #@! TA.AperFunction,SMDPad,CuDef*
G36*
G01*
X48205001Y25155000D02*
X47304999Y25155000D01*
G75*
G02*
X47055000Y25404999I0J249999D01*
G01*
X47055000Y26055001D01*
G75*
G02*
X47304999Y26305000I249999J0D01*
G01*
X48205001Y26305000D01*
G75*
G02*
X48455000Y26055001I0J-249999D01*
G01*
X48455000Y25404999D01*
G75*
G02*
X48205001Y25155000I-249999J0D01*
G01*
G37*
G04 #@! TD.AperFunction*
G04 #@! TO.P,F1,1*
G04 #@! TO.N,Net-(C1-Pad1)*
G04 #@! TA.AperFunction,SMDPad,CuDef*
G36*
G01*
X48205001Y23105000D02*
X47304999Y23105000D01*
G75*
G02*
X47055000Y23354999I0J249999D01*
G01*
X47055000Y24005001D01*
G75*
G02*
X47304999Y24255000I249999J0D01*
G01*
X48205001Y24255000D01*
G75*
G02*
X48455000Y24005001I0J-249999D01*
G01*
X48455000Y23354999D01*
G75*
G02*
X48205001Y23105000I-249999J0D01*
G01*
G37*
G04 #@! TD.AperFunction*
G04 #@! TD*
D22*
G04 #@! TO.P,D3,2*
G04 #@! TO.N,Net-(D3-Pad2)*
X45915000Y16305000D03*
G04 #@! TO.P,D3,1*
G04 #@! TO.N,VCC*
X45915000Y13805000D03*
G04 #@! TD*
G04 #@! TO.P,D2,2*
G04 #@! TO.N,Net-(D2-Pad2)*
G04 #@! TA.AperFunction,SMDPad,CuDef*
G36*
G01*
X44132500Y24880000D02*
X43657500Y24880000D01*
G75*
G02*
X43420000Y25117500I0J237500D01*
G01*
X43420000Y25692500D01*
G75*
G02*
X43657500Y25930000I237500J0D01*
G01*
X44132500Y25930000D01*
G75*
G02*
X44370000Y25692500I0J-237500D01*
G01*
X44370000Y25117500D01*
G75*
G02*
X44132500Y24880000I-237500J0D01*
G01*
G37*
G04 #@! TD.AperFunction*
G04 #@! TO.P,D2,1*
G04 #@! TO.N,GND*
G04 #@! TA.AperFunction,SMDPad,CuDef*
G36*
G01*
X44132500Y23130000D02*
X43657500Y23130000D01*
G75*
G02*
X43420000Y23367500I0J237500D01*
G01*
X43420000Y23942500D01*
G75*
G02*
X43657500Y24180000I237500J0D01*
G01*
X44132500Y24180000D01*
G75*
G02*
X44370000Y23942500I0J-237500D01*
G01*
X44370000Y23367500D01*
G75*
G02*
X44132500Y23130000I-237500J0D01*
G01*
G37*
G04 #@! TD.AperFunction*
G04 #@! TD*
G04 #@! TO.P,D1,2*
G04 #@! TO.N,+5V*
X50015000Y23595000D03*
G04 #@! TO.P,D1,1*
G04 #@! TO.N,Net-(D1-Pad1)*
X50015000Y26095000D03*
G04 #@! TD*
G04 #@! TO.P,C13,2*
G04 #@! TO.N,GND*
G04 #@! TA.AperFunction,SMDPad,CuDef*
G36*
G01*
X31390000Y13762500D02*
X31390000Y13287500D01*
G75*
G02*
X31152500Y13050000I-237500J0D01*
G01*
X30552500Y13050000D01*
G75*
G02*
X30315000Y13287500I0J237500D01*
G01*
X30315000Y13762500D01*
G75*
G02*
X30552500Y14000000I237500J0D01*
G01*
X31152500Y14000000D01*
G75*
G02*
X31390000Y13762500I0J-237500D01*
G01*
G37*
G04 #@! TD.AperFunction*
G04 #@! TO.P,C13,1*
G04 #@! TO.N,VCC*
G04 #@! TA.AperFunction,SMDPad,CuDef*
G36*
G01*
X33115000Y13762500D02*
X33115000Y13287500D01*
G75*
G02*
X32877500Y13050000I-237500J0D01*
G01*
X32277500Y13050000D01*
G75*
G02*
X32040000Y13287500I0J237500D01*
G01*
X32040000Y13762500D01*
G75*
G02*
X32277500Y14000000I237500J0D01*
G01*
X32877500Y14000000D01*
G75*
G02*
X33115000Y13762500I0J-237500D01*
G01*
G37*
G04 #@! TD.AperFunction*
G04 #@! TD*
G04 #@! TO.P,C12,2*
G04 #@! TO.N,GND*
G04 #@! TA.AperFunction,SMDPad,CuDef*
G36*
G01*
X4840000Y7487500D02*
X4840000Y7962500D01*
G75*
G02*
X5077500Y8200000I237500J0D01*
G01*
X5677500Y8200000D01*
G75*
G02*
X5915000Y7962500I0J-237500D01*
G01*
X5915000Y7487500D01*
G75*
G02*
X5677500Y7250000I-237500J0D01*
G01*
X5077500Y7250000D01*
G75*
G02*
X4840000Y7487500I0J237500D01*
G01*
G37*
G04 #@! TD.AperFunction*
G04 #@! TO.P,C12,1*
G04 #@! TO.N,Net-(C11-Pad1)*
G04 #@! TA.AperFunction,SMDPad,CuDef*
G36*
G01*
X3115000Y7487500D02*
X3115000Y7962500D01*
G75*
G02*
X3352500Y8200000I237500J0D01*
G01*
X3952500Y8200000D01*
G75*
G02*
X4190000Y7962500I0J-237500D01*
G01*
X4190000Y7487500D01*
G75*
G02*
X3952500Y7250000I-237500J0D01*
G01*
X3352500Y7250000D01*
G75*
G02*
X3115000Y7487500I0J237500D01*
G01*
G37*
G04 #@! TD.AperFunction*
G04 #@! TD*
G04 #@! TO.P,C11,2*
G04 #@! TO.N,GND*
G04 #@! TA.AperFunction,SMDPad,CuDef*
G36*
G01*
X4190000Y32562500D02*
X4190000Y32087500D01*
G75*
G02*
X3952500Y31850000I-237500J0D01*
G01*
X3352500Y31850000D01*
G75*
G02*
X3115000Y32087500I0J237500D01*
G01*
X3115000Y32562500D01*
G75*
G02*
X3352500Y32800000I237500J0D01*
G01*
X3952500Y32800000D01*
G75*
G02*
X4190000Y32562500I0J-237500D01*
G01*
G37*
G04 #@! TD.AperFunction*
G04 #@! TO.P,C11,1*
G04 #@! TO.N,Net-(C11-Pad1)*
G04 #@! TA.AperFunction,SMDPad,CuDef*
G36*
G01*
X5915000Y32562500D02*
X5915000Y32087500D01*
G75*
G02*
X5677500Y31850000I-237500J0D01*
G01*
X5077500Y31850000D01*
G75*
G02*
X4840000Y32087500I0J237500D01*
G01*
X4840000Y32562500D01*
G75*
G02*
X5077500Y32800000I237500J0D01*
G01*
X5677500Y32800000D01*
G75*
G02*
X5915000Y32562500I0J-237500D01*
G01*
G37*
G04 #@! TD.AperFunction*
G04 #@! TD*
G04 #@! TO.P,C10,2*
G04 #@! TO.N,GND*
G04 #@! TA.AperFunction,SMDPad,CuDef*
G36*
G01*
X23352500Y20750000D02*
X22877500Y20750000D01*
G75*
G02*
X22640000Y20987500I0J237500D01*
G01*
X22640000Y21587500D01*
G75*
G02*
X22877500Y21825000I237500J0D01*
G01*
X23352500Y21825000D01*
G75*
G02*
X23590000Y21587500I0J-237500D01*
G01*
X23590000Y20987500D01*
G75*
G02*
X23352500Y20750000I-237500J0D01*
G01*
G37*
G04 #@! TD.AperFunction*
G04 #@! TO.P,C10,1*
G04 #@! TO.N,VCC*
G04 #@! TA.AperFunction,SMDPad,CuDef*
G36*
G01*
X23352500Y19025000D02*
X22877500Y19025000D01*
G75*
G02*
X22640000Y19262500I0J237500D01*
G01*
X22640000Y19862500D01*
G75*
G02*
X22877500Y20100000I237500J0D01*
G01*
X23352500Y20100000D01*
G75*
G02*
X23590000Y19862500I0J-237500D01*
G01*
X23590000Y19262500D01*
G75*
G02*
X23352500Y19025000I-237500J0D01*
G01*
G37*
G04 #@! TD.AperFunction*
G04 #@! TD*
G04 #@! TO.P,C9,2*
G04 #@! TO.N,GND*
G04 #@! TA.AperFunction,SMDPad,CuDef*
G36*
G01*
X25052500Y20750000D02*
X24577500Y20750000D01*
G75*
G02*
X24340000Y20987500I0J237500D01*
G01*
X24340000Y21587500D01*
G75*
G02*
X24577500Y21825000I237500J0D01*
G01*
X25052500Y21825000D01*
G75*
G02*
X25290000Y21587500I0J-237500D01*
G01*
X25290000Y20987500D01*
G75*
G02*
X25052500Y20750000I-237500J0D01*
G01*
G37*
G04 #@! TD.AperFunction*
G04 #@! TO.P,C9,1*
G04 #@! TO.N,VCC*
G04 #@! TA.AperFunction,SMDPad,CuDef*
G36*
G01*
X25052500Y19025000D02*
X24577500Y19025000D01*
G75*
G02*
X24340000Y19262500I0J237500D01*
G01*
X24340000Y19862500D01*
G75*
G02*
X24577500Y20100000I237500J0D01*
G01*
X25052500Y20100000D01*
G75*
G02*
X25290000Y19862500I0J-237500D01*
G01*
X25290000Y19262500D01*
G75*
G02*
X25052500Y19025000I-237500J0D01*
G01*
G37*
G04 #@! TD.AperFunction*
G04 #@! TD*
G04 #@! TO.P,C8,2*
G04 #@! TO.N,GND*
G04 #@! TA.AperFunction,SMDPad,CuDef*
G36*
G01*
X38377500Y20120000D02*
X38852500Y20120000D01*
G75*
G02*
X39090000Y19882500I0J-237500D01*
G01*
X39090000Y19282500D01*
G75*
G02*
X38852500Y19045000I-237500J0D01*
G01*
X38377500Y19045000D01*
G75*
G02*
X38140000Y19282500I0J237500D01*
G01*
X38140000Y19882500D01*
G75*
G02*
X38377500Y20120000I237500J0D01*
G01*
G37*
G04 #@! TD.AperFunction*
G04 #@! TO.P,C8,1*
G04 #@! TO.N,VCC*
G04 #@! TA.AperFunction,SMDPad,CuDef*
G36*
G01*
X38377500Y21845000D02*
X38852500Y21845000D01*
G75*
G02*
X39090000Y21607500I0J-237500D01*
G01*
X39090000Y21007500D01*
G75*
G02*
X38852500Y20770000I-237500J0D01*
G01*
X38377500Y20770000D01*
G75*
G02*
X38140000Y21007500I0J237500D01*
G01*
X38140000Y21607500D01*
G75*
G02*
X38377500Y21845000I237500J0D01*
G01*
G37*
G04 #@! TD.AperFunction*
G04 #@! TD*
G04 #@! TO.P,C7,2*
G04 #@! TO.N,GND*
G04 #@! TA.AperFunction,SMDPad,CuDef*
G36*
G01*
X32070000Y27177500D02*
X32070000Y27652500D01*
G75*
G02*
X32307500Y27890000I237500J0D01*
G01*
X32907500Y27890000D01*
G75*
G02*
X33145000Y27652500I0J-237500D01*
G01*
X33145000Y27177500D01*
G75*
G02*
X32907500Y26940000I-237500J0D01*
G01*
X32307500Y26940000D01*
G75*
G02*
X32070000Y27177500I0J237500D01*
G01*
G37*
G04 #@! TD.AperFunction*
G04 #@! TO.P,C7,1*
G04 #@! TO.N,VCC*
G04 #@! TA.AperFunction,SMDPad,CuDef*
G36*
G01*
X30345000Y27177500D02*
X30345000Y27652500D01*
G75*
G02*
X30582500Y27890000I237500J0D01*
G01*
X31182500Y27890000D01*
G75*
G02*
X31420000Y27652500I0J-237500D01*
G01*
X31420000Y27177500D01*
G75*
G02*
X31182500Y26940000I-237500J0D01*
G01*
X30582500Y26940000D01*
G75*
G02*
X30345000Y27177500I0J237500D01*
G01*
G37*
G04 #@! TD.AperFunction*
G04 #@! TD*
G04 #@! TO.P,C6,1*
G04 #@! TO.N,/OSC_IN*
G04 #@! TA.AperFunction,SMDPad,CuDef*
G36*
G01*
X24615000Y13662500D02*
X24615000Y13187500D01*
G75*
G02*
X24377500Y12950000I-237500J0D01*
G01*
X23777500Y12950000D01*
G75*
G02*
X23540000Y13187500I0J237500D01*
G01*
X23540000Y13662500D01*
G75*
G02*
X23777500Y13900000I237500J0D01*
G01*
X24377500Y13900000D01*
G75*
G02*
X24615000Y13662500I0J-237500D01*
G01*
G37*
G04 #@! TD.AperFunction*
G04 #@! TO.P,C6,2*
G04 #@! TO.N,GND*
G04 #@! TA.AperFunction,SMDPad,CuDef*
G36*
G01*
X22890000Y13662500D02*
X22890000Y13187500D01*
G75*
G02*
X22652500Y12950000I-237500J0D01*
G01*
X22052500Y12950000D01*
G75*
G02*
X21815000Y13187500I0J237500D01*
G01*
X21815000Y13662500D01*
G75*
G02*
X22052500Y13900000I237500J0D01*
G01*
X22652500Y13900000D01*
G75*
G02*
X22890000Y13662500I0J-237500D01*
G01*
G37*
G04 #@! TD.AperFunction*
G04 #@! TD*
G04 #@! TO.P,C5,2*
G04 #@! TO.N,GND*
G04 #@! TA.AperFunction,SMDPad,CuDef*
G36*
G01*
X26490000Y13662500D02*
X26490000Y13187500D01*
G75*
G02*
X26252500Y12950000I-237500J0D01*
G01*
X25652500Y12950000D01*
G75*
G02*
X25415000Y13187500I0J237500D01*
G01*
X25415000Y13662500D01*
G75*
G02*
X25652500Y13900000I237500J0D01*
G01*
X26252500Y13900000D01*
G75*
G02*
X26490000Y13662500I0J-237500D01*
G01*
G37*
G04 #@! TD.AperFunction*
G04 #@! TO.P,C5,1*
G04 #@! TO.N,/OSC_OUT*
G04 #@! TA.AperFunction,SMDPad,CuDef*
G36*
G01*
X28215000Y13662500D02*
X28215000Y13187500D01*
G75*
G02*
X27977500Y12950000I-237500J0D01*
G01*
X27377500Y12950000D01*
G75*
G02*
X27140000Y13187500I0J237500D01*
G01*
X27140000Y13662500D01*
G75*
G02*
X27377500Y13900000I237500J0D01*
G01*
X27977500Y13900000D01*
G75*
G02*
X28215000Y13662500I0J-237500D01*
G01*
G37*
G04 #@! TD.AperFunction*
G04 #@! TD*
G04 #@! TO.P,C4,2*
G04 #@! TO.N,GND*
G04 #@! TA.AperFunction,SMDPad,CuDef*
G36*
G01*
X18610000Y17482500D02*
X18610000Y17007500D01*
G75*
G02*
X18372500Y16770000I-237500J0D01*
G01*
X17772500Y16770000D01*
G75*
G02*
X17535000Y17007500I0J237500D01*
G01*
X17535000Y17482500D01*
G75*
G02*
X17772500Y17720000I237500J0D01*
G01*
X18372500Y17720000D01*
G75*
G02*
X18610000Y17482500I0J-237500D01*
G01*
G37*
G04 #@! TD.AperFunction*
G04 #@! TO.P,C4,1*
G04 #@! TO.N,/NRST*
G04 #@! TA.AperFunction,SMDPad,CuDef*
G36*
G01*
X20335000Y17482500D02*
X20335000Y17007500D01*
G75*
G02*
X20097500Y16770000I-237500J0D01*
G01*
X19497500Y16770000D01*
G75*
G02*
X19260000Y17007500I0J237500D01*
G01*
X19260000Y17482500D01*
G75*
G02*
X19497500Y17720000I237500J0D01*
G01*
X20097500Y17720000D01*
G75*
G02*
X20335000Y17482500I0J-237500D01*
G01*
G37*
G04 #@! TD.AperFunction*
G04 #@! TD*
G04 #@! TO.P,C3,2*
G04 #@! TO.N,GND*
G04 #@! TA.AperFunction,SMDPad,CuDef*
G36*
G01*
X44132500Y15740000D02*
X43657500Y15740000D01*
G75*
G02*
X43420000Y15977500I0J237500D01*
G01*
X43420000Y16577500D01*
G75*
G02*
X43657500Y16815000I237500J0D01*
G01*
X44132500Y16815000D01*
G75*
G02*
X44370000Y16577500I0J-237500D01*
G01*
X44370000Y15977500D01*
G75*
G02*
X44132500Y15740000I-237500J0D01*
G01*
G37*
G04 #@! TD.AperFunction*
G04 #@! TO.P,C3,1*
G04 #@! TO.N,VCC*
G04 #@! TA.AperFunction,SMDPad,CuDef*
G36*
G01*
X44132500Y14015000D02*
X43657500Y14015000D01*
G75*
G02*
X43420000Y14252500I0J237500D01*
G01*
X43420000Y14852500D01*
G75*
G02*
X43657500Y15090000I237500J0D01*
G01*
X44132500Y15090000D01*
G75*
G02*
X44370000Y14852500I0J-237500D01*
G01*
X44370000Y14252500D01*
G75*
G02*
X44132500Y14015000I-237500J0D01*
G01*
G37*
G04 #@! TD.AperFunction*
G04 #@! TD*
G04 #@! TO.P,C2,2*
G04 #@! TO.N,GND*
G04 #@! TA.AperFunction,SMDPad,CuDef*
G36*
G01*
X47677500Y15080000D02*
X48152500Y15080000D01*
G75*
G02*
X48390000Y14842500I0J-237500D01*
G01*
X48390000Y14242500D01*
G75*
G02*
X48152500Y14005000I-237500J0D01*
G01*
X47677500Y14005000D01*
G75*
G02*
X47440000Y14242500I0J237500D01*
G01*
X47440000Y14842500D01*
G75*
G02*
X47677500Y15080000I237500J0D01*
G01*
G37*
G04 #@! TD.AperFunction*
G04 #@! TO.P,C2,1*
G04 #@! TO.N,Net-(C1-Pad1)*
G04 #@! TA.AperFunction,SMDPad,CuDef*
G36*
G01*
X47677500Y16805000D02*
X48152500Y16805000D01*
G75*
G02*
X48390000Y16567500I0J-237500D01*
G01*
X48390000Y15967500D01*
G75*
G02*
X48152500Y15730000I-237500J0D01*
G01*
X47677500Y15730000D01*
G75*
G02*
X47440000Y15967500I0J237500D01*
G01*
X47440000Y16567500D01*
G75*
G02*
X47677500Y16805000I237500J0D01*
G01*
G37*
G04 #@! TD.AperFunction*
G04 #@! TD*
G04 #@! TO.P,C1,2*
G04 #@! TO.N,GND*
G04 #@! TA.AperFunction,SMDPad,CuDef*
G36*
G01*
X49477500Y15080000D02*
X49952500Y15080000D01*
G75*
G02*
X50190000Y14842500I0J-237500D01*
G01*
X50190000Y14242500D01*
G75*
G02*
X49952500Y14005000I-237500J0D01*
G01*
X49477500Y14005000D01*
G75*
G02*
X49240000Y14242500I0J237500D01*
G01*
X49240000Y14842500D01*
G75*
G02*
X49477500Y15080000I237500J0D01*
G01*
G37*
G04 #@! TD.AperFunction*
G04 #@! TO.P,C1,1*
G04 #@! TO.N,Net-(C1-Pad1)*
G04 #@! TA.AperFunction,SMDPad,CuDef*
G36*
G01*
X49477500Y16805000D02*
X49952500Y16805000D01*
G75*
G02*
X50190000Y16567500I0J-237500D01*
G01*
X50190000Y15967500D01*
G75*
G02*
X49952500Y15730000I-237500J0D01*
G01*
X49477500Y15730000D01*
G75*
G02*
X49240000Y15967500I0J237500D01*
G01*
X49240000Y16567500D01*
G75*
G02*
X49477500Y16805000I237500J0D01*
G01*
G37*
G04 #@! TD.AperFunction*
G04 #@! TD*
D23*
G04 #@! TO.N,VCC*
X30691000Y17667400D03*
X32577000Y12432600D03*
X32478000Y26249100D03*
X27955000Y20285300D03*
G04 #@! TO.N,/NRST*
X20938000Y17414800D03*
X28279000Y16166000D03*
G04 #@! TO.N,/PA0*
X9176600Y6621000D03*
G04 #@! TD*
D24*
G04 #@! TO.N,GND*
X27180700Y21867600D02*
X27180700Y21867300D01*
X27180700Y21867600D02*
X27181000Y21867300D01*
X27181000Y21867300D02*
X28037000Y21010600D01*
X28037000Y21010600D02*
X28285000Y21010600D01*
X28285000Y21010600D02*
X29965000Y19329600D01*
X29965000Y19329600D02*
X29965000Y18425100D01*
X24815000Y21287500D02*
X25977000Y22449300D01*
X25977000Y22449300D02*
X26599000Y22449300D01*
X26599000Y22449300D02*
X27180700Y21867600D01*
X33067200Y25049400D02*
X33067000Y25049300D01*
X33067000Y25049300D02*
X32498000Y24480400D01*
X32498000Y24480400D02*
X32498000Y20870400D01*
X32498000Y20870400D02*
X33631000Y19738300D01*
X32607300Y27414800D02*
X33649000Y26373700D01*
X33649000Y26373700D02*
X33649000Y25630800D01*
X33649000Y25630800D02*
X33067200Y25049400D01*
X33067300Y25049300D02*
X33067200Y25049400D01*
X36249000Y19162700D02*
X44317000Y11095100D01*
X44317000Y11095100D02*
X44317000Y7553300D01*
X44317000Y7553300D02*
X47965000Y3905200D01*
X47965000Y3905200D02*
X47965000Y2875900D01*
X47965000Y2875900D02*
X48765000Y2075500D01*
X48765000Y2075500D02*
X52255000Y2075500D01*
X52255000Y2075500D02*
X53140000Y2960200D01*
X53140000Y2960200D02*
X53140000Y3275000D01*
X53140000Y3275000D02*
X54315000Y3275000D01*
X33631000Y19738300D02*
X35674000Y19738300D01*
X35674000Y19738300D02*
X36249000Y19162700D01*
X36249300Y19162700D02*
X36249000Y19162700D01*
X55502500Y22305000D02*
X55503000Y22305000D01*
X55502500Y17205000D02*
X55503000Y17205000D01*
X30852500Y13525000D02*
X30853000Y13525000D01*
X32607000Y27415000D02*
X32607300Y27414800D01*
X32607500Y27415000D02*
X32607300Y27414800D01*
X25952500Y13425000D02*
X25953000Y13425000D01*
X22352500Y13425000D02*
X22353000Y13425000D01*
X53048000Y14542500D02*
X53048000Y5717300D01*
X53048000Y5717300D02*
X54315000Y4450300D01*
X54315000Y4450300D02*
X54315000Y3275000D01*
X49715000Y14542500D02*
X53048000Y14542500D01*
X24000000Y9689700D02*
X22935000Y9689700D01*
X22935000Y9689700D02*
X22353000Y10272000D01*
X26355000Y11065000D02*
X26355000Y9689700D01*
X26355000Y9689700D02*
X24000000Y9689700D01*
X2339400Y6913200D02*
X2339400Y2752800D01*
X2339400Y2752800D02*
X3016700Y2075500D01*
X3016700Y2075500D02*
X11662300Y2075500D01*
X11662300Y2075500D02*
X12405000Y2818200D01*
X12405000Y2818200D02*
X12405000Y3681300D01*
X12405000Y3681300D02*
X18995700Y10272000D01*
X18995700Y10272000D02*
X22353000Y10272000D01*
X5377500Y7725000D02*
X4565700Y6913200D01*
X4565700Y6913200D02*
X2339400Y6913200D01*
X4575000Y29345000D02*
X1774000Y26544000D01*
X1774000Y26544000D02*
X1774000Y7478600D01*
X1774000Y7478600D02*
X2339400Y6913200D01*
X8479700Y10675000D02*
X8479700Y13530100D01*
X8479700Y13530100D02*
X5737300Y16272500D01*
X5737300Y16272500D02*
X5215000Y16272500D01*
X18195000Y19145000D02*
X18195000Y17367500D01*
X18195000Y17367500D02*
X18072500Y17245000D01*
X24055000Y8165000D02*
X24055000Y9635000D01*
X24055000Y9635000D02*
X24000000Y9689700D01*
X25953000Y13425000D02*
X25953000Y12842800D01*
X25953000Y12842800D02*
X26355000Y12440300D01*
X26355000Y12440300D02*
X26355000Y11065000D01*
X44505000Y21405000D02*
X44505000Y22180300D01*
X44505000Y22180300D02*
X43895000Y22790300D01*
X43895000Y22790300D02*
X43895000Y23655000D01*
X44505000Y21405000D02*
X43030000Y21405000D01*
X43030000Y21405000D02*
X41217000Y19592400D01*
X18195000Y23245000D02*
X18195000Y19145000D01*
X24815000Y21287500D02*
X23115000Y21287500D01*
X18195000Y23245000D02*
X18195000Y24020300D01*
X23115000Y21287500D02*
X23115000Y21335100D01*
X23115000Y21335100D02*
X20430000Y24020300D01*
X20430000Y24020300D02*
X18195000Y24020300D01*
X9655000Y10675000D02*
X8479700Y10675000D01*
X4575000Y29345000D02*
X4575000Y30520300D01*
X4575000Y30520300D02*
X3830000Y31265300D01*
X3830000Y31265300D02*
X3830000Y32325000D01*
X3652500Y32325000D02*
X3830000Y32325000D01*
X18195000Y24020300D02*
X18195000Y25573100D01*
X18195000Y25573100D02*
X13098000Y30670100D01*
X13098000Y30670100D02*
X8828300Y30670100D01*
X8828300Y30670100D02*
X6330500Y33167900D01*
X6330500Y33167900D02*
X4672900Y33167900D01*
X4672900Y33167900D02*
X3830000Y32325000D01*
X8479700Y10675000D02*
X8479700Y10307700D01*
X8479700Y10307700D02*
X5897000Y7725000D01*
X5897000Y7725000D02*
X5377500Y7725000D01*
X22353000Y13425000D02*
X22353000Y10272000D01*
X55503000Y17205000D02*
X55503000Y16997000D01*
X47915000Y14542500D02*
X49715000Y14542500D01*
X53048000Y14542500D02*
X55503000Y16997000D01*
X38615000Y19582500D02*
X38625000Y19592400D01*
X38625000Y19592400D02*
X41217000Y19592400D01*
X43895000Y16277500D02*
X43679000Y16493900D01*
X43679000Y16493900D02*
X43679000Y17130800D01*
X43679000Y17130800D02*
X41217000Y19592400D01*
X31660000Y17767700D02*
X31660000Y14332400D01*
X31660000Y14332400D02*
X30853000Y13525000D01*
X33631000Y19738300D02*
X31660000Y17767700D01*
X31660000Y17767700D02*
X31003000Y18425100D01*
X31003000Y18425100D02*
X29965000Y18425100D01*
X29965000Y18425100D02*
X29965000Y17704800D01*
X29965000Y17704800D02*
X29302000Y17041300D01*
X45356500Y14725000D02*
X47732500Y14725000D01*
X47732500Y14725000D02*
X47915000Y14542500D01*
X43895000Y16277500D02*
X43895000Y16186500D01*
X43895000Y16186500D02*
X45356500Y14725000D01*
X61105000Y23225000D02*
X56423000Y23225000D01*
X56423000Y23225000D02*
X56319000Y23121000D01*
X56403000Y23205000D02*
X56319000Y23121000D01*
X56319000Y23121000D02*
X55503000Y22305000D01*
X56557000Y15943000D02*
X55503000Y16997000D01*
X58638000Y15943000D02*
X56557000Y15943000D01*
X61105000Y16825000D02*
X59520000Y16825000D01*
X59520000Y16825000D02*
X58638000Y15943000D01*
X61685000Y12542500D02*
X62515000Y11712500D01*
X61685000Y15705000D02*
X61685000Y12542500D01*
X61105000Y23765000D02*
X61685000Y24345000D01*
X61105000Y23225000D02*
X61105000Y23765000D01*
X61105000Y16285000D02*
X61685000Y15705000D01*
X61105000Y16825000D02*
X61105000Y16285000D01*
X61685000Y24345000D02*
X65855000Y24345000D01*
X61685000Y15705000D02*
X65855000Y15705000D01*
X65855000Y24345000D02*
X65855000Y15705000D01*
X61685000Y27457500D02*
X61685000Y24345000D01*
X62515000Y28287500D02*
X61685000Y27457500D01*
G04 #@! TO.N,VCC*
X32713900Y25403000D02*
X32714000Y25402900D01*
X32478000Y26249100D02*
X32478000Y25638600D01*
X32478000Y25638600D02*
X32713900Y25403000D01*
X32713800Y25402900D02*
X32713900Y25403000D01*
X26827000Y20899600D02*
X26827100Y20899700D01*
X26827100Y20899700D02*
X26827100Y21513800D01*
X26827000Y20899600D02*
X26827000Y20285300D01*
X26827000Y21513800D02*
X26827000Y20899600D01*
X29655600Y16687800D02*
X29656000Y16687800D01*
X36603000Y19516200D02*
X36602900Y19516200D01*
X36603000Y19516200D02*
X36824000Y19516200D01*
X36824000Y19516200D02*
X37077000Y19769600D01*
X32577500Y13525000D02*
X32577000Y13525000D01*
X30882500Y27415000D02*
X30883000Y27415000D01*
X26827000Y19539400D02*
X26827100Y19539300D01*
X26827100Y19539300D02*
X26827100Y19516200D01*
X26827000Y19539400D02*
X26827000Y19516200D01*
X26827000Y19562500D02*
X26827000Y19539400D01*
X43895000Y14552500D02*
X44643000Y13805000D01*
X44643000Y13805000D02*
X45915000Y13805000D01*
X37077000Y19769600D02*
X42294000Y14552500D01*
X42294000Y14552500D02*
X43895000Y14552500D01*
X26827000Y20285300D02*
X26827000Y19562500D01*
X27955000Y20285300D02*
X26827000Y20285300D01*
X23115000Y19562500D02*
X23115000Y18548200D01*
X23115000Y18548200D02*
X20977000Y16409800D01*
X20977000Y16409800D02*
X16330200Y16409800D01*
X16330200Y16409800D02*
X12455000Y20285000D01*
X12455000Y20285000D02*
X12415000Y20285000D01*
X13140000Y23110000D02*
X13140000Y23625000D01*
X49235000Y3275000D02*
X49235000Y4450300D01*
X49235000Y4450300D02*
X45915000Y7770300D01*
X45915000Y7770300D02*
X45915000Y13805000D01*
X61935000Y36725000D02*
X60760000Y36725000D01*
X60760000Y36725000D02*
X60760000Y37092300D01*
X60760000Y37092300D02*
X59952000Y37900300D01*
X59952000Y37900300D02*
X53758000Y37900300D01*
X53758000Y37900300D02*
X52950000Y37092400D01*
X52950000Y37092400D02*
X52950000Y36725000D01*
X52950000Y36725000D02*
X51775000Y36725000D01*
X32577000Y12432600D02*
X32577000Y13525000D01*
X24815000Y19562500D02*
X23115000Y19562500D01*
X24815000Y19562500D02*
X26827000Y19562500D01*
X32478000Y26249100D02*
X32048000Y26249100D01*
X32048000Y26249100D02*
X30883000Y27415000D01*
X37077000Y19769600D02*
X38615000Y21307500D01*
X29656000Y16687800D02*
X30635000Y17667400D01*
X30635000Y17667400D02*
X30691000Y17667400D01*
X12115000Y20585000D02*
X12415000Y20285000D01*
X13140000Y23625000D02*
X12315000Y23625000D01*
X12315000Y23625000D02*
X12115000Y23425000D01*
X12115000Y22325000D02*
X12115000Y20585000D01*
X12115000Y23425000D02*
X12115000Y22325000D01*
X8922500Y23817500D02*
X5215000Y23817500D01*
X10421600Y22318400D02*
X8922500Y23817500D01*
X10428200Y22325000D02*
X10421600Y22318400D01*
X12115000Y22325000D02*
X10428200Y22325000D01*
G04 #@! TO.N,+5V*
X50015000Y23595000D02*
X50840000Y23595000D01*
X50840000Y23595000D02*
X54680000Y19755000D01*
X54680000Y19755000D02*
X55981000Y19755000D01*
X55981000Y19755000D02*
X56472000Y19264300D01*
X56472000Y19264300D02*
X56472000Y16764800D01*
X56472000Y16764800D02*
X56841000Y16395900D01*
X56841000Y16395900D02*
X57892000Y16395900D01*
X57892000Y16395900D02*
X59101000Y17605000D01*
X61770002Y17625000D02*
X61105000Y17625000D01*
X62460011Y18315009D02*
X61770002Y17625000D01*
X62460011Y21734991D02*
X62460011Y18315009D01*
X61105000Y22425000D02*
X61770002Y22425000D01*
X61770002Y22425000D02*
X62460011Y21734991D01*
X61085000Y17605000D02*
X61105000Y17625000D01*
X59101000Y17605000D02*
X61085000Y17605000D01*
G04 #@! TO.N,Net-(D1-Pad1)*
X50015000Y26095000D02*
X48120000Y26095000D01*
X48120000Y26095000D02*
X47755000Y25730000D01*
G04 #@! TO.N,Net-(D2-Pad2)*
X43895000Y25405000D02*
X45703000Y25405000D01*
X45703000Y25405000D02*
X45715000Y25417500D01*
G04 #@! TO.N,Net-(J1-PadB5)*
X57327500Y22304500D02*
X57327500Y22305000D01*
X57327500Y22304500D02*
X57327000Y22305000D01*
X57857500Y21775000D02*
X57327500Y22305000D01*
X61105000Y21775000D02*
X57857500Y21775000D01*
G04 #@! TO.N,Net-(J1-PadA6)*
X57327500Y28225000D02*
X57327000Y28225000D01*
X57327500Y20605000D02*
X57327000Y20605000D01*
X57327000Y20605000D02*
X56526000Y21406300D01*
X56526000Y21406300D02*
X55097000Y21406300D01*
X55097000Y21406300D02*
X54688000Y21815600D01*
X54688000Y21815600D02*
X54688000Y25585700D01*
X54688000Y25585700D02*
X57327000Y28225000D01*
X57497500Y20775000D02*
X57327500Y20605000D01*
X61105000Y20775000D02*
X57497500Y20775000D01*
X60275000Y19775000D02*
X61105000Y19775000D01*
X60199999Y19850001D02*
X60275000Y19775000D01*
X60199999Y20699999D02*
X60199999Y19850001D01*
X60275000Y20775000D02*
X60199999Y20699999D01*
X61105000Y20775000D02*
X60275000Y20775000D01*
G04 #@! TO.N,Net-(J1-PadA5)*
X57327500Y17205500D02*
X57327500Y17205000D01*
X57327500Y17205500D02*
X57327000Y17205000D01*
X58897500Y18775000D02*
X57327500Y17205000D01*
X61105000Y18775000D02*
X58897500Y18775000D01*
G04 #@! TO.N,Net-(J1-PadA7)*
X57327500Y18905500D02*
X57327500Y18905000D01*
X57327000Y18905000D02*
X57327500Y18905500D01*
X57697500Y19275000D02*
X57327500Y18905000D01*
X61105000Y19275000D02*
X57697500Y19275000D01*
X62010001Y20185001D02*
X61920002Y20275000D01*
X62010001Y19364999D02*
X62010001Y20185001D01*
X61920002Y20275000D02*
X61105000Y20275000D01*
X61920002Y19275000D02*
X62010001Y19364999D01*
X61105000Y19275000D02*
X61920002Y19275000D01*
G04 #@! TO.N,/NRST*
X19797500Y17245000D02*
X19797000Y17245000D01*
X28613500Y17060200D02*
X28613700Y17060200D01*
X28613700Y17060200D02*
X28948400Y17394900D01*
X28613500Y17060200D02*
X28279000Y16725500D01*
X28279000Y16725500D02*
X28279000Y16166000D01*
X28948000Y17394900D02*
X28613500Y17060200D01*
X19797000Y17414800D02*
X20938000Y17414800D01*
X19797000Y17245000D02*
X19797000Y17414800D01*
X19795000Y19145000D02*
X19795000Y23245000D01*
X19795000Y19145000D02*
X19795000Y18369700D01*
X19795000Y18369700D02*
X19797000Y18367200D01*
X19797000Y18367200D02*
X19797000Y17414800D01*
G04 #@! TO.N,/OSC_OUT*
X28594900Y17748400D02*
X28595000Y17748400D01*
X27677000Y13425000D02*
X27551000Y13551900D01*
X27551000Y13551900D02*
X27551000Y16704100D01*
X27551000Y16704100D02*
X28595000Y17748400D01*
X26355000Y8165000D02*
X27580000Y8165000D01*
X27580000Y8165000D02*
X27580000Y13327800D01*
X27580000Y13327800D02*
X27677000Y13425000D01*
X27677500Y13425000D02*
X27677000Y13425000D01*
X13675000Y3275000D02*
X14850300Y3275000D01*
X14850300Y3275000D02*
X14850300Y3642400D01*
X14850300Y3642400D02*
X17461800Y6253900D01*
X17461800Y6253900D02*
X24575000Y6253900D01*
X24575000Y6253900D02*
X26355000Y8034100D01*
X26355000Y8034100D02*
X26355000Y8165000D01*
G04 #@! TO.N,/OSC_IN*
X24077000Y13425000D02*
X24077000Y14187500D01*
X24077000Y14187500D02*
X24151000Y14261500D01*
X24055000Y11065000D02*
X24055000Y12440300D01*
X24055000Y12440300D02*
X24077000Y12462800D01*
X24077000Y12462800D02*
X24077000Y13425000D01*
X24077500Y13425000D02*
X24077000Y13425000D01*
X24151000Y14261500D02*
X24401000Y14261500D01*
X24401000Y14261500D02*
X26486600Y16347400D01*
X26486600Y16347400D02*
X26486700Y16347400D01*
X26486700Y16347400D02*
X28241300Y18102000D01*
X26486600Y16347400D02*
X28241000Y18102000D01*
X11135000Y3275000D02*
X11135000Y4450300D01*
X11135000Y4450300D02*
X11974600Y4450300D01*
X11974600Y4450300D02*
X21786000Y14261500D01*
X21786000Y14261500D02*
X24151000Y14261500D01*
G04 #@! TO.N,/PB9*
X27534200Y22220900D02*
X27534000Y22220900D01*
X3515000Y36725000D02*
X4690300Y36725000D01*
X4690300Y36725000D02*
X4690300Y36357700D01*
X4690300Y36357700D02*
X7735400Y33312600D01*
X7735400Y33312600D02*
X11092400Y33312600D01*
X11092400Y33312600D02*
X19172200Y25232800D01*
X19172200Y25232800D02*
X24522000Y25232800D01*
X24522000Y25232800D02*
X27534000Y22220900D01*
G04 #@! TO.N,/PB8*
X26333500Y24128800D02*
X27887800Y22574500D01*
X27887800Y22574500D02*
X27887800Y22574400D01*
X26333500Y24128800D02*
X27888000Y22574400D01*
X6055000Y36725000D02*
X7230300Y36725000D01*
X7230300Y36725000D02*
X7230300Y36413700D01*
X7230300Y36413700D02*
X9406700Y34237300D01*
X9406700Y34237300D02*
X11226700Y34237300D01*
X11226700Y34237300D02*
X19781000Y25683200D01*
X19781000Y25683200D02*
X24779000Y25683200D01*
X24779000Y25683200D02*
X26333500Y24128800D01*
G04 #@! TO.N,/PB7*
X27027500Y24849000D02*
X28595000Y23281600D01*
X8595000Y36725000D02*
X9770300Y36725000D01*
X9770300Y36725000D02*
X9770300Y36413800D01*
X9770300Y36413800D02*
X19768000Y26416400D01*
X19768000Y26416400D02*
X25460000Y26416400D01*
X25460000Y26416400D02*
X27027500Y24849000D01*
X27027500Y24849000D02*
X28594900Y23281600D01*
G04 #@! TO.N,/PB6*
X28948400Y23635100D02*
X28948000Y23635100D01*
X11135000Y36725000D02*
X12310300Y36725000D01*
X12310300Y36725000D02*
X12310300Y36357700D01*
X12310300Y36357700D02*
X21185000Y27483000D01*
X21185000Y27483000D02*
X25101000Y27483000D01*
X25101000Y27483000D02*
X28948000Y23635100D01*
G04 #@! TO.N,/PB5*
X13675000Y36725000D02*
X14850300Y36725000D01*
X14850300Y36725000D02*
X14850300Y36357700D01*
X14850300Y36357700D02*
X23013000Y28195200D01*
X23013000Y28195200D02*
X25095000Y28195200D01*
X25095000Y28195200D02*
X29302000Y23988700D01*
G04 #@! TO.N,/PB4*
X28305300Y25692800D02*
X25604000Y28393900D01*
X25604000Y28393900D02*
X25353000Y28645200D01*
X25353000Y28645200D02*
X24975000Y28645200D01*
X24975000Y28645200D02*
X24726000Y28893900D01*
X24726000Y28893900D02*
X24707000Y28893900D01*
X24707000Y28893900D02*
X17390300Y36210800D01*
X17390300Y36210800D02*
X17390300Y36725000D01*
X17390300Y36725000D02*
X16215000Y36725000D01*
X28305300Y25692800D02*
X29655600Y24342500D01*
X29655600Y24342500D02*
X29655600Y24342200D01*
X29656000Y24342200D02*
X28305300Y25692800D01*
G04 #@! TO.N,/PB3*
X30009100Y24695800D02*
X30009000Y24695800D01*
X18755000Y36725000D02*
X18755000Y35549700D01*
X18755000Y35549700D02*
X19155200Y35549700D01*
X19155200Y35549700D02*
X30009000Y24695800D01*
G04 #@! TO.N,/PA15*
X21295000Y36725000D02*
X21295000Y34117000D01*
X21295000Y34117000D02*
X27340300Y28071900D01*
X27340300Y28071900D02*
X30362700Y25049500D01*
X30362700Y25049500D02*
X30362700Y25049300D01*
X27340300Y28071900D02*
X30363000Y25049300D01*
G04 #@! TO.N,/PA14*
X30716200Y25402900D02*
X30716000Y25402900D01*
X23835000Y36725000D02*
X23835000Y32284100D01*
X23835000Y32284100D02*
X30716000Y25402900D01*
G04 #@! TO.N,/PA13*
X55502500Y28225000D02*
X55503000Y28225000D01*
X33765500Y25040200D02*
X33765300Y25040200D01*
X33765300Y25040200D02*
X33420900Y24695800D01*
X33765500Y25040200D02*
X33421000Y24695800D01*
X26375000Y36725000D02*
X26375000Y35549700D01*
X26375000Y35549700D02*
X34110000Y27815000D01*
X34110000Y27815000D02*
X34110000Y25384600D01*
X34110000Y25384600D02*
X33765500Y25040200D01*
X56855000Y36725000D02*
X56855000Y29577500D01*
X56855000Y29577500D02*
X55503000Y28225000D01*
G04 #@! TO.N,/PA12*
X33774200Y24342400D02*
X33774000Y24342200D01*
X28915000Y36725000D02*
X28915000Y35549700D01*
X28915000Y35549700D02*
X34607000Y29858200D01*
X34607000Y29858200D02*
X34607000Y25174300D01*
X34607000Y25174300D02*
X33774200Y24342400D01*
X33774400Y24342200D02*
X33774200Y24342400D01*
X55502500Y20605000D02*
X55503000Y20605000D01*
X28915000Y36725000D02*
X30090000Y36725000D01*
X30090000Y36725000D02*
X30090000Y37092300D01*
X30090000Y37092300D02*
X30924000Y37925800D01*
X30924000Y37925800D02*
X49701000Y37925800D01*
X49701000Y37925800D02*
X50505000Y37121300D01*
X50505000Y37121300D02*
X50505000Y35885000D01*
X50505000Y35885000D02*
X52968000Y33422000D01*
X52968000Y33422000D02*
X52968000Y22896700D01*
X52968000Y22896700D02*
X55260000Y20605000D01*
X55260000Y20605000D02*
X55502500Y20605000D01*
G04 #@! TO.N,/PA11*
X55502500Y18905000D02*
X55503000Y18905000D01*
X46465000Y24529900D02*
X46552600Y24617500D01*
X35102000Y31902800D02*
X35102000Y24962600D01*
X40380000Y24529900D02*
X46465000Y24529900D01*
X33552000Y23413100D02*
X33552000Y23046400D01*
X31455000Y35549700D02*
X35102000Y31902800D01*
X53171000Y18905000D02*
X55502500Y18905000D01*
X34128000Y23988700D02*
X33552000Y23413100D01*
X31455000Y36725000D02*
X31455000Y35549700D01*
X36430000Y20579700D02*
X40380000Y24529900D01*
X48823222Y23253178D02*
X49145000Y22931400D01*
X33552000Y23046400D02*
X36019000Y20579700D01*
X49145000Y22931400D02*
X53171000Y18905000D01*
X36019000Y20579700D02*
X36430000Y20579700D01*
X48823222Y24233222D02*
X48823222Y23253178D01*
X46552600Y24617500D02*
X48439000Y24617500D01*
X35102000Y24962600D02*
X34128000Y23988700D01*
X48439000Y24617500D02*
X48823222Y24233222D01*
G04 #@! TO.N,/PA10*
X35049500Y24202900D02*
X35049400Y24202900D01*
X35049400Y24202900D02*
X34481600Y23635100D01*
X35049500Y24202900D02*
X34482000Y23635100D01*
X33995000Y36725000D02*
X33995000Y35549700D01*
X33995000Y35549700D02*
X35617000Y33927500D01*
X35617000Y33927500D02*
X35617000Y24770700D01*
X35617000Y24770700D02*
X35049500Y24202900D01*
G04 #@! TO.N,/PA9*
X34835100Y23281600D02*
X34835000Y23281600D01*
X36535000Y36725000D02*
X36535000Y24981500D01*
X36535000Y24981500D02*
X34835100Y23281600D01*
G04 #@! TO.N,/PA8*
X35188700Y22928000D02*
X35189000Y22928000D01*
X39075000Y36725000D02*
X39075000Y26814300D01*
X39075000Y26814300D02*
X35189000Y22928000D01*
G04 #@! TO.N,/PB15*
X38578500Y25610800D02*
X35542200Y22574500D01*
X35542200Y22574500D02*
X35542200Y22574400D01*
X38578500Y25610800D02*
X35542000Y22574400D01*
X41615000Y36725000D02*
X41615000Y28647200D01*
X41615000Y28647200D02*
X38578500Y25610800D01*
G04 #@! TO.N,/PB14*
X40025500Y26350500D02*
X40025400Y26350500D01*
X40025400Y26350500D02*
X35895800Y22220900D01*
X40025500Y26350500D02*
X35896000Y22220900D01*
X44155000Y36725000D02*
X44155000Y30480100D01*
X44155000Y30480100D02*
X40025500Y26350500D01*
G04 #@! TO.N,/PB13*
X46695000Y36725000D02*
X46695000Y32313000D01*
X46695000Y32313000D02*
X39731000Y25349200D01*
X39731000Y25349200D02*
X36249300Y21867500D01*
X36249300Y21867500D02*
X36249300Y21867300D01*
X39731000Y25349200D02*
X36249000Y21867300D01*
G04 #@! TO.N,/PB12*
X36602900Y21513800D02*
X36603000Y21513800D01*
X49235000Y36725000D02*
X49235000Y34145900D01*
X49235000Y34145900D02*
X36603000Y21513800D01*
G04 #@! TO.N,/BOOT0_UP*
X64475000Y36725000D02*
X64475000Y35549700D01*
X64475000Y35549700D02*
X64465000Y35539700D01*
X64465000Y35539700D02*
X64465000Y28287500D01*
G04 #@! TO.N,/PC13*
X3515000Y3275000D02*
X4690300Y3275000D01*
X4690300Y3275000D02*
X4690300Y3642300D01*
X4690300Y3642300D02*
X6940800Y5892800D01*
X6940800Y5892800D02*
X11170600Y5892800D01*
X11170600Y5892800D02*
X20996000Y15718400D01*
X20996000Y15718400D02*
X23736000Y15718400D01*
X23736000Y15718400D02*
X25704600Y17686600D01*
X25704600Y17686600D02*
X27180700Y19162700D01*
X25704600Y17686600D02*
X27181000Y19162700D01*
G04 #@! TO.N,/PC14*
X25763500Y17038600D02*
X25763700Y17038600D01*
X25763700Y17038600D02*
X27534200Y18809100D01*
X25763500Y17038600D02*
X27534000Y18809100D01*
X6055000Y3275000D02*
X7230300Y3275000D01*
X7230300Y3275000D02*
X7230300Y3617400D01*
X7230300Y3617400D02*
X9055400Y5442500D01*
X9055400Y5442500D02*
X11357200Y5442500D01*
X11357200Y5442500D02*
X21183000Y15268100D01*
X21183000Y15268100D02*
X23993000Y15268100D01*
X23993000Y15268100D02*
X25763500Y17038600D01*
G04 #@! TO.N,/PC15*
X26069000Y16636700D02*
X27887800Y18455500D01*
X27887800Y18455500D02*
X27887800Y18455600D01*
X26069000Y16636700D02*
X27888000Y18455600D01*
X8595000Y3275000D02*
X9770300Y3275000D01*
X9770300Y3275000D02*
X9770300Y3746100D01*
X9770300Y3746100D02*
X11016400Y4992200D01*
X11016400Y4992200D02*
X11862100Y4992200D01*
X11862100Y4992200D02*
X21688000Y14817800D01*
X21688000Y14817800D02*
X24250000Y14817800D01*
X24250000Y14817800D02*
X26069000Y16636700D01*
G04 #@! TO.N,/PA0*
X29367500Y15692500D02*
X30009100Y16334100D01*
X30009100Y16334100D02*
X30009100Y16334200D01*
X29367500Y15692500D02*
X30009000Y16334200D01*
X16215000Y3275000D02*
X17390300Y3275000D01*
X17390300Y3275000D02*
X17390300Y3642300D01*
X17390300Y3642300D02*
X19099000Y5351000D01*
X19099000Y5351000D02*
X24309000Y5351000D01*
X24309000Y5351000D02*
X25516000Y6558200D01*
X25516000Y6558200D02*
X27163000Y6558200D01*
X27163000Y6558200D02*
X28726000Y8121100D01*
X28726000Y8121100D02*
X28726000Y15050800D01*
X28726000Y15050800D02*
X29367500Y15692500D01*
X13027500Y17245000D02*
X13385000Y16887500D01*
X13385000Y16887500D02*
X13385000Y10191200D01*
X13385000Y10191200D02*
X9814900Y6621100D01*
X9814900Y6621100D02*
X9176600Y6621100D01*
X9176600Y6621100D02*
X9176600Y6621000D01*
G04 #@! TO.N,/PA1*
X30362800Y15980600D02*
X30363000Y15980700D01*
X18755000Y3275000D02*
X19930000Y3275000D01*
X19930000Y3275000D02*
X19930000Y3642400D01*
X19930000Y3642400D02*
X21189000Y4900600D01*
X21189000Y4900600D02*
X24868000Y4900600D01*
X24868000Y4900600D02*
X26075000Y6107800D01*
X26075000Y6107800D02*
X27349000Y6107800D01*
X27349000Y6107800D02*
X29428000Y8186200D01*
X29428000Y8186200D02*
X29428000Y14998300D01*
X29428000Y14998300D02*
X29601000Y15171300D01*
X29601000Y15171300D02*
X29601000Y15218800D01*
X29601000Y15218800D02*
X30362800Y15980600D01*
X30362700Y15980700D02*
X30362800Y15980600D01*
G04 #@! TO.N,/PA2*
X30716200Y15627100D02*
X30716000Y15627100D01*
X21295000Y3275000D02*
X22470000Y3275000D01*
X22470000Y3275000D02*
X22470000Y3602900D01*
X22470000Y3602900D02*
X23318000Y4450300D01*
X23318000Y4450300D02*
X25055000Y4450300D01*
X25055000Y4450300D02*
X26228000Y5623300D01*
X26228000Y5623300D02*
X27548000Y5623300D01*
X27548000Y5623300D02*
X29933000Y8008700D01*
X29933000Y8008700D02*
X29933000Y14844400D01*
X29933000Y14844400D02*
X30716000Y15627100D01*
G04 #@! TO.N,/PA3*
X32713800Y15627100D02*
X32714000Y15627100D01*
X23835000Y3275000D02*
X25010000Y3275000D01*
X25010000Y3275000D02*
X25010000Y3645300D01*
X25010000Y3645300D02*
X26316000Y4951400D01*
X26316000Y4951400D02*
X27513000Y4951400D01*
X27513000Y4951400D02*
X33472000Y10910400D01*
X33472000Y10910400D02*
X33472000Y14868800D01*
X33472000Y14868800D02*
X32714000Y15627100D01*
G04 #@! TO.N,/PB0*
X36535000Y3275000D02*
X36535000Y4450300D01*
X36535000Y4450300D02*
X35909000Y5076200D01*
X35909000Y5076200D02*
X35909000Y15967400D01*
X35909000Y15967400D02*
X35195500Y16681200D01*
X35195500Y16681200D02*
X35195300Y16681200D01*
X35195300Y16681200D02*
X34481600Y17394900D01*
X35195500Y16681200D02*
X34482000Y17394900D01*
G04 #@! TO.N,/PB1*
X35597000Y16986200D02*
X34835100Y17748100D01*
X34835100Y17748100D02*
X34835100Y17748400D01*
X35597000Y16986200D02*
X34835000Y17748400D01*
X39075000Y3275000D02*
X39075000Y4450300D01*
X39075000Y4450300D02*
X36359000Y7165800D01*
X36359000Y7165800D02*
X36359000Y16224000D01*
X36359000Y16224000D02*
X35597000Y16986200D01*
G04 #@! TO.N,/PB2*
X41615000Y3275000D02*
X41615000Y4450300D01*
X41615000Y4450300D02*
X36810000Y9255500D01*
X36810000Y9255500D02*
X36810000Y16480900D01*
X36810000Y16480900D02*
X35999500Y17291500D01*
X35999500Y17291500D02*
X35999200Y17291500D01*
X35999200Y17291500D02*
X35188700Y18102000D01*
X35999500Y17291500D02*
X35189000Y18102000D01*
X64206000Y13537500D02*
X64465000Y13537500D01*
X63493000Y13537500D02*
X64206000Y13537500D01*
X62515000Y13537500D02*
X63493000Y13537500D01*
X63200000Y10840000D02*
X63360000Y11000300D01*
X63493000Y13537500D02*
X63493000Y11132500D01*
X63493000Y11132500D02*
X63200000Y10840000D01*
X41615000Y3275000D02*
X42790000Y3275000D01*
X42790000Y3275000D02*
X42790000Y2907700D01*
X42790000Y2907700D02*
X44073000Y1625200D01*
X44073000Y1625200D02*
X54392000Y1625200D01*
X54392000Y1625200D02*
X55501000Y2734000D01*
X55501000Y2734000D02*
X55501000Y3659800D01*
X55501000Y3659800D02*
X56291000Y4450000D01*
X56291000Y4450000D02*
X56830000Y4450000D01*
X56830000Y4450000D02*
X56830000Y4470000D01*
X56830000Y4470000D02*
X63200000Y10840000D01*
X64465000Y13537500D02*
X64206000Y13537500D01*
G04 #@! TO.N,/PB10*
X35542100Y18455500D02*
X35542000Y18455600D01*
X44155000Y3275000D02*
X44155000Y4450300D01*
X44155000Y4450300D02*
X37260000Y11345200D01*
X37260000Y11345200D02*
X37260000Y16737700D01*
X37260000Y16737700D02*
X35542100Y18455500D01*
X35542200Y18455600D02*
X35542100Y18455500D01*
G04 #@! TO.N,/PB11*
X46695000Y3275000D02*
X46695000Y4450300D01*
X46695000Y4450300D02*
X43707000Y7437800D01*
X43707000Y7437800D02*
X43707000Y10997400D01*
X43707000Y10997400D02*
X39243600Y15461200D01*
X39243600Y15461200D02*
X35895800Y18809000D01*
X35895800Y18809000D02*
X35895800Y18809100D01*
X39243600Y15461200D02*
X35896000Y18809100D01*
G04 #@! TO.N,/BOOT1_UP*
X64475000Y3275000D02*
X64475000Y4450300D01*
X64475000Y4450300D02*
X64465000Y4460300D01*
X64465000Y4460300D02*
X64465000Y11712500D01*
G04 #@! TO.N,Net-(D3-Pad2)*
X45915000Y16305000D02*
X46115000Y16505000D01*
X45190002Y19905000D02*
X44592500Y19905000D01*
X45980001Y19115001D02*
X45190002Y19905000D01*
X45980001Y16370001D02*
X45980001Y19115001D01*
X45915000Y16305000D02*
X45980001Y16370001D01*
G04 #@! TO.N,/DI*
X33995000Y3275000D02*
X33995000Y4450300D01*
X33995000Y4450300D02*
X35292000Y5747700D01*
X35292000Y5747700D02*
X35292000Y15876900D01*
X35292000Y15876900D02*
X34128000Y17041300D01*
X4415000Y23334500D02*
X4415000Y26645000D01*
X4899250Y22850250D02*
X4415000Y23334500D01*
X5640250Y22850250D02*
X4899250Y22850250D01*
X4415000Y26645000D02*
X4575000Y26805000D01*
X6015000Y22475500D02*
X5640250Y22850250D01*
X12195000Y13215000D02*
X11019700Y13215000D01*
X6015000Y21025000D02*
X6015000Y22475500D01*
X11019700Y13215000D02*
X11019700Y13582300D01*
X11019700Y13582300D02*
X7417000Y17185000D01*
X4275000Y19285000D02*
X6015000Y21025000D01*
X4555000Y17205000D02*
X4275000Y17485000D01*
X4555000Y17185000D02*
X4555000Y17205000D01*
X4275000Y17485000D02*
X4275000Y19285000D01*
X7417000Y17185000D02*
X4555000Y17185000D01*
G04 #@! TO.N,/CLK*
X33420900Y16334200D02*
X33421000Y16334200D01*
X28915000Y3275000D02*
X28915000Y4450300D01*
X28915000Y4450300D02*
X34385000Y9920300D01*
X34385000Y9920300D02*
X34385000Y15370100D01*
X34385000Y15370100D02*
X33421000Y16334200D01*
G04 #@! TO.N,/nWP*
X2415000Y13643000D02*
X2649000Y13409000D01*
X2224000Y19134000D02*
X2224000Y13834000D01*
X2224000Y13834000D02*
X2415000Y13643000D01*
X2649000Y13409000D02*
X2415000Y13643000D01*
X7115000Y29345000D02*
X5939700Y29345000D01*
X5939700Y29345000D02*
X5939700Y28977600D01*
X5939700Y28977600D02*
X5131800Y28169700D01*
X5131800Y28169700D02*
X4200700Y28169700D01*
X4200700Y28169700D02*
X2224000Y26193000D01*
X2224000Y26193000D02*
X2224000Y19134000D01*
X3415000Y19180000D02*
X2270000Y19180000D01*
X2270000Y19180000D02*
X2224000Y19134000D01*
X4575000Y10675000D02*
X4575000Y11850300D01*
X4575000Y11850300D02*
X4207700Y11850300D01*
X4207700Y11850300D02*
X2649000Y13409000D01*
G04 #@! TO.N,/DO*
X34306500Y16155700D02*
X33774000Y16687800D01*
X31455000Y3275000D02*
X31455000Y4450300D01*
X31455000Y4450300D02*
X34839000Y7833900D01*
X34839000Y7833900D02*
X34839000Y15623600D01*
X34839000Y15623600D02*
X34306500Y16155700D01*
X34306500Y16155700D02*
X33774400Y16687800D01*
G04 #@! TO.N,/CS*
X33067200Y15980600D02*
X33067000Y15980700D01*
X26375000Y3275000D02*
X27550000Y3275000D01*
X27550000Y3275000D02*
X27550000Y3761200D01*
X27550000Y3761200D02*
X33929000Y10140100D01*
X33929000Y10140100D02*
X33929000Y15118800D01*
X33929000Y15118800D02*
X33067200Y15980600D01*
X33067300Y15980700D02*
X33067200Y15980600D01*
G04 #@! TO.N,Net-(D4-Pad2)*
X3415000Y20930000D02*
X4152500Y20930000D01*
X4152500Y20930000D02*
X5215000Y21992500D01*
G04 #@! TO.N,Net-(D5-Pad2)*
X9415000Y19335000D02*
X8610000Y19335000D01*
X8610000Y19335000D02*
X7015000Y20930000D01*
G04 #@! TO.N,Net-(D5-Pad1)*
X7015000Y19180000D02*
X6297500Y19180000D01*
X6297500Y19180000D02*
X5215000Y18097500D01*
G04 #@! TO.N,Net-(R10-Pad2)*
X28241300Y22927700D02*
X28241300Y22928000D01*
X28241300Y22927700D02*
X28824000Y22345000D01*
X28824000Y22345000D02*
X29199000Y22345000D01*
X29199000Y22345000D02*
X31654000Y24800100D01*
X31654000Y24800100D02*
X31654000Y25299000D01*
X31654000Y25299000D02*
X25189000Y31763900D01*
X25189000Y31763900D02*
X25189000Y37265900D01*
X25189000Y37265900D02*
X26299000Y38376200D01*
X26299000Y38376200D02*
X62005000Y38376200D01*
X62005000Y38376200D02*
X63186000Y37195800D01*
X63186000Y37195800D02*
X63186000Y35757800D01*
X63186000Y35757800D02*
X63527000Y35416100D01*
X63527000Y35416100D02*
X63527000Y26462500D01*
X28241000Y22928000D02*
X28241300Y22927700D01*
X62515000Y26462500D02*
X63527000Y26462500D01*
X63527000Y26462500D02*
X64465000Y26462500D01*
G04 #@! TO.N,Net-(C1-Pad1)*
X47755000Y23592500D02*
X45715000Y23592500D01*
X47755000Y23680000D02*
X47755000Y23592500D01*
X47755000Y23592500D02*
X50280000Y21067200D01*
X50280000Y21067200D02*
X50280000Y16832800D01*
X50280000Y16832800D02*
X49715000Y16267500D01*
X49715000Y16267500D02*
X47915000Y16267500D01*
X44505000Y17629700D02*
X44505000Y18405000D01*
X47915000Y16267500D02*
X47093750Y15446250D01*
X47093750Y15446250D02*
X45272412Y15446250D01*
X44799000Y15919800D02*
X44799000Y17336100D01*
X45272412Y15446250D02*
X45104331Y15614331D01*
X44799000Y17336100D02*
X44505000Y17629700D01*
X45104331Y15614331D02*
X44799000Y15919800D01*
G04 #@! TO.N,Net-(C11-Pad1)*
X7115000Y10675000D02*
X7115000Y13215000D01*
X3652500Y7725000D02*
X5939700Y10012200D01*
X5939700Y10012200D02*
X5939700Y10675000D01*
X5939700Y10675000D02*
X7115000Y10675000D01*
X11090000Y23625000D02*
X11090000Y24524700D01*
X11090000Y24524700D02*
X12195000Y25629700D01*
X12195000Y25629700D02*
X12195000Y26805000D01*
X5377500Y32325000D02*
X5837200Y32325000D01*
X5837200Y32325000D02*
X8479700Y29682500D01*
X8479700Y29682500D02*
X8479700Y28788200D01*
X8479700Y28788200D02*
X9287600Y27980300D01*
X9287600Y27980300D02*
X9655000Y27980300D01*
X9655000Y27980300D02*
X9655000Y26805000D01*
G04 #@! TO.N,Net-(Q1-Pad1)*
X9415000Y21235000D02*
X10615000Y21235000D01*
X10615000Y21235000D02*
X10925000Y20925000D01*
X10925000Y20925000D02*
X10925000Y17522500D01*
X10925000Y17522500D02*
X11202500Y17245000D01*
G04 #@! TD*
M02*
