G04 #@! TF.GenerationSoftware,KiCad,Pcbnew,5.1.8+dfsg1-1~bpo10+1*
G04 #@! TF.CreationDate,2020-12-17T11:19:26+08:00*
G04 #@! TF.ProjectId,stm32-io-extend,73746d33-322d-4696-9f2d-657874656e64,rev?*
G04 #@! TF.SameCoordinates,PX4cf27c8PY5b7b308*
G04 #@! TF.FileFunction,Soldermask,Top*
G04 #@! TF.FilePolarity,Negative*
%FSLAX46Y46*%
G04 Gerber Fmt 4.6, Leading zero omitted, Abs format (unit mm)*
G04 Created by KiCad (PCBNEW 5.1.8+dfsg1-1~bpo10+1) date 2020-12-17 11:19:26*
%MOMM*%
%LPD*%
G01*
G04 APERTURE LIST*
%ADD10R,1.900000X0.800000*%
%ADD11R,1.800000X2.100000*%
%ADD12C,0.100000*%
%ADD13R,2.300000X0.900000*%
%ADD14R,0.550000X1.700000*%
%ADD15R,1.000000X0.900000*%
%ADD16O,1.700000X1.700000*%
%ADD17R,1.700000X1.700000*%
%ADD18R,1.160000X0.600000*%
%ADD19C,0.600000*%
%ADD20R,1.160000X0.300000*%
%ADD21O,1.700000X0.900000*%
%ADD22O,2.000000X0.900000*%
%ADD23R,1.000000X1.000000*%
G04 APERTURE END LIST*
D10*
G04 #@! TO.C,Q1*
X12415000Y20285000D03*
X9415000Y19335000D03*
X9415000Y21235000D03*
G04 #@! TD*
G04 #@! TO.C,D5*
G36*
G01*
X7252500Y20405000D02*
X6777500Y20405000D01*
G75*
G02*
X6540000Y20642500I0J237500D01*
G01*
X6540000Y21217500D01*
G75*
G02*
X6777500Y21455000I237500J0D01*
G01*
X7252500Y21455000D01*
G75*
G02*
X7490000Y21217500I0J-237500D01*
G01*
X7490000Y20642500D01*
G75*
G02*
X7252500Y20405000I-237500J0D01*
G01*
G37*
G36*
G01*
X7252500Y18655000D02*
X6777500Y18655000D01*
G75*
G02*
X6540000Y18892500I0J237500D01*
G01*
X6540000Y19467500D01*
G75*
G02*
X6777500Y19705000I237500J0D01*
G01*
X7252500Y19705000D01*
G75*
G02*
X7490000Y19467500I0J-237500D01*
G01*
X7490000Y18892500D01*
G75*
G02*
X7252500Y18655000I-237500J0D01*
G01*
G37*
G04 #@! TD*
G04 #@! TO.C,D4*
G36*
G01*
X3652500Y20405000D02*
X3177500Y20405000D01*
G75*
G02*
X2940000Y20642500I0J237500D01*
G01*
X2940000Y21217500D01*
G75*
G02*
X3177500Y21455000I237500J0D01*
G01*
X3652500Y21455000D01*
G75*
G02*
X3890000Y21217500I0J-237500D01*
G01*
X3890000Y20642500D01*
G75*
G02*
X3652500Y20405000I-237500J0D01*
G01*
G37*
G36*
G01*
X3652500Y18655000D02*
X3177500Y18655000D01*
G75*
G02*
X2940000Y18892500I0J237500D01*
G01*
X2940000Y19467500D01*
G75*
G02*
X3177500Y19705000I237500J0D01*
G01*
X3652500Y19705000D01*
G75*
G02*
X3890000Y19467500I0J-237500D01*
G01*
X3890000Y18892500D01*
G75*
G02*
X3652500Y18655000I-237500J0D01*
G01*
G37*
G04 #@! TD*
D11*
G04 #@! TO.C,Y1*
X24055000Y8165000D03*
X24055000Y11065000D03*
X26355000Y11065000D03*
X26355000Y8165000D03*
G04 #@! TD*
G04 #@! TO.C,U2*
G36*
G01*
X27189516Y20939264D02*
X26252600Y21876180D01*
G75*
G02*
X26252600Y21982246I53033J53033D01*
G01*
X26358666Y22088312D01*
G75*
G02*
X26464732Y22088312I53033J-53033D01*
G01*
X27401648Y21151396D01*
G75*
G02*
X27401648Y21045330I-53033J-53033D01*
G01*
X27295582Y20939264D01*
G75*
G02*
X27189516Y20939264I-53033J53033D01*
G01*
G37*
G36*
G01*
X27543070Y21292818D02*
X26606154Y22229734D01*
G75*
G02*
X26606154Y22335800I53033J53033D01*
G01*
X26712220Y22441866D01*
G75*
G02*
X26818286Y22441866I53033J-53033D01*
G01*
X27755202Y21504950D01*
G75*
G02*
X27755202Y21398884I-53033J-53033D01*
G01*
X27649136Y21292818D01*
G75*
G02*
X27543070Y21292818I-53033J53033D01*
G01*
G37*
G36*
G01*
X27896623Y21646371D02*
X26959707Y22583287D01*
G75*
G02*
X26959707Y22689353I53033J53033D01*
G01*
X27065773Y22795419D01*
G75*
G02*
X27171839Y22795419I53033J-53033D01*
G01*
X28108755Y21858503D01*
G75*
G02*
X28108755Y21752437I-53033J-53033D01*
G01*
X28002689Y21646371D01*
G75*
G02*
X27896623Y21646371I-53033J53033D01*
G01*
G37*
G36*
G01*
X28250177Y21999925D02*
X27313261Y22936841D01*
G75*
G02*
X27313261Y23042907I53033J53033D01*
G01*
X27419327Y23148973D01*
G75*
G02*
X27525393Y23148973I53033J-53033D01*
G01*
X28462309Y22212057D01*
G75*
G02*
X28462309Y22105991I-53033J-53033D01*
G01*
X28356243Y21999925D01*
G75*
G02*
X28250177Y21999925I-53033J53033D01*
G01*
G37*
G36*
G01*
X28603730Y22353478D02*
X27666814Y23290394D01*
G75*
G02*
X27666814Y23396460I53033J53033D01*
G01*
X27772880Y23502526D01*
G75*
G02*
X27878946Y23502526I53033J-53033D01*
G01*
X28815862Y22565610D01*
G75*
G02*
X28815862Y22459544I-53033J-53033D01*
G01*
X28709796Y22353478D01*
G75*
G02*
X28603730Y22353478I-53033J53033D01*
G01*
G37*
G36*
G01*
X28957283Y22707031D02*
X28020367Y23643947D01*
G75*
G02*
X28020367Y23750013I53033J53033D01*
G01*
X28126433Y23856079D01*
G75*
G02*
X28232499Y23856079I53033J-53033D01*
G01*
X29169415Y22919163D01*
G75*
G02*
X29169415Y22813097I-53033J-53033D01*
G01*
X29063349Y22707031D01*
G75*
G02*
X28957283Y22707031I-53033J53033D01*
G01*
G37*
G36*
G01*
X29310837Y23060585D02*
X28373921Y23997501D01*
G75*
G02*
X28373921Y24103567I53033J53033D01*
G01*
X28479987Y24209633D01*
G75*
G02*
X28586053Y24209633I53033J-53033D01*
G01*
X29522969Y23272717D01*
G75*
G02*
X29522969Y23166651I-53033J-53033D01*
G01*
X29416903Y23060585D01*
G75*
G02*
X29310837Y23060585I-53033J53033D01*
G01*
G37*
G36*
G01*
X29664390Y23414138D02*
X28727474Y24351054D01*
G75*
G02*
X28727474Y24457120I53033J53033D01*
G01*
X28833540Y24563186D01*
G75*
G02*
X28939606Y24563186I53033J-53033D01*
G01*
X29876522Y23626270D01*
G75*
G02*
X29876522Y23520204I-53033J-53033D01*
G01*
X29770456Y23414138D01*
G75*
G02*
X29664390Y23414138I-53033J53033D01*
G01*
G37*
G36*
G01*
X30017943Y23767691D02*
X29081027Y24704607D01*
G75*
G02*
X29081027Y24810673I53033J53033D01*
G01*
X29187093Y24916739D01*
G75*
G02*
X29293159Y24916739I53033J-53033D01*
G01*
X30230075Y23979823D01*
G75*
G02*
X30230075Y23873757I-53033J-53033D01*
G01*
X30124009Y23767691D01*
G75*
G02*
X30017943Y23767691I-53033J53033D01*
G01*
G37*
G36*
G01*
X30371497Y24121245D02*
X29434581Y25058161D01*
G75*
G02*
X29434581Y25164227I53033J53033D01*
G01*
X29540647Y25270293D01*
G75*
G02*
X29646713Y25270293I53033J-53033D01*
G01*
X30583629Y24333377D01*
G75*
G02*
X30583629Y24227311I-53033J-53033D01*
G01*
X30477563Y24121245D01*
G75*
G02*
X30371497Y24121245I-53033J53033D01*
G01*
G37*
G36*
G01*
X30725050Y24474798D02*
X29788134Y25411714D01*
G75*
G02*
X29788134Y25517780I53033J53033D01*
G01*
X29894200Y25623846D01*
G75*
G02*
X30000266Y25623846I53033J-53033D01*
G01*
X30937182Y24686930D01*
G75*
G02*
X30937182Y24580864I-53033J-53033D01*
G01*
X30831116Y24474798D01*
G75*
G02*
X30725050Y24474798I-53033J53033D01*
G01*
G37*
G36*
G01*
X31078604Y24828352D02*
X30141688Y25765268D01*
G75*
G02*
X30141688Y25871334I53033J53033D01*
G01*
X30247754Y25977400D01*
G75*
G02*
X30353820Y25977400I53033J-53033D01*
G01*
X31290736Y25040484D01*
G75*
G02*
X31290736Y24934418I-53033J-53033D01*
G01*
X31184670Y24828352D01*
G75*
G02*
X31078604Y24828352I-53033J53033D01*
G01*
G37*
G36*
G01*
X32245330Y24828352D02*
X32139264Y24934418D01*
G75*
G02*
X32139264Y25040484I53033J53033D01*
G01*
X33076180Y25977400D01*
G75*
G02*
X33182246Y25977400I53033J-53033D01*
G01*
X33288312Y25871334D01*
G75*
G02*
X33288312Y25765268I-53033J-53033D01*
G01*
X32351396Y24828352D01*
G75*
G02*
X32245330Y24828352I-53033J53033D01*
G01*
G37*
G36*
G01*
X32598884Y24474798D02*
X32492818Y24580864D01*
G75*
G02*
X32492818Y24686930I53033J53033D01*
G01*
X33429734Y25623846D01*
G75*
G02*
X33535800Y25623846I53033J-53033D01*
G01*
X33641866Y25517780D01*
G75*
G02*
X33641866Y25411714I-53033J-53033D01*
G01*
X32704950Y24474798D01*
G75*
G02*
X32598884Y24474798I-53033J53033D01*
G01*
G37*
G36*
G01*
X32952437Y24121245D02*
X32846371Y24227311D01*
G75*
G02*
X32846371Y24333377I53033J53033D01*
G01*
X33783287Y25270293D01*
G75*
G02*
X33889353Y25270293I53033J-53033D01*
G01*
X33995419Y25164227D01*
G75*
G02*
X33995419Y25058161I-53033J-53033D01*
G01*
X33058503Y24121245D01*
G75*
G02*
X32952437Y24121245I-53033J53033D01*
G01*
G37*
G36*
G01*
X33305991Y23767691D02*
X33199925Y23873757D01*
G75*
G02*
X33199925Y23979823I53033J53033D01*
G01*
X34136841Y24916739D01*
G75*
G02*
X34242907Y24916739I53033J-53033D01*
G01*
X34348973Y24810673D01*
G75*
G02*
X34348973Y24704607I-53033J-53033D01*
G01*
X33412057Y23767691D01*
G75*
G02*
X33305991Y23767691I-53033J53033D01*
G01*
G37*
G36*
G01*
X33659544Y23414138D02*
X33553478Y23520204D01*
G75*
G02*
X33553478Y23626270I53033J53033D01*
G01*
X34490394Y24563186D01*
G75*
G02*
X34596460Y24563186I53033J-53033D01*
G01*
X34702526Y24457120D01*
G75*
G02*
X34702526Y24351054I-53033J-53033D01*
G01*
X33765610Y23414138D01*
G75*
G02*
X33659544Y23414138I-53033J53033D01*
G01*
G37*
G36*
G01*
X34013097Y23060585D02*
X33907031Y23166651D01*
G75*
G02*
X33907031Y23272717I53033J53033D01*
G01*
X34843947Y24209633D01*
G75*
G02*
X34950013Y24209633I53033J-53033D01*
G01*
X35056079Y24103567D01*
G75*
G02*
X35056079Y23997501I-53033J-53033D01*
G01*
X34119163Y23060585D01*
G75*
G02*
X34013097Y23060585I-53033J53033D01*
G01*
G37*
G36*
G01*
X34366651Y22707031D02*
X34260585Y22813097D01*
G75*
G02*
X34260585Y22919163I53033J53033D01*
G01*
X35197501Y23856079D01*
G75*
G02*
X35303567Y23856079I53033J-53033D01*
G01*
X35409633Y23750013D01*
G75*
G02*
X35409633Y23643947I-53033J-53033D01*
G01*
X34472717Y22707031D01*
G75*
G02*
X34366651Y22707031I-53033J53033D01*
G01*
G37*
G36*
G01*
X34720204Y22353478D02*
X34614138Y22459544D01*
G75*
G02*
X34614138Y22565610I53033J53033D01*
G01*
X35551054Y23502526D01*
G75*
G02*
X35657120Y23502526I53033J-53033D01*
G01*
X35763186Y23396460D01*
G75*
G02*
X35763186Y23290394I-53033J-53033D01*
G01*
X34826270Y22353478D01*
G75*
G02*
X34720204Y22353478I-53033J53033D01*
G01*
G37*
G36*
G01*
X35073757Y21999925D02*
X34967691Y22105991D01*
G75*
G02*
X34967691Y22212057I53033J53033D01*
G01*
X35904607Y23148973D01*
G75*
G02*
X36010673Y23148973I53033J-53033D01*
G01*
X36116739Y23042907D01*
G75*
G02*
X36116739Y22936841I-53033J-53033D01*
G01*
X35179823Y21999925D01*
G75*
G02*
X35073757Y21999925I-53033J53033D01*
G01*
G37*
G36*
G01*
X35427311Y21646371D02*
X35321245Y21752437D01*
G75*
G02*
X35321245Y21858503I53033J53033D01*
G01*
X36258161Y22795419D01*
G75*
G02*
X36364227Y22795419I53033J-53033D01*
G01*
X36470293Y22689353D01*
G75*
G02*
X36470293Y22583287I-53033J-53033D01*
G01*
X35533377Y21646371D01*
G75*
G02*
X35427311Y21646371I-53033J53033D01*
G01*
G37*
G36*
G01*
X35780864Y21292818D02*
X35674798Y21398884D01*
G75*
G02*
X35674798Y21504950I53033J53033D01*
G01*
X36611714Y22441866D01*
G75*
G02*
X36717780Y22441866I53033J-53033D01*
G01*
X36823846Y22335800D01*
G75*
G02*
X36823846Y22229734I-53033J-53033D01*
G01*
X35886930Y21292818D01*
G75*
G02*
X35780864Y21292818I-53033J53033D01*
G01*
G37*
G36*
G01*
X36134418Y20939264D02*
X36028352Y21045330D01*
G75*
G02*
X36028352Y21151396I53033J53033D01*
G01*
X36965268Y22088312D01*
G75*
G02*
X37071334Y22088312I53033J-53033D01*
G01*
X37177400Y21982246D01*
G75*
G02*
X37177400Y21876180I-53033J-53033D01*
G01*
X36240484Y20939264D01*
G75*
G02*
X36134418Y20939264I-53033J53033D01*
G01*
G37*
G36*
G01*
X36965268Y18941688D02*
X36028352Y19878604D01*
G75*
G02*
X36028352Y19984670I53033J53033D01*
G01*
X36134418Y20090736D01*
G75*
G02*
X36240484Y20090736I53033J-53033D01*
G01*
X37177400Y19153820D01*
G75*
G02*
X37177400Y19047754I-53033J-53033D01*
G01*
X37071334Y18941688D01*
G75*
G02*
X36965268Y18941688I-53033J53033D01*
G01*
G37*
G36*
G01*
X36611714Y18588134D02*
X35674798Y19525050D01*
G75*
G02*
X35674798Y19631116I53033J53033D01*
G01*
X35780864Y19737182D01*
G75*
G02*
X35886930Y19737182I53033J-53033D01*
G01*
X36823846Y18800266D01*
G75*
G02*
X36823846Y18694200I-53033J-53033D01*
G01*
X36717780Y18588134D01*
G75*
G02*
X36611714Y18588134I-53033J53033D01*
G01*
G37*
G36*
G01*
X36258161Y18234581D02*
X35321245Y19171497D01*
G75*
G02*
X35321245Y19277563I53033J53033D01*
G01*
X35427311Y19383629D01*
G75*
G02*
X35533377Y19383629I53033J-53033D01*
G01*
X36470293Y18446713D01*
G75*
G02*
X36470293Y18340647I-53033J-53033D01*
G01*
X36364227Y18234581D01*
G75*
G02*
X36258161Y18234581I-53033J53033D01*
G01*
G37*
G36*
G01*
X35904607Y17881027D02*
X34967691Y18817943D01*
G75*
G02*
X34967691Y18924009I53033J53033D01*
G01*
X35073757Y19030075D01*
G75*
G02*
X35179823Y19030075I53033J-53033D01*
G01*
X36116739Y18093159D01*
G75*
G02*
X36116739Y17987093I-53033J-53033D01*
G01*
X36010673Y17881027D01*
G75*
G02*
X35904607Y17881027I-53033J53033D01*
G01*
G37*
G36*
G01*
X35551054Y17527474D02*
X34614138Y18464390D01*
G75*
G02*
X34614138Y18570456I53033J53033D01*
G01*
X34720204Y18676522D01*
G75*
G02*
X34826270Y18676522I53033J-53033D01*
G01*
X35763186Y17739606D01*
G75*
G02*
X35763186Y17633540I-53033J-53033D01*
G01*
X35657120Y17527474D01*
G75*
G02*
X35551054Y17527474I-53033J53033D01*
G01*
G37*
G36*
G01*
X35197501Y17173921D02*
X34260585Y18110837D01*
G75*
G02*
X34260585Y18216903I53033J53033D01*
G01*
X34366651Y18322969D01*
G75*
G02*
X34472717Y18322969I53033J-53033D01*
G01*
X35409633Y17386053D01*
G75*
G02*
X35409633Y17279987I-53033J-53033D01*
G01*
X35303567Y17173921D01*
G75*
G02*
X35197501Y17173921I-53033J53033D01*
G01*
G37*
G36*
G01*
X34843947Y16820367D02*
X33907031Y17757283D01*
G75*
G02*
X33907031Y17863349I53033J53033D01*
G01*
X34013097Y17969415D01*
G75*
G02*
X34119163Y17969415I53033J-53033D01*
G01*
X35056079Y17032499D01*
G75*
G02*
X35056079Y16926433I-53033J-53033D01*
G01*
X34950013Y16820367D01*
G75*
G02*
X34843947Y16820367I-53033J53033D01*
G01*
G37*
G36*
G01*
X34490394Y16466814D02*
X33553478Y17403730D01*
G75*
G02*
X33553478Y17509796I53033J53033D01*
G01*
X33659544Y17615862D01*
G75*
G02*
X33765610Y17615862I53033J-53033D01*
G01*
X34702526Y16678946D01*
G75*
G02*
X34702526Y16572880I-53033J-53033D01*
G01*
X34596460Y16466814D01*
G75*
G02*
X34490394Y16466814I-53033J53033D01*
G01*
G37*
G36*
G01*
X34136841Y16113261D02*
X33199925Y17050177D01*
G75*
G02*
X33199925Y17156243I53033J53033D01*
G01*
X33305991Y17262309D01*
G75*
G02*
X33412057Y17262309I53033J-53033D01*
G01*
X34348973Y16325393D01*
G75*
G02*
X34348973Y16219327I-53033J-53033D01*
G01*
X34242907Y16113261D01*
G75*
G02*
X34136841Y16113261I-53033J53033D01*
G01*
G37*
G36*
G01*
X33783287Y15759707D02*
X32846371Y16696623D01*
G75*
G02*
X32846371Y16802689I53033J53033D01*
G01*
X32952437Y16908755D01*
G75*
G02*
X33058503Y16908755I53033J-53033D01*
G01*
X33995419Y15971839D01*
G75*
G02*
X33995419Y15865773I-53033J-53033D01*
G01*
X33889353Y15759707D01*
G75*
G02*
X33783287Y15759707I-53033J53033D01*
G01*
G37*
G36*
G01*
X33429734Y15406154D02*
X32492818Y16343070D01*
G75*
G02*
X32492818Y16449136I53033J53033D01*
G01*
X32598884Y16555202D01*
G75*
G02*
X32704950Y16555202I53033J-53033D01*
G01*
X33641866Y15618286D01*
G75*
G02*
X33641866Y15512220I-53033J-53033D01*
G01*
X33535800Y15406154D01*
G75*
G02*
X33429734Y15406154I-53033J53033D01*
G01*
G37*
G36*
G01*
X33076180Y15052600D02*
X32139264Y15989516D01*
G75*
G02*
X32139264Y16095582I53033J53033D01*
G01*
X32245330Y16201648D01*
G75*
G02*
X32351396Y16201648I53033J-53033D01*
G01*
X33288312Y15264732D01*
G75*
G02*
X33288312Y15158666I-53033J-53033D01*
G01*
X33182246Y15052600D01*
G75*
G02*
X33076180Y15052600I-53033J53033D01*
G01*
G37*
G36*
G01*
X30247754Y15052600D02*
X30141688Y15158666D01*
G75*
G02*
X30141688Y15264732I53033J53033D01*
G01*
X31078604Y16201648D01*
G75*
G02*
X31184670Y16201648I53033J-53033D01*
G01*
X31290736Y16095582D01*
G75*
G02*
X31290736Y15989516I-53033J-53033D01*
G01*
X30353820Y15052600D01*
G75*
G02*
X30247754Y15052600I-53033J53033D01*
G01*
G37*
G36*
G01*
X29894200Y15406154D02*
X29788134Y15512220D01*
G75*
G02*
X29788134Y15618286I53033J53033D01*
G01*
X30725050Y16555202D01*
G75*
G02*
X30831116Y16555202I53033J-53033D01*
G01*
X30937182Y16449136D01*
G75*
G02*
X30937182Y16343070I-53033J-53033D01*
G01*
X30000266Y15406154D01*
G75*
G02*
X29894200Y15406154I-53033J53033D01*
G01*
G37*
G36*
G01*
X29540647Y15759707D02*
X29434581Y15865773D01*
G75*
G02*
X29434581Y15971839I53033J53033D01*
G01*
X30371497Y16908755D01*
G75*
G02*
X30477563Y16908755I53033J-53033D01*
G01*
X30583629Y16802689D01*
G75*
G02*
X30583629Y16696623I-53033J-53033D01*
G01*
X29646713Y15759707D01*
G75*
G02*
X29540647Y15759707I-53033J53033D01*
G01*
G37*
G36*
G01*
X29187093Y16113261D02*
X29081027Y16219327D01*
G75*
G02*
X29081027Y16325393I53033J53033D01*
G01*
X30017943Y17262309D01*
G75*
G02*
X30124009Y17262309I53033J-53033D01*
G01*
X30230075Y17156243D01*
G75*
G02*
X30230075Y17050177I-53033J-53033D01*
G01*
X29293159Y16113261D01*
G75*
G02*
X29187093Y16113261I-53033J53033D01*
G01*
G37*
G36*
G01*
X28833540Y16466814D02*
X28727474Y16572880D01*
G75*
G02*
X28727474Y16678946I53033J53033D01*
G01*
X29664390Y17615862D01*
G75*
G02*
X29770456Y17615862I53033J-53033D01*
G01*
X29876522Y17509796D01*
G75*
G02*
X29876522Y17403730I-53033J-53033D01*
G01*
X28939606Y16466814D01*
G75*
G02*
X28833540Y16466814I-53033J53033D01*
G01*
G37*
G36*
G01*
X28479987Y16820367D02*
X28373921Y16926433D01*
G75*
G02*
X28373921Y17032499I53033J53033D01*
G01*
X29310837Y17969415D01*
G75*
G02*
X29416903Y17969415I53033J-53033D01*
G01*
X29522969Y17863349D01*
G75*
G02*
X29522969Y17757283I-53033J-53033D01*
G01*
X28586053Y16820367D01*
G75*
G02*
X28479987Y16820367I-53033J53033D01*
G01*
G37*
G36*
G01*
X28126433Y17173921D02*
X28020367Y17279987D01*
G75*
G02*
X28020367Y17386053I53033J53033D01*
G01*
X28957283Y18322969D01*
G75*
G02*
X29063349Y18322969I53033J-53033D01*
G01*
X29169415Y18216903D01*
G75*
G02*
X29169415Y18110837I-53033J-53033D01*
G01*
X28232499Y17173921D01*
G75*
G02*
X28126433Y17173921I-53033J53033D01*
G01*
G37*
G36*
G01*
X27772880Y17527474D02*
X27666814Y17633540D01*
G75*
G02*
X27666814Y17739606I53033J53033D01*
G01*
X28603730Y18676522D01*
G75*
G02*
X28709796Y18676522I53033J-53033D01*
G01*
X28815862Y18570456D01*
G75*
G02*
X28815862Y18464390I-53033J-53033D01*
G01*
X27878946Y17527474D01*
G75*
G02*
X27772880Y17527474I-53033J53033D01*
G01*
G37*
G36*
G01*
X27419327Y17881027D02*
X27313261Y17987093D01*
G75*
G02*
X27313261Y18093159I53033J53033D01*
G01*
X28250177Y19030075D01*
G75*
G02*
X28356243Y19030075I53033J-53033D01*
G01*
X28462309Y18924009D01*
G75*
G02*
X28462309Y18817943I-53033J-53033D01*
G01*
X27525393Y17881027D01*
G75*
G02*
X27419327Y17881027I-53033J53033D01*
G01*
G37*
G36*
G01*
X27065773Y18234581D02*
X26959707Y18340647D01*
G75*
G02*
X26959707Y18446713I53033J53033D01*
G01*
X27896623Y19383629D01*
G75*
G02*
X28002689Y19383629I53033J-53033D01*
G01*
X28108755Y19277563D01*
G75*
G02*
X28108755Y19171497I-53033J-53033D01*
G01*
X27171839Y18234581D01*
G75*
G02*
X27065773Y18234581I-53033J53033D01*
G01*
G37*
G36*
G01*
X26712220Y18588134D02*
X26606154Y18694200D01*
G75*
G02*
X26606154Y18800266I53033J53033D01*
G01*
X27543070Y19737182D01*
G75*
G02*
X27649136Y19737182I53033J-53033D01*
G01*
X27755202Y19631116D01*
G75*
G02*
X27755202Y19525050I-53033J-53033D01*
G01*
X26818286Y18588134D01*
G75*
G02*
X26712220Y18588134I-53033J53033D01*
G01*
G37*
G36*
G01*
X26358666Y18941688D02*
X26252600Y19047754D01*
G75*
G02*
X26252600Y19153820I53033J53033D01*
G01*
X27189516Y20090736D01*
G75*
G02*
X27295582Y20090736I53033J-53033D01*
G01*
X27401648Y19984670D01*
G75*
G02*
X27401648Y19878604I-53033J-53033D01*
G01*
X26464732Y18941688D01*
G75*
G02*
X26358666Y18941688I-53033J53033D01*
G01*
G37*
G04 #@! TD*
D12*
G04 #@! TO.C,U1*
G36*
X49955000Y19038500D02*
G01*
X45830000Y19038500D01*
X45830000Y19455000D01*
X43355000Y19455000D01*
X43355000Y20355000D01*
X45830000Y20355000D01*
X45830000Y20771500D01*
X49955000Y20771500D01*
X49955000Y19038500D01*
G37*
D13*
X44505000Y18405000D03*
X44505000Y21405000D03*
G04 #@! TD*
D14*
G04 #@! TO.C,SW1*
X20420000Y21195000D03*
D15*
X19795000Y23245000D03*
X18195000Y23245000D03*
X19795000Y19145000D03*
X18195000Y19145000D03*
G04 #@! TD*
G04 #@! TO.C,R13*
G36*
G01*
X62277500Y12200000D02*
X62752500Y12200000D01*
G75*
G02*
X62990000Y11962500I0J-237500D01*
G01*
X62990000Y11462500D01*
G75*
G02*
X62752500Y11225000I-237500J0D01*
G01*
X62277500Y11225000D01*
G75*
G02*
X62040000Y11462500I0J237500D01*
G01*
X62040000Y11962500D01*
G75*
G02*
X62277500Y12200000I237500J0D01*
G01*
G37*
G36*
G01*
X62277500Y14025000D02*
X62752500Y14025000D01*
G75*
G02*
X62990000Y13787500I0J-237500D01*
G01*
X62990000Y13287500D01*
G75*
G02*
X62752500Y13050000I-237500J0D01*
G01*
X62277500Y13050000D01*
G75*
G02*
X62040000Y13287500I0J237500D01*
G01*
X62040000Y13787500D01*
G75*
G02*
X62277500Y14025000I237500J0D01*
G01*
G37*
G04 #@! TD*
G04 #@! TO.C,R12*
G36*
G01*
X64702500Y13050000D02*
X64227500Y13050000D01*
G75*
G02*
X63990000Y13287500I0J237500D01*
G01*
X63990000Y13787500D01*
G75*
G02*
X64227500Y14025000I237500J0D01*
G01*
X64702500Y14025000D01*
G75*
G02*
X64940000Y13787500I0J-237500D01*
G01*
X64940000Y13287500D01*
G75*
G02*
X64702500Y13050000I-237500J0D01*
G01*
G37*
G36*
G01*
X64702500Y11225000D02*
X64227500Y11225000D01*
G75*
G02*
X63990000Y11462500I0J237500D01*
G01*
X63990000Y11962500D01*
G75*
G02*
X64227500Y12200000I237500J0D01*
G01*
X64702500Y12200000D01*
G75*
G02*
X64940000Y11962500I0J-237500D01*
G01*
X64940000Y11462500D01*
G75*
G02*
X64702500Y11225000I-237500J0D01*
G01*
G37*
G04 #@! TD*
G04 #@! TO.C,R11*
G36*
G01*
X62752500Y27800000D02*
X62277500Y27800000D01*
G75*
G02*
X62040000Y28037500I0J237500D01*
G01*
X62040000Y28537500D01*
G75*
G02*
X62277500Y28775000I237500J0D01*
G01*
X62752500Y28775000D01*
G75*
G02*
X62990000Y28537500I0J-237500D01*
G01*
X62990000Y28037500D01*
G75*
G02*
X62752500Y27800000I-237500J0D01*
G01*
G37*
G36*
G01*
X62752500Y25975000D02*
X62277500Y25975000D01*
G75*
G02*
X62040000Y26212500I0J237500D01*
G01*
X62040000Y26712500D01*
G75*
G02*
X62277500Y26950000I237500J0D01*
G01*
X62752500Y26950000D01*
G75*
G02*
X62990000Y26712500I0J-237500D01*
G01*
X62990000Y26212500D01*
G75*
G02*
X62752500Y25975000I-237500J0D01*
G01*
G37*
G04 #@! TD*
G04 #@! TO.C,R10*
G36*
G01*
X64227500Y26950000D02*
X64702500Y26950000D01*
G75*
G02*
X64940000Y26712500I0J-237500D01*
G01*
X64940000Y26212500D01*
G75*
G02*
X64702500Y25975000I-237500J0D01*
G01*
X64227500Y25975000D01*
G75*
G02*
X63990000Y26212500I0J237500D01*
G01*
X63990000Y26712500D01*
G75*
G02*
X64227500Y26950000I237500J0D01*
G01*
G37*
G36*
G01*
X64227500Y28775000D02*
X64702500Y28775000D01*
G75*
G02*
X64940000Y28537500I0J-237500D01*
G01*
X64940000Y28037500D01*
G75*
G02*
X64702500Y27800000I-237500J0D01*
G01*
X64227500Y27800000D01*
G75*
G02*
X63990000Y28037500I0J237500D01*
G01*
X63990000Y28537500D01*
G75*
G02*
X64227500Y28775000I237500J0D01*
G01*
G37*
G04 #@! TD*
G04 #@! TO.C,R9*
G36*
G01*
X4977500Y16760000D02*
X5452500Y16760000D01*
G75*
G02*
X5690000Y16522500I0J-237500D01*
G01*
X5690000Y16022500D01*
G75*
G02*
X5452500Y15785000I-237500J0D01*
G01*
X4977500Y15785000D01*
G75*
G02*
X4740000Y16022500I0J237500D01*
G01*
X4740000Y16522500D01*
G75*
G02*
X4977500Y16760000I237500J0D01*
G01*
G37*
G36*
G01*
X4977500Y18585000D02*
X5452500Y18585000D01*
G75*
G02*
X5690000Y18347500I0J-237500D01*
G01*
X5690000Y17847500D01*
G75*
G02*
X5452500Y17610000I-237500J0D01*
G01*
X4977500Y17610000D01*
G75*
G02*
X4740000Y17847500I0J237500D01*
G01*
X4740000Y18347500D01*
G75*
G02*
X4977500Y18585000I237500J0D01*
G01*
G37*
G04 #@! TD*
G04 #@! TO.C,R8*
G36*
G01*
X12540000Y17007500D02*
X12540000Y17482500D01*
G75*
G02*
X12777500Y17720000I237500J0D01*
G01*
X13277500Y17720000D01*
G75*
G02*
X13515000Y17482500I0J-237500D01*
G01*
X13515000Y17007500D01*
G75*
G02*
X13277500Y16770000I-237500J0D01*
G01*
X12777500Y16770000D01*
G75*
G02*
X12540000Y17007500I0J237500D01*
G01*
G37*
G36*
G01*
X10715000Y17007500D02*
X10715000Y17482500D01*
G75*
G02*
X10952500Y17720000I237500J0D01*
G01*
X11452500Y17720000D01*
G75*
G02*
X11690000Y17482500I0J-237500D01*
G01*
X11690000Y17007500D01*
G75*
G02*
X11452500Y16770000I-237500J0D01*
G01*
X10952500Y16770000D01*
G75*
G02*
X10715000Y17007500I0J237500D01*
G01*
G37*
G04 #@! TD*
G04 #@! TO.C,R7*
G36*
G01*
X5452500Y23330000D02*
X4977500Y23330000D01*
G75*
G02*
X4740000Y23567500I0J237500D01*
G01*
X4740000Y24067500D01*
G75*
G02*
X4977500Y24305000I237500J0D01*
G01*
X5452500Y24305000D01*
G75*
G02*
X5690000Y24067500I0J-237500D01*
G01*
X5690000Y23567500D01*
G75*
G02*
X5452500Y23330000I-237500J0D01*
G01*
G37*
G36*
G01*
X5452500Y21505000D02*
X4977500Y21505000D01*
G75*
G02*
X4740000Y21742500I0J237500D01*
G01*
X4740000Y22242500D01*
G75*
G02*
X4977500Y22480000I237500J0D01*
G01*
X5452500Y22480000D01*
G75*
G02*
X5690000Y22242500I0J-237500D01*
G01*
X5690000Y21742500D01*
G75*
G02*
X5452500Y21505000I-237500J0D01*
G01*
G37*
G04 #@! TD*
G04 #@! TO.C,R6*
G36*
G01*
X56840000Y27987500D02*
X56840000Y28462500D01*
G75*
G02*
X57077500Y28700000I237500J0D01*
G01*
X57577500Y28700000D01*
G75*
G02*
X57815000Y28462500I0J-237500D01*
G01*
X57815000Y27987500D01*
G75*
G02*
X57577500Y27750000I-237500J0D01*
G01*
X57077500Y27750000D01*
G75*
G02*
X56840000Y27987500I0J237500D01*
G01*
G37*
G36*
G01*
X55015000Y27987500D02*
X55015000Y28462500D01*
G75*
G02*
X55252500Y28700000I237500J0D01*
G01*
X55752500Y28700000D01*
G75*
G02*
X55990000Y28462500I0J-237500D01*
G01*
X55990000Y27987500D01*
G75*
G02*
X55752500Y27750000I-237500J0D01*
G01*
X55252500Y27750000D01*
G75*
G02*
X55015000Y27987500I0J237500D01*
G01*
G37*
G04 #@! TD*
G04 #@! TO.C,R5*
G36*
G01*
X56840000Y20367500D02*
X56840000Y20842500D01*
G75*
G02*
X57077500Y21080000I237500J0D01*
G01*
X57577500Y21080000D01*
G75*
G02*
X57815000Y20842500I0J-237500D01*
G01*
X57815000Y20367500D01*
G75*
G02*
X57577500Y20130000I-237500J0D01*
G01*
X57077500Y20130000D01*
G75*
G02*
X56840000Y20367500I0J237500D01*
G01*
G37*
G36*
G01*
X55015000Y20367500D02*
X55015000Y20842500D01*
G75*
G02*
X55252500Y21080000I237500J0D01*
G01*
X55752500Y21080000D01*
G75*
G02*
X55990000Y20842500I0J-237500D01*
G01*
X55990000Y20367500D01*
G75*
G02*
X55752500Y20130000I-237500J0D01*
G01*
X55252500Y20130000D01*
G75*
G02*
X55015000Y20367500I0J237500D01*
G01*
G37*
G04 #@! TD*
G04 #@! TO.C,R4*
G36*
G01*
X55990000Y22542500D02*
X55990000Y22067500D01*
G75*
G02*
X55752500Y21830000I-237500J0D01*
G01*
X55252500Y21830000D01*
G75*
G02*
X55015000Y22067500I0J237500D01*
G01*
X55015000Y22542500D01*
G75*
G02*
X55252500Y22780000I237500J0D01*
G01*
X55752500Y22780000D01*
G75*
G02*
X55990000Y22542500I0J-237500D01*
G01*
G37*
G36*
G01*
X57815000Y22542500D02*
X57815000Y22067500D01*
G75*
G02*
X57577500Y21830000I-237500J0D01*
G01*
X57077500Y21830000D01*
G75*
G02*
X56840000Y22067500I0J237500D01*
G01*
X56840000Y22542500D01*
G75*
G02*
X57077500Y22780000I237500J0D01*
G01*
X57577500Y22780000D01*
G75*
G02*
X57815000Y22542500I0J-237500D01*
G01*
G37*
G04 #@! TD*
G04 #@! TO.C,R3*
G36*
G01*
X56840000Y18667500D02*
X56840000Y19142500D01*
G75*
G02*
X57077500Y19380000I237500J0D01*
G01*
X57577500Y19380000D01*
G75*
G02*
X57815000Y19142500I0J-237500D01*
G01*
X57815000Y18667500D01*
G75*
G02*
X57577500Y18430000I-237500J0D01*
G01*
X57077500Y18430000D01*
G75*
G02*
X56840000Y18667500I0J237500D01*
G01*
G37*
G36*
G01*
X55015000Y18667500D02*
X55015000Y19142500D01*
G75*
G02*
X55252500Y19380000I237500J0D01*
G01*
X55752500Y19380000D01*
G75*
G02*
X55990000Y19142500I0J-237500D01*
G01*
X55990000Y18667500D01*
G75*
G02*
X55752500Y18430000I-237500J0D01*
G01*
X55252500Y18430000D01*
G75*
G02*
X55015000Y18667500I0J237500D01*
G01*
G37*
G04 #@! TD*
G04 #@! TO.C,R2*
G36*
G01*
X56840000Y16967500D02*
X56840000Y17442500D01*
G75*
G02*
X57077500Y17680000I237500J0D01*
G01*
X57577500Y17680000D01*
G75*
G02*
X57815000Y17442500I0J-237500D01*
G01*
X57815000Y16967500D01*
G75*
G02*
X57577500Y16730000I-237500J0D01*
G01*
X57077500Y16730000D01*
G75*
G02*
X56840000Y16967500I0J237500D01*
G01*
G37*
G36*
G01*
X55015000Y16967500D02*
X55015000Y17442500D01*
G75*
G02*
X55252500Y17680000I237500J0D01*
G01*
X55752500Y17680000D01*
G75*
G02*
X55990000Y17442500I0J-237500D01*
G01*
X55990000Y16967500D01*
G75*
G02*
X55752500Y16730000I-237500J0D01*
G01*
X55252500Y16730000D01*
G75*
G02*
X55015000Y16967500I0J237500D01*
G01*
G37*
G04 #@! TD*
G04 #@! TO.C,R1*
G36*
G01*
X45952500Y24930000D02*
X45477500Y24930000D01*
G75*
G02*
X45240000Y25167500I0J237500D01*
G01*
X45240000Y25667500D01*
G75*
G02*
X45477500Y25905000I237500J0D01*
G01*
X45952500Y25905000D01*
G75*
G02*
X46190000Y25667500I0J-237500D01*
G01*
X46190000Y25167500D01*
G75*
G02*
X45952500Y24930000I-237500J0D01*
G01*
G37*
G36*
G01*
X45952500Y23105000D02*
X45477500Y23105000D01*
G75*
G02*
X45240000Y23342500I0J237500D01*
G01*
X45240000Y23842500D01*
G75*
G02*
X45477500Y24080000I237500J0D01*
G01*
X45952500Y24080000D01*
G75*
G02*
X46190000Y23842500I0J-237500D01*
G01*
X46190000Y23342500D01*
G75*
G02*
X45952500Y23105000I-237500J0D01*
G01*
G37*
G04 #@! TD*
D16*
G04 #@! TO.C,J5*
X3515000Y3275000D03*
X6055000Y3275000D03*
X8595000Y3275000D03*
X11135000Y3275000D03*
X13675000Y3275000D03*
X16215000Y3275000D03*
X18755000Y3275000D03*
X21295000Y3275000D03*
X23835000Y3275000D03*
X26375000Y3275000D03*
X28915000Y3275000D03*
X31455000Y3275000D03*
X33995000Y3275000D03*
X36535000Y3275000D03*
X39075000Y3275000D03*
X41615000Y3275000D03*
X44155000Y3275000D03*
X46695000Y3275000D03*
X49235000Y3275000D03*
X51775000Y3275000D03*
X54315000Y3275000D03*
X56855000Y3275000D03*
X59395000Y3275000D03*
X61935000Y3275000D03*
D17*
X64475000Y3275000D03*
G04 #@! TD*
D16*
G04 #@! TO.C,J4*
X3515000Y36725000D03*
X6055000Y36725000D03*
X8595000Y36725000D03*
X11135000Y36725000D03*
X13675000Y36725000D03*
X16215000Y36725000D03*
X18755000Y36725000D03*
X21295000Y36725000D03*
X23835000Y36725000D03*
X26375000Y36725000D03*
X28915000Y36725000D03*
X31455000Y36725000D03*
X33995000Y36725000D03*
X36535000Y36725000D03*
X39075000Y36725000D03*
X41615000Y36725000D03*
X44155000Y36725000D03*
X46695000Y36725000D03*
X49235000Y36725000D03*
X51775000Y36725000D03*
X54315000Y36725000D03*
X56855000Y36725000D03*
X59395000Y36725000D03*
X61935000Y36725000D03*
D17*
X64475000Y36725000D03*
G04 #@! TD*
D16*
G04 #@! TO.C,J3*
X4575000Y10675000D03*
X4575000Y13215000D03*
X7115000Y10675000D03*
X7115000Y13215000D03*
X9655000Y10675000D03*
X9655000Y13215000D03*
X12195000Y10675000D03*
D17*
X12195000Y13215000D03*
G04 #@! TD*
D16*
G04 #@! TO.C,J2*
X4575000Y26805000D03*
X4575000Y29345000D03*
X7115000Y26805000D03*
X7115000Y29345000D03*
X9655000Y26805000D03*
X9655000Y29345000D03*
X12195000Y26805000D03*
D17*
X12195000Y29345000D03*
G04 #@! TD*
D18*
G04 #@! TO.C,J1*
X61105000Y23225000D03*
X61105000Y22425000D03*
X61105000Y23225000D03*
X61105000Y22425000D03*
X61105000Y16825000D03*
X61105000Y16825000D03*
X61105000Y17625000D03*
X61105000Y17625000D03*
D19*
X62165000Y17135000D03*
X62165000Y22915000D03*
D20*
X61105000Y21775000D03*
X61105000Y20775000D03*
X61105000Y21275000D03*
X61105000Y18775000D03*
X61105000Y18275000D03*
X61105000Y20275000D03*
X61105000Y19775000D03*
X61105000Y19275000D03*
D21*
X65855000Y24345000D03*
X65855000Y15705000D03*
D22*
X61685000Y24345000D03*
X61685000Y15705000D03*
G04 #@! TD*
G04 #@! TO.C,F2*
G36*
G01*
X11665000Y24075001D02*
X11665000Y23174999D01*
G75*
G02*
X11415001Y22925000I-249999J0D01*
G01*
X10764999Y22925000D01*
G75*
G02*
X10515000Y23174999I0J249999D01*
G01*
X10515000Y24075001D01*
G75*
G02*
X10764999Y24325000I249999J0D01*
G01*
X11415001Y24325000D01*
G75*
G02*
X11665000Y24075001I0J-249999D01*
G01*
G37*
G36*
G01*
X13715000Y24075001D02*
X13715000Y23174999D01*
G75*
G02*
X13465001Y22925000I-249999J0D01*
G01*
X12814999Y22925000D01*
G75*
G02*
X12565000Y23174999I0J249999D01*
G01*
X12565000Y24075001D01*
G75*
G02*
X12814999Y24325000I249999J0D01*
G01*
X13465001Y24325000D01*
G75*
G02*
X13715000Y24075001I0J-249999D01*
G01*
G37*
G04 #@! TD*
G04 #@! TO.C,F1*
G36*
G01*
X48205001Y25155000D02*
X47304999Y25155000D01*
G75*
G02*
X47055000Y25404999I0J249999D01*
G01*
X47055000Y26055001D01*
G75*
G02*
X47304999Y26305000I249999J0D01*
G01*
X48205001Y26305000D01*
G75*
G02*
X48455000Y26055001I0J-249999D01*
G01*
X48455000Y25404999D01*
G75*
G02*
X48205001Y25155000I-249999J0D01*
G01*
G37*
G36*
G01*
X48205001Y23105000D02*
X47304999Y23105000D01*
G75*
G02*
X47055000Y23354999I0J249999D01*
G01*
X47055000Y24005001D01*
G75*
G02*
X47304999Y24255000I249999J0D01*
G01*
X48205001Y24255000D01*
G75*
G02*
X48455000Y24005001I0J-249999D01*
G01*
X48455000Y23354999D01*
G75*
G02*
X48205001Y23105000I-249999J0D01*
G01*
G37*
G04 #@! TD*
D23*
G04 #@! TO.C,D3*
X45915000Y16305000D03*
X45915000Y13805000D03*
G04 #@! TD*
G04 #@! TO.C,D2*
G36*
G01*
X44132500Y24880000D02*
X43657500Y24880000D01*
G75*
G02*
X43420000Y25117500I0J237500D01*
G01*
X43420000Y25692500D01*
G75*
G02*
X43657500Y25930000I237500J0D01*
G01*
X44132500Y25930000D01*
G75*
G02*
X44370000Y25692500I0J-237500D01*
G01*
X44370000Y25117500D01*
G75*
G02*
X44132500Y24880000I-237500J0D01*
G01*
G37*
G36*
G01*
X44132500Y23130000D02*
X43657500Y23130000D01*
G75*
G02*
X43420000Y23367500I0J237500D01*
G01*
X43420000Y23942500D01*
G75*
G02*
X43657500Y24180000I237500J0D01*
G01*
X44132500Y24180000D01*
G75*
G02*
X44370000Y23942500I0J-237500D01*
G01*
X44370000Y23367500D01*
G75*
G02*
X44132500Y23130000I-237500J0D01*
G01*
G37*
G04 #@! TD*
G04 #@! TO.C,D1*
X50015000Y23595000D03*
X50015000Y26095000D03*
G04 #@! TD*
G04 #@! TO.C,C13*
G36*
G01*
X31390000Y13762500D02*
X31390000Y13287500D01*
G75*
G02*
X31152500Y13050000I-237500J0D01*
G01*
X30552500Y13050000D01*
G75*
G02*
X30315000Y13287500I0J237500D01*
G01*
X30315000Y13762500D01*
G75*
G02*
X30552500Y14000000I237500J0D01*
G01*
X31152500Y14000000D01*
G75*
G02*
X31390000Y13762500I0J-237500D01*
G01*
G37*
G36*
G01*
X33115000Y13762500D02*
X33115000Y13287500D01*
G75*
G02*
X32877500Y13050000I-237500J0D01*
G01*
X32277500Y13050000D01*
G75*
G02*
X32040000Y13287500I0J237500D01*
G01*
X32040000Y13762500D01*
G75*
G02*
X32277500Y14000000I237500J0D01*
G01*
X32877500Y14000000D01*
G75*
G02*
X33115000Y13762500I0J-237500D01*
G01*
G37*
G04 #@! TD*
G04 #@! TO.C,C12*
G36*
G01*
X4840000Y7487500D02*
X4840000Y7962500D01*
G75*
G02*
X5077500Y8200000I237500J0D01*
G01*
X5677500Y8200000D01*
G75*
G02*
X5915000Y7962500I0J-237500D01*
G01*
X5915000Y7487500D01*
G75*
G02*
X5677500Y7250000I-237500J0D01*
G01*
X5077500Y7250000D01*
G75*
G02*
X4840000Y7487500I0J237500D01*
G01*
G37*
G36*
G01*
X3115000Y7487500D02*
X3115000Y7962500D01*
G75*
G02*
X3352500Y8200000I237500J0D01*
G01*
X3952500Y8200000D01*
G75*
G02*
X4190000Y7962500I0J-237500D01*
G01*
X4190000Y7487500D01*
G75*
G02*
X3952500Y7250000I-237500J0D01*
G01*
X3352500Y7250000D01*
G75*
G02*
X3115000Y7487500I0J237500D01*
G01*
G37*
G04 #@! TD*
G04 #@! TO.C,C11*
G36*
G01*
X4190000Y32562500D02*
X4190000Y32087500D01*
G75*
G02*
X3952500Y31850000I-237500J0D01*
G01*
X3352500Y31850000D01*
G75*
G02*
X3115000Y32087500I0J237500D01*
G01*
X3115000Y32562500D01*
G75*
G02*
X3352500Y32800000I237500J0D01*
G01*
X3952500Y32800000D01*
G75*
G02*
X4190000Y32562500I0J-237500D01*
G01*
G37*
G36*
G01*
X5915000Y32562500D02*
X5915000Y32087500D01*
G75*
G02*
X5677500Y31850000I-237500J0D01*
G01*
X5077500Y31850000D01*
G75*
G02*
X4840000Y32087500I0J237500D01*
G01*
X4840000Y32562500D01*
G75*
G02*
X5077500Y32800000I237500J0D01*
G01*
X5677500Y32800000D01*
G75*
G02*
X5915000Y32562500I0J-237500D01*
G01*
G37*
G04 #@! TD*
G04 #@! TO.C,C10*
G36*
G01*
X23352500Y20750000D02*
X22877500Y20750000D01*
G75*
G02*
X22640000Y20987500I0J237500D01*
G01*
X22640000Y21587500D01*
G75*
G02*
X22877500Y21825000I237500J0D01*
G01*
X23352500Y21825000D01*
G75*
G02*
X23590000Y21587500I0J-237500D01*
G01*
X23590000Y20987500D01*
G75*
G02*
X23352500Y20750000I-237500J0D01*
G01*
G37*
G36*
G01*
X23352500Y19025000D02*
X22877500Y19025000D01*
G75*
G02*
X22640000Y19262500I0J237500D01*
G01*
X22640000Y19862500D01*
G75*
G02*
X22877500Y20100000I237500J0D01*
G01*
X23352500Y20100000D01*
G75*
G02*
X23590000Y19862500I0J-237500D01*
G01*
X23590000Y19262500D01*
G75*
G02*
X23352500Y19025000I-237500J0D01*
G01*
G37*
G04 #@! TD*
G04 #@! TO.C,C9*
G36*
G01*
X25052500Y20750000D02*
X24577500Y20750000D01*
G75*
G02*
X24340000Y20987500I0J237500D01*
G01*
X24340000Y21587500D01*
G75*
G02*
X24577500Y21825000I237500J0D01*
G01*
X25052500Y21825000D01*
G75*
G02*
X25290000Y21587500I0J-237500D01*
G01*
X25290000Y20987500D01*
G75*
G02*
X25052500Y20750000I-237500J0D01*
G01*
G37*
G36*
G01*
X25052500Y19025000D02*
X24577500Y19025000D01*
G75*
G02*
X24340000Y19262500I0J237500D01*
G01*
X24340000Y19862500D01*
G75*
G02*
X24577500Y20100000I237500J0D01*
G01*
X25052500Y20100000D01*
G75*
G02*
X25290000Y19862500I0J-237500D01*
G01*
X25290000Y19262500D01*
G75*
G02*
X25052500Y19025000I-237500J0D01*
G01*
G37*
G04 #@! TD*
G04 #@! TO.C,C8*
G36*
G01*
X38377500Y20120000D02*
X38852500Y20120000D01*
G75*
G02*
X39090000Y19882500I0J-237500D01*
G01*
X39090000Y19282500D01*
G75*
G02*
X38852500Y19045000I-237500J0D01*
G01*
X38377500Y19045000D01*
G75*
G02*
X38140000Y19282500I0J237500D01*
G01*
X38140000Y19882500D01*
G75*
G02*
X38377500Y20120000I237500J0D01*
G01*
G37*
G36*
G01*
X38377500Y21845000D02*
X38852500Y21845000D01*
G75*
G02*
X39090000Y21607500I0J-237500D01*
G01*
X39090000Y21007500D01*
G75*
G02*
X38852500Y20770000I-237500J0D01*
G01*
X38377500Y20770000D01*
G75*
G02*
X38140000Y21007500I0J237500D01*
G01*
X38140000Y21607500D01*
G75*
G02*
X38377500Y21845000I237500J0D01*
G01*
G37*
G04 #@! TD*
G04 #@! TO.C,C7*
G36*
G01*
X32070000Y27177500D02*
X32070000Y27652500D01*
G75*
G02*
X32307500Y27890000I237500J0D01*
G01*
X32907500Y27890000D01*
G75*
G02*
X33145000Y27652500I0J-237500D01*
G01*
X33145000Y27177500D01*
G75*
G02*
X32907500Y26940000I-237500J0D01*
G01*
X32307500Y26940000D01*
G75*
G02*
X32070000Y27177500I0J237500D01*
G01*
G37*
G36*
G01*
X30345000Y27177500D02*
X30345000Y27652500D01*
G75*
G02*
X30582500Y27890000I237500J0D01*
G01*
X31182500Y27890000D01*
G75*
G02*
X31420000Y27652500I0J-237500D01*
G01*
X31420000Y27177500D01*
G75*
G02*
X31182500Y26940000I-237500J0D01*
G01*
X30582500Y26940000D01*
G75*
G02*
X30345000Y27177500I0J237500D01*
G01*
G37*
G04 #@! TD*
G04 #@! TO.C,C6*
G36*
G01*
X24615000Y13662500D02*
X24615000Y13187500D01*
G75*
G02*
X24377500Y12950000I-237500J0D01*
G01*
X23777500Y12950000D01*
G75*
G02*
X23540000Y13187500I0J237500D01*
G01*
X23540000Y13662500D01*
G75*
G02*
X23777500Y13900000I237500J0D01*
G01*
X24377500Y13900000D01*
G75*
G02*
X24615000Y13662500I0J-237500D01*
G01*
G37*
G36*
G01*
X22890000Y13662500D02*
X22890000Y13187500D01*
G75*
G02*
X22652500Y12950000I-237500J0D01*
G01*
X22052500Y12950000D01*
G75*
G02*
X21815000Y13187500I0J237500D01*
G01*
X21815000Y13662500D01*
G75*
G02*
X22052500Y13900000I237500J0D01*
G01*
X22652500Y13900000D01*
G75*
G02*
X22890000Y13662500I0J-237500D01*
G01*
G37*
G04 #@! TD*
G04 #@! TO.C,C5*
G36*
G01*
X26490000Y13662500D02*
X26490000Y13187500D01*
G75*
G02*
X26252500Y12950000I-237500J0D01*
G01*
X25652500Y12950000D01*
G75*
G02*
X25415000Y13187500I0J237500D01*
G01*
X25415000Y13662500D01*
G75*
G02*
X25652500Y13900000I237500J0D01*
G01*
X26252500Y13900000D01*
G75*
G02*
X26490000Y13662500I0J-237500D01*
G01*
G37*
G36*
G01*
X28215000Y13662500D02*
X28215000Y13187500D01*
G75*
G02*
X27977500Y12950000I-237500J0D01*
G01*
X27377500Y12950000D01*
G75*
G02*
X27140000Y13187500I0J237500D01*
G01*
X27140000Y13662500D01*
G75*
G02*
X27377500Y13900000I237500J0D01*
G01*
X27977500Y13900000D01*
G75*
G02*
X28215000Y13662500I0J-237500D01*
G01*
G37*
G04 #@! TD*
G04 #@! TO.C,C4*
G36*
G01*
X18610000Y17482500D02*
X18610000Y17007500D01*
G75*
G02*
X18372500Y16770000I-237500J0D01*
G01*
X17772500Y16770000D01*
G75*
G02*
X17535000Y17007500I0J237500D01*
G01*
X17535000Y17482500D01*
G75*
G02*
X17772500Y17720000I237500J0D01*
G01*
X18372500Y17720000D01*
G75*
G02*
X18610000Y17482500I0J-237500D01*
G01*
G37*
G36*
G01*
X20335000Y17482500D02*
X20335000Y17007500D01*
G75*
G02*
X20097500Y16770000I-237500J0D01*
G01*
X19497500Y16770000D01*
G75*
G02*
X19260000Y17007500I0J237500D01*
G01*
X19260000Y17482500D01*
G75*
G02*
X19497500Y17720000I237500J0D01*
G01*
X20097500Y17720000D01*
G75*
G02*
X20335000Y17482500I0J-237500D01*
G01*
G37*
G04 #@! TD*
G04 #@! TO.C,C3*
G36*
G01*
X44132500Y15740000D02*
X43657500Y15740000D01*
G75*
G02*
X43420000Y15977500I0J237500D01*
G01*
X43420000Y16577500D01*
G75*
G02*
X43657500Y16815000I237500J0D01*
G01*
X44132500Y16815000D01*
G75*
G02*
X44370000Y16577500I0J-237500D01*
G01*
X44370000Y15977500D01*
G75*
G02*
X44132500Y15740000I-237500J0D01*
G01*
G37*
G36*
G01*
X44132500Y14015000D02*
X43657500Y14015000D01*
G75*
G02*
X43420000Y14252500I0J237500D01*
G01*
X43420000Y14852500D01*
G75*
G02*
X43657500Y15090000I237500J0D01*
G01*
X44132500Y15090000D01*
G75*
G02*
X44370000Y14852500I0J-237500D01*
G01*
X44370000Y14252500D01*
G75*
G02*
X44132500Y14015000I-237500J0D01*
G01*
G37*
G04 #@! TD*
G04 #@! TO.C,C2*
G36*
G01*
X47677500Y15080000D02*
X48152500Y15080000D01*
G75*
G02*
X48390000Y14842500I0J-237500D01*
G01*
X48390000Y14242500D01*
G75*
G02*
X48152500Y14005000I-237500J0D01*
G01*
X47677500Y14005000D01*
G75*
G02*
X47440000Y14242500I0J237500D01*
G01*
X47440000Y14842500D01*
G75*
G02*
X47677500Y15080000I237500J0D01*
G01*
G37*
G36*
G01*
X47677500Y16805000D02*
X48152500Y16805000D01*
G75*
G02*
X48390000Y16567500I0J-237500D01*
G01*
X48390000Y15967500D01*
G75*
G02*
X48152500Y15730000I-237500J0D01*
G01*
X47677500Y15730000D01*
G75*
G02*
X47440000Y15967500I0J237500D01*
G01*
X47440000Y16567500D01*
G75*
G02*
X47677500Y16805000I237500J0D01*
G01*
G37*
G04 #@! TD*
G04 #@! TO.C,C1*
G36*
G01*
X49477500Y15080000D02*
X49952500Y15080000D01*
G75*
G02*
X50190000Y14842500I0J-237500D01*
G01*
X50190000Y14242500D01*
G75*
G02*
X49952500Y14005000I-237500J0D01*
G01*
X49477500Y14005000D01*
G75*
G02*
X49240000Y14242500I0J237500D01*
G01*
X49240000Y14842500D01*
G75*
G02*
X49477500Y15080000I237500J0D01*
G01*
G37*
G36*
G01*
X49477500Y16805000D02*
X49952500Y16805000D01*
G75*
G02*
X50190000Y16567500I0J-237500D01*
G01*
X50190000Y15967500D01*
G75*
G02*
X49952500Y15730000I-237500J0D01*
G01*
X49477500Y15730000D01*
G75*
G02*
X49240000Y15967500I0J237500D01*
G01*
X49240000Y16567500D01*
G75*
G02*
X49477500Y16805000I237500J0D01*
G01*
G37*
G04 #@! TD*
M02*
