M48
; DRILL file {KiCad 5.1.8+dfsg1-1~bpo10+1} date Thu Dec 17 11:19:29 2020
; FORMAT={-:-/ absolute / inch / decimal}
; #@! TF.CreationDate,2020-12-17T11:19:29+08:00
; #@! TF.GenerationSoftware,Kicad,Pcbnew,5.1.8+dfsg1-1~bpo10+1
; #@! TF.FileFunction,Plated,1,2,PTH
FMAT,2
INCH
T1C0.0157
T2C0.0236
T3C0.0394
%
G90
G05
T1
X0.3613Y0.2607
X0.8243Y0.6856
X1.1006Y0.7986
X1.1133Y0.6365
X1.2083Y0.6956
X1.2787Y1.0334
X1.2826Y0.4895
T3
X0.1801Y0.5203
X0.1801Y0.4203
X0.2801Y0.5203
X0.2801Y0.4203
X0.3801Y0.5203
X0.3801Y0.4203
X0.4801Y0.5203
X0.4801Y0.4203
X0.1384Y0.1289
X0.2384Y0.1289
X0.3384Y0.1289
X0.4384Y0.1289
X0.5384Y0.1289
X0.6384Y0.1289
X0.7384Y0.1289
X0.8384Y0.1289
X0.9384Y0.1289
X1.0384Y0.1289
X1.1384Y0.1289
X1.2384Y0.1289
X1.3384Y0.1289
X1.4384Y0.1289
X1.5384Y0.1289
X1.6384Y0.1289
X1.7384Y0.1289
X1.8384Y0.1289
X1.9384Y0.1289
X2.0384Y0.1289
X2.1384Y0.1289
X2.2384Y0.1289
X2.3384Y0.1289
X2.4384Y0.1289
X2.5384Y0.1289
X0.1801Y1.1553
X0.1801Y1.0553
X0.2801Y1.1553
X0.2801Y1.0553
X0.3801Y1.1553
X0.3801Y1.0553
X0.4801Y1.1553
X0.4801Y1.0553
X0.1384Y1.4459
X0.2384Y1.4459
X0.3384Y1.4459
X0.4384Y1.4459
X0.5384Y1.4459
X0.6384Y1.4459
X0.7384Y1.4459
X0.8384Y1.4459
X0.9384Y1.4459
X1.0384Y1.4459
X1.1384Y1.4459
X1.2384Y1.4459
X1.3384Y1.4459
X1.4384Y1.4459
X1.5384Y1.4459
X1.6384Y1.4459
X1.7384Y1.4459
X1.8384Y1.4459
X1.9384Y1.4459
X2.0384Y1.4459
X2.1384Y1.4459
X2.2384Y1.4459
X2.3384Y1.4459
X2.4384Y1.4459
X2.5384Y1.4459
T2
G00X2.4502Y0.9585
M15
G01X2.4069Y0.9585
M16
G05
G00X2.4502Y0.6183
M15
G01X2.4069Y0.6183
M16
G05
G00X2.6085Y0.9585
M15
G01X2.577Y0.9585
M16
G05
G00X2.6085Y0.6183
M15
G01X2.577Y0.6183
M16
G05
T0
M30
