G04 #@! TF.GenerationSoftware,KiCad,Pcbnew,5.1.8+dfsg1-1~bpo10+1*
G04 #@! TF.CreationDate,2020-12-17T11:19:26+08:00*
G04 #@! TF.ProjectId,stm32-io-extend,73746d33-322d-4696-9f2d-657874656e64,rev?*
G04 #@! TF.SameCoordinates,PX4cf27c8PY5b7b308*
G04 #@! TF.FileFunction,Copper,L2,Bot*
G04 #@! TF.FilePolarity,Positive*
%FSLAX46Y46*%
G04 Gerber Fmt 4.6, Leading zero omitted, Abs format (unit mm)*
G04 Created by KiCad (PCBNEW 5.1.8+dfsg1-1~bpo10+1) date 2020-12-17 11:19:26*
%MOMM*%
%LPD*%
G01*
G04 APERTURE LIST*
G04 #@! TA.AperFunction,ComponentPad*
%ADD10O,1.700000X1.700000*%
G04 #@! TD*
G04 #@! TA.AperFunction,ComponentPad*
%ADD11R,1.700000X1.700000*%
G04 #@! TD*
G04 #@! TA.AperFunction,ComponentPad*
%ADD12O,1.700000X0.900000*%
G04 #@! TD*
G04 #@! TA.AperFunction,ComponentPad*
%ADD13O,2.000000X0.900000*%
G04 #@! TD*
G04 #@! TA.AperFunction,ViaPad*
%ADD14C,0.800000*%
G04 #@! TD*
G04 #@! TA.AperFunction,Conductor*
%ADD15C,0.250000*%
G04 #@! TD*
G04 APERTURE END LIST*
D10*
G04 #@! TO.P,J5,25*
G04 #@! TO.N,/PC13*
X3515000Y3275000D03*
G04 #@! TO.P,J5,24*
G04 #@! TO.N,/PC14*
X6055000Y3275000D03*
G04 #@! TO.P,J5,23*
G04 #@! TO.N,/PC15*
X8595000Y3275000D03*
G04 #@! TO.P,J5,22*
G04 #@! TO.N,/OSC_IN*
X11135000Y3275000D03*
G04 #@! TO.P,J5,21*
G04 #@! TO.N,/OSC_OUT*
X13675000Y3275000D03*
G04 #@! TO.P,J5,20*
G04 #@! TO.N,/PA0*
X16215000Y3275000D03*
G04 #@! TO.P,J5,19*
G04 #@! TO.N,/PA1*
X18755000Y3275000D03*
G04 #@! TO.P,J5,18*
G04 #@! TO.N,/PA2*
X21295000Y3275000D03*
G04 #@! TO.P,J5,17*
G04 #@! TO.N,/PA3*
X23835000Y3275000D03*
G04 #@! TO.P,J5,16*
G04 #@! TO.N,/CS*
X26375000Y3275000D03*
G04 #@! TO.P,J5,15*
G04 #@! TO.N,/CLK*
X28915000Y3275000D03*
G04 #@! TO.P,J5,14*
G04 #@! TO.N,/DO*
X31455000Y3275000D03*
G04 #@! TO.P,J5,13*
G04 #@! TO.N,/DI*
X33995000Y3275000D03*
G04 #@! TO.P,J5,12*
G04 #@! TO.N,/PB0*
X36535000Y3275000D03*
G04 #@! TO.P,J5,11*
G04 #@! TO.N,/PB1*
X39075000Y3275000D03*
G04 #@! TO.P,J5,10*
G04 #@! TO.N,/PB2*
X41615000Y3275000D03*
G04 #@! TO.P,J5,9*
G04 #@! TO.N,/PB10*
X44155000Y3275000D03*
G04 #@! TO.P,J5,8*
G04 #@! TO.N,/PB11*
X46695000Y3275000D03*
G04 #@! TO.P,J5,7*
G04 #@! TO.N,VCC*
X49235000Y3275000D03*
G04 #@! TO.P,J5,6*
G04 #@! TO.N,/nWP*
X51775000Y3275000D03*
G04 #@! TO.P,J5,5*
G04 #@! TO.N,GND*
X54315000Y3275000D03*
G04 #@! TO.P,J5,4*
G04 #@! TO.N,/PA10*
X56855000Y3275000D03*
G04 #@! TO.P,J5,3*
G04 #@! TO.N,/PA9*
X59395000Y3275000D03*
G04 #@! TO.P,J5,2*
G04 #@! TO.N,VCC*
X61935000Y3275000D03*
D11*
G04 #@! TO.P,J5,1*
G04 #@! TO.N,/BOOT1_UP*
X64475000Y3275000D03*
G04 #@! TD*
D10*
G04 #@! TO.P,J4,25*
G04 #@! TO.N,/PB9*
X3515000Y36725000D03*
G04 #@! TO.P,J4,24*
G04 #@! TO.N,/PB8*
X6055000Y36725000D03*
G04 #@! TO.P,J4,23*
G04 #@! TO.N,/PB7*
X8595000Y36725000D03*
G04 #@! TO.P,J4,22*
G04 #@! TO.N,/PB6*
X11135000Y36725000D03*
G04 #@! TO.P,J4,21*
G04 #@! TO.N,/PB5*
X13675000Y36725000D03*
G04 #@! TO.P,J4,20*
G04 #@! TO.N,/PB4*
X16215000Y36725000D03*
G04 #@! TO.P,J4,19*
G04 #@! TO.N,/PB3*
X18755000Y36725000D03*
G04 #@! TO.P,J4,18*
G04 #@! TO.N,/PA15*
X21295000Y36725000D03*
G04 #@! TO.P,J4,17*
G04 #@! TO.N,/PA14*
X23835000Y36725000D03*
G04 #@! TO.P,J4,16*
G04 #@! TO.N,/PA13*
X26375000Y36725000D03*
G04 #@! TO.P,J4,15*
G04 #@! TO.N,/PA12*
X28915000Y36725000D03*
G04 #@! TO.P,J4,14*
G04 #@! TO.N,/PA11*
X31455000Y36725000D03*
G04 #@! TO.P,J4,13*
G04 #@! TO.N,/PA10*
X33995000Y36725000D03*
G04 #@! TO.P,J4,12*
G04 #@! TO.N,/PA9*
X36535000Y36725000D03*
G04 #@! TO.P,J4,11*
G04 #@! TO.N,/PA8*
X39075000Y36725000D03*
G04 #@! TO.P,J4,10*
G04 #@! TO.N,/PB15*
X41615000Y36725000D03*
G04 #@! TO.P,J4,9*
G04 #@! TO.N,/PB14*
X44155000Y36725000D03*
G04 #@! TO.P,J4,8*
G04 #@! TO.N,/PB13*
X46695000Y36725000D03*
G04 #@! TO.P,J4,7*
G04 #@! TO.N,/PB12*
X49235000Y36725000D03*
G04 #@! TO.P,J4,6*
G04 #@! TO.N,VCC*
X51775000Y36725000D03*
G04 #@! TO.P,J4,5*
G04 #@! TO.N,GND*
X54315000Y36725000D03*
G04 #@! TO.P,J4,4*
G04 #@! TO.N,/PA13*
X56855000Y36725000D03*
G04 #@! TO.P,J4,3*
G04 #@! TO.N,/PA14*
X59395000Y36725000D03*
G04 #@! TO.P,J4,2*
G04 #@! TO.N,VCC*
X61935000Y36725000D03*
D11*
G04 #@! TO.P,J4,1*
G04 #@! TO.N,/BOOT0_UP*
X64475000Y36725000D03*
G04 #@! TD*
D10*
G04 #@! TO.P,J3,8*
G04 #@! TO.N,/nWP*
X4575000Y10675000D03*
G04 #@! TO.P,J3,7*
G04 #@! TO.N,/CS*
X4575000Y13215000D03*
G04 #@! TO.P,J3,6*
G04 #@! TO.N,Net-(C11-Pad1)*
X7115000Y10675000D03*
G04 #@! TO.P,J3,5*
X7115000Y13215000D03*
G04 #@! TO.P,J3,4*
G04 #@! TO.N,GND*
X9655000Y10675000D03*
G04 #@! TO.P,J3,3*
G04 #@! TO.N,/CLK*
X9655000Y13215000D03*
G04 #@! TO.P,J3,2*
G04 #@! TO.N,/DO*
X12195000Y10675000D03*
D11*
G04 #@! TO.P,J3,1*
G04 #@! TO.N,/DI*
X12195000Y13215000D03*
G04 #@! TD*
D10*
G04 #@! TO.P,J2,8*
G04 #@! TO.N,/DI*
X4575000Y26805000D03*
G04 #@! TO.P,J2,7*
G04 #@! TO.N,GND*
X4575000Y29345000D03*
G04 #@! TO.P,J2,6*
G04 #@! TO.N,/CLK*
X7115000Y26805000D03*
G04 #@! TO.P,J2,5*
G04 #@! TO.N,/nWP*
X7115000Y29345000D03*
G04 #@! TO.P,J2,4*
G04 #@! TO.N,Net-(C11-Pad1)*
X9655000Y26805000D03*
G04 #@! TO.P,J2,3*
G04 #@! TO.N,/DO*
X9655000Y29345000D03*
G04 #@! TO.P,J2,2*
G04 #@! TO.N,Net-(C11-Pad1)*
X12195000Y26805000D03*
D11*
G04 #@! TO.P,J2,1*
G04 #@! TO.N,/CS*
X12195000Y29345000D03*
G04 #@! TD*
D12*
G04 #@! TO.P,J1,S1*
G04 #@! TO.N,GND*
X65855000Y24345000D03*
X65855000Y15705000D03*
D13*
X61685000Y24345000D03*
X61685000Y15705000D03*
G04 #@! TD*
D14*
G04 #@! TO.N,VCC*
X30691000Y17667400D03*
X32577000Y12432600D03*
X32478000Y26249100D03*
X27955000Y20285300D03*
G04 #@! TO.N,/NRST*
X20938000Y17414800D03*
X28279000Y16166000D03*
G04 #@! TO.N,/PA0*
X9176600Y6621000D03*
G04 #@! TD*
D15*
G04 #@! TO.N,GND*
X54315000Y36725000D02*
X54315000Y35549700D01*
X61685000Y28179700D02*
X60827350Y29037350D01*
X61685000Y24345000D02*
X61685000Y28179700D01*
X54315000Y35549700D02*
X60827350Y29037350D01*
X60827350Y29037350D02*
X60985000Y28879700D01*
G04 #@! TO.N,VCC*
X32577000Y17667400D02*
X32577000Y17667500D01*
X32577000Y12432600D02*
X32577000Y17667400D01*
X30485000Y20285300D02*
X30691000Y20285300D01*
X30691000Y20285300D02*
X30485000Y20285300D01*
X30485000Y20285300D02*
X27955000Y20285300D01*
X32577000Y17667500D02*
X32577000Y20237500D01*
X30691000Y20285300D02*
X32530000Y20285300D01*
X32530000Y20285300D02*
X32577000Y20237500D01*
X32577000Y20237500D02*
X32577000Y26149700D01*
X32577000Y26149700D02*
X32478000Y26249100D01*
X30691000Y17667400D02*
X32577000Y17667400D01*
X32577000Y17667400D02*
X32577000Y17667500D01*
X32478000Y26249100D02*
X32630000Y26401000D01*
X32630000Y26401000D02*
X32630000Y37092600D01*
X32630000Y37092600D02*
X33438000Y37900300D01*
X33438000Y37900300D02*
X49792000Y37900300D01*
X49792000Y37900300D02*
X50600000Y37092400D01*
X50600000Y37092400D02*
X50600000Y36725000D01*
X50600000Y36725000D02*
X51775000Y36725000D01*
X49235000Y3275000D02*
X50410000Y4450400D01*
X50410000Y4450400D02*
X52264000Y4450400D01*
X52264000Y4450400D02*
X53045000Y3669200D01*
X53045000Y3669200D02*
X53045000Y2786200D01*
X53045000Y2786200D02*
X53731000Y2099700D01*
X53731000Y2099700D02*
X59952000Y2099700D01*
X59952000Y2099700D02*
X60760000Y2907600D01*
X60760000Y2907600D02*
X60760000Y3275000D01*
X60760000Y3275000D02*
X61935000Y3275000D01*
X49235000Y3275000D02*
X48060000Y3275000D01*
X48060000Y3275000D02*
X48060000Y3642300D01*
X48060000Y3642300D02*
X39269000Y12432600D01*
X39269000Y12432600D02*
X32577000Y12432600D01*
G04 #@! TO.N,/NRST*
X28279000Y16166000D02*
X27030000Y17414800D01*
X27030000Y17414800D02*
X20938000Y17414800D01*
G04 #@! TO.N,/PA14*
X59395000Y36725000D02*
X58220000Y36725000D01*
X58220000Y36725000D02*
X58220000Y37101600D01*
X58220000Y37101600D02*
X56495000Y38826500D01*
X56495000Y38826500D02*
X26745000Y38826500D01*
X26745000Y38826500D02*
X25010000Y37092300D01*
X25010000Y37092300D02*
X25010000Y36725000D01*
X25010000Y36725000D02*
X23835000Y36725000D01*
G04 #@! TO.N,/PA13*
X56855000Y36725000D02*
X55680000Y36725000D01*
X55680000Y36725000D02*
X55680000Y37092300D01*
X55680000Y37092300D02*
X54396000Y38376100D01*
X54396000Y38376100D02*
X28834000Y38376100D01*
X28834000Y38376100D02*
X27550000Y37092300D01*
X27550000Y37092300D02*
X27550000Y36725000D01*
X27550000Y36725000D02*
X26375000Y36725000D01*
G04 #@! TO.N,/PA10*
X33995000Y36725000D02*
X33995000Y27310300D01*
X33995000Y27310300D02*
X56855000Y4450300D01*
X56855000Y4450300D02*
X56855000Y3275000D01*
G04 #@! TO.N,/PA9*
X59395000Y3275000D02*
X59395000Y4450300D01*
X59395000Y4450300D02*
X36535000Y27310300D01*
X36535000Y27310300D02*
X36535000Y36725000D01*
G04 #@! TO.N,/PA0*
X16215000Y3275000D02*
X15039700Y3275000D01*
X15039700Y3275000D02*
X15039700Y3642400D01*
X15039700Y3642400D02*
X14231800Y4450300D01*
X14231800Y4450300D02*
X11347300Y4450300D01*
X11347300Y4450300D02*
X9176600Y6621000D01*
G04 #@! TO.N,/DI*
X33995000Y3275000D02*
X32820000Y3275000D01*
X32820000Y3275000D02*
X32820000Y3589300D01*
X32820000Y3589300D02*
X23194000Y13215000D01*
X23194000Y13215000D02*
X12195000Y13215000D01*
G04 #@! TO.N,/CLK*
X9655000Y13215000D02*
X9655000Y12039700D01*
X9655000Y12039700D02*
X9966500Y12039700D01*
X9966500Y12039700D02*
X10925000Y11081200D01*
X10925000Y11081200D02*
X10925000Y10273300D01*
X10925000Y10273300D02*
X13099000Y8099300D01*
X13099000Y8099300D02*
X23283000Y8099300D01*
X23283000Y8099300D02*
X27740000Y3642300D01*
X27740000Y3642300D02*
X27740000Y3275000D01*
X27740000Y3275000D02*
X28915000Y3275000D01*
X7115000Y26805000D02*
X7115000Y16930300D01*
X7115000Y16930300D02*
X9655000Y14390300D01*
X9655000Y14390300D02*
X9655000Y13215000D01*
G04 #@! TO.N,/nWP*
X4575000Y10675000D02*
X5750300Y10675000D01*
X5750300Y10675000D02*
X5750300Y10368200D01*
X5750300Y10368200D02*
X6618800Y9499700D01*
X6618800Y9499700D02*
X7323700Y9499700D01*
X7323700Y9499700D02*
X11698100Y5125300D01*
X11698100Y5125300D02*
X11698100Y5125200D01*
X11698100Y5125200D02*
X18567200Y5125200D01*
X18567200Y5125200D02*
X20025000Y3667400D01*
X20025000Y3667400D02*
X20025000Y2785500D01*
X20025000Y2785500D02*
X20711000Y2099700D01*
X20711000Y2099700D02*
X49792000Y2099700D01*
X49792000Y2099700D02*
X50600000Y2907600D01*
X50600000Y2907600D02*
X50600000Y3275000D01*
X50600000Y3275000D02*
X51775000Y3275000D01*
G04 #@! TO.N,/DO*
X31455000Y3275000D02*
X30280000Y3275000D01*
X30280000Y3275000D02*
X30280000Y3663600D01*
X30280000Y3663600D02*
X23268000Y10675000D01*
X23268000Y10675000D02*
X12195000Y10675000D01*
X9655000Y29345000D02*
X10830400Y28169600D01*
X10830400Y28169600D02*
X12520600Y28169600D01*
X12520600Y28169600D02*
X13392400Y27297800D01*
X13392400Y27297800D02*
X13392400Y18556300D01*
X13392400Y18556300D02*
X11019600Y16183500D01*
X11019600Y16183500D02*
X11019600Y12225400D01*
X11019600Y12225400D02*
X11394700Y11850300D01*
X11394700Y11850300D02*
X12195000Y11850300D01*
X12195000Y11850300D02*
X12195000Y10675000D01*
G04 #@! TO.N,/CS*
X12195000Y29345000D02*
X11019700Y29345000D01*
X11019700Y29345000D02*
X11019700Y29712300D01*
X11019700Y29712300D02*
X10203000Y30529000D01*
X10203000Y30529000D02*
X4062500Y30529000D01*
X4062500Y30529000D02*
X3399700Y29866200D01*
X3399700Y29866200D02*
X3399700Y15565600D01*
X3399700Y15565600D02*
X4575000Y14390300D01*
X4575000Y14390300D02*
X4575000Y13802700D01*
X4575000Y13215000D02*
X4575000Y13802700D01*
X4575000Y13802700D02*
X6527300Y11850400D01*
X6527300Y11850400D02*
X7640600Y11850400D01*
X7640600Y11850400D02*
X8385000Y11106000D01*
X8385000Y11106000D02*
X8385000Y10217500D01*
X8385000Y10217500D02*
X11719600Y6882900D01*
X11719600Y6882900D02*
X21889000Y6882900D01*
X21889000Y6882900D02*
X25200000Y3572600D01*
X25200000Y3572600D02*
X25200000Y3275000D01*
X25200000Y3275000D02*
X26375000Y3275000D01*
G04 #@! TO.N,Net-(C11-Pad1)*
X12195000Y26805000D02*
X9655000Y26805000D01*
X9655000Y26805000D02*
X8479700Y26805000D01*
X8479700Y26805000D02*
X8479700Y27172300D01*
X8479700Y27172300D02*
X7671600Y27980400D01*
X7671600Y27980400D02*
X6589400Y27980400D01*
X6589400Y27980400D02*
X5939700Y27330700D01*
X5939700Y27330700D02*
X5939700Y15565600D01*
X5939700Y15565600D02*
X7115000Y14390300D01*
X7115000Y14390300D02*
X7115000Y13215000D01*
G04 #@! TD*
M02*
